<svg width="28" height="29" viewBox="0 0 28 29" fill="none" xmlns="http://www.w3.org/2000/svg">
<g clip-path="url(#clip0_166_269)">
<path d="M21.8228 14.6708C21.218 14.4219 20.8049 13.9785 20.5939 13.3536C19.7562 10.8682 22.3852 6.29013 22.4972 6.09632L22.7644 6.25287C22.7377 6.29921 20.0943 10.9024 20.887 13.2534C21.0702 13.7969 21.4158 14.1661 21.9397 14.3824C22.3314 14.5437 22.7175 14.5252 23.1197 14.3261C25.2227 13.2857 26.7476 7.78235 26.7629 7.72787L27.0609 7.81053C26.9987 8.04222 25.4837 13.5033 23.2566 14.6047C22.7769 14.8433 22.2944 14.8649 21.8228 14.6708Z" fill="#F1C65E"/>
<path d="M23.4204 6.52777C23.5728 6.32895 24.4619 5.52586 25.4089 5.91723C26.2308 6.25569 26.2274 7.21658 26.1866 7.63926L27.3588 8.14993C27.7321 7.34871 29.0076 4.18017 26.4037 3.13192C23.8192 2.09181 22.368 5.57 22.1919 6.02211L23.4204 6.52777Z" fill="#A0D1CA"/>
<path d="M25.6796 5.06623C24.7152 5.01395 24.1527 6.2441 23.1087 5.74722C22.2548 5.34019 23.4537 4.157 23.7797 3.85016C24.1474 3.50388 24.5313 3.21614 24.9454 3.00136C23.2726 3.40337 22.3304 5.66268 22.1907 6.02149L23.4204 6.52777C23.5728 6.32895 24.4619 5.52586 25.4089 5.91723C26.2308 6.25569 26.2274 7.21659 26.1866 7.63927L26.4551 7.75605C26.7606 6.72283 26.937 5.13449 25.6796 5.06623Z" fill="#71ACAB"/>
<path d="M26.6247 3.47507C26.6247 3.47507 28.4797 4.32325 27.5934 6.84619C27.4637 7.21376 27.3682 6.62107 27.3533 6.51399C27.3085 6.1915 27.3184 5.86588 27.2976 5.54088C27.2509 4.817 27.0543 4.13695 26.3491 3.80977C26.2458 3.76186 25.758 3.58528 25.8348 3.40274C25.9176 3.20424 26.4993 3.41777 26.6247 3.47507Z" fill="#F5F5F5"/>
<path d="M21.7585 14.5884C21.2746 14.3887 20.8893 14.0038 20.6871 13.5183C20.4849 13.0328 20.4825 12.4864 20.6803 11.9991C20.8787 11.5124 21.2609 11.1247 21.743 10.9213C22.2251 10.7178 22.7677 10.7152 23.2518 10.9139C23.7354 11.1136 24.1206 11.4983 24.3227 11.9835C24.5249 12.4687 24.5275 13.0149 24.33 13.502C24.1317 13.9889 23.7496 14.3767 23.2675 14.5804C22.7854 14.7841 22.2427 14.787 21.7585 14.5884ZM23.1348 11.2032C22.7267 11.0357 22.2692 11.0379 21.8627 11.2094C21.4562 11.3809 21.1339 11.7077 20.9665 12.1181C20.8001 12.529 20.8024 12.9895 20.973 13.3987C21.1436 13.8078 21.4685 14.1321 21.8764 14.3004C22.2846 14.4679 22.7421 14.4657 23.1486 14.2941C23.5551 14.1225 23.8774 13.7957 24.0447 13.3852C24.2112 12.9744 24.2088 12.5139 24.0382 12.1048C23.8676 11.6957 23.5427 11.3715 23.1348 11.2032Z" fill="#F1C65E"/>
<path d="M9.48927 16.304L8.74072 16.6847L11.9348 23.0459L12.6833 22.6652L9.48927 16.304Z" fill="#71ACAB"/>
<path d="M9.01115 16.547L8.74072 16.6845L11.9348 23.0457L12.2052 22.9082L9.01115 16.547Z" fill="#71ACAB"/>
<path d="M9.88522 15.6311C9.94873 15.7575 9.98687 15.8952 9.99748 16.0364C10.0081 16.1777 9.99094 16.3196 9.94703 16.4542C9.90312 16.5887 9.8333 16.7132 9.74156 16.8206C9.64982 16.928 9.53796 17.0162 9.41237 17.0801C9.1587 17.2091 8.86451 17.2313 8.59452 17.142C8.32453 17.0527 8.10083 16.8591 7.97264 16.6039L7.80434 16.2692C7.67619 16.0139 7.65405 15.7178 7.74279 15.446C7.83152 15.1743 8.02386 14.9492 8.27751 14.8201C8.53114 14.6911 8.82529 14.6688 9.09528 14.7581C9.36527 14.8473 9.58899 15.0408 9.71724 15.2961L9.88522 15.6311Z" fill="#A0D1CA"/>
<path d="M8.27751 14.8198C8.02386 14.9488 7.83152 15.174 7.74279 15.4457C7.65405 15.7175 7.67619 16.0135 7.80434 16.2688L7.97264 16.6035C7.99004 16.6382 8.00925 16.6718 8.03019 16.7044C8.03567 16.705 8.04109 16.7062 8.04637 16.7078C8.00313 16.628 8.01339 16.5262 8.12259 16.4864C8.68255 16.2814 9.31033 16.1599 9.88709 16.3825C9.91135 16.3919 9.93407 16.4035 9.95802 16.4138C10.0332 16.153 10.0072 15.8733 9.88522 15.6311L9.71724 15.2961C9.58904 15.0408 9.36535 14.8472 9.09536 14.7579C8.82536 14.6686 8.53118 14.6909 8.27751 14.8198Z" fill="#A0D1CA"/>
<path d="M11.4345 7.62706C12.9395 10.624 11.7456 14.2816 8.76781 15.7964C5.79005 17.3112 2.1559 16.1095 0.650842 13.1125C-0.854213 10.1156 0.33975 6.45795 3.31751 4.94319C6.29526 3.42842 9.93067 4.63009 11.4345 7.62706Z" fill="#A0D1CA"/>
<path d="M0.00689138 10.1268C-0.0358171 11.1611 0.18602 12.1892 0.65116 13.1125C2.15622 16.1095 5.79037 17.3111 8.76813 15.7964C10.1649 15.0877 11.2327 13.8596 11.7456 12.3724C8.08778 14.8461 1.32094 14.5665 0.00689138 10.1268Z" fill="#71ACAB"/>
<path d="M11.542 7.85593C11.5074 7.77922 11.4723 7.70282 11.4343 7.62705C11.0551 6.87015 10.5221 6.20187 9.86987 5.6655C7.25671 8.22757 3.49002 9.86757 0.00830078 10.6628C0.0483317 11.5158 0.26715 12.3507 0.650392 13.1125C0.706699 13.2243 0.766739 13.3317 0.828646 13.4394C4.78758 12.7681 8.93504 10.9684 11.542 7.85593Z" fill="#E7D5C6"/>
<path d="M7.23807 4.71337C6.70113 4.61663 6.13806 4.54273 5.59241 4.5994C5.24367 4.63541 4.5431 4.87681 4.93912 5.36587C5.17554 5.65799 5.49348 5.73657 5.85745 5.74847C6.6974 5.77665 7.58152 5.88216 8.39968 6.14736C8.87814 6.3039 9.93492 7.09573 10.4 6.69152C10.0177 5.81672 8.99605 5.24376 8.11099 4.92189C7.97069 4.87117 7.64063 4.7857 7.23807 4.71337Z" fill="#F5F5F5"/>
<path d="M12.2146 22.6598C11.6632 22.9403 11.2451 23.4297 11.0522 24.0205C10.8594 24.6112 10.9075 25.2549 11.1861 25.8099C11.3242 26.0847 11.5146 26.3296 11.7467 26.5303C11.9787 26.7311 12.2478 26.8839 12.5386 26.98C12.8293 27.0761 13.136 27.1136 13.4411 27.0904C13.7463 27.0671 14.0439 26.9836 14.317 26.8446C14.868 26.5638 15.2857 26.0742 15.4782 25.4835C15.6708 24.8928 15.6223 24.2493 15.3436 23.6946C15.0649 23.1399 14.5787 22.7192 13.9919 22.5252C13.4052 22.3311 12.7659 22.3796 12.2146 22.6598ZM13.994 26.2031C13.6117 26.3975 13.1683 26.4311 12.7613 26.2966C12.3544 26.162 12.0172 25.8702 11.8239 25.4855C11.6307 25.1008 11.5974 24.6546 11.7311 24.2451C11.8648 23.8356 12.1547 23.4964 12.5369 23.3019C12.7262 23.2057 12.9325 23.1478 13.144 23.1318C13.3555 23.1157 13.568 23.1418 13.7695 23.2084C13.971 23.275 14.1575 23.381 14.3183 23.5202C14.4791 23.6593 14.6111 23.829 14.7068 24.0196C14.8998 24.4043 14.9332 24.8504 14.7996 25.2598C14.6659 25.6693 14.3762 26.0086 13.994 26.2031Z" fill="#E7D5C6"/>
<path d="M12.262 22.8063C12.8133 22.5257 13.4527 22.4769 14.0397 22.6706C14.6267 22.8644 15.1132 23.2848 15.3922 23.8395C15.4396 23.9361 15.4804 24.0358 15.5145 24.1379C15.4729 23.9842 15.416 23.8351 15.3446 23.693C15.0656 23.1383 14.5792 22.7179 13.9922 22.5241C13.4053 22.3303 12.7659 22.3792 12.2147 22.6598C11.7131 22.9151 11.3203 23.3444 11.1087 23.8685C10.8971 24.3927 10.8811 24.9761 11.0637 25.5112C10.9238 24.9904 10.9666 24.437 11.1849 23.9442C11.4032 23.4515 11.7836 23.0496 12.262 22.8063Z" fill="#F1C65E"/>
<path d="M11.8714 25.632C11.967 25.8226 12.099 25.9923 12.2598 26.1314C12.4207 26.2706 12.6072 26.3765 12.8087 26.4431C13.0102 26.5097 13.2227 26.5357 13.4342 26.5196C13.6457 26.5036 13.852 26.4457 14.0412 26.3493C14.3963 26.1687 14.6726 25.8625 14.8172 25.4895C14.9618 25.1165 14.9644 24.7028 14.8246 24.328C14.9214 24.689 14.8917 25.0726 14.7404 25.4141C14.5891 25.7557 14.3255 26.0343 13.994 26.2031C13.6116 26.3975 13.1682 26.4311 12.7612 26.2966C12.3543 26.162 12.0171 25.8702 11.8238 25.4855C11.7974 25.4326 11.7739 25.3784 11.7532 25.323C11.782 25.4298 11.8216 25.5333 11.8714 25.632Z" fill="#F1C65E"/>
<path d="M5.32643 9.12491C5.43469 9.06981 6.04194 9.66595 6.04194 9.66595C6.04194 9.66595 6.80629 9.32154 6.88997 9.37946C6.97366 9.43738 6.60004 10.2314 6.60004 10.2314C6.60004 10.2314 7.16249 10.8739 7.13262 10.9547C7.10276 11.0354 6.23824 10.9403 6.23824 10.9403C6.23824 10.9403 5.82013 11.6917 5.71903 11.6738C5.61793 11.656 5.45647 10.8128 5.45647 10.8128C5.45647 10.8128 4.6523 10.6337 4.60284 10.5429C4.55337 10.4521 5.33515 10.0254 5.33515 10.0254C5.33515 10.0254 5.21662 9.18127 5.32643 9.12491Z" fill="#E7D5C6"/>
<path d="M8.35498 7.22253C8.44831 7.14519 9.16973 7.59511 9.16973 7.59511C9.16973 7.59511 9.84231 7.09416 9.93626 7.13111C10.0302 7.16805 9.83577 8.02562 9.83577 8.02562C9.83577 8.02562 10.5233 8.53065 10.5115 8.61612C10.4996 8.7016 9.63481 8.79678 9.63481 8.79678C9.63481 8.79678 9.3878 9.61991 9.28577 9.62586C9.18373 9.63181 8.84402 8.84312 8.84402 8.84312C8.84402 8.84312 8.02087 8.84312 7.95305 8.76516C7.88524 8.6872 8.55657 8.10045 8.55657 8.10045C8.55657 8.10045 8.26103 7.29986 8.35498 7.22253Z" fill="#E7D5C6"/>
<path d="M1.90912 10.4227C1.79152 10.454 1.72402 11.3038 1.72402 11.3038C1.72402 11.3038 0.923892 11.5514 0.898072 11.6482C0.872251 11.7449 1.67331 12.0975 1.67331 12.0975C1.67331 12.0975 1.66989 12.9538 1.74517 12.9951C1.82045 13.0364 2.40935 12.3918 2.40935 12.3918C2.40935 12.3918 3.21445 12.6798 3.2804 12.6003C3.34635 12.5208 2.91487 11.78 2.91487 11.78C2.91487 11.78 3.40328 11.1124 3.38151 11.011C3.35973 10.9096 2.49179 11.1049 2.49179 11.1049C2.49179 11.1049 2.02702 10.3923 1.90912 10.4227Z" fill="#E7D5C6"/>
<path d="M11.5766 22.358C11.4049 24.781 11.118 27.2038 13.6976 28.4155C15.2453 29.2809 17.3685 28.9502 18.9136 28.877C23.7859 28.6462 22.3356 22.6983 21.7797 18.8964C21.2067 14.9736 20.9199 12.6657 20.232 8.68533C19.7163 6.43541 19.5165 6.55063 16.3344 6.55063C13.7119 6.55063 13.1818 6.08912 12.7948 8.94488C12.7948 8.94488 11.9216 16.6468 11.5766 22.358Z" fill="#71ACAB"/>
<path d="M11.5766 22.358C11.4049 24.781 11.118 27.2038 13.6976 28.4155C15.2453 29.2809 17.3685 28.9502 18.9136 28.877C23.7859 28.6462 22.3356 22.6983 21.7797 18.8964C21.2067 14.9736 20.9199 12.6657 20.232 8.68533C19.7163 6.43541 19.5165 6.55063 16.3344 6.55063C13.7119 6.55063 13.1818 6.08912 12.7948 8.94488C12.7948 8.94488 11.9216 16.6468 11.5766 22.358Z" fill="#A0D1CA"/>
<path d="M14.908 27.9358C13.8861 27.2858 13.0362 26.4977 12.8097 25.2472C12.5468 23.7966 12.6741 22.2634 12.6734 20.7962C12.6734 18.913 12.6753 17.0287 12.7357 15.1461C12.7895 13.4839 12.7285 11.6669 13.0719 10.0345C13.2757 9.06386 14.4096 9.50219 15.1133 9.61428C16.8504 9.89012 18.6224 9.60051 20.3138 9.17C20.2868 9.01001 20.2597 8.85158 20.2311 8.68626C19.7153 6.43635 19.5156 6.55157 16.3334 6.55157C13.7109 6.55157 13.1808 6.09006 12.7938 8.94582C12.7938 8.94582 11.9197 16.648 11.5756 22.3589C11.4039 24.782 11.1171 27.2047 13.6966 28.4164C14.6772 28.9646 15.8882 29.0326 17.0374 28.9903C16.2929 28.7147 15.5792 28.3613 14.908 27.9358Z" fill="#71ACAB"/>
<path d="M12.8237 8.72853C12.8237 8.72853 16.2768 9.59393 20.2323 8.68532C20.2323 8.68532 20.5049 8.61331 20.4473 7.99306C20.3994 7.47426 20.1751 5.57 20.1751 5.57C20.1751 5.57 20.2218 4.66202 18.9858 4.52081C18.2233 4.43409 17.6229 4.39557 16.5354 4.39088C14.9927 4.38649 13.9023 4.55306 13.5582 4.66139C13.2141 4.76973 12.8524 4.90655 12.7233 5.64201C12.5941 6.37748 12.5801 8.03627 12.5801 8.03627C12.5801 8.03627 12.4794 8.58419 12.8237 8.72853Z" fill="#A0D1CA"/>
<path d="M20.1748 5.57001C20.1748 5.57001 20.2215 4.66203 18.9855 4.52082C18.2233 4.43409 17.6226 4.39558 16.535 4.39088C14.9923 4.38619 13.902 4.55307 13.5579 4.6614C13.2138 4.76973 12.852 4.90655 12.7232 5.64202C12.713 5.70025 12.7948 6.21906 16.5637 6.20559C19.9331 6.19182 20.1748 5.57001 20.1748 5.57001Z" fill="#A0D1CA"/>
<path d="M19.2632 5.4169C20.2401 5.07249 17.3606 4.38587 17.3283 3.27281C17.2956 2.68387 17.5084 1.78528 17.4527 1.21638C17.3905 0.562638 17.1295 -0.110208 16.222 0.0150307C15.8338 0.0685703 15.2888 0.328129 15.4511 1.67914C15.5501 2.50791 15.7663 3.37832 15.0449 3.96194C14.586 4.33296 13.9221 4.63478 13.5438 5.08689C13.4337 5.21871 13.3093 5.37682 13.5554 5.46605C13.5566 5.46605 16.5322 6.38249 19.2632 5.4169Z" fill="#F1C65E"/>
<path d="M19.3443 5.06216C19.189 5.23864 19.0198 5.4021 18.8381 5.5509C18.9806 5.51083 19.1228 5.46699 19.2643 5.4169C19.5272 5.32391 19.5095 5.20493 19.3443 5.06216Z" fill="#DC968F"/>
<path d="M14.5574 5.25253C14.4684 4.93943 14.8996 4.73466 15.159 4.51706C15.9473 3.85361 16.2724 3.19015 16.0397 2.40083C15.7908 1.56142 15.5818 0.856328 15.9725 0.0823517C15.6418 0.221367 15.3239 0.604598 15.4524 1.67915C15.5513 2.50792 15.7675 3.37833 15.0458 3.96194C14.5872 4.33296 13.9234 4.63478 13.5451 5.0869C13.4349 5.21871 13.3105 5.37682 13.5566 5.46606C13.5566 5.46606 14.7288 5.82674 16.2768 5.8568C15.9747 5.72217 14.6482 5.57157 14.5574 5.25253Z" fill="#DC968F"/>
<path d="M19.3822 5.09692C19.335 5.13709 19.2804 5.16742 19.2214 5.18615C15.9117 6.45732 13.5135 5.23624 13.5135 5.23624C13.4905 5.22758 13.4683 5.21711 13.4469 5.20493C13.3695 5.31483 13.3878 5.40437 13.5568 5.46574C13.5568 5.46574 16.5323 6.38218 19.2643 5.41659C19.506 5.33017 19.5123 5.22529 19.3822 5.09692Z" fill="#DC968F"/>
<path d="M17.2543 0.741734C17.3386 1.04387 17.2726 1.32629 17.1068 1.37356C16.941 1.42084 16.7385 1.21357 16.6542 0.911746C16.5699 0.60992 16.6355 0.327194 16.801 0.280229C16.9665 0.233265 17.1697 0.439909 17.2543 0.741734Z" fill="#F1C65E"/>
<path d="M19.6162 12.2725C19.583 12.2668 19.5494 12.2634 19.5157 12.2621C18.2502 12.2149 19.264 16.694 19.3742 17.2629C19.5636 18.2392 19.6952 19.2239 19.9257 20.1926C20.0019 20.5132 20.5936 21.7556 21.1206 20.9155C21.4647 20.3676 21.1517 18.6071 20.9489 17.0791C20.6907 15.1467 20.7206 14.3004 20.1908 12.9084C20.0685 12.5878 19.9329 12.3282 19.6162 12.2725Z" fill="#F5F5F5"/>
<path d="M12.9668 12.1901L14.1275 12.3198" stroke="#A0D1CA" stroke-width="0.446275" stroke-miterlimit="10" stroke-linecap="round"/>
<path d="M12.5798 14.8076L13.7405 14.8944" stroke="#A0D1CA" stroke-width="0.446275" stroke-miterlimit="10" stroke-linecap="round"/>
<path d="M12.4077 16.9714L13.5684 17.0579" stroke="#A0D1CA" stroke-width="0.446275" stroke-miterlimit="10" stroke-linecap="round"/>
<path d="M12.2358 19.6105L13.3968 19.6969" stroke="#A0D1CA" stroke-width="0.446275" stroke-miterlimit="10" stroke-linecap="round"/>
<path d="M12.0422 22.6175L13.2032 22.7043" stroke="#A0D1CA" stroke-width="0.446275" stroke-miterlimit="10" stroke-linecap="round"/>
</g>
<defs>
<clipPath id="clip0_166_269">
<rect width="28" height="29" fill="white"/>
</clipPath>
</defs>
</svg>
