<svg width="20" height="26" viewBox="0 0 20 26" fill="none" xmlns="http://www.w3.org/2000/svg">
<g clip-path="url(#clip0_171_835)">
<path d="M6.79335 9.0229L6.85746 8.93802C7.68893 9.56287 8.70604 9.90136 9.75216 9.90136C10.7983 9.90136 11.8154 9.56287 12.6469 8.93802L12.7099 9.01964C13.0173 10.3582 13.3811 11.6827 13.7747 12.9984C14.029 14.1237 14.3684 15.2272 14.6791 16.3372C14.9843 17.4255 15.2884 18.5203 15.6588 19.5922C15.7108 19.7446 15.7063 19.8273 15.5272 19.8883C15.1612 20.0123 14.8063 20.1625 14.447 20.3018C13.4268 20.6095 12.3829 20.8352 11.3256 20.9765C10.2783 21.0576 9.22608 21.0576 8.17876 20.9765C7.12204 20.8354 6.07884 20.6094 5.05961 20.3007C4.70026 20.1603 4.34533 20.0101 3.98045 19.8861C3.80354 19.8251 3.7947 19.7457 3.84556 19.5912C4.53551 17.4853 5.10383 15.3469 5.68985 13.2117C5.70864 13.142 5.71529 13.0702 5.72856 13.0006C5.80264 12.7546 5.88446 12.5119 5.9497 12.2649C6.23386 11.1897 6.56005 10.1199 6.79335 9.0229ZM12.5816 13.8331C12.5816 13.1388 12.2046 12.5946 11.6418 12.3748C11.0182 12.131 10.441 12.2311 9.96226 12.6904C9.78203 12.8645 9.71126 12.8515 9.53988 12.6904C9.34018 12.5002 9.09217 12.3665 8.82185 12.3031C8.55153 12.2398 8.26889 12.2493 8.00357 12.3306C7.73825 12.4118 7.50003 12.5619 7.31394 12.765C7.12785 12.9681 7.00073 13.2167 6.94593 13.4848C6.83536 14.029 7.0797 14.4708 7.40478 14.8767C8.00517 15.6255 8.79465 16.1478 9.61066 16.6376C9.64691 16.6663 9.6914 16.683 9.73785 16.6853C9.7843 16.6876 9.83033 16.6755 9.86937 16.6506C10.7263 16.1457 11.5478 15.5994 12.1582 14.8006C12.4036 14.4817 12.5783 14.1378 12.585 13.8374L12.5816 13.8331Z" fill="#A0D1CA"/>
<path d="M12.647 8.94236C11.8155 9.56721 10.7984 9.9057 9.75228 9.9057C8.70615 9.9057 7.68905 9.56721 6.85758 8.94236C5.96639 8.21104 5.35827 7.30994 5.1305 6.17596C5.08959 5.97681 5.07743 5.77112 5.052 5.5687C6.69727 5.62203 7.97213 4.97559 8.8589 3.60981C9.04355 3.32468 9.03801 3.32033 9.26357 3.59892C9.82024 4.28758 10.548 4.82323 11.3766 5.15407C12.3505 5.54647 13.4147 5.67026 14.4548 5.51211C14.427 6.11636 14.2774 6.70911 14.0144 7.25582C13.7515 7.80253 13.3806 8.29224 12.9234 8.69641C12.8328 8.77912 12.7399 8.85965 12.647 8.94236ZM7.56745 7.41224C7.6879 7.40925 7.80475 7.37135 7.90343 7.30331C8.0021 7.23527 8.07822 7.14009 8.12222 7.0297C8.16621 6.9193 8.17616 6.79859 8.1508 6.68265C8.12545 6.56672 8.06591 6.46073 7.97966 6.37793C7.89341 6.29513 7.78426 6.2392 7.66588 6.21714C7.54749 6.19509 7.42514 6.20789 7.31411 6.25393C7.20308 6.29998 7.1083 6.37723 7.04166 6.47602C6.97501 6.57481 6.93944 6.69075 6.9394 6.80934C6.94482 6.97018 7.0132 7.12272 7.13025 7.23509C7.2473 7.34745 7.40396 7.41093 7.56745 7.41224ZM11.9681 6.20752C11.8463 6.20449 11.7263 6.23729 11.6236 6.30171C11.5208 6.36614 11.4399 6.45927 11.3911 6.5692C11.3424 6.67913 11.3281 6.80086 11.3501 6.91883C11.372 7.0368 11.4292 7.14564 11.5144 7.23145C11.5995 7.31726 11.7087 7.37612 11.828 7.40053C11.9473 7.42493 12.0713 7.41376 12.1841 7.36844C12.2969 7.32312 12.3934 7.24571 12.4613 7.14612C12.5292 7.04653 12.5654 6.92927 12.5652 6.80934C12.5597 6.65386 12.4954 6.506 12.385 6.39469C12.2745 6.28339 12.1259 6.21664 11.9681 6.20752Z" fill="#E7D5C6"/>
<path d="M14.4548 5.50776C13.4147 5.6659 12.3505 5.54212 11.3766 5.14972C10.5496 4.81823 9.82344 4.28263 9.268 3.59457C9.04686 3.31597 9.04687 3.32032 8.86333 3.60545C7.97877 4.97559 6.70168 5.62203 5.05641 5.56435C4.9877 4.82443 5.11295 4.07954 5.42018 3.40086C5.57945 3.0445 5.77822 2.70654 6.01285 2.39311C6.32133 1.98066 6.74371 1.69553 7.11854 1.3549C7.5973 1.13724 8.05727 0.867351 8.58026 0.74764C9.83301 0.462512 11.0238 0.605076 12.1461 1.24063C12.2257 1.28634 12.2943 1.35816 12.3971 1.35599C13.1313 1.90012 13.7438 2.54547 14.0932 3.40086C14.3927 4.06181 14.5171 4.78667 14.4548 5.50776Z" fill="#DC968F"/>
<path d="M13.7748 13.0027C13.3811 11.687 13.0173 10.3626 12.71 9.02399L17.8183 11.527C18.0715 11.65 18.3247 11.7719 18.5757 11.9003C19.4027 12.3236 19.7256 13.2138 19.3375 13.9876C18.9384 14.7799 18.0107 15.0759 17.1714 14.6689C16.037 14.116 14.907 13.5567 13.7748 13.0027Z" fill="#E7D5C6"/>
<path d="M6.79329 9.02289C6.55999 10.1112 6.2338 11.1853 5.94964 12.2649C5.8844 12.5119 5.80258 12.7546 5.7285 13.0005C4.58742 13.5577 3.44856 14.1215 2.30085 14.671C1.59763 15.0084 0.840231 14.8495 0.3681 14.2891C-0.254406 13.549 -0.0796974 12.4172 0.791589 11.9754C2.78184 10.9709 4.79309 10.0089 6.79329 9.02289Z" fill="#E7D5C6"/>
<path d="M7.11287 1.35926C6.73914 1.69989 6.31677 1.98502 6.00717 2.39748C5.77254 2.7109 5.57378 3.04886 5.41451 3.40522C4.70466 3.4531 4.0147 3.62832 3.31369 3.74694C2.28319 3.92215 1.2549 4.10934 0.226608 4.29108C0.102771 4.31284 -0.00890655 4.3542 0.0308984 4.15069C0.370346 2.42251 1.22836 1.05346 2.89685 0.30037C4.35857 -0.354772 6.00496 0.0827145 7.11287 1.35926Z" fill="#DC968F"/>
<path d="M14.0877 3.40522C13.7383 2.54983 13.1258 1.90666 12.3916 1.36035C13.8898 -0.380893 16.3046 -0.446189 17.9698 1.22105C18.7442 1.99945 19.2617 2.98982 19.4548 4.06254C19.5056 4.32046 19.436 4.3259 19.2137 4.28019C17.6403 3.99071 16.0658 3.7132 14.4913 3.43134C14.3596 3.39828 14.2228 3.38943 14.0877 3.40522Z" fill="#DC968F"/>
<path d="M5.05976 20.3051C6.079 20.6138 7.1222 20.8398 8.17892 20.9809C7.96663 22.2041 7.75765 23.4284 7.54204 24.6505C7.38614 25.5364 6.57568 26.1262 5.73425 25.9771C4.82647 25.815 4.28912 25.0227 4.44391 24.1053C4.65731 22.844 4.85521 21.5718 5.05976 20.3051Z" fill="#E7D5C6"/>
<path d="M11.3257 20.9809C12.383 20.8395 13.4269 20.6139 14.4471 20.3061C14.6505 21.5729 14.8484 22.8407 15.0618 24.1064C15.2155 25.0238 14.6748 25.8193 13.7704 25.9771C12.9256 26.1251 12.1185 25.5353 11.9626 24.6505C11.747 23.4284 11.538 22.2041 11.3257 20.9809Z" fill="#E7D5C6"/>
<path d="M12.585 13.8374C12.585 14.1345 12.407 14.4817 12.1637 14.7995C11.5534 15.5972 10.7319 16.1435 9.87497 16.6495C9.83593 16.6744 9.7899 16.6865 9.74345 16.6842C9.697 16.6819 9.65248 16.6652 9.61623 16.6365C8.80023 16.1468 8.01077 15.6244 7.41037 14.8756C7.08198 14.4643 6.83542 14.029 6.94599 13.4848C7.00135 13.2173 7.12872 12.9693 7.31479 12.7669C7.50086 12.5644 7.73879 12.4149 8.00369 12.3339C8.26858 12.2529 8.55072 12.2435 8.82059 12.3066C9.09046 12.3697 9.33813 12.503 9.53773 12.6926C9.70911 12.858 9.77988 12.871 9.96011 12.6926C10.4389 12.2333 11.016 12.1332 11.6396 12.377C12.2047 12.599 12.5773 13.1431 12.585 13.8374Z" fill="#F3F3F4"/>
<path d="M7.56732 7.41224C7.44686 7.4153 7.32814 7.38332 7.22605 7.32031C7.12397 7.2573 7.04305 7.16606 6.99339 7.058C6.94373 6.94994 6.92757 6.82986 6.9469 6.7128C6.96624 6.59574 7.02022 6.48689 7.1021 6.39988C7.18397 6.31286 7.29008 6.25155 7.40719 6.22361C7.52429 6.19566 7.64719 6.20234 7.76046 6.24279C7.87373 6.28324 7.97236 6.35568 8.04401 6.45103C8.11566 6.54639 8.15714 6.66042 8.16327 6.77887C8.16668 6.93987 8.10646 7.09589 7.99529 7.21404C7.88411 7.33219 7.73068 7.40325 7.56732 7.41224Z" fill="black"/>
<path d="M11.9681 6.20752C12.0899 6.2105 12.2081 6.24917 12.3075 6.3186C12.4068 6.38802 12.4829 6.48504 12.5259 6.59725C12.569 6.70946 12.5771 6.83176 12.5491 6.9485C12.5212 7.06525 12.4585 7.17114 12.3691 7.25263C12.2796 7.33412 12.1676 7.3875 12.0471 7.40596C11.9267 7.42442 11.8035 7.40711 11.6931 7.35624C11.5828 7.30538 11.4903 7.22327 11.4276 7.12042C11.3649 7.01756 11.3348 6.89864 11.3412 6.77886C11.3544 6.62382 11.4261 6.47924 11.5421 6.37353C11.6581 6.26781 11.81 6.2086 11.9681 6.20752Z" fill="black"/>
</g>
<defs>
<clipPath id="clip0_171_835">
<rect width="19.5" height="26" fill="white"/>
</clipPath>
</defs>
</svg>
