<svg width="32" height="21" viewBox="0 0 32 21" fill="none" xmlns="http://www.w3.org/2000/svg">
<g clip-path="url(#clip0_160_160)">
<path d="M16.6261 20.9763H16.7315C18.8018 20.9156 20.8676 20.7452 22.9207 20.4661C22.9743 20.4671 23.0276 20.4561 23.0766 20.4339C23.1257 20.4116 23.1694 20.3787 23.2047 20.3373C23.24 20.296 23.266 20.2472 23.2809 20.1945C23.2958 20.1417 23.2992 20.0863 23.291 20.0321C23.291 19.6559 23.291 19.2798 23.291 18.9037C23.3057 18.7802 23.2879 18.6549 23.2395 18.5407C23.4073 17.8384 23.5013 17.1198 23.5198 16.3971C23.5965 14.3674 23.5536 12.335 23.3912 10.3106C23.3604 9.89243 23.3244 9.47421 23.2884 9.056C23.4709 9.31903 23.6149 9.58206 23.7872 9.81615C24.5574 10.8719 25.4779 11.8037 26.518 12.5806C27.2247 13.1584 27.9822 13.6682 28.7807 14.1035C28.9916 14.2955 29.1973 14.4901 29.4158 14.6716C29.4917 14.7447 29.5919 14.7853 29.6961 14.7853C29.8003 14.7853 29.9005 14.7447 29.9764 14.6716C30.6038 14.0824 31.2295 13.4897 31.8534 12.8936C31.9315 12.8285 31.9825 12.7354 31.9958 12.6333C32.0092 12.5311 31.984 12.4276 31.9254 12.3438C31.7969 12.1203 31.6683 11.9019 31.5269 11.681C31.478 11.5153 31.4343 11.3496 31.3752 11.1865C31.1044 10.5016 30.7511 9.85394 30.3235 9.25854C29.4025 7.89959 28.4022 6.59876 27.3279 5.36312C25.8784 3.66033 24.342 2.03694 22.7253 0.499755C22.5756 0.349926 22.397 0.233898 22.2007 0.15914C22.0045 0.0843834 21.7952 0.0525716 21.5862 0.0657713C21.1619 0.0920739 20.7402 0.128896 20.3185 0.16309C19.956 0.00527405 19.5908 -0.0999376 19.218 0.128895C18.2762 0.458788 17.2919 0.644051 16.297 0.678627C15.1223 0.712909 13.9501 0.547576 12.8283 0.189386C12.6696 0.0783331 12.4818 0.0189102 12.2896 0.0189102C12.0973 0.0189102 11.9096 0.0783331 11.7509 0.189386C11.4395 0.189832 11.1285 0.167859 10.8201 0.123629C10.5019 0.0591672 10.173 0.0773976 9.86346 0.176655C9.55394 0.275913 9.27372 0.453034 9.04845 0.691775C7.50566 2.241 5.98087 3.81652 4.5615 5.48673C3.44598 6.7661 2.41516 8.12019 1.47592 9.53998C1.03375 10.1824 0.694378 10.8926 0.470548 11.6442C0.354838 11.8336 0.239122 12.0229 0.125985 12.2123C0.0825041 12.2612 0.0501663 12.3194 0.0312867 12.3826C0.0124071 12.4458 0.00745682 12.5125 0.0168011 12.5779C0.0261454 12.6433 0.0495463 12.7057 0.0853213 12.7608C0.121096 12.8158 0.168355 12.8621 0.223696 12.8962C0.815098 13.4626 1.40908 14.0263 2.00562 14.5874C2.04204 14.6294 2.08625 14.6636 2.13569 14.6879C2.18512 14.7123 2.23879 14.7263 2.29358 14.7292C2.34837 14.7322 2.40318 14.7239 2.45483 14.705C2.50648 14.6861 2.55394 14.6569 2.59445 14.619C2.80272 14.4454 2.99815 14.2587 3.20128 14.093C4.2952 13.4753 5.32327 12.7427 6.26886 11.9072C7.16386 11.1721 7.93067 10.2872 8.53676 9.2901L8.6756 9.0481C8.59589 10.1712 8.51362 11.2786 8.4879 12.3912C8.44162 14.4559 8.32848 16.5233 8.78103 18.5644C8.74246 18.5828 8.73989 18.6196 8.73732 18.6538C8.69618 19.1948 8.69618 19.7383 8.73732 20.2793C8.75018 20.4529 8.88903 20.5423 9.04845 20.5423C9.20787 20.5423 9.38529 20.5765 9.56271 20.5923C10.7147 20.7133 11.87 20.8089 13.0288 20.879C13.8002 20.9264 14.5716 20.9658 15.343 20.9658C15.7701 20.9972 16.1986 21.0008 16.6261 20.9763Z" fill="white"/>
<path d="M0.457764 11.6626C0.681594 10.911 1.02097 10.2007 1.46315 9.55835C2.40239 8.13857 3.4332 6.78449 4.54873 5.50513C5.96809 3.83491 7.48774 2.25939 9.03567 0.710165C9.26094 0.471424 9.54116 0.294303 9.85068 0.195046C10.1602 0.0957884 10.4891 0.0775579 10.8073 0.14202C11.1157 0.18625 11.4267 0.208223 11.7381 0.207777C11.8026 0.506998 11.9499 0.780923 12.1624 0.996855C12.5027 1.44981 12.9126 1.84332 13.376 2.16206C13.8996 2.54593 14.4907 2.8228 15.1168 2.97745C15.3482 3.03268 15.4022 3.11158 15.4022 3.34304C15.4022 6.18635 15.4022 9.02968 15.4022 11.873C15.4022 14.5033 15.4022 17.1335 15.4022 19.7638C15.2917 19.748 15.1785 19.7269 15.068 19.7217C14.6668 19.7033 14.2657 19.7217 13.8646 19.6849C13.1986 19.6401 12.5352 19.5849 11.8718 19.5086C11.1869 19.4405 10.5079 19.32 9.84049 19.1483C9.4548 19.0404 9.00738 19.0194 8.77597 18.588C8.32341 16.547 8.43655 14.4796 8.48283 12.4148C8.50855 11.3022 8.59083 10.1949 8.67054 9.07176L8.53169 9.31374C7.9256 10.3108 7.1588 11.1957 6.26379 11.9309C5.31332 12.7607 4.28094 13.4871 3.18336 14.0982C2.85124 14.1199 2.52046 14.0383 2.23454 13.8641C1.69992 13.5144 1.2413 13.056 0.887177 12.5174C0.723405 12.2438 0.579865 11.9581 0.457764 11.6626ZM10.3033 14.8583C10.239 14.9241 10.2622 15.0083 10.2622 15.0872C10.2622 15.5422 10.2622 15.9972 10.2622 16.4549C10.2622 17.0809 10.5476 17.4754 11.1493 17.5938C11.8757 17.7534 12.6278 17.7444 13.3503 17.5675C13.5706 17.5121 13.7663 17.3828 13.9062 17.2001C14.046 17.0175 14.1219 16.7921 14.1217 16.5601C14.1217 15.9972 14.1217 15.4317 14.1217 14.8662C14.1217 14.6795 14.1217 14.4927 14.1217 14.3034C14.1217 14.114 14.0677 14.085 13.9135 14.0903C13.574 14.0903 13.2346 14.0903 12.8978 14.0903H10.4833C10.3959 14.0903 10.2725 14.064 10.2673 14.1955C10.2325 14.4165 10.2448 14.6426 10.3033 14.8583Z" fill="#DC968F"/>
<path d="M28.7833 14.0903C27.9848 13.6551 27.2273 13.1452 26.5205 12.5674C25.4804 11.7905 24.56 10.8588 23.7898 9.803C23.6175 9.55838 23.4735 9.29535 23.2909 9.04285C23.3269 9.46106 23.3629 9.87926 23.3938 10.2975C23.5561 12.3218 23.5991 14.3543 23.5223 16.3839C23.5039 17.1111 23.409 17.8342 23.2395 18.5407C23.1218 18.7219 22.9493 18.8587 22.7484 18.93C22.0704 19.1878 21.3654 19.3643 20.6476 19.456C19.8637 19.5784 19.0741 19.6592 18.282 19.698C17.7189 19.7243 17.1558 19.7533 16.5901 19.7533C16.5901 19.6586 16.5901 19.5665 16.5901 19.4718C16.5901 16.7364 16.5901 14.0018 16.5901 11.268C16.5901 8.60446 16.5901 5.94176 16.5901 3.27994C16.5901 3.14053 16.5901 3.04058 16.7675 3.01691C17.5395 2.84476 18.2599 2.48579 18.8683 1.97007C19.4895 1.50072 19.9892 0.883077 20.3236 0.170968C20.7453 0.136774 21.167 0.0999521 21.5913 0.0736494C21.8003 0.0604497 22.0096 0.0922615 22.2059 0.167019C22.4021 0.241776 22.5808 0.35782 22.7304 0.507649C24.3471 2.04483 25.8835 3.66821 27.333 5.371C28.4076 6.60062 29.4088 7.89529 30.3312 9.248C30.7588 9.8434 31.1121 10.4911 31.3829 11.176C31.442 11.3391 31.4857 11.5048 31.5346 11.6705C31.4791 11.8602 31.4086 12.0449 31.3237 12.2228C31.04 12.689 30.6938 13.1122 30.2952 13.4801C29.8709 13.8852 29.4107 14.1692 28.7833 14.0903ZM17.9066 8.88502C17.9915 9.09281 18.0454 9.31376 18.2871 9.41107C18.3705 9.44762 18.4604 9.4662 18.5511 9.46567C18.6418 9.46515 18.7315 9.44553 18.8144 9.40802C18.8974 9.37052 18.972 9.31594 19.0334 9.24768C19.0949 9.17942 19.1419 9.09896 19.1717 9.01129H20.5422C20.7839 9.3953 21.0333 9.53733 21.3316 9.42686C21.484 9.37867 21.6149 9.27714 21.7014 9.14007C21.7879 9.00299 21.8245 8.83914 21.8047 8.67724C21.9693 8.47208 21.8716 8.23273 21.8947 8.00916C21.9054 7.9327 21.8949 7.85471 21.8645 7.78403C21.834 7.71336 21.7848 7.65285 21.7224 7.60935C21.6542 7.56522 21.601 7.50056 21.5702 7.42427C21.5393 7.34797 21.5323 7.26378 21.5501 7.18325C21.5553 7.08951 21.5553 6.99555 21.5501 6.90181C21.5528 6.78208 21.5312 6.66308 21.4869 6.55226C21.4425 6.44143 21.3762 6.34116 21.2922 6.25772C21.2083 6.17427 21.1084 6.10945 20.9988 6.0673C20.8892 6.02516 20.7723 6.0066 20.6553 6.01278C20.3519 6.01278 20.0485 6.01278 19.7451 6.01278C19.5429 6.02486 19.3518 6.11144 19.2071 6.2565C19.0625 6.40156 18.9741 6.59529 18.9583 6.80186C18.9583 6.99387 19.0483 7.23585 18.9043 7.36211C18.7603 7.48836 18.5366 7.39631 18.3489 7.40157C18.254 7.39077 18.158 7.4019 18.0679 7.43412C17.9778 7.46635 17.8959 7.51886 17.8283 7.58778C17.7606 7.65669 17.709 7.74026 17.6772 7.83231C17.6453 7.92436 17.6341 8.02254 17.6443 8.11962C17.6443 8.19853 17.6443 8.28006 17.6443 8.35897C17.6285 8.46372 17.6454 8.5709 17.6925 8.66531C17.7395 8.75972 17.8144 8.83658 17.9066 8.88502ZM17.8603 14.8715C17.8603 15.4212 17.8603 15.971 17.8603 16.5207C17.8504 16.7649 17.9257 17.0047 18.0726 17.1974C18.2196 17.3901 18.4286 17.5231 18.6626 17.5728C19.3229 17.7364 20.0092 17.7588 20.6785 17.6385C21.4062 17.5228 21.7636 17.1414 21.7327 16.3234C21.7199 15.971 21.7327 15.6159 21.7327 15.2713C21.7327 15.1529 21.8767 14.9714 21.6813 14.8689C21.8459 14.7058 21.7327 14.498 21.7636 14.3139C21.7867 14.1719 21.7173 14.135 21.581 14.1324C21.0667 14.1324 20.5525 14.1324 20.0382 14.1008C19.3697 14.0614 18.6986 14.1008 18.0275 14.1008C17.9015 14.1008 17.8475 14.1377 17.8552 14.2718C17.868 14.4664 17.8603 14.669 17.8603 14.8715Z" fill="#DC968F"/>
<path d="M20.3185 0.163075C19.9865 0.87747 19.4886 1.49786 18.8683 1.97006C18.2589 2.47879 17.5395 2.83137 16.7701 2.99849C16.5927 3.03531 16.5927 3.13526 16.5927 3.26151C16.5927 5.92334 16.5927 8.58605 16.5927 11.2496C16.5927 13.9833 16.5927 16.7179 16.5927 19.4534C16.5927 19.5481 16.5927 19.6401 16.5927 19.7348V20.9448H15.4484C15.4106 20.8761 15.3961 20.7966 15.4073 20.7186C15.4073 20.3898 15.4073 20.061 15.4073 19.7322C15.4073 17.102 15.4073 14.4717 15.4073 11.8414C15.4073 8.99813 15.4073 6.1548 15.4073 3.31149C15.4073 3.08003 15.3533 3.00113 15.1219 2.94589C14.4957 2.79125 13.9046 2.51438 13.3811 2.1305C12.9176 1.81177 12.5077 1.41826 12.1674 0.965301C11.9549 0.749369 11.8076 0.475444 11.7432 0.176223C11.9018 0.06517 12.0896 0.00574713 12.2819 0.00574713C12.4741 0.00574713 12.6619 0.06517 12.8205 0.176223C12.8139 0.17876 12.808 0.18303 12.8034 0.1886C12.7988 0.19417 12.7957 0.200855 12.7944 0.208009C12.7931 0.215163 12.7937 0.222532 12.796 0.229409C12.7983 0.236286 12.8023 0.242435 12.8077 0.247245C13.308 1.07931 14.1002 1.68436 15.0222 1.93861C15.9442 2.19286 16.9264 2.0771 17.7678 1.61498C18.233 1.35876 18.6362 0.999269 18.948 0.56288C19.0708 0.436347 19.1632 0.282376 19.218 0.113099C19.5908 -0.0920612 19.9559 0.00525909 20.3185 0.163075ZM16.0141 11.0129C15.9529 11.0094 15.8916 11.0183 15.8338 11.0392C15.776 11.0601 15.7228 11.0925 15.6774 11.1346C15.6319 11.1767 15.5951 11.2276 15.569 11.2844C15.543 11.3411 15.5282 11.4026 15.5256 11.4653C15.5307 11.5884 15.5795 11.7054 15.6628 11.7944C15.746 11.8835 15.8581 11.9385 15.9781 11.9493C16.0402 11.9503 16.1019 11.9386 16.1594 11.9148C16.217 11.891 16.2693 11.8556 16.3132 11.8107C16.3571 11.7658 16.3917 11.7123 16.415 11.6534C16.4382 11.5945 16.4497 11.5314 16.4487 11.4679C16.4474 11.3494 16.4015 11.236 16.3206 11.1513C16.2397 11.0665 16.1299 11.017 16.0141 11.0129ZM16.459 15.2213C16.4545 15.0972 16.4043 14.9794 16.3184 14.8916C16.2326 14.8038 16.1174 14.7524 15.9961 14.7479C15.8758 14.7554 15.7622 14.8076 15.677 14.8948C15.5917 14.9821 15.5406 15.0982 15.5333 15.2213C15.5417 15.3441 15.5931 15.4596 15.6782 15.5466C15.7632 15.6335 15.8761 15.6862 15.9961 15.6948C16.117 15.689 16.2315 15.6373 16.3171 15.5497C16.4027 15.4621 16.4533 15.345 16.459 15.2213ZM16.459 18.9589C16.4589 18.8651 16.4317 18.7733 16.3806 18.6954C16.3295 18.6174 16.2569 18.5567 16.172 18.521C16.0872 18.4853 15.9938 18.4763 15.9039 18.495C15.814 18.5137 15.7315 18.5593 15.667 18.626C15.6025 18.6928 15.5588 18.7776 15.5416 18.8698C15.5243 18.962 15.5342 19.0574 15.57 19.1438C15.6058 19.2302 15.6659 19.3038 15.7427 19.3551C15.8195 19.4065 15.9095 19.4334 16.0013 19.4324C16.1214 19.4265 16.235 19.3745 16.3194 19.2867C16.4037 19.199 16.4526 19.0819 16.4564 18.9589H16.459ZM15.5667 3.99537C15.5611 4.05521 15.5682 4.11558 15.5873 4.17241C15.6065 4.22924 15.6373 4.28119 15.6778 4.32481C15.7182 4.36842 15.7673 4.40267 15.8218 4.42524C15.8763 4.44781 15.9348 4.45819 15.9935 4.45566C16.0535 4.45924 16.1136 4.45027 16.1701 4.4293C16.2266 4.40834 16.2783 4.37582 16.3221 4.33373C16.3659 4.29164 16.4008 4.24086 16.4248 4.1845C16.4488 4.12813 16.4613 4.06735 16.4615 4.00588C16.4652 3.94433 16.4562 3.88267 16.4351 3.82489C16.414 3.76711 16.3814 3.71449 16.3392 3.67039C16.2971 3.62629 16.2464 3.5917 16.1904 3.56885C16.1344 3.546 16.0744 3.53539 16.0141 3.5377C15.9537 3.53114 15.8926 3.53843 15.8352 3.55907C15.7779 3.57971 15.7258 3.61316 15.6827 3.657C15.6396 3.70084 15.6066 3.75397 15.586 3.8125C15.5655 3.87103 15.5581 3.9335 15.5641 3.99537H15.5667ZM16.0115 8.19063C16.0715 8.19137 16.131 8.1797 16.1864 8.15633C16.2418 8.13296 16.2921 8.09837 16.3341 8.05464C16.3761 8.01091 16.4091 7.95894 16.431 7.90186C16.4529 7.84477 16.4633 7.78374 16.4615 7.72244C16.4575 7.60242 16.4081 7.4887 16.3236 7.40527C16.2392 7.32183 16.1264 7.27522 16.009 7.27529C15.8914 7.27299 15.7775 7.31706 15.6909 7.39835C15.6042 7.47964 15.5515 7.59193 15.5436 7.71193C15.5418 7.77506 15.5526 7.83789 15.5754 7.89661C15.5981 7.95533 15.6323 8.00871 15.6758 8.05349C15.7193 8.09827 15.7713 8.13352 15.8286 8.1571C15.8859 8.18068 15.9472 8.19209 16.009 8.19063H16.0115Z" fill="#E7D5C6"/>
<path d="M15.3969 19.7401C15.3969 20.0689 15.3969 20.3977 15.3969 20.7265C15.3857 20.8044 15.4002 20.884 15.4381 20.9527L15.3172 20.979C14.5458 20.979 13.7744 20.9395 13.003 20.8922C11.846 20.8203 10.6906 20.7247 9.53691 20.6055C9.36721 20.5897 9.1975 20.5792 9.02265 20.5555C8.8478 20.5318 8.72438 20.4529 8.71152 20.2925C8.67038 19.7514 8.67038 19.208 8.71152 18.667C8.71152 18.6328 8.71153 18.596 8.75524 18.5775C8.98666 19.0089 9.43406 19.03 9.81976 19.1378C10.4871 19.3095 11.1661 19.43 11.8511 19.4981C12.5145 19.5744 13.1779 19.6296 13.8439 19.6744C14.245 19.7033 14.6461 19.6928 15.0472 19.7112C15.1732 19.7033 15.2864 19.7243 15.3969 19.7401Z" fill="#DC968F"/>
<path d="M16.585 20.95V19.7401C17.1507 19.7401 17.7138 19.7112 18.2769 19.6849C19.069 19.6461 19.8586 19.5653 20.6425 19.4429C21.3603 19.3512 22.0652 19.1746 22.7433 18.9168C22.9443 18.85 23.1185 18.7179 23.2395 18.5407C23.2886 18.6612 23.3037 18.7933 23.2832 18.9221C23.2832 19.2982 23.2832 19.6744 23.2832 20.0505C23.2915 20.1047 23.2881 20.1601 23.2732 20.2129C23.2583 20.2656 23.2322 20.3144 23.197 20.3557C23.1617 20.3971 23.118 20.43 23.0689 20.4523C23.0198 20.4745 22.9666 20.4855 22.913 20.4845C20.8599 20.7636 18.7941 20.934 16.7238 20.9947H16.6184L16.585 20.95Z" fill="#DC968F"/>
<path d="M19.2179 0.128876C19.1632 0.298152 19.0708 0.452123 18.9479 0.578656C18.6362 1.01505 18.2329 1.37453 17.7677 1.63076C17.4926 1.61939 17.2171 1.64234 16.9475 1.69913C16.3406 1.73333 15.7389 1.72807 15.1321 1.69913C14.8591 1.64743 14.58 1.63768 14.3041 1.6702C13.6973 1.33648 13.1826 0.851588 12.8076 0.260389C12.8023 0.255578 12.7983 0.24943 12.796 0.242553C12.7936 0.235676 12.7931 0.228307 12.7944 0.221153C12.7957 0.213999 12.7988 0.207314 12.8033 0.201744C12.8079 0.196174 12.8138 0.191903 12.8205 0.189367C13.9448 0.548423 15.1196 0.713766 16.2969 0.678607C17.2918 0.644031 18.2762 0.458769 19.2179 0.128876Z" fill="#E7D5C6"/>
<path d="M28.7832 14.0903C29.3977 14.1692 29.8709 13.8851 30.2926 13.4722C30.6912 13.1043 31.0374 12.6811 31.3211 12.2149C31.4059 12.037 31.4765 11.8522 31.5319 11.6626C31.6656 11.8835 31.8019 12.1018 31.9305 12.3254C31.9891 12.4092 32.0143 12.5127 32.0009 12.6148C31.9875 12.717 31.9366 12.8101 31.8585 12.8751C31.2362 13.4713 30.6106 14.064 29.9814 14.6532C29.9056 14.7262 29.8053 14.7669 29.7012 14.7669C29.597 14.7669 29.4967 14.7262 29.4209 14.6532C29.1998 14.4769 28.9941 14.2823 28.7832 14.0903Z" fill="#DC968F"/>
<path d="M0.457602 11.6626C0.581361 11.9582 0.72662 12.244 0.892155 12.5174C1.24628 13.056 1.7049 13.5144 2.23952 13.8641C2.52544 14.0383 2.85621 14.1199 3.18834 14.0982C2.9852 14.277 2.78979 14.4638 2.58151 14.6242C2.541 14.6621 2.49354 14.6913 2.44189 14.7103C2.39024 14.7292 2.33543 14.7374 2.28064 14.7345C2.22585 14.7315 2.17218 14.7175 2.12274 14.6931C2.07331 14.6688 2.0291 14.6347 1.99268 14.5927C1.39613 14.0298 0.80216 13.4661 0.210758 12.9014C0.155418 12.8673 0.108159 12.8211 0.0723839 12.766C0.0366088 12.711 0.0132079 12.6485 0.00386363 12.5831C-0.00548065 12.5177 -0.000538241 12.451 0.0183414 12.3878C0.037221 12.3246 0.0695666 12.2665 0.113047 12.2176C0.226185 12.0413 0.35475 11.8519 0.457602 11.6626Z" fill="#DC968F"/>
<path d="M16.5849 20.95L16.626 20.9763C16.1911 21.0053 15.7548 21.0053 15.3198 20.9763L15.4407 20.95H16.5849Z" fill="#DC968F"/>
<path d="M14.1268 14.8583C14.1268 15.4238 14.1268 15.9893 14.1268 16.5522C14.127 16.7842 14.0511 17.0096 13.9112 17.1923C13.7714 17.3749 13.5756 17.5043 13.3554 17.5596C12.6329 17.7365 11.8807 17.7455 11.1543 17.5859C10.5527 17.4675 10.2698 17.073 10.2672 16.447C10.2672 15.9893 10.2672 15.5343 10.2672 15.0793C10.2672 15.0004 10.2441 14.9162 10.3084 14.8504L14.1268 14.8583Z" fill="#E7D5C6"/>
<path d="M14.1269 14.8583H10.3033C10.2469 14.6431 10.2364 14.4179 10.2725 14.1981C10.2725 14.0666 10.401 14.0929 10.4885 14.0929H12.9029C13.2398 14.0929 13.5792 14.0929 13.9186 14.0929C14.0729 14.0929 14.1346 14.1482 14.1269 14.306C14.1192 14.4638 14.1269 14.6821 14.1269 14.8583Z" fill="#DC968F"/>
<path d="M21.6968 14.8715C21.8922 14.9741 21.7534 15.1556 21.7483 15.2739C21.7483 15.629 21.7328 15.9841 21.7483 16.326C21.7791 17.1309 21.4217 17.5123 20.694 17.6412C20.0248 17.7615 19.3385 17.7391 18.6781 17.5754C18.4442 17.5257 18.2351 17.3927 18.0882 17.2C17.9412 17.0073 17.866 16.7675 17.8759 16.5233C17.8759 15.9736 17.8759 15.4238 17.8759 14.8741L21.6968 14.8715Z" fill="#E7D5C6"/>
<path d="M20.5422 9.01391H19.1717C19.1717 8.97183 19.1717 8.9271 19.1717 8.88501C19.1839 8.78795 19.1737 8.68932 19.1419 8.59702C19.1101 8.50473 19.0576 8.42134 18.9886 8.35357C18.9196 8.28579 18.836 8.23551 18.7445 8.20675C18.6531 8.178 18.5563 8.17158 18.462 8.188C18.1457 8.21168 17.9297 8.47732 17.9015 8.88501C17.8103 8.83578 17.7364 8.75859 17.6903 8.66424C17.6442 8.56989 17.6281 8.46313 17.6443 8.35896C17.6443 8.28005 17.6443 8.19852 17.6443 8.11961C17.6341 8.02253 17.6453 7.92435 17.6772 7.8323C17.709 7.74025 17.7607 7.65668 17.8283 7.58777C17.8959 7.51885 17.9778 7.46634 18.0679 7.43412C18.158 7.40189 18.254 7.39076 18.3489 7.40156C18.5366 7.40156 18.768 7.48046 18.9043 7.3621C19.0406 7.24374 18.948 6.99386 18.9583 6.80185C18.9741 6.59528 19.0625 6.40155 19.2071 6.25649C19.3518 6.11143 19.5429 6.02485 19.7451 6.01277C20.0485 6.01277 20.3519 6.01277 20.6553 6.01277C20.7723 6.00659 20.8892 6.02515 20.9988 6.06729C21.1084 6.10944 21.2083 6.17426 21.2923 6.25771C21.3762 6.34115 21.4425 6.44142 21.4869 6.55225C21.5312 6.66307 21.5528 6.78207 21.5502 6.9018C21.5553 6.99554 21.5553 7.0895 21.5502 7.18324C21.5323 7.26377 21.5393 7.34796 21.5702 7.42426C21.601 7.50055 21.6542 7.56521 21.7224 7.60934C21.7848 7.65284 21.834 7.71335 21.8645 7.78402C21.8949 7.8547 21.9054 7.9327 21.8947 8.00915C21.8716 8.23272 21.9693 8.47207 21.8047 8.67723C21.7739 8.6141 21.743 8.54835 21.707 8.48786C21.6712 8.41073 21.62 8.34211 21.5567 8.2864C21.4935 8.23069 21.4195 8.1891 21.3396 8.16434C21.2597 8.13958 21.1757 8.13217 21.0928 8.14259C21.0099 8.153 20.9301 8.18102 20.8585 8.22483C20.5345 8.40632 20.5113 8.69828 20.5422 9.01391ZM20.3648 6.84656V6.93336C20.3648 7.37788 20.3648 7.37525 20.7813 7.36736H20.8868C21.2416 7.36736 21.2056 7.42259 21.2082 7.02542C21.2107 6.99654 21.2107 6.9675 21.2082 6.93863C21.1951 6.77981 21.1279 6.63071 21.0185 6.5173C20.909 6.40388 20.7641 6.33333 20.6091 6.31789C20.4188 6.30211 20.3313 6.35733 20.3519 6.56512C20.3626 6.65851 20.3669 6.75256 20.3648 6.84656ZM20.1076 6.87024C20.1076 6.74925 20.1076 6.62562 20.1076 6.50463C20.1076 6.38364 20.0665 6.31526 19.9277 6.31789C19.5085 6.31789 19.2925 6.58091 19.2951 7.08329C19.2951 7.45416 19.2694 7.40156 19.5934 7.40156C20.1128 7.40419 20.1128 7.40155 20.1128 6.87024H20.1076Z" fill="#E7D5C6"/>
<path d="M21.6968 14.8715H17.8604C17.8604 14.669 17.8604 14.4664 17.8604 14.2639C17.8604 14.1298 17.9066 14.0903 18.0326 14.0929C18.7037 14.0929 19.3749 14.064 20.0434 14.0929C20.5577 14.1271 21.0719 14.114 21.5862 14.1245C21.7225 14.1245 21.7919 14.164 21.7688 14.306C21.7353 14.5006 21.8485 14.7084 21.6968 14.8715Z" fill="#DC968F"/>
<path d="M20.5423 9.0139C20.5115 8.69827 20.5423 8.40631 20.8586 8.23797C20.9303 8.19416 21.0101 8.16614 21.0929 8.15573C21.1758 8.14531 21.2599 8.15273 21.3397 8.1775C21.4196 8.20226 21.4936 8.24383 21.5569 8.29954C21.6201 8.35525 21.6713 8.42387 21.7071 8.501C21.7431 8.56149 21.774 8.62724 21.8048 8.69037C21.8246 8.85227 21.7881 9.01613 21.7016 9.1532C21.6151 9.29028 21.4841 9.39182 21.3317 9.44C21.0334 9.52943 20.784 9.39792 20.5423 9.0139Z" fill="#DC968F"/>
<path d="M17.9067 8.88501C17.935 8.47732 18.151 8.21168 18.4673 8.188C18.5616 8.17158 18.6584 8.178 18.7498 8.20675C18.8412 8.23551 18.9248 8.28579 18.9938 8.35357C19.0629 8.42134 19.1154 8.50473 19.1472 8.59702C19.179 8.68932 19.1892 8.78795 19.177 8.88501C19.177 8.9271 19.177 8.97182 19.177 9.01391C19.1472 9.10158 19.1002 9.18205 19.0387 9.2503C18.9772 9.31856 18.9027 9.37314 18.8197 9.41065C18.7367 9.44815 18.6471 9.46777 18.5564 9.4683C18.4657 9.46882 18.3758 9.45024 18.2924 9.4137C18.0456 9.31375 17.9916 9.0928 17.9067 8.88501Z" fill="#DC968F"/>
<path d="M14.3042 1.67022C14.5801 1.6377 14.8591 1.64745 15.1322 1.69915C15.739 1.72545 16.3407 1.73071 16.9475 1.69915C17.2172 1.64235 17.4926 1.6194 17.7678 1.63077C17.2283 1.89558 16.6386 2.03633 16.0403 2.04315C15.4419 2.04996 14.8493 1.92267 14.3042 1.67022Z" fill="#DC968F"/>
<path d="M16.0142 11.0129C16.1317 11.0143 16.2441 11.0626 16.3273 11.1477C16.4104 11.2327 16.4577 11.3477 16.459 11.4679C16.4601 11.5314 16.4486 11.5945 16.4253 11.6534C16.402 11.7123 16.3674 11.7658 16.3235 11.8107C16.2796 11.8556 16.2273 11.891 16.1698 11.9148C16.1122 11.9386 16.0505 11.9503 15.9885 11.9493C15.8666 11.941 15.7521 11.887 15.6667 11.7977C15.5813 11.7085 15.5311 11.5901 15.5256 11.4653C15.5283 11.4026 15.543 11.3411 15.5691 11.2844C15.5951 11.2276 15.632 11.1767 15.6774 11.1346C15.7229 11.0925 15.7761 11.0601 15.8339 11.0392C15.8917 11.0183 15.953 11.0094 16.0142 11.0129Z" fill="#DC968F"/>
<path d="M16.4589 15.2213C16.4532 15.345 16.4027 15.4621 16.3171 15.5497C16.2315 15.6373 16.117 15.689 15.996 15.6948C15.8761 15.6862 15.7631 15.6335 15.6781 15.5465C15.593 15.4595 15.5416 15.344 15.5332 15.2213C15.5405 15.0982 15.5916 14.9821 15.6769 14.8948C15.7622 14.8076 15.8757 14.7553 15.996 14.7479C16.1174 14.7524 16.2325 14.8038 16.3184 14.8916C16.4042 14.9794 16.4544 15.0972 16.4589 15.2213Z" fill="#DC968F"/>
<path d="M16.4565 18.9589C16.4527 19.0824 16.4034 19.1998 16.3186 19.2876C16.2337 19.3754 16.1194 19.4271 15.9988 19.4324C15.8771 19.4275 15.7614 19.3767 15.674 19.2897C15.5867 19.2028 15.5339 19.0859 15.5257 18.9615C15.521 18.8966 15.5294 18.8313 15.5504 18.7698C15.5715 18.7083 15.6047 18.652 15.648 18.6042C15.6913 18.5565 15.7438 18.5184 15.8022 18.4923C15.8606 18.4663 15.9236 18.4529 15.9873 18.4529C16.0509 18.4529 16.1139 18.4663 16.1723 18.4923C16.2307 18.5184 16.2832 18.5565 16.3265 18.6042C16.3698 18.652 16.403 18.7083 16.4241 18.7698C16.4451 18.8313 16.4535 18.8966 16.4488 18.9615L16.4565 18.9589Z" fill="#DC968F"/>
<path d="M15.5643 3.99536C15.5583 3.93374 15.5657 3.87152 15.5861 3.8132C15.6064 3.75488 15.6392 3.70191 15.682 3.65812C15.7248 3.61433 15.7766 3.58081 15.8336 3.55998C15.8906 3.53915 15.9514 3.53155 16.0117 3.5377C16.0719 3.53538 16.132 3.54599 16.188 3.56884C16.244 3.59169 16.2947 3.62628 16.3368 3.67038C16.3789 3.71448 16.4116 3.7671 16.4327 3.82488C16.4537 3.88267 16.4627 3.94432 16.4591 4.00587C16.4588 4.06734 16.4464 4.12812 16.4224 4.18449C16.3984 4.24086 16.3635 4.29164 16.3197 4.33373C16.2759 4.37582 16.2242 4.40833 16.1677 4.42929C16.1112 4.45026 16.0511 4.45923 15.9911 4.45566C15.9324 4.45818 15.8738 4.4478 15.8194 4.42523C15.7649 4.40266 15.7158 4.36841 15.6754 4.3248C15.6349 4.28119 15.6041 4.22923 15.5849 4.1724C15.5658 4.11557 15.5587 4.0552 15.5643 3.99536Z" fill="#DC968F"/>
<path d="M16.0089 8.19065C15.947 8.19247 15.8853 8.18131 15.8278 8.1579C15.7702 8.13449 15.7179 8.0993 15.6741 8.05448C15.6303 8.00966 15.5959 7.95615 15.573 7.89725C15.5501 7.83835 15.5392 7.7753 15.541 7.71194C15.5489 7.59194 15.6016 7.47965 15.6883 7.39836C15.7749 7.31707 15.8888 7.27301 16.0064 7.27531C16.1238 7.27524 16.2366 7.32185 16.321 7.40528C16.4055 7.48871 16.4549 7.60244 16.4589 7.72246C16.4607 7.78375 16.4503 7.84479 16.4284 7.90187C16.4065 7.95896 16.3735 8.01093 16.3315 8.05466C16.2894 8.09839 16.2392 8.13297 16.1838 8.15634C16.1284 8.17971 16.0689 8.19138 16.0089 8.19065Z" fill="#DC968F"/>
<path d="M20.3648 6.84657C20.3713 6.75287 20.3713 6.65882 20.3648 6.56513C20.3365 6.35734 20.424 6.30212 20.6219 6.3179C20.777 6.33333 20.9219 6.40388 21.0314 6.5173C21.1408 6.63072 21.208 6.77982 21.2211 6.93863C21.2236 6.96751 21.2236 6.99655 21.2211 7.02542C21.2211 7.42259 21.2545 7.35948 20.8996 7.36737H20.7942C20.3777 7.36737 20.3777 7.36736 20.3777 6.93337V6.84657H20.3648Z" fill="#DC968F"/>
<path d="M20.1128 6.87024C20.1128 7.39629 20.1128 7.39629 19.5986 7.39629C19.2746 7.39629 19.3029 7.44889 19.3003 7.07802C19.3003 6.57301 19.5137 6.31788 19.9328 6.31262C20.0717 6.31262 20.1231 6.35733 20.1128 6.49936C20.1025 6.64139 20.1128 6.74924 20.1128 6.87024Z" fill="#DC968F"/>
</g>
<defs>
<clipPath id="clip0_160_160">
<rect width="32" height="21" fill="white"/>
</clipPath>
</defs>
</svg>
