<svg width="21" height="17" viewBox="0 0 21 17" fill="none" xmlns="http://www.w3.org/2000/svg">
<g clip-path="url(#clip0_167_471)">
<path d="M20.0583 11.5675L20.6058 11.235L19.5843 10.9912C20.855 10.2435 20.9163 8.96073 20.9838 7.69864C21.0103 7.17397 20.6303 6.78564 20.3974 6.34153C20.1931 5.97591 20.3034 5.92841 19.6272 5.92841C19.6967 5.81686 19.7375 5.65782 19.8315 5.60205C20.9531 4.98236 20.8285 3.7905 20.9776 2.78662C21.0366 2.46043 20.9806 2.12366 20.8194 1.83493C20.6581 1.54619 20.4018 1.32378 20.0951 1.20642C19.8765 1.10933 20.5139 1.20642 20.3709 0.793293C18.4566 0.679685 16.4891 0.561948 14.5442 0.44834C13.0916 0.363649 11.635 0.328528 10.1885 0.183935C7.71652 -0.0618731 5.25266 -0.113513 2.80719 0.378103C0.208489 0.900703 0.183966 1.64846 0.0164402 3.88965C-0.0571078 4.86255 0.333116 5.60204 1.22795 6.03582C0.0430102 6.68236 0.110418 7.87009 0.0164402 8.969C-0.0714088 9.96669 0.22074 10.7826 1.24224 11.1771C-0.151086 11.9683 0.0348272 13.344 0.0164402 14.6246C0.0164402 15.6368 0.613012 16.2069 1.56505 16.3267C2.56816 16.4527 3.58557 16.492 4.59686 16.5498C6.59287 16.6634 8.59093 16.7192 10.5829 16.8782C12.7139 17.0293 14.852 17.0514 16.9856 16.9443C17.8151 16.9092 18.6363 16.5787 19.3984 16.1924C20.6875 15.5356 21.4005 13.3646 20.759 12.0757C20.616 11.7741 20.4301 11.5448 20.0583 11.5675Z" fill="#F5F5F5"/>
<path d="M1.22585 6.02538C0.331019 5.59161 -0.0592052 4.85211 0.0143428 3.87921C0.181869 1.64628 0.206392 0.898529 2.80509 0.367666C5.25669 -0.12395 7.70829 -0.0723101 10.1865 0.173498C11.6329 0.318091 13.0896 0.353212 14.5421 0.437903C16.4973 0.551511 18.4545 0.669248 20.3688 0.782856C20.5118 1.19598 19.8744 1.10716 20.093 1.19598C20.3997 1.31334 20.656 1.53575 20.8173 1.82449C20.9785 2.11322 21.0345 2.45 20.9755 2.77618C20.8264 3.78007 20.951 4.96159 19.8294 5.5916C19.7314 5.64737 19.6905 5.79816 19.6251 5.91797C17.5433 6.71736 15.3757 6.72563 13.2019 6.62235C9.20785 6.44677 5.21788 6.22988 1.22585 6.02538ZM16.5484 4.37289C16.5484 4.23656 16.5484 4.10023 16.5484 3.95977C16.8093 3.82555 17.0233 3.61357 17.1613 3.35248C17.4187 3.27399 17.6761 3.1831 17.9376 3.11906C18.5648 2.96208 19.2043 2.1978 19.7906 2.70594C20.3769 3.21408 19.8458 4.05479 19.7906 4.74884C18.4933 5.1413 17.2838 6.13693 15.7046 5.16196C16.4564 6.37861 18.8426 6.04811 19.8335 4.78808C20.4464 4.25929 20.4791 3.54871 20.4035 2.81748C20.3504 2.29281 20.0337 1.96646 19.5025 2.10485C18.6404 2.33207 17.7701 2.58613 17.147 3.3091C16.7057 3.28844 16.4993 3.49501 16.5484 3.94531C16.3441 4.08371 16.3441 4.2221 16.5484 4.35843L16.628 4.63729L16.7098 4.58152L16.5484 4.37289ZM15.5269 3.13353C16.0662 2.96828 16.6158 2.82368 16.957 2.30728L17.4023 2.22672C17.386 2.19987 17.3737 2.15649 17.3513 2.14822C17.278 2.12077 17.1973 2.12185 17.1248 2.15125C17.0523 2.18065 16.9932 2.23626 16.959 2.30728C16.3686 2.38371 15.7781 2.45807 15.5289 3.13353C15.3641 3.38984 15.2859 3.69329 15.3062 3.99832C15.3265 4.30336 15.444 4.59353 15.6413 4.82526C15.6065 4.25929 15.4594 3.70364 15.5269 3.13766V3.13353ZM17.4166 4.89343C17.3615 4.85832 17.3124 4.80461 17.2614 4.80255C17.2103 4.80048 17.1531 4.85005 17.1 4.8769C17.149 4.90789 17.198 4.96366 17.2511 4.96572C17.3043 4.96779 17.3656 4.92441 17.4187 4.89755L17.4166 4.89343Z" fill="#A0D1CA"/>
<path d="M1.22589 6.02541C5.21791 6.23197 9.20789 6.43853 13.1999 6.64509C15.3737 6.74837 17.5413 6.7401 19.6231 5.94071C20.2973 5.92625 20.1952 5.98202 20.3913 6.35383C20.6242 6.79794 21.0042 7.18008 20.9776 7.71094C20.9102 8.97303 20.8489 10.2558 19.5802 11.0015C17.1715 12.1355 14.6116 11.8608 12.0906 11.7575C9.49392 11.648 6.90544 11.332 4.29857 11.4229L3.48137 11.4084C2.76836 10.9953 1.98589 11.2927 1.23407 11.1791C0.212571 10.7846 -0.0734494 9.96866 0.00827064 8.97097C0.108378 7.87 0.0409506 6.67194 1.22589 6.02541Z" fill="#DC968F"/>
<path d="M1.22585 11.175C1.9695 11.2886 2.75197 10.9911 3.47315 11.4042C2.56402 11.6418 1.6937 11.8008 0.925537 12.5527C0.196186 13.2695 0.375975 14.011 0.471997 14.7113C0.543501 15.2215 1.17682 15.585 1.71004 15.711C3.2852 16.0829 4.91347 16.0787 6.51518 16.2936C9.52044 16.7067 12.5727 16.5703 15.6065 16.5579C15.9171 16.5579 16.2194 16.558 16.4094 16.2419C16.5994 15.9259 16.9181 15.9052 17.2266 15.9465C18.3012 16.0952 18.9489 15.1988 19.8274 14.8745C19.9602 14.8249 20.1399 14.6101 20.1256 14.4944C20.0112 13.536 20.2789 12.5651 20.0072 11.617L20.0623 11.5757C20.426 11.553 20.618 11.7822 20.761 12.0735C21.4025 13.3624 20.6895 15.5334 19.4004 16.1903C18.6383 16.5765 17.8171 16.907 16.9876 16.9421C14.854 17.0492 12.7159 17.0271 10.5848 16.876C8.59292 16.717 6.59486 16.6695 4.59885 16.5476C3.57735 16.4898 2.57015 16.4505 1.56704 16.3245C0.615004 16.2047 0.0123025 15.6346 0.0184315 14.6225C0.0266035 13.3335 -0.159303 11.9578 1.22585 11.175Z" fill="#71ACAB"/>
<path d="M4.29028 11.4105C6.89715 11.3196 9.48564 11.6356 12.0823 11.7451C14.6034 11.8484 17.1632 12.1231 19.5719 10.9891C20.4218 11.175 20.0439 11.4972 20.4218 11.5881C20.6261 12.6209 20.1807 11.8979 20.0132 12.0012L19.9969 11.6088C19.006 11.4229 18.2072 12.1933 17.2736 12.2016C14.0599 12.2346 10.8361 12.3379 7.64081 11.9641C6.53759 11.8319 5.33834 12.0405 4.29028 11.4105Z" fill="#71ACAB"/>
<path d="M17.1428 3.32564C17.7557 2.60268 18.6362 2.34861 19.4984 2.12139C20.0296 1.98299 20.3462 2.30936 20.3994 2.83403C20.4749 3.56112 20.4525 4.27995 19.8294 4.80462L19.7885 4.76332C19.8539 4.06927 20.4014 3.24922 19.7987 2.72042C19.196 2.19162 18.5729 2.96623 17.9457 3.13354C17.6842 3.19758 17.4268 3.28847 17.1694 3.36696L17.1428 3.32564Z" fill="#A0D1CA"/>
<path d="M19.8294 4.80048C18.8385 6.0605 16.4523 6.391 15.7004 5.17435C17.2838 6.14726 18.4932 5.15163 19.7864 4.76123L19.8294 4.80048Z" fill="#A0D1CA"/>
<path d="M16.957 2.30728C16.6219 2.82782 16.0723 2.97241 15.5269 3.13353C15.7802 2.4622 16.3706 2.38784 16.957 2.30728Z" fill="#A0D1CA"/>
<path d="M15.5268 3.13767C15.4573 3.70364 15.6044 4.25929 15.6309 4.82113C15.4337 4.5894 15.3161 4.29924 15.2959 3.99421C15.2756 3.68917 15.3538 3.38571 15.5186 3.12939L15.5268 3.13767Z" fill="#A0D1CA"/>
<path d="M17.1612 3.35247C17.0232 3.61357 16.8093 3.82554 16.5483 3.95976C16.4993 3.50946 16.7057 3.30289 17.1469 3.32355L17.1612 3.35247Z" fill="#A0D1CA"/>
<path d="M17.4187 4.89756C17.3615 4.92441 17.3063 4.974 17.2532 4.96986C17.2001 4.96573 17.1511 4.91203 17.1021 4.88104C17.1552 4.85419 17.2103 4.80461 17.2635 4.80667C17.3166 4.80874 17.3656 4.86244 17.4187 4.89756Z" fill="#A0D1CA"/>
<path d="M16.9569 2.30731C16.9911 2.23629 17.0502 2.18068 17.1227 2.15128C17.1952 2.12188 17.2759 2.1208 17.3491 2.14825C17.3716 2.14825 17.3839 2.19989 17.4002 2.22675L16.9548 2.30731H16.9569Z" fill="#A0D1CA"/>
<path d="M16.5484 4.36877L16.7036 4.596L16.6219 4.65176L16.5422 4.37291L16.5484 4.36877Z" fill="#A0D1CA"/>
<path d="M16.5482 4.3729C16.3439 4.2345 16.3439 4.09611 16.5482 3.95978C16.5482 4.09611 16.5482 4.23244 16.5482 4.3729Z" fill="#A0D1CA"/>
<path d="M4.29038 11.4105C5.33027 12.0405 6.53769 11.8236 7.64091 11.964C10.8362 12.3379 14.06 12.2346 17.2737 12.2016C18.2073 12.2016 19.0061 11.4228 19.997 11.6087C20.2687 12.5569 19.997 13.5277 20.1155 14.4862C20.1298 14.6018 19.95 14.8166 19.8172 14.8662C18.9387 15.1905 18.2911 16.087 17.2164 15.9383C16.91 15.897 16.5892 15.9383 16.3993 16.2337C16.2093 16.529 15.9069 16.5497 15.5963 16.5497C12.5625 16.5621 9.51024 16.6902 6.50499 16.2853C4.90328 16.0787 3.275 16.0787 1.69985 15.7028C1.16662 15.5768 0.533307 15.2133 0.461802 14.703C0.365781 14.0028 0.185991 13.2571 0.915343 12.5445C1.68351 11.7926 2.54974 11.6335 3.46296 11.396L4.29038 11.4105Z" fill="#71ACAB"/>
</g>
<defs>
<clipPath id="clip0_167_471">
<rect width="21" height="17" fill="white"/>
</clipPath>
</defs>
</svg>
