<svg width="17" height="31" viewBox="0 0 17 31" fill="none" xmlns="http://www.w3.org/2000/svg">
<g clip-path="url(#clip0_164_2)">
<path d="M16.7382 24.377C16.7979 24.377 16.8561 24.377 16.8008 24.2867C16.4313 23.2606 16.0622 22.234 15.6937 21.2069C15.6965 21.1973 15.6973 21.1871 15.6958 21.1771C15.6944 21.1672 15.6908 21.1576 15.6854 21.1493C15.68 21.1409 15.6728 21.1339 15.6644 21.1288C15.656 21.1237 15.6466 21.1205 15.6369 21.1196C15.6337 20.9442 15.5919 20.7719 15.5147 20.6156C15.2659 19.8919 14.9881 19.1787 14.7669 18.4475C14.1903 16.5523 14.02 14.5499 14.2679 12.5797C14.4483 11.1293 14.8789 9.74213 15.1888 8.32333C15.2368 8.10366 15.3518 7.89302 15.2936 7.6553C15.3547 7.47776 15.4274 7.30324 15.4725 7.12269C15.9526 5.15673 16.4308 3.18926 16.907 1.22029C17.0656 0.565804 17.067 0.567311 16.4706 0.31003C16.3062 0.231793 16.1359 0.167097 15.9803 0.0753189C15.7213 -0.0751373 15.6136 -0.0029192 15.5176 0.285957C15.2368 1.124 14.9022 1.94098 14.6229 2.78353C14.2155 4.00524 13.5405 4.97568 12.3155 5.39545C11.258 5.77553 10.1623 6.03042 9.04933 6.15526H8.73799H8.58087C7.35879 6.0048 6.13525 5.88293 4.94372 5.49927C3.8293 5.13968 3.04223 4.42952 2.61595 3.31013C2.27843 2.43899 1.96127 1.55731 1.62811 0.684665C1.34587 -0.058589 1.33713 -0.0570818 0.628614 0.282949C0.61843 0.282949 0.612615 0.304012 0.60534 0.314544C0.502763 0.37357 0.39572 0.423887 0.28527 0.465C-0.00570126 0.55076 -0.0595299 0.714757 0.0408552 1.00514C0.151424 1.3211 0.206712 1.65661 0.289639 1.9816C0.749374 3.78707 1.20959 5.59706 1.6703 7.41156C1.64265 7.4582 1.65866 7.48228 1.70812 7.4898C1.6703 7.83736 1.82597 8.1473 1.90017 8.46927C2.27697 10.0852 2.76144 11.6725 2.89383 13.3486C3.04665 15.2766 2.81236 17.2164 2.20568 19.0463C1.96272 19.7986 1.70812 20.5509 1.45934 21.2927C1.44898 21.2917 1.43855 21.2933 1.42888 21.2973C1.41922 21.3013 1.41058 21.3075 1.40366 21.3156C1.39675 21.3236 1.39173 21.3332 1.38902 21.3436C1.38631 21.354 1.38598 21.3649 1.38805 21.3754L0.376927 24.368C0.387111 24.4056 0.37693 24.4537 0.407482 24.4778C1.63975 25.7672 2.86765 27.0596 4.11009 28.3385C4.97282 29.2277 5.79918 30.156 6.70992 30.9971H8.58523H10.4635C10.6089 31.0272 10.6613 30.8872 10.737 30.8075C12.4983 28.9439 14.2568 27.0797 16.0123 25.2151C16.2625 24.9472 16.5666 24.7276 16.7397 24.383L16.7382 24.377Z" fill="white"/>
<path d="M15.6935 21.2068C16.0631 22.2329 16.4321 23.2595 16.8007 24.2866L16.7381 24.3769C16.6602 24.3694 16.5818 24.3694 16.5039 24.3769C13.9666 24.8283 11.7203 26.5706 10.9143 29.342C10.7543 29.8941 10.6146 30.4523 10.4648 31.0075H8.58656C8.73205 30.2462 8.59529 29.4849 8.58656 28.7236C8.57347 24.3844 8.58656 20.0438 8.57638 15.7031C8.5691 13.0385 8.52692 10.3724 8.50073 7.70786C9.68092 7.69452 10.8532 7.50706 11.9822 7.15117C13.4094 6.73441 14.3391 5.8076 14.8395 4.37977C15.276 3.12948 15.7328 1.88671 16.1838 0.642436C16.2348 0.502511 16.2464 0.30692 16.4748 0.329489C17.0684 0.586769 17.0669 0.585262 16.9113 1.23975C16.4321 3.20571 15.954 5.17318 15.4768 7.14215C15.4317 7.32269 15.3589 7.49722 15.2978 7.67476C14.9006 7.94558 14.7159 8.39243 14.4816 8.78362C13.5491 10.2882 12.9089 11.9176 12.7489 13.7066C12.5681 15.532 12.9774 17.368 13.9128 18.9274C14.3958 19.7398 14.9065 20.5373 15.647 21.1376L15.6935 21.2068Z" fill="#71ACAB"/>
<path d="M8.50656 7.69131C8.53275 10.3559 8.57494 13.022 8.58221 15.6866C8.59531 20.0272 8.58221 24.3679 8.5924 28.707C8.5924 29.4683 8.73788 30.2297 8.5924 30.991H6.71563C6.66035 30.7156 6.61379 30.4388 6.55123 30.1665C5.99693 27.7592 4.68029 25.9883 2.47036 24.9682C1.80258 24.6598 1.08969 24.5168 0.382634 24.3664L1.39376 21.3738C1.41704 21.3452 1.44031 21.3181 1.46505 21.291C1.63381 21.291 1.70947 21.1406 1.79967 21.0413C2.19937 20.5806 2.57293 20.0963 2.91846 19.5909C3.76082 18.309 4.31512 16.9173 4.43733 15.3631C4.60027 13.2928 4.07215 11.3835 3.11049 9.59307C2.71622 8.85584 2.32196 8.11108 1.72256 7.51678C1.70947 7.4912 1.69783 7.46412 1.68473 7.43854C1.225 5.63306 0.764779 3.82308 0.304075 2.00858C0.221148 1.68359 0.158586 1.34807 0.0552909 1.03212C-0.0450942 0.741735 0.00728851 0.580748 0.299715 0.491978C0.410165 0.450865 0.517199 0.400548 0.619776 0.341522C0.747803 0.388164 0.781267 0.513042 0.822003 0.622875C1.26864 1.82652 1.74002 3.03017 2.14883 4.25037C2.67549 5.82113 3.6968 6.7961 5.24767 7.20083C6.32281 7.48067 7.40524 7.68981 8.51966 7.66273C8.51608 7.67262 8.5117 7.68219 8.50656 7.69131Z" fill="#71ACAB"/>
<path d="M1.71674 7.51077C2.31614 8.10507 2.7104 8.84983 3.10467 9.58707C4.06633 11.3775 4.59444 13.2868 4.4315 15.3571C4.30929 16.9113 3.75499 18.303 2.91263 19.5849C2.5671 20.0903 2.19354 20.5746 1.79384 21.0353C1.70364 21.1421 1.62799 21.285 1.45923 21.285C1.70801 20.5328 1.96261 19.7895 2.20557 19.0387C2.81142 17.2184 3.04862 15.2887 2.90244 13.3695C2.77005 11.6935 2.28559 10.1061 1.90878 8.49024C1.83459 8.16827 1.67891 7.85833 1.71674 7.51077Z" fill="#A0D1CA"/>
<path d="M15.6398 21.1211C14.8993 20.5192 14.3886 19.7233 13.9056 18.9109C12.9702 17.3515 12.5609 15.5155 12.7417 13.69C12.9018 11.9011 13.5419 10.2717 14.4745 8.7671C14.7145 8.37591 14.8935 7.92905 15.2907 7.65823C15.3488 7.89595 15.2339 8.1096 15.1859 8.32626C14.876 9.74506 14.4454 11.1323 14.265 12.5827C14.0171 14.5529 14.1874 16.5553 14.764 18.4505C14.9851 19.1817 15.263 19.8948 15.5118 20.6185C15.5908 20.7738 15.6345 20.9457 15.6398 21.1211Z" fill="#A0D1CA"/>
<path d="M16.4763 0.312939C16.2523 0.290371 16.2406 0.485966 16.1853 0.625891C15.7343 1.87016 15.2789 3.11293 14.841 4.36322C14.3406 5.79105 13.4109 6.71786 11.9837 7.13463C10.8547 7.49052 9.68242 7.67797 8.50223 7.69132C8.50366 7.67782 8.50366 7.66419 8.50223 7.65069C8.5357 7.1587 8.41494 6.65617 8.57788 6.1702H8.73501C8.75489 6.19235 8.77898 6.21002 8.80576 6.2221C8.83255 6.23418 8.86146 6.24041 8.89068 6.24041C8.9199 6.24041 8.94881 6.23418 8.97559 6.2221C9.00238 6.21002 9.02647 6.19235 9.04635 6.1702C10.1593 6.04537 11.255 5.79047 12.3125 5.4104C13.5375 4.99062 14.2125 4.02018 14.6199 2.79848C14.8992 1.95893 15.2338 1.14346 15.5146 0.300905C15.6107 0.0120287 15.7183 -0.0631985 15.9773 0.0902668C16.1417 0.170009 16.3177 0.239216 16.4763 0.312939Z" fill="#A0D1CA"/>
<path d="M8.58661 6.17021C8.42367 6.65619 8.54442 7.15872 8.51096 7.65071C7.39654 7.67779 6.31412 7.46865 5.23898 7.18881C3.68811 6.78408 2.6668 5.80912 2.14014 4.23836C1.73133 3.01816 1.26723 1.81902 0.813311 0.610859C0.772575 0.501026 0.739111 0.376148 0.611084 0.329506C0.618358 0.318974 0.624183 0.30393 0.634367 0.297912C1.34725 -0.0421193 1.35161 -0.0436264 1.63385 0.699627C1.96701 1.57227 2.28417 2.45395 2.6217 3.32509C3.05815 4.44449 3.84087 5.15464 4.94947 5.51423C6.141 5.89789 7.36453 6.02277 8.58661 6.17021Z" fill="#A0D1CA"/>
<path d="M0.378174 24.3604C1.08523 24.5108 1.79811 24.6613 2.46589 24.9622C4.67873 25.9868 5.9881 27.7547 6.54677 30.165C6.60933 30.4373 6.65588 30.7141 6.71116 30.9895C5.80042 30.1484 4.97406 29.2201 4.11133 28.3309C2.86888 27.052 1.63808 25.7596 0.408729 24.4702C0.385451 24.4461 0.388358 24.398 0.378174 24.3604Z" fill="#A0D1CA"/>
<path d="M10.4648 30.9955C10.6103 30.4403 10.7558 29.8821 10.9144 29.3299C11.7204 26.566 13.9696 24.8253 16.504 24.3649C16.5819 24.3574 16.6603 24.3574 16.7382 24.3649C16.5665 24.7094 16.2624 24.9291 16.0108 25.1969C14.2581 27.0666 12.5002 28.9322 10.7369 30.7939C10.6627 30.8857 10.6161 31.0256 10.4648 30.9955Z" fill="#A0D1CA"/>
<path d="M9.05499 6.15817C9.03511 6.18032 9.01103 6.19798 8.98424 6.21007C8.95745 6.22215 8.92855 6.22839 8.89932 6.22839C8.8701 6.22839 8.84119 6.22215 8.81441 6.21007C8.78762 6.19798 8.76353 6.18032 8.74365 6.15817H9.05499Z" fill="#A0D1CA"/>
<path d="M16.738 24.3769L16.8006 24.2867C16.8559 24.3739 16.7977 24.3754 16.738 24.3769Z" fill="#A0D1CA"/>
<path d="M1.67607 7.42651C1.68916 7.45209 1.7008 7.47917 1.7139 7.50474C1.66443 7.49722 1.64843 7.47316 1.67607 7.42651Z" fill="#A0D1CA"/>
<path d="M15.6935 21.2068L15.6367 21.1195C15.6464 21.1204 15.6558 21.1236 15.6642 21.1287C15.6726 21.1338 15.6797 21.1408 15.6852 21.1492C15.6906 21.1576 15.6942 21.1671 15.6956 21.177C15.697 21.187 15.6963 21.1972 15.6935 21.2068Z" fill="#A0D1CA"/>
<path d="M1.46057 21.285C1.43584 21.3121 1.41256 21.3392 1.38928 21.3678C1.38721 21.3572 1.38754 21.3464 1.39025 21.336C1.39296 21.3256 1.39797 21.316 1.40489 21.308C1.41181 21.2999 1.42045 21.2937 1.43011 21.2897C1.43978 21.2857 1.4502 21.2841 1.46057 21.285Z" fill="#A0D1CA"/>
</g>
<defs>
<clipPath id="clip0_164_2">
<rect width="17" height="31" fill="white"/>
</clipPath>
</defs>
</svg>
