<svg width="23" height="25" viewBox="0 0 23 25" fill="none" xmlns="http://www.w3.org/2000/svg">
<g clip-path="url(#clip0_172_861)">
<path d="M17.5377 18.3321C18.7278 18.0602 19.7698 18.7696 19.9231 19.9997C20.1235 21.5968 19.6868 23.0001 18.5542 24.1585C17.3487 25.3925 15.9249 25.2655 14.9442 23.8532C14.8652 23.7557 14.7799 23.6636 14.6888 23.5774C14.6467 23.0938 14.5969 22.6102 14.5611 22.1253C14.5394 21.8033 14.3824 21.82 14.1308 21.8828C13.3997 22.0891 12.644 22.1939 11.8846 22.1946C10.2527 22.1509 8.94763 21.2697 8.48537 19.8176C8.20572 18.9299 8.13167 17.996 8.05505 17.0686C7.9746 16.0898 8.09463 15.1149 8.20572 14.1503C8.28745 13.4396 8.31171 12.6751 8.80717 12.0683C9.23111 12.7931 9.50439 12.8944 10.2527 12.5712C10.5254 12.4584 10.7864 12.3188 11.0316 12.1543C11.2385 12.0119 11.4288 12.0414 11.6599 12.026C12.4529 11.9862 13.1169 12.271 13.8039 12.6084C14.4539 12.9265 14.9468 12.6584 15.2086 11.976C15.372 11.5424 15.3465 11.1011 15.2954 10.656H15.4435C16.6247 10.647 17.6003 11.1422 18.3448 12.0145C19.2987 13.133 20.227 14.2426 21.5729 14.9405C22.3518 15.3433 22.5281 16.0437 22.2305 16.7838C21.9049 17.5971 21.2026 18.0025 20.3687 17.8767C19.3191 17.7177 18.4801 17.1674 17.719 16.4657C17.585 16.3297 17.6973 16.0809 17.4573 15.9398C17.3423 16.6478 17.221 17.3316 17.1265 18.0191C17.0857 18.3206 17.3104 18.3501 17.5377 18.3321ZM18.7904 21.135C18.6959 20.7207 18.7904 20.1691 18.2796 19.8933C17.7689 19.6175 17.2581 19.7085 16.769 19.9959C16.0948 20.3935 15.6683 21.4993 15.8189 22.3177C15.9288 22.9104 16.2212 23.2901 16.8035 23.4247C17.3641 23.553 17.8161 23.3234 18.1315 22.886C18.5225 22.3828 18.7523 21.7722 18.7904 21.135Z" fill="#E7D5C6"/>
<path d="M10.6166 1.15964C11.6445 0.924893 12.6814 0.981337 13.7119 1.11859C14.215 1.18658 14.5854 1.21224 14.9595 0.711954C15.5788 -0.114153 16.5838 -0.200099 17.5441 0.342514C18.4686 0.863321 18.9755 1.91905 18.7342 2.81057C18.6753 3.02801 18.5722 3.23081 18.4313 3.40613C18.2904 3.58145 18.1148 3.72548 17.9156 3.8291C17.6526 3.97405 17.6066 4.12029 17.7113 4.39352C17.8717 4.79085 17.9335 5.22141 17.8914 5.64807C17.7024 5.78789 17.7714 5.99442 17.756 6.17914C17.6283 7.73899 16.6183 9.04486 15.2021 9.49255C15.3298 8.33035 15.0604 7.31183 14.0209 6.67044C12.2396 5.58522 9.86062 6.17657 9.07657 8.08919C9.00191 8.08307 8.93116 8.05313 8.87464 8.00375C8.81813 7.95436 8.77881 7.88811 8.76244 7.81468C8.09076 6.05086 8.13289 4.34221 9.13403 2.69897C9.52094 2.07298 10.1237 1.67532 10.6166 1.15964ZM16.58 0.903086C16.1279 0.940287 15.7755 1.1404 15.6375 1.51112C15.5099 1.86132 15.9376 1.89596 16.1177 2.07683C16.3897 2.34493 16.6962 2.58994 16.9298 2.88113C17.1431 3.15179 17.2976 3.0992 17.4981 2.90678C17.6515 2.77518 17.759 2.59779 17.8049 2.40049C17.8509 2.20319 17.8328 1.9963 17.7535 1.81001C17.5453 1.22506 17.0831 1.02367 16.58 0.901804V0.903086ZM10.7979 5.61087C10.7596 5.34405 10.7302 5.04004 10.4148 5.03106C10.139 5.02208 10.0598 5.30301 10.0471 5.53647C10.0305 5.79303 10.0905 6.09576 10.3842 6.12911C10.7238 6.16759 10.7111 5.81996 10.7979 5.61087ZM14.1933 5.61087C14.1767 5.35432 14.1512 5.058 13.8319 5.04389C13.5574 5.03234 13.4591 5.30044 13.4489 5.53262C13.4374 5.81355 13.5025 6.13296 13.846 6.13168C14.1078 6.12655 14.1691 5.84434 14.1933 5.60574V5.61087Z" fill="#E7D5C6"/>
<path d="M10.6166 1.15962C10.1237 1.67273 9.51457 2.07295 9.13148 2.69895C8.13035 4.34218 8.08822 6.05084 8.7599 7.81465C8.77627 7.88808 8.81559 7.95433 8.8721 8.00372C8.92862 8.05311 8.99937 8.08305 9.07403 8.08917C8.79437 8.71901 9.16726 9.29754 9.21578 9.90044C8.53517 10.5175 8.61049 11.2769 8.81352 12.0606C8.31806 12.6674 8.29381 13.4319 8.21208 14.1426C8.10099 15.1072 7.98096 16.0821 8.06141 17.0609C8.13803 17.9883 8.21207 18.9222 8.49173 19.8099C8.94888 21.262 10.259 22.1432 11.891 22.1869C12.6504 22.1862 13.4061 22.0814 14.1371 21.8751C14.3925 21.8123 14.5458 21.7956 14.5675 22.1176C14.5994 22.6025 14.6492 23.0861 14.6952 23.5697C12.5461 24.5959 10.4276 24.3612 8.32572 23.4196C8.23761 22.9873 8.50451 22.5845 8.43811 22.1599C8.16867 20.4449 7.56467 18.9594 5.7565 18.3334C5.72585 16.9737 5.71564 15.6139 5.8842 14.2606C6.11149 13.0112 6.52266 11.84 7.30415 10.8202L8.29252 10.2237C7.91964 9.81578 7.52635 9.45404 7.21605 9.03201C6.22641 7.70434 6.14726 6.20349 6.46522 4.64107C6.51246 4.41273 6.56609 4.1844 6.61717 3.95607C6.67463 3.58919 7.23904 3.30827 6.74486 2.84005C6.27622 2.39493 6.30943 1.85745 6.75125 1.39308C7.27097 0.845339 7.97202 0.701668 8.37298 1.18912C8.81991 1.73045 9.1749 1.6227 9.61034 1.26481C9.9564 1.36615 10.2693 1.10318 10.6166 1.15962Z" fill="#E7D5C6"/>
<path d="M7.30043 10.8228C6.52149 11.8426 6.10774 13.0137 5.88044 14.2632C4.33022 14.1888 2.78256 14.108 1.35875 13.3781C0.891927 13.1643 0.499603 12.8149 0.23247 12.3749C-0.13657 11.7246 -0.0484466 11.0921 0.374225 10.5149C0.782851 9.95689 1.34982 9.72214 1.99979 10.0018C3.42231 10.6265 4.90996 10.7099 6.42826 10.6599C6.71174 10.656 7.00928 10.7663 7.30043 10.8228Z" fill="#E7D5C6"/>
<path d="M5.75008 18.336C7.5608 18.962 8.1648 20.4474 8.43169 22.1625C8.49809 22.5871 8.23122 22.9899 8.31933 23.4222C7.95029 24.0546 7.52251 24.6164 6.78698 24.8704C6.52959 24.9697 6.25361 25.0108 5.97863 24.9908C5.70365 24.9709 5.43639 24.8903 5.19587 24.755C3.83208 24.0058 2.76074 21.8508 2.98548 20.3012C3.22555 18.6823 4.04662 18.0974 5.75008 18.336ZM7.16879 22.056C7.16879 21.1029 6.9287 20.586 6.21743 20.0151C5.48063 19.4225 4.3582 19.7432 4.24838 20.6014C4.13856 21.4595 4.29945 22.269 4.90856 22.9104C5.27504 23.2952 5.71176 23.6236 6.31321 23.3811C6.91465 23.1387 7.22242 22.7244 7.16879 22.0599V22.056Z" fill="#E7D5C6"/>
<path d="M9.60516 1.26737C9.16971 1.62526 8.81473 1.73301 8.36779 1.19168C7.96683 0.704229 7.26579 0.847901 6.74607 1.39565C6.30424 1.86001 6.27103 2.39749 6.73968 2.84262C7.23513 3.31083 6.67072 3.59176 6.61198 3.95863C5.64916 3.49555 5.31841 2.86057 5.51634 1.85873C5.70022 0.924868 6.71925 0.0628427 7.70123 0.0140972C8.60914 -0.0320827 9.34338 0.448958 9.60516 1.26737Z" fill="#E7D5C6"/>
<path d="M15.1995 9.49255C16.6182 9.04486 17.6257 7.73899 17.7534 6.17914C17.7687 5.99442 17.6998 5.79431 17.8888 5.64807C18.0382 7.60687 17.4048 9.19366 15.7077 10.2738C15.5685 10.3623 15.3936 10.4315 15.4421 10.6586H15.2953C15.1778 10.4418 15.0616 10.225 14.9441 10.0095C14.9578 9.81003 15.0496 9.62413 15.1995 9.49255Z" fill="#E7D5C6"/>
<path d="M17.5376 18.3321C17.3078 18.3501 17.0856 18.3206 17.1277 18.0191C17.2222 17.3316 17.3435 16.6479 17.4584 15.9398C17.6985 16.0834 17.5861 16.3246 17.7202 16.4657C17.6589 17.0866 17.5989 17.71 17.5376 18.3321Z" fill="#E7D5C6"/>
<path d="M14.9467 10.0056C15.0642 10.2211 15.1804 10.4379 15.2979 10.6547C15.3477 11.0998 15.3732 11.5411 15.2098 11.9747C14.9544 12.6571 14.4602 12.9252 13.8051 12.6071C13.1181 12.2697 12.4541 11.985 11.6611 12.0247C11.43 12.0363 11.2397 12.0068 11.0329 12.153C10.7876 12.3175 10.5266 12.4571 10.2539 12.5699C9.50562 12.8932 9.23234 12.7918 8.80839 12.0671C8.60536 11.2833 8.53004 10.5277 9.21065 9.90686C9.76499 9.89615 10.3085 10.0618 10.7634 10.3802C11.559 10.9344 12.3762 10.6368 13.1424 10.3879C13.7438 10.1904 14.2738 9.79783 14.9467 10.0056Z" fill="#A0D1CA"/>
<path d="M18.7903 21.135C18.7507 21.7728 18.5191 22.3834 18.1263 22.886C17.8109 23.3234 17.3601 23.5556 16.7983 23.4248C16.216 23.2901 15.9235 22.9117 15.8137 22.3177C15.663 21.4993 16.0895 20.3936 16.7638 19.9959C17.2516 19.7086 17.7636 19.6213 18.2744 19.8933C18.7852 20.1652 18.6958 20.7168 18.7903 21.135Z" fill="#E7D5C6"/>
<path d="M14.9467 10.0057C14.2737 9.79784 13.7438 10.1904 13.1475 10.3841C12.3813 10.6329 11.5641 10.9305 10.7685 10.3764C10.3136 10.058 9.77008 9.89231 9.21574 9.90303C9.16722 9.30012 8.79434 8.72159 9.07399 8.09175C9.85804 6.17913 12.237 5.58777 14.0184 6.673C15.0578 7.30798 15.3298 8.33035 15.1995 9.49511C15.0521 9.62558 14.9614 9.80883 14.9467 10.0057ZM12.2255 6.57038C11.5372 6.54857 10.9588 6.8667 10.9869 7.21946C11.0124 7.54914 11.6419 7.84417 12.2013 7.78004C12.6495 7.72744 13.1641 7.62995 13.1283 7.07451C13.0964 6.55114 12.5269 6.67813 12.2255 6.57038Z" fill="#E7D5C6"/>
<path d="M16.5799 0.901794C17.083 1.02366 17.5452 1.22505 17.7496 1.80872C17.8289 1.995 17.8469 2.20189 17.801 2.3992C17.7551 2.5965 17.6476 2.77389 17.4942 2.90549C17.2937 3.0979 17.1392 3.1505 16.9259 2.87983C16.6922 2.58351 16.3858 2.34363 16.1138 2.07553C15.9337 1.89851 15.5021 1.86003 15.6337 1.50983C15.778 1.13911 16.1278 0.938995 16.5799 0.901794Z" fill="#E7D5C6"/>
<path d="M10.7979 5.61086C10.7111 5.81995 10.7238 6.16758 10.388 6.12397C10.0943 6.09062 10.0343 5.78916 10.0509 5.53133C10.0636 5.29786 10.1428 5.01822 10.4186 5.02591C10.7302 5.04002 10.7596 5.34404 10.7979 5.61086Z" fill="#575757"/>
<path d="M14.1934 5.60574C14.1692 5.84434 14.1079 6.12655 13.8461 6.12655C13.5026 6.12655 13.4375 5.80842 13.449 5.52749C13.4592 5.29274 13.5575 5.02721 13.8321 5.03875C14.1513 5.05287 14.1768 5.34662 14.1934 5.60574Z" fill="#575757"/>
<path d="M7.16893 22.0599C7.22384 22.7244 6.9046 23.1438 6.31082 23.3824C5.71703 23.621 5.27521 23.2965 4.90617 22.9116C4.29706 22.2703 4.13997 21.4557 4.24596 20.6026C4.35195 19.7496 5.47824 19.4238 6.21505 20.0164C6.92886 20.5885 7.1702 21.1016 7.16893 22.0599Z" fill="#E7D5C6"/>
<path d="M12.2255 6.57038C12.5268 6.67813 13.0938 6.55113 13.1283 7.07451C13.164 7.62995 12.6494 7.72744 12.2012 7.78003C11.6419 7.84417 11.0124 7.54913 10.9868 7.21946C10.9587 6.86285 11.5372 6.54857 12.2255 6.57038Z" fill="#575757"/>
</g>
<defs>
<clipPath id="clip0_172_861">
<rect width="22.3684" height="25" fill="white"/>
</clipPath>
</defs>
</svg>
