<svg width="29" height="18" viewBox="0 0 29 18" fill="none" xmlns="http://www.w3.org/2000/svg">
<g clip-path="url(#clip0_170_788)">
<path d="M27.0432 1.78477C27.0134 1.68241 27.1137 1.5308 26.9502 1.48311C26.7393 1.42146 26.5345 1.33383 26.3102 1.31871C26.3061 1.24116 26.249 1.20588 26.1829 1.18378C25.8068 1.05893 25.4357 0.917788 25.0527 0.816201C24.3898 0.63978 23.7254 0.464522 23.0421 0.368363C22.4744 0.288489 21.9102 0.177983 21.3319 0.195819C21.2849 0.088415 21.2095 0.00582676 21.0806 0.00931641C20.6849 0.0209486 20.2717 -0.0755978 19.9116 0.169841C19.5387 0.158209 19.1712 0.214043 18.8033 0.256694C18.3015 0.318397 17.8052 0.415733 17.3186 0.547886C16.7815 0.684524 16.2596 0.870075 15.76 1.10196C15.2734 1.33228 14.8337 1.63278 14.3997 1.94103C14.3595 1.93892 14.3199 1.93108 14.2822 1.91777C13.8311 1.67465 13.3661 1.45752 12.8991 1.2431C12.3162 0.974786 11.7039 0.7751 11.0896 0.60023C10.1723 0.339282 9.22598 0.163248 8.26661 0.126413C7.1653 0.0845373 6.06114 0.103537 4.97492 0.353241C4.14648 0.544008 3.33396 0.768897 2.56834 1.12872C2.3697 1.13143 2.24856 1.20278 2.28282 1.41603C2.29261 1.47613 2.2559 1.52576 2.23224 1.57811C2.01606 1.61688 1.83414 1.7332 1.63998 1.82083C1.61069 1.83032 1.586 1.84956 1.57048 1.87501C1.55496 1.90045 1.54966 1.93038 1.55555 1.95926C1.58491 2.10853 1.48539 2.14537 1.36424 2.17057C1.28552 2.18725 1.20843 2.21167 1.13011 2.23145C0.772797 2.32334 0.772799 2.32334 0.775246 2.68433C0.632891 2.69092 0.489717 2.69092 0.348178 2.70488C0.0626522 2.73318 -0.000976562 2.80142 -0.000976562 3.074C-0.000976562 7.92539 -0.000976562 12.777 -0.000976562 17.6289C-0.000976562 17.8841 0.0806001 17.9686 0.353889 17.9899C0.44852 17.9973 0.544375 17.995 0.639414 17.995C3.30432 17.9965 5.96922 17.9979 8.63413 17.9992C12.9706 17.9992 17.3069 17.9981 21.6431 17.9957C24.0015 17.9957 26.3601 17.9969 28.7188 17.9992C28.9187 17.9992 28.9827 17.9155 28.997 17.7542C29.0019 17.703 28.9994 17.651 28.9994 17.5991C28.9994 12.7666 28.9994 7.93431 28.9994 3.10231C29.0015 3.02449 28.9964 2.94665 28.9843 2.86967C28.9607 2.74132 28.895 2.67114 28.7351 2.68355C28.5397 2.69906 28.3415 2.68355 28.1445 2.68355C28.1409 2.64485 28.1409 2.60593 28.1445 2.56723C28.1759 2.3753 28.0862 2.26712 27.8932 2.22331C27.737 2.18763 27.5975 2.10698 27.4368 2.07713C27.3695 2.06511 27.2691 2.03254 27.2553 1.95073C27.2328 1.83208 27.1435 1.80726 27.0432 1.78477Z" fill="#FEFEFE"/>
<path d="M2.56803 1.13026C3.33406 0.769663 4.14658 0.544775 4.9746 0.354782C6.06082 0.105079 7.16336 0.0860792 8.2663 0.127955C9.22567 0.16479 10.172 0.340824 11.0893 0.601772C11.7036 0.776642 12.3159 0.976328 12.8988 1.24464C13.3658 1.45906 13.8308 1.6762 14.2819 1.91931C14.3196 1.93262 14.3592 1.94046 14.3994 1.94257C14.3685 2.04124 14.3547 2.14406 14.3586 2.24695C14.3639 2.50402 14.3839 2.76109 14.3929 3.01739C14.4308 4.07436 14.3749 5.13211 14.4337 6.19025C14.4859 7.11074 14.4455 8.03395 14.4671 8.95638C14.4943 10.0971 14.5136 11.2386 14.525 12.3809C14.5324 13.1866 14.5112 13.9919 14.5519 14.7984C14.5927 15.6049 14.5634 16.4099 14.6037 17.2152V17.3315L14.4855 17.3288L14.3986 17.216C14.3366 17.0245 14.1498 16.9481 13.9972 16.8554C13.2434 16.3971 12.3917 16.2059 11.5258 16.0454C10.6162 15.8771 9.69923 15.7814 8.7778 15.6964C7.90165 15.6154 7.02386 15.5848 6.14485 15.5569C5.181 15.5262 4.2147 15.5476 3.24881 15.5514C3.11502 15.5514 3.04486 15.5258 3.0571 15.3816C3.07096 15.2017 3.02895 15.0218 3.0261 14.8434C3.01263 14.0707 2.97062 13.2987 2.94452 12.5263C2.91732 11.7477 2.89013 10.969 2.86294 10.1902C2.83561 9.43097 2.80542 8.67139 2.78136 7.9122C2.75607 7.12044 2.73404 6.32867 2.69978 5.53691C2.66552 4.74515 2.64227 3.94059 2.62228 3.14262C2.60392 2.4699 2.56314 1.80027 2.56803 1.13026ZM8.91282 12.6368C9.15755 12.6035 9.47122 12.6841 9.7906 12.6818C10.2707 12.6779 10.7459 12.7531 11.2207 12.8082C11.9639 12.8939 12.6948 13.0517 13.4176 13.239C13.4861 13.2568 13.5828 13.2994 13.6093 13.2099C13.6383 13.1114 13.5277 13.1164 13.46 13.0986C12.6531 12.888 11.8318 12.731 11.002 12.6287C10.3086 12.5465 9.61521 12.5104 8.92179 12.4937C8.28625 12.4848 7.65087 12.5195 7.0206 12.5976C6.37122 12.6728 5.72661 12.7813 5.08963 12.9229C4.85346 12.9753 4.623 13.0501 4.39091 13.1168C4.34767 13.1296 4.28893 13.1463 4.29546 13.2025C4.30443 13.2777 4.37704 13.2549 4.42517 13.2587C4.51165 13.2649 4.57732 13.2079 4.65482 13.1874C6.02248 12.8214 7.42156 12.6732 8.91282 12.636V12.6368ZM8.88059 11.0126C9.43105 11.0046 9.9815 11.0286 10.5289 11.0843C10.9319 11.1231 11.3308 11.1766 11.7305 11.2394C12.3158 11.3309 12.8956 11.4512 13.4678 11.5996C13.5342 11.6167 13.6081 11.6612 13.6415 11.5787C13.675 11.4961 13.5763 11.4833 13.522 11.4546C13.4966 11.446 13.4701 11.4406 13.4433 11.4383C12.776 11.2797 12.1062 11.1394 11.425 11.0397C10.7924 10.9432 10.154 10.884 9.51364 10.8625C8.41029 10.8323 7.31102 10.8714 6.21827 11.0525C5.60643 11.1541 4.99459 11.2634 4.40845 11.4616C4.35991 11.4778 4.26242 11.4747 4.30199 11.5635C4.32646 11.6174 4.38928 11.6314 4.45943 11.6093C5.16509 11.3875 5.88706 11.2549 6.62575 11.1564C7.37251 11.0548 8.12624 11.0064 8.88059 11.0118V11.0126ZM8.82471 7.52058C8.56937 7.52407 8.28711 7.55742 8.0028 7.56828C7.51026 7.58334 7.01896 7.62412 6.53113 7.69041C5.82425 7.79278 5.12226 7.92849 4.44149 8.14407C4.37908 8.16346 4.27833 8.16927 4.30076 8.24837C4.32483 8.33677 4.43333 8.30963 4.49288 8.28714C4.69683 8.20959 4.91179 8.18517 5.11818 8.12817C6.34186 7.79084 7.60633 7.73074 8.86713 7.67878C9.15145 7.67225 9.43589 7.68456 9.71841 7.71562C10.2156 7.76059 10.7161 7.77998 11.2105 7.84318C11.9581 7.94135 12.6979 8.08721 13.4249 8.27978C13.5012 8.29955 13.6166 8.33794 13.6419 8.25729C13.6766 8.14795 13.5371 8.16268 13.4731 8.14523C12.7645 7.95704 12.0444 7.81045 11.3169 7.70631C10.4991 7.58495 9.67558 7.5737 8.82471 7.51981V7.52058ZM8.85816 9.18786C8.44251 9.15296 8.03135 9.22043 7.61897 9.23749C7.31578 9.25073 7.0136 9.28011 6.71386 9.32551C6.21378 9.39995 5.71575 9.48371 5.22097 9.58103C4.95666 9.63299 4.69642 9.70821 4.43863 9.78459C4.37908 9.80243 4.26854 9.83694 4.30362 9.92224C4.3387 10.0075 4.43129 9.96101 4.50104 9.9393C4.54183 9.92805 4.57935 9.91759 4.61688 9.90285C4.85491 9.81423 5.10151 9.74799 5.35313 9.7051C5.80875 9.62252 6.26477 9.53721 6.72773 9.48138C7.29184 9.41352 7.85678 9.37126 8.42212 9.34877C9.07883 9.32279 9.73472 9.36351 10.3906 9.41508C11.0093 9.46313 11.6245 9.5456 12.2331 9.66207C12.6561 9.7431 13.0741 9.8474 13.4943 9.9424C13.5522 9.95558 13.6252 9.99358 13.6501 9.91759C13.675 9.84159 13.5828 9.83616 13.5355 9.80708C13.5124 9.79312 13.4871 9.78302 13.4604 9.77722C12.9873 9.67641 12.5121 9.58335 12.0389 9.48487C10.9882 9.2658 9.92398 9.2278 8.85816 9.18825V9.18786ZM9.17754 2.5963C8.46862 2.60444 7.97466 2.60173 7.47989 2.63158C7.15357 2.65136 6.83541 2.69828 6.51522 2.7355C6.04818 2.78978 5.58726 2.89563 5.12838 2.99257C4.87875 3.0453 4.63483 3.12479 4.38969 3.19497C4.34604 3.20738 4.28771 3.22638 4.29709 3.28221C4.30933 3.35472 4.37867 3.33262 4.43007 3.33456C4.45777 3.33535 4.4854 3.33141 4.51164 3.32292C5.16849 3.13241 5.83984 2.99047 6.5197 2.89835C7.26248 2.79172 8.00974 2.75954 8.757 2.7165C9.12981 2.69479 9.49977 2.75295 9.87259 2.76186C10.3244 2.77432 10.7748 2.8146 11.2211 2.88245C11.9736 2.99335 12.7213 3.13332 13.4592 3.31517C13.5281 3.33223 13.6248 3.37566 13.6489 3.28454C13.6709 3.20117 13.5571 3.2035 13.5016 3.18877C13.0085 3.05538 12.5076 2.95612 12.0042 2.86074C10.9988 2.67075 9.9868 2.5711 9.17754 2.59591V2.5963ZM8.88753 4.3799C9.40229 4.3768 9.91419 4.42255 10.4265 4.45745C11.0117 4.49742 11.5933 4.57515 12.1674 4.69009C12.603 4.77694 13.0338 4.88396 13.4665 4.98516C13.5359 5.00106 13.6183 5.02122 13.6411 4.94406C13.6693 4.84867 13.5722 4.8638 13.5102 4.84519C13.0138 4.69629 12.5035 4.60866 11.994 4.51406C11.4703 4.41635 10.9429 4.35625 10.4135 4.29847C10.1426 4.26901 9.87096 4.29111 9.60338 4.2597C8.91893 4.17556 8.23653 4.24535 7.55535 4.2787C7.07852 4.30235 6.60618 4.38455 6.13302 4.45435C5.55871 4.53887 5.00356 4.6897 4.44271 4.82192C4.38152 4.83666 4.27425 4.87659 4.3024 4.95724C4.33217 5.04371 4.42476 4.99795 4.49655 4.98051C4.85387 4.89016 5.2071 4.78664 5.57013 4.71103C6.6645 4.48032 7.77194 4.40045 8.88753 4.37951V4.3799ZM8.881 6.05377C9.37047 6.01926 9.8938 6.0623 10.4126 6.10456C10.8627 6.14012 11.3106 6.19732 11.7546 6.27594C12.3314 6.37947 12.9069 6.48416 13.4718 6.63731C13.54 6.65593 13.6146 6.6947 13.6432 6.61056C13.6717 6.52642 13.5763 6.50626 13.5179 6.48959C13.2477 6.40899 12.9726 6.34425 12.694 6.29572C12.2681 6.23019 11.8517 6.12472 11.4218 6.07005C10.8462 5.99755 10.2691 5.92504 9.69189 5.9041C8.74517 5.86998 7.79723 5.88122 6.85295 6.00491C6.03717 6.11232 5.22749 6.24298 4.4423 6.48532C4.3803 6.50471 4.26609 6.50277 4.29301 6.60591C4.32442 6.72688 4.41538 6.64119 4.47493 6.62685C4.8657 6.52991 5.24993 6.39614 5.64559 6.331C6.70448 6.15691 7.76908 6.01577 8.881 6.05454V6.05377Z" fill="#F5F5F5"/>
<path d="M14.6037 17.2137C14.5629 16.4083 14.5927 15.6011 14.5519 14.7969C14.5111 13.9927 14.5323 13.1851 14.525 12.3793C14.5144 11.2373 14.4951 10.0958 14.4671 8.95482C14.4454 8.03239 14.4858 7.10918 14.4336 6.18869C14.3741 5.13055 14.4299 4.0728 14.3928 3.01582C14.3839 2.75953 14.3639 2.50246 14.3586 2.24539C14.3546 2.1425 14.3684 2.03968 14.3994 1.94101C14.8334 1.63082 15.2731 1.33226 15.7597 1.10195C16.2594 0.870299 16.7815 0.685007 17.3186 0.548643C17.8052 0.416489 18.3015 0.319153 18.8034 0.25745C19.1705 0.214799 19.5376 0.158965 19.9116 0.170597C19.7893 0.556397 19.5996 0.921647 19.5298 1.32257C19.4193 1.34971 19.4605 1.43618 19.4597 1.49899C19.4556 1.78282 19.4597 2.06703 19.4597 2.35202C19.4597 2.60986 19.4405 2.63235 19.1599 2.63933C18.9032 2.64049 18.6469 2.65758 18.3926 2.69051C17.6017 2.80993 16.8071 2.92626 16.0452 3.17906C15.9636 3.2062 15.8645 3.22714 15.8939 3.3171C15.9269 3.42062 16.0252 3.34502 16.0844 3.32602C17.1082 3.00032 18.1687 2.86073 19.237 2.75682C19.3398 2.74712 19.4189 2.75371 19.4238 2.89097C19.427 2.98752 19.4315 3.09531 19.5025 3.18061C19.6065 3.53656 19.6155 3.9084 19.6946 4.26861C19.5755 4.29924 19.5376 4.21355 19.4907 4.0856C19.4536 4.19533 19.447 4.26473 19.3455 4.27132C18.7805 4.30738 18.2168 4.35624 17.6601 4.46209C17.1033 4.56794 16.5375 4.67341 15.9926 4.84401C15.9412 4.8603 15.8702 4.86883 15.8853 4.93552C15.9012 5.00997 15.9669 5.00686 16.0317 4.98476C16.0697 4.97235 16.1133 4.97197 16.15 4.9584C16.6615 4.77267 17.2008 4.67729 17.7343 4.59082C18.391 4.48419 19.0559 4.39269 19.7289 4.42138C19.7697 4.59509 19.8145 4.76802 19.848 4.94327C19.9088 5.262 20.0397 5.56598 20.0707 5.89091C19.9626 5.97931 19.8533 5.88121 19.7399 5.89323C19.1044 5.96031 18.4665 5.99986 17.8314 6.08361C17.1963 6.16737 16.6003 6.35503 15.9848 6.48725C15.9653 6.49294 15.9475 6.50305 15.933 6.51672C15.8975 6.54696 15.8568 6.57992 15.8959 6.63033C15.9253 6.6691 15.9604 6.65243 16.0032 6.64002C16.2532 6.56906 16.5033 6.49423 16.7578 6.44033C17.1494 6.35736 17.5454 6.29299 17.9407 6.22824C18.5587 6.12877 19.1831 6.0697 19.8096 6.05143C19.9198 6.04833 20.025 6.03941 20.1152 5.97156C20.1701 6.13493 20.2092 6.30275 20.2318 6.4729C20.282 6.89233 20.3081 7.31403 20.3101 7.73616C20.3101 7.81021 20.302 7.88699 20.4276 7.84278C20.6666 7.75826 20.9085 7.82883 21.1447 7.85519C21.2895 7.87148 21.3295 7.83309 21.3409 7.71677C21.677 7.74275 22.0135 7.76446 22.3492 7.79432C22.8859 7.84319 23.4191 7.92283 23.9457 8.03278C24.3006 8.10761 24.6603 8.17198 25.0062 8.28791C25.0715 8.30962 25.1926 8.34064 25.2191 8.25379C25.2416 8.18167 25.1404 8.15647 25.0633 8.13979C24.8528 8.09365 24.646 8.03239 24.4348 7.99013C23.8874 7.88117 23.34 7.77842 22.7848 7.70126C22.3047 7.63457 21.8206 7.64349 21.3441 7.56439C21.3439 7.05832 21.315 6.55262 21.2577 6.04949C21.668 6.07276 22.0759 6.12239 22.4846 6.15845C23.3616 6.236 24.2096 6.4384 25.0613 6.62994C25.1212 6.64312 25.2057 6.70089 25.2277 6.60163C25.244 6.53068 25.1706 6.48958 25.0984 6.47988C24.7382 6.43258 24.3919 6.32479 24.0379 6.25771C23.1168 6.08129 22.1958 5.93123 21.2532 5.93084L20.9362 4.37989C21.4412 4.41401 21.9466 4.43417 22.4499 4.4935C23.106 4.5699 23.7569 4.68149 24.3997 4.82773C24.622 4.87813 24.852 4.89597 25.065 4.9867C25.1286 5.01423 25.211 5.01501 25.2281 4.93048C25.242 4.86418 25.1718 4.85797 25.118 4.84556C24.8769 4.78857 24.6387 4.71722 24.3989 4.66294C23.9343 4.55825 23.4578 4.50242 22.9871 4.41983C22.5352 4.34034 22.0775 4.3101 21.6215 4.26977C21.3898 4.24922 21.1549 4.26706 20.9212 4.26745C20.755 3.76327 20.6485 3.24308 20.6034 2.71649C20.8889 2.70757 21.1683 2.76302 21.4543 2.75759C21.9205 2.74867 22.3855 2.8173 22.8411 2.88671C23.4122 2.97317 23.9869 3.04917 24.5473 3.20272C24.7321 3.25351 24.9144 3.34036 25.1159 3.33455C25.1539 3.33455 25.2061 3.3485 25.222 3.30198C25.2408 3.24769 25.1881 3.22171 25.1498 3.19961C25.1184 3.18778 25.0855 3.18008 25.0519 3.17674C24.3063 2.99799 23.5594 2.83514 22.7926 2.74402C22.0584 2.65678 21.3299 2.58543 20.5899 2.60327C20.5536 2.56682 20.5565 2.52107 20.5561 2.47609C20.5467 1.8402 20.5386 1.20896 20.7796 0.595172C20.9318 0.207433 20.9044 0.197739 21.3278 0.195413C21.9066 0.177577 22.4699 0.288082 23.0385 0.367956C23.7218 0.464115 24.3846 0.639374 25.049 0.815795C25.4321 0.917383 25.8032 1.05852 26.1793 1.18337C26.2454 1.20547 26.3017 1.24037 26.3066 1.3183C26.2315 1.3881 26.2658 1.47766 26.2658 1.55754C26.2636 6.24039 26.2636 10.9232 26.2658 15.6061C26.2658 15.6577 26.2621 15.7096 26.2658 15.7612C26.2739 15.862 26.225 15.8938 26.1226 15.8981C25.9517 15.905 25.7865 15.8655 25.6181 15.8593C25.2061 15.8422 24.7937 15.8124 24.3858 15.7697C23.5378 15.6813 22.6865 15.6511 21.8365 15.6328C21.0305 15.6158 20.2233 15.6057 19.4152 15.6546C18.9221 15.6844 18.4326 15.7402 17.9468 15.7972C17.3619 15.8651 16.7802 15.9772 16.2198 16.173C15.6108 16.3862 15.0198 16.6115 14.6726 17.183C14.6633 17.1997 14.6278 17.2036 14.6037 17.2137ZM25.2297 9.90129C25.2297 9.86795 25.2069 9.85864 25.1792 9.8505C24.9161 9.77295 24.6583 9.66632 24.3891 9.62406C23.9636 9.55698 23.5398 9.47555 23.1164 9.40111C22.348 9.26656 21.573 9.24601 20.7996 9.19561C20.4431 9.17273 20.0829 9.2022 19.7236 9.21887C19.1831 9.24368 18.6423 9.26656 18.1091 9.34915C17.4043 9.45849 16.6958 9.56086 16.0199 9.79621C15.9628 9.81599 15.8592 9.8125 15.8902 9.90633C15.9183 9.99125 15.9975 9.95325 16.0636 9.93347C16.6827 9.75046 17.3166 9.63065 17.9554 9.52557C18.6148 9.42153 19.2812 9.3627 19.9496 9.34954C20.8767 9.3221 21.8047 9.3701 22.7232 9.493C23.2914 9.57055 23.8527 9.67446 24.4131 9.79156C24.6371 9.83848 24.8618 9.87376 25.0776 9.95441C25.1351 9.97612 25.2012 9.9707 25.2297 9.90129ZM20.4415 10.8532C19.699 10.8666 18.9578 10.9155 18.2205 10.9998C17.4622 11.0916 16.7268 11.2599 15.9926 11.4453C15.9616 11.4575 15.9338 11.4758 15.911 11.4992C15.8968 11.5084 15.887 11.5225 15.8837 11.5386C15.8804 11.5546 15.8839 11.5713 15.8935 11.5849C15.9016 11.599 15.9151 11.6097 15.9313 11.6147C15.9474 11.6198 15.9649 11.6188 15.9803 11.612C16.5253 11.4259 17.0927 11.3262 17.6592 11.2243C18.3298 11.1048 19.0053 11.0188 19.6881 11.0145C20.3709 11.0102 21.0427 10.9839 21.721 11.0424C22.2717 11.0901 22.8223 11.1424 23.3644 11.2386C23.9473 11.3414 24.5233 11.4778 25.1013 11.6019C25.1498 11.6124 25.1975 11.6337 25.2236 11.5802C25.2567 11.5166 25.1991 11.4856 25.1555 11.4588C25.1246 11.447 25.092 11.4395 25.0588 11.4367C24.6864 11.3472 24.3083 11.2816 23.9363 11.1948C23.6145 11.1207 23.2882 11.0664 22.9655 11.0222C22.1299 10.9049 21.2861 10.8484 20.4415 10.8532ZM20.3371 12.5263C20.0466 12.5391 19.6073 12.5263 19.1664 12.5534C18.5546 12.5965 17.9458 12.6717 17.3427 12.7787C16.8981 12.8556 16.4601 12.9636 16.0321 13.1017C15.9628 13.1234 15.8576 13.1106 15.8841 13.2103C15.9073 13.299 15.9926 13.2452 16.055 13.2316C16.6326 13.1052 17.1971 12.9404 17.7889 12.8574C18.4306 12.7675 19.0697 12.6756 19.7199 12.6767C19.7881 12.6776 19.8563 12.6737 19.9239 12.6651C20.3089 12.6116 20.6989 12.6263 21.0811 12.6496C21.6052 12.6806 22.1293 12.7163 22.651 12.7888C23.0642 12.8466 23.4791 12.8981 23.8857 12.9827C24.2602 13.0602 24.6407 13.125 25.0054 13.2479C25.0715 13.27 25.1975 13.2994 25.2204 13.2176C25.2448 13.1292 25.1306 13.1141 25.0499 13.0974C24.6281 13.011 24.2129 12.9012 23.7882 12.8206C22.6529 12.6009 21.4954 12.5022 20.3371 12.5263ZM16.0064 8.29993C16.0369 8.29721 16.0671 8.29189 16.0966 8.28403C16.5861 8.12041 17.0943 8.0227 17.6058 7.93274C18.3033 7.80983 19.002 7.71638 19.7126 7.71561C19.8589 7.71171 20.005 7.70084 20.1502 7.68304C20.191 7.67877 20.2604 7.68963 20.2608 7.62526C20.2608 7.54772 20.1878 7.56633 20.1384 7.56361C19.5486 7.53104 18.9604 7.59076 18.3796 7.65551C17.5636 7.75105 16.7583 7.91545 15.973 8.14677C15.9155 8.16344 15.867 8.18555 15.88 8.24991C15.8931 8.31428 15.9522 8.29256 16.0064 8.29838V8.29993Z" fill="#EAE8E8"/>
<path d="M28.1438 2.68665C28.3408 2.68665 28.539 2.70177 28.7344 2.68665C28.8943 2.67424 28.96 2.74442 28.9836 2.87276C28.9957 2.94975 29.0007 3.02759 28.9987 3.10541C28.9987 7.93793 28.9987 12.7702 28.9987 17.6022C28.9987 17.6538 29.0012 17.7057 28.9963 17.7573C28.982 17.9186 28.9179 18.0031 28.7181 18.0023C26.3596 17.9961 24.0011 17.995 21.6423 17.9988C17.3062 17.9988 12.9698 18 8.63339 18.0023C5.96849 18.0023 3.30359 18.0009 0.638682 17.9981C0.543643 17.9981 0.447788 18.0004 0.353156 17.993C0.0802756 17.9717 -0.00170898 17.8872 -0.00170898 17.632C-0.00170898 12.7804 -0.00170898 7.92875 -0.00170898 3.0771C-0.00170898 2.80569 0.0602932 2.73628 0.34745 2.70798C0.488989 2.69402 0.632974 2.69402 0.774513 2.68743C0.805106 3.00886 0.798169 3.33223 0.807959 3.65406C0.839774 4.70095 0.812853 5.74785 0.848748 6.79203C0.885458 7.81178 0.848748 8.83231 0.889537 9.85245C0.9238 10.6845 0.904629 11.5197 0.924616 12.351C0.961734 13.9066 0.962552 15.4634 0.978052 17.0198C0.982131 17.4223 0.98172 17.425 1.38839 17.4122C2.17522 17.3882 2.96204 17.3575 3.74928 17.3346C4.75351 17.3063 5.75815 17.2703 6.76279 17.2614C8.272 17.2482 9.78121 17.2509 11.2904 17.2555C11.9213 17.2576 12.5519 17.2802 13.1822 17.3234C13.6146 17.3533 14.0478 17.3757 14.4806 17.401C14.501 17.4205 14.5266 17.4345 14.5547 17.4413C14.5827 17.4481 14.6122 17.4476 14.64 17.4397C15.1458 17.4052 15.6512 17.3595 16.1578 17.3385C17.2624 17.292 18.3672 17.2532 19.4724 17.2222C20.2527 17.1993 21.0338 17.2036 21.8145 17.1889C23.3898 17.1598 24.965 17.1889 26.5387 17.2583C26.978 17.2776 27.4161 17.3304 27.8533 17.3816C28.1001 17.4103 28.0981 17.4227 28.0981 17.19C28.0981 12.4371 28.099 7.68434 28.1009 2.9317C28.105 2.84717 28.0797 2.75877 28.1438 2.68665Z" fill="#71ACAB"/>
<path d="M14.483 17.3998C14.0502 17.3738 13.6171 17.3513 13.1847 17.3222C12.5549 17.2788 11.9243 17.2562 11.2929 17.2544C9.78367 17.2497 8.27446 17.247 6.76526 17.2602C5.76062 17.2691 4.75597 17.3052 3.75174 17.3335C2.96451 17.356 2.17768 17.3866 1.39085 17.411C0.982959 17.4238 0.982957 17.4211 0.98051 17.0186C0.96501 15.4622 0.964196 13.9055 0.927078 12.3499C0.907091 11.5166 0.927079 10.6826 0.892 9.85128C0.851211 8.83114 0.887921 7.81061 0.851211 6.79085C0.813684 5.74396 0.840605 4.69706 0.810421 3.65288C0.800632 3.33106 0.807563 3.00769 0.776971 2.68625C0.774524 2.32527 0.774527 2.32527 1.13184 2.23337C1.21016 2.2136 1.28725 2.18917 1.36597 2.1725C1.48834 2.14729 1.58664 2.11046 1.55727 1.96118C1.55138 1.9323 1.55669 1.90238 1.57221 1.87693C1.58773 1.85149 1.61242 1.83224 1.64171 1.82276C1.83587 1.73474 2.01779 1.61958 2.23397 1.58003C2.32371 1.758 2.31228 1.95226 2.32452 2.13993C2.35267 2.57691 2.33839 3.01467 2.35674 3.45281C2.38978 4.24302 2.41263 5.0344 2.442 5.82538C2.47218 6.64157 2.49176 7.45854 2.52357 8.27551C2.55498 9.11147 2.56885 9.94782 2.60515 10.7838C2.63982 11.5612 2.66063 12.3398 2.68673 13.118C2.7112 13.8582 2.70468 14.5999 2.73649 15.3401C2.74383 15.5068 2.76627 15.6728 2.77728 15.8391C2.78299 15.9326 2.84662 15.9322 2.91841 15.9364C3.10237 15.9477 3.28184 15.9124 3.46336 15.8977C3.98913 15.8566 4.51654 15.8519 5.04313 15.8271C5.69576 15.7961 6.3541 15.8302 7.00918 15.8151C7.72829 15.7988 8.44292 15.8647 9.15918 15.8969C9.38842 15.9074 9.62133 15.9035 9.84608 15.9415C10.6272 16.0749 11.4214 16.1253 12.1902 16.3432C12.7613 16.5045 13.323 16.6654 13.8426 16.9461C14.0233 17.0438 14.1999 17.1516 14.4002 17.2148L14.4871 17.328L14.483 17.3998Z" fill="#A0D1CA"/>
<path d="M28.1438 2.68664C28.0797 2.75993 28.103 2.84717 28.103 2.92898C28.1014 7.68188 28.1004 12.4347 28.1001 17.1873C28.1001 17.4199 28.1001 17.4075 27.8554 17.3788C27.4181 17.3277 26.9801 17.2749 26.5407 17.2555C24.9671 17.1854 23.3918 17.1571 21.8165 17.1861C21.0358 17.2009 20.2547 17.1966 19.4744 17.2195C18.3696 17.2521 17.2647 17.2908 16.1599 17.3358C15.6533 17.3567 15.1479 17.4025 14.6421 17.437L14.6445 17.3288C14.6856 17.3269 14.7243 17.3102 14.753 17.2823C15.2694 16.8255 15.8951 16.5568 16.5592 16.3703C17.1664 16.1987 17.7872 16.0741 18.4155 15.9977C19.0924 15.9186 19.7731 15.8724 20.455 15.8593C21.2622 15.8399 22.0694 15.8593 22.8762 15.8899C23.0789 15.8975 23.2809 15.9154 23.4815 15.9434C24.0893 16.0287 24.7052 16.0245 25.3122 16.1237C25.7372 16.1935 26.1688 16.2276 26.5942 16.2912C26.8116 16.3238 26.8328 16.3203 26.8389 16.1187C26.8593 15.3711 26.8389 14.6236 26.8683 13.8752C26.9132 12.7671 26.8728 11.6566 26.9172 10.5469C26.9552 9.59344 26.9099 8.63882 26.9503 7.68343C26.9972 6.58226 26.9601 5.47797 26.9968 4.37486C27.0221 3.61954 27.0029 2.86268 27.0009 2.10736C26.9966 1.99808 27.0103 1.88883 27.0416 1.7836C27.142 1.80609 27.2313 1.8309 27.2517 1.9542C27.2656 2.03602 27.3659 2.07053 27.4332 2.08061C27.5939 2.10969 27.7334 2.19111 27.8897 2.22679C28.0826 2.2706 28.1723 2.37878 28.1409 2.57071C28.1383 2.60936 28.1393 2.64815 28.1438 2.68664Z" fill="#A0D1CA"/>
<path d="M27.0434 1.78476C27.0121 1.88999 26.9983 1.99924 27.0026 2.10852C27.0026 2.86461 27.0238 3.6207 26.9985 4.37602C26.9618 5.47914 26.9985 6.58342 26.952 7.68459C26.9112 8.63998 26.9569 9.59459 26.919 10.548C26.8745 11.6578 26.9149 12.7682 26.87 13.8764C26.8398 14.6247 26.861 15.3723 26.8406 16.1199C26.8349 16.3215 26.8137 16.325 26.5959 16.2924C26.1697 16.2288 25.7393 16.1947 25.3139 16.1249C24.7078 16.0256 24.0902 16.0299 23.4833 15.9446C23.2826 15.9165 23.0806 15.8987 22.878 15.8911C22.0711 15.8601 21.2639 15.8411 20.4567 15.8605C19.7748 15.8735 19.0941 15.9197 18.4172 15.9989C17.7889 16.0753 17.1681 16.1999 16.5609 16.3715C15.8973 16.558 15.2712 16.8267 14.7548 17.2835C14.726 17.3114 14.6873 17.328 14.6463 17.33H14.6055V17.2137C14.6295 17.2036 14.665 17.1997 14.6756 17.1823C15.0227 16.6107 15.6138 16.3855 16.2228 16.1741C16.7832 15.9803 17.3649 15.8663 17.9498 15.7984C18.4393 15.7414 18.9287 15.6856 19.4182 15.6557C20.2262 15.6069 21.0335 15.617 21.8395 15.634C22.6895 15.6522 23.5408 15.6825 24.3888 15.7709C24.7967 15.8135 25.2091 15.8434 25.621 15.8605C25.7895 15.8674 25.9547 15.907 26.1256 15.8992C26.2296 15.895 26.2769 15.8632 26.2688 15.7624C26.2647 15.7112 26.2688 15.6592 26.2688 15.6073C26.2688 10.9242 26.2688 6.2413 26.2688 1.55871C26.2688 1.47883 26.2341 1.38927 26.3096 1.31947C26.5339 1.3346 26.7387 1.42222 26.9495 1.48387C27.1139 1.53079 27.0136 1.6824 27.0434 1.78476Z" fill="#A0D1CA"/>
<path d="M20.0716 5.88897C20.0406 5.56405 19.9084 5.26006 19.8489 4.94134C19.8154 4.76608 19.7697 4.59237 19.7298 4.41944C19.7175 4.36865 19.7053 4.31747 19.6935 4.26667C19.6143 3.90646 19.6054 3.53462 19.5009 3.17868C19.4973 2.5583 19.4626 1.93985 19.5299 1.3218C19.5997 0.920875 19.7897 0.555626 19.9117 0.169826C20.2719 -0.0756131 20.6867 0.0209333 21.0807 0.00930115C21.208 0.0058115 21.2847 0.0868488 21.3316 0.195803C20.9082 0.19813 20.9355 0.207823 20.7834 0.595562C20.5423 1.20935 20.5505 1.84059 20.5598 2.47648C20.5598 2.52146 20.5574 2.56721 20.5937 2.60366C20.597 2.64244 20.6006 2.67888 20.6039 2.71688C20.649 3.24347 20.7555 3.76366 20.9216 4.26784C20.9265 4.30661 20.9314 4.34267 20.9359 4.38028L21.2528 5.93124L21.259 6.04988C21.3163 6.55301 21.3452 7.05871 21.3454 7.56478C21.3454 7.6148 21.3454 7.6652 21.3422 7.71561C21.3308 7.83193 21.2908 7.87071 21.146 7.85403C20.9098 7.82767 20.6679 7.7571 20.4289 7.84163C20.3033 7.88583 20.311 7.80906 20.3114 7.735C20.3094 7.31288 20.2833 6.89117 20.2331 6.47175C20.2104 6.30159 20.1714 6.13377 20.1165 5.9704C20.1026 5.94287 20.0863 5.91612 20.0716 5.88897Z" fill="#A0D1CA"/>
<path d="M14.3986 17.2141C14.1983 17.1508 14.0217 17.0431 13.841 16.9453C13.3213 16.6646 12.7605 16.5037 12.1894 16.3424C11.4205 16.1245 10.6264 16.0741 9.84526 15.9407C9.62051 15.9019 9.3876 15.9066 9.15837 15.8961C8.4421 15.8639 7.72748 15.798 7.00836 15.8143C6.35328 15.8294 5.69617 15.7953 5.04232 15.8263C4.51573 15.8511 3.98832 15.8558 3.46255 15.8969C3.28103 15.9112 3.10156 15.9465 2.9176 15.9357C2.84581 15.9314 2.78218 15.9318 2.77647 15.8384C2.76627 15.672 2.74383 15.5061 2.73568 15.3393C2.70386 14.5991 2.71039 13.8574 2.68592 13.1172C2.65981 12.339 2.63901 11.5604 2.60434 10.783C2.56722 9.94705 2.55335 9.1107 2.52276 8.27473C2.49176 7.45777 2.47218 6.6408 2.44118 5.82461C2.41181 5.03362 2.38897 4.24225 2.35593 3.45204C2.33758 3.01389 2.35185 2.57613 2.32371 2.13915C2.31147 1.95149 2.32371 1.75723 2.23315 1.57926C2.25681 1.52691 2.29352 1.47728 2.28373 1.41718C2.24825 1.20393 2.36939 1.13258 2.56926 1.12987C2.56518 1.80066 2.60597 2.47028 2.62269 3.14068C2.64268 3.93865 2.66348 4.73739 2.70019 5.53497C2.7369 6.33255 2.7577 7.11849 2.78177 7.91026C2.80624 8.66945 2.83643 9.42903 2.86335 10.1882C2.89054 10.9673 2.91773 11.746 2.94493 12.5243C2.97103 13.2967 3.01304 14.0687 3.02651 14.8415C3.02936 15.0198 3.07137 15.1997 3.05751 15.3797C3.04608 15.5239 3.11542 15.5503 3.24921 15.5495C4.21429 15.5456 5.18059 15.5243 6.14526 15.5549C7.02304 15.5828 7.90206 15.6135 8.77821 15.6945C9.69964 15.7798 10.6166 15.8756 11.5262 16.0435C12.3921 16.204 13.2438 16.3951 13.9976 16.8535C14.1498 16.9461 14.3366 17.0225 14.3986 17.2141Z" fill="#A0D1CA"/>
<path d="M8.91278 12.636C7.42152 12.6748 6.02245 12.8214 4.65478 13.1874C4.57728 13.2079 4.51161 13.2649 4.42513 13.2587C4.37496 13.2549 4.30276 13.2777 4.29542 13.2025C4.2889 13.1463 4.34764 13.1296 4.39087 13.1168C4.62296 13.0494 4.85342 12.9745 5.08959 12.923C5.72657 12.7814 6.37118 12.6728 7.02056 12.5976C7.65083 12.5195 8.28622 12.4848 8.92175 12.4937C9.61517 12.5104 10.3086 12.5465 11.002 12.6287C11.8318 12.731 12.6531 12.888 13.46 13.0986C13.5297 13.1164 13.6382 13.1114 13.6093 13.2099C13.5828 13.2994 13.4869 13.2568 13.4176 13.239C12.6948 13.0517 11.9638 12.8939 11.2206 12.8082C10.7459 12.7531 10.2707 12.6779 9.79056 12.6818C9.47118 12.6849 9.15711 12.6027 8.91278 12.636Z" fill="#E7D5C6"/>
<path d="M8.88073 11.0118C8.12645 11.0055 7.37273 11.053 6.6259 11.1537C5.88883 11.2522 5.16523 11.3863 4.45958 11.6066C4.38942 11.6287 4.3266 11.6147 4.30213 11.5608C4.26134 11.472 4.36005 11.4751 4.40859 11.4589C4.99636 11.2607 5.60616 11.1514 6.21841 11.0498C7.30953 10.8687 8.41043 10.8296 9.51378 10.8598C10.1541 10.8813 10.7925 10.9405 11.4252 11.037C12.1064 11.1366 12.7761 11.277 13.4434 11.4356C13.4703 11.4379 13.4967 11.4433 13.5222 11.4519C13.5764 11.4806 13.6772 11.4879 13.6417 11.5759C13.6062 11.664 13.5344 11.6147 13.4679 11.5969C12.8957 11.4485 12.3159 11.3282 11.7307 11.2367C11.3309 11.1758 10.932 11.1227 10.529 11.0816C9.9816 11.0265 9.43115 11.0032 8.88073 11.0118Z" fill="#E7D5C6"/>
<path d="M8.82471 7.51981C9.67558 7.5737 10.4971 7.58495 11.3169 7.70553C12.0444 7.80968 12.7645 7.95626 13.4731 8.14445C13.5371 8.1619 13.677 8.14717 13.6419 8.25651C13.6166 8.33716 13.5012 8.29877 13.4249 8.279C12.6979 8.08643 11.9581 7.94057 11.2105 7.8424C10.7161 7.7792 10.2156 7.75982 9.71841 7.71484C9.43589 7.68378 9.15145 7.67147 8.86713 7.678C7.60266 7.72996 6.3439 7.79006 5.11818 8.12739C4.91179 8.18439 4.69561 8.20921 4.49288 8.28637C4.43333 8.30885 4.32483 8.336 4.30076 8.24759C4.27955 8.17004 4.37908 8.16268 4.44149 8.14329C5.12226 7.92771 5.82425 7.792 6.53113 7.68964C7.01896 7.62334 7.51026 7.58256 8.0028 7.5675C8.28711 7.55664 8.56937 7.5233 8.82471 7.51981Z" fill="#E7D5C6"/>
<path d="M8.85831 9.18825C9.92413 9.22703 10.9883 9.2658 12.0399 9.48526C12.513 9.58413 12.9882 9.6768 13.4614 9.77761C13.488 9.78341 13.5134 9.79351 13.5364 9.80747C13.5838 9.83655 13.6759 9.84198 13.6511 9.91798C13.6262 9.99397 13.5532 9.95675 13.4952 9.94279C13.0751 9.8478 12.657 9.74349 12.234 9.66246C11.6255 9.54599 11.0103 9.46352 10.3916 9.41547C9.73569 9.3639 9.0798 9.32318 8.42309 9.34916C7.85775 9.37165 7.29281 9.41392 6.7287 9.48177C6.26574 9.5376 5.80972 9.62291 5.3541 9.7055C5.10248 9.74838 4.85588 9.81462 4.61785 9.90324C4.58032 9.91798 4.54076 9.92844 4.50201 9.93969C4.43226 9.95946 4.33885 10.0044 4.30458 9.92263C4.27032 9.84082 4.38005 9.80282 4.4396 9.78498C4.69739 9.70743 4.95763 9.63338 5.22194 9.58142C5.71672 9.4841 6.21475 9.40034 6.71483 9.3259C7.01497 9.28046 7.31756 9.25108 7.62117 9.23788C8.03151 9.22082 8.44266 9.15336 8.85831 9.18825Z" fill="#E7D5C6"/>
<path d="M9.1776 2.59591C9.98768 2.57109 10.9988 2.67074 12.0039 2.86073C12.5072 2.95612 13.0081 3.0546 13.5013 3.18876C13.5567 3.2035 13.6705 3.20117 13.6485 3.28453C13.6245 3.37565 13.5262 3.33222 13.4588 3.31516C12.721 3.13331 11.9733 2.99334 11.2207 2.88245C10.7745 2.8146 10.324 2.77432 9.87224 2.76186C9.49943 2.75294 9.12947 2.69478 8.75665 2.7165C8.00939 2.75953 7.26213 2.79172 6.51936 2.89835C5.8384 2.99018 5.16595 3.132 4.50804 3.32253C4.4818 3.33102 4.45416 3.33496 4.42646 3.33416C4.37588 3.33416 4.30409 3.35433 4.29348 3.28182C4.2841 3.22598 4.34243 3.20698 4.38607 3.19458C4.63081 3.1244 4.87555 3.04491 5.12477 2.99218C5.58528 2.89524 6.0462 2.78939 6.51161 2.73511C6.83181 2.69633 7.152 2.65097 7.47627 2.63119C7.97472 2.60134 8.46868 2.60366 9.1776 2.59591Z" fill="#E7D5C6"/>
<path d="M8.8876 4.3795C7.77201 4.40044 6.66458 4.48032 5.5702 4.71025C5.20717 4.78779 4.85394 4.88938 4.49662 4.97972C4.42688 4.99717 4.33347 5.04293 4.30247 4.95646C4.27432 4.87581 4.3816 4.83587 4.44278 4.82114C5.00363 4.68892 5.55878 4.53809 6.13309 4.45356C6.60625 4.38377 7.07859 4.30157 7.55542 4.27792C8.2366 4.24457 8.919 4.17478 9.60345 4.25892C9.87103 4.29188 10.1427 4.26978 10.4135 4.29769C10.9438 4.35547 11.4704 4.41401 11.9941 4.51327C12.5036 4.60788 13.0138 4.69551 13.5103 4.8444C13.5723 4.86302 13.6693 4.84789 13.6412 4.94328C13.6183 5.02083 13.536 5.00027 13.4666 4.98438C13.0338 4.88395 12.6031 4.77616 12.1675 4.68931C11.5934 4.57436 11.0118 4.49664 10.4266 4.45667C9.91427 4.42216 9.40236 4.3764 8.8876 4.3795Z" fill="#E7D5C6"/>
<path d="M8.88109 6.05455C7.76917 6.01577 6.70456 6.15807 5.64567 6.33217C5.2492 6.39731 4.86578 6.53108 4.47502 6.62801C4.41669 6.64236 4.32451 6.72805 4.2931 6.60708C4.26618 6.50394 4.38039 6.50588 4.44239 6.48649C5.22758 6.24415 6.03644 6.11348 6.85304 6.00608C7.79731 5.88239 8.74526 5.87115 9.69198 5.90527C10.2691 5.92621 10.8463 5.99871 11.4219 6.07122C11.8518 6.12589 12.2682 6.23136 12.6941 6.29688C12.9726 6.34542 13.2478 6.41016 13.518 6.49075C13.5763 6.50743 13.6726 6.52643 13.6432 6.61173C13.6139 6.69703 13.54 6.65709 13.4719 6.63848C12.907 6.48533 12.3298 6.38064 11.7547 6.27711C11.3107 6.19849 10.8628 6.14129 10.4127 6.10573C9.89388 6.06192 9.37219 6.01888 8.88109 6.05455Z" fill="#E7D5C6"/>
<path d="M14.6038 17.3296H14.6446L14.6422 17.4378C14.6144 17.4456 14.5849 17.4462 14.5568 17.4393C14.5287 17.4325 14.5031 17.4186 14.4827 17.399L14.4851 17.3265L14.6038 17.3296Z" fill="#E7D5C6"/>
<path d="M25.2299 9.9013C25.1997 9.96915 25.1353 9.97613 25.0773 9.95442C24.8624 9.87377 24.6368 9.8381 24.4129 9.79157C23.8524 9.67525 23.2912 9.57094 22.723 9.49301C21.8044 9.37011 20.8765 9.32211 19.9493 9.34955C19.281 9.36271 18.6145 9.42154 17.9551 9.52558C17.3164 9.63066 16.6825 9.75047 16.0633 9.93348C15.9972 9.95325 15.9181 9.99125 15.8899 9.90634C15.8589 9.81251 15.9626 9.816 16.0197 9.79622C16.6955 9.56086 17.404 9.4585 18.1089 9.34916C18.642 9.26657 19.1829 9.24369 19.7233 9.21888C20.0827 9.2022 20.4429 9.17274 20.7994 9.19561C21.5743 9.24524 22.3493 9.26657 23.1162 9.40112C23.5396 9.47556 23.9634 9.55621 24.3888 9.62406C24.658 9.66633 24.9158 9.77334 25.1789 9.8505C25.207 9.85865 25.2291 9.86795 25.2299 9.9013Z" fill="#F5F5F5"/>
<path d="M20.4415 10.8532C21.2864 10.8487 22.1305 10.9056 22.9663 11.0234C23.289 11.0676 23.6153 11.1219 23.9371 11.196C24.3091 11.2816 24.6872 11.3483 25.0596 11.4379C25.0928 11.4407 25.1254 11.4481 25.1563 11.46C25.2 11.4868 25.2575 11.5178 25.2244 11.5814C25.1967 11.6349 25.149 11.6136 25.1021 11.6031C24.5241 11.479 23.9481 11.3425 23.3652 11.2398C22.8228 11.1436 22.2725 11.0913 21.7218 11.0436C21.0435 10.985 20.366 11.0118 19.6889 11.0157C19.0118 11.0195 18.3306 11.106 17.66 11.2254C17.0935 11.3262 16.5261 11.4259 15.9812 11.6132C15.9658 11.62 15.9482 11.621 15.9321 11.6159C15.9159 11.6109 15.9024 11.6002 15.8943 11.586C15.8847 11.5724 15.8812 11.5558 15.8845 11.5397C15.8878 11.5237 15.8976 11.5095 15.9118 11.5003C15.9346 11.477 15.9624 11.4586 15.9934 11.4464C16.7276 11.2611 17.4618 11.0928 18.2213 11.0009C18.9583 10.9164 19.6993 10.867 20.4415 10.8532Z" fill="#F5F5F5"/>
<path d="M20.3372 12.5263C21.495 12.5027 22.652 12.6018 23.7868 12.8217C24.2114 12.9024 24.6266 13.0121 25.0484 13.0986C25.13 13.1153 25.2434 13.1304 25.2189 13.2188C25.196 13.3006 25.07 13.2711 25.0039 13.249C24.6393 13.1261 24.2587 13.0633 23.8843 12.9838C23.4764 12.8981 23.0628 12.8466 22.6496 12.7899C22.1279 12.7174 21.6037 12.6818 21.0796 12.6508C20.6953 12.6279 20.3074 12.612 19.9224 12.6663C19.8548 12.6749 19.7866 12.6788 19.7184 12.6779C19.0683 12.6779 18.4291 12.7686 17.7875 12.8586C17.1977 12.9416 16.6311 13.1063 16.0535 13.2327C15.9911 13.2463 15.9059 13.3002 15.8826 13.2114C15.8561 13.1118 15.9613 13.1246 16.0307 13.1029C16.4586 12.9648 16.8966 12.8568 17.3412 12.7799C17.9443 12.6729 18.5531 12.5977 19.1649 12.5546C19.6075 12.5267 20.0468 12.5391 20.3372 12.5263Z" fill="#F5F5F5"/>
<path d="M20.6039 2.71688C20.6007 2.67811 20.597 2.64127 20.5938 2.60366C21.332 2.58582 22.0622 2.65717 22.7964 2.74441C23.5632 2.83553 24.3101 2.99838 25.0557 3.17713C25.0893 3.18047 25.1222 3.18817 25.1536 3.2C25.1919 3.2221 25.2445 3.24808 25.2258 3.30236C25.2099 3.34889 25.1577 3.33377 25.1197 3.33493C24.9182 3.34075 24.7359 3.2539 24.5511 3.2031C23.9907 3.04801 23.4156 2.97356 22.8449 2.8871C22.3877 2.81769 21.9227 2.74906 21.4581 2.75798C21.1689 2.76341 20.8887 2.70796 20.6039 2.71688Z" fill="#F5F5F5"/>
<path d="M16.0065 8.29839C15.9523 8.29258 15.8923 8.30886 15.8801 8.24837C15.8679 8.18789 15.9156 8.16191 15.9731 8.14524C16.7584 7.91392 17.5637 7.74951 18.3797 7.65397C18.9605 7.58922 19.5487 7.52951 20.1385 7.56208C20.1879 7.56479 20.2609 7.54463 20.2609 7.62373C20.2609 7.68809 20.1928 7.67723 20.1503 7.6815C20.0051 7.6993 19.859 7.71017 19.7127 7.71407C19.0021 7.71407 18.3034 7.80829 17.6059 7.9312C17.0956 8.02116 16.589 8.11887 16.0967 8.28249C16.0672 8.29036 16.037 8.29568 16.0065 8.29839Z" fill="#F5F5F5"/>
<path d="M19.5316 1.32181C19.4643 1.93986 19.499 2.55947 19.5026 3.17869C19.4321 3.09339 19.4276 2.98482 19.4243 2.88905C19.4194 2.75179 19.3403 2.7452 19.2375 2.75489C18.1692 2.85725 17.1087 2.99839 16.0849 3.32409C16.0258 3.34309 15.9275 3.4187 15.8944 3.31517C15.8651 3.22522 15.9646 3.20428 16.0458 3.17714C16.8077 2.92433 17.6023 2.80801 18.3932 2.68859C18.6475 2.65566 18.9038 2.63856 19.1604 2.63741C19.4411 2.63043 19.4602 2.60794 19.4602 2.35009C19.4602 2.06627 19.4574 1.78205 19.4602 1.49707C19.4606 1.43541 19.4194 1.34895 19.5316 1.32181Z" fill="#F5F5F5"/>
<path d="M20.9359 4.38107C20.9314 4.34229 20.9265 4.30584 20.9216 4.26862C21.1554 4.26862 21.3903 4.2504 21.622 4.27095C22.078 4.30972 22.5357 4.34152 22.9876 4.421C23.4583 4.50359 23.9347 4.55943 24.3993 4.66412C24.6392 4.7184 24.8774 4.78974 25.1184 4.84674C25.1723 4.85915 25.2408 4.86535 25.2286 4.93165C25.2106 5.01618 25.1282 5.01541 25.0654 4.98788C24.8525 4.89715 24.6224 4.87931 24.4001 4.8289C23.7574 4.68267 23.1064 4.57108 22.4504 4.49467C21.9463 4.43535 21.4409 4.41519 20.9359 4.38107Z" fill="#F5F5F5"/>
<path d="M20.0717 5.88898C20.0864 5.91612 20.1015 5.94287 20.1166 5.96963C20.0265 6.03748 19.9212 6.04717 19.8111 6.0495C19.1846 6.06777 18.5601 6.12684 17.9421 6.22631C17.5465 6.29106 17.1504 6.35543 16.7592 6.4384C16.5047 6.4923 16.2547 6.56713 16.0046 6.63809C15.9638 6.6505 15.9267 6.666 15.8974 6.62839C15.8566 6.57799 15.8974 6.54503 15.9345 6.51479C15.949 6.50112 15.9668 6.49101 15.9863 6.48532C16.6018 6.35232 17.2026 6.16505 17.8328 6.08168C18.463 5.99832 19.1058 5.95838 19.7413 5.8913C19.8543 5.87928 19.9636 5.97699 20.0717 5.88898Z" fill="#F5F5F5"/>
<path d="M19.6947 4.26668C19.7065 4.31747 19.7187 4.36865 19.731 4.41944C19.0579 4.39075 18.3931 4.48226 17.7364 4.58889C17.2028 4.67535 16.6636 4.77074 16.1521 4.95646C16.1146 4.97003 16.0705 4.97042 16.0338 4.98283C15.9685 5.00493 15.9033 5.00803 15.8874 4.93359C15.8731 4.8669 15.9433 4.85837 15.9947 4.84208C16.5396 4.67148 17.1009 4.56679 17.6621 4.46016C18.2234 4.35353 18.7826 4.30506 19.3475 4.26939C19.4491 4.2628 19.4556 4.19184 19.4927 4.08366C19.5364 4.21162 19.5743 4.29731 19.6947 4.26668Z" fill="#F5F5F5"/>
<path d="M21.3423 7.71484C21.3423 7.66444 21.3423 7.61403 21.3455 7.56401C21.822 7.64156 22.3061 7.63419 22.7862 7.70088C23.3414 7.77843 23.8875 7.88079 24.4362 7.98975C24.6474 8.03201 24.8542 8.09327 25.0647 8.13941C25.1418 8.15609 25.243 8.18129 25.2205 8.25341C25.194 8.34026 25.0729 8.30924 25.0076 8.28753C24.6617 8.17121 24.302 8.10723 23.9471 8.0324C23.4205 7.92245 22.8873 7.84282 22.3506 7.79394C22.0149 7.76253 21.6784 7.74082 21.3423 7.71484Z" fill="#F5F5F5"/>
<path d="M21.259 6.04911L21.2529 5.93047C22.1956 5.93047 23.1166 6.08091 24.0376 6.25733C24.3933 6.32557 24.7396 6.4322 25.0981 6.4795C25.1703 6.4892 25.2438 6.5303 25.2274 6.60125C25.2054 6.70052 25.121 6.64274 25.061 6.62956C24.2093 6.43802 23.3613 6.23523 22.4844 6.15807C22.0773 6.12201 21.6694 6.07238 21.259 6.04911Z" fill="#F5F5F5"/>
</g>
<defs>
<clipPath id="clip0_170_788">
<rect width="29" height="18" fill="white"/>
</clipPath>
</defs>
</svg>
