<svg width="24" height="28" viewBox="0 0 24 28" fill="none" xmlns="http://www.w3.org/2000/svg">
<g clip-path="url(#clip0_160_124)">
<path d="M4.76689 8.80015C4.74112 8.59447 4.72639 8.38512 4.68588 8.17944C4.60119 7.75155 4.38208 7.57158 3.9494 7.56791C3.36943 7.56791 2.79497 7.65422 2.21868 7.69278L2.06586 7.70748C1.64422 7.7387 1.61292 7.72401 1.46747 7.34019C1.17472 6.54318 0.953776 5.72414 0.718103 4.9106C0.521095 4.22745 0.32961 3.54246 0.0792076 2.87584C-0.0588822 2.50855 -0.0275817 2.44244 0.32961 2.33409C1.62026 1.93632 2.88668 1.46418 4.12248 0.920041C4.96125 0.590884 5.83366 0.354416 6.72409 0.214859C6.80878 0.314026 6.70936 0.369118 6.66885 0.431556C6.27936 1.03898 5.8189 1.59811 5.29716 2.0972C5.24111 2.14052 5.20085 2.20097 5.18256 2.26931C5.16426 2.33764 5.16895 2.41008 5.19589 2.4755C5.28093 2.74128 5.34798 3.01246 5.39658 3.2872C5.43709 3.51491 5.51258 3.47084 5.63226 3.35331C5.96183 3.02275 6.30429 2.70322 6.61914 2.3598C6.78669 2.17616 6.86218 2.18718 7.00579 2.38918C7.66678 3.32392 8.50268 4.06584 9.60188 4.43313C10.5945 4.74481 11.6531 4.78289 12.6656 4.54332C13.4738 4.37041 14.2113 3.95971 14.783 3.36432C15.2691 2.87583 15.7036 2.34511 16.1455 1.81989C16.2596 1.684 16.3149 1.69685 16.4033 1.83825C16.5432 2.06046 16.696 2.27349 16.8525 2.48468C17.2291 2.98312 17.6355 3.45839 18.0695 3.90791C18.181 3.54155 18.3145 3.18219 18.4691 2.83177C18.5188 2.72893 18.4691 2.65731 18.4046 2.58018C18.2205 2.36899 18.0364 2.15963 17.8688 1.93559C17.5071 1.50821 17.2173 1.02506 17.0109 0.505018C18.2997 0.802519 19.537 1.28182 20.7743 1.74827C21.6949 2.09903 22.6155 2.48284 23.5361 2.85013C23.7153 2.90526 23.875 3.01041 23.9964 3.15314V3.39188C23.6042 4.21643 23.2157 5.04466 22.8198 5.86187C22.5621 6.39627 22.3025 6.92883 22.0281 7.45405C21.844 7.80848 21.7593 7.83419 21.3726 7.75339C20.8367 7.62633 20.2921 7.53917 19.7432 7.49262C19.4412 7.47426 19.1448 7.52751 18.968 7.82685L18.9404 7.8801L18.9202 7.9756C18.8447 7.99764 18.8152 8.02701 18.8981 8.08211L18.8797 8.3337C18.8797 8.3337 18.8613 8.34472 18.8631 8.34839C18.8666 8.3603 18.8709 8.37196 18.876 8.38328L18.8318 11.2353C18.7381 11.1135 18.6905 10.9626 18.6974 10.8092C18.7379 10.2069 18.366 9.76612 18.1321 9.27212C17.8854 8.74506 17.4619 8.35391 17.1066 7.90765C16.8123 7.53873 16.4634 7.21671 16.0718 6.95271C15.6835 6.67059 15.2699 6.4247 14.8364 6.21814C14.7112 6.16305 14.6523 6.00327 14.5031 5.99777C13.8845 5.97756 13.3137 5.72046 12.6988 5.6415C12.1712 5.57914 11.6369 5.60772 11.119 5.72598C10.3733 5.85964 9.65783 6.12653 9.00717 6.5138C8.18047 7.05004 7.43111 7.65239 6.90637 8.49164C6.77196 8.70833 6.53813 8.85892 6.45527 9.09031C6.35032 9.36578 6.29509 9.39882 6.00602 9.29782C5.7168 9.18149 5.44289 9.03041 5.19037 8.8479C5.13445 8.79535 5.06295 8.76229 4.98661 8.75368C4.91026 8.74508 4.83317 8.76138 4.76689 8.80015Z" fill="#71ACAB"/>
<path d="M4.76686 8.80016C4.8339 8.76233 4.91145 8.74724 4.98783 8.75717C5.0642 8.76711 5.13528 8.80153 5.19034 8.85525C5.44286 9.03776 5.71677 9.18885 6.00599 9.30518C6.29506 9.40618 6.35029 9.37312 6.45524 9.09766C6.5473 8.86076 6.77193 8.71568 6.90634 8.49898C7.43108 7.65974 8.18044 7.05738 9.00714 6.52115C9.65578 6.12979 10.37 5.85854 11.1153 5.72047C11.6331 5.60221 12.1675 5.57363 12.6951 5.63599C13.31 5.71496 13.8808 5.97206 14.4994 5.99226C14.6486 5.99226 14.7075 6.15754 14.8327 6.21263C15.2662 6.41919 15.6798 6.66509 16.0681 6.9472C16.4597 7.2112 16.8086 7.53322 17.1029 7.90214C17.4582 8.34656 17.8817 8.73955 18.1284 9.26661C18.3623 9.76061 18.7342 10.2013 18.6937 10.8037C18.6868 10.9571 18.7344 11.1079 18.8281 11.2297C18.8281 12.5152 18.8281 13.7879 18.8539 15.0679C18.876 16.8455 18.8815 18.625 18.9864 20.3935C18.887 20.4413 18.8539 20.5772 18.7305 20.5919C18.4072 20.6533 18.0938 20.7583 17.7989 20.904C17.5558 21.0216 17.2631 21.0399 17.0624 21.2713C17.0815 21.2899 17.1051 21.3034 17.1308 21.3104C17.1566 21.3175 17.1837 21.3179 17.2097 21.3117C17.5866 21.2481 17.9565 21.1484 18.3144 21.0142C18.5501 20.9353 18.7618 20.7682 19.0325 20.8067C19.0601 20.9187 19.0877 21.0326 19.1135 21.1465C19.1039 21.1966 19.0776 21.2421 19.0388 21.2755C19 21.3088 18.9511 21.3281 18.8999 21.3301C18.7397 21.3503 18.5832 21.3925 18.4249 21.4201C17.2566 21.6046 16.1684 22.1269 15.2948 22.9223C14.8506 23.3529 14.4475 23.8238 14.0907 24.329C14.0419 24.329 13.995 24.3096 13.9605 24.2752C13.926 24.2408 13.9066 24.194 13.9066 24.1453C13.8863 24.0058 13.785 23.9617 13.6488 23.9617C13.4315 23.9452 13.3321 24.0774 13.2382 24.2372C12.951 24.7403 12.5294 24.9185 11.9494 24.845C11.7413 24.8193 11.5811 24.6779 11.3731 24.6779C11.2773 24.6779 11.1669 24.6944 11.2755 24.5328C11.3326 24.4502 11.2479 24.4171 11.1669 24.441C11.0859 24.4649 11.0104 24.5053 10.9294 24.5292C10.6974 24.5989 10.5188 24.8101 10.2518 24.7863C10.1663 24.6809 10.1036 24.5589 10.0677 24.4281C10.2186 24.2702 10.3678 24.1086 10.5224 23.9525C10.624 23.8507 10.697 23.724 10.7342 23.5852C10.7415 23.5652 10.7417 23.5433 10.7347 23.5232C10.7276 23.5031 10.7138 23.4861 10.6955 23.475C10.6806 23.4662 10.663 23.4631 10.6459 23.4665C10.6289 23.4699 10.6138 23.4795 10.6035 23.4934C10.4341 23.7872 10.1119 23.8882 9.86698 24.0792C9.64604 23.8001 9.43246 23.5154 9.20231 23.2455C8.49143 22.3981 7.56285 21.7595 6.516 21.398C5.91679 21.2174 5.29923 21.1041 4.6748 21.0601L4.73556 20.6543C5.05664 20.6375 5.37589 20.712 5.65616 20.8692C5.7114 20.8949 5.77768 20.9353 5.81451 20.8692C5.85133 20.803 5.77768 20.748 5.71692 20.7259C5.58976 20.6789 5.46006 20.6391 5.32843 20.6065C5.07803 20.5478 4.80185 20.5294 4.75398 20.1933V18.5185C4.83131 18.4653 4.81105 18.3845 4.81105 18.311C4.81105 17.1026 4.81105 15.8949 4.81105 14.6877C4.81105 14.618 4.84051 14.5298 4.74293 14.4912C4.7153 14.3561 4.7153 14.2168 4.74293 14.0817C4.76831 14.0597 4.78866 14.0324 4.80261 14.0019C4.81655 13.9713 4.82377 13.9381 4.82377 13.9045C4.82377 13.8709 4.81655 13.8377 4.80261 13.8072C4.78866 13.7766 4.76831 13.7494 4.74293 13.7273C4.7153 13.5582 4.7153 13.3858 4.74293 13.2168C4.84051 13.1764 4.81105 13.09 4.81105 13.0203C4.81105 12.3898 4.81105 11.7593 4.81105 11.1287C4.81105 11.0571 4.83131 10.9763 4.75398 10.9231L4.76686 8.80016Z" fill="#A0D1CA"/>
<path d="M17.0072 0.495838C17.2137 1.01588 17.5035 1.49904 17.8652 1.92642C18.0328 2.15047 18.2187 2.35982 18.401 2.57101C18.4655 2.64814 18.5152 2.71976 18.4655 2.8226C18.3108 3.17303 18.1774 3.53238 18.0659 3.89874C17.6319 3.44922 17.2254 2.97395 16.8489 2.47551C16.6924 2.26432 16.5396 2.05129 16.3996 1.82909C16.3113 1.68768 16.256 1.67483 16.1419 1.81073C15.7 2.33594 15.2655 2.86667 14.7794 3.35516C14.2077 3.95054 13.4701 4.36123 12.662 4.53414C11.6495 4.77371 10.5908 4.73565 9.59826 4.42396C8.49354 4.05667 7.66316 3.3221 7.00217 2.38001C6.85856 2.17801 6.78307 2.16883 6.61552 2.35064C6.30067 2.69405 5.95821 3.01358 5.62864 3.34414C5.50896 3.46167 5.43347 3.50575 5.39296 3.27803C5.34436 3.00329 5.27731 2.73211 5.19227 2.46633C5.16533 2.40091 5.16064 2.32847 5.17894 2.26014C5.19723 2.1918 5.23749 2.13135 5.29354 2.08803C5.81528 1.58895 6.27574 1.02981 6.66523 0.422387C6.70574 0.359949 6.80516 0.304857 6.72047 0.20569C7.30229 0.0991774 7.88042 -0.0459003 8.48065 0.0220475C8.73592 0.0406957 8.9823 0.123453 9.19688 0.262619C9.742 0.638971 10.3672 0.88412 11.0233 0.978819C11.9331 1.12464 12.8644 1.05609 13.7428 0.778654C14.2399 0.609703 14.7205 0.387494 15.2507 0.317709C15.5115 0.293556 15.7745 0.307159 16.0314 0.358105C16.3598 0.378419 16.6861 0.424472 17.0072 0.495838ZM14.8199 1.57199C14.1396 1.8082 13.4339 1.96413 12.7172 2.0366C11.9896 2.10655 11.2562 2.08619 10.5336 1.976C9.61299 1.81806 8.8268 1.37365 8.06454 0.874141C7.98537 0.820885 7.88042 0.672137 7.79204 0.808032C7.70367 0.943928 7.47168 1.07247 7.62634 1.30937C7.97762 1.882 8.42912 2.38708 8.95936 2.80056C9.85234 3.46719 10.8595 3.61409 11.9531 3.51309C13.2807 3.39188 14.0816 2.53979 14.8199 1.57199Z" fill="#A0D1CA"/>
<path d="M4.69516 21.0656C5.31959 21.1096 5.93715 21.2229 6.53636 21.4036C7.58321 21.765 8.51179 22.4036 9.22267 23.251C9.45282 23.521 9.66639 23.8019 9.88734 24.0847L10.0917 24.4355C10.1276 24.5663 10.1903 24.6882 10.2758 24.7936C10.3127 24.9295 10.2758 25.0856 10.3918 25.1994C10.5344 25.7793 10.4646 26.3909 10.1948 26.9238C9.97307 27.2617 9.71364 27.5735 9.42152 27.8531C9.22083 27.8219 9.01829 27.7943 8.8176 27.7613C8.551 27.7256 8.29754 27.624 8.0802 27.466C7.86286 27.3079 7.68852 27.0982 7.57295 26.8559C6.89171 25.5263 5.98032 24.3528 5.0229 23.2124C4.91979 23.0894 4.83878 22.9517 4.7283 22.8286C4.39321 22.443 4.26248 22.0316 4.52393 21.5431C4.59457 21.3891 4.65186 21.2294 4.69516 21.0656ZM5.79988 22.3769C5.91956 22.5072 5.984 22.5789 6.05581 22.6542C6.65733 23.3008 7.20073 23.9988 7.67974 24.7403C8.03818 25.3565 8.35377 25.9964 8.62428 26.6557C8.73291 26.9036 8.77894 26.9055 8.9649 26.6998C9.16216 26.5025 9.28982 26.2467 9.32867 25.9708C9.36753 25.6949 9.31546 25.4139 9.18032 25.1701C8.81208 24.3749 8.20448 23.767 7.54718 23.2106C7.04162 22.7914 6.43912 22.5049 5.79436 22.3769H5.79988Z" fill="#A0D1CA"/>
<path d="M14.1091 24.3272C14.4659 23.822 14.869 23.3511 15.3133 22.9205C16.1868 22.1251 17.2751 21.6028 18.4433 21.4182C18.6016 21.3907 18.7582 21.3485 18.9183 21.3283C18.9695 21.3263 19.0185 21.307 19.0573 21.2736C19.0961 21.2403 19.1224 21.1948 19.1319 21.1446C19.2203 21.3815 19.3031 21.6221 19.3952 21.859C19.5646 22.2997 19.5628 22.2997 19.2277 22.6285C18.8231 23.0044 18.4384 23.401 18.0751 23.8166C17.2862 24.8077 16.6512 25.9115 16.1915 27.091C16.1283 27.266 16.0481 27.4346 15.9522 27.5942C15.7865 27.8421 15.5103 27.8953 15.2378 27.921C14.9653 27.9468 14.6449 27.9596 14.3466 27.978C14.3466 27.888 14.2767 27.8494 14.2325 27.7943C14.0515 27.5756 13.9022 27.3327 13.7888 27.0726C13.6276 26.5616 13.5891 26.02 13.6764 25.4915C13.7686 25.086 13.9141 24.6946 14.1091 24.3272ZM17.4969 22.8911C16.7979 23.1524 16.1757 23.5843 15.687 24.1472C15.3446 24.5696 14.9947 24.9828 14.8382 25.5208C14.7588 25.7715 14.7377 26.0369 14.7767 26.2969C14.8156 26.5569 14.9135 26.8046 15.0629 27.0212C15.5037 25.4603 16.3423 24.04 17.4969 22.8984V22.8911Z" fill="#A0D1CA"/>
<path d="M13.7814 27.0818C13.8948 27.3418 14.0442 27.5848 14.2252 27.8035C14.2693 27.8604 14.3467 27.899 14.3393 27.9871C12.929 28.0129 11.5174 27.9982 10.1046 27.9431C9.87729 27.9248 9.65114 27.8948 9.427 27.8531C9.71913 27.5735 9.97855 27.2617 10.2003 26.9239C10.2387 26.9236 10.2767 26.9323 10.3112 26.9492C10.3457 26.9661 10.3758 26.9907 10.3992 27.0212C10.4936 27.1494 10.6318 27.2389 10.7876 27.2728C11.1069 27.3834 11.4442 27.4333 11.7819 27.4197C12.1943 27.4197 12.6178 27.4399 13.0247 27.2691C13.2585 27.1718 13.5089 27.0322 13.7814 27.0818Z" fill="#71ACAB"/>
<path d="M19.0436 20.8141C18.7729 20.7755 18.5612 20.9426 18.3255 21.0216C17.9677 21.1558 17.5977 21.2554 17.2208 21.3191C17.1948 21.3253 17.1677 21.3248 17.1419 21.3178C17.1162 21.3107 17.0926 21.2973 17.0735 21.2787C17.2779 21.051 17.5706 21.0326 17.81 20.9114C18.1049 20.7657 18.4183 20.6607 18.7416 20.5992C18.865 20.5772 18.8981 20.4486 18.9975 20.4009C19.0417 20.5368 18.9441 20.6873 19.0436 20.8141Z" fill="#71ACAB"/>
<path d="M4.77421 14.4967C4.87179 14.5353 4.84234 14.6235 4.84234 14.6932C4.84234 15.9016 4.84234 17.1094 4.84234 18.3165C4.84234 18.39 4.86259 18.4708 4.78526 18.524C4.77605 17.7895 4.76132 17.0714 4.75948 16.346C4.75764 15.729 4.76869 15.1138 4.77421 14.4967Z" fill="#71ACAB"/>
<path d="M4.7816 20.1989C4.82947 20.5349 5.10565 20.5533 5.35605 20.6121C5.48768 20.6446 5.61738 20.6844 5.74454 20.7314C5.8053 20.7535 5.89 20.7865 5.84212 20.8747C5.79425 20.9628 5.73902 20.9004 5.68378 20.8747C5.40351 20.7175 5.08426 20.643 4.76318 20.6598L4.7816 20.1989Z" fill="#71ACAB"/>
<path d="M4.78525 10.9212C4.86258 10.9745 4.84233 11.0553 4.84233 11.1269C4.84233 11.7586 4.84233 12.3891 4.84233 13.0184C4.84233 13.0882 4.87179 13.1745 4.7742 13.2149C4.7429 12.4565 4.76684 11.6925 4.78525 10.9212Z" fill="#71ACAB"/>
<path d="M4.7742 13.7328C4.79959 13.7549 4.81994 13.7821 4.83388 13.8127C4.84783 13.8432 4.85504 13.8764 4.85504 13.91C4.85504 13.9436 4.84783 13.9768 4.83388 14.0074C4.81994 14.0379 4.79959 14.0652 4.7742 14.0872C4.74844 13.9705 4.74844 13.8496 4.7742 13.7328Z" fill="#71ACAB"/>
<path d="M18.9017 8.08029C18.8188 8.02519 18.8483 7.99581 18.9238 7.97377L18.9017 8.08029Z" fill="#A0D1CA"/>
<path d="M18.8796 8.38145C18.8745 8.37014 18.8702 8.35848 18.8667 8.34656C18.8667 8.34656 18.8759 8.33739 18.8833 8.33188L18.8796 8.38145Z" fill="#A0D1CA"/>
<path d="M14.1092 24.3271C13.9117 24.6942 13.7637 25.0857 13.6692 25.4914C13.5845 25.4676 13.5311 25.5833 13.4648 25.5612C13.056 25.4253 12.6234 25.5447 12.2165 25.4363C11.8814 25.3464 11.5334 25.4198 11.1909 25.3096C10.9479 25.2325 10.6772 25.126 10.3992 25.1921C10.2887 25.0782 10.32 24.9221 10.2832 24.7862C10.5502 24.8101 10.7288 24.6026 10.9608 24.5291C11.0418 24.5053 11.1173 24.4667 11.1983 24.441C11.2793 24.4153 11.364 24.4502 11.3069 24.5328C11.1983 24.6944 11.3069 24.6779 11.4045 24.6779C11.6107 24.6779 11.7727 24.8193 11.9808 24.845C12.5534 24.9185 12.975 24.7403 13.2696 24.2372C13.3635 24.0774 13.4629 23.9452 13.6802 23.9617C13.8165 23.9727 13.9177 24.0113 13.938 24.1453C13.9383 24.1916 13.9562 24.236 13.9879 24.2697C14.0196 24.3034 14.063 24.3239 14.1092 24.3271Z" fill="#71ACAB"/>
<path d="M10.0972 24.4355L9.89282 24.0847C10.1414 23.9011 10.4636 23.7927 10.6293 23.4989C10.6396 23.485 10.6548 23.4754 10.6718 23.472C10.6888 23.4686 10.7065 23.4717 10.7214 23.4806C10.7396 23.4916 10.7535 23.5086 10.7605 23.5287C10.7676 23.5488 10.7674 23.5707 10.76 23.5907C10.7229 23.7295 10.6499 23.8562 10.5483 23.958C10.3973 24.1159 10.2482 24.2776 10.0972 24.4355Z" fill="#71ACAB"/>
<path d="M14.8199 1.57199C14.0834 2.53978 13.2806 3.3827 11.9531 3.50574C10.8595 3.60674 9.85234 3.45983 8.95936 2.79321C8.42912 2.37972 7.97762 1.87465 7.62633 1.30203C7.47167 1.06513 7.69998 0.945764 7.79204 0.800686C7.8841 0.655609 7.97616 0.813539 8.06454 0.866795C8.82679 1.37365 9.61666 1.81806 10.5336 1.96865C11.2562 2.07885 11.9896 2.0992 12.7172 2.02926C13.4336 1.95916 14.1393 1.8057 14.8199 1.57199Z" fill="#71ACAB"/>
<path d="M10.3992 25.1995C10.6772 25.1297 10.9515 25.2399 11.1909 25.317C11.5333 25.4272 11.8813 25.3537 12.2164 25.4437C12.6233 25.5521 13.056 25.4327 13.4647 25.5686C13.531 25.5906 13.5844 25.4749 13.6691 25.4988C13.5818 26.0273 13.6203 26.569 13.7814 27.08C13.5016 27.0322 13.2585 27.1718 13.0265 27.2636C12.6196 27.4344 12.1962 27.4087 11.7837 27.4142C11.446 27.4278 11.1088 27.3779 10.7895 27.2673C10.6336 27.2334 10.4955 27.1439 10.401 27.0157C10.3777 26.9852 10.3475 26.9606 10.313 26.9437C10.2785 26.9268 10.2406 26.9181 10.2021 26.9184C10.4706 26.387 10.5404 25.7776 10.3992 25.1995Z" fill="#A0D1CA"/>
<path d="M5.79419 22.3769C6.437 22.5057 7.03751 22.7923 7.54148 23.2106C8.19879 23.7615 8.80087 24.3749 9.17463 25.1701C9.30977 25.4139 9.36184 25.6949 9.32298 25.9708C9.28413 26.2467 9.15646 26.5025 8.95921 26.6998C8.77509 26.9055 8.72722 26.9037 8.61859 26.6557C8.34808 25.9965 8.03249 25.3565 7.67405 24.7403C7.19504 23.9989 6.65164 23.3008 6.05012 22.6542C5.98383 22.5789 5.91387 22.5072 5.79419 22.3769Z" fill="#71ACAB"/>
<path d="M17.4968 22.8984C16.3411 24.042 15.5024 25.4651 15.0628 27.0285C14.9134 26.812 14.8155 26.5643 14.7766 26.3043C14.7376 26.0443 14.7587 25.7788 14.8381 25.5282C14.9946 24.9901 15.3445 24.5769 15.6869 24.1545C16.1756 23.5916 16.7978 23.1598 17.4968 22.8984Z" fill="#71ACAB"/>
</g>
<defs>
<clipPath id="clip0_160_124">
<rect width="24" height="28" fill="white"/>
</clipPath>
</defs>
</svg>
