<svg width="23" height="25" viewBox="0 0 23 25" fill="none" xmlns="http://www.w3.org/2000/svg">
<g clip-path="url(#clip0_175_1391)">
<path d="M0.378382 6.665C0.298437 6.69482 0.287694 6.74949 0.293024 6.81908C0.156927 6.96254 0.0613561 7.13536 0.0148307 7.32192C-0.0316947 7.50849 -0.0277088 7.70292 0.0265414 7.88766C0.307546 9.38834 0.796636 10.8486 1.48153 12.2316C1.85562 12.9016 2.13169 13.6154 2.30231 14.3539C2.21237 14.4164 2.14146 14.4997 2.0966 14.5956C2.05173 14.6914 2.03447 14.7966 2.0465 14.9006C2.13482 15.6041 2.47247 16.2601 3.00586 16.7644C3.03572 16.7895 3.07189 16.8072 3.111 16.8159C3.15012 16.8246 3.19088 16.824 3.22967 16.8141C3.51733 17.7172 3.72069 18.6418 3.83732 19.5775C3.88759 20.8971 4.14986 22.2023 4.61543 23.4493C5.05246 24.5328 5.62269 24.9751 6.69928 24.9652C7.7801 25.0298 8.8644 24.9068 9.89707 24.6024L10.073 24.5626C10.606 24.4682 11.1389 24.2893 11.6719 24.1451C12.2154 23.9644 12.7731 23.8232 13.34 23.7227C13.7646 23.8121 14.2053 23.8121 14.6299 23.7227C15.4319 23.652 16.2001 23.3864 16.8576 22.9523C17.1241 22.9523 17.3906 22.8777 17.6464 22.8728C18.5978 22.8831 19.5478 22.8031 20.4818 22.6342C20.9721 22.5348 21.5104 22.5447 21.8941 22.1372C22.4271 21.8588 22.459 21.337 22.5337 20.8549C22.6662 19.7689 22.6303 18.6708 22.4271 17.5944C22.3401 16.696 22.1616 15.8073 21.8941 14.9403C21.7502 14.4433 21.6063 13.9463 21.4677 13.4493C21.5505 13.4127 21.6205 13.355 21.6695 13.2829C21.7186 13.2107 21.7447 13.1271 21.7449 13.0417C21.7662 12.6858 21.7662 12.3291 21.7449 11.9732C21.7022 11.5507 21.6969 11.0835 21.0787 10.9791V10.7555C21.0932 10.7483 21.1054 10.7375 21.1138 10.7244C21.1223 10.7112 21.1267 10.6962 21.1267 10.6809C21.1267 10.6656 21.1223 10.6506 21.1138 10.6374C21.1054 10.6243 21.0932 10.6136 21.0787 10.6064C21.02 9.94035 20.9615 9.27434 20.9082 8.61828C20.7963 7.37574 20.7003 6.13319 20.567 4.88568C20.5763 4.64921 20.525 4.4141 20.4175 4.19977C20.31 3.98544 20.1494 3.79804 19.9489 3.65307C19.8476 3.54082 19.7086 3.46376 19.5545 3.43438C19.1008 3.37705 18.6403 3.38711 18.19 3.4642C17.9502 3.4145 18.0195 3.23558 18.0301 3.10138C18.0414 2.94614 18.019 2.79037 17.964 2.64345C17.9091 2.49654 17.8228 2.36151 17.7104 2.24651C17.4973 2.00899 17.2518 1.79846 16.9802 1.62027C16.4206 1.2823 15.7863 1.07355 15.2321 0.755457C14.3434 0.308609 13.3529 0.0666122 12.3434 0.04969C11.2984 -0.062021 10.2402 0.00365215 9.22019 0.243529C8.10447 0.483068 7.02874 0.862603 6.0224 1.37176C5.56437 1.6866 5.13156 2.03211 4.72733 2.40556C4.15448 2.81338 3.61961 3.26561 3.12844 3.75745C2.55816 4.33896 2.01984 4.95029 2.43022 5.83001C2.10511 5.88468 1.77476 5.92444 1.45498 5.999C1.08447 6.04343 0.747556 6.22195 0.516958 6.49601L0.378382 6.665Z" fill="#FEFEFE"/>
<path d="M21.0522 10.9891C21.6705 11.0835 21.6758 11.5507 21.7184 11.9831C21.7398 12.339 21.7398 12.6958 21.7184 13.0517C21.7182 13.1371 21.692 13.2207 21.643 13.2928C21.5939 13.365 21.524 13.4227 21.4413 13.4593C21.0735 13.504 20.7057 13.5686 20.338 13.5835C18.6165 13.668 16.9163 13.8867 15.2161 14.1203C15.0243 14.1451 14.9444 14.1998 14.9178 14.3887C14.8165 15.0994 14.7045 15.8052 14.5819 16.5159C14.4249 17.0373 14.4548 17.5923 14.6672 18.0964C15.0509 18.827 15.36 19.5875 15.7331 20.333C15.9889 21.1481 16.4047 21.9135 16.6232 22.7485C16.6334 22.8034 16.6641 22.853 16.71 22.8885C16.756 22.9241 16.8141 22.9432 16.8737 22.9424C16.2215 23.388 15.4551 23.6657 14.6513 23.7475C14.2267 23.837 13.786 23.837 13.3614 23.7475C13.0029 23.0178 12.6897 22.2693 12.4234 21.506C11.7838 19.3241 10.6381 17.3559 9.59346 15.338C9.52418 15.1988 9.43884 15.0944 9.26296 15.2286H8.87391L8.37828 15.3628C6.98406 15.6568 5.60863 16.0235 4.25847 16.4612C3.94265 16.619 3.60296 16.7313 3.2511 16.7942C3.21231 16.8041 3.17154 16.8047 3.13243 16.7961C3.09331 16.7874 3.05715 16.7697 3.02729 16.7445C2.4939 16.2402 2.15625 15.5843 2.06793 14.8807C2.0559 14.7767 2.07316 14.6716 2.11803 14.5757C2.16289 14.4798 2.23379 14.3965 2.32374 14.334C2.53693 14.3787 2.68616 14.2098 2.85671 14.1799C4.49824 13.6829 6.11845 13.1511 7.78664 12.7485C8.02647 12.6938 8.06379 12.6143 7.93588 12.4006C7.20611 11.2589 6.36013 10.1853 5.40963 9.19484C4.45562 8.02685 3.3684 6.95826 2.37176 5.82009C1.96137 4.94037 2.49957 4.32904 3.06984 3.74752C3.56102 3.25569 4.09588 2.80346 4.66874 2.39564C5.07297 2.02219 5.50591 1.67668 5.96394 1.36184C6.97027 0.852683 8.04601 0.473148 9.16173 0.233609C10.1817 -0.00626752 11.2398 -0.0719388 12.2848 0.0397722C13.2943 0.0566944 14.2849 0.29869 15.1736 0.745537C15.7066 1.06363 16.3621 1.27238 16.9217 1.61035C17.1933 1.78853 17.4387 1.99907 17.6518 2.23659C17.7642 2.35159 17.8505 2.48662 17.9054 2.63353C17.9604 2.78045 17.983 2.93622 17.9717 3.09146C17.9717 3.22566 17.8916 3.40458 18.1314 3.45428C18.0622 3.48316 18.0014 3.52712 17.9541 3.58247C17.9068 3.63782 17.8743 3.70294 17.8596 3.77238C17.7545 4.15594 17.6282 4.53418 17.4812 4.90558C17.0846 5.73086 16.8 6.59906 16.6339 7.49007C16.4972 7.70923 16.4411 7.96405 16.474 8.21572C16.3812 8.3812 16.3233 8.56172 16.3034 8.74752C16.187 8.97996 16.1115 9.22832 16.0796 9.48311C15.9653 9.80771 15.878 10.14 15.8185 10.4771C15.7042 10.6858 15.6284 10.911 15.5945 11.1432C15.5306 11.4115 15.5946 11.5408 15.9144 11.4265C16.2341 11.3121 16.1916 11.3519 16.506 11.5457C16.5226 11.5532 16.5408 11.5571 16.5592 11.5571C16.5777 11.5571 16.596 11.5532 16.6126 11.5457C16.7352 11.4861 16.9003 11.4762 16.9376 11.3121C17.1758 11.3132 17.4129 11.2814 17.6412 11.2177H17.8916C18.9397 11.0866 19.995 11.0103 21.0522 10.9891ZM14.7098 1.67993C14.7098 1.23261 14.5447 1.10836 13.9691 0.984105C12.8189 0.728527 11.6272 0.677938 10.4568 0.835C8.89331 1.00137 7.38646 1.47937 6.03849 2.23659C5.27635 2.69882 5.12185 3.16601 5.69745 3.83699C6.6035 4.90061 7.51477 5.96919 8.39949 7.05269C9.40878 8.1867 10.3483 9.37316 11.2136 10.6064C11.4534 10.9791 11.6719 11.3618 11.8904 11.7445C11.9224 11.8042 11.9544 11.8936 12.0557 11.8688C12.157 11.8439 12.1303 11.7793 12.1356 11.7147C12.2209 11.1779 12.3169 10.6412 12.3915 10.0994C12.5141 9.20478 12.5993 8.30518 12.8071 7.42049C13.1999 5.94151 13.693 4.4873 14.2835 3.06661C14.4731 2.61826 14.6159 2.15388 14.7098 1.67993Z" fill="#A0D1CA"/>
<path d="M8.85792 15.2386H9.24698C9.11907 15.7356 8.54877 15.8399 8.29295 16.2674C8.4635 16.2674 8.59679 16.2028 8.74069 16.2922C9.17485 16.5599 9.55537 16.8963 9.86517 17.2863C10.4333 17.9437 10.862 18.696 11.1284 19.503C11.187 19.7316 11.4588 19.8409 11.4375 20.0795C11.442 20.3271 11.5174 20.5691 11.656 20.7803C11.9063 21.2277 12.0858 21.7065 12.189 22.2018C12.1911 22.4629 12.2587 22.7199 12.3862 22.9523C12.4608 23.0517 12.4128 23.2555 12.61 23.2505C12.8072 23.2455 12.7432 23.0467 12.8232 22.9075C12.8635 23.0108 12.9135 23.1106 12.9724 23.2058C13.1749 23.4741 13.1164 23.6232 12.7646 23.7276C12.2225 23.8506 11.6886 24.0033 11.1657 24.1849C10.8246 24.334 10.4089 24.3042 10.1265 24.5775L9.95053 24.6173C9.88372 24.5774 9.80717 24.5537 9.72803 24.5485C9.64888 24.5433 9.56962 24.5567 9.49746 24.5875L8.65546 24.7763C8.02701 24.8576 7.3918 24.8842 6.75807 24.8559C6.55354 24.9056 6.337 24.8895 6.14352 24.8101C5.95005 24.7307 5.79098 24.5927 5.69214 24.4185C5.32624 23.6329 5.07347 22.8057 4.94058 21.9582C4.77536 21.2475 4.73282 20.5219 4.64222 19.8012C4.47836 19.242 4.38887 18.6661 4.37573 18.0865C4.38473 17.7638 4.48889 17.4497 4.67696 17.1788C4.86502 16.9078 5.1297 16.6905 5.44166 16.5507C5.71348 16.4215 6.00651 16.4712 6.27299 16.3469C6.80925 16.1755 7.36588 16.0654 7.93057 16.0189C8.13808 15.9621 8.32927 15.8625 8.48982 15.7274C8.65037 15.5923 8.77615 15.4252 8.85792 15.2386Z" fill="#71ACAB"/>
<path d="M16.8577 22.9523C16.7981 22.9531 16.7401 22.934 16.6942 22.8985C16.6482 22.8629 16.6174 22.8133 16.6072 22.7584C16.3887 21.9234 15.9731 21.158 15.7172 20.338C15.7972 20.2982 15.893 20.2435 15.877 20.1491C15.8385 19.596 15.7475 19.0471 15.6052 18.5089C15.4258 17.7893 15.474 17.0366 15.7438 16.3419C15.9899 15.7068 16.4452 15.1606 17.0443 14.7813C17.5162 14.3893 18.1321 14.1823 18.7637 14.2036C19.3953 14.2249 19.9936 14.4728 20.4339 14.8956C20.6258 15.0845 20.7857 15.338 21.0894 15.3926C21.0894 15.5517 21.0043 15.6859 21.0469 15.8598C21.2814 16.7843 21.2174 17.7485 21.4146 18.6779C21.4881 19.1887 21.5273 19.7033 21.5318 20.2187C21.6171 20.8652 21.7381 21.5072 21.8942 22.1421C21.5105 22.5298 20.9722 22.5199 20.4819 22.6391C19.5479 22.8081 18.5979 22.888 17.6465 22.8777C17.3854 22.8578 17.1242 22.9075 16.8577 22.9523Z" fill="#71ACAB"/>
<path d="M2.37716 5.83002C3.37381 6.96819 4.46103 8.03678 5.41504 9.20477C5.02065 9.45825 5.19649 9.70179 5.38303 10C5.79046 10.5001 6.02807 11.1025 6.06524 11.7296C6.0091 12.0836 5.82935 12.4103 5.55375 12.6593C5.27815 12.9082 4.92205 13.0653 4.5409 13.1064C3.92779 13.1666 3.30823 13.1313 2.70753 13.002C2.59561 12.5497 2.51573 12.0924 2.37716 11.6551C2.30944 11.3967 2.17182 11.1588 1.97744 10.9642C1.86552 10.8698 1.73221 11.2227 1.50836 11.2127C1.50836 11.0388 1.66825 10.9642 1.77485 10.8549C1.82674 10.8184 1.86354 10.7663 1.87907 10.7075C1.8946 10.6486 1.88801 10.5866 1.8602 10.5318C1.56174 9.88071 1.19393 9.25944 0.858161 8.62326C0.513054 8.07258 0.329256 7.44696 0.325195 6.80914C0.39981 6.77932 0.410423 6.71968 0.410423 6.65507C0.485038 6.62525 0.490451 6.56063 0.495781 6.49602C0.726379 6.22195 1.0633 6.04344 1.4338 5.999C1.72161 5.92445 2.06804 5.88469 2.37716 5.83002Z" fill="#71ACAB"/>
<path d="M16.6392 7.50001C16.8053 6.609 17.0899 5.7408 17.4865 4.91552C17.6335 4.54412 17.7598 4.16588 17.8649 3.78232C17.8796 3.71289 17.912 3.64776 17.9593 3.59241C18.0066 3.53706 18.0674 3.4931 18.1367 3.46423C18.5869 3.38714 19.0475 3.37707 19.5011 3.4344C19.6552 3.46378 19.7942 3.54084 19.8955 3.65309C19.8582 4.15011 19.741 4.68689 19.693 5.21373C19.6451 6.00336 19.6451 6.79488 19.693 7.5845C19.725 8.42943 19.805 9.27934 19.8209 10.1292C19.8098 10.2274 19.7746 10.3218 19.7183 10.4053C19.6619 10.4888 19.5858 10.5592 19.4958 10.611C19.4057 10.6628 19.3042 10.6947 19.1989 10.7043C19.0935 10.7138 18.9873 10.7007 18.8883 10.666C18.7017 10.6014 18.4992 10.4424 18.3126 10.666C18.1462 10.8221 18.0124 11.0059 17.9182 11.2078H17.6677C17.6824 10.9229 17.7643 10.6446 17.9076 10.3927C18.1197 9.91804 18.1346 9.38675 17.9493 8.90245C17.7641 8.41815 17.392 8.01561 16.9056 7.77337C16.7852 7.71418 16.6909 7.61743 16.6392 7.50001Z" fill="#71ACAB"/>
<path d="M21.0895 15.3877C20.7857 15.3181 20.6258 15.0646 20.434 14.8907C19.9937 14.4678 19.3953 14.2199 18.7638 14.1986C18.1322 14.1773 17.5163 14.3843 17.0444 14.7763C16.4452 15.1556 15.9899 15.7019 15.7438 16.337C15.4792 17.024 15.4311 17.7674 15.6053 18.4791C15.7476 19.0173 15.8385 19.5662 15.8771 20.1193C15.8771 20.2137 15.7972 20.2684 15.7173 20.3081C15.3709 19.5626 15.0617 18.8171 14.6514 18.0765C14.439 17.5724 14.409 17.0175 14.566 16.496C14.6886 15.7853 14.8006 15.0795 14.9018 14.3688C14.9018 14.1799 15.0083 14.1252 15.2002 14.1004C16.9004 13.8668 18.6006 13.6481 20.3221 13.5636C20.6898 13.5636 21.0576 13.4841 21.4253 13.4394C21.5639 13.9364 21.7078 14.4334 21.8517 14.9304C21.5693 15 21.4359 15.3678 21.0895 15.3877Z" fill="#71ACAB"/>
<path d="M8.85778 15.2386C8.77492 15.4263 8.64747 15.5941 8.48499 15.7293C8.32251 15.8644 8.12923 15.9635 7.91976 16.0189C7.35507 16.0654 6.79857 16.1755 6.26231 16.3469C5.99583 16.4712 5.72931 16.4215 5.43085 16.5507C5.11888 16.6905 4.85434 16.9078 4.66628 17.1788C4.47821 17.4497 4.37392 17.7638 4.36492 18.0865C4.37805 18.6661 4.46755 19.242 4.6314 19.8012C4.72201 20.5219 4.76468 21.2475 4.9299 21.9582C5.05024 22.8127 5.29213 23.6485 5.64932 24.4433C5.74816 24.6176 5.90723 24.7556 6.1007 24.835C6.29418 24.9143 6.51072 24.9305 6.71525 24.8807V25.005C5.64932 25.005 5.06844 24.5726 4.6314 23.5139C4.16503 22.2587 3.90452 20.945 3.85863 19.6173C3.742 18.6815 3.53864 17.7569 3.25098 16.8539C3.60284 16.7909 3.94253 16.6786 4.25835 16.5209C5.60851 16.0831 6.98394 15.7164 8.37817 15.4225L8.85778 15.2386Z" fill="#71ACAB"/>
<path d="M17.897 11.2028C17.9911 11.0009 18.1249 10.8172 18.2914 10.661C18.4779 10.4423 18.6805 10.6014 18.867 10.661C18.9661 10.6957 19.0723 10.7088 19.1776 10.6993C19.2829 10.6898 19.3845 10.6579 19.4745 10.606C19.5646 10.5542 19.6407 10.4838 19.697 10.4003C19.7534 10.3168 19.7885 10.2224 19.7997 10.1242C19.7997 9.27434 19.7038 8.42444 19.6718 7.57951C19.6238 6.78989 19.6238 5.99836 19.6718 5.20874C19.7198 4.6819 19.8369 4.16997 19.8743 3.6481C20.0748 3.79307 20.2354 3.98047 20.3429 4.1948C20.4504 4.40913 20.5018 4.64424 20.4926 4.88071C20.6258 6.12325 20.7217 7.3658 20.8336 8.61331C20.8869 9.27931 20.9456 9.94532 21.0042 10.6014V10.7505V10.9741C19.9648 10.9972 18.9274 11.0735 17.897 11.2028Z" fill="#71ACAB"/>
<path d="M21.0893 15.3877C21.4357 15.3877 21.569 15.0199 21.8781 14.9404C22.1456 15.8073 22.324 16.696 22.411 17.5944C22.6143 18.6708 22.6503 19.7689 22.5177 20.8549C22.4431 21.3519 22.4324 21.8489 21.8781 22.1372C21.7219 21.5023 21.601 20.8603 21.5157 20.2137C21.5111 19.6984 21.472 19.1838 21.3985 18.673C21.2013 17.7436 21.2653 16.7793 21.0307 15.8549C21.0041 15.6809 21.1159 15.5467 21.0893 15.3877Z" fill="#71ACAB"/>
<path d="M10.0623 24.5775C10.3448 24.3042 10.7605 24.334 11.1016 24.1849C11.6244 24.0033 12.1583 23.8506 12.7005 23.7276C13.0522 23.6233 13.1109 23.4741 12.9084 23.2306C12.8495 23.1354 12.7995 23.0357 12.7591 22.9324C12.6792 23.0716 12.7271 23.2704 12.5459 23.2753C12.3647 23.2803 12.3967 23.0765 12.3221 22.9771C12.1945 22.7447 12.1271 22.4877 12.1249 22.2266C12.0218 21.7313 11.8423 21.2525 11.592 20.8052C11.4534 20.594 11.3778 20.352 11.3734 20.1044C11.3734 19.8658 11.1228 19.7565 11.0642 19.5278C10.806 18.7227 10.3865 17.9705 9.82784 17.3111C9.51803 16.9211 9.13738 16.5847 8.70322 16.3171C8.55932 16.2276 8.42616 16.3171 8.25562 16.2922C8.51144 15.8648 9.0816 15.7356 9.20951 15.2634C9.38539 15.1292 9.47073 15.2336 9.54002 15.3728C10.6059 17.3906 11.7305 19.3489 12.3701 21.5407C12.6364 22.3041 12.9496 23.0525 13.3081 23.7823C12.7412 23.8828 12.1834 24.0241 11.6399 24.2048C11.1282 24.3042 10.5953 24.4831 10.0623 24.5775Z" fill="#71ACAB"/>
<path d="M1.53482 11.2127C1.75867 11.2127 1.89185 10.8698 2.00377 10.9642C2.19815 11.1588 2.33577 11.3967 2.40349 11.6551C2.54206 12.0924 2.62207 12.5497 2.73399 13.002C2.6781 13.4038 2.73126 13.8122 2.88857 14.1899C2.69671 14.2197 2.54748 14.3887 2.35561 14.3439C2.18498 13.6055 1.90891 12.8917 1.53482 12.2217C0.849931 10.8386 0.360841 9.37841 0.0798367 7.87773C0.0255866 7.69299 0.0214706 7.49855 0.067996 7.31199C0.114521 7.12542 0.210222 6.9526 0.346319 6.80914C0.35038 7.44696 0.534178 8.07258 0.879285 8.62326C1.21505 9.25944 1.58274 9.88071 1.8812 10.5318C1.90901 10.5866 1.91573 10.6486 1.90019 10.7075C1.88466 10.7663 1.84787 10.8184 1.79597 10.8549C1.68938 10.9642 1.54015 11.0388 1.52949 11.2127C1.42289 11.2127 1.3749 11.2674 1.36957 11.3618L1.40158 11.332C1.43492 11.329 1.46615 11.3155 1.49032 11.2939C1.51449 11.2723 1.5302 11.2437 1.53482 11.2127Z" fill="#71ACAB"/>
<path d="M6.69946 24.9801V24.8559C7.33319 24.8842 7.9684 24.8576 8.59685 24.7764L9.43898 24.5875C9.51114 24.5567 9.5904 24.5433 9.66955 24.5486C9.74869 24.5538 9.82511 24.5774 9.89192 24.6173C8.86094 24.9211 7.77851 25.0441 6.69946 24.9801Z" fill="#71ACAB"/>
<path d="M0.38387 6.66003C0.38387 6.72465 0.383787 6.78429 0.298512 6.81411C0.293183 6.74453 0.303925 6.68986 0.38387 6.66003Z" fill="#71ACAB"/>
<path d="M0.469017 6.50595C0.469017 6.57056 0.469064 6.63518 0.383789 6.665L0.469017 6.50595Z" fill="#71ACAB"/>
<path d="M21.0415 10.7654V10.6163C21.056 10.6235 21.0681 10.6343 21.0765 10.6474C21.085 10.6605 21.0894 10.6755 21.0894 10.6909C21.0894 10.7062 21.085 10.7212 21.0765 10.7343C21.0681 10.7475 21.056 10.7582 21.0415 10.7654Z" fill="#A0D1CA"/>
<path d="M14.7098 1.67993C14.6158 2.15388 14.473 2.61827 14.2834 3.06661C13.6929 4.4873 13.1998 5.94152 12.807 7.42049C12.5992 8.30518 12.514 9.20478 12.3914 10.0994C12.3168 10.6412 12.2208 11.1779 12.1355 11.7147C12.1355 11.7793 12.1356 11.8539 12.0556 11.8688C11.9757 11.8837 11.9223 11.8042 11.8904 11.7445C11.6718 11.3618 11.4533 10.9791 11.2135 10.6064C10.3482 9.37317 9.4087 8.1867 8.39941 7.0527C7.51469 5.9692 6.60341 4.90061 5.69737 3.83699C5.12177 3.16602 5.27627 2.69882 6.03841 2.23659C7.38637 1.47938 8.89322 1.00137 10.4567 0.835001C11.6271 0.677939 12.8188 0.728528 13.969 0.984106C14.5446 1.10836 14.7151 1.23262 14.7098 1.67993Z" fill="#71ACAB"/>
<path d="M2.86194 14.1899C2.70463 13.8122 2.65146 13.4038 2.70736 13.002C3.30806 13.1314 3.92762 13.1666 4.54073 13.1064C4.92188 13.0654 5.27797 12.9082 5.55357 12.6593C5.82917 12.4103 6.00893 12.0836 6.06507 11.7296C6.0279 11.1025 5.79029 10.5001 5.38286 10C5.19632 9.70676 5.02047 9.45825 5.41487 9.20477C6.36536 10.1952 7.21135 11.2688 7.94112 12.4105C8.06903 12.6243 8.03171 12.7038 7.79187 12.7585C6.12369 13.161 4.50347 13.7028 2.86194 14.1899Z" fill="#71ACAB"/>
<path d="M16.9429 11.2972C16.9056 11.4612 16.7404 11.4712 16.6179 11.5308C16.6012 11.5383 16.583 11.5422 16.5645 11.5422C16.5461 11.5422 16.5279 11.5383 16.5113 11.5308C16.1968 11.337 16.1915 11.3171 15.9196 11.4115C15.6478 11.506 15.5359 11.4115 15.5998 11.1282C15.8705 11.1144 16.1308 11.0258 16.3472 10.8735C16.5636 10.7212 16.7264 10.5123 16.815 10.2734C16.9269 9.70179 16.9216 9.13022 16.282 8.75248C16.3019 8.56668 16.3598 8.38615 16.4526 8.22067C16.5166 8.22067 16.6019 8.22067 16.6445 8.22067C16.9551 8.42027 17.201 8.69527 17.356 9.0159C17.511 9.33653 17.5691 9.69059 17.5239 10.0398C17.4358 10.4268 17.2304 10.7821 16.9322 11.0636C16.9162 11.1332 16.6764 11.2127 16.9429 11.2972Z" fill="#71ACAB"/>
<path d="M16.9429 11.2972C16.6764 11.2127 16.9429 11.1332 16.9429 11.0885C17.2411 10.807 17.4465 10.4516 17.5346 10.0646C17.5798 9.71543 17.5217 9.36137 17.3667 9.04074C17.2117 8.72011 16.9657 8.44511 16.6552 8.24551C16.6126 8.21569 16.5272 8.24551 16.4633 8.24551C16.4303 7.99384 16.4865 7.73903 16.6232 7.51987C16.6706 7.63232 16.7568 7.72679 16.8683 7.78826C17.3547 8.03049 17.7268 8.43304 17.912 8.91734C18.0973 9.40163 18.0824 9.93293 17.8703 10.4075C17.727 10.6595 17.6451 10.9378 17.6305 11.2226C17.4063 11.2782 17.1747 11.3033 16.9429 11.2972Z" fill="#71ACAB"/>
<path d="M16.3087 8.75745C16.9216 9.13518 16.9269 9.70675 16.8416 10.2783C16.7531 10.5173 16.5902 10.7262 16.3737 10.8785C16.1573 11.0307 15.8972 11.1194 15.6265 11.1332C15.6604 10.901 15.7361 10.6759 15.8504 10.4672C16.3834 10.2386 16.4686 9.82106 16.1115 9.47315C16.1372 9.22651 16.2036 8.98507 16.3087 8.75745Z" fill="#71ACAB"/>
<path d="M16.0849 9.49304C16.442 9.82107 16.33 10.2386 15.8237 10.4871C15.8833 10.15 15.9706 9.81764 16.0849 9.49304Z" fill="#71ACAB"/>
<path d="M1.34298 11.3618C1.34298 11.2674 1.3963 11.2127 1.5029 11.2127C1.5046 11.2332 1.50144 11.2537 1.49366 11.2728C1.48588 11.292 1.47366 11.3093 1.45788 11.3235C1.4421 11.3378 1.42323 11.3486 1.40245 11.3552C1.38167 11.3618 1.35947 11.3641 1.33765 11.3618H1.34298Z" fill="#71ACAB"/>
</g>
<defs>
<clipPath id="clip0_175_1391">
<rect width="22.619" height="25" fill="white"/>
</clipPath>
</defs>
</svg>
