<svg width="29" height="16" viewBox="0 0 29 16" fill="none" xmlns="http://www.w3.org/2000/svg">
<g clip-path="url(#clip0_163_209)">
<path d="M18.5982 15.9721C19.1552 15.9987 19.7121 16.0102 20.2703 15.9886C21.2854 15.959 22.2969 15.861 23.2974 15.6955C24.4473 15.4963 25.5624 15.1982 26.587 14.6425C27.1914 14.3286 27.7219 13.9003 28.1459 13.3839C28.7654 12.6061 28.9813 11.7142 28.9999 10.7589C29.0079 10.3085 28.94 9.86441 28.9186 9.41655C28.9054 9.06133 28.8608 8.7078 28.7854 8.3597C28.6375 7.70343 28.3991 7.06864 28.0766 6.47182C28.022 6.37286 27.966 6.28786 27.8261 6.3754C27.3171 6.69258 26.7309 6.83087 26.1633 7.00977C25.668 7.14815 25.1552 7.22156 24.6391 7.22798C23.7638 7.26224 22.8897 7.31933 22.021 7.16455C21.8878 7.14171 21.8985 7.19881 21.8878 7.28254C21.8159 8.02602 21.4401 8.57031 20.698 8.84816C20.196 9.02268 19.6571 9.07926 19.1272 9.01309C17.9508 8.89013 16.8064 8.57014 15.747 8.06789C14.9341 7.68411 14.1481 7.25056 13.3941 6.76997C13.2608 6.69004 13.2115 6.70908 13.1169 6.81946C12.9102 7.0818 12.6461 7.29824 12.3428 7.45382C12.1736 7.53375 12.0044 7.61495 11.8339 7.69361C11.38 7.9315 10.8576 8.02361 10.3443 7.95624C9.58313 7.8495 8.8556 7.58581 8.21254 7.18358C8.15636 7.14256 8.08976 7.11648 8.01953 7.10801C7.9493 7.09954 7.87797 7.10898 7.81283 7.13537C7.00143 7.41576 6.14739 7.50076 5.29868 7.60353C5.24005 7.60988 5.15745 7.57815 5.12814 7.63652C5.09882 7.69488 5.16811 7.76339 5.20941 7.81541C5.41992 8.10087 5.64642 8.37746 5.83562 8.67561C6.47281 9.70039 6.94949 10.8083 7.25058 11.9642C7.53727 13.0558 7.69414 14.1747 7.71823 15.2997C7.71823 15.4024 7.72623 15.4748 7.86745 15.4874C8.28715 15.5242 8.70417 15.5839 9.1252 15.6143C10.3243 15.7145 11.5234 15.8034 12.7305 15.8604C13.6632 15.9049 14.5892 15.9467 15.5205 15.9619C16.5517 15.9861 17.5776 15.9721 18.5982 15.9721ZM3.37876 7.4995C2.66736 7.46864 1.95552 7.55053 1.27231 7.74182C1.0231 7.80618 0.794107 7.92738 0.605139 8.09495C0.416172 8.26251 0.27292 8.47139 0.187772 8.70352C0.0186728 9.19386 -0.0407819 9.71247 0.0132328 10.226C0.0905092 11.4859 0.600801 12.5503 1.61206 13.3775C2.34338 13.9666 3.18513 14.4186 4.0929 14.7097C5.01622 15.0142 5.98617 15.1335 6.9468 15.2819C7.04806 15.2984 7.06804 15.2718 7.06804 15.1804C7.0712 14.6712 7.03603 14.1624 6.96279 13.6579C6.77359 12.379 6.3499 11.1636 5.83961 9.9786C5.4841 9.19621 5.02998 8.45788 4.48728 7.77988C4.32739 7.57181 4.16618 7.45763 3.88772 7.49569C3.71836 7.50815 3.5483 7.50943 3.37876 7.4995ZM13.8471 2.49815C13.7991 2.49815 13.7818 2.53113 13.7578 2.55524C13.1049 3.23528 12.4521 3.91279 11.7419 4.53954C11.6567 4.6144 11.654 4.66641 11.7419 4.73619C11.7899 4.77299 11.8339 4.81358 11.8818 4.84911C12.4414 5.26272 13.0077 5.66871 13.6006 6.04172C14.2148 6.42234 14.8477 6.77885 15.4872 7.12268C15.6138 7.19119 15.6897 7.19373 15.7537 7.05544C15.8216 6.92463 15.8972 6.79755 15.9802 6.67482C16.4212 5.9694 16.8595 5.26145 17.3058 4.55857C17.3738 4.45327 17.3618 4.4114 17.2392 4.37714C17.1162 4.34446 16.9964 4.30202 16.8808 4.25027C15.9215 3.80875 14.9649 3.36216 14.1442 2.69861C14.049 2.62676 13.9498 2.55985 13.8471 2.49815ZM19.5096 8.26708C19.8882 8.28563 20.2666 8.2268 20.6194 8.09453C20.7892 8.03191 20.9394 7.92918 21.0559 7.796C21.1725 7.66282 21.2515 7.50359 21.2856 7.33329C21.3348 7.07397 21.3151 6.80705 21.2283 6.55683C21.0404 5.89709 20.6607 5.39086 19.9372 5.2107C19.351 5.06479 18.7541 4.95695 18.1892 4.74508C18.1753 4.73643 18.1596 4.73082 18.1432 4.72865C18.1268 4.72649 18.1101 4.72782 18.0943 4.73255C18.0785 4.73729 18.064 4.74531 18.0518 4.75603C18.0397 4.76675 18.0302 4.77991 18.024 4.79455C17.4795 5.66744 16.931 6.53822 16.3785 7.40688C16.3346 7.47539 16.3479 7.50076 16.4225 7.53375C16.7518 7.68665 17.0936 7.81394 17.4444 7.91437C18.1386 8.07677 18.8194 8.27723 19.5082 8.26708H19.5096ZM23.6758 3.95338C24.2813 3.96502 24.8867 3.92255 25.4838 3.82651C25.7716 3.78084 26.0328 3.67046 26.3099 3.61336C26.7036 3.51341 27.0875 3.38096 27.457 3.21752C27.5676 3.17565 27.5463 3.13378 27.5117 3.06654C27.4144 2.87115 27.3158 2.67831 27.2199 2.48292C27.1839 2.40933 27.1453 2.38777 27.052 2.41314C26.1067 2.66241 25.1378 2.8222 24.1595 2.89019C22.7819 3.0056 21.3946 2.9583 20.0292 2.74936C19.1877 2.62181 18.3613 2.41658 17.5617 2.13656C17.4671 2.1023 17.4284 2.10865 17.3991 2.21014C17.3445 2.40172 17.2725 2.59076 17.2073 2.776C17.1859 2.83944 17.1659 2.89146 17.2619 2.92571C17.7122 3.09065 18.1546 3.27842 18.6089 3.43321C19.2018 3.62732 19.8227 3.69329 20.4435 3.76688C21.516 3.88684 22.5947 3.94911 23.6745 3.95338H23.6758ZM5.18676 4.95061C5.58647 5.50631 6.00349 6.01381 6.32725 6.58347C6.33487 6.60184 6.34625 6.61859 6.36074 6.63272C6.37523 6.64685 6.39254 6.65808 6.41165 6.66576C6.43076 6.67344 6.45128 6.67741 6.47202 6.67744C6.49276 6.67747 6.5133 6.67356 6.53244 6.66594C7.0057 6.57427 7.47178 6.45176 7.92741 6.29927C8.01444 6.26094 8.11234 6.2511 8.20585 6.2713C8.29936 6.29149 8.38322 6.34059 8.44436 6.41092C8.65754 6.63676 8.93334 6.63929 9.2038 6.54794C9.69811 6.38174 10.1991 6.22569 10.6361 5.93768C10.9387 5.76296 11.2088 5.54174 11.4355 5.28302C11.2547 5.33091 11.0687 5.35859 10.8812 5.36548C10.069 5.35689 9.2733 5.1456 8.5736 4.75269C8.36709 4.64358 8.19388 4.43297 7.95939 4.4317C7.72489 4.43043 7.48507 4.53573 7.24791 4.59029C6.5804 4.74254 5.89557 4.85926 5.18676 4.95061ZM0.363642 7.48808C0.837469 7.18645 1.38108 6.99881 1.94781 6.94125C2.57572 6.87802 3.2079 6.86232 3.83842 6.89431C4.44788 6.92665 5.05921 6.90243 5.66374 6.82199C5.33066 6.21046 4.87632 5.69028 4.42999 5.16629C4.38854 5.11312 4.33345 5.07097 4.27 5.04387C4.20654 5.01677 4.13685 5.00563 4.06758 5.01151C3.55903 5.01858 3.05193 5.06526 2.55137 5.15107C1.85055 5.28555 1.21901 5.54311 0.736701 6.06836C0.374301 6.47563 0.291694 6.9476 0.368971 7.4995L0.363642 7.48808ZM12.7026 2.62882C12.7439 2.59203 12.7852 2.55905 12.8211 2.52099C13.0103 2.32433 13.1969 2.1226 13.3887 1.92722C13.5806 1.73183 13.8937 1.73183 14.1335 1.93356C14.7317 2.44147 15.4007 2.8684 16.1214 3.20229C16.2639 3.26827 16.3066 3.23909 16.3505 3.10841C16.4758 2.73625 16.609 2.36747 16.7503 2.00207C16.7956 1.88662 16.7662 1.83333 16.6517 1.79146C16.3578 1.67543 16.0724 1.54064 15.7976 1.388C15.106 1.01199 14.463 0.560215 13.8817 0.041879C13.8031 -0.0266326 13.7591 -0.0240947 13.6925 0.0482231C13.5846 0.167484 13.47 0.281668 13.3541 0.393317C12.8291 0.90081 12.3042 1.40831 11.7739 1.90692C11.6767 1.99827 11.6767 2.03379 11.7992 2.10738C12.0484 2.24313 12.2882 2.39411 12.5334 2.53748C12.5893 2.57554 12.6479 2.60091 12.7079 2.6339L12.7026 2.62882ZM21.3082 5.434C21.3372 5.52516 21.3823 5.61097 21.4415 5.68774C21.4868 5.7626 21.5654 5.83238 21.5747 5.91231C21.6387 6.30435 21.9118 6.4198 22.2795 6.43884C22.3168 6.43884 22.3515 6.45406 22.3888 6.45787C23.2026 6.54599 24.023 6.5651 24.8403 6.51496C25.7512 6.44026 26.6395 6.20448 27.4597 5.81969C27.5823 5.76387 27.569 5.71058 27.5103 5.62558C27.3982 5.4729 27.2941 5.31495 27.1986 5.15234C27.1359 5.03815 27.0653 5.02546 26.9521 5.05972C25.7921 5.33461 24.6032 5.484 23.408 5.50505C22.7219 5.52154 22.025 5.48221 21.3082 5.434ZM28.2658 5.50251C28.1419 4.96584 27.9993 4.47737 27.8394 3.99525C27.8114 3.91659 27.7861 3.86838 27.6875 3.92166C27.3509 4.07656 27.001 4.2039 26.6416 4.30228C25.7433 4.57437 24.8077 4.71887 23.865 4.73112C22.7076 4.74252 21.5506 4.68446 20.4009 4.5573C19.8904 4.50656 19.3837 4.42649 18.8834 4.31751C18.2453 4.15933 17.6284 3.932 17.0447 3.64001C17.0114 3.62478 16.9781 3.60321 16.9421 3.64001C16.9421 3.68061 16.9728 3.69583 17.0061 3.70979C17.4527 3.91398 17.9108 4.09442 18.3784 4.25027C19.9527 4.75278 21.6069 4.98979 23.2668 4.95061C23.7758 4.93792 24.2834 4.91635 24.787 4.86307C25.5861 4.77949 26.3781 4.64299 27.1573 4.45453C27.4477 4.38349 27.557 4.44058 27.6982 4.68418C27.7595 4.79202 27.8194 4.90113 27.8901 5.00263C27.9993 5.16756 28.0726 5.35026 28.2698 5.50251H28.2658ZM9.81003 7.05163C10.9598 7.4183 11.8952 7.08716 12.6972 6.2739C12.4667 6.11531 12.2402 5.96686 12.0244 5.80573C11.9271 5.73342 11.8765 5.75372 11.8032 5.83365C11.6962 5.9457 11.5823 6.05161 11.4621 6.15083C10.9778 6.55007 10.4168 6.85599 9.81003 7.05163ZM9.63549 4.50275C9.96073 4.5998 10.2963 4.66193 10.6361 4.68798C10.7347 4.69559 10.8093 4.68798 10.7853 4.56111C10.768 4.46849 10.8213 4.41647 10.8919 4.35938C11.3622 3.97876 11.7899 3.5512 12.2243 3.12744C12.0191 2.98407 11.9964 2.97646 11.9151 3.06908C11.3194 3.74958 10.5266 4.24817 9.63549 4.50275Z" fill="white"/>
<path d="M18.5983 15.9721C17.575 15.9721 16.5518 15.986 15.5338 15.9721C14.6012 15.9569 13.6685 15.915 12.7439 15.8706C11.5448 15.8135 10.339 15.7247 9.13854 15.6245C8.71752 15.5889 8.30049 15.5293 7.8808 15.4976C7.73957 15.4849 7.73424 15.4126 7.73158 15.3098C7.70749 14.1848 7.55062 13.0659 7.26392 11.9743C6.96283 10.8184 6.48615 9.71053 5.84896 8.68575C5.65977 8.3876 5.43327 8.11102 5.22276 7.82555C5.18145 7.76973 5.10551 7.71898 5.14148 7.64666C5.17746 7.57434 5.2534 7.62002 5.31202 7.61367C6.16073 7.5109 7.01477 7.4259 7.82617 7.14551C7.89131 7.11912 7.96264 7.10968 8.03287 7.11815C8.1031 7.12662 8.16971 7.1527 8.22588 7.19372C8.86894 7.59595 9.59647 7.85964 10.3576 7.96638C10.8709 8.03375 11.3933 7.94164 11.8472 7.70375C12.0178 7.62509 12.187 7.54389 12.3562 7.46396C12.6594 7.30838 12.9235 7.09194 13.1303 6.8296C13.2249 6.71922 13.2795 6.70272 13.4074 6.78011C14.1614 7.2607 14.9474 7.69425 15.7603 8.07803C16.8198 8.58028 17.9641 8.90028 19.1405 9.02324C19.6704 9.0894 20.2093 9.03282 20.7114 8.8583C21.4535 8.58045 21.8292 8.03616 21.9012 7.29268C21.9091 7.20895 21.9012 7.15185 22.0344 7.17469C22.9031 7.32948 23.7771 7.27238 24.6525 7.23813C25.1666 7.22948 25.6771 7.15436 26.17 7.01483C26.7376 6.84101 27.3238 6.70272 27.8328 6.38046C27.9727 6.29292 28.0286 6.38046 28.0833 6.47689C28.4058 7.07371 28.6441 7.7085 28.7921 8.36476C28.8675 8.71287 28.9121 9.0664 28.9253 9.42162C28.9466 9.86948 29.0146 10.3097 29.0066 10.7639C28.9879 11.7193 28.7721 12.6112 28.1526 13.3889C27.7286 13.9054 27.1981 14.3337 26.5937 14.6475C25.5705 15.2032 24.4539 15.5014 23.3041 15.7006C22.3036 15.8661 21.292 15.964 20.277 15.9937C19.7094 16.0102 19.1552 16 18.5983 15.9721Z" fill="#A0D1CA"/>
<path d="M3.3788 7.49947C3.55002 7.51091 3.72187 7.51091 3.89309 7.49947C4.17155 7.46141 4.33276 7.5756 4.49265 7.78367C5.03536 8.46166 5.48947 9.19999 5.84499 9.98239C6.35528 11.1687 6.77763 12.3841 6.96816 13.6617C7.0414 14.1662 7.07657 14.675 7.07341 15.1842C7.07341 15.2755 7.05343 15.3022 6.95217 15.2857C5.99154 15.1372 5.02159 15.018 4.09827 14.7135C3.1905 14.4224 2.34875 13.9704 1.61743 13.3813C0.600842 12.5541 0.0905511 11.4896 0.018604 10.2298C-0.0354107 9.71626 0.024043 9.19764 0.193142 8.70731C0.27829 8.47518 0.421544 8.2663 0.610511 8.09873C0.799478 7.93117 1.02847 7.80997 1.27768 7.74561C1.95896 7.55358 2.66895 7.47041 3.3788 7.49947Z" fill="#575757"/>
<path d="M13.847 2.49814C13.9497 2.55861 14.0489 2.62425 14.1441 2.6948C14.9649 3.35961 15.9215 3.80494 16.8808 4.24646C16.9963 4.29821 17.1162 4.34065 17.2392 4.37333C17.3618 4.40759 17.3724 4.44946 17.3058 4.55476C16.8595 5.25764 16.4211 5.96559 15.9801 6.67101C15.8972 6.79375 15.8216 6.92082 15.7536 7.05163C15.687 7.18992 15.6111 7.18738 15.4872 7.11887C14.8476 6.77505 14.2148 6.42361 13.6005 6.03791C13.0076 5.6649 12.4414 5.25891 11.8818 4.8453C11.8338 4.80978 11.7899 4.76918 11.7419 4.73238C11.6566 4.66514 11.6593 4.60551 11.7419 4.53573C12.4521 3.90898 13.1049 3.23147 13.7578 2.55143C13.7804 2.53113 13.7977 2.49687 13.847 2.49814Z" fill="#A0D1CA"/>
<path d="M19.5083 8.26706C18.8195 8.27721 18.1387 8.07675 17.4499 7.91182C17.099 7.81139 16.7572 7.6841 16.4279 7.5312C16.3533 7.49948 16.34 7.4741 16.384 7.40432C16.9329 6.53566 17.4792 5.66574 18.0228 4.79454C18.0289 4.77989 18.0384 4.76674 18.0506 4.75601C18.0628 4.74529 18.0773 4.73727 18.0931 4.73254C18.1089 4.7278 18.1256 4.72647 18.142 4.72864C18.1584 4.7308 18.1741 4.73641 18.188 4.74506C18.7529 4.96328 19.3498 5.06478 19.936 5.21068C20.6595 5.39084 21.0392 5.89707 21.2271 6.55681C21.3139 6.80703 21.3336 7.07396 21.2844 7.33328C21.2503 7.50357 21.1713 7.66281 21.0547 7.79598C20.9382 7.92916 20.788 8.0319 20.6182 8.09452C20.2654 8.22679 19.887 8.28562 19.5083 8.26706Z" fill="#575757"/>
<path d="M23.6745 3.95336C22.596 3.94852 21.5187 3.88583 20.4476 3.76559C19.8267 3.692 19.2058 3.62603 18.6129 3.43191C18.1586 3.2822 17.7162 3.09443 17.2659 2.92442C17.17 2.89016 17.19 2.83814 17.2113 2.77471C17.2766 2.58694 17.3445 2.40043 17.4031 2.20885C17.4311 2.10735 17.4711 2.10101 17.5657 2.13527C18.3654 2.41528 19.1918 2.62052 20.0332 2.74806C21.3986 2.957 22.7859 3.00431 24.1635 2.88889C25.1418 2.8209 26.1107 2.66111 27.056 2.41185C27.1493 2.38647 27.1893 2.41185 27.2239 2.48163C27.3198 2.67702 27.4184 2.86986 27.5157 3.06525C27.5503 3.13249 27.5716 3.17436 27.4611 3.21622C27.0915 3.37967 26.7076 3.51212 26.3139 3.61207C26.0368 3.66916 25.781 3.77954 25.4878 3.82522C24.889 3.922 24.2818 3.9649 23.6745 3.95336Z" fill="#575757"/>
<path d="M5.18677 4.9506C5.89025 4.85925 6.57508 4.74252 7.25191 4.59028C7.48907 4.53572 7.72623 4.42915 7.96339 4.43169C8.20055 4.43422 8.37109 4.64356 8.57761 4.75267C9.27731 5.14558 10.073 5.35688 10.8852 5.36547C11.0727 5.35857 11.2587 5.3309 11.4395 5.283C11.2128 5.54173 10.9427 5.76294 10.6401 5.93767C10.2031 6.22567 9.70744 6.38173 9.20781 6.54793C8.94134 6.63928 8.66154 6.63674 8.44837 6.41091C8.38723 6.34057 8.30336 6.29148 8.20985 6.27128C8.11634 6.25109 8.01844 6.26093 7.93142 6.29926C7.47579 6.45175 7.0097 6.57426 6.53644 6.66592C6.51731 6.67355 6.49677 6.67746 6.47603 6.67743C6.45529 6.6774 6.43476 6.67343 6.41565 6.66575C6.39654 6.65806 6.37924 6.64683 6.36475 6.6327C6.35025 6.61857 6.33887 6.60183 6.33126 6.58346C6.00883 6.01379 5.58647 5.5063 5.18677 4.9506Z" fill="#A0D1CA"/>
<path d="M0.369123 7.49949C0.291846 6.95393 0.369123 6.4845 0.742182 6.07978C1.22316 5.55452 1.85603 5.29697 2.55685 5.16248C3.05741 5.07667 3.56451 5.03 4.07306 5.02292C4.14233 5.01704 4.21203 5.02818 4.27548 5.05528C4.33893 5.08238 4.39401 5.12454 4.43546 5.17771C4.8818 5.7017 5.33614 6.22188 5.66922 6.83341C5.06469 6.91384 4.45336 6.93806 3.8439 6.90572C3.21338 6.87374 2.5812 6.88943 1.95329 6.95267C1.38656 7.01022 0.842949 7.19787 0.369123 7.49949Z" fill="#575757"/>
<path d="M12.708 2.63389C12.6441 2.6009 12.5895 2.57553 12.5375 2.54508C12.2924 2.40171 12.0525 2.25073 11.8034 2.11498C11.6808 2.04773 11.6808 2.00587 11.7781 1.91452C12.311 1.40702 12.8333 0.90714 13.3582 0.400916C13.4741 0.289267 13.5887 0.175083 13.6967 0.055822C13.7633 -0.0164959 13.8072 -0.0190337 13.8858 0.0494779C14.4672 0.567814 15.1102 1.0196 15.8018 1.39561C16.0766 1.54824 16.3619 1.68303 16.6558 1.79906C16.7704 1.84093 16.7997 1.89422 16.7544 2.00967C16.615 2.37507 16.4817 2.74385 16.3547 3.11601C16.3107 3.24288 16.2681 3.27587 16.1255 3.20989C15.4048 2.876 14.7359 2.44907 14.1377 1.94116C13.8978 1.73943 13.5941 1.72801 13.3929 1.93482C13.1917 2.14162 13.0145 2.33193 12.8253 2.52858C12.7907 2.56411 12.7493 2.59709 12.708 2.63389Z" fill="#A0D1CA"/>
<path d="M21.3083 5.43397C22.0212 5.48219 22.718 5.52151 23.4161 5.50375C24.6113 5.48271 25.8002 5.33332 26.9602 5.05843C27.0748 5.02925 27.1441 5.03686 27.2067 5.15104C27.3022 5.31366 27.4063 5.4716 27.5184 5.62428C27.5771 5.70929 27.5904 5.76258 27.4678 5.8184C26.6477 6.20318 25.7593 6.43897 24.8484 6.51367C24.0311 6.56381 23.2107 6.5447 22.3969 6.45657C22.3596 6.45657 22.3249 6.44008 22.2876 6.43754C21.9199 6.42359 21.6468 6.30306 21.5828 5.91102C21.5695 5.83109 21.4909 5.76131 21.4496 5.68645C21.3877 5.6106 21.3399 5.5252 21.3083 5.43397Z" fill="#575757"/>
<path d="M28.2698 5.50249C28.0726 5.35024 28.0033 5.16754 27.8901 5.00768C27.8194 4.90618 27.7568 4.79708 27.6982 4.68923C27.5556 4.44564 27.4477 4.38854 27.1573 4.45959C26.3805 4.64513 25.5912 4.7791 24.795 4.86051C24.2914 4.9138 23.7837 4.93537 23.2748 4.94806C21.6149 4.98723 19.9606 4.75023 18.3864 4.24771C17.9188 4.09186 17.4606 3.91142 17.0141 3.70723C16.9807 3.69328 16.9474 3.67805 16.9501 3.63745C16.9861 3.59812 17.0194 3.61969 17.0527 3.63745C17.6364 3.92945 18.2533 4.15677 18.8913 4.31496C19.3917 4.42393 19.8984 4.50401 20.4089 4.55475C21.5586 4.68191 22.7156 4.73996 23.873 4.72856C24.8157 4.71632 25.7512 4.57182 26.6496 4.29973C27.009 4.20134 27.3589 4.07401 27.6955 3.91911C27.7941 3.86836 27.8194 3.91911 27.8474 3.9927C28.0073 4.47735 28.1459 4.96201 28.2698 5.50249Z" fill="#A0D1CA"/>
<path d="M9.81006 7.05162C10.4168 6.85598 10.9779 6.55006 11.4622 6.15082C11.5824 6.0516 11.6962 5.94569 11.8033 5.83363C11.8765 5.7537 11.9272 5.7334 12.0244 5.80572C12.2403 5.96685 12.4668 6.11529 12.6973 6.27388C11.8952 7.08714 10.9599 7.41828 9.81006 7.05162Z" fill="#575757"/>
<path d="M9.6355 4.50274C10.5245 4.24888 11.3158 3.75216 11.9112 3.07415C11.9924 2.98153 12.0151 2.98914 12.2203 3.13251C11.7899 3.55626 11.3622 3.98129 10.8879 4.36445C10.8173 4.42154 10.764 4.47356 10.7813 4.56618C10.8053 4.69305 10.7307 4.69305 10.6321 4.69305C10.2935 4.66507 9.95924 4.60124 9.6355 4.50274Z" fill="#575757"/>
</g>
<defs>
<clipPath id="clip0_163_209">
<rect width="29" height="16" fill="white"/>
</clipPath>
</defs>
</svg>
