<svg width="24" height="24" viewBox="0 0 24 24" fill="none" xmlns="http://www.w3.org/2000/svg">
<g clip-path="url(#clip0_172_878)">
<path d="M2.66704 10.0665C2.73316 9.5888 2.79927 9.11108 2.86539 8.63336C2.87663 8.55374 2.83828 8.5362 2.77283 8.52C2.46803 8.44713 2.35564 8.30746 2.36556 7.99235C2.37613 7.66105 2.31993 7.32706 2.39266 6.99846C2.41124 6.90715 2.46014 6.82518 2.53109 6.76642C2.60205 6.70765 2.69071 6.67569 2.78208 6.67593C3.13646 6.66243 3.13779 6.66243 3.18803 6.30752C3.23564 5.97352 3.28258 5.63952 3.32027 5.30417C3.32952 5.22658 3.35729 5.14291 3.31101 5.06464C3.85646 5.05316 4.40258 5.04777 4.94803 5.06464C4.88853 5.51536 4.83035 5.96609 4.76952 6.41412C4.73712 6.65096 4.7444 6.66243 4.97779 6.66446H13.8816C14.6089 6.66446 15.3361 6.66446 16.0634 6.66446C16.1956 6.66446 16.2584 6.65096 16.232 6.48092C16.1573 6.0086 16.1057 5.53628 16.0456 5.06396C16.4773 5.03225 16.9097 5.05789 17.3414 5.05182C17.438 5.0576 17.5342 5.03413 17.6178 4.98434C17.7044 5.3008 17.7123 5.6294 17.7593 5.95193C17.789 6.15435 17.8413 6.35205 17.838 6.5592C17.838 6.64152 17.8915 6.65973 17.9629 6.66918C18.3014 6.71641 18.4059 6.83989 18.4079 7.18738C18.4079 7.45728 18.4079 7.72718 18.4079 7.99708C18.4148 8.08492 18.399 8.17308 18.3621 8.25276C18.3252 8.33244 18.2685 8.40085 18.1976 8.45118C18.1695 8.46587 18.1467 8.48926 18.1325 8.51799C18.1182 8.54671 18.1133 8.5793 18.1183 8.61109C18.1844 9.09556 18.2505 9.58003 18.3166 10.0652H16.6994C16.6644 9.62996 16.595 9.1988 16.5328 8.76629C16.4978 8.52068 16.4998 8.51933 16.2584 8.51933H4.85084C4.50241 8.51933 4.49382 8.51933 4.44159 8.86682C4.38208 9.26425 4.33977 9.6637 4.29018 10.0618L2.66704 10.0665ZM3.62109 7.89047C3.78704 7.89047 3.90539 7.78993 3.90275 7.65363C3.89746 7.39858 3.80754 7.31626 3.58142 7.29872C3.41283 7.2859 3.33283 7.4168 3.30638 7.64486C3.29051 7.77374 3.44919 7.89182 3.62109 7.89047ZM17.7341 7.62057C17.7341 7.42422 17.6277 7.29939 17.4584 7.30007C17.3782 7.30419 17.3024 7.33945 17.2468 7.39865C17.1911 7.45784 17.1597 7.5365 17.1589 7.61855C17.155 7.77576 17.2746 7.88844 17.4452 7.88844C17.6588 7.88979 17.7308 7.82299 17.7315 7.6226L17.7341 7.62057Z" fill="#DC968F"/>
<path d="M19.8783 21.5122C19.9081 21.7484 19.9444 21.9845 19.9643 22.222C19.9762 22.357 20.043 22.3894 20.158 22.384C20.2611 22.3799 20.3643 22.384 20.4674 22.384C20.9302 22.384 21.2714 22.7214 21.2747 23.1761C21.2747 23.6518 20.9355 24 20.4595 24C18.8317 24 17.2039 24 15.5762 24H0.856176C0.409895 24 0.0918782 23.7402 0.0132005 23.3138C-0.073411 22.8462 0.294193 22.3806 0.761631 22.3887C0.943449 22.3887 1.03469 22.3556 1.0413 22.1519C1.04791 21.9481 1.10742 21.7531 1.10147 21.5486C1.19204 21.5446 1.28328 21.5345 1.37386 21.5365C1.82411 21.5453 2.27502 21.5129 2.72527 21.55C2.69485 21.7524 2.65915 21.9501 2.63535 22.1512C2.60891 22.3813 2.61552 22.384 2.8456 22.384H18.1051C18.1712 22.384 18.2307 22.384 18.2935 22.384C18.3749 22.388 18.3927 22.3428 18.3821 22.2733L18.2691 21.5507C18.3231 21.5314 18.3809 21.5254 18.4377 21.5331C18.9177 21.523 19.399 21.5588 19.8783 21.5122Z" fill="#DC968F"/>
<path d="M19.8785 21.5122C19.3991 21.5588 18.9178 21.523 18.4378 21.5324C18.381 21.5247 18.3233 21.5307 18.2692 21.55C18.2123 21.55 18.1548 21.5426 18.098 21.5426H3.15581C3.01234 21.5426 2.86953 21.5426 2.72606 21.548C2.27581 21.5109 1.8249 21.5432 1.37466 21.5345C1.28408 21.5345 1.19284 21.5426 1.10226 21.5466C0.767714 21.5183 0.603744 21.353 0.594488 21.0109C0.587876 20.741 0.594488 20.4711 0.603083 20.2059C0.611678 19.9407 0.798124 19.743 1.07383 19.7336C1.17631 19.7289 1.27879 19.7262 1.38127 19.7228C1.91813 19.7592 2.45498 19.7437 2.99184 19.7282C3.04341 19.7282 3.09499 19.7329 3.14656 19.7329H17.692C17.7951 19.7329 17.8976 19.7329 18.0008 19.7289C18.2652 19.7599 18.535 19.739 18.8014 19.7383C19.0798 19.7383 19.3588 19.7612 19.6358 19.7255C20.0325 19.7633 20.1747 19.9279 20.176 20.328C20.176 20.5554 20.176 20.7828 20.1806 21.0095C20.188 21.115 20.1629 21.2203 20.1087 21.3104C20.0545 21.4006 19.974 21.4712 19.8785 21.5122ZM2.02722 20.3584C1.95265 20.3639 1.88264 20.3971 1.83039 20.4516C1.77814 20.5062 1.74726 20.5784 1.74358 20.6546C1.74256 20.6957 1.74996 20.7365 1.76529 20.7744C1.78063 20.8124 1.80357 20.8467 1.83263 20.8751C1.8617 20.9035 1.89626 20.9253 1.93409 20.9393C1.97192 20.9533 2.0122 20.959 2.05234 20.9562C2.09103 20.9564 2.12935 20.9484 2.16486 20.9328C2.20038 20.9171 2.23232 20.8941 2.25867 20.8652C2.28501 20.8362 2.3052 20.8021 2.31793 20.7648C2.33067 20.7275 2.33569 20.6879 2.33267 20.6485C2.32598 20.5703 2.29113 20.4973 2.23485 20.4437C2.17857 20.3902 2.10484 20.3598 2.02788 20.3584H2.02722ZM19.2907 20.6728C19.2907 20.4744 19.1862 20.3618 19.0064 20.3611C18.9677 20.3593 18.929 20.366 18.893 20.3807C18.8571 20.3955 18.8246 20.4179 18.7979 20.4466C18.7712 20.4753 18.7509 20.5095 18.7382 20.5469C18.7256 20.5843 18.721 20.624 18.7247 20.6634C18.7237 20.7029 18.7307 20.7422 18.7452 20.7789C18.7598 20.8155 18.7817 20.8487 18.8095 20.8763C18.8372 20.9038 18.8703 20.9252 18.9066 20.9391C18.9429 20.953 18.9816 20.959 19.0203 20.9569C19.1889 20.9562 19.2907 20.851 19.2907 20.6728Z" fill="#A0D1CA"/>
<path d="M18.804 13.638C18.8324 13.6413 18.8609 13.6467 18.8893 13.6481C19.3521 13.6649 19.4843 13.8046 19.4843 14.2729V14.9031C19.4843 15.2452 19.3779 15.3882 19.0546 15.4793C18.5257 15.4733 17.9967 15.4571 17.4625 15.4868C17.3885 15.4827 17.3144 15.4739 17.2404 15.4739C12.7449 15.4739 8.24731 15.4739 3.74748 15.4739C3.67343 15.4739 3.59938 15.4814 3.52533 15.4854C3.0017 15.4611 2.4774 15.4652 1.95376 15.4854C1.79376 15.4584 1.62318 15.4955 1.47641 15.3828C1.41931 15.3444 1.37232 15.2923 1.33958 15.231C1.30684 15.1697 1.28935 15.1011 1.28864 15.0313C1.28467 14.7223 1.28203 14.4126 1.29261 14.1035C1.3012 13.8336 1.48038 13.6649 1.74286 13.6508C1.89624 13.642 2.05095 13.6663 2.20567 13.6353C2.73459 13.6643 3.26682 13.6582 3.79707 13.6353C3.84864 13.6393 3.89955 13.6467 3.95046 13.6467C8.26473 13.6467 12.5788 13.6467 16.8926 13.6467C16.9951 13.6467 17.0982 13.6413 17.2007 13.638C17.7343 13.6616 18.2691 13.6521 18.804 13.638ZM18.4847 14.6993C18.4824 14.6204 18.4511 14.5453 18.3969 14.489C18.3427 14.4327 18.2697 14.3994 18.1924 14.3957C18.1217 14.4053 18.0563 14.4394 18.0073 14.4923C17.9583 14.5453 17.9286 14.6139 17.9233 14.6865C17.9263 14.7626 17.9576 14.8348 18.0107 14.8883C18.0639 14.9418 18.135 14.9726 18.2096 14.9746C18.2812 14.973 18.3494 14.9436 18.4005 14.8925C18.4516 14.8413 18.4817 14.7723 18.4847 14.6993ZM3.11806 14.6865C3.11887 14.6486 3.11216 14.6109 3.09833 14.5757C3.08451 14.5405 3.06385 14.5085 3.0376 14.4817C3.01136 14.4548 2.98006 14.4337 2.9456 14.4195C2.91114 14.4053 2.87422 14.3983 2.83707 14.3991C2.76641 14.4069 2.70086 14.4404 2.65233 14.4934C2.6038 14.5464 2.57551 14.6154 2.57261 14.6879C2.57259 14.7617 2.60086 14.8326 2.65139 14.8854C2.70192 14.9382 2.7707 14.9688 2.84302 14.9706C2.87983 14.9721 2.91655 14.9658 2.95083 14.9521C2.98511 14.9383 3.0162 14.9174 3.04209 14.8906C3.06799 14.8639 3.08812 14.8319 3.1012 14.7967C3.11428 14.7616 3.12003 14.7241 3.11806 14.6865Z" fill="#71ACAB"/>
<path d="M16.7035 10.0685H18.3207C18.4291 10.0685 18.5376 10.0685 18.646 10.0746C18.9223 10.0827 19.1015 10.2548 19.1035 10.5334C19.1035 10.8708 19.0962 11.2082 19.0857 11.5503C19.081 11.6899 18.9237 11.8478 18.7782 11.8566C18.7059 11.864 18.6345 11.8792 18.5653 11.9018L16.9766 11.8978C16.9025 11.8978 16.8278 11.8897 16.7537 11.8897H4.22416C4.15805 11.8897 4.0873 11.8978 4.01921 11.9018L2.42581 11.8964C2.32334 11.8964 2.22086 11.8964 2.11838 11.889C1.85392 11.8748 1.67606 11.7041 1.66879 11.4369C1.65953 11.1225 1.66284 10.8074 1.67276 10.4923C1.68003 10.2797 1.80102 10.1468 2.00995 10.0874C2.2083 10.0996 2.40664 10.1259 2.60036 10.0726L2.66648 10.0658H4.28962L4.31805 10.0712C4.32929 10.0908 4.34119 10.0921 4.35441 10.0712H9.38648L16.7035 10.0685ZM18.0133 11.0881C18.0174 11.0502 18.0136 11.0119 18.0021 10.9756C17.9907 10.9394 17.9719 10.906 17.9469 10.8777C17.9219 10.8494 17.8913 10.8268 17.8572 10.8115C17.8231 10.7961 17.7861 10.7882 17.7488 10.7885C17.7102 10.7856 17.6714 10.7911 17.635 10.8046C17.5986 10.8181 17.5654 10.8393 17.5376 10.8668C17.5098 10.8944 17.488 10.9276 17.4737 10.9643C17.4594 11.0011 17.4529 11.0405 17.4546 11.08C17.4534 11.1179 17.4598 11.1557 17.4733 11.1911C17.4869 11.2265 17.5073 11.2587 17.5334 11.2858C17.5594 11.313 17.5906 11.3344 17.625 11.3489C17.6594 11.3634 17.6964 11.3706 17.7336 11.3701C17.7704 11.3717 17.8072 11.3655 17.8417 11.352C17.8761 11.3384 17.9074 11.3177 17.9336 11.2913C17.9599 11.2648 17.9805 11.2331 17.9942 11.1981C18.0079 11.1632 18.0144 11.1257 18.0133 11.0881ZM3.32896 10.7898C3.29185 10.7886 3.25488 10.7949 3.22021 10.8084C3.18554 10.822 3.15387 10.8425 3.12707 10.8687C3.10027 10.8949 3.07888 10.9263 3.06416 10.9611C3.04944 10.9959 3.04168 11.0333 3.04135 11.0712C3.03821 11.1104 3.04329 11.1498 3.05626 11.1869C3.06923 11.2239 3.08979 11.2577 3.11657 11.286C3.14335 11.3143 3.17573 11.3364 3.21156 11.3509C3.24739 11.3654 3.28583 11.372 3.32433 11.3701C3.36149 11.3706 3.39836 11.3634 3.43272 11.3489C3.46709 11.3345 3.49824 11.3131 3.5243 11.2861C3.55036 11.259 3.57079 11.2269 3.58438 11.1916C3.59796 11.1563 3.60441 11.1186 3.60334 11.0806C3.60656 11.0425 3.60178 11.004 3.5893 10.9678C3.57683 10.9317 3.55695 10.8987 3.53099 10.8709C3.50503 10.8432 3.47359 10.8215 3.43875 10.8072C3.40392 10.7928 3.36649 10.7862 3.32896 10.7878V10.7898Z" fill="#DC968F"/>
<path d="M3.35195 3.24282C3.39181 3.24046 3.43177 3.24046 3.47162 3.24282C3.57476 3.25564 3.61906 3.2219 3.63228 3.10787C3.68121 2.66186 3.7427 2.21788 3.8022 1.77322C3.81476 1.67673 3.8022 1.60588 3.69576 1.5708C3.34468 1.45407 3.12782 0.98917 3.20848 0.672715C3.3189 0.242902 3.59327 0.00201416 4.02898 0.00201416C8.26832 0.00201416 12.5077 0.00201416 16.747 0.00201416C17.1873 0.00201416 17.504 0.26382 17.5715 0.706452C17.5979 0.839289 17.5872 0.977053 17.5404 1.10393C17.4936 1.2308 17.4127 1.34164 17.307 1.42371C17.2561 1.45953 17.2171 1.51043 17.1953 1.56954C17.1736 1.62865 17.1701 1.69314 17.1853 1.75433C17.2515 2.20911 17.3176 2.66456 17.3804 3.11934C17.3857 3.15983 17.3863 3.20098 17.389 3.24147C17.2363 3.24147 17.0835 3.25226 16.9308 3.24889C16.5566 3.24079 16.1824 3.27048 15.8068 3.23404C15.7176 2.8771 15.6951 2.50937 15.6448 2.14636C15.5728 1.62073 15.5873 1.61938 15.0591 1.61938C12.0385 1.61938 9.01763 1.61938 5.99658 1.61938C5.85906 1.61938 5.72088 1.64367 5.58534 1.63288C5.43196 1.62141 5.40353 1.7071 5.387 1.8299C5.32617 2.29818 5.26137 2.76577 5.1979 3.23337C5.14104 3.23877 5.08484 3.24822 5.02865 3.24822L3.35195 3.24282Z" fill="#DC968F"/>
<path d="M15.8077 3.23337C16.1812 3.2698 16.5554 3.24012 16.9316 3.24822C17.0844 3.24822 17.2371 3.24349 17.3898 3.24079C17.7045 3.30826 17.7951 3.42432 17.7964 3.76035C17.7964 4.02282 17.7892 4.2853 17.8004 4.5471C17.8083 4.72928 17.7667 4.8784 17.6206 4.98973C17.537 5.03952 17.4408 5.06299 17.3442 5.05721C16.9125 5.06328 16.4801 5.03764 16.0483 5.06935C15.9915 5.06935 15.9346 5.06126 15.8778 5.06126H5.36537C5.22851 5.06126 5.09098 5.0653 4.95412 5.06733C4.40867 5.04709 3.86256 5.05248 3.3171 5.06733C3.0619 4.97556 2.97991 4.8649 2.97925 4.59501C2.97925 4.31026 2.97925 4.0262 2.97925 3.74145C2.97925 3.44524 3.07247 3.32581 3.35545 3.24619L5.03413 3.25226C5.09032 3.25226 5.14652 3.24282 5.20338 3.23742C5.26024 3.24214 5.3171 3.24956 5.37396 3.24956C8.76261 3.24956 12.1513 3.24956 15.5399 3.24956C15.6265 3.24551 15.7204 3.26778 15.8077 3.23337ZM4.449 4.1544C4.44866 4.1165 4.44099 4.07905 4.42644 4.04418C4.41189 4.00932 4.39075 3.97773 4.36422 3.95122C4.33768 3.9247 4.30629 3.90379 4.27183 3.88968C4.23736 3.87557 4.20051 3.86854 4.16338 3.86898C4.08815 3.8704 4.01652 3.90213 3.96413 3.95724C3.91173 4.01236 3.88282 4.08638 3.88371 4.16317C3.88397 4.20123 3.89161 4.23887 3.90621 4.2739C3.9208 4.30893 3.94205 4.34067 3.96873 4.36727C3.99541 4.39387 4.027 4.41482 4.06165 4.42889C4.09631 4.44296 4.13336 4.44988 4.17065 4.44926C4.24571 4.44731 4.317 4.41528 4.36909 4.3601C4.42119 4.30491 4.4499 4.23102 4.449 4.1544ZM16.8788 3.86966C16.7399 3.86966 16.574 4.04306 16.5793 4.17801C16.5845 4.31296 16.7386 4.44791 16.886 4.44791C16.9248 4.44927 16.9634 4.4424 16.9994 4.42772C17.0354 4.41304 17.068 4.39088 17.0952 4.36264C17.1224 4.33441 17.1435 4.30072 17.1572 4.2637C17.171 4.22669 17.177 4.18717 17.175 4.14765C17.1714 4.07026 17.1379 3.99747 17.0819 3.94514C17.0259 3.89281 16.952 3.86519 16.8761 3.86831L16.8788 3.86966Z" fill="#A0D1CA"/>
<path d="M2.99113 19.7248C2.45427 19.7403 1.91742 19.7559 1.38056 19.7194C1.39945 19.442 1.43433 19.166 1.48502 18.8929C1.50089 18.7815 1.50155 18.7181 1.37064 18.6796C1.14188 18.6122 1.0513 18.4684 1.04932 18.2242C1.04932 18.0784 1.04932 17.9327 1.05461 17.7869C1.35213 17.7869 1.64965 17.7869 1.94849 17.7869C2.04238 17.7869 2.11114 17.7944 2.12304 17.9219C2.1372 17.9935 2.17512 18.0579 2.23041 18.1042C2.2857 18.1506 2.35496 18.176 2.42651 18.1763C2.58915 18.1682 2.67709 18.0838 2.70419 17.9017C2.71279 17.849 2.70419 17.7856 2.78089 17.791C3.20535 17.8234 3.6708 17.6493 4.01196 18.0609C4.04502 18.0224 4.05163 17.9894 4.03577 17.9664C3.90353 17.7775 4.03576 17.7735 4.16271 17.791C4.42717 17.8281 4.69692 17.791 4.96403 17.791C9.34177 17.7842 13.7193 17.7824 18.0966 17.7856C18.1369 17.7856 18.1766 17.7856 18.2169 17.7856C18.2976 17.7856 18.3492 17.8106 18.3492 17.903C18.3591 18.0818 18.4735 18.1581 18.6328 18.1729C18.7054 18.1744 18.776 18.148 18.8305 18.0991C18.8851 18.0501 18.9198 17.9821 18.9277 17.9084C18.9422 17.789 18.9991 17.7849 19.087 17.7856C19.2992 17.789 19.5115 17.7856 19.723 17.7856C19.723 17.9374 19.723 18.0892 19.7296 18.2411C19.7296 18.3335 19.7184 18.4327 19.649 18.4819C19.4467 18.625 19.4943 18.8193 19.5214 19.013C19.5551 19.2484 19.5941 19.4853 19.6305 19.7187C19.3535 19.7545 19.0744 19.7309 18.7961 19.7316C18.5316 19.7316 18.2619 19.7532 17.9954 19.7221C18.0219 19.434 17.9227 19.1587 17.9135 18.8753C17.9088 18.7282 17.8559 18.6965 17.7151 18.6965C12.9468 18.6997 8.17813 18.6997 3.40899 18.6965C3.11014 18.6965 3.10419 18.6965 3.06188 18.9927C3.03345 19.241 2.96733 19.4792 2.99113 19.7248Z" fill="#DC968F"/>
<path d="M19.7255 17.791C19.5139 17.791 19.3017 17.791 19.0895 17.791C19.0015 17.791 18.9447 17.7944 18.9301 17.9138C18.9222 17.9875 18.8876 18.0555 18.833 18.1045C18.7784 18.1534 18.7079 18.1798 18.6353 18.1783C18.4759 18.1648 18.3615 18.0886 18.3516 17.9084C18.3457 17.816 18.2974 17.7883 18.2194 17.791C18.1791 17.791 18.1394 17.791 18.0991 17.791C13.7213 17.791 9.3438 17.7928 4.9665 17.7964C4.70204 17.7964 4.43294 17.8308 4.16518 17.7964C4.0389 17.7789 3.90865 17.7829 4.03824 17.9718C4.0541 17.9948 4.04749 18.0278 4.01443 18.0663C3.67328 17.6547 3.20782 17.8288 2.78336 17.7964C2.70931 17.791 2.71724 17.8544 2.70666 17.9071C2.67956 18.0893 2.59162 18.177 2.42898 18.1817C2.35743 18.1814 2.28817 18.156 2.23288 18.1096C2.17759 18.0633 2.13967 17.9989 2.12551 17.9273C2.11361 17.8005 2.04485 17.7924 1.95096 17.7924C1.65278 17.7924 1.35592 17.7924 1.05708 17.7924C1.05708 17.6709 1.0498 17.5488 1.0498 17.4267C1.0498 17.0609 1.22369 16.8869 1.58468 16.8828L1.77245 16.8794H3.36848C4.70402 16.8794 6.03912 16.8794 7.37377 16.8794H17.6369C17.668 16.8916 17.703 16.9179 17.7301 16.9132C18.1308 16.8457 18.5341 16.9004 18.9361 16.8862C19.0399 16.8821 19.145 16.9449 19.2488 16.8788C19.5794 16.9132 19.7341 17.0812 19.7348 17.4091C19.7321 17.5346 19.7281 17.6628 19.7255 17.791Z" fill="#E7D5C6"/>
<path d="M20.6546 6.65973C21.1174 6.69414 21.5214 6.88037 21.7607 7.33447C21.9947 7.77778 22.0027 8.23121 21.7369 8.66574C21.4301 9.16573 21.2225 9.69878 21.2179 10.2932C21.2179 10.6306 21.2542 10.968 21.2767 11.3053C21.3098 11.806 21.3439 12.3067 21.3792 12.8073C21.4546 13.8667 21.5302 14.9263 21.606 15.9861C21.6443 16.5333 21.6787 17.0812 21.7157 17.6284C21.7973 18.8164 21.8793 20.0046 21.9617 21.1931C21.9914 21.6296 22.0199 22.0662 22.0529 22.5027C22.0728 22.7571 21.9293 22.9636 21.7098 22.9838C21.4374 23.0088 21.2615 22.8725 21.2397 22.6006C21.1908 21.9832 21.1504 21.3658 21.1075 20.7484C21.0189 19.4907 20.9276 18.233 20.843 16.9746C20.7769 16.0367 20.722 15.0981 20.6572 14.1602C20.5964 13.2749 20.529 12.3897 20.4642 11.5051C20.4344 11.1002 20.4291 10.6954 20.3703 10.3007C20.289 9.75074 20.0338 9.27909 19.6741 8.8594C19.3144 8.4397 19.2437 7.95929 19.4572 7.4539C19.6734 6.93907 20.084 6.68672 20.6546 6.65973Z" fill="#DC968F"/>
<path d="M22.5885 1.64166C23.1062 1.64166 23.495 1.88254 23.731 2.32922C23.9743 2.79142 23.9366 3.25835 23.6516 3.70638C23.2786 4.28163 23.1149 4.97208 23.1888 5.65775C23.2417 6.20969 23.2662 6.76433 23.3045 7.31762C23.3707 8.27238 23.4467 9.22647 23.5029 10.1819C23.534 10.7123 23.5948 11.2406 23.5875 11.7736C23.5836 12.0435 23.6331 12.3094 23.6536 12.5766C23.6726 12.7924 23.681 13.009 23.6788 13.2257C23.6788 13.4787 23.7528 13.7169 23.7627 13.9679C23.7826 14.4868 23.8678 15.0043 23.8665 15.5198C23.8665 15.9429 23.9121 16.3605 23.9326 16.7809C23.9445 17.0231 23.9915 17.2654 23.9988 17.5096C24.004 17.7714 23.8579 17.9462 23.6226 17.9631C23.4117 17.9779 23.2133 17.7883 23.1968 17.5508C23.1395 16.7182 23.0824 15.886 23.0255 15.0542C22.9559 14.0466 22.8862 13.0388 22.8166 12.0307C22.7359 10.8661 22.6555 9.70149 22.5753 8.53688C22.5092 7.5585 22.4431 6.58012 22.369 5.60241C22.3296 4.94976 22.0744 4.33007 21.645 3.84471C21.2814 3.43109 21.1921 2.93717 21.4143 2.42774C21.6364 1.91831 22.0431 1.65043 22.5885 1.64166Z" fill="#DC968F"/>
<path d="M2.42576 11.8978L4.01915 11.9032L3.79502 13.6379C3.26609 13.6582 2.73717 13.6642 2.20361 13.6379C2.26135 13.1908 2.31865 12.7439 2.37551 12.2972C2.39204 12.1616 2.40923 12.0327 2.42576 11.8978Z" fill="#DC968F"/>
<path d="M16.9766 11.8978H18.568C18.6482 12.4767 18.728 13.0559 18.8073 13.6352C18.2718 13.6521 17.7369 13.6589 17.2014 13.6352C17.1901 13.532 17.1809 13.4281 17.167 13.3249C17.1026 12.8507 17.0392 12.375 16.9766 11.8978Z" fill="#DC968F"/>
<path d="M19.2463 16.876C19.1425 16.9435 19.0374 16.8794 18.9336 16.8835C18.5316 16.8976 18.1283 16.843 17.7276 16.9104C17.6985 16.9152 17.6655 16.8889 17.6344 16.8767C17.6159 16.7222 17.5908 16.5683 17.5802 16.4132C17.5584 16.1021 17.4711 15.7998 17.4658 15.4867C17.9947 15.457 18.5276 15.4732 19.0579 15.4793L19.2463 16.876Z" fill="#DC968F"/>
<path d="M3.36605 16.876H1.77002C1.81498 16.4105 1.87448 15.9462 1.95382 15.4854C2.47746 15.4665 3.00175 15.4624 3.52539 15.4854C3.5201 15.5657 3.51746 15.6467 3.50952 15.7263C3.46985 16.1116 3.38589 16.4894 3.36605 16.876Z" fill="#DC968F"/>
<path d="M2.60042 10.076C2.40208 10.1293 2.20703 10.1029 2.01001 10.0908C2.20571 10.0436 2.4034 10.0645 2.60042 10.076Z" fill="#DC968F"/>
<path d="M3.62121 7.89046C3.45196 7.89046 3.29063 7.77373 3.3065 7.64485C3.33295 7.41679 3.41295 7.28589 3.58154 7.29871C3.80766 7.31558 3.89758 7.39857 3.90287 7.65363C3.90287 7.78992 3.78452 7.88911 3.62121 7.89046Z" fill="#E7D5C6"/>
<path d="M17.7316 7.6226C17.7316 7.82503 17.6588 7.8925 17.4426 7.8925C17.2721 7.8925 17.1524 7.77982 17.1563 7.6226C17.1571 7.54056 17.1885 7.4619 17.2442 7.4027C17.2998 7.34351 17.3756 7.30824 17.4559 7.30412C17.6251 7.30142 17.7329 7.42625 17.7316 7.6226Z" fill="#E7D5C6"/>
<path d="M2.02787 20.3584C2.10494 20.3596 2.17884 20.3899 2.23526 20.4435C2.29168 20.4971 2.32663 20.5702 2.33333 20.6485C2.33635 20.6879 2.33133 20.7275 2.31859 20.7648C2.30585 20.8021 2.28567 20.8362 2.25932 20.8652C2.23297 20.8941 2.20103 20.9171 2.16551 20.9328C2.13 20.9485 2.09169 20.9564 2.053 20.9562C2.01286 20.9591 1.97258 20.9533 1.93474 20.9393C1.89691 20.9253 1.86235 20.9035 1.83329 20.8751C1.80422 20.8467 1.78128 20.8124 1.76595 20.7744C1.75061 20.7365 1.74322 20.6957 1.74423 20.6546C1.74791 20.5784 1.77879 20.5062 1.83104 20.4516C1.88329 20.3971 1.95331 20.3639 2.02787 20.3584Z" fill="#E7D5C6"/>
<path d="M19.2906 20.6728C19.2906 20.851 19.1921 20.9562 19.0202 20.9569C18.9815 20.9591 18.9428 20.953 18.9065 20.9391C18.8702 20.9253 18.8371 20.9039 18.8094 20.8763C18.7816 20.8487 18.7597 20.8155 18.7451 20.7789C18.7306 20.7423 18.7236 20.7029 18.7246 20.6634C18.7209 20.624 18.7255 20.5843 18.7381 20.5469C18.7508 20.5095 18.7711 20.4753 18.7978 20.4466C18.8246 20.4179 18.857 20.3955 18.893 20.3807C18.9289 20.366 18.9676 20.3593 19.0063 20.3611C19.1828 20.3618 19.2853 20.4745 19.2906 20.6728Z" fill="#E7D5C6"/>
<path d="M18.4847 14.6993C18.4817 14.7723 18.4516 14.8413 18.4005 14.8925C18.3494 14.9436 18.2812 14.973 18.2096 14.9746C18.135 14.9726 18.0639 14.9418 18.0107 14.8883C17.9576 14.8348 17.9263 14.7626 17.9233 14.6865C17.9286 14.6139 17.9583 14.5453 18.0073 14.4923C18.0563 14.4394 18.1217 14.4053 18.1924 14.3957C18.2697 14.3994 18.3427 14.4327 18.3969 14.489C18.4511 14.5453 18.4824 14.6204 18.4847 14.6993Z" fill="#E7D5C6"/>
<path d="M3.1181 14.6865C3.1201 14.7243 3.11427 14.7622 3.10099 14.7976C3.08771 14.833 3.06728 14.8651 3.04102 14.8919C3.01476 14.9187 2.98327 14.9396 2.94859 14.9531C2.91392 14.9667 2.87683 14.9726 2.83975 14.9706C2.76743 14.9688 2.69865 14.9382 2.64812 14.8854C2.59759 14.8326 2.56932 14.7617 2.56934 14.6879C2.57224 14.6154 2.60053 14.5464 2.64906 14.4934C2.69759 14.4404 2.76314 14.4069 2.8338 14.3991C2.87123 14.3979 2.9085 14.4045 2.94335 14.4184C2.9782 14.4324 3.00989 14.4535 3.0365 14.4804C3.0631 14.5073 3.08406 14.5395 3.09808 14.5749C3.11211 14.6103 3.11892 14.6483 3.1181 14.6865Z" fill="#E7D5C6"/>
<path d="M18.0133 11.0881C18.0144 11.126 18.0078 11.1637 17.994 11.1988C17.9801 11.234 17.9593 11.2658 17.9327 11.2923C17.9062 11.3188 17.8746 11.3394 17.8398 11.3528C17.8051 11.3662 17.768 11.3721 17.7309 11.3701C17.6937 11.3706 17.6568 11.3634 17.6224 11.3489C17.588 11.3344 17.5568 11.313 17.5307 11.2859C17.5046 11.2588 17.4842 11.2265 17.4707 11.1912C17.4571 11.1558 17.4508 11.118 17.4519 11.08C17.4502 11.0405 17.4568 11.0011 17.4711 10.9644C17.4854 10.9276 17.5071 10.8944 17.5349 10.8669C17.5627 10.8393 17.5959 10.8181 17.6323 10.8046C17.6687 10.7911 17.7075 10.7856 17.7461 10.7885C17.7837 10.7879 17.8209 10.7954 17.8554 10.8106C17.8898 10.8259 17.9207 10.8484 17.946 10.8767C17.9713 10.9051 17.9903 10.9386 18.0019 10.975C18.0135 11.0115 18.0174 11.05 18.0133 11.0881Z" fill="#E7D5C6"/>
<path d="M3.32904 10.7878C3.36639 10.7863 3.40363 10.7928 3.43832 10.807C3.47301 10.8213 3.50435 10.8428 3.53027 10.8703C3.5562 10.8978 3.57612 10.9305 3.58873 10.9665C3.60134 11.0024 3.60634 11.0406 3.60341 11.0786C3.60449 11.1165 3.59804 11.1543 3.58446 11.1896C3.57087 11.2249 3.55044 11.257 3.52438 11.2841C3.49832 11.3111 3.46717 11.3325 3.4328 11.3469C3.39844 11.3614 3.36157 11.3686 3.32441 11.3681C3.28591 11.37 3.24746 11.3634 3.21164 11.3489C3.17581 11.3344 3.14343 11.3123 3.11665 11.284C3.08987 11.2557 3.06931 11.2219 3.05634 11.1849C3.04337 11.1478 3.03829 11.1084 3.04143 11.0692C3.04176 11.0313 3.04952 10.9939 3.06424 10.9591C3.07896 10.9243 3.10035 10.8929 3.12715 10.8667C3.15395 10.8404 3.18562 10.82 3.22029 10.8064C3.25496 10.7929 3.29193 10.7866 3.32904 10.7878Z" fill="#E7D5C6"/>
<path d="M4.3186 10.0712H4.35497C4.34174 10.0921 4.32984 10.0908 4.3186 10.0712Z" fill="#DC968F"/>
<path d="M4.44886 4.15439C4.44975 4.23101 4.42104 4.30491 4.36895 4.36009C4.31686 4.41528 4.24557 4.44731 4.17051 4.44926C4.13321 4.44988 4.09617 4.44296 4.06151 4.42889C4.02685 4.41481 3.99527 4.39387 3.96859 4.36727C3.94191 4.34067 3.92066 4.30893 3.90606 4.2739C3.89147 4.23887 3.88382 4.20123 3.88356 4.16317C3.88268 4.08638 3.91159 4.01236 3.96398 3.95724C4.01638 3.90213 4.08801 3.8704 4.16324 3.86898C4.20037 3.86853 4.23722 3.87557 4.27168 3.88968C4.30614 3.90379 4.33754 3.9247 4.36407 3.95121C4.3906 3.97772 4.41175 4.00931 4.4263 4.04418C4.44084 4.07904 4.44851 4.1165 4.44886 4.15439Z" fill="#E7D5C6"/>
<path d="M16.8761 3.86831C16.951 3.8659 17.024 3.89347 17.0793 3.94515C17.1346 3.99683 17.168 4.06853 17.1723 4.14495C17.1743 4.18447 17.1683 4.224 17.1545 4.26101C17.1408 4.29802 17.1197 4.33172 17.0925 4.35995C17.0654 4.38819 17.0327 4.41035 16.9967 4.42502C16.9607 4.4397 16.9221 4.44658 16.8833 4.44522C16.7359 4.44522 16.5825 4.31027 16.5766 4.17532C16.5706 4.04037 16.7372 3.87236 16.8761 3.86831Z" fill="#E7D5C6"/>
</g>
<defs>
<clipPath id="clip0_172_878">
<rect width="24" height="24" fill="white"/>
</clipPath>
</defs>
</svg>
