<svg width="16" height="22" viewBox="0 0 16 22" fill="none" xmlns="http://www.w3.org/2000/svg">
<g clip-path="url(#clip0_166_392)">
<path d="M15.7531 20.1756C15.8212 20.1682 15.8893 20.1578 15.9574 20.1536C16.0075 20.1536 16.0009 20.1223 15.998 20.0805C15.9857 19.9101 15.9801 19.7388 15.9687 19.5674C15.947 19.2466 15.9261 18.9248 15.9006 18.604C15.8685 18.1996 15.8316 17.7962 15.7966 17.3918C15.7654 17.0272 15.7389 16.6604 15.702 16.2988C15.6556 15.8161 15.6074 15.3344 15.5563 14.8516C15.5052 14.3689 15.4703 13.9018 15.4201 13.4284C15.353 12.7962 15.2792 12.1651 15.2083 11.534C15.1411 10.9342 15.0787 10.3333 15.0077 9.73459C14.9264 9.04075 14.8375 8.34796 14.7533 7.65413C14.6786 7.04284 14.6076 6.43156 14.5301 5.82132C14.4554 5.22675 14.375 4.63323 14.2974 4.03866C14.2085 3.36155 14.1224 2.68025 14.0316 2.00836C13.9484 1.39498 13.8604 0.782653 13.7762 0.169278C13.7516 -0.00940588 13.7545 -0.00940563 13.5994 0.00626835C13.571 0.00626835 13.5417 0.00626835 13.5123 0.00626835C13.1122 0.0229873 12.7122 0.0344814 12.3121 0.0616496C12.1759 0.071054 12.0387 0.073143 11.9016 0.0835923L10.4904 0.198535C10.1669 0.224659 9.84244 0.244515 9.51991 0.275863C9.02145 0.324974 8.52392 0.380355 8.02546 0.437826C7.5601 0.487983 7.0938 0.531869 6.62844 0.58725C6.08458 0.653081 5.54166 0.727271 4.99779 0.796237C4.56176 0.852663 4.12573 0.908045 3.69063 0.969696C3.16537 1.04493 2.64106 1.12365 2.11769 1.20585C1.69395 1.27133 1.27051 1.341 0.847404 1.41484C0.618508 1.45455 0.619453 1.46082 0.621345 1.72832C0.48441 1.78133 0.356515 1.8594 0.243004 1.95925C-0.0407506 2.23511 -0.0908792 2.71578 0.161663 2.98014C0.249627 3.07314 0.221251 3.10763 0.161663 3.18391C-0.0577745 3.46395 -0.0568213 3.88924 0.169237 4.11912C0.241122 4.19122 0.23544 4.22362 0.174906 4.29467C-0.0606107 4.58621 -0.0643941 5.00732 0.174906 5.24556C0.250574 5.32288 0.233549 5.35005 0.174906 5.42424C-0.0549356 5.70846 -0.0606074 6.12957 0.166397 6.36468C0.23639 6.43783 0.238277 6.46917 0.173959 6.55068C-0.0596657 6.83699 -0.0596657 7.26332 0.173959 7.50157C0.243952 7.57262 0.232602 7.60606 0.173959 7.6698C-0.0568282 7.95298 -0.0719618 8.36677 0.150313 8.60293C0.244898 8.69906 0.220306 8.73877 0.150313 8.82654C0.0460736 8.95379 -0.0103785 9.12012 -0.00756731 9.29171C-0.00475608 9.4633 0.0571107 9.62726 0.16545 9.75026C0.239226 9.8255 0.227876 9.85475 0.16545 9.9279C-0.0653376 10.2153 -0.0729021 10.6332 0.155994 10.8683C0.236391 10.9519 0.21842 10.9864 0.155994 11.0637C-0.067227 11.3448 -0.0691187 11.7628 0.155994 11.9979C0.228824 12.0742 0.224089 12.1024 0.161663 12.1829C-0.0700705 12.4671 -0.0700705 12.9007 0.161663 13.1348C0.234493 13.2059 0.21936 13.2341 0.161663 13.302C-0.0738539 13.5935 -0.0795258 14.0125 0.153153 14.2539C0.2222 14.326 0.223141 14.3584 0.159769 14.4326C-0.0748016 14.7179 -0.0795309 15.1473 0.159769 15.3835C0.236383 15.4598 0.220304 15.488 0.159769 15.5601C-0.0700724 15.8433 -0.0776369 16.2633 0.150313 16.5005C0.228819 16.5831 0.213685 16.6186 0.150313 16.6959C-0.076691 16.9822 -0.0738452 17.4033 0.158834 17.6364C0.227881 17.7064 0.220314 17.7356 0.158834 17.8046C-0.0766827 18.0909 -0.0842588 18.5172 0.149366 18.7555C0.227872 18.8359 0.207063 18.8704 0.149366 18.9415C0.0914052 19.0078 0.0462694 19.0864 0.0167024 19.1726C-0.0128645 19.2588 -0.0262398 19.3508 -0.0226118 19.4428C-0.0189837 19.5349 0.00157461 19.6252 0.0378086 19.7083C0.0740425 19.7913 0.125193 19.8653 0.188149 19.9258C0.237334 19.976 0.208963 19.9927 0.181533 20.024C0.0693497 20.1506 -0.00124162 20.3151 -0.0189863 20.4911C-0.0492535 20.7962 0.134232 21.1055 0.373532 21.1505C0.421771 21.1588 0.477577 21.1703 0.505007 21.1254C0.532436 21.0805 0.477579 21.0355 0.448258 21C0.231658 20.7356 0.274224 20.4326 0.557033 20.2518C0.588246 20.2832 0.577839 20.326 0.577839 20.3647C0.577839 20.5434 0.577839 20.722 0.577839 20.9007C0.577839 21.0794 0.577845 21.0648 0.725397 21.0731C0.725397 21.3292 0.725397 21.5852 0.725397 21.8401C0.725397 21.9248 0.739579 21.9603 0.825651 21.9613C1.18697 21.9613 1.54829 21.9718 1.90866 21.9749C2.70695 21.9843 3.50525 21.9979 4.30449 21.9645C4.84835 21.9415 5.39506 21.9572 5.93987 21.9384C6.39388 21.9237 6.84788 21.9112 7.30283 21.8924C7.70576 21.8757 8.10964 21.8631 8.51258 21.8422C8.79633 21.8276 9.0886 21.8036 9.37614 21.7962C9.83393 21.7858 10.2889 21.7335 10.7467 21.7168C10.9548 21.7095 11.1628 21.6876 11.3709 21.6688C11.7786 21.6311 12.1872 21.5904 12.5958 21.5517C12.8682 21.5256 13.1406 21.5057 13.4121 21.4754C13.7904 21.4326 14.1688 21.3835 14.5471 21.3354C14.9254 21.2874 15.2896 21.2445 15.6575 21.1724C15.7975 21.1452 15.8032 21.1233 15.7862 20.9634C15.7635 20.7016 15.7524 20.4386 15.7531 20.1756Z" fill="white"/>
<path d="M0.624244 1.7325C0.624244 1.465 0.624245 1.45873 0.850303 1.41902C1.27278 1.34518 1.69621 1.27552 2.12058 1.21003C2.64459 1.12853 3.1689 1.04981 3.69353 0.973877C4.12862 0.912226 4.56466 0.856844 5.00069 0.800418C5.54456 0.729362 6.08747 0.655172 6.63134 0.591431C7.0967 0.53605 7.563 0.492164 8.02836 0.442007C8.52682 0.38767 9.02435 0.329152 9.52281 0.28004C9.84534 0.248692 10.1698 0.22884 10.4932 0.202716L11.9045 0.0877732C12.0416 0.0773239 12.1787 0.0752349 12.3149 0.0658305C12.715 0.0386623 13.1151 0.0271682 13.5152 0.0104493C13.5446 0.0104493 13.5739 0.0104493 13.6022 0.0104493C13.7574 -0.00522473 13.7545 -0.00522498 13.7791 0.173458C13.8633 0.786834 13.9513 1.39916 14.0345 2.01254C14.1291 2.68861 14.2114 3.37095 14.3003 4.04284C14.3778 4.63741 14.4583 5.23093 14.533 5.8255C14.6105 6.43574 14.6815 7.04702 14.7562 7.65831C14.8404 8.35214 14.9293 9.04493 15.0106 9.73877C15.0816 10.3375 15.144 10.9384 15.2111 11.5381C15.2821 12.1651 15.3559 12.8004 15.423 13.4326C15.4731 13.906 15.5176 14.3814 15.5592 14.8558C15.6008 15.3302 15.6538 15.8203 15.7049 16.303C15.7389 16.6667 15.7654 17.0345 15.7995 17.396C15.8345 17.8004 15.8713 18.2038 15.9035 18.6082C15.929 18.9289 15.9499 19.2508 15.9716 19.5716C15.983 19.7429 15.9886 19.9143 16.0009 20.0846C16.0009 20.1264 16.0104 20.1536 15.9603 20.1578C15.8922 20.1578 15.8241 20.1724 15.7559 20.1797C15.5299 20.1964 15.3038 20.21 15.0787 20.2299C14.6597 20.2665 14.2416 20.3124 13.8217 20.3448C13.4282 20.3762 13.0329 20.4044 12.6394 20.4389C12.2232 20.4765 11.807 20.5068 11.3909 20.534C10.9747 20.5611 10.5453 20.6019 10.1215 20.6311C9.6486 20.6646 9.18135 20.6907 8.71126 20.7273C8.35657 20.7565 8.00093 20.7785 7.64529 20.7983C7.26695 20.8203 6.88861 20.8516 6.50365 20.8704C6.08653 20.8913 5.66941 20.9206 5.25324 20.9425C4.90422 20.9603 4.5552 20.9739 4.20618 20.9916C3.85716 21.0094 3.51476 21.0251 3.16574 21.0376C2.88199 21.0481 2.58877 21.0596 2.30123 21.0658C1.7848 21.0773 1.26837 21.0836 0.751931 21.092C0.605324 21.0836 0.60533 21.0836 0.604385 20.9195C0.603439 20.7555 0.604385 20.5622 0.604385 20.3835C0.604385 20.3448 0.614792 20.302 0.583579 20.2706C0.715051 20.1828 0.865967 20.1369 1.01961 20.1379C1.02203 20.1574 1.02203 20.177 1.01961 20.1965C1.00053 20.2488 0.999627 20.3071 1.01709 20.3601C1.03454 20.4132 1.06913 20.4572 1.1142 20.4838C1.2173 20.5632 1.33269 20.6364 1.46795 20.5538C1.47112 20.5618 1.4757 20.5691 1.48143 20.5751C1.48716 20.5811 1.49393 20.5858 1.50133 20.5889C1.50872 20.5921 1.5166 20.5935 1.52451 20.5932C1.53242 20.5929 1.5402 20.5909 1.54739 20.5873C1.56537 20.5873 1.58239 20.581 1.58712 20.558C1.63767 20.5621 1.68826 20.5507 1.73332 20.5251C1.77838 20.4995 1.81616 20.4606 1.8425 20.4127C1.85949 20.3919 1.87251 20.3675 1.88079 20.341C1.88906 20.3144 1.89241 20.2864 1.89065 20.2584C1.88888 20.2304 1.88203 20.2031 1.87051 20.1781C1.85899 20.1531 1.84303 20.1309 1.82359 20.1129C1.74075 20.0304 1.6365 19.9788 1.52564 19.9655C1.44547 19.8786 1.34936 19.8117 1.24379 19.7693C1.13822 19.727 1.02565 19.7101 0.913679 19.72C0.811528 19.72 0.715048 19.7628 0.614788 19.7732C0.574116 19.5643 0.605332 19.3553 0.593982 19.1463C0.723567 19.0532 0.875455 19.0051 1.03002 19.0084C1.0325 19.0278 1.0325 19.0475 1.03002 19.0669C0.977995 19.2069 1.04421 19.2988 1.13785 19.3678C1.23148 19.4368 1.34876 19.5005 1.47362 19.4263C1.4811 19.4419 1.49364 19.4538 1.50873 19.4596C1.52381 19.4654 1.54032 19.4647 1.55496 19.4577C1.57198 19.4577 1.58996 19.4514 1.59469 19.4284C1.66242 19.428 1.72837 19.4045 1.78356 19.3611C1.83874 19.3177 1.88046 19.2565 1.90303 19.186C1.92195 19.0909 1.82737 18.9415 1.71386 18.8882C1.66525 18.8617 1.61027 18.8529 1.55685 18.8631L1.5332 18.837C1.45256 18.7484 1.35525 18.6804 1.24819 18.638C1.14113 18.5956 1.02693 18.5797 0.913679 18.5914C0.810024 18.6058 0.707105 18.626 0.605331 18.652C0.585613 18.4455 0.576767 18.2379 0.578845 18.0303C0.716164 17.9336 0.875697 17.8825 1.03853 17.883C1.0404 17.9024 1.0404 17.922 1.03853 17.9415C1.02028 17.9912 1.01854 18.0465 1.0336 18.0976C1.04865 18.1486 1.07954 18.1921 1.12081 18.2205C1.23053 18.3051 1.3431 18.3772 1.48214 18.2999C1.48964 18.3158 1.50228 18.3279 1.51754 18.3339C1.53279 18.3399 1.54954 18.3393 1.56442 18.3323C1.58145 18.3323 1.59847 18.326 1.6032 18.303C1.66918 18.306 1.73421 18.2848 1.78812 18.2426C1.84202 18.2005 1.88176 18.1398 1.90114 18.07C1.93898 17.9404 1.85858 17.8725 1.78196 17.8056C1.75168 17.7774 1.71623 17.7567 1.67803 17.745C1.63983 17.7332 1.59978 17.7308 1.56064 17.7377L1.53794 17.7116C1.4582 17.6255 1.36285 17.5592 1.25818 17.5168C1.1535 17.4745 1.04188 17.4572 0.930698 17.466C0.816946 17.4807 0.704165 17.5034 0.593035 17.534C0.566551 17.3312 0.599649 17.1243 0.562761 16.9216C0.709771 16.81 0.884797 16.7523 1.06312 16.7565C1.01015 16.8725 0.996916 16.9833 1.10474 17.07C1.21257 17.1567 1.32891 17.2581 1.48308 17.1745C1.49039 17.1905 1.50314 17.2027 1.51856 17.2084C1.53398 17.2141 1.55082 17.2128 1.56537 17.2048C1.63721 17.1954 1.70614 17.1678 1.76684 17.1243C1.9352 17.0199 1.956 16.8171 1.80466 16.698C1.77106 16.6642 1.73134 16.6387 1.68812 16.6232C1.6449 16.6077 1.59918 16.6026 1.55402 16.6082C1.47946 16.5162 1.38706 16.4439 1.28372 16.3969C1.18038 16.3499 1.06876 16.3292 0.957185 16.3365C0.824382 16.346 0.693166 16.3738 0.566548 16.419C0.566548 16.3208 0.566548 16.2215 0.566548 16.1233C0.566548 16.0251 0.591143 15.9143 0.545742 15.8098C0.690474 15.6898 0.867014 15.6259 1.04798 15.628C1.02168 15.6942 1.01875 15.7688 1.03975 15.8373C1.06075 15.9058 1.10418 15.963 1.16149 15.9979C1.26325 16.0661 1.38299 16.0942 1.50105 16.0773H1.57104C1.63887 16.0704 1.70398 16.0445 1.76021 16.0021C1.92384 15.8851 1.98344 15.7252 1.80183 15.5632C1.76887 15.5327 1.73074 15.5096 1.68966 15.4955C1.64859 15.4813 1.60538 15.4763 1.56253 15.4807L1.53983 15.4556C1.45899 15.3673 1.36166 15.2995 1.25464 15.2571C1.14763 15.2147 1.03352 15.1986 0.920295 15.21C0.795226 15.223 0.672014 15.2524 0.553305 15.2978L0.542902 14.6834C0.68659 14.5619 0.863306 14.4978 1.04421 14.5016C1.01965 14.5721 1.01957 14.6502 1.04402 14.7208C1.06847 14.7915 1.1157 14.8496 1.17662 14.884C1.27565 14.9404 1.38741 14.9636 1.49821 14.9509H1.56631C1.648 14.9338 1.72562 14.8982 1.79426 14.8464C1.9333 14.7241 1.94181 14.5789 1.81507 14.4441C1.78185 14.4075 1.74145 14.3799 1.69698 14.3634C1.65252 14.3469 1.60521 14.342 1.55874 14.349L1.53604 14.3229C1.45234 14.2321 1.35132 14.1631 1.24036 14.1209C1.1294 14.0788 1.01132 14.0646 0.894755 14.0794C0.777009 14.0948 0.661014 14.1235 0.548583 14.1651C0.526828 13.9624 0.542908 13.7586 0.537233 13.5549C0.692668 13.4223 0.885922 13.3556 1.08203 13.3668C1.06389 13.3855 1.04828 13.4069 1.03569 13.4305C0.988394 13.5496 1.0442 13.627 1.11703 13.7001C1.16352 13.7518 1.22257 13.7874 1.28702 13.8028C1.35147 13.8182 1.41859 13.8127 1.48024 13.7868C1.48789 13.8023 1.50043 13.814 1.51546 13.8198C1.53048 13.8256 1.54692 13.825 1.56158 13.8182C1.60699 13.8046 1.65617 13.7952 1.6959 13.7785C1.75132 13.7614 1.80092 13.7266 1.83846 13.6784C1.87599 13.6303 1.89978 13.5709 1.90682 13.5078C1.89868 13.4448 1.874 13.3858 1.83585 13.3381C1.79769 13.2903 1.74773 13.256 1.69211 13.2393C1.64845 13.2208 1.60121 13.215 1.55496 13.2226L1.53131 13.1975C1.44925 13.1083 1.35049 13.0401 1.24198 12.9977C1.13346 12.9552 1.01785 12.9396 0.903276 12.9519C0.783057 12.9708 0.663976 12.9977 0.546689 13.0324C0.501288 13.0052 0.517361 12.9561 0.516415 12.9154C0.516415 12.7576 0.516415 12.6019 0.516415 12.441C0.664863 12.3103 0.8497 12.2405 1.03947 12.2435C1.0215 12.3584 1.0111 12.4702 1.1019 12.557C1.15385 12.6082 1.21528 12.6464 1.28193 12.6687C1.34857 12.6911 1.41882 12.6972 1.48781 12.6865H1.56064C1.57861 12.6865 1.59469 12.6803 1.60131 12.6583C1.66786 12.6644 1.73421 12.6444 1.78871 12.6018C1.8432 12.5591 1.88234 12.4966 1.89925 12.4253C1.90569 12.3665 1.89529 12.3069 1.86951 12.255C1.84372 12.2031 1.80383 12.1614 1.75548 12.1358C1.68945 12.0944 1.61564 12.0705 1.53983 12.0658C1.46017 11.9794 1.36468 11.9127 1.25978 11.8704C1.15489 11.828 1.04301 11.8109 0.931645 11.8203C0.791995 11.8359 0.654704 11.871 0.523043 11.9248V11.3177C0.676677 11.1792 0.870645 11.1071 1.0688 11.1149C1.0386 11.1643 1.02612 11.2242 1.03382 11.2832C1.04151 11.3421 1.06883 11.3958 1.11041 11.4336C1.23526 11.5559 1.37809 11.5946 1.48875 11.5329C1.49572 11.5488 1.508 11.5611 1.52301 11.5671C1.53802 11.5731 1.55456 11.5725 1.56915 11.5653C1.58712 11.5653 1.60415 11.559 1.60888 11.536C1.65341 11.541 1.69832 11.5331 1.73927 11.5131C1.78021 11.4931 1.81577 11.4618 1.8425 11.4222C1.94843 11.3072 1.94654 11.2079 1.8425 11.0867C1.7614 11.0028 1.65642 10.9525 1.5455 10.9446C1.46606 10.8577 1.37064 10.7907 1.26571 10.7482C1.16077 10.7056 1.04878 10.6885 0.937326 10.698C0.798002 10.7138 0.661029 10.7489 0.529659 10.8025V10.1975C0.675832 10.0609 0.862299 9.98844 1.05366 9.99373C1.05659 10.0131 1.05659 10.0329 1.05366 10.0522C1.00259 10.1776 1.06501 10.2612 1.14825 10.3292C1.2504 10.4138 1.36295 10.4943 1.50105 10.4117C1.50885 10.4269 1.52146 10.4384 1.53647 10.444C1.55148 10.4496 1.56783 10.4489 1.58239 10.442C1.59942 10.442 1.61739 10.4368 1.62212 10.4127C1.66144 10.4172 1.70116 10.4118 1.73833 10.397C1.7755 10.3822 1.80917 10.3583 1.83683 10.3271C1.86274 10.3095 1.88469 10.2856 1.90106 10.2572C1.91743 10.2289 1.92778 10.1969 1.93133 10.1635C1.93488 10.1301 1.93153 10.0963 1.92155 10.0645C1.91158 10.0328 1.89522 10.0039 1.87371 9.98015C1.79129 9.88522 1.67949 9.82812 1.56064 9.82027C1.47972 9.73207 1.38239 9.66441 1.27539 9.622C1.1684 9.57959 1.05432 9.56346 0.941101 9.57471C0.805492 9.59259 0.672201 9.62766 0.543849 9.67921V9.07315C0.697306 8.93421 0.891318 8.86177 1.08961 8.86938C1.08961 8.92477 1.04136 8.96552 1.04798 9.02612C1.06879 9.21526 1.3516 9.37618 1.50861 9.28736C1.51612 9.30321 1.52877 9.31535 1.54402 9.32135C1.55928 9.32736 1.57601 9.32679 1.5909 9.31975C1.60792 9.31975 1.62495 9.31348 1.62968 9.29049C1.69226 9.29223 1.75389 9.27325 1.80664 9.23602C1.85939 9.19878 1.90086 9.14497 1.92573 9.08151C1.93949 9.05337 1.94589 9.02156 1.94422 8.98964C1.94255 8.95771 1.93287 8.92693 1.91628 8.90073C1.83021 8.79624 1.73657 8.69175 1.58712 8.72205L1.56442 8.69488C1.4844 8.60866 1.38872 8.54219 1.28372 8.49986C1.17871 8.45753 1.06677 8.4403 0.955291 8.44932C0.815968 8.46508 0.679006 8.50019 0.547636 8.55382V7.94566C0.70152 7.80843 0.894764 7.73652 1.09245 7.74295C1.0357 7.91432 1.04231 7.97701 1.14257 8.06792C1.19337 8.11821 1.25372 8.15529 1.31919 8.17645C1.38466 8.19761 1.45358 8.2023 1.52091 8.19018C1.5578 8.21421 1.58712 8.19018 1.61549 8.17137C1.69149 8.1693 1.76535 8.14319 1.82831 8.09614C1.8575 8.07887 1.88254 8.05415 1.90135 8.02404C1.92015 7.99393 1.93218 7.9593 1.93644 7.92302C1.94069 7.88675 1.93704 7.84987 1.9258 7.81546C1.91457 7.78105 1.89607 7.7501 1.87183 7.72518C1.78886 7.63693 1.68104 7.58272 1.56631 7.57158C1.48524 7.48392 1.38802 7.41661 1.28127 7.37423C1.17452 7.33185 1.06076 7.31541 0.947729 7.32602C0.811923 7.34267 0.678489 7.37776 0.550465 7.43051V6.81818C0.705678 6.68496 0.897839 6.61518 1.09433 6.62069C1.04514 6.80564 1.06312 6.89969 1.18891 6.99164C1.28954 7.06013 1.40847 7.08818 1.52564 7.07106H1.59563C1.61266 7.07106 1.62874 7.06479 1.63347 7.0418C1.68681 7.04626 1.74024 7.03461 1.78806 7.00811C1.83587 6.9816 1.87627 6.94124 1.90493 6.89133C1.93135 6.85326 1.9451 6.80632 1.9439 6.75837C1.94269 6.71042 1.92659 6.66439 1.8983 6.628C1.86422 6.57444 1.81765 6.53207 1.76352 6.5054C1.7094 6.47872 1.64975 6.46873 1.5909 6.47649L1.56725 6.45037C1.48473 6.36067 1.38535 6.29216 1.27614 6.24972C1.16694 6.20728 1.05061 6.19195 0.935432 6.20481C0.818231 6.22408 0.702037 6.25025 0.587354 6.28318C0.558979 6.24974 0.570335 6.20794 0.570335 6.16928C0.570335 6.00627 0.570335 5.84222 0.570335 5.67921C0.7199 5.55297 0.904324 5.48764 1.09245 5.49425C1.03853 5.69697 1.0669 5.77325 1.22675 5.87774C1.3189 5.9301 1.42227 5.95359 1.52564 5.94566H1.59374C1.61077 5.94566 1.62779 5.9394 1.63252 5.91536C1.6986 5.91735 1.76358 5.89632 1.81824 5.85525C1.8729 5.81418 1.91448 5.75515 1.93708 5.68652C1.96262 5.58203 1.90398 5.46918 1.7867 5.39185C1.72802 5.35159 1.65807 5.33636 1.58995 5.34901L1.56725 5.32288C1.48763 5.23666 1.39229 5.17017 1.28759 5.12783C1.18288 5.08549 1.07122 5.06827 0.960025 5.07732C0.835393 5.09152 0.712219 5.11846 0.592088 5.15779V4.53605C0.732517 4.42467 0.901614 4.36606 1.07447 4.36886C1.07447 4.41275 1.07447 4.45664 1.07447 4.50052C1.07447 4.71682 1.33553 4.88506 1.51619 4.78683C1.52383 4.80225 1.53638 4.81399 1.5514 4.81978C1.56642 4.82557 1.58286 4.825 1.59753 4.81818C1.65725 4.80465 1.71604 4.78649 1.77345 4.76384C1.93425 4.68652 1.99478 4.50366 1.90114 4.37931C1.86661 4.32519 1.8197 4.28216 1.7652 4.25463C1.71069 4.22709 1.65054 4.21603 1.5909 4.22257L1.56725 4.19645C1.488 4.10959 1.39275 4.04261 1.28797 4.00005C1.18318 3.9575 1.07133 3.94037 0.960025 3.94984C0.842517 3.96463 0.726165 3.98909 0.611947 4.02299C0.611947 3.814 0.611947 3.60502 0.611947 3.39081C0.754703 3.28835 0.922276 3.23624 1.09245 3.24138C1.05083 3.46917 1.07826 3.54336 1.22108 3.62382C1.31245 3.67731 1.41617 3.69951 1.51901 3.68757H1.5909C1.60603 3.70742 1.60698 3.69383 1.60698 3.6792C1.81602 3.64368 1.92384 3.54232 1.93708 3.40439C1.95506 3.22466 1.79048 3.07942 1.58618 3.09091L1.56348 3.06479C1.48227 2.97705 1.38488 2.90969 1.27797 2.86731C1.17105 2.82493 1.05712 2.80853 0.943941 2.81923C0.838952 2.82654 0.739638 2.86207 0.63654 2.87983C0.626766 2.72934 0.630249 2.57816 0.646943 2.42842C0.655953 2.39826 0.659257 2.36637 0.656653 2.33473C0.65405 2.3031 0.645604 2.27239 0.631818 2.24451C0.76933 2.15143 0.928398 2.10459 1.08961 2.10972C1.05461 2.22884 1.03663 2.3511 1.14162 2.43365C1.24661 2.5162 1.36106 2.6186 1.50861 2.52769C1.51558 2.54357 1.52787 2.55583 1.54288 2.56188C1.55789 2.56792 1.57443 2.56728 1.58902 2.56008C1.68681 2.55444 1.77991 2.51204 1.8529 2.43992C1.87877 2.41829 1.89975 2.39033 1.91419 2.35824C1.92863 2.32615 1.93615 2.2908 1.93615 2.25496C1.93615 2.21913 1.92863 2.18378 1.91419 2.15169C1.89975 2.1196 1.87877 2.09164 1.8529 2.07001C1.77164 1.99109 1.66868 1.9447 1.56064 1.93835C1.48231 1.85248 1.38831 1.78607 1.2849 1.74355C1.18148 1.70102 1.07105 1.68336 0.960972 1.69174C0.848056 1.69734 0.735577 1.71095 0.624244 1.7325ZM4.17876 10.2121C4.19942 10.2061 4.22078 10.2037 4.24212 10.2048C4.56243 10.2642 4.88683 10.2926 5.21162 10.2894C6.07423 10.3051 6.93779 10.3009 7.80135 10.256C8.42467 10.2236 9.04609 10.1797 9.66562 10.1034C9.81287 10.088 9.95833 10.0562 10.0998 10.0084C10.13 9.99791 10.1726 9.99373 10.1698 9.9488C10.1669 9.90387 10.1206 9.91014 10.0931 9.89551C10.0793 9.89088 10.065 9.88842 10.0506 9.88819L9.6486 9.81818C9.68454 9.81818 9.72049 9.81087 9.75643 9.80982C10.1348 9.79833 10.5226 9.78475 10.9056 9.77848C10.9832 9.77848 11.0002 9.74399 10.9936 9.67398C10.986 9.37931 10.986 9.08255 10.9766 8.78788C10.9463 7.90491 10.8877 7.02508 10.8101 6.14629C10.7458 5.41484 10.6654 4.68338 10.5869 3.95716C10.5746 3.8443 10.5472 3.79833 10.4318 3.79624C9.799 3.78161 9.16622 3.79624 8.53439 3.82654C7.64907 3.87461 6.76659 3.95193 5.88601 4.04702C5.25986 4.11494 4.63465 4.18913 4.01039 4.27586C3.9404 4.28527 3.92148 4.31139 3.92148 4.38036C3.92148 4.54023 3.90919 4.7001 3.90635 4.85893C3.8846 6.59039 3.94512 8.3187 4.02836 10.047C4.03592 10.2309 4.03688 10.2309 4.17876 10.2121ZM2.74579 15.4995C2.77513 15.4633 2.79275 15.4173 2.79591 15.3689C2.85593 14.8996 2.89005 14.4268 2.89807 13.953C2.91699 13.4838 2.92644 13.0125 2.94252 12.5434C2.9586 12.0742 2.96049 11.6332 2.96238 11.1787C2.96806 9.5768 2.99171 7.97492 2.94915 6.372C2.93875 5.95402 2.94914 5.54232 2.93117 5.12644C2.9132 4.65308 2.90375 4.17868 2.88577 3.70429C2.87159 3.32184 2.8451 2.94148 2.81389 2.56008C2.816 2.48869 2.79598 2.41865 2.75714 2.36155C2.71174 2.39498 2.71363 2.43992 2.70795 2.48276C2.63607 3.0115 2.63134 3.54545 2.60391 4.07837C2.57837 4.58725 2.57175 5.09823 2.55945 5.60815C2.54715 6.13062 2.54621 6.66144 2.54243 7.18809C2.53108 8.55381 2.51973 9.92059 2.55567 11.2863C2.56513 11.6531 2.55567 12.0178 2.57175 12.3866C2.58972 12.9164 2.59161 13.4472 2.61998 13.977C2.6389 14.3354 2.64647 14.6938 2.67106 15.0512C2.67229 15.2043 2.69757 15.356 2.74579 15.4995ZM9.3516 1.06792C8.73775 1.05643 8.122 1.0815 7.51288 1.13271C6.9955 1.1745 6.48 1.22988 5.96546 1.30303C5.26138 1.39737 4.56258 1.53482 3.87229 1.71473C3.64959 1.76407 3.43168 1.83685 3.22154 1.93208C3.20074 1.94357 3.16669 1.9488 3.17237 1.98642C3.17804 2.02403 3.20831 2.02299 3.23291 2.02194C3.33789 2.02194 3.44383 2.02821 3.54787 2.02194C3.9631 1.9791 4.37832 1.92999 4.79449 1.8861C5.21067 1.84221 5.60415 1.80251 6.00992 1.76071C6.46487 1.71473 6.91982 1.66458 7.37572 1.62382C7.80325 1.58621 8.23109 1.55451 8.65925 1.52874C9.30337 1.49112 9.94938 1.4629 10.5935 1.42424C10.8773 1.40961 11.161 1.39394 11.4448 1.37304C11.545 1.36573 11.6443 1.34274 11.7446 1.32602C11.7654 1.32602 11.7891 1.31453 11.7891 1.28422C11.7891 1.25392 11.7683 1.25287 11.7522 1.2466C11.7318 1.23909 11.7109 1.23316 11.6897 1.22884C11.2083 1.10972 10.7174 1.09927 10.2284 1.07105C9.93992 1.05329 9.64671 1.06792 9.3516 1.06792Z" fill="#A0D1CA"/>
<path d="M0.75293 21.0878C1.26936 21.0794 1.7858 21.0731 2.30223 21.0616C2.58599 21.0554 2.87826 21.0439 3.16674 21.0334C3.51198 21.0209 3.85816 21.0042 4.20718 20.9874C4.55619 20.9707 4.90522 20.9561 5.25424 20.9383C5.67041 20.9164 6.08753 20.8871 6.50465 20.8662C6.88299 20.8474 7.26132 20.8161 7.64629 20.7941C8.00192 20.7743 8.35757 20.7523 8.71226 20.7231C9.18518 20.6865 9.65244 20.6604 10.1225 20.6269C10.5463 20.5977 10.9738 20.558 11.3918 20.5298C11.8099 20.5016 12.2242 20.4723 12.6404 20.4347C13.0339 20.4002 13.4292 20.372 13.8227 20.3406C14.2426 20.3082 14.6607 20.2623 15.0797 20.2257C15.3048 20.2058 15.5309 20.1923 15.7569 20.1755C15.7648 20.4457 15.785 20.7153 15.8175 20.9833C15.8345 21.1379 15.8288 21.1599 15.6889 21.1923C15.3209 21.2644 14.9501 21.3093 14.5784 21.3553C14.2067 21.4012 13.8217 21.4524 13.4434 21.4953C13.1719 21.5256 12.8995 21.5454 12.6271 21.5716C12.2185 21.6102 11.8099 21.651 11.4023 21.6886C11.1942 21.7074 10.9861 21.7294 10.778 21.7367C10.3202 21.7534 9.86525 21.8056 9.40746 21.8161C9.1237 21.8234 8.83238 21.8474 8.5439 21.8621C8.14096 21.883 7.73709 21.8955 7.33416 21.9122C6.87921 21.931 6.4252 21.9436 5.97119 21.9582C5.42638 21.977 4.87967 21.9582 4.33581 21.9843C3.53657 22.0178 2.73827 22.0042 1.93998 21.9948C1.57961 21.9948 1.21829 21.9854 0.856971 21.9812C0.770899 21.9812 0.755771 21.9446 0.756717 21.86C0.756717 21.5998 0.753876 21.3438 0.75293 21.0878Z" fill="#71ACAB"/>
<path d="M1.5382 10.4399C1.52364 10.4468 1.50729 10.4475 1.49228 10.4419C1.47727 10.4364 1.46466 10.4248 1.45686 10.4096C1.4576 10.3485 1.44619 10.288 1.42346 10.2323C1.40072 10.1766 1.36721 10.127 1.32528 10.0872C1.28335 10.0473 1.23402 10.0181 1.18076 10.0016C1.1275 9.9851 1.07161 9.9817 1.01704 9.99163C0.825672 9.98634 0.639205 10.0588 0.493032 10.1954C0.413108 10.261 0.359238 10.3582 0.342668 10.4667C0.326099 10.5751 0.348118 10.6865 0.404128 10.7774C0.430611 10.8213 0.454258 10.8443 0.498713 10.8004C0.630083 10.7468 0.767045 10.7117 0.906368 10.6959C1.01782 10.6864 1.12982 10.7035 1.23476 10.7461C1.3397 10.7886 1.43512 10.8556 1.51455 10.9425C1.63184 11.1275 1.69049 11.3197 1.57698 11.534C1.56858 11.5344 1.56044 11.5373 1.55344 11.5425C1.54644 11.5477 1.54085 11.5548 1.53725 11.5632C1.52267 11.5704 1.50612 11.571 1.49112 11.565C1.47611 11.559 1.46383 11.5467 1.45686 11.5308C1.45664 11.4485 1.43445 11.3682 1.39306 11.2998C1.35166 11.2313 1.29291 11.178 1.22417 11.1463C1.16364 11.116 1.09837 11.1337 1.035 11.1128C0.836847 11.105 0.64289 11.1771 0.489256 11.3156C0.409201 11.3815 0.355271 11.4791 0.338708 11.5879C0.322145 11.6967 0.344221 11.8084 0.400341 11.8997C0.426824 11.9436 0.450471 11.9676 0.494926 11.9227C0.626587 11.8689 0.763889 11.8338 0.903539 11.8182C1.0149 11.8088 1.12678 11.8259 1.23168 11.8683C1.33657 11.9106 1.43205 11.9773 1.51171 12.0637C1.62711 12.2497 1.68575 12.442 1.5732 12.6562C1.56478 12.6566 1.55659 12.6594 1.54946 12.6643C1.54232 12.6693 1.53648 12.6762 1.53252 12.6844H1.4597C1.40673 12.3574 1.27052 12.2205 1.01136 12.2393C0.821583 12.2363 0.636757 12.3061 0.48831 12.4368C0.412139 12.5005 0.359442 12.5926 0.339966 12.6959C0.320491 12.7993 0.335557 12.9069 0.382375 12.9989C0.421155 13.0784 0.462769 13.0919 0.521412 13.0282C0.638699 12.9935 0.75778 12.9666 0.877999 12.9477C0.992486 12.9355 1.108 12.9511 1.21648 12.9933C1.32496 13.0355 1.42379 13.1034 1.50605 13.1923L1.52969 13.2184C1.54983 13.2552 1.56814 13.2932 1.58455 13.3323C1.6517 13.5026 1.66305 13.6667 1.53631 13.814C1.52164 13.8208 1.5052 13.8214 1.49018 13.8156C1.47516 13.8098 1.46261 13.7981 1.45497 13.7826C1.45504 13.7259 1.44464 13.6697 1.42439 13.6175C1.40415 13.5653 1.37448 13.5182 1.33722 13.4791C1.29996 13.4399 1.25587 13.4096 1.20765 13.39C1.15943 13.3703 1.1081 13.3617 1.05677 13.3647C0.860656 13.3535 0.667391 13.4202 0.511956 13.5528C0.428007 13.6101 0.367667 13.7014 0.343811 13.8072C0.319956 13.913 0.334465 14.025 0.384257 14.1191C0.419253 14.1954 0.457096 14.2236 0.523306 14.163C0.635737 14.1214 0.751732 14.0927 0.869478 14.0773C0.986039 14.0625 1.10413 14.0767 1.21509 14.1188C1.32604 14.161 1.42706 14.23 1.51077 14.3208L1.53347 14.3469C1.63656 14.5444 1.70373 14.7419 1.54104 14.9436H1.47293C1.46726 14.9206 1.46064 14.8976 1.45686 14.8746C1.45283 14.8169 1.438 14.7608 1.41332 14.7098C1.38864 14.6588 1.35463 14.614 1.31347 14.5782C1.27231 14.5425 1.22488 14.5165 1.17418 14.5021C1.12348 14.4876 1.07061 14.485 1.01893 14.4942C0.838029 14.4905 0.661313 14.5546 0.517625 14.6761C0.43349 14.7348 0.373138 14.8271 0.349169 14.9338C0.325199 15.0405 0.339466 15.1533 0.388991 15.2487C0.424933 15.325 0.46371 15.3532 0.528028 15.2905C0.646737 15.2451 0.769949 15.2156 0.895018 15.2027C1.00824 15.1913 1.12235 15.2074 1.22937 15.2498C1.33638 15.2922 1.43372 15.36 1.51455 15.4483L1.53725 15.4733C1.55523 15.512 1.57603 15.5486 1.59116 15.5883C1.65832 15.7576 1.66967 15.9227 1.54482 16.07H1.47482C1.4701 16.047 1.46348 16.024 1.4597 16.001C1.45486 15.9437 1.4395 15.8881 1.41457 15.8375C1.38964 15.787 1.35565 15.7425 1.31468 15.7069C1.27371 15.6714 1.22661 15.6454 1.17626 15.6305C1.1259 15.6157 1.07334 15.6123 1.02177 15.6207C0.840802 15.6185 0.66425 15.6825 0.519519 15.8025C0.438516 15.8601 0.379736 15.9488 0.354572 16.0515C0.329408 16.1542 0.339658 16.2636 0.383322 16.3584C0.423993 16.4524 0.46939 16.4786 0.545058 16.4106C0.671676 16.3654 0.802892 16.3377 0.935695 16.3281C1.04727 16.3208 1.15889 16.3415 1.26223 16.3885C1.36557 16.4356 1.45796 16.5078 1.53252 16.5998C1.67345 16.8621 1.67629 17.0178 1.54387 17.1964C1.52931 17.2044 1.5125 17.2057 1.49707 17.2001C1.48165 17.1944 1.46889 17.1822 1.46158 17.1661C1.46189 17.1073 1.45094 17.049 1.42944 16.9951C1.40793 16.9412 1.37636 16.893 1.3368 16.8535C1.29724 16.814 1.25058 16.7842 1.19988 16.7661C1.14917 16.7479 1.09557 16.7418 1.04258 16.7482C0.864254 16.7439 0.689228 16.8017 0.542218 16.9133C0.361561 17.0491 0.298192 17.2393 0.368185 17.443C0.422098 17.6029 0.434398 17.6081 0.572492 17.5256C0.683622 17.495 0.796403 17.4723 0.910155 17.4577C1.02134 17.4488 1.13295 17.4661 1.23762 17.5085C1.3423 17.5508 1.43766 17.6172 1.5174 17.7032L1.54009 17.7294C1.6413 17.9101 1.68953 18.0951 1.58265 18.2947C1.57427 18.2947 1.56609 18.2975 1.55917 18.3027C1.55225 18.3079 1.54692 18.3153 1.54387 18.3239C1.52898 18.331 1.51225 18.3315 1.49699 18.3255C1.48174 18.3195 1.46909 18.3074 1.46158 18.2915C1.46232 18.2304 1.45092 18.1699 1.42819 18.1142C1.40546 18.0585 1.37194 18.0089 1.33 17.9691C1.28807 17.9292 1.23874 17.9 1.18548 17.8835C1.13222 17.867 1.07635 17.8636 1.02177 17.8736C0.858941 17.8731 0.699396 17.9242 0.562077 18.0209C0.379528 18.1494 0.307649 18.3239 0.354942 18.5246C0.402234 18.7252 0.435336 18.7335 0.588564 18.6426C0.690338 18.6166 0.793257 18.5964 0.896912 18.582C1.01016 18.5703 1.12436 18.5862 1.23142 18.6286C1.33849 18.671 1.4358 18.739 1.51645 18.8276L1.54009 18.8537C1.6413 19.0345 1.69048 19.2194 1.58171 19.419L1.54199 19.4483C1.52735 19.4553 1.51083 19.456 1.49575 19.4502C1.48066 19.4444 1.46812 19.4325 1.46063 19.4169C1.46137 19.3558 1.44998 19.2953 1.42724 19.2396C1.40451 19.1839 1.37099 19.1343 1.32906 19.0945C1.28712 19.0546 1.23779 19.0254 1.18453 19.0089C1.13128 18.9924 1.0754 18.989 1.02082 18.9989C0.866262 18.9957 0.714374 19.0438 0.584788 19.1369C0.501543 19.1751 0.432608 19.2436 0.38943 19.331C0.346251 19.4184 0.33142 19.5195 0.347379 19.6175C0.379538 19.8265 0.433449 19.8589 0.605594 19.7607C0.705854 19.7503 0.802323 19.7126 0.904474 19.7074C1.01644 19.6976 1.12901 19.7144 1.23459 19.7568C1.34016 19.7992 1.43628 19.8661 1.51645 19.953C1.63184 20.139 1.69143 20.3312 1.57793 20.5454C1.56953 20.5459 1.56139 20.5488 1.55439 20.554C1.54739 20.5591 1.5418 20.5663 1.5382 20.5747C1.5235 20.5818 1.50686 20.5823 1.49183 20.5761C1.47681 20.5698 1.4646 20.5573 1.45781 20.5413C1.42848 20.2581 1.26863 20.1097 1.01704 20.1233C0.86339 20.1222 0.712474 20.1681 0.581001 20.256C0.297246 20.4368 0.255626 20.7398 0.472226 21.0042C0.501547 21.0397 0.566809 21.07 0.528975 21.1296C0.491141 21.1891 0.445739 21.163 0.3975 21.1546C0.1582 21.1097 -0.0252855 20.8004 0.00498171 20.4953C0.0227264 20.3192 0.0933178 20.1548 0.205501 20.0282C0.232931 19.9969 0.261302 19.9801 0.212117 19.93C0.151293 19.8693 0.10205 19.7959 0.067284 19.7139C0.0325186 19.632 0.0129297 19.5432 0.0096694 19.4528C0.00640907 19.3623 0.0195468 19.2721 0.0483024 19.1873C0.077058 19.1026 0.120855 19.025 0.177121 18.9592C0.233872 18.8882 0.254681 18.8547 0.177121 18.7732C-0.0565036 18.535 -0.0489391 18.1087 0.186578 17.8224C0.244274 17.7534 0.251841 17.7241 0.186578 17.6541C-0.0461016 17.419 -0.0489359 16.9979 0.178068 16.7137C0.240494 16.6364 0.255628 16.6008 0.178068 16.5183C-0.0498818 16.2779 -0.0423173 15.8579 0.187524 15.5778C0.244275 15.5078 0.260355 15.4733 0.187524 15.4012C-0.0470465 15.1651 -0.0423173 14.7356 0.187524 14.4504C0.250896 14.3741 0.249955 14.3459 0.180908 14.2717C-0.0517707 14.0303 -0.0460988 13.6113 0.189418 13.3197C0.244277 13.2518 0.259411 13.2236 0.189418 13.1526C-0.045153 12.9185 -0.045153 12.4848 0.189418 12.2006C0.251844 12.1254 0.256568 12.0961 0.183737 12.0157C-0.0413751 11.7806 -0.0394834 11.3626 0.183737 11.0815C0.245217 11.0042 0.263189 10.9697 0.183737 10.8861C-0.0451585 10.6489 -0.0375825 10.2309 0.193205 9.94565C0.251848 9.87251 0.263198 9.84116 0.193205 9.76802C0.0848658 9.64502 0.0229991 9.48106 0.0201878 9.30947C0.0173766 9.13788 0.0738287 8.97154 0.178068 8.8443C0.247115 8.75652 0.266978 8.71682 0.178068 8.62068C-0.0442066 8.38453 -0.029073 7.97074 0.201714 7.68756C0.256574 7.61964 0.267924 7.59038 0.201714 7.51932C-0.0338023 7.28108 -0.0338023 6.85475 0.201714 6.56844C0.266032 6.48902 0.264145 6.45558 0.194152 6.38244C-0.0328523 6.1442 -0.0271804 5.72309 0.202661 5.442C0.259412 5.37095 0.276437 5.33751 0.202661 5.26331C-0.0328555 5.02507 -0.0290721 4.60396 0.202661 4.31243C0.263196 4.23824 0.268865 4.20793 0.19698 4.13688C-0.0290777 3.90699 -0.0300194 3.48171 0.189418 3.20167C0.249006 3.12539 0.277382 3.0909 0.189418 2.9979C-0.0631241 2.73353 -0.015833 2.25287 0.27076 1.97701C0.38427 1.87715 0.512165 1.79909 0.6491 1.74607C0.742806 1.72402 0.837532 1.70762 0.932855 1.69696C1.04294 1.68857 1.15337 1.70624 1.25678 1.74876C1.36019 1.79129 1.4542 1.8577 1.53252 1.94357C1.55333 1.98014 1.57509 2.01567 1.594 2.05328C1.64056 2.13077 1.6624 2.22319 1.65606 2.31593C1.64972 2.40867 1.61557 2.49642 1.55901 2.5653C1.54442 2.5725 1.52788 2.57314 1.51287 2.56709C1.49786 2.56105 1.48558 2.54879 1.47861 2.53291C1.45118 2.25809 1.30362 2.11493 1.0596 2.11493C0.898388 2.1098 0.739319 2.15664 0.601807 2.24973C0.406016 2.37303 0.32373 2.55276 0.368185 2.75966C0.408856 2.94879 0.452367 2.96865 0.606541 2.88505C0.709639 2.86729 0.808953 2.83176 0.913942 2.82444C1.02712 2.81375 1.14104 2.83015 1.24796 2.87253C1.35487 2.9149 1.45226 2.98226 1.53347 3.07L1.55617 3.09613C1.66116 3.28944 1.71508 3.4838 1.57698 3.68651C1.57384 3.68546 1.57045 3.68573 1.56748 3.68727C1.56451 3.68882 1.56217 3.69153 1.5609 3.69487H1.48901C1.43699 3.37512 1.31309 3.24555 1.06244 3.24869C0.892266 3.24355 0.724704 3.29566 0.581948 3.39811C0.382374 3.53186 0.309543 3.74816 0.392778 3.96342C0.445745 4.10031 0.45615 4.10344 0.581948 4.0303C0.696166 3.99639 0.812506 3.97194 0.930014 3.95715C1.04132 3.94768 1.15317 3.96481 1.25796 4.00736C1.36274 4.04991 1.458 4.1169 1.53725 4.20376L1.5609 4.22988C1.58104 4.26672 1.59935 4.30474 1.61576 4.34378C1.68291 4.5141 1.69426 4.67815 1.56752 4.82549C1.55285 4.8323 1.53643 4.83287 1.5214 4.82708C1.50638 4.82129 1.49382 4.80956 1.48617 4.79414C1.48689 4.73314 1.47551 4.67271 1.45283 4.61709C1.43015 4.56147 1.39673 4.512 1.35491 4.47217C1.31308 4.43234 1.26387 4.40311 1.21073 4.38652C1.15759 4.36994 1.10181 4.3664 1.0473 4.37617C0.874443 4.37337 0.705346 4.43197 0.564918 4.54336C0.477211 4.59748 0.411877 4.687 0.382606 4.79317C0.353335 4.89934 0.362397 5.0139 0.407903 5.11284C0.445737 5.20166 0.488306 5.24033 0.566811 5.16509C0.686942 5.12577 0.810116 5.09883 0.934748 5.08463C1.04594 5.07558 1.15761 5.09279 1.26231 5.13513C1.36701 5.17748 1.46236 5.24397 1.54199 5.33019L1.56469 5.35632C1.66589 5.53709 1.71507 5.72308 1.60725 5.92267C1.58738 5.92267 1.57792 5.9373 1.56846 5.95297H1.50036C1.49469 5.92998 1.48806 5.90699 1.48428 5.884C1.48027 5.82836 1.46621 5.77417 1.44293 5.72463C1.41966 5.67509 1.38764 5.63121 1.34877 5.59556C1.30989 5.55991 1.26494 5.53323 1.21657 5.51709C1.16821 5.50094 1.11741 5.49566 1.06717 5.50156C0.879047 5.49495 0.694623 5.56028 0.545058 5.68651C0.461196 5.74522 0.400976 5.83729 0.376856 5.94369C0.352736 6.05008 0.366562 6.16265 0.415477 6.25809C0.456149 6.34273 0.498716 6.35736 0.561142 6.29048C0.675824 6.25755 0.792007 6.23139 0.909208 6.21211C1.02439 6.19925 1.14072 6.21459 1.24992 6.25703C1.35912 6.29947 1.45852 6.36798 1.54104 6.45767L1.56469 6.48379C1.66589 6.66457 1.71507 6.84952 1.60725 7.0491C1.59909 7.04957 1.59121 7.05256 1.58452 7.05773C1.57783 7.0629 1.57259 7.07005 1.56941 7.07836H1.49942C1.49469 7.05537 1.48806 7.03239 1.48428 7.0094C1.48015 6.95385 1.46601 6.89977 1.44268 6.85035C1.41935 6.80093 1.38731 6.75717 1.34844 6.72163C1.30958 6.68609 1.26467 6.6595 1.21637 6.64342C1.16806 6.62734 1.11734 6.6221 1.06717 6.628C0.87068 6.62249 0.678519 6.69227 0.523306 6.82549C0.443168 6.89308 0.389356 6.99187 0.372838 7.10176C0.35632 7.21164 0.378331 7.32434 0.43439 7.41692C0.461819 7.46081 0.485466 7.48066 0.528975 7.43782C0.656999 7.38507 0.790433 7.34997 0.926239 7.33332C1.03927 7.32271 1.15303 7.33916 1.25978 7.38153C1.36653 7.42391 1.46375 7.49123 1.54482 7.57888C1.65832 7.76906 1.73399 7.96342 1.594 8.17867C1.56374 8.19539 1.53441 8.22152 1.49942 8.19749C1.4474 7.87878 1.32065 7.74608 1.07189 7.75026C0.874209 7.74383 0.680966 7.81573 0.527081 7.95297C0.447346 8.01945 0.393705 8.11716 0.377168 8.22599C0.360631 8.33483 0.38246 8.44653 0.438177 8.53813C0.464661 8.58097 0.488307 8.60605 0.532762 8.56112C0.664132 8.50749 0.801094 8.47239 0.940417 8.45663C1.0519 8.44761 1.16384 8.46483 1.26884 8.50716C1.37385 8.54949 1.46953 8.61597 1.54955 8.70219L1.57225 8.72936C1.67346 8.91013 1.72169 9.09508 1.61481 9.29466C1.60643 9.29466 1.59825 9.29745 1.59134 9.30267C1.58442 9.30789 1.57908 9.3153 1.57604 9.32392C1.56115 9.33096 1.5444 9.33153 1.52915 9.32553C1.51389 9.31952 1.50125 9.30738 1.49375 9.29153C1.49406 9.23265 1.4831 9.17435 1.46159 9.12047C1.44009 9.0666 1.40852 9.01834 1.36896 8.97888C1.3294 8.93942 1.28274 8.90964 1.23204 8.89148C1.18133 8.87333 1.12772 8.86723 1.07473 8.87356C0.876444 8.86594 0.682432 8.93838 0.528975 9.07732C0.449564 9.14358 0.396113 9.24091 0.379581 9.34932C0.363049 9.45774 0.384695 9.56904 0.44007 9.66039C0.466554 9.70323 0.4902 9.72936 0.534655 9.68338C0.663008 9.63183 0.796299 9.59677 0.931908 9.57889C1.04512 9.56763 1.15919 9.58376 1.26619 9.62617C1.37318 9.66858 1.47053 9.73624 1.55144 9.82444C1.66873 10.0094 1.72737 10.2017 1.61293 10.4169L1.5382 10.4399Z" fill="#575757"/>
<path d="M4.17869 10.2121C4.03682 10.2309 4.03586 10.2309 4.02735 10.0491C3.94411 8.32079 3.88359 6.59247 3.90534 4.86102C3.90534 4.70219 3.91952 4.54231 3.92047 4.38244C3.92047 4.30929 3.93939 4.28317 4.00938 4.27795C4.63364 4.19122 5.25885 4.11703 5.885 4.04911C6.76653 3.95402 7.64901 3.87669 8.53338 3.82863C9.16521 3.79519 9.79799 3.78369 10.4308 3.79832C10.5462 3.79832 10.5736 3.84639 10.5859 3.95924C10.6644 4.6907 10.7448 5.41692 10.8091 6.14837C10.8867 7.02716 10.9453 7.90699 10.9756 8.78996C10.985 9.08463 10.985 9.38139 10.9926 9.67607C10.9926 9.74817 10.9822 9.78056 10.9046 9.78056C10.5263 9.78683 10.1385 9.80041 9.75542 9.81191C9.71948 9.81191 9.68354 9.81713 9.64759 9.82027C9.43099 9.81295 9.21439 9.8025 8.9978 9.79832C7.71228 9.76642 6.42614 9.80723 5.1444 9.92058C4.83106 9.94147 4.51962 9.98863 4.21274 10.0616C4.16923 10.0731 4.10681 10.0742 4.09356 10.1296C4.08032 10.1849 4.1664 10.163 4.17869 10.2121Z" fill="#F1C65E"/>
<path d="M2.74573 15.4995C2.69773 15.3566 2.67245 15.2057 2.671 15.0533C2.64641 14.6959 2.63884 14.3375 2.61992 13.9791C2.59155 13.4493 2.58966 12.9185 2.57169 12.3887C2.55939 12.0219 2.56507 11.6573 2.55561 11.2884C2.51967 9.92267 2.53102 8.5559 2.54237 7.19017C2.54237 6.66771 2.54236 6.13688 2.55939 5.61024C2.57169 5.10031 2.57831 4.58934 2.60385 4.08045C2.63128 3.54754 2.63601 3.01358 2.70789 2.48484C2.71357 2.442 2.7079 2.39707 2.75708 2.36363C2.79592 2.42074 2.81594 2.49078 2.81383 2.56217C2.84504 2.94357 2.87153 3.32393 2.88571 3.70637C2.90369 4.18077 2.91314 4.65517 2.93111 5.12852C2.94719 5.5465 2.93869 5.95924 2.94909 6.37408C2.99165 7.97492 2.968 9.5768 2.96232 11.1808C2.96232 11.6353 2.96233 12.0909 2.94246 12.5455C2.9226 13 2.91693 13.4859 2.89801 13.9551C2.88999 14.4289 2.85587 14.9017 2.79585 15.3709C2.79229 15.4187 2.77469 15.4638 2.74573 15.4995Z" fill="white"/>
<path d="M9.35156 1.06792C9.64478 1.06792 9.938 1.05329 10.2303 1.06792C10.7193 1.09613 11.2102 1.10658 11.6916 1.2257C11.7128 1.23002 11.7336 1.23595 11.754 1.24347C11.7701 1.24974 11.7909 1.25705 11.7909 1.28109C11.7909 1.30512 11.7673 1.31975 11.7465 1.32288C11.6462 1.3396 11.5469 1.36259 11.4466 1.36991C11.1629 1.3908 10.8791 1.40648 10.5954 1.42111C9.95124 1.45559 9.30521 1.4838 8.66109 1.5256C8.23293 1.55068 7.8051 1.58237 7.37758 1.62069C6.92168 1.66144 6.46672 1.7116 6.01176 1.75757C5.60599 1.79937 5.20117 1.84012 4.79635 1.88296C4.39152 1.92581 3.96495 1.97597 3.54972 2.01881C3.44568 2.02926 3.33974 2.01881 3.23475 2.01881C3.21016 2.01881 3.17989 2.01881 3.17421 1.98328C3.16854 1.94775 3.20259 1.94044 3.2234 1.92894C3.43354 1.83371 3.65145 1.76093 3.87414 1.7116C4.56443 1.53168 5.26323 1.39423 5.96731 1.29989C6.48185 1.22675 6.99734 1.17137 7.51472 1.12957C8.12763 1.0815 8.7396 1.05642 9.35156 1.06792Z" fill="white"/>
<path d="M4.17884 10.2121C4.16654 10.163 4.08425 10.1891 4.09466 10.1275C4.10506 10.0658 4.17033 10.071 4.21384 10.0596C4.52071 9.98654 4.83216 9.93938 5.1455 9.91849C6.42723 9.80514 7.71338 9.76434 8.99889 9.79623C9.21549 9.79623 9.43209 9.81086 9.64869 9.81818L10.0507 9.88819C10.0651 9.88841 10.0794 9.89088 10.0932 9.8955C10.1207 9.91013 10.168 9.90386 10.1699 9.94879C10.1717 9.99372 10.1301 9.9979 10.0999 10.0084C9.95842 10.0562 9.81295 10.088 9.6657 10.1034C9.04617 10.1797 8.42475 10.2236 7.80144 10.256C6.93788 10.3009 6.07432 10.3051 5.2117 10.2894C4.88692 10.2926 4.56251 10.2642 4.2422 10.2048C4.22087 10.2037 4.1995 10.2061 4.17884 10.2121Z" fill="white"/>
<path d="M1.01673 15.6259C1.0683 15.6176 1.12086 15.6209 1.17122 15.6358C1.22158 15.6506 1.26867 15.6766 1.30964 15.7122C1.35061 15.7478 1.3846 15.7922 1.40953 15.8428C1.43446 15.8933 1.44982 15.949 1.45466 16.0063C1.45466 16.0293 1.46507 16.0523 1.4698 16.0753C1.35173 16.0921 1.23199 16.0641 1.13023 15.9958C1.07292 15.961 1.0295 15.9037 1.0085 15.8352C0.987496 15.7668 0.990429 15.6921 1.01673 15.6259Z" fill="#71ACAB"/>
<path d="M1.01678 19.0063C1.07135 18.9963 1.12724 18.9997 1.1805 19.0162C1.23376 19.0327 1.28309 19.062 1.32502 19.1018C1.36695 19.1417 1.40046 19.1912 1.4232 19.2469C1.44593 19.3026 1.45734 19.3631 1.4566 19.4242C1.33175 19.4984 1.22202 19.4389 1.12082 19.3657C1.01961 19.2926 0.960968 19.2048 1.01299 19.0648C1.01674 19.0456 1.01801 19.0259 1.01678 19.0063Z" fill="#71ACAB"/>
<path d="M1.01667 17.8798C1.07124 17.8699 1.12713 17.8733 1.18039 17.8898C1.23365 17.9063 1.28298 17.9355 1.32491 17.9754C1.36684 18.0152 1.40035 18.0647 1.42309 18.1205C1.44582 18.1762 1.45723 18.2367 1.45649 18.2978C1.31745 18.3751 1.20489 18.303 1.09517 18.2184C1.05389 18.1901 1.02301 18.1465 1.00795 18.0955C0.992894 18.0444 0.994637 17.9892 1.01288 17.9394C1.01609 17.9197 1.01736 17.8998 1.01667 17.8798Z" fill="#71ACAB"/>
<path d="M1.01673 20.1338C1.27022 20.1181 1.42818 20.2665 1.4575 20.5517C1.32319 20.6343 1.2078 20.5611 1.1047 20.4817C1.05963 20.4551 1.02505 20.4111 1.00759 20.3581C0.990128 20.305 0.991031 20.2467 1.01012 20.1944C1.01492 20.1746 1.01714 20.1542 1.01673 20.1338Z" fill="#71ACAB"/>
<path d="M1.01686 9.99165C1.07143 9.98171 1.12732 9.98512 1.18058 10.0016C1.23383 10.0181 1.28317 10.0473 1.3251 10.0872C1.36703 10.127 1.40054 10.1766 1.42328 10.2323C1.44601 10.288 1.45741 10.3485 1.45668 10.4096C1.31858 10.4922 1.20603 10.4096 1.10388 10.3271C1.02443 10.2623 0.962 10.1756 1.00929 10.0502C1.01476 10.0313 1.01731 10.0115 1.01686 9.99165Z" fill="#71ACAB"/>
<path d="M1.01676 14.4995C1.06844 14.4902 1.1213 14.4929 1.172 14.5073C1.2227 14.5218 1.27013 14.5477 1.3113 14.5835C1.35246 14.6192 1.38646 14.664 1.41115 14.715C1.43583 14.7661 1.45065 14.8222 1.45469 14.8799C1.45469 14.9028 1.46509 14.9258 1.47077 14.9488C1.35997 14.9615 1.24821 14.9383 1.14918 14.8819C1.08826 14.8475 1.04103 14.7894 1.01658 14.7188C0.992135 14.6482 0.992194 14.5701 1.01676 14.4995Z" fill="#71ACAB"/>
<path d="M1.03761 16.7513C1.0906 16.745 1.14421 16.7511 1.19491 16.7692C1.24562 16.7874 1.29228 16.8172 1.33184 16.8566C1.3714 16.8961 1.40297 16.9443 1.42447 16.9982C1.44598 17.0521 1.45694 17.1104 1.45663 17.1693C1.3034 17.2539 1.19084 17.1588 1.07829 17.0648C0.965731 16.9707 0.984643 16.8694 1.03761 16.7513Z" fill="#71ACAB"/>
<path d="M1.05847 13.3699C1.1098 13.3669 1.16114 13.3755 1.20936 13.3952C1.25758 13.4149 1.30167 13.4452 1.33893 13.4843C1.3762 13.5234 1.40586 13.5705 1.42611 13.6227C1.44635 13.6749 1.45675 13.7311 1.45668 13.7879C1.39502 13.8137 1.32791 13.8193 1.26346 13.8039C1.199 13.7885 1.13996 13.7528 1.09347 13.7011C1.02064 13.628 0.964832 13.5507 1.01212 13.4315C1.02487 13.4087 1.04047 13.3879 1.05847 13.3699Z" fill="#71ACAB"/>
<path d="M1.03753 7.73563C1.28629 7.73563 1.41587 7.86415 1.46506 8.18286C1.39773 8.19498 1.32881 8.19028 1.26334 8.16913C1.19787 8.14797 1.13752 8.11089 1.08672 8.0606C0.987405 7.96969 0.980782 7.907 1.03753 7.73563Z" fill="#71ACAB"/>
<path d="M1.03764 8.86311C1.09064 8.85678 1.14424 8.86289 1.19495 8.88104C1.24565 8.89919 1.29231 8.92897 1.33187 8.96844C1.37143 9.0079 1.403 9.05615 1.42451 9.11003C1.44601 9.16391 1.45697 9.2222 1.45666 9.28108C1.29965 9.3699 1.01684 9.20898 0.996033 9.01985C0.989412 8.95924 1.03386 8.91849 1.03764 8.86311Z" fill="#71ACAB"/>
<path d="M1.01674 12.2456C1.27401 12.2268 1.4121 12.3636 1.46507 12.6907C1.39609 12.7014 1.32583 12.6953 1.25918 12.6729C1.19254 12.6505 1.13111 12.6124 1.07917 12.5611C0.988366 12.4723 0.998767 12.3605 1.01674 12.2456Z" fill="#71ACAB"/>
<path d="M1.03771 6.60919C1.08788 6.60329 1.13861 6.60854 1.18692 6.62462C1.23522 6.6407 1.28013 6.66728 1.31899 6.70282C1.35786 6.73836 1.3899 6.78213 1.41323 6.83155C1.43656 6.88097 1.4507 6.93504 1.45483 6.99059C1.45483 7.01358 1.46524 7.03657 1.46997 7.05956C1.3528 7.07667 1.23387 7.04863 1.13324 6.98014C1.0065 6.88819 0.988525 6.79414 1.03771 6.60919Z" fill="#71ACAB"/>
<path d="M1.01773 4.35633C1.07224 4.34656 1.12802 4.3501 1.18116 4.36668C1.23429 4.38327 1.28351 4.4125 1.32533 4.45233C1.36715 4.49216 1.40057 4.54163 1.42325 4.59725C1.44593 4.65287 1.45732 4.7133 1.45661 4.7743C1.27595 4.87252 1.01678 4.70429 1.01489 4.48799C1.01489 4.4441 1.01679 4.40021 1.01773 4.35633Z" fill="#71ACAB"/>
<path d="M1.03847 11.1223C1.09901 11.1432 1.16427 11.1223 1.22764 11.1557C1.29638 11.1874 1.35512 11.2408 1.39651 11.3092C1.43791 11.3776 1.4601 11.4579 1.46032 11.5402C1.3506 11.6019 1.20778 11.5632 1.08198 11.441C1.04009 11.4034 1.01242 11.3499 1.00438 11.2909C0.996329 11.232 1.00848 11.1718 1.03847 11.1223Z" fill="#71ACAB"/>
<path d="M1.03864 2.10136C1.28267 2.10136 1.43023 2.24452 1.45766 2.51934C1.3101 2.61025 1.19755 2.50993 1.09067 2.42529C0.983784 2.34065 1.00364 2.22049 1.03864 2.10136Z" fill="#71ACAB"/>
<path d="M1.03767 5.47962C1.08791 5.47372 1.13871 5.479 1.18708 5.49515C1.23544 5.51129 1.28039 5.53797 1.31927 5.57362C1.35814 5.60927 1.39017 5.65315 1.41345 5.70269C1.43672 5.75223 1.45078 5.80642 1.45479 5.86206C1.45479 5.88505 1.4652 5.90804 1.47088 5.93103C1.3675 5.93896 1.26413 5.91547 1.17199 5.86311C1.01214 5.76071 0.983757 5.68861 1.03767 5.47962Z" fill="#71ACAB"/>
<path d="M1.03858 3.22884C1.28923 3.22884 1.41692 3.35527 1.46516 3.67502C1.36232 3.68696 1.25859 3.66477 1.16721 3.61128C1.02817 3.53082 0.996961 3.45663 1.03858 3.22884Z" fill="#71ACAB"/>
<path d="M0.585561 2.8673C0.431387 2.95403 0.387888 2.93104 0.347216 2.7419C0.302761 2.53292 0.385047 2.35528 0.580838 2.23198C0.594624 2.25986 0.603082 2.29056 0.605685 2.3222C0.608289 2.35383 0.604985 2.38572 0.595975 2.41589C0.579281 2.56563 0.575787 2.71681 0.585561 2.8673Z" fill="white"/>
<path d="M0.601618 19.768C0.429474 19.8662 0.375562 19.8359 0.343403 19.6249C0.327444 19.5268 0.342287 19.4257 0.385465 19.3383C0.428644 19.2509 0.497567 19.1824 0.580812 19.1442C0.592163 19.3521 0.560947 19.5611 0.601618 19.768Z" fill="white"/>
<path d="M1.53796 2.55382C1.59453 2.48494 1.62868 2.39719 1.63502 2.30445C1.64136 2.21171 1.61952 2.11929 1.57296 2.0418C1.55404 2.00419 1.53228 1.96866 1.51147 1.93208C1.61952 1.93844 1.72248 1.98482 1.80374 2.06375C1.8296 2.08538 1.85058 2.11333 1.86503 2.14542C1.87947 2.17751 1.88699 2.21286 1.88699 2.2487C1.88699 2.28453 1.87947 2.31989 1.86503 2.35198C1.85058 2.38407 1.8296 2.41202 1.80374 2.43365C1.73025 2.50622 1.63641 2.54865 1.53796 2.55382Z" fill="#71ACAB"/>
<path d="M1.55207 3.67294C1.69016 3.47022 1.63624 3.27587 1.53125 3.08256C1.73555 3.07315 1.90014 3.2184 1.88217 3.39603C1.86893 3.53606 1.7611 3.63741 1.55207 3.67294Z" fill="#71ACAB"/>
<path d="M1.53788 4.80565C1.66462 4.65831 1.65327 4.49217 1.58612 4.32393C1.56971 4.2849 1.55139 4.24688 1.53125 4.21004C1.59089 4.20349 1.65104 4.21455 1.70555 4.24209C1.76005 4.26963 1.80696 4.31266 1.84149 4.36678C1.93608 4.49112 1.8746 4.67399 1.7138 4.75131C1.65639 4.77396 1.5976 4.79211 1.53788 4.80565Z" fill="#71ACAB"/>
<path d="M1.56164 8.16406C1.69784 7.9488 1.62595 7.75445 1.51245 7.56427C1.62718 7.57542 1.73499 7.62962 1.81796 7.71788C1.8422 7.74279 1.86071 7.77374 1.87195 7.80815C1.88319 7.84256 1.88683 7.87944 1.88257 7.91571C1.87832 7.95199 1.86629 7.98662 1.84748 8.01673C1.82868 8.04684 1.80364 8.07155 1.77445 8.08882C1.71149 8.13588 1.63763 8.16199 1.56164 8.16406Z" fill="#71ACAB"/>
<path d="M1.53788 13.8213C1.66462 13.674 1.65327 13.5078 1.58612 13.3396C1.56971 13.3006 1.55139 13.2626 1.53125 13.2257C1.57751 13.2182 1.62475 13.2239 1.66841 13.2424C1.72402 13.2591 1.77399 13.2935 1.81214 13.3412C1.8503 13.3889 1.87497 13.4479 1.88311 13.511C1.87607 13.5741 1.85229 13.6334 1.81475 13.6816C1.77721 13.7297 1.72761 13.7646 1.67219 13.7816C1.62868 13.7983 1.58328 13.8077 1.53788 13.8213Z" fill="#71ACAB"/>
<path d="M1.57393 12.6646C1.68649 12.4504 1.62784 12.2581 1.51245 12.0721C1.58826 12.0767 1.66208 12.1007 1.72811 12.1421C1.77646 12.1677 1.81633 12.2094 1.84212 12.2613C1.86791 12.3132 1.87832 12.3728 1.87188 12.4316C1.85497 12.5029 1.81582 12.5654 1.76133 12.608C1.70683 12.6507 1.64048 12.6707 1.57393 12.6646Z" fill="#71ACAB"/>
<path d="M1.57296 10.4107C1.68741 10.1954 1.62876 10.0031 1.51147 9.81818C1.63033 9.82603 1.74214 9.88312 1.82456 9.97805C1.84607 10.0018 1.86242 10.0307 1.8724 10.0624C1.88238 10.0942 1.88572 10.128 1.88217 10.1614C1.87862 10.1948 1.86828 10.2268 1.85191 10.2552C1.83554 10.2835 1.81358 10.3074 1.78767 10.325C1.76001 10.3562 1.72634 10.3801 1.68917 10.3949C1.652 10.4097 1.61227 10.4151 1.57296 10.4107Z" fill="#71ACAB"/>
<path d="M1.57382 5.90283C1.68165 5.70324 1.63246 5.51725 1.53125 5.33647C1.59936 5.32383 1.66932 5.33906 1.72799 5.37932C1.84528 5.45664 1.90392 5.56845 1.87838 5.67399C1.85577 5.74261 1.8142 5.80164 1.75954 5.84272C1.70488 5.88379 1.6399 5.90482 1.57382 5.90283Z" fill="#71ACAB"/>
<path d="M1.57382 7.02926C1.68165 6.82967 1.63246 6.64472 1.53125 6.46395C1.5901 6.45619 1.64975 6.46618 1.70387 6.49285C1.758 6.51953 1.80457 6.5619 1.83865 6.61546C1.86694 6.65185 1.88304 6.69788 1.88425 6.74583C1.88545 6.79378 1.8717 6.84072 1.84528 6.87879C1.81663 6.9287 1.77622 6.96906 1.72841 6.99556C1.68059 7.02207 1.62716 7.03371 1.57382 7.02926Z" fill="#71ACAB"/>
<path d="M0.583606 18.6458C0.430378 18.7325 0.394427 18.7137 0.349972 18.5277C0.305517 18.3417 0.37457 18.1526 0.557119 18.024C0.555042 18.2317 0.563887 18.4393 0.583606 18.6458Z" fill="white"/>
<path d="M1.5739 11.5402C1.68741 11.326 1.62876 11.1337 1.51147 10.9488C1.62239 10.9567 1.72737 11.0069 1.80847 11.0909C1.91157 11.2121 1.91346 11.3114 1.80847 11.4263C1.78166 11.4661 1.74595 11.4976 1.70482 11.5175C1.6637 11.5375 1.61859 11.5453 1.5739 11.5402Z" fill="#71ACAB"/>
<path d="M1.57382 9.28318C1.6807 9.0836 1.63246 8.89864 1.53125 8.71787C1.68069 8.68966 1.77434 8.78893 1.86042 8.89656C1.87701 8.92276 1.88668 8.95354 1.88835 8.98546C1.89002 9.01738 1.88362 9.04919 1.86987 9.07733C1.84457 9.14021 1.80291 9.19336 1.7502 9.23001C1.69748 9.26667 1.63608 9.28517 1.57382 9.28318Z" fill="#71ACAB"/>
<path d="M1.53882 14.9488C1.70151 14.7471 1.6334 14.5496 1.53125 14.3521C1.57772 14.3451 1.62503 14.35 1.66949 14.3665C1.71395 14.383 1.75437 14.4106 1.78758 14.4472C1.91433 14.582 1.90582 14.7273 1.76678 14.8495C1.69775 14.8995 1.62016 14.9333 1.53882 14.9488Z" fill="#71ACAB"/>
<path d="M1.53894 17.2017C1.67136 17.024 1.66852 16.8673 1.52759 16.605C1.57275 16.5995 1.61846 16.6046 1.66168 16.6201C1.7049 16.6356 1.74464 16.6611 1.77824 16.6949C1.92579 16.814 1.90877 17.0084 1.7404 17.1212C1.6797 17.1647 1.61078 17.1922 1.53894 17.2017Z" fill="#71ACAB"/>
<path d="M1.5398 16.0752C1.66465 15.9279 1.6533 15.7617 1.58615 15.5935C1.57101 15.5538 1.5502 15.5172 1.53223 15.4786C1.57507 15.4742 1.6183 15.4792 1.65937 15.4934C1.70045 15.5075 1.73856 15.5306 1.77153 15.5611C1.95313 15.7231 1.89355 15.883 1.72992 16C1.67341 16.0426 1.60795 16.0685 1.5398 16.0752Z" fill="#71ACAB"/>
<path d="M1.57382 18.2988C1.6807 18.0993 1.63246 17.9143 1.53125 17.7335C1.57039 17.7266 1.61044 17.729 1.64864 17.7408C1.68684 17.7525 1.7223 17.7732 1.75259 17.8015C1.8292 17.8683 1.9096 17.9363 1.87177 18.0658C1.85238 18.1356 1.81263 18.1963 1.75873 18.2384C1.70483 18.2806 1.63981 18.3018 1.57382 18.2988Z" fill="#71ACAB"/>
<path d="M1.57287 19.4253C1.68165 19.2257 1.63246 19.0407 1.53125 18.86C1.58467 18.8498 1.63964 18.8586 1.68826 18.885C1.80555 18.9383 1.90013 19.0878 1.87743 19.1829C1.85508 19.2527 1.81394 19.3134 1.7595 19.3567C1.70507 19.4001 1.63995 19.424 1.57287 19.4253Z" fill="#71ACAB"/>
<path d="M1.57393 20.5528C1.68744 20.3438 1.62784 20.1463 1.51245 19.9603C1.62331 19.9736 1.72756 20.0252 1.8104 20.1076C1.82984 20.1257 1.8458 20.1479 1.85732 20.1729C1.86884 20.1979 1.87569 20.2252 1.87746 20.2531C1.87922 20.2811 1.87587 20.3092 1.8676 20.3357C1.85932 20.3623 1.8463 20.3867 1.82931 20.4075C1.80297 20.4554 1.76519 20.4942 1.72013 20.5199C1.67507 20.5455 1.62448 20.5569 1.57393 20.5528Z" fill="#71ACAB"/>
<path d="M0.555317 4.01045C0.431411 4.08359 0.421007 4.08046 0.366147 3.94357C0.282913 3.72831 0.355743 3.51202 0.555317 3.37827C0.555317 3.58934 0.555317 3.79937 0.555317 4.01045Z" fill="white"/>
<path d="M0.567603 17.5287C0.429509 17.6113 0.417209 17.6061 0.363296 17.4462C0.293303 17.2424 0.356683 17.0523 0.537341 16.9164C0.574229 17.1191 0.541119 17.326 0.567603 17.5287Z" fill="white"/>
<path d="M0.537265 5.14525C0.458759 5.22048 0.416191 5.18182 0.378357 5.093C0.33285 4.99406 0.323777 4.87949 0.353048 4.77333C0.382319 4.66716 0.447665 4.57763 0.535371 4.52351C0.536317 4.73041 0.536319 4.93731 0.537265 5.14525Z" fill="white"/>
<path d="M0.540161 16.4159C0.464493 16.4838 0.419096 16.4577 0.378425 16.3636C0.334761 16.2688 0.324523 16.1594 0.349687 16.0567C0.37485 15.954 0.433619 15.8653 0.514621 15.8077C0.560022 15.9122 0.528818 16.0167 0.535439 16.1212C0.54206 16.2257 0.539215 16.3177 0.540161 16.4159Z" fill="white"/>
<path d="M0.531572 6.27064C0.469146 6.33752 0.426579 6.32289 0.385907 6.23825C0.336991 6.14281 0.323165 6.03024 0.347286 5.92385C0.371406 5.81745 0.431626 5.72538 0.515488 5.66667C0.515488 5.82968 0.515488 5.99374 0.515488 6.15675C0.514542 6.19541 0.503196 6.2372 0.531572 6.27064Z" fill="white"/>
<path d="M0.524943 14.1682C0.458733 14.2299 0.42089 14.2006 0.385894 14.1243C0.336102 14.0302 0.321593 13.9183 0.345448 13.8125C0.369304 13.7067 0.429644 13.6153 0.513593 13.558C0.519268 13.7617 0.503188 13.9655 0.524943 14.1682Z" fill="white"/>
<path d="M0.525916 15.2957C0.461598 15.3532 0.422821 15.3302 0.386879 15.2539C0.337353 15.1586 0.323087 15.0458 0.347056 14.9391C0.371026 14.8324 0.431378 14.74 0.515513 14.6813C0.519296 14.884 0.522132 15.093 0.525916 15.2957Z" fill="white"/>
<path d="M0.494708 9.67294C0.453091 9.71892 0.429444 9.6928 0.400123 9.64995C0.344747 9.5586 0.323113 9.4473 0.339645 9.33889C0.356177 9.23047 0.409629 9.13315 0.489039 9.06688L0.494708 9.67294Z" fill="white"/>
<path d="M0.526903 13.0345C0.46826 13.0982 0.426646 13.0846 0.387866 13.0052C0.341048 12.9132 0.325982 12.8056 0.345457 12.7022C0.364932 12.5989 0.41763 12.5068 0.4938 12.4431C0.4938 12.6019 0.4938 12.7565 0.4938 12.9175C0.497584 12.9582 0.481502 13.0031 0.526903 13.0345Z" fill="white"/>
<path d="M0.495703 8.54651C0.454085 8.59144 0.430439 8.56636 0.401118 8.52352C0.345401 8.43192 0.323571 8.32021 0.340108 8.21138C0.356645 8.10254 0.410298 8.00484 0.490033 7.93835L0.495703 8.54651Z" fill="white"/>
<path d="M0.496454 7.41902C0.455782 7.46186 0.432136 7.442 0.401869 7.39812C0.34581 7.30553 0.323799 7.19283 0.340317 7.08295C0.356835 6.97307 0.410636 6.87428 0.490773 6.80669L0.496454 7.41902Z" fill="white"/>
<path d="M0.495655 10.8004C0.454038 10.8443 0.430392 10.8213 0.40107 10.7774C0.345061 10.6865 0.323041 10.5751 0.339611 10.4667C0.35618 10.3582 0.410062 10.261 0.489986 10.1954L0.495655 10.8004Z" fill="white"/>
<path d="M0.495573 11.9269C0.453956 11.9718 0.430309 11.9478 0.400988 11.9039C0.344868 11.8126 0.322793 11.7009 0.339355 11.5921C0.355918 11.4833 0.409848 11.3857 0.489904 11.3197L0.495573 11.9269Z" fill="white"/>
<path d="M1.53784 10.4399L1.57757 10.4107C1.57284 10.4347 1.55487 10.4378 1.53784 10.4399Z" fill="#71ACAB"/>
<path d="M1.53882 9.31348C1.54187 9.30486 1.5472 9.29745 1.55412 9.29223C1.56104 9.28701 1.56922 9.28422 1.5776 9.28423C1.57287 9.30721 1.55584 9.31035 1.53882 9.31348Z" fill="#71ACAB"/>
<path d="M1.53979 7.05956C1.54298 7.05125 1.54822 7.0441 1.55491 7.03893C1.5616 7.03376 1.56947 7.03077 1.57763 7.0303C1.5729 7.05329 1.55682 7.05643 1.53979 7.05956Z" fill="#71ACAB"/>
<path d="M1.53882 5.93312C1.54828 5.91745 1.55774 5.90282 1.5776 5.90282C1.57287 5.92685 1.55584 5.92999 1.53882 5.93312Z" fill="#71ACAB"/>
<path d="M1.53784 20.5831C1.54144 20.5747 1.54703 20.5675 1.55403 20.5623C1.56103 20.5572 1.56917 20.5542 1.57757 20.5538C1.57284 20.5768 1.55581 20.5799 1.53784 20.5831Z" fill="#71ACAB"/>
<path d="M1.53882 18.3323C1.54187 18.3237 1.5472 18.3163 1.55412 18.3111C1.56104 18.3058 1.56922 18.303 1.5776 18.303C1.57287 18.3229 1.55584 18.326 1.53882 18.3323Z" fill="#71ACAB"/>
<path d="M1.53784 12.6897C1.5418 12.6814 1.54763 12.6745 1.55477 12.6696C1.5619 12.6646 1.57009 12.6618 1.57851 12.6614C1.57189 12.6897 1.55581 12.6897 1.53784 12.6897Z" fill="#71ACAB"/>
<path d="M1.53784 11.5674C1.54144 11.559 1.54703 11.5518 1.55403 11.5467C1.56103 11.5415 1.56917 11.5386 1.57757 11.5381C1.57284 11.5611 1.55581 11.5643 1.53784 11.5674Z" fill="#71ACAB"/>
<path d="M1.53784 19.4556L1.57757 19.4263C1.57284 19.4493 1.55487 19.4525 1.53784 19.4556Z" fill="#71ACAB"/>
<path d="M1.53711 3.67921C1.53837 3.67586 1.54072 3.67315 1.54369 3.6716C1.54666 3.67006 1.55005 3.66979 1.55319 3.67085C1.55319 3.68548 1.55224 3.70324 1.53711 3.67921Z" fill="#71ACAB"/>
</g>
<defs>
<clipPath id="clip0_166_392">
<rect width="16" height="22" fill="white"/>
</clipPath>
</defs>
</svg>
