<svg width="26" height="18" viewBox="0 0 26 18" fill="none" xmlns="http://www.w3.org/2000/svg">
<g clip-path="url(#clip0_166_336)">
<path d="M25.0151 14.8166L25.0453 14.7888C25.0631 14.788 25.0802 14.7805 25.0946 14.7672C25.1089 14.7538 25.1198 14.7353 25.1259 14.7141C25.1368 14.7151 25.1477 14.7118 25.157 14.7045C25.1664 14.6972 25.1737 14.6864 25.1779 14.6735C25.388 14.5008 25.5672 14.2736 25.7037 14.0067C25.8401 13.7397 25.9308 13.4391 25.9698 13.1245C26.0267 12.7871 25.9912 12.4349 25.8691 12.1268L25.8557 12.0605C25.8557 11.9708 25.8003 11.9195 25.7584 11.864C25.6316 11.7127 25.4836 11.5932 25.3222 11.5115C24.6892 11.168 24.0341 10.8949 23.3642 10.6953C22.8089 10.5158 22.2334 10.4646 21.6865 10.268C20.9549 10.1285 20.2166 10.0528 19.4769 10.0415C19.462 10.018 19.4418 10.0009 19.4189 9.99246C19.3961 9.98406 19.3719 9.98477 19.3494 9.99454L19.2537 9.95394L19.3846 9.88345C19.8966 9.65192 20.3381 9.2205 20.6463 8.65068C20.6677 8.63443 20.6864 8.61279 20.7011 8.58709C20.7158 8.56138 20.7263 8.53213 20.7318 8.50113C20.7511 8.47486 20.7691 8.44703 20.7855 8.4178C21.2469 7.4692 21.3761 6.42232 21.3593 5.33057C21.3618 5.2879 21.3618 5.24504 21.3593 5.20237C21.3283 4.3462 21.1848 3.50271 20.9348 2.70694C20.7533 2.09468 20.4836 1.53097 20.1396 1.04476C19.95 0.757333 19.7129 0.526859 19.4452 0.369875C19.1774 0.212892 18.8858 0.133287 18.591 0.136744C17.9803 0.153836 17.3696 0.149563 16.7589 0.136744C14.7803 0.0940136 12.8034 0.0569768 10.8281 0.0256415C9.20239 3.47849e-06 7.57665 -0.0021398 5.95092 0.0854566C5.04348 0.101103 4.13961 0.233535 3.2531 0.480717C2.45449 0.73496 1.70957 1.12166 1.1123 1.87798C0.770407 2.29333 0.510544 2.80581 0.353954 3.37353C0.341262 3.38666 0.3316 3.40393 0.325988 3.42349C0.320376 3.44305 0.319032 3.46418 0.322087 3.48463C0.3006 3.53183 0.282084 3.58113 0.266718 3.63205C0.0999682 4.38599 0.0125236 5.16477 0.00666993 5.94801C-0.013463 7.34742 0.0720954 8.74042 0.125783 10.1356C0.150434 10.5402 0.239483 10.9341 0.387511 11.2935C0.647561 11.9836 1.09049 12.4814 1.49147 13.0262C1.76274 13.4315 2.05714 13.8107 2.37229 14.1607C3.50173 15.4965 4.82739 16.5348 6.27304 17.2159C7.66766 17.8629 9.15612 18.1159 10.6352 17.9573C11.6418 17.8547 12.6367 17.7287 13.6367 17.6069C14.6651 17.483 15.6902 17.3227 16.7153 17.1454C17.5542 16.998 18.4082 16.8271 19.2504 16.6433C19.7755 16.5279 20.299 16.3955 20.8224 16.2716L20.8845 16.2523C20.9663 16.2544 21.0478 16.2399 21.1261 16.2096C21.9331 16.0109 22.7518 15.8956 23.5471 15.6221C23.8703 15.53 24.1832 15.3865 24.4782 15.1948H24.4883H24.4967C24.5955 15.1678 24.6869 15.1081 24.7618 15.0217C24.7719 15.0232 24.7821 15.0204 24.7909 15.0139C24.7996 15.0074 24.8065 14.9974 24.8104 14.9854C24.8391 14.9828 24.8668 14.9718 24.8916 14.9533C24.9163 14.9347 24.9373 14.9092 24.953 14.8786C24.9637 14.8795 24.9744 14.8761 24.9834 14.8688C24.9925 14.8615 24.9995 14.8507 25.0034 14.838L25.0151 14.8166Z" fill="#FDFDFD"/>
<path d="M0.350586 3.37567C0.507176 2.80795 0.767028 2.29547 1.10892 1.88012C1.7062 1.12807 2.45112 0.737095 3.24972 0.482852C4.14198 0.230498 5.0521 0.0944802 5.96599 0.0769117C7.59172 -0.0106847 9.21746 -0.00854144 10.8432 0.0170965C12.8196 0.0484318 14.7965 0.0854556 16.774 0.128186C17.3847 0.141005 17.9954 0.145278 18.6061 0.128186C18.9009 0.124729 19.1925 0.204347 19.4603 0.36133C19.728 0.518314 19.9651 0.748776 20.1547 1.0362C20.4987 1.52241 20.7684 2.08614 20.9499 2.6984C21.1999 3.49417 21.3434 4.33766 21.3744 5.19383C21.3769 5.2365 21.3769 5.27934 21.3744 5.32201C21.3593 5.181 21.3006 5.14895 21.2066 5.21305C21.2066 5.21305 21.1882 5.21305 21.1781 5.21305C21.1766 5.03061 21.1648 4.84854 21.1429 4.66825C21.0593 4.15036 20.9421 3.64225 20.7922 3.1492C20.7352 2.95905 20.6093 2.81163 20.5657 2.63003C20.4976 2.3607 20.3944 2.10791 20.2604 1.88226C20.1286 1.63637 19.9659 1.41982 19.7789 1.24131C19.6027 1.0768 19.4131 0.93579 19.2286 0.790508C19.0566 0.661553 18.8611 0.592305 18.6615 0.589677C18.2538 0.568312 17.8444 0.589677 17.4351 0.589677C17.3998 0.589677 17.331 0.540537 17.3327 0.655908C17.3344 0.771278 17.3797 0.7905 17.4451 0.769135C17.6347 0.713586 17.8276 0.749905 18.0172 0.713584C18.2691 0.64846 18.531 0.711334 18.747 0.888779C18.9241 1.07856 19.0834 1.29362 19.2218 1.52973C19.4702 1.86729 19.5725 2.30741 19.7386 2.70266C19.7671 2.77103 19.7755 2.85863 19.7067 2.8629C19.5809 2.8629 19.4735 2.97187 19.3427 2.95264C19.2566 2.9387 19.1692 2.94304 19.0843 2.96546C18.6682 3.08083 18.2454 3.04451 17.8193 3.12142C17.5498 3.17515 17.2781 3.20938 17.0055 3.22397C16.824 3.21768 16.6424 3.23487 16.4636 3.27526C16.228 3.32552 15.9895 3.35124 15.7506 3.35217C15.7187 3.35217 15.6785 3.35217 15.6701 3.30089C15.6617 3.24962 15.6902 3.23893 15.712 3.21329C15.8093 3.09792 15.91 2.98682 16.0023 2.86504C16.0476 2.80308 16.1499 2.75181 16.108 2.65139C16.066 2.55097 15.9872 2.65139 15.9234 2.65139C15.8597 2.65139 15.8093 2.61293 15.7791 2.71976C15.6969 3.01673 15.6801 3.02956 15.4302 3.00819C15.4704 3.08938 15.5057 3.15775 15.4637 3.2603C15.3916 3.42908 15.1768 3.36499 15.15 3.59573C15.1277 3.59994 15.1051 3.59994 15.0829 3.59573C15.0601 3.59186 15.037 3.59472 15.0152 3.60409C14.9935 3.61346 14.9737 3.62908 14.9575 3.64974C14.9413 3.67041 14.929 3.69557 14.9216 3.72325C14.9143 3.75094 14.912 3.78041 14.9151 3.80938C14.9151 3.86707 14.9235 3.93115 14.8715 3.94825C14.8194 3.96534 14.7943 3.90551 14.7792 3.8521C14.7429 3.71322 14.6903 3.58212 14.6232 3.46326C14.5745 3.38421 14.556 3.32438 14.6081 3.23679C14.6601 3.14919 14.7305 3.17483 14.796 3.22397C14.8738 3.30659 14.9715 3.35262 15.0728 3.35431C15.0378 3.29931 15.0156 3.23289 15.0088 3.16264C15.002 3.09239 15.0108 3.02111 15.0342 2.95691C15.0594 2.88427 15.0661 2.81376 14.999 2.76889C14.9319 2.72403 14.8899 2.7689 14.848 2.82445C14.806 2.87999 14.7809 2.93983 14.7205 2.9676C14.6503 2.98969 14.5872 3.03858 14.5395 3.1077C14.4918 3.17683 14.4619 3.26288 14.4537 3.35431C14.4534 3.38045 14.4486 3.40618 14.4395 3.42967C14.4305 3.45315 14.4175 3.4738 14.4015 3.49013C14.3854 3.50647 14.3667 3.51807 14.3468 3.52414C14.3268 3.53021 14.306 3.53058 14.2859 3.52522C14.1953 3.51339 14.1038 3.5177 14.0141 3.53804C13.6014 3.65555 13.1753 3.61495 12.7625 3.694C12.4887 3.7545 12.2116 3.78808 11.9337 3.79442C11.7857 3.78632 11.6374 3.79633 11.4908 3.82433C11.1585 3.89841 10.8215 3.93275 10.4842 3.92689C10.4187 3.92689 10.3432 3.95039 10.3164 3.83502C10.3048 3.78738 10.3067 3.73611 10.3217 3.69006C10.3368 3.64402 10.3639 3.60611 10.3986 3.5829C10.4576 3.53039 10.5073 3.4627 10.5446 3.38421C10.5613 3.35216 10.5748 3.31585 10.5446 3.28594C10.5338 3.27348 10.5197 3.26657 10.5051 3.26657C10.4906 3.26657 10.4765 3.27348 10.4657 3.28594C10.3684 3.42054 10.2593 3.39703 10.1302 3.3073C10.1588 3.3788 10.1687 3.4601 10.1584 3.53929C10.1482 3.61848 10.1183 3.69141 10.0731 3.74741C10.0487 3.77594 10.033 3.81449 10.0287 3.85629C10.0244 3.89809 10.0318 3.94047 10.0496 3.97602C10.2055 4.38706 10.3296 4.81637 10.4204 5.25792C10.541 5.81709 10.6208 6.38926 10.6586 6.96712C10.6553 7.11258 10.6736 7.25753 10.7123 7.39442C10.6945 7.69104 10.6529 7.98455 10.5882 8.27038C10.5244 8.58872 10.4204 8.88783 10.3298 9.19762C10.2101 9.57531 10.0255 9.91405 9.78958 10.189C9.76105 10.189 9.72582 10.189 9.70569 10.2125C9.41686 10.5048 9.09277 10.7357 8.74601 10.8961C8.56817 10.9837 8.38195 11.1953 8.17391 10.9624C8.12057 10.9114 8.07164 10.8534 8.02794 10.7893C8.0109 10.7544 7.98455 10.7286 7.95374 10.7164C7.92294 10.7042 7.88972 10.7066 7.86017 10.7231C7.38025 10.9261 6.88384 11.0594 6.3804 11.1205C6.00271 11.1633 5.6225 11.1547 5.24624 11.0948C4.66788 10.9991 4.09995 10.8199 3.55339 10.5607C3.46351 10.5174 3.38053 10.4537 3.30845 10.3727C3.06179 10.069 2.86503 9.70588 2.72963 9.30445C2.70841 9.27029 2.69385 9.23021 2.68714 9.18751C2.68043 9.1448 2.68177 9.10067 2.69104 9.05875C2.85423 9.2834 3.04384 9.4744 3.25308 9.62492C3.58119 9.86634 3.93492 10.0462 4.30335 10.159C4.47621 10.2189 4.65229 10.2624 4.83016 10.2894C5.1692 10.3663 5.51623 10.3663 5.85526 10.2894C6.35859 10.127 6.85184 9.94753 7.35181 9.78088C7.60956 9.71189 7.85818 9.59605 8.09002 9.43691C8.35343 9.37282 8.52456 9.11858 8.72924 8.9327C8.78964 8.87502 8.83494 8.7746 8.91883 8.78314C9.00271 8.79169 9.02452 8.90706 9.07318 8.99679C9.21876 8.75706 9.31559 8.47523 9.35504 8.17637C9.42399 7.69406 9.41025 7.19847 9.31477 6.72356C9.14773 5.88242 8.90096 5.07029 8.57992 4.30504C8.37564 3.78641 8.1233 3.30082 7.82829 2.85864C7.42416 2.25233 6.89902 1.79618 6.30826 1.53828C5.81728 1.33063 5.30212 1.23093 4.78486 1.24344C4.5181 1.24344 4.25133 1.29686 3.9829 1.30968C3.54968 1.34563 3.11873 1.417 2.69271 1.52333C2.43434 1.57887 2.18939 1.67502 1.91927 1.71134C1.88068 1.71134 1.85552 1.7327 1.85049 1.78611C1.74647 1.78611 1.58205 1.78612 1.55688 1.85876C1.4881 2.08309 1.40421 2.10232 1.24817 1.9784C1.35555 2.15359 1.28005 2.28178 1.20623 2.4057C1.17603 2.4527 1.12235 2.51893 1.07201 2.45911C1.02168 2.39929 1.09047 2.36297 1.12234 2.32665C1.15422 2.29033 1.19449 2.23478 1.17101 2.18777C1.14752 2.14077 1.08376 2.17068 1.04182 2.18777C1.01695 2.20627 0.994334 2.22931 0.974702 2.25614C0.769879 2.51188 0.604312 2.81401 0.486483 3.14706C0.459639 3.22397 0.466346 3.33721 0.377425 3.36071C0.37462 3.35865 0.371439 3.35757 0.368199 3.35757C0.364959 3.35757 0.361778 3.35865 0.358973 3.36071L0.350586 3.37567ZM14.093 0.878099C14.3396 0.897327 14.5795 0.820409 14.8262 0.833228C15.1047 0.848183 15.3848 0.833228 15.665 0.833228C15.8328 0.833228 16.0106 0.814002 16.1818 0.809729C16.3982 0.809729 16.6113 0.711456 16.8294 0.775551C16.873 0.78837 16.8948 0.775547 16.8948 0.717861C16.8948 0.660176 16.9082 0.58753 16.8361 0.578984C16.717 0.566165 16.5979 0.544803 16.4787 0.542667C15.7489 0.519165 15.0174 0.566174 14.2876 0.508489C13.7222 0.463622 13.1551 0.508481 12.5881 0.474297C11.9321 0.425158 11.2727 0.474303 10.6133 0.440119C9.73924 0.401662 8.86345 0.4273 7.98767 0.440119C7.85867 0.427765 7.72996 0.46818 7.62025 0.555485C7.60285 0.577617 7.58184 0.594603 7.55871 0.605246C7.53558 0.61589 7.5109 0.619941 7.4864 0.617087C7.46191 0.614233 7.43821 0.60455 7.41698 0.588738C7.39575 0.572925 7.37751 0.551357 7.36355 0.525571C7.34342 0.489251 7.31658 0.435848 7.27296 0.455076C7.26154 0.465247 7.25212 0.478633 7.24542 0.494197C7.23873 0.50976 7.23494 0.527077 7.23436 0.544805C7.23436 0.6089 7.28134 0.608903 7.31657 0.628132C7.55563 0.74979 7.78773 0.89257 8.01116 1.05543C8.69112 1.56754 9.26203 2.28427 9.67381 3.14278C9.70737 3.21329 9.73421 3.27097 9.81809 3.23893C9.98587 3.17483 9.99593 3.15774 9.9305 2.96118C9.80131 2.57234 9.67045 2.18564 9.53288 1.80534C9.4334 1.49981 9.26156 1.24139 9.0413 1.06611C8.99097 1.02765 8.92385 1.00843 8.93392 0.920831C8.94399 0.833235 9.01781 0.814007 9.07988 0.801188C9.29215 0.754567 9.50707 0.730266 9.72246 0.728541C10.1251 0.74136 10.5278 0.728542 10.9304 0.756317C11.5059 0.790501 12.0814 0.799044 12.6552 0.833228C13.1333 0.865275 13.6148 0.818277 14.093 0.878099Z" fill="#EDC3B1"/>
<path d="M21.168 5.21306C21.1781 5.21306 21.1899 5.21306 21.1966 5.21306C21.2939 5.14897 21.3526 5.18101 21.3643 5.32202C21.3811 6.41377 21.2519 7.45852 20.7906 8.40927C20.7741 8.43849 20.7562 8.46633 20.7369 8.49259C20.7369 8.4285 20.7973 8.39858 20.7805 8.32594C20.7672 8.32303 20.7535 8.32303 20.7402 8.32594C20.658 8.3473 20.5842 8.50541 20.4852 8.33876C20.4634 8.30244 20.4047 8.39218 20.4332 8.43918C20.4869 8.53319 20.5171 8.68274 20.6513 8.65283C20.3431 9.22265 19.9016 9.65405 19.3896 9.88558C19.346 9.90695 19.3024 9.93259 19.2604 9.95609C19.2453 9.87704 19.195 9.88772 19.1564 9.90054C18.8309 9.99882 18.4971 10.0373 18.1682 10.1142C17.8092 10.1868 17.4502 10.2445 17.0911 10.3086C16.7321 10.3727 16.42 10.4283 16.0845 10.4838L15.1332 10.6398C14.9069 10.6548 14.6822 10.697 14.4621 10.7658C14.2607 10.8316 14.0542 10.8689 13.8464 10.8769C13.4236 10.9282 12.9991 10.9795 12.5797 11.0543C11.9941 11.1568 11.4053 11.1376 10.8164 11.2679C10.553 11.3213 10.2828 11.3064 10.0178 11.3512C9.44732 11.4452 8.87521 11.4709 8.3031 11.52C7.83442 11.5698 7.36389 11.5855 6.8938 11.567C6.90387 11.4751 6.95923 11.4986 7.00453 11.4922C7.28303 11.4516 7.56321 11.426 7.8434 11.364C8.26252 11.2801 8.66855 11.1121 9.04635 10.8662C9.31891 10.717 9.56149 10.4913 9.75603 10.2061C9.992 9.93115 10.1766 9.59241 10.2963 9.21473C10.3835 8.90494 10.4909 8.60582 10.5546 8.28748C10.6194 8.00166 10.661 7.70814 10.6788 7.41153C10.7265 7.14692 10.7418 6.87449 10.7241 6.60392C10.7073 6.44155 10.6939 6.27704 10.6805 6.11467C10.6805 6.04416 10.6805 5.9822 10.7576 5.97793C11.0395 5.95657 11.3214 5.91597 11.5965 5.90742C11.8717 5.89888 12.1804 5.90743 12.4723 5.93093C12.7642 5.95443 13.0192 5.98648 13.286 6.03134C13.8145 6.1344 14.3377 6.27708 14.853 6.45864C15.3177 6.6264 15.7964 6.72323 16.2791 6.74708C16.841 6.7671 17.403 6.71556 17.9568 6.59324C18.2924 6.51206 18.6464 6.44369 18.9803 6.31978C19.4078 6.17023 19.8284 5.99049 20.2403 5.78138C20.561 5.6241 20.8713 5.43404 21.168 5.21306ZM16.7455 7.53971L16.8093 7.56108C16.8764 7.57604 16.9552 7.56108 16.9619 7.47562C16.9687 7.39016 16.8797 7.38802 16.8311 7.38589C16.7522 7.38589 16.717 7.3517 16.717 7.24915C16.717 7.20428 16.7036 7.14019 16.6549 7.14446C16.6063 7.14874 16.6079 7.21069 16.6063 7.25983C16.6046 7.30897 16.6163 7.34102 16.5861 7.36025C16.5559 7.37948 16.5274 7.33034 16.5039 7.3047C16.4804 7.27906 16.4704 7.25983 16.4519 7.24273C16.4334 7.22564 16.3965 7.13805 16.3462 7.18932C16.2959 7.2406 16.3244 7.30257 16.3596 7.34743C16.4636 7.48203 16.571 7.61236 16.6767 7.74482C16.6985 7.77259 16.7237 7.78968 16.7522 7.75764C16.7631 7.74588 16.7708 7.73001 16.7741 7.71234C16.7774 7.69466 16.7762 7.67611 16.7707 7.65935C16.7606 7.62303 16.7136 7.60167 16.7455 7.53971ZM11.8096 7.31324C11.8431 7.31324 11.8767 7.31324 11.9086 7.29615C11.9405 7.27905 11.9992 7.24273 12.026 7.29615C12.0529 7.34956 11.9891 7.37733 11.9656 7.41793C11.9421 7.45852 11.9438 7.44143 11.9354 7.45638C11.927 7.47134 11.8884 7.52262 11.922 7.56535C11.9555 7.60808 11.979 7.59526 12.0126 7.56535C12.0652 7.52921 12.107 7.47185 12.1313 7.40225C12.1556 7.33266 12.161 7.25476 12.1468 7.18078C12.0864 7.02268 11.979 7.07395 11.8851 7.10813C11.8465 7.12095 11.7995 7.18078 11.7676 7.12309C11.7358 7.0654 11.7895 7.02055 11.828 6.98636C11.8426 6.97596 11.8535 6.95903 11.8588 6.93888C11.8641 6.91874 11.8633 6.89683 11.8566 6.8774C11.8448 6.83894 11.818 6.81117 11.7895 6.83467C11.7433 6.86039 11.7042 6.90293 11.677 6.95692C11.6499 7.01091 11.6359 7.07393 11.6368 7.13805C11.6418 7.2876 11.7223 7.31538 11.8096 7.31324ZM19.7285 9.61212C19.7285 9.60143 19.7403 9.58861 19.7285 9.5822C19.7168 9.57579 19.7134 9.56725 19.7067 9.56938C19.7 9.57152 19.695 9.59075 19.7067 9.59716C19.7185 9.60357 19.7235 9.60784 19.7319 9.61212H19.7285Z" fill="#DC968F"/>
<path d="M6.90387 11.5478C7.37395 11.5663 7.84448 11.5506 8.31317 11.5008C8.88528 11.4516 9.45739 11.426 10.0278 11.332C10.2929 11.2871 10.563 11.3021 10.8264 11.2487C11.4103 11.1269 12.0009 11.1461 12.5897 11.035C13.0092 10.9602 13.4286 10.909 13.8564 10.8577C14.0643 10.8497 14.2708 10.8124 14.4722 10.7466C14.6923 10.6778 14.917 10.6356 15.1433 10.6205L16.0945 10.4646C16.4301 10.409 16.7656 10.3492 17.1012 10.2894C17.4367 10.2296 17.8193 10.1676 18.1783 10.095C18.5139 10.0266 18.8494 9.98814 19.1665 9.88132C19.2051 9.8685 19.2554 9.85782 19.2705 9.93687L19.3645 9.97746L19.492 10.0245C20.2317 10.0358 20.97 10.1114 21.7016 10.2509C21.7133 10.2937 21.7016 10.3086 21.6647 10.3214C21.3945 10.4154 21.1261 10.5137 20.8577 10.612L20.4936 10.7124C19.945 10.8705 19.3913 11.0115 18.836 11.1397C18.3327 11.2487 17.8176 11.3534 17.3076 11.4452C16.8344 11.535 16.3613 11.6097 15.8882 11.6888C15.5342 11.7486 15.1802 11.8191 14.8228 11.8618C14.5426 11.8918 14.2675 11.9815 13.9839 11.9836C13.9118 11.9836 13.838 11.9836 13.7675 11.9836C13.4454 12.0285 13.1233 12.0947 12.7995 12.1204C12.4236 12.1503 12.0478 12.2058 11.672 12.2464C11.058 12.3105 10.4428 12.3547 9.82649 12.3789C9.27452 12.3981 8.72254 12.3789 8.16888 12.3789C8.00111 12.3789 7.84508 12.349 7.68234 12.3426C7.5196 12.3361 7.33001 12.3426 7.15385 12.3426C6.68744 12.3084 6.22437 12.2122 5.7546 12.2016C5.73942 12.178 5.72018 12.1591 5.69836 12.1465C5.67653 12.1339 5.65272 12.1279 5.62877 12.1289C5.44399 12.1001 5.26153 12.0508 5.08351 11.9815C4.73892 11.8573 4.40237 11.6995 4.07686 11.5093C3.40576 11.1632 2.72293 10.8684 2.1223 10.33C1.86759 10.1247 1.65756 9.84112 1.51159 9.50529C1.40957 9.20401 1.3407 8.88623 1.30691 8.56096C1.31469 8.49735 1.30458 8.43228 1.27839 8.37722V8.00974C1.2262 7.63954 1.19982 7.2642 1.19954 6.88808C1.1794 6.39882 1.18108 5.90743 1.19954 5.42031C1.2088 5.06836 1.23401 4.7174 1.27504 4.36915C1.31516 3.98902 1.39529 3.61748 1.51327 3.26458C1.56966 3.11302 1.63886 2.96974 1.71963 2.83728C1.96187 2.52126 2.2565 2.27819 2.582 2.12583C3.05508 1.92464 3.54964 1.81726 4.04834 1.80748C4.86708 1.76689 5.6875 1.77758 6.48107 2.09378C6.97461 2.25245 7.40263 2.6433 7.67898 3.18766C7.82917 3.51499 7.96201 3.85474 8.07661 4.20464C8.41227 5.13654 8.66712 6.11228 8.83663 7.11455C8.8683 7.26626 8.87236 7.42518 8.84852 7.5792C8.82468 7.73321 8.77356 7.87827 8.69905 8.00333C8.44551 8.4185 8.13448 8.77113 7.78132 9.04381C7.72222 9.03957 7.66355 9.05899 7.61355 9.09935C7.40595 9.25986 7.18548 9.39166 6.95588 9.49247C6.63692 9.64123 6.30197 9.72697 5.96265 9.74672C5.64892 9.74672 5.33685 9.71467 5.02143 9.7339C4.65978 9.76001 4.29701 9.72481 3.94264 9.62921C3.6204 9.55977 3.32537 9.35613 3.10377 9.05022C2.90332 8.76283 2.74174 8.43505 2.62562 8.08025C2.44053 7.55682 2.33466 6.99361 2.31356 6.42019C2.30069 6.04811 2.30965 5.67532 2.3404 5.30494C2.37399 4.85701 2.44773 4.41543 2.56018 3.98885C2.57528 3.94185 2.62226 3.88416 2.57193 3.82434C2.63696 3.6855 2.72342 3.56489 2.82608 3.46979C2.92873 3.37468 3.04546 3.30706 3.16921 3.27099C3.32287 3.22325 3.47948 3.19251 3.63729 3.17912C4.00075 3.10169 4.35912 2.98956 4.70937 2.84369C4.91386 2.76238 5.1308 2.74556 5.34152 2.79469C5.55224 2.84381 5.75043 2.95742 5.91903 3.12571C6.41982 3.60184 6.83841 4.20397 7.14881 4.89473C7.29041 5.18707 7.37552 5.51804 7.39712 5.86043C7.40438 6.43234 7.26931 6.9925 7.01124 7.46066C6.85081 7.77996 6.62363 8.03596 6.35524 8.1999C6.35069 8.18269 6.3429 8.16716 6.33255 8.15467C6.3222 8.14219 6.3096 8.13311 6.29586 8.12827C6.28212 8.12342 6.26764 8.12294 6.25372 8.12686C6.2398 8.13078 6.22684 8.13897 6.21598 8.15075C6.15223 8.2063 6.22606 8.23407 6.24115 8.27467C6.24032 8.28604 6.24032 8.29749 6.24115 8.30886H6.12539C5.99956 8.22126 5.86366 8.30885 5.7479 8.33022C5.46979 8.37566 5.18914 8.39068 4.90903 8.37509C4.60561 8.36528 4.31039 8.24761 4.05673 8.03538C3.47455 7.5333 3.25309 6.78126 3.18598 5.93093C3.17869 5.66329 3.20705 5.39601 3.26987 5.14043C3.28664 5.03574 3.35376 4.98233 3.41416 4.92678C3.81074 4.53274 4.30614 4.33535 4.80837 4.37128C5.01123 4.37654 5.20795 4.46079 5.37208 4.61271C5.75126 4.97164 5.72274 5.65959 5.32175 5.89461C5.31554 5.88148 5.30604 5.87139 5.29478 5.86597C5.28352 5.86054 5.27116 5.86011 5.25968 5.8647C5.03026 5.93238 4.7896 5.89925 4.57684 5.7707C4.451 5.69806 4.31511 5.65318 4.1876 5.59123C4.06009 5.52927 4.01982 5.56558 3.99297 5.70659C3.97644 5.7099 3.96062 5.71749 3.94648 5.72888C3.93234 5.74027 3.92019 5.75522 3.91077 5.77282C3.59535 6.20012 3.73293 6.90945 3.9762 7.24701C4.17319 7.50984 4.43858 7.67237 4.7228 7.70423C5.30833 7.79823 5.72944 7.6444 6.06499 6.99705C6.22676 6.65665 6.32544 6.27378 6.35356 5.87752C6.40903 5.45891 6.37126 5.02887 6.24451 4.63622C6.15462 4.38511 6.01925 4.16471 5.84951 3.99313C5.67977 3.82155 5.48051 3.70367 5.26807 3.64916C5.28316 3.59574 5.34189 3.55728 5.31337 3.48678C5.28485 3.41628 5.22276 3.43336 5.17243 3.42909C4.73617 3.39279 4.29933 3.48794 3.89735 3.70683C3.71381 3.77955 3.54839 3.91212 3.41751 4.0914C3.35208 4.17045 3.27994 4.2431 3.22122 4.32856C2.94621 4.74935 2.79179 5.27676 2.78333 5.82411C2.7699 6.08476 2.76823 6.34755 2.74138 6.6082C2.71459 6.83195 2.71459 7.05958 2.74138 7.28333C2.87896 8.24903 3.34705 8.83657 4.08358 9.09081C4.52458 9.23353 4.98268 9.26977 5.43416 9.19764C5.95325 9.14066 6.46745 9.02629 6.97097 8.8558C7.13632 8.81897 7.29261 8.73336 7.42732 8.60582C7.63617 8.5079 7.8167 8.33142 7.94495 8.0998C8.0732 7.86818 8.1431 7.59236 8.14539 7.30897C8.19433 6.4326 8.07933 5.55395 7.80984 4.74517C7.63299 4.22172 7.38092 3.74495 7.0666 3.33936C6.80332 2.99906 6.48581 2.73459 6.13546 2.56381C6.13546 2.49331 6.21095 2.40571 6.13546 2.35016C6.03192 2.27822 5.91753 2.23524 5.79991 2.2241C5.56502 2.23692 5.3335 2.2006 5.10029 2.19633C4.71753 2.18067 4.33438 2.1928 3.95271 2.23266C3.59428 2.26608 3.24356 2.38189 2.91754 2.57449C2.84037 2.62363 2.74977 2.65354 2.71957 2.78814C2.59105 2.89748 2.47766 3.03321 2.38402 3.1898C2.07182 3.64566 1.87478 4.21077 1.81862 4.8114C1.75414 5.07782 1.71582 5.3534 1.70454 5.63182C1.69031 6.23602 1.73425 6.84016 1.8354 7.43075C1.94129 8.13907 2.13258 8.82229 2.40248 9.45616C2.6491 10.0138 2.96452 10.486 3.46113 10.7124C3.83527 10.8812 4.20605 11.0692 4.58186 11.2359C4.991 11.4078 5.41655 11.5084 5.84689 11.535C6.19922 11.5606 6.55154 11.5478 6.90387 11.5478Z" fill="#DC968F"/>
<path d="M20.851 10.6184C21.1194 10.5201 21.3879 10.4218 21.658 10.3278C21.6949 10.315 21.7067 10.3001 21.6949 10.2573C22.2452 10.4603 22.8207 10.5116 23.3727 10.6846C24.0426 10.8843 24.6976 11.1573 25.3306 11.5008C25.492 11.5825 25.64 11.702 25.7668 11.8533C25.8087 11.9088 25.8608 11.9601 25.8641 12.0499C25.8406 12.0798 25.8456 12.1033 25.8775 12.1161L25.8473 12.302L25.8171 12.3404C25.3155 11.9885 24.7857 11.7063 24.2367 11.4986L24.391 11.755C24.466 11.8866 24.503 12.0469 24.496 12.2092C24.489 12.3715 24.4383 12.5257 24.3525 12.6459C24.0807 13.022 23.7166 13.1544 23.3458 13.257C22.9029 13.3766 22.4533 13.4578 22.0036 13.5775C21.8633 13.6469 21.7192 13.7033 21.5724 13.7462C21.3977 13.7611 21.2243 13.7947 21.054 13.8467C20.214 14.076 19.3751 14.3074 18.5374 14.541C18.0022 14.6884 17.4653 14.8401 16.9301 14.9918C16.4268 15.1328 15.9235 15.2952 15.405 15.4042C15.2401 15.474 15.072 15.531 14.9017 15.5751C14.7927 15.5024 14.6836 15.5751 14.5779 15.5751C14.343 15.5943 14.1132 15.5024 13.8749 15.5473C13.8277 15.5598 13.779 15.56 13.7317 15.5479C13.6844 15.5358 13.6395 15.5116 13.5998 15.4768C13.4216 15.3037 13.2338 15.1473 13.0378 15.0089C12.9941 14.9884 12.9556 14.9534 12.9261 14.9076C12.8966 14.8618 12.8772 14.8068 12.87 14.7483C12.8654 14.7082 12.8514 14.6709 12.8298 14.6411C12.8083 14.6114 12.7801 14.5907 12.7492 14.5816C12.5143 14.4962 12.4287 14.2419 12.3532 13.9941C12.2777 13.7462 12.2861 13.7334 12.4774 13.5817C12.5193 13.5475 12.5646 13.5219 12.5546 13.445C12.5311 13.2634 12.3868 13.1459 12.3868 12.9536C12.3868 12.9536 12.3633 12.9322 12.3499 12.9301C12.1284 12.8809 11.9086 12.7528 11.6788 12.9109C11.6618 12.9228 11.6428 12.9291 11.6234 12.9291C11.604 12.9291 11.585 12.9228 11.568 12.9109L11.2627 12.6972C11.4472 12.6801 11.5982 12.6588 11.7358 12.6523C12.1234 12.6353 12.5109 12.5925 12.8968 12.5797C13.4102 12.5669 13.9202 12.4836 14.4336 12.5007C14.4991 12.4878 14.5662 12.4686 14.6316 12.4643C14.9185 12.4494 15.2071 12.4515 15.494 12.4216C15.7557 12.396 16.0174 12.3725 16.2792 12.3426C16.6868 12.2977 17.0929 12.2229 17.5005 12.1716C17.618 12.1588 17.7019 11.958 17.8361 12.0819C17.8546 12.099 17.8579 11.9687 17.9116 12.0071C18.0475 12.1054 18.1716 12.0071 18.2958 11.9772C18.6313 11.8661 18.9669 11.7123 19.3125 11.5905C20.2537 11.2508 21.2033 10.9496 22.1932 10.8983C21.9382 10.8342 21.6815 10.7893 21.4248 10.7338C21.2317 10.7116 21.04 10.6731 20.851 10.6184Z" fill="#EDC3B1"/>
<path d="M25.8171 12.3468L25.8473 12.3084C25.9614 12.3725 25.8909 12.5006 25.906 12.5968C25.9339 12.9083 25.9116 13.2238 25.8406 13.524C25.8305 13.5903 25.7768 13.586 25.7365 13.6031C25.6482 13.6223 25.5642 13.6653 25.4899 13.7291C25.2934 13.9521 25.0778 14.1463 24.8473 14.3081C24.563 14.507 24.2654 14.6736 23.9581 14.8059C23.6398 14.9385 23.3161 15.049 22.9884 15.1371C22.3525 15.2909 21.7099 15.4127 21.0741 15.5644C20.7738 15.6413 20.4617 15.6263 20.1681 15.7567H20.1547C20.0322 15.6734 19.9148 15.7823 19.8191 15.8165C19.5943 15.8998 19.3645 15.9426 19.138 16.0002C18.8377 16.075 18.5373 16.137 18.2353 16.1968C17.8763 16.2694 17.5189 16.3335 17.1599 16.4104C16.8009 16.4874 16.3949 16.5536 16.0123 16.6113C15.6298 16.669 15.2943 16.7352 14.9319 16.7715C14.5963 16.8036 14.2775 16.8634 13.9504 16.9104C13.8401 16.94 13.7276 16.9544 13.6148 16.9531C13.1467 17.0407 12.6736 17.0706 12.2038 17.1283C11.9572 17.1582 11.7005 17.1732 11.4606 17.2095C11.0244 17.2714 10.5865 17.327 10.1469 17.3441C9.47308 17.3701 8.79883 17.3129 8.13365 17.1732C7.56408 17.0546 7.00299 16.8774 6.4559 16.6433C6.03435 16.4617 5.62291 16.244 5.22443 15.9917C4.71737 15.6729 4.22899 15.3081 3.76311 14.8999C3.27489 14.4726 2.83532 13.962 2.29509 13.6373C2.31449 13.6026 2.3358 13.5698 2.35884 13.539C2.39072 13.4941 2.43267 13.4493 2.39408 13.383C2.35549 13.3168 2.32193 13.383 2.28334 13.398C2.24476 13.4129 2.17094 13.4428 2.12564 13.3745C2.08035 13.3061 2.12564 13.2548 2.15584 13.2036C2.16351 13.196 2.16971 13.1862 2.17398 13.1751C2.17825 13.164 2.18046 13.1518 2.18046 13.1395C2.18046 13.1271 2.17825 13.1149 2.17398 13.1038C2.16971 13.0927 2.16351 13.083 2.15584 13.0754C2.11222 13.0305 2.08034 13.0754 2.06021 13.1138C2.01994 13.1865 1.98806 13.2676 1.95115 13.3446C1.85928 13.2969 1.7738 13.2313 1.69781 13.1501C1.64245 13.0903 1.59212 13.0006 1.5032 13.0305C1.10222 12.4857 0.664323 11.9879 0.39924 11.2978C0.251212 10.9384 0.162163 10.5444 0.137512 10.1398C0.0838241 8.74468 -0.00174455 7.36237 0.0183884 5.95228C0.0197676 5.17205 0.102135 4.39547 0.263343 3.64272C0.278709 3.5918 0.297225 3.5425 0.318711 3.49531H0.348909C0.348909 3.49531 0.365691 3.51881 0.364014 3.52308C0.263482 3.83999 0.194159 4.17153 0.157644 4.51014C0.103935 4.96159 0.071997 5.41681 0.0620114 5.87323C0.0530928 6.28851 0.0676726 6.70406 0.105634 7.11667C0.122412 7.34528 0.119055 7.34528 0.21972 7.27691C0.226253 7.41607 0.243103 7.55413 0.27005 7.68925C0.315349 7.85804 0.207975 7.96059 0.187842 8.09946C0.17442 8.18919 0.159325 8.27893 0.150937 8.36866C0.148296 8.39032 0.151287 8.41248 0.159467 8.43177C0.167646 8.45106 0.180567 8.46641 0.196239 8.47548C0.231472 8.49044 0.239853 8.43916 0.251597 8.40925C0.263342 8.37934 0.26502 8.28107 0.325418 8.29389C0.385817 8.30671 0.372395 8.38788 0.377428 8.44557C0.382461 8.50325 0.37743 8.50966 0.421051 8.5118C0.427017 8.40547 0.457354 8.3037 0.508297 8.2191C0.536819 8.18064 0.545206 8.09305 0.454608 8.11441C0.404276 8.12723 0.389172 8.09305 0.387494 8.03109C0.403773 7.86598 0.411622 7.6997 0.410985 7.53329C0.406428 7.49655 0.409978 7.45891 0.421235 7.42458C0.432493 7.39025 0.451015 7.36057 0.47474 7.33886C0.575405 7.26409 0.580439 7.14872 0.580439 7.02053C0.580439 6.51631 0.580439 6.01068 0.580439 5.50362C0.580439 5.4438 0.567012 5.37542 0.617344 5.32201C0.634122 5.64248 0.687812 5.96297 0.724722 6.26635C0.771699 6.67656 0.820914 7.08534 0.872365 7.4927C0.875148 7.52999 0.888373 7.56475 0.909629 7.59064C0.930885 7.61654 0.958752 7.63182 0.988129 7.6337C1.05188 7.6337 1.02672 7.5397 1.0435 7.48842C1.09383 7.32818 1.0435 7.17435 1.0435 7.01839C1.0435 6.42017 1.05524 5.82408 1.09551 5.22586C1.1162 4.7884 1.16843 4.3543 1.25154 3.92902C1.28 3.68219 1.3693 3.45326 1.50656 3.27525C1.38857 3.62816 1.30843 3.99968 1.26831 4.37982C1.22728 4.72806 1.20207 5.07903 1.19281 5.43097C1.17603 5.91809 1.17435 6.40949 1.19281 6.89875C1.1931 7.27486 1.21949 7.65021 1.27167 8.02041C1.08208 8.04818 1.04685 8.15714 1.11564 8.52676C0.994842 8.47121 0.947859 8.31312 0.857261 8.24261C0.832094 8.22338 0.808613 8.1956 0.780091 8.21696C0.77278 8.22266 0.76653 8.23032 0.761792 8.23942C0.757053 8.24851 0.753937 8.25881 0.752658 8.26961C0.751378 8.2804 0.751968 8.29141 0.754388 8.30188C0.756808 8.31235 0.761 8.32202 0.766666 8.3302C0.785165 8.36012 0.796436 8.39624 0.799117 8.43417C0.801798 8.4721 0.795777 8.51021 0.78177 8.54385C0.691172 8.82373 0.781769 8.98824 1.03175 8.97115C1.09383 8.97115 1.12906 8.9968 1.12739 9.06944C1.12739 9.32582 1.23308 9.548 1.25992 9.79584C1.28269 9.9393 1.32229 10.0776 1.37737 10.206C1.49692 10.5552 1.66776 10.8721 1.88069 11.1397C1.827 11.1888 1.79009 11.1397 1.74982 11.1397C1.60721 11.1205 1.56192 11.191 1.61728 11.3534C1.64478 11.4384 1.67848 11.5199 1.71794 11.5969C1.93891 11.9857 2.19141 12.3437 2.47126 12.6652C2.8238 13.123 3.19927 13.5512 3.59534 13.9471C4.085 14.4567 4.61928 14.8926 5.18753 15.246C5.23954 15.276 5.31335 15.2866 5.3402 15.3379C5.40395 15.4597 5.44757 15.4832 5.50797 15.2802C5.52643 15.4447 5.52308 15.6092 5.65897 15.4405C5.66936 15.4337 5.68086 15.4302 5.69252 15.4302C5.70419 15.4302 5.71569 15.4337 5.72608 15.4405C5.86061 15.5169 6.00295 15.5687 6.14887 15.5943C6.6673 15.7887 7.19075 15.9596 7.71421 16.1327C8.18868 16.3215 8.67828 16.4419 9.17384 16.4916C9.26947 16.4916 9.37349 16.5173 9.40369 16.6796C9.41376 16.7416 9.47248 16.7608 9.51945 16.7758C9.63186 16.81 9.70401 16.7331 9.78286 16.6412C9.86172 16.5493 9.75099 16.4532 9.75434 16.3485C9.82984 16.3485 9.92212 16.4233 9.96574 16.3656C10.0815 16.2182 10.2073 16.2993 10.3298 16.3036C10.5563 16.3036 10.7794 16.2417 11.0009 16.2652C11.0825 16.2716 11.1643 16.2716 11.2459 16.2652C11.7307 16.2182 12.2173 16.1712 12.7021 16.1199C12.9119 16.0964 13.1199 16.0579 13.3296 16.0323C13.6517 15.9917 13.9705 15.9212 14.2926 15.8635C14.5091 15.8324 14.7238 15.7831 14.9352 15.7161C14.9671 15.7161 15.0007 15.7161 15.0208 15.6798C15.1591 15.6739 15.2967 15.6517 15.4318 15.6135C15.8177 15.5687 16.1935 15.4512 16.5744 15.3657C17.2589 15.2119 17.9423 15.0438 18.6246 14.8615L20.0272 14.4876C20.7419 14.2996 21.4533 14.0817 22.168 13.8808C23.1581 13.6311 24.1344 13.2993 25.0906 12.8874C25.354 12.7763 25.6359 12.6609 25.8171 12.3468ZM0.80693 9.16344C0.817235 9.16875 0.828319 9.17115 0.839422 9.1705C0.850526 9.16985 0.861392 9.16615 0.871269 9.15966C0.881146 9.15317 0.889805 9.14404 0.896654 9.13289C0.903504 9.12174 0.908378 9.10884 0.91095 9.09507C0.927727 9.03525 0.879077 9.0267 0.852233 9.00961C0.724724 8.92628 0.595541 8.8515 0.468033 8.76604C0.419378 8.73613 0.395887 8.76605 0.370721 8.80878C0.345555 8.85151 0.315355 8.87074 0.338843 8.9327C0.407631 9.09934 0.469704 9.27026 0.535136 9.43691C0.550236 9.47536 0.565336 9.52237 0.608958 9.50742C0.652579 9.49246 0.655933 9.45186 0.649222 9.39204C0.629089 9.19762 0.657611 9.15276 0.80693 9.16344Z" fill="#DC968F"/>
<path d="M1.48804 13.0284C1.57696 12.9984 1.6273 13.0882 1.68266 13.148C1.75865 13.2292 1.84412 13.2948 1.936 13.3424C2.03499 13.4706 2.1776 13.5155 2.28162 13.6351C2.82185 13.9599 3.26142 14.4726 3.74964 14.8978C4.21552 15.3059 4.70388 15.6708 5.21095 15.9895C5.60943 16.2419 6.02086 16.4596 6.44242 16.6412C6.98951 16.8752 7.55059 17.0524 8.12016 17.171C8.78534 17.3108 9.4596 17.368 10.1335 17.3419C10.573 17.3249 11.0109 17.2693 11.4471 17.2073C11.6938 17.171 11.9505 17.1561 12.1904 17.1262C12.6601 17.0685 13.1333 17.0386 13.6014 16.951C13.7141 16.9522 13.8266 16.9379 13.9369 16.9082C13.9486 17.0898 14.0543 17.0578 14.1416 17.0428C14.1957 17.0205 14.2532 17.0147 14.3094 17.0257C14.4584 17.0881 14.6139 17.1212 14.7707 17.124C15.0284 17.125 15.2857 17.1486 15.5408 17.1945C15.6046 17.2073 15.6465 17.2907 15.7086 17.2693C15.9793 17.1965 16.2533 17.1459 16.529 17.1176C17.086 17.0215 17.6414 16.904 18.1967 16.795C18.8359 16.6604 19.4735 16.513 20.111 16.3677C20.3365 16.3002 20.5672 16.2644 20.7989 16.2609C20.2754 16.3848 19.752 16.5173 19.2268 16.6326C18.388 16.8164 17.539 16.9873 16.6918 17.1347C15.6667 17.312 14.6416 17.4723 13.6131 17.5962C12.6065 17.718 11.6132 17.844 10.6116 17.9466C9.1328 18.1066 7.64435 17.8551 6.24948 17.2095C4.80158 16.53 3.47359 15.4924 2.34201 14.1564C2.03631 13.8072 1.7509 13.4302 1.48804 13.0284Z" fill="#EDC3B1"/>
<path d="M20.8175 16.2673C20.5859 16.2708 20.3552 16.3067 20.1297 16.3741C19.4921 16.513 18.8546 16.6604 18.2154 16.8014C17.66 16.9168 17.1047 17.0279 16.5477 17.124C16.272 17.1523 15.9979 17.2029 15.7273 17.2757C15.6602 17.2971 15.6182 17.2138 15.5595 17.201C15.3044 17.155 15.0471 17.1314 14.7894 17.1304C14.6326 17.1277 14.477 17.0945 14.328 17.0322C14.2718 17.0211 14.2144 17.027 14.1603 17.0493C14.073 17.0642 13.9673 17.0963 13.9556 16.9147C14.2911 16.8677 14.6082 16.8078 14.9371 16.7758C15.2994 16.7395 15.6568 16.6711 16.0175 16.6155C16.3782 16.56 16.7826 16.4831 17.1651 16.4147C17.5476 16.3464 17.8815 16.2844 18.2405 16.2011C18.5425 16.1413 18.8428 16.0793 19.1432 16.0045C19.3697 15.9468 19.5995 15.9041 19.8243 15.8208C19.9216 15.7866 20.0391 15.6776 20.1599 15.7609H20.1733C20.4669 15.6306 20.779 15.6456 21.0793 15.5687C21.7151 15.4084 22.3577 15.2866 22.9936 15.1414C23.3213 15.0533 23.645 14.9428 23.9633 14.8102C24.2706 14.6779 24.5682 14.5113 24.8525 14.3124C25.083 14.1506 25.2985 13.9564 25.4951 13.7334C25.5693 13.6696 25.6534 13.6266 25.7417 13.6074C25.782 13.5903 25.8357 13.5945 25.8457 13.5283C25.9168 13.2281 25.9391 12.9126 25.9112 12.6011C25.8961 12.5049 25.9665 12.3874 25.8524 12.3126L25.8827 12.1268C26.0047 12.4349 26.0403 12.7871 25.9833 13.1245C25.9444 13.4391 25.8537 13.7397 25.7172 14.0067C25.5808 14.2736 25.4016 14.5008 25.1914 14.6735C25.1663 14.6735 25.1428 14.6735 25.1394 14.7141C25.1025 14.7141 25.0639 14.7247 25.0589 14.7888C25.0404 14.7888 25.032 14.7888 25.0287 14.8166C25.0035 14.8166 24.98 14.8166 24.9783 14.8572C24.9497 14.8598 24.922 14.8708 24.8972 14.8894C24.8725 14.9079 24.8514 14.9334 24.8357 14.964C24.8089 14.964 24.7871 14.964 24.7871 15.0004C24.6846 15.013 24.5899 15.0749 24.522 15.1734H24.5136H24.5035C24.4551 15.1667 24.4062 15.1802 24.3643 15.2119C24.0092 15.3912 23.6434 15.5341 23.2704 15.6392C22.6949 15.8144 22.106 15.8977 21.5272 16.0451C21.3162 16.0746 21.1089 16.137 20.9098 16.231L20.8175 16.2673Z" fill="#DC968F"/>
<path d="M20.8796 16.2481C21.0787 16.1541 21.286 16.0917 21.497 16.0622C22.0759 15.9148 22.6715 15.8315 23.2402 15.6563C23.6132 15.5512 23.979 15.4083 24.3341 15.229C24.376 15.1973 24.4249 15.1838 24.4734 15.1905C24.1783 15.3822 23.8655 15.5258 23.5422 15.6178C22.747 15.8913 21.9282 16.0067 21.1212 16.2053C21.043 16.2357 20.9614 16.2501 20.8796 16.2481Z" fill="#EDC3B1"/>
<path d="M24.4917 15.1798C24.5595 15.0813 24.6543 15.0194 24.7568 15.0068C24.6819 15.0932 24.5905 15.1529 24.4917 15.1798Z" fill="#EDC3B1"/>
<path d="M19.4854 10.0309L19.3579 9.98385C19.3804 9.97409 19.4047 9.97336 19.4275 9.98176C19.4503 9.99017 19.4705 10.0073 19.4854 10.0309Z" fill="#DC968F"/>
<path d="M20.7404 8.49045C20.7348 8.52145 20.7243 8.55069 20.7096 8.5764C20.6949 8.6021 20.6763 8.62375 20.6548 8.64001C20.6816 8.58873 20.69 8.5225 20.7404 8.49473V8.49045Z" fill="#DC968F"/>
<path d="M24.8154 14.9662C24.8311 14.9356 24.8522 14.91 24.8769 14.8915C24.9016 14.873 24.9294 14.862 24.958 14.8593C24.9423 14.8899 24.9213 14.9155 24.8966 14.934C24.8718 14.9526 24.8441 14.9636 24.8154 14.9662Z" fill="#EDC3B1"/>
<path d="M0.348933 3.48249H0.318735C0.31568 3.46203 0.317025 3.4409 0.322637 3.42134C0.328249 3.40178 0.33792 3.38451 0.350613 3.37138C0.348838 3.37408 0.347858 3.37749 0.347858 3.38101C0.347858 3.38452 0.348838 3.38792 0.350613 3.39062L0.348933 3.48249Z" fill="#EDC3B1"/>
<path d="M25.0503 14.7867C25.0503 14.7226 25.0939 14.7205 25.1308 14.7119C25.1248 14.7332 25.1139 14.7517 25.0995 14.765C25.0852 14.7784 25.068 14.7859 25.0503 14.7867Z" fill="#EDC3B1"/>
<path d="M25.8808 12.1225C25.849 12.1097 25.8439 12.0862 25.8674 12.0563L25.8808 12.1225Z" fill="#DC968F"/>
<path d="M24.7617 15.0068C24.7617 14.9598 24.7835 14.9598 24.8104 14.9704C24.8065 14.9824 24.7996 14.9924 24.7908 14.9989C24.782 15.0055 24.7718 15.0082 24.7617 15.0068Z" fill="#EDC3B1"/>
<path d="M24.9614 14.8594C24.9614 14.8145 24.9866 14.8123 25.0117 14.8188C25.0078 14.8315 25.0009 14.8423 24.9918 14.8496C24.9828 14.8569 24.9721 14.8603 24.9614 14.8594Z" fill="#EDC3B1"/>
<path d="M25.1343 14.7098C25.1343 14.6692 25.1611 14.6671 25.1863 14.6692C25.1821 14.6821 25.1748 14.6929 25.1654 14.7002C25.1561 14.7075 25.1452 14.7109 25.1343 14.7098Z" fill="#EDC3B1"/>
<path d="M25.0151 14.8166C25.0151 14.7931 25.0269 14.7846 25.0453 14.7888L25.0151 14.8166Z" fill="#EDC3B1"/>
<path d="M21.1681 5.21304C20.8729 5.42554 20.5649 5.60773 20.247 5.75786C19.8352 5.96697 19.4145 6.1467 18.987 6.29624C18.6515 6.42016 18.3058 6.48853 17.9636 6.56972C17.4098 6.69204 16.8477 6.74356 16.2858 6.72354C15.8032 6.6997 15.3245 6.60288 14.8598 6.43512C14.3445 6.25356 13.8212 6.11088 13.2927 6.00782C13.026 5.96296 12.7525 5.92449 12.479 5.9074C12.2056 5.89031 11.8952 5.87536 11.6033 5.8839C11.3113 5.89245 11.0395 5.93304 10.7644 5.95441C10.6872 5.95441 10.6822 6.02064 10.6872 6.09115C10.7006 6.25352 10.7141 6.41803 10.7308 6.5804C10.7486 6.85096 10.7333 7.1234 10.6855 7.388C10.6467 7.25112 10.6285 7.10617 10.6318 6.9607C10.5939 6.38284 10.5142 5.81068 10.3936 5.25151C10.3028 4.80995 10.1786 4.38065 10.0228 3.96961C10.005 3.93406 9.99763 3.89166 10.0019 3.84986C10.0062 3.80806 10.0219 3.76952 10.0463 3.741C10.0915 3.685 10.1214 3.61206 10.1316 3.53287C10.1419 3.45368 10.132 3.37239 10.1034 3.30088C10.2376 3.39062 10.3466 3.41411 10.4389 3.27951C10.4497 3.26705 10.4638 3.26014 10.4783 3.26014C10.4929 3.26014 10.507 3.26705 10.5178 3.27951C10.5446 3.30942 10.5312 3.34575 10.5178 3.37779C10.4805 3.45629 10.4308 3.52397 10.3718 3.57649C10.3371 3.59969 10.31 3.6376 10.2949 3.68364C10.2799 3.72968 10.278 3.78096 10.2896 3.82859C10.3164 3.94396 10.3919 3.92046 10.4574 3.92046C10.7947 3.92633 11.1317 3.892 11.464 3.81791C11.6106 3.78991 11.7589 3.77989 11.9069 3.788C12.1848 3.78165 12.4619 3.74808 12.7357 3.68759C13.1518 3.60854 13.5746 3.64912 13.9873 3.53161C14.077 3.51127 14.1685 3.50696 14.2591 3.5188C14.2792 3.52415 14.3 3.52379 14.32 3.51773C14.3399 3.51166 14.3586 3.50004 14.3746 3.48371C14.3907 3.46737 14.4037 3.44672 14.4127 3.42324C14.4217 3.39976 14.4266 3.37402 14.4269 3.34788C14.4351 3.25646 14.465 3.1704 14.5127 3.10128C14.5604 3.03215 14.6235 2.98326 14.6937 2.96117C14.7541 2.9334 14.7826 2.86931 14.8212 2.81803C14.8598 2.76676 14.9101 2.71975 14.9722 2.76248C15.0342 2.80521 15.0326 2.87785 15.0074 2.95049C14.984 3.01469 14.9752 3.08598 14.982 3.15623C14.9888 3.22648 15.011 3.29288 15.046 3.34788C14.9447 3.34619 14.847 3.30017 14.7692 3.21756C14.7037 3.16842 14.645 3.12569 14.5813 3.23037C14.5175 3.33506 14.5477 3.37779 14.5963 3.45684C14.6634 3.57571 14.716 3.7068 14.7524 3.84569C14.7675 3.8991 14.7943 3.95679 14.8447 3.94183C14.895 3.92688 14.8916 3.86064 14.8883 3.80295C14.8852 3.77398 14.8875 3.74451 14.8948 3.71682C14.9022 3.68914 14.9145 3.664 14.9307 3.64333C14.9469 3.62266 14.9667 3.60703 14.9884 3.59766C15.0102 3.58829 15.0333 3.58543 15.056 3.5893C15.0783 3.59352 15.1009 3.59352 15.1232 3.5893C15.15 3.35856 15.3648 3.42266 15.4369 3.25387C15.4788 3.15132 15.4369 3.08295 15.4033 3.00177C15.6533 3.02313 15.6701 3.00177 15.7523 2.71335C15.7825 2.60652 15.8463 2.65352 15.8966 2.64498C15.9469 2.63643 16.0442 2.55097 16.0812 2.64498C16.1181 2.73898 16.0208 2.79453 15.9755 2.85863C15.8832 2.98041 15.7825 3.09151 15.6852 3.20688C15.6634 3.23251 15.6382 3.25387 15.6433 3.29447C15.6483 3.33506 15.6919 3.35001 15.7238 3.34574C15.9627 3.34481 16.2012 3.31909 16.4368 3.26883C16.6156 3.22844 16.7972 3.21126 16.9787 3.21756C17.2513 3.20297 17.5229 3.16873 17.7924 3.11501C18.2136 3.03809 18.6414 3.07441 19.0575 2.95903C19.1424 2.93661 19.2298 2.93228 19.3158 2.94622C19.4467 2.96544 19.5541 2.8629 19.6799 2.85649C19.7487 2.85649 19.7403 2.76462 19.7118 2.69625C19.544 2.301 19.4434 1.86088 19.195 1.52331C19.0566 1.2872 18.8973 1.07214 18.7202 0.882365C18.5042 0.70492 18.2423 0.642046 17.9904 0.70717C17.8008 0.743491 17.6079 0.707172 17.4183 0.762721C17.3529 0.784086 17.3076 0.747759 17.3059 0.64948C17.3042 0.551202 17.373 0.58325 17.4082 0.58325C17.8176 0.58325 18.227 0.566158 18.6347 0.58325C18.8342 0.585877 19.0298 0.655126 19.2018 0.784081C19.3863 0.929363 19.5759 1.07037 19.7521 1.23488C19.9391 1.41339 20.1018 1.62994 20.2336 1.87583C20.3676 2.10148 20.4708 2.35428 20.5389 2.6236C20.5825 2.80521 20.7067 2.95262 20.7654 3.14277C20.9153 3.63583 21.0325 4.14395 21.1161 4.66183C21.1439 4.84372 21.1613 5.02794 21.1681 5.21304ZM19.3813 4.08497C19.4702 4.08497 19.5088 4.24521 19.591 4.14693C19.6732 4.04865 19.7437 3.99311 19.7252 3.84569C19.7068 3.69827 19.7621 3.68972 19.8443 3.70467C19.9265 3.71963 19.9936 3.64486 20.0473 3.56581C20.0675 3.5359 20.0792 3.49957 20.0473 3.46752C20.0155 3.43547 20.0037 3.4547 19.9802 3.46752C19.9567 3.48034 19.9299 3.54444 19.8997 3.48248C19.8695 3.42052 19.9098 3.41624 19.9249 3.3842C19.9382 3.3642 19.9467 3.33984 19.9496 3.3139C19.9525 3.28795 19.9496 3.26149 19.9412 3.23759C19.9327 3.21368 19.9192 3.1933 19.902 3.17879C19.8849 3.16428 19.8649 3.15623 19.8443 3.15559C19.8182 3.14718 19.7909 3.14692 19.7646 3.15482C19.7384 3.16272 19.714 3.17855 19.6936 3.20098C19.6732 3.22341 19.6573 3.25176 19.6474 3.28366C19.6374 3.31555 19.6336 3.35004 19.6363 3.3842C19.6363 3.5188 19.6044 3.57435 19.4954 3.56153C19.4571 3.56072 19.4199 3.57655 19.3897 3.6064C19.3343 3.65981 19.2924 3.67263 19.242 3.6064C19.2361 3.59448 19.228 3.58466 19.2183 3.57786C19.2086 3.57105 19.1977 3.56748 19.1867 3.56748C19.1756 3.56748 19.1647 3.57105 19.155 3.57786C19.1454 3.58466 19.1372 3.59448 19.1313 3.6064C19.0944 3.66195 19.1212 3.71108 19.1548 3.74954C19.2185 3.82005 19.2856 3.88628 19.3494 3.96319L19.3226 4.01874C19.2658 3.97879 19.1991 3.96849 19.1365 3.99002C19.0738 4.01154 19.0203 4.06321 18.987 4.13411C18.9649 4.19265 18.96 4.25934 18.9733 4.32207C18.9865 4.3848 19.017 4.43941 19.0592 4.47596C19.0849 4.51637 19.1201 4.54523 19.1597 4.5583C19.1992 4.57138 19.241 4.56797 19.2789 4.54859C19.4316 4.44176 19.4299 4.28367 19.3813 4.08497Z" fill="#DC968F"/>
<path d="M7.77131 9.0374C8.12447 8.76472 8.4355 8.41209 8.68904 7.99692C8.76355 7.87186 8.81467 7.7268 8.83851 7.57278C8.86235 7.41876 8.85827 7.25985 8.82661 7.10813C8.65709 6.10586 8.40225 5.13012 8.0666 4.19822C7.952 3.84833 7.81916 3.50859 7.66897 3.18126C7.39262 2.6369 6.9646 2.24604 6.47106 2.08736C5.67749 1.77116 4.85707 1.76048 4.03833 1.80108C3.53962 1.81085 3.04506 1.91822 2.57198 2.11941C2.58205 2.10019 2.58708 2.066 2.59882 2.06172C2.65419 2.03609 2.70117 2.00191 2.68271 1.91858C2.66426 1.83526 2.61393 1.88654 2.57534 1.89508C2.53675 1.90363 2.525 1.87799 2.50655 1.84807C2.46362 1.78229 2.40525 1.73579 2.34001 1.7154C2.27478 1.69502 2.20613 1.70183 2.14416 1.73485C2.04945 1.77751 1.94928 1.79708 1.84888 1.79254C1.84888 1.73912 1.87907 1.72416 1.91766 1.71775C2.17939 1.68143 2.43274 1.58529 2.69111 1.52974C3.11713 1.42341 3.54808 1.35204 3.98129 1.31609C4.24973 1.30327 4.51649 1.24772 4.78325 1.24986C5.30051 1.23734 5.81566 1.33704 6.30664 1.5447C6.8974 1.80259 7.42255 2.25875 7.82668 2.86505C8.12169 3.30723 8.37402 3.79283 8.57831 4.31146C8.89935 5.07671 9.14612 5.88885 9.31316 6.72998C9.40864 7.2049 9.42237 7.70049 9.35342 8.1828C9.31397 8.48166 9.21715 8.76349 9.07156 9.00322C9.02291 8.91562 9.0011 8.80239 8.91721 8.78957C8.83333 8.77675 8.78803 8.88143 8.72763 8.93911C8.52294 9.12499 8.35181 9.37924 8.08841 9.44334C8.04982 9.41984 8.00619 9.38565 7.96928 9.43052C7.83171 9.58648 7.71426 9.43051 7.59011 9.39633C7.53978 9.39633 7.5381 9.31727 7.5381 9.25959C7.545 9.23751 7.55709 9.21869 7.5727 9.20569C7.58832 9.19269 7.6067 9.18615 7.62535 9.18695C7.70085 9.25532 7.73944 9.22754 7.74111 9.11217L7.77131 9.0374Z" fill="#DC968F"/>
<path d="M7.53803 9.25745C7.53803 9.31514 7.53803 9.38349 7.59004 9.39418C7.71419 9.41981 7.83163 9.58433 7.96921 9.42837C8.00612 9.3835 8.04974 9.41768 8.08833 9.44119C7.85649 9.60033 7.60787 9.71617 7.35012 9.78516C6.8468 9.95181 6.35354 10.1313 5.85358 10.2936C5.51454 10.3706 5.16751 10.3706 4.82848 10.2936C4.6506 10.2667 4.47452 10.2231 4.30166 10.1633C3.93363 10.049 3.58047 9.86763 3.25307 9.62492C3.03205 9.47539 2.83149 9.28131 2.65915 9.0502C2.64988 9.09213 2.64855 9.13625 2.65525 9.17896C2.66196 9.22167 2.67652 9.26175 2.69774 9.29591C2.83315 9.69734 3.02991 10.0605 3.27656 10.3642C3.34864 10.4451 3.43162 10.5088 3.52151 10.5522C4.06806 10.8114 4.636 10.9906 5.21436 11.0863C5.59061 11.1462 5.97082 11.1548 6.34851 11.1119C6.85195 11.0509 7.34836 10.9176 7.82828 10.7145C7.85783 10.6981 7.89105 10.6957 7.92186 10.7079C7.95267 10.72 7.97901 10.7459 7.99606 10.7808C8.03975 10.8449 8.08868 10.9029 8.14202 10.9538C8.35006 11.1867 8.53629 10.9752 8.71413 10.8876C9.06089 10.7271 9.38497 10.4963 9.6738 10.2039C9.69394 10.1826 9.72917 10.1868 9.75769 10.1804C9.56315 10.4657 9.32056 10.6913 9.048 10.8406C8.67157 11.0843 8.2673 11.2509 7.8501 11.3341C7.57327 11.3961 7.29308 11.4217 7.01122 11.4623C6.96592 11.4623 6.91055 11.4452 6.90049 11.5371C6.54816 11.5371 6.19584 11.5606 5.84687 11.5371C5.41653 11.5105 4.99098 11.4099 4.58184 11.238C4.20603 11.0713 3.83525 10.8833 3.46111 10.7145C2.95779 10.4881 2.64908 10.0159 2.40245 9.45827C2.13256 8.8244 1.94127 8.1412 1.83538 7.43287C1.73423 6.84228 1.69028 6.23814 1.70452 5.63394C1.7158 5.35552 1.75412 5.07995 1.8186 4.81352C1.89746 4.79857 1.94108 4.86907 1.98638 4.93317C2.016 4.98659 2.05704 5.02808 2.10462 5.05269C2.1522 5.07731 2.20432 5.08402 2.25481 5.07204C2.24307 5.24724 2.23636 5.42456 2.21791 5.59975C2.17175 6.08867 2.17175 6.58288 2.21791 7.0718C2.25254 7.51831 2.3515 7.95287 2.50983 8.3537C2.64124 8.70696 2.81501 9.03204 3.0249 9.31727C3.34839 9.68398 3.76623 9.88693 4.19932 9.88771C4.64225 9.93044 5.08853 9.93684 5.54152 9.93898C6.06997 9.95432 6.59462 9.82159 7.07833 9.55015C7.22765 9.44546 7.38367 9.35146 7.53803 9.25745Z" fill="#DC968F"/>
<path d="M1.84884 1.79253C1.94924 1.79708 2.04942 1.7775 2.14413 1.73484C2.20609 1.70183 2.27474 1.69502 2.33998 1.7154C2.40522 1.73578 2.46359 1.78228 2.50652 1.84807C2.52497 1.87798 2.54175 1.90363 2.57531 1.89508C2.60886 1.88653 2.66254 1.83098 2.68268 1.91858C2.70281 2.00617 2.65416 2.03608 2.59879 2.06172C2.58705 2.06172 2.58202 2.10018 2.57195 2.11941C2.24646 2.27177 1.95182 2.51485 1.70959 2.83087C1.62881 2.96333 1.55962 3.10661 1.50323 3.25817C1.36597 3.43617 1.27667 3.66511 1.24821 3.91193C1.1651 4.33722 1.11287 4.77133 1.09218 5.20879C1.05191 5.80701 1.04017 6.40308 1.04017 7.0013C1.04017 7.15727 1.09386 7.3111 1.04017 7.47134C1.02339 7.52261 1.04017 7.61234 0.984801 7.61662C0.955424 7.61473 0.927566 7.59945 0.90631 7.57356C0.885054 7.54767 0.871819 7.5129 0.869036 7.47561C0.817585 7.06683 0.76837 6.65805 0.721394 6.24926C0.684483 5.9352 0.630803 5.62541 0.614026 5.30494C0.563693 5.35835 0.57711 5.42671 0.57711 5.48653C0.57711 5.99217 0.57711 6.4978 0.57711 7.00344C0.57711 7.13163 0.577109 7.247 0.471411 7.32178C0.447686 7.34349 0.429164 7.37316 0.417907 7.40749C0.406649 7.44182 0.4031 7.47946 0.407656 7.51621C0.408293 7.68261 0.400455 7.8489 0.384176 8.01401C0.384176 8.07597 0.400947 8.11015 0.451279 8.09733C0.541877 8.07596 0.53349 8.16357 0.504968 8.20203C0.454025 8.28662 0.423689 8.38839 0.417722 8.49473C0.374101 8.49473 0.377465 8.45627 0.37411 8.4285C0.370754 8.40072 0.385854 8.29176 0.3221 8.2768C0.258346 8.26184 0.266734 8.34516 0.248279 8.39217C0.229824 8.43917 0.228143 8.47335 0.19291 8.4584C0.177238 8.44933 0.164328 8.43399 0.156148 8.4147C0.147969 8.39541 0.144967 8.37323 0.147608 8.35157C0.147608 8.26184 0.171102 8.17212 0.184524 8.08238C0.204657 7.94351 0.312031 7.84095 0.266731 7.67217C0.239784 7.53705 0.222934 7.39899 0.216401 7.25982C0.115737 7.32819 0.119083 7.32819 0.102306 7.09959C0.0643438 6.68698 0.0497742 6.27142 0.0586928 5.85614C0.0686785 5.39972 0.100617 4.9445 0.154325 4.49306C0.190841 4.15445 0.260153 3.8229 0.360685 3.50599C0.360685 3.50599 0.350614 3.4889 0.345581 3.47822C0.340547 3.46754 0.345581 3.42481 0.345581 3.39917L0.364044 3.37353C0.452964 3.34362 0.446247 3.23039 0.473091 3.15988C0.59092 2.82684 0.756497 2.5247 0.96132 2.26897C0.980952 2.24213 1.00356 2.2191 1.02842 2.2006C1.07037 2.17282 1.12406 2.12582 1.15761 2.2006C1.19117 2.27537 1.14083 2.30315 1.10895 2.33947C1.07707 2.3758 0.999901 2.3993 1.05862 2.47194C1.11734 2.54458 1.16264 2.47194 1.19284 2.41852C1.26666 2.30102 1.34216 2.17283 1.23478 1.99122C1.39081 2.11514 1.4747 2.09591 1.54349 1.87158C1.57537 1.78398 1.74315 1.79039 1.84884 1.79253Z" fill="#DC968F"/>
<path d="M14.093 0.878098C13.6148 0.818276 13.1333 0.858876 12.6535 0.831101C12.0797 0.796917 11.5042 0.788361 10.9287 0.754178C10.5261 0.72854 10.1234 0.739221 9.72076 0.726402C9.50537 0.728127 9.29045 0.752428 9.07818 0.799049C9.01611 0.811868 8.94397 0.824686 8.93222 0.918692C8.92048 1.0127 8.98927 1.02552 9.0396 1.06397C9.25986 1.23925 9.4317 1.49767 9.53118 1.80321C9.66875 2.1835 9.79962 2.5702 9.9288 2.95905C9.99423 3.1556 9.97746 3.17269 9.8164 3.23679C9.73251 3.26884 9.70567 3.21116 9.67211 3.14066C9.26033 2.28215 8.68942 1.5654 8.00946 1.05329C7.78603 0.890431 7.55395 0.74765 7.31488 0.625993C7.27965 0.606764 7.23267 0.606761 7.23267 0.542666C7.23325 0.524938 7.23703 0.507621 7.24373 0.492057C7.25042 0.476494 7.25984 0.463108 7.27126 0.452937C7.31488 0.433708 7.34172 0.487125 7.36186 0.523445C7.37581 0.549231 7.39406 0.570786 7.41529 0.586599C7.43652 0.602411 7.46021 0.612094 7.48471 0.614948C7.5092 0.617802 7.53388 0.613764 7.55701 0.60312C7.58014 0.592477 7.60115 0.575478 7.61856 0.553346C7.72826 0.46604 7.85698 0.425625 7.98598 0.43798C8.86176 0.43798 9.73754 0.405932 10.6116 0.43798C11.271 0.467891 11.9304 0.423019 12.5864 0.472158C13.1534 0.514888 13.7205 0.472165 14.2859 0.506349C15.0157 0.564035 15.7472 0.506344 16.477 0.540528C16.5962 0.540528 16.7153 0.564039 16.8344 0.576858C16.9065 0.576858 16.8931 0.6559 16.8931 0.715722C16.8931 0.775544 16.8713 0.786231 16.8277 0.773412C16.6096 0.709317 16.3965 0.803317 16.1801 0.80759C16.0123 0.80759 15.8445 0.828965 15.6633 0.831101C15.3848 0.831101 15.1046 0.84392 14.8245 0.831101C14.5795 0.820419 14.3396 0.897327 14.093 0.878098Z" fill="#DC968F"/>
<path d="M0.374841 3.37781L0.357127 3.40345C0.355423 3.40076 0.354492 3.39736 0.354492 3.39384C0.354492 3.39032 0.355423 3.38691 0.357127 3.38422C0.359357 3.3811 0.362192 3.37887 0.365316 3.37774C0.368439 3.37661 0.371729 3.37663 0.374841 3.37781Z" fill="#DC968F"/>
<path d="M16.7456 7.53969C16.7137 7.60165 16.7607 7.62301 16.7708 7.65933C16.7763 7.67609 16.7775 7.69464 16.7742 7.71232C16.7708 7.72999 16.7632 7.74586 16.7523 7.75762C16.7238 7.78967 16.6986 7.77257 16.6768 7.7448C16.5711 7.61234 16.4637 7.48201 16.3597 7.34741C16.3245 7.30255 16.2943 7.24271 16.3463 7.1893C16.3983 7.13589 16.4218 7.21067 16.452 7.24271C16.4822 7.27476 16.4855 7.28545 16.504 7.30468C16.5224 7.32391 16.5459 7.38373 16.5862 7.36023C16.6265 7.33673 16.6047 7.29613 16.6063 7.25981C16.608 7.22349 16.6063 7.14872 16.655 7.14444C16.7036 7.14017 16.7171 7.20426 16.7171 7.24913C16.7171 7.35168 16.7523 7.38373 16.8311 7.38587C16.8798 7.38587 16.9687 7.38587 16.962 7.4756C16.9553 7.56533 16.8764 7.57602 16.8093 7.56106L16.7456 7.53969Z" fill="#DC968F"/>
<path d="M11.8097 7.31324C11.7191 7.31324 11.6419 7.2876 11.6419 7.15086C11.641 7.08675 11.655 7.02373 11.6822 6.96974C11.7093 6.91574 11.7484 6.87321 11.7946 6.84748C11.8231 6.82398 11.8499 6.84749 11.8617 6.89022C11.8684 6.90965 11.8692 6.93156 11.8639 6.9517C11.8587 6.97184 11.8477 6.98877 11.8332 6.99918C11.7946 7.03336 11.7325 7.06113 11.7728 7.13591C11.813 7.21068 11.8516 7.13592 11.8902 7.12096C11.9892 7.08678 12.0915 7.03549 12.1519 7.1936C12.1661 7.26757 12.1607 7.34547 12.1364 7.41507C12.1121 7.48467 12.0703 7.54203 12.0177 7.57816C11.9841 7.60166 11.954 7.60807 11.9271 7.57816C11.9003 7.54825 11.9154 7.50125 11.9405 7.4692C11.9657 7.43715 11.9623 7.44356 11.9707 7.43074C11.9791 7.41792 12.0647 7.37947 12.0311 7.30896C11.9976 7.23846 11.9556 7.28973 11.9137 7.30896C11.8717 7.32819 11.8466 7.30683 11.8097 7.31324Z" fill="#DC968F"/>
<path d="M20.7335 8.48404C20.6831 8.51182 20.6747 8.57806 20.6479 8.62934C20.5137 8.66566 20.4801 8.5161 20.4298 8.41569C20.4013 8.36868 20.46 8.27894 20.4818 8.31526C20.5808 8.48191 20.6496 8.31526 20.7368 8.30244C20.7501 8.29954 20.7637 8.29954 20.7771 8.30244C20.7939 8.39004 20.7267 8.41995 20.7335 8.48404Z" fill="#DC968F"/>
<path d="M19.7311 9.61212C19.7231 9.61212 19.7118 9.61212 19.7102 9.59716C19.7086 9.58221 19.7102 9.57152 19.7102 9.56939C19.7102 9.56725 19.7295 9.56939 19.7311 9.5822C19.7327 9.59502 19.7343 9.60144 19.7311 9.61212Z" fill="#DC968F"/>
<path d="M14.932 15.7289C14.7206 15.796 14.5059 15.8452 14.2894 15.8763C13.9673 15.934 13.6485 16.0045 13.3264 16.0451C13.1167 16.0707 12.9086 16.1092 12.6989 16.1327C12.2141 16.184 11.7275 16.231 11.2426 16.278C11.1611 16.2844 11.0793 16.2844 10.9977 16.278C10.7712 16.2545 10.5481 16.325 10.3266 16.3164C10.2041 16.3164 10.0783 16.231 9.96253 16.3784C9.91555 16.4361 9.82663 16.3549 9.75113 16.3613C9.75113 16.466 9.88368 16.5322 9.77966 16.654C9.67564 16.7758 9.62866 16.8228 9.51625 16.7886C9.46928 16.7737 9.41055 16.7544 9.40049 16.6925C9.37029 16.5301 9.26627 16.5087 9.17064 16.5045C8.67508 16.4547 8.18547 16.3343 7.711 16.1455C7.18754 15.9725 6.66408 15.8015 6.14566 15.6071C5.99974 15.5815 5.8574 15.5297 5.72287 15.4533C5.71248 15.4466 5.70099 15.443 5.68932 15.443C5.67765 15.443 5.66615 15.4466 5.65576 15.4533C5.51987 15.6221 5.52322 15.4533 5.50476 15.2931C5.44436 15.5067 5.40074 15.4725 5.33699 15.3507C5.31014 15.2995 5.23633 15.2888 5.18432 15.2589C4.61607 14.9054 4.0818 14.4695 3.59214 13.9599C3.19607 13.564 2.82059 13.1358 2.46805 12.678C2.1882 12.3566 1.93571 11.9985 1.71474 11.6097C1.67528 11.5327 1.64157 11.4512 1.61407 11.3662C1.55871 11.1953 1.60401 11.1248 1.74662 11.1525C1.78689 11.1525 1.82379 11.2081 1.87748 11.1525C1.66455 10.885 1.49371 10.5681 1.37416 10.2189C1.31908 10.0904 1.27948 9.95213 1.25671 9.80866C1.22987 9.56083 1.11914 9.33864 1.12418 9.08226C1.12418 9.00962 1.09062 8.98184 1.02854 8.98398C0.783592 8.98398 0.692995 8.83015 0.77856 8.55668C0.792567 8.52303 0.798598 8.48493 0.795917 8.447C0.793237 8.40907 0.781955 8.37295 0.763456 8.34303C0.75779 8.33484 0.753608 8.32517 0.751188 8.31471C0.748769 8.30424 0.748179 8.29322 0.749458 8.28243C0.750737 8.27164 0.753854 8.26134 0.758592 8.25224C0.763331 8.24315 0.76957 8.23548 0.776881 8.22979C0.805403 8.20842 0.828895 8.2298 0.854061 8.25544C0.949692 8.33022 0.991632 8.48403 1.11243 8.53958C1.04364 8.16997 1.07887 8.06101 1.26846 8.03323V8.17851C1.22316 8.17851 1.18457 8.17852 1.18457 8.26612C1.18457 8.35371 1.20471 8.39431 1.27014 8.40072C1.29633 8.45578 1.30643 8.52084 1.29866 8.58445C1.25504 8.60368 1.21142 8.53318 1.16444 8.58445C1.16444 8.65496 1.21142 8.7041 1.20806 8.77674C1.19022 9.18464 1.28258 9.58801 1.46979 9.91977C1.78017 10.4817 2.26337 10.7744 2.72139 11.0777C3.02175 11.2682 3.3344 11.4255 3.6559 11.5478C4.18103 11.7721 4.66254 12.1545 5.24303 12.1887C5.41081 12.1887 5.57858 12.1887 5.74636 12.1887C6.21613 12.1994 6.67919 12.2955 7.1456 12.3297C7.31337 12.3425 7.49792 12.3297 7.67408 12.3297C7.85025 12.3297 7.99789 12.3682 8.16063 12.3661C8.71429 12.3661 9.26627 12.3789 9.81824 12.3661C10.4357 12.3418 11.0508 12.2977 11.6638 12.2336C12.0396 12.193 12.4154 12.1374 12.7912 12.1075C13.115 12.0819 13.4371 12.0157 13.7593 11.9708C13.8297 11.9708 13.9035 11.9708 13.9757 11.9708C14.023 12.0541 14.0874 12.1192 14.1619 12.1588C14.271 12.2379 14.427 12.2656 14.4371 12.4857C13.9237 12.4686 13.4136 12.5519 12.9003 12.5648C12.5144 12.5776 12.1268 12.6203 11.7393 12.6374C11.5967 12.6374 11.4507 12.6652 11.2661 12.6823L11.5715 12.8959C11.5884 12.9079 11.6075 12.9142 11.6268 12.9142C11.6462 12.9142 11.6653 12.9079 11.6822 12.8959C11.9087 12.7378 12.1285 12.866 12.3533 12.9151C12.3667 12.9151 12.3902 12.9301 12.3902 12.9386C12.4003 13.1309 12.5395 13.2484 12.558 13.43C12.5681 13.5069 12.5228 13.5326 12.4808 13.5668C12.2896 13.7185 12.2778 13.727 12.3567 13.9791C12.4355 14.2312 12.5244 14.4812 12.7526 14.5667C12.7836 14.5757 12.8117 14.5964 12.8333 14.6262C12.8548 14.6559 12.8688 14.6932 12.8734 14.7333C12.8807 14.7918 12.9 14.8468 12.9295 14.8926C12.959 14.9384 12.9976 14.9734 13.0412 14.9939C13.2372 15.1323 13.425 15.2887 13.6032 15.4618C13.643 15.4966 13.6879 15.5208 13.7351 15.5329C13.7824 15.5451 13.8312 15.5449 13.8784 15.5324C14.1166 15.4875 14.3465 15.5794 14.5814 15.5601C14.6871 15.5601 14.7961 15.4832 14.9052 15.5601L14.9337 15.6712L14.932 15.7289ZM11.6235 13.9086C11.7443 13.9748 11.8517 14.0197 11.949 13.883C11.9725 13.8488 12.0245 13.8189 11.9943 13.7655C11.9641 13.7121 11.9221 13.7462 11.8886 13.7655C11.8299 13.8082 11.7678 13.836 11.7208 13.7655C11.7109 13.7496 11.7036 13.7313 11.6995 13.7117C11.6954 13.6922 11.6944 13.6717 11.6968 13.6516C11.6992 13.6316 11.7048 13.6124 11.7132 13.5952C11.7217 13.578 11.7328 13.5633 11.746 13.5518C11.7778 13.5134 11.7946 13.4685 11.746 13.43C11.7382 13.4226 11.7291 13.4175 11.7196 13.4152C11.71 13.4129 11.7001 13.4134 11.6907 13.4167C11.6813 13.42 11.6726 13.426 11.6654 13.4342C11.6581 13.4425 11.6523 13.4527 11.6487 13.4642C11.6068 13.5232 11.582 13.5985 11.5782 13.6779C11.5782 13.7783 11.5983 13.8723 11.4608 13.8296C11.4125 13.8183 11.3627 13.8317 11.3222 13.8669C11.2817 13.9021 11.2537 13.9562 11.2443 14.0176C11.2303 14.0826 11.2339 14.1517 11.2546 14.2138C11.2754 14.2758 11.3119 14.3271 11.3584 14.3594C11.4457 14.4427 11.5262 14.3979 11.5933 14.3295C11.7275 14.2099 11.6873 14.0646 11.6235 13.9086ZM6.75804 14.1778C6.75561 14.1193 6.74156 14.0625 6.7172 14.0128C6.69285 13.9631 6.65898 13.9221 6.61879 13.8936C6.59002 13.8647 6.5538 13.8504 6.5172 13.8535C6.48061 13.8567 6.44625 13.8771 6.42081 13.9107C6.36713 13.9834 6.33021 14.0069 6.27317 13.9236C6.2676 13.9134 6.2602 13.9052 6.25159 13.8994C6.24297 13.8937 6.2334 13.8907 6.22368 13.8907C6.21397 13.8907 6.20439 13.8937 6.19578 13.8994C6.18716 13.9052 6.17975 13.9134 6.17418 13.9236C6.13727 13.9791 6.17419 14.0133 6.20271 14.0453C6.27989 14.1458 6.35706 14.2483 6.43759 14.3423C6.48456 14.3957 6.51812 14.5111 6.60536 14.4598C6.64747 14.4329 6.68364 14.3929 6.71059 14.3437C6.73754 14.2945 6.75443 14.2374 6.75972 14.1778H6.75804ZM11.949 13.3061L11.9087 13.3382C11.8634 13.2677 11.8198 13.195 11.7711 13.1245C11.7225 13.054 11.7074 13.0583 11.6738 13.1096C11.6651 13.1179 11.6581 13.1287 11.6532 13.1412C11.6484 13.1536 11.6459 13.1673 11.6459 13.1811C11.6459 13.195 11.6484 13.2087 11.6532 13.2211C11.6581 13.2335 11.6651 13.2443 11.6738 13.2527C11.7913 13.3852 11.9054 13.524 12.0194 13.6608C12.0631 13.7121 12.1235 13.695 12.1151 13.6351C12.0916 13.4877 12.1486 13.4834 12.2342 13.4749C12.2597 13.4729 12.284 13.4603 12.3034 13.4391C12.3227 13.4179 12.3361 13.3892 12.3416 13.3574C12.2124 13.2976 12.006 13.3809 12.0362 13.069C12.0368 13.0629 12.0362 13.0568 12.0346 13.051C12.033 13.0453 12.0305 13.04 12.0271 13.0357C12.0237 13.0314 12.0196 13.0281 12.0151 13.0261C12.0106 13.0241 12.0057 13.0234 12.001 13.0241C11.9922 13.0276 11.9841 13.0337 11.9774 13.0419C11.9707 13.05 11.9656 13.06 11.9624 13.0711C11.9574 13.1502 11.9557 13.2292 11.9507 13.3061H11.949Z" fill="#DC968F"/>
<path d="M7.42405 8.59727C7.28934 8.72481 7.13306 8.81041 6.96771 8.84724C6.46549 9.02037 5.9524 9.13761 5.43425 9.19763C4.97683 9.26968 4.51283 9.23054 4.06688 9.08226C3.33539 8.82802 2.8673 8.24048 2.72469 7.27478C2.69789 7.05103 2.69789 6.8234 2.72469 6.59965C2.75153 6.339 2.75321 6.0762 2.76663 5.81555C2.77509 5.2682 2.92952 4.74079 3.20453 4.32C3.26325 4.23454 3.33539 4.1619 3.40082 4.08285C3.4491 4.08459 3.49602 4.06238 3.53168 4.0209C3.66875 3.92254 3.81391 3.84372 3.96454 3.78587C4.37814 3.60678 4.81948 3.55695 5.25137 3.64059C5.46381 3.69511 5.66308 3.813 5.83281 3.98458C6.00255 4.15616 6.13792 4.37655 6.22782 4.62765C6.35456 5.02031 6.39234 5.45034 6.33688 5.86896C6.30876 6.26522 6.21006 6.64809 6.0483 6.98848C5.71275 7.62943 5.29331 7.78967 4.7061 7.69566C4.42189 7.66381 4.15651 7.50129 3.95951 7.23846C3.71624 6.9009 3.57866 6.19157 3.89408 5.76427C3.9035 5.74667 3.91566 5.73171 3.9298 5.72031C3.94394 5.70892 3.95976 5.70135 3.97629 5.69804C4.21454 5.85805 4.46762 5.97936 4.72959 6.05911C4.82957 6.08703 4.93319 6.08598 5.0328 6.05602C5.13241 6.02607 5.22545 5.96798 5.30506 5.88605C5.70604 5.66172 5.73457 4.97377 5.3554 4.60416C5.19127 4.45224 4.99453 4.36799 4.79167 4.36273C4.28945 4.3268 3.79405 4.52417 3.39746 4.91821C3.33707 4.97804 3.26996 5.03145 3.25318 5.13186C3.12903 5.22801 3.12064 5.40961 3.08541 5.55916C3.02831 5.84735 3.02831 6.14909 3.08541 6.43728C3.15662 7.01267 3.36446 7.5465 3.681 7.967C3.98579 8.33333 4.38612 8.54334 4.80509 8.55668C5.14905 8.58429 5.49434 8.54831 5.83019 8.44985C5.81342 8.55241 5.74631 8.546 5.68423 8.56096C5.31129 8.64317 4.93097 8.65612 4.55511 8.59941C4.14337 8.52985 3.76421 8.27707 3.48471 7.88581C3.34248 7.69683 3.21493 7.49076 3.10386 7.2705C3.0854 7.23632 3.07031 7.18932 3.02669 7.20641C2.98307 7.2235 2.973 7.2705 2.97132 7.32391C2.96945 7.38449 2.9751 7.44507 2.98809 7.50339C3.03821 7.71397 3.1222 7.90897 3.23473 8.07597C3.41572 8.34511 3.63759 8.56486 3.88698 8.722C4.13638 8.87915 4.40815 8.97044 4.68597 8.99039C5.01438 9.04178 5.34606 9.05037 5.67584 9.01603C5.95267 8.97757 6.23118 8.94979 6.51472 8.90279C6.82932 8.82751 7.13459 8.69889 7.42237 8.52036L7.42405 8.59727ZM4.90743 7.52902C5.08195 7.53808 5.25605 7.5012 5.41887 7.4207C5.58168 7.34019 5.7297 7.21778 5.85368 7.06113C5.98075 6.91272 6.08059 6.73049 6.14612 6.52741C6.21165 6.32432 6.24126 6.10536 6.23286 5.88605C6.22578 5.54509 6.17884 5.20738 6.0936 4.88404C6.04019 4.59325 5.93897 4.32019 5.79664 4.08285C5.74463 4.00807 5.68423 3.92048 5.60202 3.98244C5.51981 4.0444 5.53827 4.15122 5.5584 4.2495C5.62551 4.61057 5.69094 4.97376 5.76476 5.3327C5.80593 5.50131 5.81931 5.67894 5.80404 5.85445C5.78877 6.02995 5.74519 6.19954 5.67604 6.35259C5.60689 6.50564 5.51365 6.63885 5.40218 6.74386C5.2907 6.84888 5.1634 6.92343 5.02824 6.96285C4.96783 6.98706 4.90393 6.99383 4.84121 6.98265C4.77849 6.97147 4.71852 6.94262 4.66565 6.89822C4.61279 6.85381 4.56836 6.79496 4.53559 6.72594C4.50283 6.65693 4.48256 6.57948 4.47625 6.49923C4.47625 6.42872 4.44606 6.35822 4.43767 6.28558C4.43522 6.20818 4.41009 6.13476 4.36724 6.07979C4.32438 6.02482 4.2669 5.99228 4.20614 5.9886C4.1407 5.99153 4.07783 6.02177 4.0272 6.07465C3.97658 6.12754 3.941 6.20014 3.92596 6.2813C3.89598 6.41985 3.89443 6.56589 3.92145 6.70542C3.94848 6.84495 4.00317 6.97332 4.08031 7.07822C4.1805 7.23053 4.30742 7.35068 4.45082 7.42899C4.59421 7.5073 4.75004 7.54157 4.90575 7.52902H4.90743Z" fill="#DC968F"/>
<path d="M7.42407 8.59727V8.52036C7.45709 8.46049 7.49864 8.40904 7.54655 8.36866C7.66773 8.24709 7.76579 8.09227 7.83344 7.91573C8.04987 7.36451 8.0247 6.78338 7.95759 6.20653C7.92436 5.88141 7.85133 5.56493 7.74116 5.2686C7.71096 5.19169 7.69754 5.08059 7.61197 5.11264C7.56956 5.12631 7.53302 5.16055 7.51014 5.20804C7.48726 5.25554 7.47985 5.31254 7.4895 5.36688C7.54814 5.64229 7.5902 5.92298 7.61533 6.20653C7.66686 6.57681 7.60696 6.95822 7.44756 7.27478C7.16082 7.73757 6.77685 8.08725 6.34025 8.2832C6.3276 8.29249 6.31269 8.29547 6.29842 8.29152C6.28415 8.28757 6.27155 8.27698 6.26307 8.26184L6.35032 8.18706C6.61871 8.02313 6.84588 7.76713 7.00631 7.44783C7.26437 6.97967 7.39945 6.41951 7.39219 5.8476C7.37059 5.50521 7.28549 5.17424 7.14389 4.88189C6.83348 4.19114 6.41489 3.58901 5.9141 3.11288C5.7455 2.94459 5.54732 2.83098 5.3366 2.78186C5.12588 2.73273 4.90894 2.74955 4.70445 2.83086C4.3542 2.97673 3.99583 3.08886 3.63237 3.16629C3.47455 3.17968 3.31793 3.21042 3.16427 3.25816C3.04052 3.29423 2.9238 3.36185 2.82115 3.45696C2.71849 3.55206 2.63203 3.67267 2.567 3.81151C2.38815 4.19222 2.27918 4.61949 2.24823 5.06137C2.19774 5.07334 2.14561 5.06662 2.09803 5.042C2.05045 5.01739 2.00941 4.97591 1.97979 4.92249C1.93952 4.85839 1.8959 4.78789 1.81201 4.80285C1.86817 4.20222 2.06522 3.6371 2.37742 3.18125C2.47106 3.02466 2.58445 2.88892 2.71297 2.77959C2.75393 2.76484 2.79378 2.74553 2.83208 2.7219C3.13327 2.54955 3.45575 2.44544 3.78504 2.41424C4.19515 2.3708 4.60698 2.35939 5.01819 2.38006C5.39042 2.37335 5.76153 2.43376 6.12047 2.55952C6.47082 2.7303 6.78833 2.99477 7.05161 3.33507C7.36593 3.74066 7.618 4.21745 7.79485 4.74089C8.06434 5.54967 8.17934 6.42832 8.1304 7.30469C8.12835 7.58559 8.05984 7.85918 7.93384 8.08976C7.80784 8.32034 7.63019 8.4972 7.42407 8.59727Z" fill="#DC968F"/>
<path d="M14.4404 12.4942C14.4303 12.2806 14.2726 12.2464 14.1652 12.1674C14.0907 12.1278 14.0263 12.0627 13.979 11.9794C14.2609 11.9794 14.536 11.8875 14.8179 11.8576C15.1752 11.8148 15.5292 11.7443 15.8832 11.6845C16.3564 11.6055 16.8295 11.5307 17.3026 11.441C17.8059 11.3427 18.321 11.2444 18.831 11.1354C19.3864 11.0179 19.94 10.8769 20.4886 10.7081L20.8527 10.6077C21.0468 10.6611 21.2436 10.6975 21.4416 10.7167C21.6983 10.7722 21.955 10.8171 22.21 10.8812C21.2201 10.9239 20.2705 11.2337 19.3293 11.5734C18.9938 11.6952 18.6582 11.849 18.3126 11.9601C18.1885 12.0007 18.0643 12.0883 17.9284 11.99C17.8747 11.9516 17.8714 12.0819 17.8529 12.0648C17.7103 11.9323 17.6264 12.1417 17.5174 12.1545C17.1097 12.2058 16.7037 12.2806 16.296 12.3255C16.0342 12.3554 15.7725 12.3789 15.5108 12.4045C15.2239 12.4344 14.9353 12.4323 14.6484 12.4472C14.5729 12.4622 14.5058 12.4814 14.4404 12.4942Z" fill="#DC968F"/>
<path d="M6.27297 8.26612C6.28144 8.28126 6.29405 8.29183 6.30832 8.29578C6.32259 8.29973 6.3375 8.29677 6.35015 8.28748C6.78349 8.08823 7.16383 7.73719 7.44739 7.27478C7.60679 6.95822 7.66669 6.57681 7.61516 6.20653C7.59122 5.92237 7.55028 5.64096 7.49269 5.36475C7.48304 5.3104 7.49045 5.2534 7.51332 5.20591C7.5362 5.15841 7.57274 5.12418 7.61516 5.1105C7.70073 5.07846 7.71415 5.18955 7.74435 5.26646C7.85122 5.56419 7.92084 5.88139 7.95071 6.20653C8.01782 6.79193 8.04299 7.37306 7.82656 7.91573C7.75779 8.09017 7.65918 8.24276 7.53798 8.36226C7.49007 8.40263 7.44853 8.45408 7.41551 8.51394C7.12773 8.69247 6.82246 8.8211 6.50786 8.89639C6.22935 8.94339 5.95085 8.97116 5.66898 9.00961C5.3392 9.04395 5.00752 9.03536 4.67911 8.98398C4.40129 8.96403 4.12951 8.87274 3.88011 8.7156C3.63072 8.55845 3.40885 8.33869 3.22786 8.06955C3.11533 7.90255 3.03135 7.70756 2.98124 7.49697C2.96824 7.43865 2.96259 7.37808 2.96446 7.31751C2.96446 7.2641 2.97452 7.21923 3.01982 7.20001C3.06512 7.18078 3.07854 7.22991 3.097 7.2641C3.20807 7.48436 3.33562 7.69042 3.47785 7.87941C3.75735 8.27067 4.1365 8.52343 4.54824 8.59299C4.9241 8.6497 5.30443 8.63675 5.67737 8.55454C5.73945 8.53958 5.80656 8.55453 5.82333 8.44344C5.91897 8.39216 6.03808 8.41994 6.1119 8.29816H6.16727C6.16727 8.32593 6.16727 8.36225 6.20585 8.35157C6.24444 8.34089 6.21928 8.31526 6.22767 8.29603C6.22683 8.28466 6.22683 8.27321 6.22767 8.26184L6.27297 8.26612Z" fill="#EDC3B1"/>
<path d="M2.2464 5.06563C2.27735 4.62375 2.38632 4.19649 2.56517 3.81578C2.6155 3.8756 2.56517 3.93329 2.55343 3.9803C2.44097 4.40687 2.36723 4.84844 2.33364 5.29637C2.3029 5.66675 2.29392 6.03955 2.30679 6.41163C2.32292 6.98453 2.42367 7.54843 2.60376 8.07382C2.71988 8.42862 2.88146 8.75641 3.08191 9.0438C3.3035 9.34971 3.59854 9.55334 3.92078 9.62278C4.27515 9.71838 4.63792 9.75358 4.99957 9.72747C5.31499 9.70824 5.62705 9.7467 5.94079 9.74029C6.28011 9.72054 6.61506 9.6348 6.93401 9.48604C7.16361 9.38523 7.38409 9.25345 7.59169 9.09294C7.64169 9.05257 7.70035 9.03314 7.75946 9.03738L7.72926 9.11003C7.67893 9.11003 7.63531 9.11003 7.6135 9.1848C7.59485 9.184 7.57647 9.19054 7.56085 9.20354C7.54524 9.21654 7.53315 9.23538 7.52625 9.25745C7.3719 9.35146 7.21588 9.44546 7.05985 9.53519C6.57614 9.80663 6.05149 9.93938 5.52304 9.92404C5.07843 9.92404 4.63215 9.92403 4.18084 9.87275C3.74775 9.87197 3.32991 9.66902 3.00642 9.30231C2.79653 9.01708 2.62276 8.692 2.49135 8.33874C2.33302 7.93792 2.23405 7.50336 2.19942 7.05685C2.15325 6.56792 2.15325 6.07373 2.19942 5.58481C2.23465 5.41816 2.2464 5.24082 2.2464 5.06563Z" fill="#DC968F"/>
<path d="M5.74796 12.1994C5.58019 12.1994 5.41242 12.1994 5.24464 12.1994C4.67085 12.1652 4.18263 11.7828 3.65749 11.5585C3.33564 11.4243 3.02354 11.2549 2.72467 11.0521C2.26664 10.7423 1.78346 10.456 1.47308 9.89413C1.28587 9.56238 1.1935 9.15899 1.21135 8.75109C1.21135 8.67845 1.17108 8.62932 1.16772 8.55882C1.2147 8.51181 1.25832 8.58232 1.30194 8.55882C1.33573 8.88409 1.40461 9.20186 1.50663 9.50315C1.6526 9.83897 1.86262 10.1226 2.11732 10.3278C2.71796 10.8598 3.40248 11.1611 4.0719 11.5072C4.39741 11.6973 4.73396 11.8552 5.07855 11.9794C5.25657 12.0487 5.43903 12.098 5.62381 12.1268C5.64748 12.1261 5.67095 12.1323 5.69246 12.1449C5.71397 12.1574 5.73295 12.1761 5.74796 12.1994Z" fill="#DC968F"/>
<path d="M6.12379 8.30457C6.04996 8.42636 5.93085 8.39858 5.83522 8.44985C5.49936 8.54831 5.15408 8.58429 4.81012 8.55668C4.39115 8.54334 3.99081 8.33333 3.68603 7.967C3.36949 7.5465 3.16164 7.01267 3.09043 6.43728C3.03333 6.14909 3.03333 5.84735 3.09043 5.55917C3.12399 5.41388 3.13238 5.23228 3.25821 5.13187C3.19539 5.38745 3.16703 5.65473 3.17432 5.92237C3.24143 6.77697 3.46288 7.52476 4.04506 8.02683C4.29872 8.23906 4.59394 8.35672 4.89736 8.36653C5.17747 8.38212 5.45812 8.36712 5.73623 8.32167C5.86206 8.30671 5.99795 8.21698 6.12379 8.30457Z" fill="#DC968F"/>
<path d="M6.12381 2.57449C5.76487 2.44873 5.39376 2.3883 5.02153 2.39502C4.61032 2.37435 4.1985 2.38577 3.78839 2.42921C3.4591 2.46041 3.13662 2.56452 2.83543 2.73687C2.79713 2.7605 2.75727 2.77981 2.71631 2.79456C2.7398 2.65996 2.8371 2.63005 2.91428 2.58091C3.23541 2.39299 3.58026 2.27941 3.93267 2.24548C4.31435 2.20563 4.6975 2.19349 5.08025 2.20915C5.31346 2.20915 5.54499 2.24974 5.77987 2.23692C5.89749 2.24806 6.01189 2.29104 6.11542 2.36298C6.19931 2.40571 6.12045 2.49331 6.12381 2.57449Z" fill="#DC968F"/>
<path d="M5.26633 3.62992C4.83444 3.54628 4.3931 3.5961 3.9795 3.7752C3.82887 3.83304 3.68371 3.91185 3.54664 4.01021C3.51098 4.05169 3.46405 4.07391 3.41577 4.07218C3.54665 3.8929 3.71207 3.76033 3.89561 3.68761C4.2976 3.46871 4.73443 3.37355 5.1707 3.40985C5.22103 3.40985 5.27975 3.39276 5.31163 3.46754C5.34351 3.54232 5.27472 3.57651 5.26633 3.62992Z" fill="#DC968F"/>
<path d="M5.3151 5.87537C5.23549 5.95729 5.14245 6.01538 5.04284 6.04534C4.94323 6.07529 4.83961 6.07634 4.73963 6.04843C4.47766 5.96867 4.22458 5.84737 3.98633 5.68736C4.01317 5.54635 4.07861 5.52071 4.18095 5.57199C4.28329 5.62327 4.44435 5.67881 4.57018 5.75145C4.78294 5.88 5.0236 5.91313 5.25302 5.84546C5.26451 5.84086 5.27687 5.84131 5.28813 5.84673C5.29938 5.85216 5.30888 5.86224 5.3151 5.87537Z" fill="#DC968F"/>
<path d="M6.27311 8.26612H6.24627C6.23117 8.22552 6.15735 8.19775 6.2211 8.1422C6.23196 8.13042 6.24491 8.12221 6.25884 8.11829C6.27276 8.11437 6.28722 8.11487 6.30096 8.11972C6.31471 8.12456 6.32731 8.13362 6.33766 8.14611C6.34802 8.15859 6.35581 8.17412 6.36036 8.19133L6.27311 8.26612Z" fill="#DC968F"/>
<path d="M1.27185 8.37508C1.20641 8.37508 1.18628 8.3174 1.18628 8.24048C1.18628 8.16357 1.22487 8.15288 1.27017 8.15288C1.27017 8.22766 1.27185 8.3003 1.27185 8.37508Z" fill="#DC968F"/>
<path d="M6.2396 8.30029C6.2396 8.31952 6.22785 8.35371 6.21778 8.35584C6.20772 8.35798 6.18591 8.33021 6.1792 8.30243L6.2396 8.30029Z" fill="#DC968F"/>
<path d="M14.9318 15.6926L14.9033 15.5815C15.0736 15.5374 15.2417 15.4804 15.4066 15.4106C15.91 15.3016 16.4234 15.1392 16.9317 14.9982C17.4669 14.8465 18.0038 14.6948 18.539 14.5474C19.379 14.3152 20.2179 14.0838 21.0556 13.853C21.2259 13.8011 21.3993 13.7675 21.574 13.7526C21.7208 13.7097 21.8649 13.6533 22.0052 13.5839C22.4481 13.4642 22.8978 13.383 23.3474 13.2634C23.7182 13.1608 24.0823 13.0284 24.3541 12.6523C24.4399 12.5321 24.4906 12.3779 24.4976 12.2156C24.5046 12.0533 24.4676 11.893 24.3926 11.7614L24.2383 11.505C24.7873 11.7127 25.3171 11.9949 25.8187 12.3468C25.6375 12.6609 25.3557 12.7741 25.0889 12.9002C24.1327 13.3121 23.1564 13.644 22.1663 13.8936C21.4516 14.0945 20.7402 14.3209 20.0255 14.5004L18.6229 14.8743C17.9417 15.058 17.2583 15.2261 16.5727 15.3785C16.1918 15.464 15.816 15.5922 15.4301 15.6263C15.295 15.6646 15.1574 15.6867 15.0191 15.6926C14.9973 15.6349 14.9604 15.6819 14.9318 15.6926Z" fill="#DC968F"/>
<path d="M0.806962 9.16345C0.657643 9.15277 0.629121 9.18908 0.649253 9.39204C0.649253 9.45187 0.649255 9.49033 0.608989 9.50742C0.568723 9.52451 0.550268 9.47537 0.535168 9.43691C0.469736 9.27027 0.407662 9.09935 0.338875 8.9327C0.315386 8.87075 0.338875 8.84083 0.370752 8.80878C0.40263 8.77674 0.41941 8.73614 0.468064 8.76605C0.595573 8.85151 0.724756 8.92629 0.852264 9.00961C0.879108 9.02671 0.927759 9.03526 0.910981 9.09508C0.908409 9.10885 0.903535 9.12175 0.896686 9.1329C0.889836 9.14404 0.881178 9.15318 0.871301 9.15967C0.861423 9.16616 0.850557 9.16985 0.839454 9.1705C0.82835 9.17116 0.817266 9.16876 0.806962 9.16345Z" fill="#DC968F"/>
<path d="M2.28165 13.6351C2.17763 13.5155 2.03502 13.4706 1.93604 13.3424C1.97295 13.2655 2.00482 13.1843 2.04508 13.1117C2.06522 13.0754 2.09709 13.0284 2.14072 13.0732C2.14838 13.0808 2.15458 13.0905 2.15885 13.1016C2.16312 13.1128 2.16534 13.125 2.16534 13.1373C2.16534 13.1497 2.16312 13.1619 2.15885 13.173C2.15458 13.1841 2.14838 13.1938 2.14072 13.2014C2.10548 13.2527 2.06186 13.2997 2.11052 13.3723C2.15917 13.445 2.21454 13.4193 2.26823 13.3958C2.32191 13.3723 2.33869 13.3125 2.37895 13.3809C2.41922 13.4493 2.37896 13.492 2.34373 13.5368C2.32126 13.5677 2.30052 13.6006 2.28165 13.6351Z" fill="#DC968F"/>
<path d="M14.9319 15.6926C14.9604 15.6926 14.9889 15.6349 15.0175 15.6926C14.9973 15.7353 14.9638 15.7289 14.9319 15.7289V15.6926Z" fill="#EDC3B1"/>
<path d="M19.3814 4.08498C19.43 4.27513 19.4317 4.44177 19.279 4.53364C19.2411 4.55302 19.1993 4.55643 19.1597 4.54336C19.1202 4.53029 19.085 4.50143 19.0592 4.46101C19.0171 4.42446 18.9866 4.36986 18.9734 4.30714C18.9601 4.24441 18.965 4.1777 18.9871 4.11916C19.0204 4.04826 19.0739 3.9966 19.1365 3.97507C19.1992 3.95354 19.2659 3.96384 19.3226 4.0038L19.3495 3.94824C19.2857 3.87774 19.2186 3.81151 19.1549 3.73459C19.1213 3.69614 19.0945 3.647 19.1314 3.59145C19.1373 3.57954 19.1454 3.56971 19.1551 3.56291C19.1648 3.5561 19.1757 3.55253 19.1867 3.55253C19.1978 3.55253 19.2087 3.5561 19.2184 3.56291C19.228 3.56971 19.2362 3.57954 19.2421 3.59145C19.2924 3.66623 19.3344 3.65341 19.3897 3.59145C19.4199 3.5616 19.4572 3.54577 19.4954 3.54658C19.6045 3.5594 19.6347 3.50385 19.6364 3.36925C19.6337 3.33509 19.6375 3.30062 19.6474 3.26872C19.6574 3.23683 19.6733 3.20846 19.6937 3.18603C19.7141 3.16361 19.7385 3.14777 19.7647 3.13987C19.7909 3.13197 19.8183 3.13224 19.8444 3.14065C19.865 3.1413 19.885 3.14933 19.9021 3.16384C19.9193 3.17835 19.9328 3.19873 19.9413 3.22264C19.9497 3.24655 19.9526 3.27301 19.9497 3.29895C19.9468 3.32489 19.9383 3.34926 19.925 3.36925C19.9099 3.4013 19.883 3.43121 19.8998 3.46753C19.9166 3.50385 19.9552 3.46753 19.9803 3.45258C20.0055 3.43762 20.0273 3.42694 20.0474 3.45258C20.0676 3.47821 20.0608 3.52095 20.0474 3.55086C19.9937 3.62991 19.9401 3.70895 19.8444 3.68972C19.7488 3.6705 19.7102 3.7111 19.7253 3.83074C19.7404 3.95038 19.6599 4.04438 19.5911 4.13198C19.5223 4.21958 19.4703 4.09139 19.3814 4.08498Z" fill="#EDC3B1"/>
<path d="M7.62524 9.1848C7.64705 9.11643 7.69068 9.10789 7.74101 9.11002C7.73933 9.2254 7.70074 9.25316 7.62524 9.1848Z" fill="#DC968F"/>
<path d="M11.6234 13.9086C11.6872 14.0646 11.7274 14.2099 11.5949 14.3359C11.5211 14.4043 11.4473 14.4492 11.36 14.3658C11.3135 14.3336 11.277 14.2822 11.2563 14.2202C11.2355 14.1581 11.2319 14.089 11.2459 14.024C11.2553 13.9627 11.2833 13.9085 11.3238 13.8733C11.3643 13.8381 11.4141 13.8247 11.4624 13.836C11.5999 13.8787 11.5865 13.7847 11.5798 13.6843C11.5836 13.605 11.6084 13.5296 11.6503 13.4706C11.654 13.4591 11.6597 13.4489 11.667 13.4406C11.6743 13.4324 11.6829 13.4264 11.6923 13.4231C11.7017 13.4198 11.7116 13.4193 11.7212 13.4216C11.7307 13.4239 11.7398 13.429 11.7476 13.4365C11.7929 13.4749 11.7761 13.5198 11.7476 13.5582C11.7344 13.5697 11.7233 13.5844 11.7148 13.6016C11.7064 13.6188 11.7008 13.638 11.6984 13.6581C11.6961 13.6781 11.697 13.6986 11.7011 13.7182C11.7052 13.7377 11.7125 13.756 11.7224 13.7719C11.7711 13.8467 11.8331 13.8189 11.8902 13.7719C11.9237 13.7484 11.9707 13.7227 11.9959 13.7719C12.021 13.821 11.9741 13.8552 11.9506 13.8894C11.8516 14.0197 11.7442 13.9748 11.6234 13.9086Z" fill="#EDC3B1"/>
<path d="M6.7596 14.1778C6.75326 14.2396 6.73447 14.2982 6.70507 14.348C6.67567 14.3978 6.63666 14.437 6.59183 14.462C6.51297 14.5132 6.47942 14.3979 6.42405 14.3445C6.34352 14.2504 6.26634 14.1479 6.18916 14.0475C6.164 14.0154 6.12373 13.9812 6.16064 13.9257C6.16621 13.9156 6.17361 13.9073 6.18223 13.9016C6.19085 13.8958 6.20042 13.8929 6.21013 13.8929C6.21985 13.8929 6.22942 13.8958 6.23804 13.9016C6.24665 13.9073 6.25406 13.9156 6.25962 13.9257C6.31667 14.009 6.35358 13.9855 6.40727 13.9129C6.4327 13.8792 6.46707 13.8588 6.50367 13.8557C6.54027 13.8525 6.57647 13.8668 6.60524 13.8958C6.64803 13.9216 6.68479 13.9612 6.71186 14.0107C6.73893 14.0601 6.75539 14.1177 6.7596 14.1778ZM6.64383 14.1778C6.64223 14.1416 6.63022 14.1075 6.6101 14.0819C6.58999 14.0563 6.56318 14.041 6.53478 14.0389C6.49283 14.0389 6.44418 14.0517 6.45425 14.1116C6.46197 14.15 6.47727 14.1853 6.4987 14.2141C6.52014 14.2429 6.54699 14.2642 6.57672 14.2761C6.6237 14.2996 6.6388 14.2376 6.64383 14.1799V14.1778Z" fill="#EDC3B1"/>
<path d="M11.9506 13.3061C11.9506 13.2292 11.9506 13.1502 11.9674 13.0732C11.9706 13.0622 11.9757 13.0522 11.9824 13.044C11.9891 13.0359 11.9972 13.0298 12.006 13.0262C12.0108 13.0256 12.0156 13.0263 12.0201 13.0283C12.0246 13.0303 12.0287 13.0336 12.0321 13.0379C12.0355 13.0422 12.0381 13.0474 12.0396 13.0532C12.0412 13.0589 12.0418 13.0651 12.0412 13.0711C12.0127 13.383 12.209 13.2997 12.3466 13.3595C12.3412 13.3913 12.3277 13.42 12.3084 13.4412C12.289 13.4624 12.2647 13.475 12.2392 13.477C12.1536 13.477 12.0966 13.4899 12.1201 13.6373C12.1201 13.6971 12.0681 13.7142 12.0245 13.6629C11.9104 13.5262 11.7963 13.3873 11.6788 13.2548C11.6701 13.2465 11.6631 13.2357 11.6583 13.2232C11.6534 13.2108 11.6509 13.1972 11.6509 13.1833C11.6509 13.1694 11.6534 13.1557 11.6583 13.1433C11.6631 13.1309 11.6701 13.1201 11.6788 13.1117C11.7124 13.0604 11.751 13.0882 11.7761 13.1267C11.8013 13.1651 11.8684 13.2677 11.9137 13.3403L11.9506 13.3061Z" fill="#EDC3B1"/>
<path d="M4.90583 7.52902C4.74998 7.5413 4.59406 7.50671 4.45066 7.42802C4.30726 7.34934 4.18041 7.22877 4.08038 7.07608C4.00325 6.97117 3.94855 6.84281 3.92153 6.70328C3.8945 6.56374 3.89606 6.41772 3.92603 6.27917C3.94108 6.19801 3.97665 6.1254 4.02728 6.07251C4.0779 6.01962 4.14077 5.98938 4.20621 5.98646C4.26697 5.99014 4.32445 6.02268 4.36731 6.07765C4.41017 6.13262 4.43529 6.20604 4.43774 6.28344C4.44613 6.35394 4.46962 6.42444 4.47633 6.49709C4.48263 6.57733 4.50291 6.65478 4.53567 6.7238C4.56843 6.79282 4.61286 6.85168 4.66573 6.89609C4.7186 6.94049 4.77857 6.96933 4.84129 6.98051C4.90401 6.99169 4.9679 6.98493 5.02831 6.96072C5.16347 6.9213 5.29078 6.84673 5.40225 6.74172C5.51373 6.63671 5.60696 6.5035 5.67611 6.35045C5.74527 6.1974 5.78885 6.0278 5.80412 5.8523C5.81938 5.6768 5.806 5.49918 5.76483 5.33057C5.69101 4.97163 5.62558 4.60843 5.55848 4.24736C5.53834 4.14908 5.5266 4.03371 5.6021 3.9803C5.6776 3.92688 5.7447 4.00593 5.79671 4.08071C5.93905 4.31804 6.04026 4.59111 6.09368 4.88189C6.17892 5.20524 6.22586 5.54295 6.23293 5.88391C6.24134 6.10321 6.21173 6.32218 6.1462 6.52527C6.08067 6.72835 5.98082 6.91057 5.85376 7.05899C5.72972 7.21629 5.5815 7.33925 5.41837 7.42013C5.25524 7.50102 5.08074 7.53809 4.90583 7.52902Z" fill="#EDC3B1"/>
<path d="M6.64381 14.1799C6.64381 14.2376 6.62367 14.2996 6.57669 14.2782C6.54696 14.2664 6.52011 14.245 6.49867 14.2162C6.47724 14.1874 6.46194 14.1521 6.45422 14.1137C6.44415 14.0539 6.4928 14.0347 6.53475 14.0411C6.56315 14.0431 6.58996 14.0584 6.61007 14.084C6.63019 14.1096 6.6422 14.1438 6.64381 14.1799Z" fill="#DC968F"/>
</g>
<defs>
<clipPath id="clip0_166_336">
<rect width="26" height="18" fill="white"/>
</clipPath>
</defs>
</svg>
