<svg width="29" height="28" viewBox="0 0 29 28" fill="none" xmlns="http://www.w3.org/2000/svg">
<g clip-path="url(#clip0_162_200)">
<path d="M0.591797 11.5116C0.591797 11.5116 5.74583 3.92615 7.22522 2.34934C8.70462 0.772531 9.84042 0.42545 11.106 0.207123C11.3877 0.807717 11.8809 1.28923 12.4957 1.56374C13.1796 1.84691 13.9248 1.95914 14.6642 1.89029V19.6681C14.6642 19.6681 12.3373 19.8752 11.8352 22.7639C11.3332 25.6525 11.5642 26.1078 11.5642 26.1078C10.6257 26.4269 9.63901 26.589 8.64544 26.5874C7.61753 26.5792 6.60148 26.3718 5.65611 25.9772C5.65611 25.9772 5.29724 21.4427 6.22878 17.1919C7.16032 12.941 8.11859 9.75754 8.11859 9.75754L4.61767 13.9729C3.71374 13.7581 2.86245 13.3699 2.11319 12.8309C1.56871 12.4341 1.05975 11.9928 0.591797 11.5116Z" fill="#71ACAB"/>
<path d="M2.1876 12.8589C3.13059 13.6259 4.59663 13.9468 4.59663 13.9468L3.99342 14.7138C3.0512 14.7272 2.13606 14.4056 1.41831 13.8087C0.272971 12.8216 0 12.1741 0 12.1741L0.591757 11.5116C0.591757 11.5116 1.78482 12.523 2.1876 12.8589Z" fill="#DC968F"/>
<path d="M5.65615 25.9679L5.57788 27.3935C5.57788 27.3935 6.20591 27.9272 8.51568 27.9944C10.8254 28.0616 11.8563 27.5017 11.8563 27.5017L11.5642 26.1078C10.6198 26.4035 9.63686 26.565 8.64548 26.5874C7.6163 26.5818 6.59911 26.371 5.65615 25.9679Z" fill="#DC968F"/>
<path d="M14.67 1.26705V1.8903C14.67 1.8903 13.4865 2.07691 12.5015 1.56375C11.9111 1.25603 11.4274 0.783873 11.1118 0.207134L11.6482 0C11.6482 0 12.03 0.776276 12.8031 1.02819C13.4116 1.18946 14.0396 1.2698 14.67 1.26705Z" fill="#DC968F"/>
<path d="M28.4083 11.5116C28.4083 11.5116 23.2543 3.92615 21.7749 2.34934C20.2955 0.772531 19.1597 0.42545 17.8941 0.207123C17.6125 0.807717 17.1192 1.28923 16.5044 1.56374C15.8206 1.84691 15.0753 1.95914 14.3359 1.89029V19.6681C14.3359 19.6681 16.6629 19.8752 17.163 22.7639C17.6632 25.6525 17.436 26.1078 17.436 26.1078C18.3744 26.4269 19.3611 26.589 20.3547 26.5874C21.3826 26.5789 22.3986 26.3715 23.344 25.9772C23.344 25.9772 23.7029 21.4427 22.7714 17.1919C21.8398 12.941 20.8816 9.75754 20.8816 9.75754L24.3825 13.9729C25.2864 13.7581 26.1377 13.3699 26.887 12.8309C27.4314 12.4341 27.9404 11.9928 28.4083 11.5116Z" fill="#71ACAB"/>
<path d="M26.8104 12.8589C25.8694 13.6258 24.4033 13.9468 24.4033 13.9468L25.0065 14.7193C25.9488 14.7328 26.8639 14.4112 27.5816 13.8143C28.727 12.8272 29 12.1797 29 12.1797L28.4082 11.5172C28.4082 11.5172 27.2151 12.523 26.8104 12.8589Z" fill="#DC968F"/>
<path d="M23.3439 25.9679L23.4222 27.3935C23.4222 27.3935 22.7922 27.9272 20.4844 27.9944C18.1765 28.0616 17.1438 27.5017 17.1438 27.5017L17.4359 26.0985C18.3802 26.3942 19.3632 26.5557 20.3546 26.5781C21.3831 26.5751 22.4002 26.3675 23.3439 25.9679Z" fill="#DC968F"/>
<path d="M14.3301 1.26705V1.8903C14.3301 1.8903 15.5136 2.07691 16.4986 1.56375C17.089 1.25603 17.5727 0.783873 17.8883 0.207134L17.3557 0C17.3557 0 16.9739 0.776276 16.2103 1.02819C15.5975 1.19062 14.965 1.27097 14.3301 1.26705Z" fill="#DC968F"/>
</g>
<defs>
<clipPath id="clip0_162_200">
<rect width="29" height="28" fill="white"/>
</clipPath>
</defs>
</svg>
