<svg width="28" height="30" viewBox="0 0 28 30" fill="none" xmlns="http://www.w3.org/2000/svg">
<g clip-path="url(#clip0_163_223)">
<path d="M2.56462 12.1389C2.85402 12.0444 3.12694 11.9072 3.37392 11.7321C3.89153 11.3385 4.41588 10.9548 4.90821 10.5299C5.8601 9.71182 6.76678 8.84487 7.62441 7.93273C7.76941 8.16 7.70871 8.41363 7.67499 8.64255C7.46761 10.0605 7.24505 11.4752 7.06296 12.8981C6.90616 14.135 6.72576 15.3685 6.68698 16.6169C6.64146 17.9986 6.65494 19.3853 6.71227 20.7703C6.77296 22.241 6.89268 23.7035 7.0832 25.1593C7.18521 26.1033 7.37138 27.0368 7.63959 27.9492C7.79976 28.5684 7.95319 29.1877 8.46069 29.6521C8.65565 29.8471 8.91505 29.9684 9.19285 29.9943C9.47065 30.0202 9.74887 29.9492 9.97812 29.7937C10.6997 29.3425 10.8768 28.6409 10.892 27.8718C11.0707 27.2344 11.1128 26.574 11.2292 25.9252C11.5074 24.2881 11.8395 22.6676 12.4094 21.0997C12.6091 20.5117 12.9064 19.9597 13.2895 19.466C13.6587 19.0082 14.055 18.9439 14.5186 19.2931C14.9075 19.6172 15.2028 20.0351 15.3751 20.5052C16.1018 22.185 16.4272 23.9719 16.7678 25.7522C16.9044 26.4571 17.0021 27.1669 17.1168 27.8751C17.1539 28.4334 17.2365 28.9736 17.6226 29.4298C18.2262 30.1544 19.0945 30.184 19.7234 29.4891C20.123 29.0477 20.2377 28.4877 20.3843 27.9426C20.5216 27.5114 20.627 27.0711 20.6996 26.6251C20.993 25.2269 21.0992 23.8072 21.2223 22.3876C21.2746 21.8013 21.2476 21.215 21.2965 20.6304C21.3832 19.3694 21.3934 18.1046 21.3268 16.8425C21.288 15.7308 21.1582 14.6208 21.02 13.5124C20.9019 12.5605 20.7569 11.6103 20.6271 10.66C20.4973 9.70974 20.3118 8.80888 20.2596 7.87015C20.2916 7.88168 20.3337 7.88168 20.354 7.90308C21.3127 8.93331 22.3407 9.89999 23.431 10.7967C24.0548 11.3039 24.65 11.8622 25.4408 12.1323C25.5773 12.2493 25.7173 12.3596 25.8471 12.4831C25.8875 12.5339 25.9388 12.5754 25.9974 12.6048C26.0559 12.6342 26.1203 12.6508 26.1861 12.6535C26.2519 12.6562 26.3175 12.6448 26.3783 12.6202C26.4391 12.5956 26.4937 12.5584 26.5384 12.5111C26.8132 12.2822 27.0998 12.0632 27.3814 11.8392C28.1941 11.1887 28.1384 11.3188 27.6191 10.4723C27.5175 10.0851 27.3387 9.72136 27.0931 9.40177C25.9971 7.77298 24.7663 6.24136 23.5288 4.71468C22.7858 3.79571 22.0187 2.89485 21.2274 2.01211C20.7654 1.49663 20.3337 0.949859 19.774 0.529898C19.6914 0.392743 19.574 0.278704 19.4331 0.198794C19.2922 0.118884 19.1326 0.0758015 18.9697 0.0737053C18.8248 0.06053 18.6798 0.03418 18.5381 0.0226516C18.1132 -0.0152271 17.6867 -0.0284039 17.2871 0.162637C17.0285 0.0784643 16.7475 0.0890018 16.4963 0.192283C14.8585 0.756301 13.0767 0.781172 11.4231 0.263098C11.1921 0.195575 10.9813 0.0177112 10.7183 0.159345C9.77917 -0.0778092 8.86365 -0.150274 8.10325 0.600714C7.65813 1.02562 7.24 1.47522 6.83535 1.938C5.9839 2.91297 5.12908 3.88629 4.32821 4.90243C3.4717 5.98938 2.59497 7.05987 1.77387 8.17153C1.24108 8.89287 0.650969 9.59446 0.389633 10.4772C0.290157 10.6419 0.194053 10.7983 0.0895191 10.9548C-0.0689683 11.1985 -0.00658515 11.3764 0.22103 11.5493C0.647597 11.8787 1.06405 12.2081 1.4805 12.5474C1.55493 12.6247 1.65728 12.6708 1.76587 12.6757C1.87446 12.6806 1.98073 12.644 2.06218 12.5737C2.23584 12.4436 2.3977 12.2789 2.56462 12.1389Z" fill="white"/>
<path d="M20.2493 7.87055C20.3016 8.80929 20.4904 9.73155 20.6169 10.6604C20.7433 11.5893 20.8917 12.5609 21.0097 13.5128C21.1463 14.6212 21.2778 15.7312 21.3166 16.8429C21.3831 18.105 21.373 19.3698 21.2862 20.6308C21.2373 21.2154 21.2643 21.8017 21.212 22.388C21.089 23.8076 20.9827 25.2273 20.6894 26.6255C20.6167 27.0715 20.5113 27.5118 20.3741 27.943C19.2748 28.4536 18.1822 28.4848 17.1116 27.8755C16.9969 27.1673 16.8992 26.4575 16.7626 25.7526C16.4254 23.9723 16.0966 22.1854 15.3699 20.5056C15.1976 20.0355 14.9023 19.6176 14.5134 19.2935C14.0498 18.9443 13.6535 19.0086 13.2843 19.4664C12.9012 19.9601 12.6039 20.5121 12.4042 21.1001C11.8377 22.668 11.5055 24.2885 11.224 25.9256C11.1127 26.5744 11.0705 27.2348 10.8868 27.8722C10.3289 28.2152 9.67482 28.3783 9.01693 28.3383C8.53773 28.2768 8.07061 28.1458 7.63102 27.9496C7.36281 27.0372 7.17663 26.1037 7.07462 25.1597C6.8841 23.7039 6.76439 22.2414 6.7037 20.7707C6.64637 19.3857 6.63288 17.999 6.6784 16.6173C6.71887 15.3738 6.89759 14.1354 7.05439 12.8985C7.23648 11.4756 7.45904 10.0609 7.66642 8.64295C7.70014 8.41403 7.76084 8.1604 7.61584 7.93313C7.67575 7.86656 7.71873 7.78712 7.74129 7.70127C7.76385 7.61542 7.76535 7.52558 7.74567 7.43906C7.71533 7.25393 7.73004 7.06443 7.78863 6.88589C7.84721 6.70735 7.94801 6.5448 8.08287 6.41139C8.2513 6.23162 8.37125 6.01371 8.43188 5.77733C8.75392 4.68049 8.76909 3.55731 8.68141 2.43741C8.65946 1.78529 8.4554 1.15144 8.0913 0.604408C8.85676 -0.14658 9.76722 -0.0741175 10.7063 0.163037C10.6389 0.37384 10.7772 0.527003 10.8834 0.673578C11.19 1.11877 11.5932 1.49254 12.0644 1.76835C12.5356 2.04416 13.0632 2.21524 13.6097 2.26943C13.6097 2.41436 13.6097 2.55928 13.6097 2.70256C13.6097 6.08091 13.6097 9.45761 13.6097 12.8327C13.595 13.0101 13.6312 13.188 13.7142 13.3465C13.7817 13.4601 13.8474 13.5639 14.0009 13.5277C14.1543 13.4914 14.2571 13.447 14.2942 13.2872C14.337 13.104 14.3596 12.9168 14.3617 12.7289C14.3617 9.24297 14.3617 5.75537 14.3617 2.26613C15.1884 2.1799 15.9609 1.82293 16.5535 1.25329C16.8671 0.955199 17.2111 0.643933 17.26 0.166331C17.6612 -0.0247096 18.0878 -0.0115329 18.5127 0.0263459C18.6543 0.0378742 18.7993 0.0642243 18.9443 0.0773995C19.1072 0.0794958 19.2668 0.122578 19.4077 0.202488C19.5486 0.282398 19.666 0.396435 19.7486 0.53359C19.7486 0.849796 19.5496 1.11001 19.4704 1.40645C19.1868 2.45527 19.122 3.54908 19.2798 4.62285C19.3658 5.21738 19.3776 5.85968 19.8227 6.33234C19.9827 6.49476 20.1022 6.69093 20.172 6.90569C20.2419 7.12044 20.2603 7.34802 20.2257 7.57081C20.2277 7.67109 20.2355 7.77117 20.2493 7.87055ZM15.8858 13.3202C15.8858 13.941 15.8285 14.5685 15.901 15.1812C15.9669 15.6191 16.1892 16.0201 16.5286 16.3133C16.868 16.6066 17.3027 16.7731 17.7557 16.7836C18.2125 16.8172 18.6663 16.6884 19.0335 16.4208C19.4007 16.1532 19.6564 15.765 19.7536 15.3277C19.9222 14.669 19.8227 13.9839 19.8194 13.3103C19.8118 13.2006 19.8118 13.0906 19.8194 12.9809C19.8733 12.6614 19.7233 12.5972 19.4232 12.6021C18.4807 12.6202 17.5382 12.6021 16.5957 12.6021C15.8724 12.6087 15.8724 12.6087 15.8858 13.3202ZM8.11491 13.3119C8.11491 13.7549 8.12839 14.1996 8.09636 14.641C8.01712 15.7411 9.05066 17.0833 10.563 16.7441C11.261 16.5876 12.0282 15.8317 12.0552 15.1301C12.0788 14.524 12.0316 13.9147 12.1041 13.3086C12.1041 13.2312 12.1041 13.1555 12.1041 13.0781C12.1041 12.6087 12.1041 12.6087 11.6117 12.6087H8.79606C8.08793 12.6087 8.08793 12.6087 8.11491 13.3119Z" fill="#E7D5C6"/>
<path d="M20.2494 7.87056C20.2435 7.77073 20.2435 7.67065 20.2494 7.57082C20.284 7.34803 20.2656 7.12045 20.1957 6.9057C20.1259 6.69094 20.0064 6.49477 19.8464 6.33235C19.4013 5.85969 19.3895 5.2174 19.3035 4.62286C19.1461 3.55017 19.2109 2.45752 19.4941 1.40976C19.5733 1.11331 19.7672 0.853101 19.7723 0.536896C20.332 0.96015 20.7636 1.50692 21.2256 2.01911C22.0124 2.89746 22.7796 3.79831 23.5271 4.72168C24.7646 6.24836 25.9954 7.77998 27.0913 9.40877C27.337 9.72835 27.5158 10.0921 27.6174 10.4793C27.4707 10.4891 27.4656 10.6225 27.4083 10.7098C27.2254 10.984 27.0078 11.2347 26.7609 11.4559C26.3765 11.8067 25.901 11.9499 25.4407 12.1377C24.65 11.8676 24.0548 11.3142 23.4309 10.802C22.3347 9.90432 21.3011 8.93597 20.3371 7.9035C20.3236 7.88209 20.2814 7.88209 20.2494 7.87056Z" fill="#E7D5C6"/>
<path d="M8.10133 0.604401C8.46543 1.15143 8.66949 1.78528 8.69144 2.43741C8.77912 3.5573 8.76395 4.68049 8.44191 5.77732C8.38128 6.0137 8.26133 6.23162 8.0929 6.41138C7.95804 6.54479 7.85724 6.70734 7.79866 6.88588C7.74007 7.06442 7.72536 7.25392 7.7557 7.43905C7.77538 7.52557 7.77388 7.61541 7.75132 7.70126C7.72876 7.78711 7.68578 7.86655 7.62587 7.93312C6.76824 8.84526 5.86156 9.71221 4.90967 10.5303C4.41734 10.9552 3.89804 11.3389 3.37537 11.7325C3.12839 11.9076 2.85548 12.0448 2.56608 12.1393C1.93448 11.9977 1.36496 11.6645 0.939054 11.1874C0.74516 10.9601 0.571496 10.7164 0.389404 10.4809C0.65074 9.59814 1.24085 8.89656 1.77364 8.17521C2.59474 7.06355 3.47148 5.99307 4.32798 4.90612C5.12885 3.88998 5.98367 2.91665 6.83512 1.94169C7.23808 1.47891 7.65622 1.0293 8.10133 0.604401Z" fill="#E7D5C6"/>
<path d="M13.6197 2.26944C13.0735 2.21502 12.5462 2.04383 12.0753 1.76803C11.6045 1.49223 11.2015 1.11858 10.895 0.673592C10.7888 0.527018 10.6506 0.373855 10.718 0.163051C10.981 0.0214175 11.1918 0.199284 11.4228 0.266807C13.0764 0.784881 14.8582 0.76001 16.4961 0.195991C16.7472 0.0927105 17.0283 0.0821731 17.2868 0.166346C17.2362 0.643948 16.8923 0.955213 16.5787 1.2533C15.9861 1.82294 15.2136 2.17992 14.3868 2.26615L13.6197 2.26944ZM15.9464 1.00462C15.8786 0.998015 15.8102 0.998015 15.7424 1.00462C14.7772 1.21162 13.7832 1.25894 12.802 1.14461C12.576 1.1199 12.345 1.02768 12.1022 1.08367C12.1242 1.23189 12.2456 1.25989 12.34 1.31094C12.7329 1.53578 13.1702 1.67669 13.623 1.72438C14.0758 1.77207 14.5338 1.72546 14.9668 1.58762C15.3276 1.47728 15.7306 1.37023 15.9498 1.00297L16.0408 0.97827L16.0223 0.951919L15.9464 1.00462Z" fill="#E7D5C6"/>
<path d="M7.6394 27.9496C8.07899 28.1458 8.54612 28.2768 9.02533 28.3383C9.68321 28.3783 10.3373 28.2152 10.8951 27.8722C10.88 28.6446 10.7029 29.3429 9.98131 29.7941C9.75206 29.9496 9.47384 30.0206 9.19604 29.9947C8.91825 29.9688 8.65884 29.8475 8.46387 29.6525C7.953 29.1881 7.79958 28.5688 7.6394 27.9496Z" fill="#E7D5C6"/>
<path d="M17.1116 27.8755C18.1856 28.4848 19.2748 28.4535 20.374 27.943C20.2274 28.4881 20.1127 29.0481 19.7131 29.4895C19.0842 30.1844 18.2159 30.1482 17.6123 29.4302C17.2313 28.974 17.1487 28.4338 17.1116 27.8755Z" fill="#E7D5C6"/>
<path d="M0.387898 10.4809C0.56999 10.7164 0.743653 10.9601 0.937547 11.1874C1.36345 11.6645 1.93298 11.9977 2.56457 12.1393C2.39597 12.2859 2.23579 12.4407 2.05876 12.5774C1.97732 12.6477 1.87104 12.6843 1.76245 12.6794C1.65387 12.6745 1.55151 12.6284 1.47708 12.5511C1.06232 12.2217 0.644179 11.8758 0.217612 11.553C-0.0100031 11.3883 -0.0723862 11.2022 0.0861011 10.9585C0.192321 10.7971 0.288422 10.6406 0.387898 10.4809Z" fill="#E7D5C6"/>
<path d="M25.4407 12.1393C25.901 11.9516 26.3764 11.8099 26.7608 11.4575C27.0079 11.2358 27.2254 10.9846 27.4083 10.7098C27.4656 10.6225 27.4707 10.4891 27.6173 10.4792C28.1366 11.3258 28.1923 11.1956 27.3796 11.8462C27.0997 12.0702 26.8131 12.2892 26.5366 12.5181C26.492 12.5654 26.4373 12.6026 26.3765 12.6272C26.3157 12.6518 26.2501 12.6632 26.1843 12.6605C26.1185 12.6578 26.0541 12.6412 25.9956 12.6118C25.9371 12.5824 25.8858 12.5408 25.8453 12.4901C25.7172 12.3666 25.5772 12.2563 25.4407 12.1393Z" fill="#E7D5C6"/>
<path d="M12.104 13.3086C12.0315 13.9147 12.0787 14.524 12.0551 15.1301C12.0282 15.8317 11.261 16.5876 10.563 16.7441C9.04556 17.0833 8.01708 15.7411 8.09632 14.641C8.12836 14.1996 8.10981 13.7549 8.11487 13.3119C9.44515 13.335 10.7737 13.3432 12.104 13.3086Z" fill="#E7D5C6"/>
<path d="M19.821 13.3103C19.821 13.9839 19.9306 14.6657 19.7552 15.3277C19.6581 15.765 19.4023 16.1532 19.0351 16.4208C18.668 16.6884 18.2141 16.8172 17.7573 16.7836C17.3043 16.7731 16.8697 16.6066 16.5303 16.3133C16.1909 16.0201 15.9686 15.6191 15.9027 15.1812C15.8302 14.5685 15.8875 13.941 15.8875 13.3202L19.821 13.3103Z" fill="#E7D5C6"/>
<path d="M13.6199 2.26944H14.382C14.382 5.75758 14.382 9.24517 14.382 12.7322C14.3799 12.9201 14.3573 13.1073 14.3145 13.2905C14.2774 13.4552 14.1459 13.498 14.0211 13.531C13.8964 13.5639 13.802 13.4634 13.7345 13.3498C13.6515 13.1913 13.6153 13.0134 13.63 12.836C13.63 9.45982 13.63 6.08312 13.63 2.70587C13.6266 2.56259 13.6232 2.41437 13.6199 2.26944Z" fill="#E7D5C6"/>
<path d="M12.1042 13.3086C10.7739 13.3432 9.44529 13.335 8.11501 13.3086C8.08803 12.6054 8.08803 12.6054 8.79954 12.6054H11.6152C12.1075 12.6054 12.1075 12.6054 12.1075 13.0748C12.1075 13.1555 12.1059 13.2312 12.1042 13.3086Z" fill="#E7D5C6"/>
<path d="M19.8211 13.3103L15.8858 13.3202C15.8724 12.6071 15.8724 12.6071 16.6058 12.6071C17.5483 12.6071 18.4908 12.6186 19.4333 12.6071C19.7334 12.6071 19.8834 12.6663 19.8295 12.9858C19.8194 13.0937 19.8165 13.2021 19.8211 13.3103Z" fill="#E7D5C6"/>
<path d="M15.9532 1.00791C15.7341 1.37517 15.3311 1.48222 14.9703 1.59256C14.5373 1.7304 14.0793 1.77701 13.6265 1.72932C13.1737 1.68163 12.7364 1.54072 12.3434 1.31588C12.249 1.26483 12.1276 1.23683 12.1057 1.08861C12.3485 1.03262 12.5795 1.12484 12.8054 1.14955C13.7867 1.26388 14.7806 1.21656 15.7459 1.00956C15.8137 1.00296 15.882 1.00296 15.9499 1.00956L15.9532 1.00791Z" fill="#E7D5C6"/>
<path d="M15.9534 1.00461L16.0292 0.956848L16.0478 0.983199L15.9567 1.0079L15.9534 1.00461Z" fill="#E7D5C6"/>
</g>
<defs>
<clipPath id="clip0_163_223">
<rect width="28" height="30" fill="white"/>
</clipPath>
</defs>
</svg>
