<svg width="26" height="26" viewBox="0 0 26 26" fill="none" xmlns="http://www.w3.org/2000/svg">
<g clip-path="url(#clip0_160_145)">
<path d="M12.4451 25.9941H12.1339H11.9382H11.4273L10.9595 25.9588C10.568 25.9294 10.1941 25.8863 9.81243 25.8471C9.62844 25.8294 9.4464 25.798 9.26632 25.7745C9.13909 25.7588 9.00795 25.751 8.87484 25.7274C8.6243 25.6804 8.37375 25.6294 8.12125 25.5863C8.01164 25.5686 7.90006 25.5451 7.79241 25.5235L7.13081 25.3804C6.97422 25.3451 6.81959 25.302 6.66299 25.2686C6.5064 25.2353 6.33415 25.1765 6.16973 25.1294C6.00531 25.0823 5.86242 25.0529 5.70975 25.0078C5.49835 24.9471 5.29086 24.8804 5.07947 24.8118C5.04565 24.752 5.0281 24.6844 5.02857 24.6157C5.03346 24.4109 5.05111 24.2065 5.08142 24.0039C5.06173 23.8186 5.06568 23.6314 5.09317 23.4471C5.14406 23.2255 5.13427 23.002 5.17342 22.7804C5.20083 22.6314 5.23019 22.4784 5.2478 22.3255C5.24877 22.2226 5.26392 22.1203 5.29282 22.0216C5.3528 21.8372 5.39797 21.6484 5.42788 21.4569C5.47486 21.2294 5.5512 21.0118 5.60209 20.7863C5.65298 20.5608 5.7626 20.3353 5.83502 20.1078C5.95638 19.7294 6.13254 19.3725 6.28913 19.0078C6.48137 18.5965 6.69569 18.1959 6.93116 17.8078C7.04468 17.6118 7.16017 17.402 7.2874 17.2078C7.48314 16.8922 7.6965 16.5725 7.90594 16.2569C8.13691 15.9059 8.38354 15.5667 8.61255 15.2157C8.84157 14.8647 9.07841 14.5667 9.32113 14.249C9.51687 13.9823 9.72827 13.7196 9.94749 13.4647C10.1385 13.2227 10.3458 12.9941 10.568 12.7804C10.5981 12.7547 10.6221 12.7224 10.638 12.6861C10.654 12.6497 10.6615 12.6102 10.66 12.5706C10.6854 11.7274 10.5973 10.8823 10.705 10.0412C10.7285 9.85882 10.705 9.67647 10.7481 9.49215C10.7911 9.30784 10.8224 9.11569 10.8733 8.93726C10.9684 8.6449 11.089 8.36146 11.2335 8.0902C11.3314 7.89412 11.486 7.72941 11.5682 7.52353C11.809 7.3549 12.0517 7.18627 12.2768 6.99411C12.3336 6.94706 12.3649 6.98235 12.4079 7.01568C12.5761 7.14574 12.7827 7.21629 12.9951 7.21629C13.2076 7.21629 13.4141 7.14574 13.5824 7.01568C13.6274 6.98039 13.6587 6.96666 13.7116 7.01568C13.8436 7.13033 13.9829 7.23643 14.1285 7.33333C14.4064 7.50784 14.6746 7.67647 15.0445 7.60588C15.1699 7.58309 15.2882 7.53135 15.3902 7.45477C15.4921 7.37819 15.5748 7.27888 15.6318 7.1647C15.7385 6.93332 15.7901 6.68027 15.7825 6.42549C15.7825 6.27843 15.7825 6.12941 15.7825 5.98039C15.7822 5.74531 15.7398 5.51219 15.6572 5.29215C15.7903 5.18039 15.9332 5.07843 16.0487 4.95294C16.2699 4.72941 16.5322 4.54901 16.7475 4.3196C16.7551 4.30904 16.7643 4.29978 16.7749 4.29216C17.0967 4.0795 17.3481 3.77578 17.4971 3.41961C17.6047 3.12726 17.6047 2.80608 17.4971 2.51373C17.4133 2.23481 17.2346 1.99408 16.9921 1.83333C16.776 1.68462 16.5237 1.59723 16.262 1.58039C15.1737 1.58039 14.0874 1.58039 13.001 1.58039C13.001 1.05752 13.001 0.53464 13.001 0.0117645H16.7572C16.7605 0.026346 16.7693 0.0391232 16.7816 0.0475C16.794 0.0558769 16.8091 0.059221 16.8238 0.0568587H17.1115C17.1957 0.0568587 17.2838 0.0843164 17.366 0.0392184C17.5715 0.0980419 17.7849 0.111759 17.9943 0.152935C18.3315 0.218404 18.6642 0.304847 18.9906 0.41176C20.1615 0.799941 21.2235 1.46124 22.0892 2.34118C23.1579 3.41373 24.2247 4.49804 25.2993 5.55294C25.6125 5.86275 25.8865 6.18431 25.957 6.63529C25.957 6.64901 25.9746 6.67843 26 6.65098V7.36274C25.9589 7.33921 25.955 7.36274 25.9492 7.39804C25.8679 7.72333 25.6985 8.01984 25.4598 8.2549C24.7551 8.95882 24.0564 9.67058 23.3537 10.3745C23.1756 10.5669 22.9578 10.7181 22.7154 10.8173C22.4729 10.9165 22.2118 10.9615 21.9502 10.949C21.8512 10.9434 21.753 10.929 21.6566 10.9059C21.4426 10.8558 21.2392 10.7681 21.0557 10.6471C20.8495 10.4905 20.6576 10.316 20.4822 10.1255C20.4508 10.098 20.4176 10.0647 20.3882 10.0706C20.3588 10.0765 20.3725 10.1314 20.3725 10.1627C20.3725 10.9647 20.3725 11.7647 20.3725 12.5667C20.3722 12.5967 20.3782 12.6264 20.3904 12.6538C20.4026 12.6812 20.4205 12.7057 20.443 12.7255C20.9581 13.2446 21.4411 13.7947 21.8895 14.3725C22.1499 14.7059 22.4082 15.0451 22.6431 15.398C22.9759 15.898 23.2969 16.4078 23.5846 16.9373C23.8293 17.3863 24.0603 17.8412 24.2736 18.3098C24.393 18.5706 24.5105 18.8353 24.6201 19.0941C24.6984 19.2902 24.763 19.4863 24.8354 19.6824C24.9078 19.8784 24.9802 20.1137 25.0566 20.3294C25.1392 20.5377 25.1976 20.7548 25.2308 20.9765C25.3027 21.4651 25.2346 21.9641 25.0343 22.4154C24.834 22.8667 24.5098 23.2517 24.0994 23.5255C23.8612 23.6705 23.6126 23.7976 23.3556 23.9059C23.1011 24.0235 22.8349 24.1157 22.5727 24.2216C22.3769 24.302 22.1812 24.4 21.9854 24.4608C21.7897 24.5216 21.5568 24.6157 21.3395 24.6804C21.1692 24.7314 20.9989 24.7863 20.8306 24.8431C20.6622 24.9 20.4391 24.9726 20.2434 25.0275C20.0476 25.0824 19.8088 25.1451 19.5935 25.202C19.3782 25.2588 19.1159 25.3216 18.8791 25.3824C18.6833 25.4314 18.4876 25.4608 18.2918 25.5039C17.9845 25.5765 17.6753 25.6235 17.366 25.6863C17.0426 25.7528 16.7159 25.8026 16.3873 25.8353C16.0761 25.8706 15.7649 25.9176 15.4517 25.9372C15.1385 25.9569 14.8331 26.0098 14.52 26.0039H14.013H13.7644H12.4451V25.9941ZM19.4447 23.1314C19.4859 23.0333 19.3899 22.9353 19.3958 22.8216C19.3897 22.6711 19.3668 22.5218 19.3273 22.3765C19.3215 22.2655 19.3058 22.1552 19.2803 22.0471C19.2394 21.9125 19.2099 21.7748 19.1922 21.6353C19.1784 21.5207 19.1561 21.4074 19.1257 21.2961C19.067 21.1 19.0396 20.9176 18.9945 20.7294C18.9495 20.5412 18.9162 20.3902 18.8732 20.2255C18.8086 19.9863 18.7655 19.7431 18.6774 19.5078C18.6246 19.3569 18.6089 19.1922 18.5541 19.0431C18.4661 18.7941 18.4093 18.5353 18.3212 18.2863C18.2331 18.0373 18.1901 17.8333 18.0981 17.6176C18.0061 17.402 17.9023 17.1412 17.8221 16.9C17.689 16.5314 17.5285 16.1725 17.368 15.8137C17.1722 15.3863 16.951 14.9784 16.7514 14.5549C16.6957 14.4616 16.6069 14.3928 16.5027 14.3622C16.3986 14.3317 16.2867 14.3417 16.1896 14.3902C16.1154 14.4507 16.063 14.5338 16.0404 14.6269C16.0178 14.72 16.0262 14.818 16.0643 14.9059C16.3031 15.3726 16.5243 15.849 16.7435 16.3255C16.8727 16.6118 16.9804 16.9137 17.1037 17.198C17.1742 17.3647 17.2329 17.5373 17.2994 17.7059C17.4051 17.9784 17.4697 18.2686 17.5715 18.5412C17.6909 18.8588 17.7673 19.1902 17.8651 19.5118C17.9141 19.6608 17.9356 19.8176 17.9806 19.9667C18.0626 20.2176 18.128 20.4737 18.1764 20.7333C18.1907 20.823 18.2117 20.9115 18.239 20.998C18.2995 21.1899 18.3427 21.3867 18.3682 21.5863C18.3854 21.7051 18.409 21.8229 18.4386 21.9392C18.4925 22.1591 18.535 22.3816 18.5659 22.6059C18.6089 22.8333 18.6461 23.0627 18.6814 23.2922C18.6999 23.3768 18.7458 23.4528 18.812 23.5085C18.8783 23.5642 18.961 23.5964 19.0474 23.6C19.294 23.6059 19.4506 23.4274 19.4487 23.1353L19.4447 23.1314ZM9.95337 14.7314C9.97015 14.6477 9.95323 14.5607 9.9063 14.4895C9.85937 14.4182 9.78623 14.3685 9.70282 14.351C9.61691 14.3289 9.52617 14.335 9.44403 14.3686C9.36189 14.4021 9.29272 14.4613 9.24675 14.5373C9.03926 14.9529 8.82787 15.3647 8.63213 15.7824C8.48532 16.098 8.36201 16.4235 8.22499 16.7431C8.15061 16.9098 8.09776 17.0843 8.02925 17.2529C7.9216 17.5157 7.83351 17.7882 7.74543 18.0569C7.67799 18.2301 7.61984 18.4068 7.57122 18.5863C7.52229 18.8078 7.43029 19.0157 7.37548 19.2373C7.34025 19.3941 7.29719 19.549 7.25804 19.7059C7.21889 19.8627 7.17975 20.0255 7.13864 20.1863C7.09754 20.3471 7.04469 20.5275 7.00554 20.7C6.96639 20.8725 6.94682 21.0588 6.89201 21.2314C6.82742 21.4372 6.80393 21.651 6.75891 21.8608C6.72759 21.9941 6.70606 22.1373 6.68648 22.2765C6.67672 22.3877 6.66104 22.4983 6.63951 22.6078C6.57681 22.8191 6.5458 23.0385 6.54751 23.2588C6.55367 23.341 6.58644 23.4189 6.64085 23.4808C6.69526 23.5426 6.76834 23.5849 6.84896 23.6013C6.92959 23.6178 7.01337 23.6074 7.08756 23.5717C7.16175 23.5361 7.22229 23.4772 7.26 23.4039C7.28663 23.3301 7.30629 23.254 7.31872 23.1765C7.36358 23.0217 7.39244 22.8627 7.40484 22.702C7.42833 22.5588 7.44987 22.4137 7.47335 22.2725C7.51642 22.0294 7.56144 21.7843 7.62211 21.5451C7.63919 21.4272 7.66404 21.3106 7.6965 21.1961C7.75425 21.0412 7.79303 20.8799 7.81198 20.7157C7.83156 20.5196 7.89811 20.3529 7.93138 20.1706C7.97444 19.9451 8.06057 19.7274 8.12712 19.5059C8.19367 19.2843 8.24261 19.102 8.2935 18.898C8.34439 18.6941 8.46183 18.449 8.52643 18.2196C8.64191 17.8098 8.80634 17.4157 8.95314 17.0176C9.0882 16.649 9.26436 16.2941 9.419 15.9333C9.52665 15.6804 9.67346 15.4451 9.78699 15.1941C9.85158 15.0451 9.98077 14.9137 9.95337 14.7314ZM12.5939 18.9608C12.5939 20.351 12.5939 21.7392 12.5939 23.1294C12.6033 23.2501 12.6423 23.3666 12.7074 23.4686C12.7566 23.513 12.8142 23.5471 12.8767 23.569C12.9392 23.5909 13.0054 23.6001 13.0715 23.5961C13.1665 23.5585 13.2489 23.4947 13.3092 23.4121C13.3695 23.3295 13.4051 23.2315 13.4121 23.1294C13.4121 20.4 13.4121 17.6706 13.4121 14.9412C13.4105 14.8251 13.3974 14.7095 13.3729 14.5961C13.3343 14.4991 13.2599 14.4207 13.1651 14.3772C13.0704 14.3338 12.9625 14.3286 12.864 14.3627C12.7796 14.3954 12.7082 14.4549 12.6608 14.5321C12.6134 14.6093 12.5926 14.7 12.6017 14.7902C12.5919 16.1804 12.5939 17.5706 12.5939 18.9608Z" fill="#E7D5C6"/>
<path d="M11.576 7.52376C11.4938 7.71984 11.3392 7.89239 11.2413 8.09043C11.0968 8.3617 10.9762 8.64514 10.8811 8.93749C10.8302 9.11592 10.795 9.30611 10.7559 9.49239C10.7167 9.67866 10.7363 9.85905 10.7128 10.0414C10.6051 10.8826 10.6932 11.7277 10.6678 12.5708C10.6693 12.6105 10.6617 12.65 10.6458 12.6863C10.6299 12.7226 10.6059 12.7549 10.5758 12.7806C10.3501 12.9952 10.1395 13.2252 9.94549 13.4689C9.72627 13.7198 9.52074 13.9826 9.31913 14.2532C9.07642 14.5708 8.82978 14.8865 8.61055 15.2198C8.39133 15.5532 8.13491 15.91 7.90394 16.261C7.6945 16.5767 7.49093 16.8963 7.2854 17.212C7.15817 17.4081 7.04269 17.6041 6.92916 17.812C6.6935 18.202 6.47918 18.6046 6.28713 19.0179C6.13054 19.3826 5.95438 19.7394 5.83302 20.1179C5.7606 20.3453 5.65098 20.5649 5.60009 20.7963C5.5492 21.0277 5.47286 21.2394 5.42588 21.4669C5.39597 21.6584 5.3508 21.8473 5.29082 22.0316C5.26192 22.1304 5.24677 22.2326 5.2458 22.3355C5.22819 22.4885 5.19883 22.6414 5.17142 22.7904C5.13227 23.012 5.14206 23.2355 5.09117 23.4571C5.06368 23.6415 5.05973 23.8286 5.07942 24.014C5.04911 24.2166 5.03146 24.4209 5.02658 24.6257C5.0261 24.6944 5.04365 24.762 5.07747 24.8218C4.95807 24.7865 4.83867 24.7532 4.71927 24.712C4.49221 24.6336 4.26515 24.5551 4.04005 24.4708C3.88542 24.414 3.72883 24.361 3.57615 24.3022C3.22773 24.1649 2.88715 24.012 2.54461 23.863C2.31296 23.7711 2.0902 23.6582 1.87909 23.5257C1.60201 23.3378 1.36237 23.0997 1.17248 22.8238C1.05808 22.6629 0.968349 22.4858 0.906271 22.2983C0.859483 22.1703 0.82155 22.0393 0.792743 21.9061C0.725946 21.6954 0.701985 21.4734 0.722277 21.2532C0.759467 21.0865 0.747723 20.9179 0.796658 20.7512C0.845593 20.5846 0.910187 20.3591 0.97478 20.163C1.06091 19.9042 1.16073 19.6493 1.25469 19.3904C1.37213 19.0728 1.4974 18.7571 1.63638 18.4492C1.83212 18.0179 2.04939 17.5963 2.26861 17.1747C2.59035 16.5744 2.94316 15.9912 3.3256 15.4277C3.64401 14.952 3.9877 14.4938 4.35519 14.0551C4.71605 13.6047 5.10366 13.1765 5.51592 12.7728C5.54358 12.7484 5.56548 12.7181 5.58004 12.6842C5.5946 12.6503 5.60145 12.6136 5.60009 12.5767C5.60009 11.7924 5.60009 11.0081 5.60009 10.212C5.60646 10.1687 5.59819 10.1245 5.5766 10.0865C5.46112 10.2022 5.34759 10.3081 5.24189 10.4218C4.9894 10.6985 4.6505 10.8811 4.28081 10.9394C4.04007 10.9801 3.79356 10.9708 3.55658 10.912C3.2459 10.8366 2.96248 10.6756 2.73839 10.4473C2.02981 9.7401 1.31993 9.03356 0.608748 8.32768C0.32993 8.07927 0.133289 7.75165 0.0450206 7.38847C0.0450206 7.37474 0.0254461 7.34729 0 7.3767V6.61396C0.0313182 6.61396 0.0430626 6.61396 0.0489347 6.57279C0.100867 6.25892 0.253402 5.97053 0.483475 5.75122C1.13594 5.09762 1.7884 4.44403 2.44086 3.79043C3.30407 2.94141 4.12422 2.05122 5.02462 1.24141C5.29541 0.998327 5.596 0.790771 5.91915 0.623762C6.28928 0.428634 6.68447 0.285464 7.09358 0.198276C7.40176 0.121651 7.71622 0.073089 8.03313 0.0531796C8.06836 0.0531796 8.11534 0.0669031 8.10946 0.00219727H8.26214C8.30962 0.0386099 8.36775 0.0583376 8.42754 0.0583376C8.48733 0.0583376 8.54546 0.0386099 8.59294 0.00219727H13.0108C13.0108 0.525073 13.0108 1.04795 13.0108 1.57082C11.9146 1.57082 10.8185 1.57082 9.72235 1.57082C9.60181 1.57238 9.48275 1.59769 9.37198 1.64534C9.08567 1.73287 8.83995 1.91991 8.67906 2.17279C8.53757 2.3744 8.45427 2.61117 8.4383 2.8571C8.43759 3.01164 8.45135 3.16591 8.47941 3.31788C8.52887 3.52482 8.63221 3.71494 8.77889 3.86886C9.15862 4.27474 9.60687 4.60612 10.0081 4.98847C10.1128 5.1008 10.2282 5.20259 10.3526 5.29239C10.2675 5.4398 10.221 5.60642 10.2176 5.7767C10.1722 6.19411 10.2007 6.61627 10.3017 7.02377C10.3772 7.22506 10.5142 7.39732 10.6932 7.51592C10.8126 7.612 10.9849 7.58846 11.1336 7.62768C11.1571 7.62768 11.1904 7.62769 11.2178 7.61396C11.3345 7.57411 11.4543 7.54394 11.576 7.52376Z" fill="#E7D5C6"/>
<path d="M8.58324 -0.00196838C8.53576 0.0344442 8.47764 0.054172 8.41784 0.054172C8.35805 0.054172 8.29992 0.0344442 8.25244 -0.00196838H8.58324Z" fill="#DC968F"/>
<path d="M10.3526 5.29216C10.2257 5.20463 10.1077 5.1048 10.0003 4.99411C9.60879 4.60196 9.15077 4.2804 8.77103 3.87451C8.62555 3.72279 8.52229 3.53552 8.47155 3.33137C8.44349 3.1794 8.42973 3.02514 8.43045 2.87059C8.44641 2.62466 8.52971 2.38788 8.6712 2.18627C8.83209 1.93339 9.07781 1.74635 9.36412 1.65882C9.47489 1.61118 9.59395 1.58587 9.71449 1.58432C10.8106 1.58432 11.9068 1.58432 13.0029 1.58432C14.099 1.58432 15.1756 1.58432 16.2639 1.58432C16.5256 1.60116 16.7779 1.68855 16.994 1.83726C17.2365 1.99801 17.4152 2.23872 17.499 2.51764C17.6066 2.80999 17.6066 3.13118 17.499 3.42352C17.35 3.77969 17.0986 4.08342 16.7768 4.29608C16.7662 4.3037 16.757 4.31297 16.7493 4.32353C16.534 4.55294 16.2717 4.73333 16.0506 4.95686C15.9272 5.08235 15.7844 5.18432 15.6591 5.29608C15.6173 5.19351 15.5536 5.10137 15.4725 5.02615C15.3913 4.95094 15.2946 4.89448 15.1893 4.86078C14.9977 4.80357 14.7937 4.80357 14.6021 4.86078C14.2987 4.97104 14.0256 5.1518 13.8054 5.38823C13.7929 5.40526 13.7765 5.4191 13.7576 5.42864C13.7388 5.43817 13.7179 5.44314 13.6968 5.44314C13.6757 5.44314 13.6548 5.43817 13.636 5.42864C13.6171 5.4191 13.6007 5.40526 13.5882 5.38823C13.4346 5.26501 13.2447 5.19608 13.0479 5.19216C12.8172 5.1805 12.5904 5.25529 12.4118 5.40196C12.4002 5.41419 12.3862 5.42376 12.3706 5.42999C12.355 5.43622 12.3382 5.43895 12.3214 5.43802C12.3046 5.43709 12.2883 5.4325 12.2735 5.42458C12.2586 5.41666 12.2457 5.4056 12.2356 5.39216C12.1417 5.30392 12.0399 5.22157 11.94 5.14117C11.8076 5.02354 11.6523 4.93475 11.4838 4.88041C11.3153 4.82607 11.1374 4.80736 10.9614 4.82549C10.832 4.83317 10.7088 4.88349 10.611 4.96862C10.5039 5.05785 10.416 5.16792 10.3526 5.29216Z" fill="#DC968F"/>
<path d="M10.3527 5.29215C10.4124 5.17212 10.4948 5.06489 10.5955 4.97647C10.6933 4.89133 10.8165 4.841 10.9458 4.83332C11.1219 4.8152 11.2998 4.8339 11.4683 4.88824C11.6367 4.94258 11.7921 5.03139 11.9245 5.14902C12.0263 5.22941 12.1203 5.31175 12.2201 5.39999C12.2302 5.41343 12.2431 5.4245 12.2579 5.43242C12.2728 5.44034 12.2891 5.44493 12.3059 5.44586C12.3227 5.4468 12.3395 5.44405 12.3551 5.43782C12.3707 5.43159 12.3847 5.42202 12.3963 5.40979C12.5749 5.26312 12.8017 5.18834 13.0324 5.2C13.2291 5.20392 13.4191 5.27285 13.5727 5.39608C13.5852 5.4131 13.6016 5.42694 13.6204 5.43648C13.6393 5.44602 13.6602 5.45098 13.6813 5.45098C13.7024 5.45098 13.7233 5.44602 13.7421 5.43648C13.761 5.42694 13.7774 5.4131 13.7899 5.39608C14.0101 5.15964 14.2831 4.97888 14.5866 4.86863C14.7782 4.81141 14.9822 4.81141 15.1738 4.86863C15.2805 4.89931 15.3791 4.95316 15.4627 5.02636C15.5463 5.09956 15.6127 5.19031 15.6573 5.29215C15.7452 5.50726 15.7942 5.73631 15.8021 5.96862C15.8021 6.11764 15.8021 6.26665 15.8021 6.41371C15.8097 6.66849 15.7581 6.92155 15.6514 7.15293C15.5945 7.26711 15.5117 7.36643 15.4098 7.443C15.3079 7.51958 15.1895 7.57132 15.0642 7.59411C14.6942 7.6647 14.4261 7.49607 14.1481 7.32156C14.0026 7.22466 13.8633 7.11856 13.7312 7.00391C13.6784 6.96077 13.647 6.9745 13.602 7.00391C13.4338 7.13397 13.2273 7.20452 13.0148 7.20452C12.8023 7.20452 12.5958 7.13397 12.4276 7.00391C12.3845 6.97058 12.3532 6.93529 12.2964 6.98234C12.0713 7.17842 11.8286 7.34313 11.5879 7.51176C11.4656 7.53119 11.3451 7.5607 11.2277 7.6C11.2003 7.6 11.167 7.62157 11.1435 7.61372C10.9948 7.57451 10.8225 7.59804 10.7031 7.50196C10.5241 7.38336 10.3871 7.2111 10.3116 7.0098C10.2106 6.6023 10.1821 6.18015 10.2275 5.76274C10.2302 5.59798 10.2732 5.43639 10.3527 5.29215Z" fill="#A0D1CA"/>
<path d="M19.4487 23.1353C19.4487 23.4314 19.2941 23.6098 19.0572 23.6059C18.9709 23.6023 18.8881 23.5701 18.8219 23.5144C18.7557 23.4587 18.7097 23.3826 18.6912 23.298C18.656 23.0686 18.6188 22.8392 18.5757 22.6118C18.5449 22.3875 18.5024 22.165 18.4485 21.9451C18.4188 21.8288 18.3953 21.711 18.378 21.5922C18.3526 21.3926 18.3093 21.1958 18.2488 21.0039C18.2215 20.9174 18.2006 20.8289 18.1862 20.7392C18.1378 20.4796 18.0724 20.2235 17.9905 19.9726C17.9455 19.8235 17.9239 19.6667 17.875 19.5176C17.7752 19.1961 17.7008 18.8647 17.5814 18.5471C17.4796 18.2745 17.415 17.9843 17.3093 17.7118C17.2447 17.5431 17.186 17.3706 17.1136 17.2039C16.9902 16.9137 16.8826 16.6157 16.7534 16.3314C16.5342 15.8549 16.313 15.3784 16.0742 14.9118C16.0361 14.8239 16.0277 14.7259 16.0503 14.6328C16.0729 14.5397 16.1253 14.4566 16.1995 14.3961C16.2966 14.3476 16.4084 14.3376 16.5126 14.3681C16.6167 14.3987 16.7055 14.4675 16.7612 14.5608C16.957 14.9843 17.1879 15.3922 17.3778 15.8196C17.5383 16.1784 17.6988 16.5373 17.8319 16.9059C17.918 17.1471 18.0081 17.3882 18.1079 17.6235C18.2077 17.8588 18.2528 18.0706 18.3311 18.2922C18.4094 18.5137 18.4759 18.8 18.564 19.049C18.6188 19.198 18.6345 19.3628 18.6873 19.5137C18.7676 19.749 18.8106 19.9922 18.883 20.2314C18.9261 20.3961 18.9633 20.5686 19.0044 20.7353C19.0455 20.902 19.0768 21.1157 19.1355 21.302C19.166 21.4133 19.1882 21.5266 19.2021 21.6412C19.2198 21.7807 19.2492 21.9184 19.2902 22.0529C19.3157 22.1611 19.3314 22.2714 19.3372 22.3823C19.3766 22.5277 19.3996 22.677 19.4057 22.8275C19.3939 22.9392 19.4898 23.0333 19.4487 23.1353Z" fill="#E7D5C6"/>
<path d="M9.95329 14.7314C9.97678 14.9137 9.85151 15.0451 9.78496 15.1941C9.67143 15.4451 9.52462 15.6804 9.41697 15.9333C9.26233 16.2941 9.08617 16.649 8.95111 17.0177C8.8043 17.4098 8.63988 17.802 8.5244 18.2196C8.4598 18.449 8.35019 18.6667 8.29147 18.898C8.23275 19.1294 8.17794 19.302 8.12509 19.5059C8.07224 19.7098 7.97829 19.9451 7.92935 20.1706C7.89608 20.3529 7.82953 20.5275 7.80995 20.7157C7.791 20.8799 7.75222 21.0412 7.69446 21.1961C7.66201 21.3106 7.63716 21.4272 7.62008 21.5451C7.55941 21.7843 7.51439 22.0294 7.47132 22.2725C7.44783 22.4137 7.4263 22.5588 7.40281 22.702C7.39041 22.8627 7.36155 23.0217 7.31669 23.1765C7.30426 23.254 7.2846 23.3301 7.25797 23.4039C7.22026 23.4772 7.15971 23.5361 7.08552 23.5717C7.01133 23.6074 6.92756 23.6178 6.84693 23.6013C6.76631 23.5849 6.69323 23.5426 6.63882 23.4808C6.58441 23.4189 6.55164 23.341 6.54548 23.2588C6.54377 23.0385 6.57478 22.8191 6.63747 22.6078C6.65901 22.4983 6.67469 22.3877 6.68445 22.2765C6.70403 22.1373 6.72556 21.9941 6.75688 21.8608C6.8019 21.651 6.82538 21.4373 6.88998 21.2314C6.94478 21.0588 6.9624 20.8765 7.00351 20.7C7.04461 20.5235 7.09159 20.3569 7.13661 20.1863C7.18163 20.0157 7.2149 19.8647 7.25601 19.7059C7.29712 19.5471 7.33822 19.3941 7.37345 19.2373C7.42435 19.0157 7.51634 18.8078 7.56919 18.5863C7.61781 18.4068 7.67596 18.2301 7.7434 18.0569C7.8354 17.7882 7.91956 17.5157 8.02722 17.2529C8.09573 17.0843 8.14858 16.9098 8.22296 16.7431C8.35998 16.4235 8.48329 16.098 8.6301 15.7824C8.82584 15.3647 9.03723 14.953 9.24472 14.5373C9.29069 14.4613 9.35986 14.4021 9.442 14.3686C9.52414 14.335 9.61488 14.3289 9.70079 14.351C9.78456 14.368 9.85818 14.4176 9.90551 14.4889C9.95284 14.5602 9.97002 14.6474 9.95329 14.7314Z" fill="#E7D5C6"/>
<path d="M12.5938 18.9608C12.5938 17.5706 12.5938 16.1804 12.5938 14.7902C12.5847 14.7 12.6055 14.6093 12.6528 14.5321C12.7002 14.4549 12.7716 14.3954 12.8561 14.3627C12.9546 14.3286 13.0624 14.3338 13.1572 14.3772C13.252 14.4207 13.3264 14.4991 13.365 14.5961C13.3895 14.7095 13.4026 14.8251 13.4041 14.9412C13.4041 17.6706 13.4041 20.4 13.4041 23.1294C13.3972 23.2315 13.3615 23.3295 13.3012 23.4121C13.241 23.4947 13.1585 23.5585 13.0635 23.5961C12.9975 23.6001 12.9312 23.5909 12.8687 23.569C12.8062 23.5471 12.7487 23.513 12.6995 23.4686C12.6343 23.3666 12.5953 23.2501 12.5859 23.1294C12.5957 21.7392 12.5938 20.351 12.5938 18.9608Z" fill="#E7D5C6"/>
<path d="M16.7043 10.1745C16.925 10.1241 17.1521 10.1075 17.3777 10.1255C17.711 10.1498 18.0272 10.2827 18.2781 10.5039C18.4091 10.6041 18.5189 10.7294 18.6011 10.8726C18.7157 11.079 18.7505 11.3205 18.6989 11.551C18.6469 11.7729 18.5352 11.9763 18.376 12.1392C18.2063 12.292 18.0061 12.407 17.7887 12.4765C17.5428 12.5574 17.2838 12.5913 17.0254 12.5765C16.8644 12.5657 16.7061 12.5307 16.5556 12.4725C16.3704 12.4101 16.1994 12.3115 16.0525 12.1824C15.867 12.0199 15.7387 11.802 15.6865 11.5608C15.6494 11.4117 15.6498 11.2557 15.6877 11.1068C15.7256 10.958 15.7999 10.8209 15.9038 10.7078C15.9586 10.6392 16.0036 10.5647 16.0506 10.4922C16.1621 10.5333 16.2581 10.6137 16.397 10.5627C16.4782 10.5314 16.5495 10.4788 16.6035 10.4106C16.6575 10.3423 16.6924 10.2608 16.7043 10.1745Z" fill="#E7D5C6"/>
<path d="M10.0042 10.4823C10.0805 10.6216 10.1999 10.7274 10.2723 10.8745C10.3887 11.0796 10.4243 11.3209 10.3721 11.551C10.3187 11.7808 10.2005 11.9904 10.0316 12.1549C9.82524 12.3411 9.57443 12.4708 9.30341 12.5314C9.0823 12.5793 8.85482 12.5906 8.63007 12.5647C8.35813 12.5311 8.09722 12.4366 7.86669 12.2882C7.64413 12.1556 7.4772 11.9466 7.39692 11.7C7.32871 11.5282 7.31039 11.3406 7.34407 11.1588C7.4233 10.8604 7.60662 10.6002 7.86082 10.4255C8.03479 10.2967 8.23551 10.2089 8.44803 10.1686C8.64887 10.1326 8.8528 10.1168 9.05678 10.1216C9.16248 10.1216 9.25252 10.202 9.35039 10.1745C9.40715 10.2294 9.38367 10.3157 9.43064 10.3706C9.45883 10.4181 9.49672 10.4591 9.54183 10.4909C9.58694 10.5227 9.63826 10.5446 9.69241 10.5552C9.74656 10.5657 9.80233 10.5647 9.85605 10.5521C9.90978 10.5396 9.96025 10.5158 10.0042 10.4823Z" fill="#DC968F"/>
<path d="M9.39357 9.40981C9.39357 9.45098 9.41119 9.49804 9.35443 9.51568C9.3466 9.47647 9.32507 9.42941 9.39357 9.40981Z" fill="#DC968F"/>
</g>
<defs>
<clipPath id="clip0_160_145">
<rect width="26" height="26" fill="white"/>
</clipPath>
</defs>
</svg>
