<svg width="21" height="26" viewBox="0 0 21 26" fill="none" xmlns="http://www.w3.org/2000/svg">
<g clip-path="url(#clip0_171_848)">
<path d="M13.8752 25.9959C12.2386 25.9959 10.6027 25.9959 8.96684 26C8.7843 26 8.73886 25.9526 8.73955 25.7718C8.74781 24.4658 8.73954 23.1598 8.7478 21.8537C8.7478 21.6771 8.70923 21.6228 8.52257 21.6228C5.76417 21.6297 3.00532 21.631 0.246004 21.6269C0.00285892 21.6269 0.00147797 21.6269 0.00147797 21.3801C0.00147797 18.3648 0.00147797 15.3496 0.00147797 12.3343C0.00107789 12.2883 0.00982694 12.2427 0.0272069 12.2001C0.0445869 12.1575 0.0702506 12.1188 0.102729 12.0861C0.641367 11.4613 1.16968 10.8275 1.70625 10.2C1.80061 10.102 1.88981 9.99922 1.97349 9.89202C2.02653 9.81504 2.11126 9.83222 2.18703 9.83222C3.18991 9.83222 4.19279 9.8281 5.19637 9.83222C5.37132 9.83222 5.41885 9.77654 5.41816 9.60676C5.41334 7.26968 5.41817 4.9326 5.41197 2.59896C5.411 2.52862 5.42394 2.45877 5.45006 2.39343C5.47618 2.32808 5.51497 2.26852 5.56419 2.21816C5.96507 1.76449 6.34942 1.29639 6.74892 0.843406C6.95556 0.611073 7.15256 0.376677 7.34198 0.131971C7.37952 0.0857064 7.42781 0.0493053 7.48268 0.0259425C7.53755 0.00257974 7.5973 -0.00703647 7.65674 -0.00206812C10.9345 0.000681383 14.2127 0.000681383 17.4914 -0.00206812C17.6408 -0.00206812 17.6684 0.0501733 17.6684 0.183524C17.6647 2.99535 17.6647 5.80786 17.6684 8.62107C17.6635 8.72045 17.6262 8.81552 17.5623 8.89189C17.149 9.51053 16.7392 10.1292 16.3308 10.7478C16.1186 11.0702 15.9058 11.3919 15.6998 11.7177C15.6413 11.8105 15.5621 11.7961 15.4801 11.7961H12.5066C12.2538 11.7961 12.2538 11.7961 12.2538 12.0552C12.2538 12.6931 12.26 13.3303 12.2496 13.9682C12.2496 14.1531 12.3109 14.1984 12.4873 14.1977C15.2461 14.1927 18.0048 14.1927 20.7631 14.1977C20.9987 14.1977 20.998 14.1977 20.998 14.4253C20.998 17.1422 20.9994 19.8594 21.0022 22.5769C21.0022 22.8229 20.9629 23.023 20.799 23.2278C20.54 23.5516 20.3313 23.9152 20.1047 24.2644C19.7458 24.8143 19.3552 25.3504 19.0233 25.9209C18.9709 26.0124 18.8944 25.9897 18.8207 25.9897C18.0093 25.9897 17.1975 25.9897 16.3852 25.9897L13.8752 25.9959ZM13.8497 25.7024C15.3782 25.7024 16.9066 25.7024 18.435 25.7065C18.5976 25.7065 18.6348 25.6584 18.6334 25.5058C18.6251 24.7552 18.6251 24.0045 18.6258 23.2539C18.6258 21.2042 18.6274 19.1544 18.6306 17.1047C18.6306 16.9912 18.6658 16.8765 18.4619 16.8765C15.4831 16.8833 12.5036 16.8847 9.52339 16.8806C9.07911 16.8806 9.07843 16.8806 9.07843 17.3287C9.07843 20.0585 9.07843 22.7877 9.07843 25.5161C9.07843 25.6219 9.06465 25.7092 9.22858 25.7085C10.7687 25.7003 12.3089 25.7024 13.8497 25.7024ZM10.5304 2.68763C9.00198 2.68763 7.47285 2.68763 5.94441 2.68763C5.80665 2.68763 5.76118 2.72338 5.76187 2.86566C5.76554 5.68482 5.76554 8.50306 5.76187 11.3204C5.76187 11.484 5.8149 11.5142 5.96851 11.5142C9.01987 11.5092 12.0712 11.5092 15.1226 11.5142C15.2845 11.5142 15.3038 11.4544 15.3038 11.3176C15.301 8.51131 15.301 5.70453 15.3038 2.89728C15.3038 2.71719 15.2452 2.68557 15.0806 2.68626C13.5639 2.68764 12.0471 2.68763 10.5304 2.68763ZM5.12337 12.4814C3.59493 12.4814 2.0658 12.4814 0.537363 12.4779C0.358276 12.4779 0.316952 12.5419 0.317641 12.7075C0.321315 15.5143 0.321315 18.3211 0.317641 21.1279C0.317641 21.2757 0.374118 21.3306 0.502234 21.3465C0.549831 21.3513 0.597672 21.3533 0.645509 21.3526H8.58112C8.75952 21.3485 8.78776 21.2413 8.78776 21.088C8.78776 20.9347 8.69959 20.921 8.58112 20.921C6.11523 20.921 3.6491 20.921 1.18276 20.921C0.763968 20.921 0.76329 20.9251 0.76329 20.5085C0.76329 18.1128 0.76329 15.7173 0.76329 13.322C0.76329 13.2567 0.779818 13.1914 0.777062 13.1268C0.766731 12.9323 0.871433 12.9075 1.04088 12.9082C2.74289 12.9137 4.4449 12.9082 6.14691 12.9082C7.17368 12.9082 8.20067 12.9082 9.22789 12.9082C9.46415 12.9082 9.46416 12.9027 9.46278 13.1426C9.46278 13.9558 9.47379 14.7683 9.43384 15.5807C9.43384 15.6433 9.47174 15.7327 9.53097 15.6687C9.69284 15.4928 9.91325 15.3567 9.90429 15.057C9.89465 14.7387 9.91394 14.4191 9.90429 14.0988C9.88776 13.6286 9.89258 13.1571 9.90429 12.6869C9.90774 12.5178 9.84575 12.4759 9.68457 12.4766C8.15682 12.4821 6.6401 12.48 5.12337 12.48V12.4814ZM5.10546 18.0952H5.91135C6.12556 18.0952 6.23163 18.1639 6.3012 18.3646C6.47409 18.8582 6.6456 19.3531 6.81573 19.8473C6.89907 20.0858 7.14154 20.1683 7.44737 20.0666C7.61681 20.0102 7.69394 19.8198 7.62437 19.6046C7.54172 19.351 7.45011 19.1001 7.36332 18.8485C7.14107 18.2015 6.91882 17.5549 6.69657 16.9088C6.35722 15.918 6.01764 14.9277 5.67784 13.9379C5.66027 13.8739 5.62224 13.8174 5.56952 13.7769C5.5168 13.7365 5.45229 13.7143 5.38579 13.7138C5.2067 13.7076 5.02761 13.7083 4.84852 13.7138C4.77354 13.7107 4.69978 13.7336 4.63977 13.7786C4.57975 13.8236 4.5372 13.8879 4.51929 13.9606C4.37671 14.3957 4.22448 14.8274 4.07639 15.2604C3.59561 16.6668 3.11575 18.0734 2.63681 19.4802C2.60375 19.5792 2.54657 19.6754 2.56379 19.7896C2.59135 19.9724 2.70156 20.0789 2.89994 20.0996C3.16374 20.1271 3.30218 20.0611 3.37313 19.8514C3.53155 19.3849 3.68538 18.9164 3.83462 18.4457C3.91865 18.1825 4.02335 18.102 4.29956 18.0979C4.57576 18.0938 4.83683 18.0938 5.10546 18.0938V18.0952Z" fill="#E7D5C6"/>
<path d="M13.8497 25.7024C12.3088 25.7024 10.7687 25.7024 9.22783 25.7058C9.0639 25.7058 9.07768 25.6192 9.07768 25.5133C9.07768 22.7845 9.07768 20.0554 9.07768 17.326C9.07768 16.8785 9.07768 16.8778 9.52264 16.8778C12.5024 16.8778 15.4819 16.8765 18.4611 16.8737C18.6678 16.8737 18.6299 16.9885 18.6299 17.1019C18.6299 19.1517 18.6283 21.2014 18.6251 23.2512C18.6251 24.0018 18.6251 24.7524 18.6326 25.503C18.6326 25.6556 18.5968 25.7044 18.4343 25.7038C16.9058 25.6969 15.3774 25.6996 13.849 25.6996L13.8497 25.7024ZM13.8497 17.269C12.4721 17.269 11.0945 17.269 9.71206 17.2648C9.54192 17.2648 9.4944 17.3054 9.4944 17.48C9.50083 20.0123 9.50083 22.5443 9.4944 25.0762C9.4944 25.2439 9.53297 25.3016 9.70999 25.3009C12.4744 25.2968 15.2387 25.2968 18.0031 25.3009C18.1677 25.3009 18.2097 25.2501 18.2097 25.0865C18.2047 22.5542 18.2047 20.0219 18.2097 17.4896C18.2097 17.3088 18.1643 17.2607 17.9831 17.2614C16.6083 17.2724 15.2286 17.269 13.8497 17.269Z" fill="#71ACAB"/>
<path d="M10.5303 2.68764C12.0456 2.68764 13.561 2.68764 15.0804 2.6842C15.2451 2.6842 15.3043 2.71513 15.3036 2.89523C15.2972 5.70201 15.2972 8.5088 15.3036 11.3156C15.3036 11.4531 15.2843 11.5122 15.1225 11.5122C12.0711 11.5071 9.01972 11.5071 5.96836 11.5122C5.81682 11.5122 5.76172 11.4819 5.76172 11.3183C5.76631 8.49963 5.76631 5.68139 5.76172 2.86361C5.76172 2.72132 5.80375 2.68489 5.94426 2.68558C7.4727 2.68764 9.00183 2.68764 10.5303 2.68764ZM10.5303 11.1217C11.9209 11.1217 13.3116 11.1217 14.703 11.1217C14.8476 11.1217 14.8807 11.0778 14.88 10.9389C14.8763 8.38324 14.8763 5.82734 14.88 3.27122C14.88 3.12069 14.8497 3.06501 14.6844 3.06501C11.9558 3.07051 9.22752 3.07188 6.49943 3.06913C6.16537 3.06913 6.16467 3.06913 6.16467 3.41282V10.8674C6.16467 11.1176 6.16467 11.1183 6.4092 11.1183L10.5303 11.1217Z" fill="#DC968F"/>
<path d="M5.12323 12.48C6.63858 12.48 8.15391 12.48 9.6734 12.48C9.83457 12.48 9.89658 12.5212 9.89314 12.6903C9.88418 13.1605 9.87936 13.632 9.89314 14.1022C9.90416 14.4225 9.88487 14.7422 9.89314 15.0604C9.90209 15.3601 9.68166 15.4962 9.5198 15.6722C9.46056 15.7361 9.41924 15.6467 9.42268 15.5842C9.46263 14.7717 9.44885 13.9592 9.45161 13.1461C9.45161 12.9062 9.45161 12.911 9.21673 12.9117C8.18951 12.9117 7.16252 12.9117 6.13575 12.9117C4.43374 12.9117 2.73172 12.9117 1.0297 12.9117C0.860258 12.9117 0.754195 12.9357 0.765905 13.1303C0.765905 13.1949 0.752115 13.2602 0.752115 13.3255C0.752115 15.7207 0.752115 18.1163 0.752115 20.512C0.752115 20.9244 0.752121 20.9244 1.1716 20.9244C3.63749 20.9244 6.1036 20.9244 8.56994 20.9244C8.69117 20.9244 8.77658 20.934 8.77658 21.0914C8.77658 21.2489 8.75041 21.352 8.56994 21.3561H0.643297C0.595461 21.3568 0.547619 21.3547 0.500022 21.3499C0.371906 21.3341 0.31543 21.2812 0.31543 21.1313C0.32094 18.3245 0.32094 15.5177 0.31543 12.711C0.31543 12.5453 0.356065 12.4807 0.535151 12.4814C2.06359 12.4876 3.59272 12.4848 5.12116 12.4848L5.12323 12.48Z" fill="#A0D1CA"/>
<path d="M5.10538 18.0938C4.83675 18.0938 4.5681 18.0938 4.29947 18.0938C4.03084 18.0938 3.91857 18.1783 3.83453 18.4416C3.68438 18.9113 3.53055 19.3799 3.37304 19.8473C3.30417 20.0535 3.16641 20.1222 2.89985 20.0954C2.70423 20.0748 2.59126 19.9683 2.56371 19.7854C2.54649 19.6713 2.60366 19.5751 2.63673 19.4761C3.11383 18.0684 3.59369 16.6618 4.0763 15.2563C4.22439 14.8233 4.37663 14.3916 4.51921 13.9565C4.53711 13.8837 4.57967 13.8194 4.63968 13.7745C4.69969 13.7295 4.77345 13.7066 4.84844 13.7097C5.02753 13.7056 5.20662 13.7049 5.3857 13.7097C5.4522 13.7102 5.51672 13.7324 5.56944 13.7728C5.62216 13.8133 5.66019 13.8698 5.67775 13.9338C6.01848 14.9236 6.35805 15.9139 6.69648 16.9046C6.91828 17.5517 7.14052 18.1983 7.36323 18.8444C7.45002 19.0974 7.54163 19.3483 7.62429 19.6005C7.69317 19.8157 7.61672 20.0061 7.44728 20.0624C7.14146 20.1642 6.89623 20.0817 6.81564 19.8432C6.64344 19.3489 6.47125 18.854 6.30112 18.3605C6.23224 18.1612 6.12548 18.091 5.91126 18.091H5.10538V18.0938ZM5.08333 14.472C4.95315 14.9085 4.84432 15.2969 4.72102 15.6811C4.58326 16.1045 4.43449 16.5231 4.29466 16.9452C4.20718 17.2098 4.32841 17.4264 4.58878 17.436C4.91001 17.4524 5.23187 17.4524 5.55309 17.436C5.85892 17.4188 5.96636 17.2298 5.87131 16.9431C5.70806 16.4661 5.53725 15.9904 5.38158 15.5106C5.27758 15.1828 5.19216 14.8501 5.08057 14.472H5.08333Z" fill="#71ACAB"/>
<path d="M13.8497 17.269C15.2273 17.269 16.6083 17.2724 17.9873 17.2648C18.1684 17.2648 18.2139 17.3123 18.2139 17.493C18.207 20.0253 18.207 22.5576 18.2139 25.0899C18.2139 25.2535 18.1698 25.3044 18.0072 25.3044C15.2424 25.2998 12.4781 25.2998 9.71415 25.3044C9.53713 25.3044 9.49786 25.2473 9.49854 25.0796C9.50314 22.5482 9.50314 20.0162 9.49854 17.4834C9.49854 17.3088 9.54608 17.2676 9.71621 17.2683C11.0938 17.2751 12.4748 17.2724 13.8538 17.2724L13.8497 17.269ZM14.5385 21.0536L14.6838 20.9849C15.4415 20.6295 15.7549 19.7889 15.3726 19.0685C15.1109 18.5763 14.6404 18.3667 14.1162 18.2842C13.517 18.1894 12.9143 18.234 12.3137 18.2918C12.0381 18.3179 11.9493 18.4368 11.9493 18.7228C11.9493 20.4325 11.9493 22.1422 11.9493 23.852C11.9486 23.9233 11.9555 23.9945 11.97 24.0644C11.9817 24.1326 12.0171 24.1945 12.07 24.2394C12.1229 24.2842 12.1899 24.3091 12.2592 24.3097C12.8792 24.3586 13.4991 24.3785 14.1149 24.274C14.7024 24.1736 15.2217 23.9606 15.5427 23.4065C16.0125 22.5947 15.7177 21.6008 14.8711 21.1966C14.7685 21.1464 14.6645 21.1093 14.5378 21.0536H14.5385Z" fill="#E7D5C6"/>
<path d="M10.5297 11.1204H6.41005C6.16622 11.1204 6.16553 11.1204 6.16553 10.8695V3.41626C6.16553 3.07258 6.16553 3.07258 6.50029 3.07258C9.22838 3.07258 11.9567 3.0712 14.6852 3.06845C14.8505 3.06845 14.8809 3.12138 14.8809 3.27466C14.8758 5.83033 14.8758 8.38622 14.8809 10.9423C14.8809 11.0798 14.8485 11.1259 14.7038 11.1252C13.3111 11.1183 11.9204 11.1204 10.5297 11.1204ZM11.2729 10.158C11.5285 10.189 11.7957 10.1457 12.0609 10.1175C12.2593 10.0962 12.4639 10.0611 12.6361 9.94221C12.6769 9.91294 12.7101 9.87431 12.7329 9.82956C12.7557 9.78482 12.7673 9.73528 12.7669 9.6851C12.7665 9.63491 12.7541 9.58556 12.7306 9.54119C12.7071 9.49682 12.6732 9.45873 12.6319 9.43012C12.4756 9.31739 12.3337 9.40331 12.1766 9.43012C11.6539 9.51947 11.1324 9.53047 10.611 9.38131C9.87814 9.17166 9.45245 8.68088 9.24237 7.977C9.11778 7.53511 9.09424 7.07093 9.17349 6.61875C9.26372 6.03035 9.48896 5.51895 9.98214 5.14158C10.3775 4.83844 10.8259 4.72915 11.3026 4.69547C11.6539 4.67916 12.0054 4.72168 12.3426 4.82126C12.4804 4.85907 12.7084 4.76627 12.7353 4.6501C12.7842 4.44045 12.7711 4.27961 12.581 4.19712C12.3913 4.11708 12.1898 4.06855 11.9845 4.05346C11.7131 4.02566 11.4401 4.01785 11.1676 4.03009C10.5401 4.07064 9.96767 4.24661 9.46347 4.61505C9.07709 4.89713 8.77127 5.27507 8.57631 5.71141C8.3986 6.10596 8.32627 6.52733 8.29321 6.96587C8.25743 7.45626 8.32791 7.94859 8.49985 8.40936C8.70649 8.98263 9.06535 9.45211 9.60192 9.75799C10.1068 10.0537 10.6887 10.1921 11.2729 10.1553V10.158Z" fill="#E7D5C6"/>
<path d="M5.0806 14.472C5.18943 14.8501 5.27485 15.1828 5.38023 15.5079C5.5359 15.9891 5.70671 16.4633 5.86996 16.9404C5.96777 17.2291 5.85757 17.416 5.55174 17.4332C5.23052 17.4497 4.90866 17.4497 4.58743 17.4332C4.32706 17.4209 4.20583 17.2071 4.29331 16.9424C4.43107 16.5204 4.58398 16.1018 4.71967 15.6784C4.84434 15.2969 4.95317 14.9085 5.0806 14.472Z" fill="#E7D5C6"/>
<path d="M14.5377 21.0537C14.6644 21.1073 14.7684 21.1465 14.869 21.1946C15.7155 21.5987 16.0103 22.5927 15.5406 23.4045C15.2196 23.9585 14.7002 24.1716 14.1127 24.272C13.4969 24.3771 12.877 24.3565 12.2571 24.3077C12.1882 24.307 12.1217 24.2825 12.069 24.2382C12.0164 24.1939 11.9808 24.1327 11.9685 24.0651C11.954 23.9952 11.9471 23.924 11.9478 23.8527C11.9478 22.1429 11.9478 20.4332 11.9478 18.7235C11.9478 18.4375 12.0394 18.3186 12.3122 18.2925C12.9128 18.2347 13.5155 18.19 14.1148 18.2849C14.6389 18.3674 15.1094 18.577 15.3711 19.0692C15.7548 19.7896 15.44 20.6302 14.6823 20.9856L14.5377 21.0537ZM12.7261 22.5528C12.7261 22.8209 12.7227 23.089 12.7261 23.3571C12.7261 23.5536 12.8315 23.7007 12.9893 23.7069C13.3702 23.7214 13.7531 23.7468 14.1251 23.6251C14.6382 23.4574 14.9234 23.0862 14.9303 22.5707C14.9372 22.0765 14.6548 21.7046 14.1437 21.5218C13.8034 21.3987 13.4549 21.4097 13.1008 21.4118C12.8487 21.4118 12.7296 21.5307 12.7255 21.785C12.7213 22.0394 12.7261 22.2992 12.7261 22.5528ZM12.7261 19.8679C12.7399 20.0563 12.7062 20.3065 12.7454 20.5553C12.75 20.622 12.7794 20.6847 12.8278 20.7309C12.8762 20.7772 12.9402 20.8038 13.0072 20.8055C13.3688 20.8193 13.7325 20.8385 14.0844 20.7072C14.5012 20.5519 14.7388 20.2219 14.7326 19.7834C14.7257 19.3283 14.5163 19.0575 14.0597 18.9118C13.7153 18.8018 13.3633 18.8314 13.0134 18.852C12.8288 18.8623 12.7317 19.0005 12.7275 19.2012C12.7234 19.4019 12.7261 19.6074 12.7261 19.8721V19.8679Z" fill="#DC968F"/>
<path d="M11.2729 10.1553C10.6892 10.1915 10.1081 10.0529 9.6039 9.7573C9.06595 9.45142 8.70847 8.98194 8.50183 8.40867C8.32989 7.94789 8.25941 7.45557 8.29519 6.96518C8.32825 6.52663 8.40059 6.10527 8.5783 5.71072C8.77276 5.2737 9.07835 4.89503 9.46477 4.61229C9.96896 4.24386 10.5414 4.06789 11.1688 4.02733C11.4414 4.0151 11.7144 4.02291 11.9858 4.0507C12.1911 4.0658 12.3926 4.11433 12.5823 4.19437C12.7724 4.27685 12.7889 4.4377 12.7365 4.64735C12.7097 4.76351 12.4831 4.85356 12.3439 4.8185C12.0067 4.71892 11.6552 4.67641 11.3039 4.69271C10.8272 4.72708 10.3788 4.83569 9.98343 5.13882C9.49025 5.51756 9.26502 6.0276 9.17479 6.61599C9.09553 7.06818 9.11907 7.53235 9.24367 7.97425C9.4503 8.67812 9.87943 9.16891 10.6123 9.37855C11.1337 9.52772 11.6551 9.51603 12.1779 9.42736C12.335 9.40124 12.4769 9.31532 12.6332 9.42736C12.6745 9.45597 12.7084 9.49407 12.7319 9.53844C12.7553 9.58281 12.7678 9.63216 12.7682 9.68234C12.7686 9.73252 12.757 9.78206 12.7342 9.82681C12.7114 9.87155 12.6782 9.91018 12.6374 9.93945C12.4652 10.0584 12.2606 10.0934 12.0622 10.1147C11.7957 10.1429 11.5284 10.1862 11.2729 10.1553Z" fill="#A0D1CA"/>
<path d="M12.7263 22.5528C12.7263 22.2971 12.7263 22.0407 12.7263 21.785C12.7263 21.5293 12.8496 21.4132 13.1017 21.4118C13.453 21.4118 13.8043 21.3987 14.1445 21.5218C14.6536 21.7046 14.938 22.0765 14.9311 22.5707C14.9243 23.0862 14.6391 23.4574 14.1259 23.6251C13.754 23.7468 13.3683 23.7214 12.9901 23.7069C12.8324 23.7007 12.7304 23.5536 12.727 23.3571C12.7222 23.089 12.727 22.8209 12.727 22.5528H12.7263Z" fill="#E7D5C6"/>
<path d="M12.7261 19.872C12.7261 19.6095 12.7227 19.4074 12.7261 19.2053C12.7296 19.0032 12.8274 18.8664 13.012 18.8561C13.3619 18.8355 13.7146 18.8059 14.0583 18.9159C14.5149 19.0616 14.7243 19.3324 14.7312 19.7875C14.7374 20.226 14.4998 20.556 14.0831 20.7113C13.7311 20.8426 13.3674 20.8234 13.0058 20.8096C12.9388 20.8079 12.8748 20.7813 12.8264 20.735C12.778 20.6888 12.7487 20.6261 12.744 20.5594C12.7062 20.3085 12.7399 20.0583 12.7261 19.872Z" fill="#E7D5C6"/>
</g>
<defs>
<clipPath id="clip0_171_848">
<rect width="21" height="26" fill="white"/>
</clipPath>
</defs>
</svg>
