<svg width="18" height="27" viewBox="0 0 18 27" fill="none" xmlns="http://www.w3.org/2000/svg">
<g clip-path="url(#clip0_166_321)">
<path d="M0.00630114 24.8235C0.00473556 24.8016 0.00473556 24.7795 0.00630114 24.7576V21.9914C0.00551304 21.9779 0.00551304 21.9643 0.00630114 21.9508H0.700024H0.793893H1.93629C1.93629 22.2888 1.93629 22.6267 1.93629 22.9647C1.93692 23.1734 1.97635 23.38 2.05233 23.5725C2.12831 23.765 2.23933 23.9396 2.37904 24.0864C2.51874 24.2332 2.68438 24.3493 2.86643 24.4279C3.04847 24.5066 3.24335 24.5462 3.43988 24.5447C5.43828 24.5447 7.43669 24.5447 9.4351 24.5447H14.5584C14.8651 24.5501 15.1654 24.4519 15.416 24.2642C15.6194 24.1179 15.785 23.9199 15.8978 23.6882C16.0106 23.4565 16.0671 23.1985 16.062 22.9377C16.062 22.6098 16.062 22.2803 16.062 21.9525H16.1543H17.3015H17.992C17.992 22.1215 17.992 22.304 17.992 22.4814V24.6883C17.992 24.7373 17.992 24.7863 17.992 24.8353L17.9681 25.0043C17.9223 25.3484 17.8037 25.6771 17.6213 25.9656C17.4389 26.2542 17.1974 26.4952 16.9148 26.6705C16.6203 26.8615 16.288 26.9772 15.9442 27.0084C15.9156 27.0084 15.8886 27.0084 15.8599 27.0084H2.0604C2.03972 27.0084 2.02063 27.0084 1.99994 26.9983C1.47945 26.9439 0.993837 26.6957 0.628996 26.2977C0.264154 25.8998 0.0435841 25.3776 0.00630114 24.8235Z" fill="#E7D5C6"/>
<path d="M17.9967 21.9508H17.3078C17.3078 21.9238 17.3078 21.8967 17.3078 21.868C17.3078 18.8083 17.3078 15.7469 17.3078 12.6838C17.3072 12.3925 17.2923 12.1015 17.2632 11.8119C17.2288 11.4256 17.1671 11.0426 17.0786 10.6662C16.919 9.98628 16.6745 9.33216 16.3515 8.72119C16.0587 8.16139 15.7035 7.64111 15.2934 7.17161C14.8423 6.65247 14.3294 6.19802 13.7676 5.81975C13.3786 5.55966 12.9679 5.33794 12.5409 5.15734C12.0709 4.95704 11.5824 4.80978 11.0834 4.71799C10.873 4.67609 10.6605 4.64675 10.447 4.63012C10.2071 4.60253 9.96589 4.59012 9.72462 4.59295H8.57903C8.24809 4.59295 7.92033 4.59295 7.59097 4.62336C6.17545 4.75052 4.82331 5.30325 3.6928 6.21687C3.25044 6.57411 2.84556 6.98089 2.48516 7.43016C2.02541 7.9999 1.644 8.63597 1.35231 9.31938C0.917308 10.3266 0.692597 11.4219 0.693592 12.53C0.693592 15.6326 0.693592 18.7351 0.693592 21.8376C0.693592 21.8765 0.693592 21.9153 0.693592 21.9542H-0.000120683C-0.000120683 21.8815 -0.000120683 21.8106 -0.000120683 21.7379C-0.000120683 18.3447 -0.000120683 14.951 -0.000120683 11.5567C-0.00939795 9.77165 0.504393 8.02773 1.47004 6.56666C1.48436 6.54469 1.49709 6.52103 1.50982 6.49737C1.52121 6.48697 1.53185 6.47567 1.54165 6.46357C1.78105 6.10371 2.04708 5.76467 2.33719 5.44968C2.53608 5.23169 2.75406 5.03398 2.97363 4.83627C3.20284 4.63117 3.44353 4.441 3.69439 4.2668C3.94513 4.0921 4.20488 3.93245 4.47243 3.78859C4.51539 3.76493 4.57427 3.75479 4.58859 3.69058C4.60927 3.74465 4.63632 3.70072 4.65541 3.69058C4.95432 3.53921 5.26202 3.40826 5.57665 3.29854C5.95365 3.16852 6.33851 3.06576 6.7286 2.99099L6.79701 2.97409H6.85907C7.13785 2.92567 7.41878 2.89239 7.70076 2.87439C7.88373 2.86087 8.06512 2.87439 8.2465 2.8558H9.74212C10.0047 2.8558 10.2672 2.86764 10.5281 2.89129C10.7509 2.91157 10.9704 2.94875 11.1932 2.97579C11.4462 3.03493 11.7008 3.08562 11.9506 3.15828C12.2968 3.25289 12.6361 3.37432 12.9657 3.5216C13.1105 3.5875 13.2521 3.65678 13.3953 3.72438C13.4095 3.73929 13.4249 3.75286 13.4414 3.76493C13.5639 3.83083 13.6896 3.88828 13.8074 3.96264C14.1248 4.15792 14.4318 4.37173 14.727 4.60309C15.0106 4.83245 15.2805 5.08019 15.5353 5.34491C15.8447 5.6619 16.1264 6.00804 16.377 6.37908C16.404 6.41964 16.4215 6.48555 16.4852 6.49231C16.5164 6.57234 16.5588 6.64696 16.6109 6.71367C16.9031 7.17327 17.1519 7.66229 17.3539 8.17367C17.3984 8.28858 17.4414 8.4035 17.4828 8.5201C17.8329 9.53163 18.0065 10.6024 17.9951 11.6801C17.9951 15.08 17.9951 18.4799 17.9951 21.8798C17.9983 21.8951 17.9967 21.9221 17.9967 21.9508Z" fill="#A0D1CA"/>
<path d="M16.49 6.48038C16.4263 6.48038 16.4088 6.40772 16.3818 6.36717C16.1312 5.99612 15.8495 5.64997 15.5401 5.33299C15.2853 5.06826 15.0154 4.82052 14.7318 4.59116C14.4366 4.35981 14.1296 4.14599 13.8122 3.95071C13.6944 3.87636 13.5687 3.81891 13.4462 3.75301C13.4298 3.74093 13.4143 3.72737 13.4001 3.71245C13.4001 3.67866 13.4001 3.64654 13.4001 3.61275V1.55117C13.3902 1.21129 13.4905 0.878103 13.6843 0.607401C13.8781 0.336699 14.1535 0.144901 14.4645 0.0641184C14.8098 -0.0269486 15.1717 -0.0187809 15.5131 0.0877784C15.7981 0.183224 16.0469 0.373265 16.2227 0.629978C16.3986 0.886692 16.4922 1.19654 16.49 1.51399C16.49 3.1565 16.49 4.79732 16.49 6.43983C16.4907 6.45334 16.4907 6.46688 16.49 6.48038Z" fill="#71ACAB"/>
<path d="M4.59356 3.68212C4.57924 3.74633 4.52037 3.75646 4.47741 3.78012C4.20987 3.92398 3.95011 4.08364 3.69937 4.25835C3.44851 4.43254 3.20781 4.62271 2.9786 4.82781C2.75903 5.02552 2.54105 5.22323 2.34216 5.44122C2.05205 5.75621 1.78603 6.09525 1.54662 6.45512C1.53682 6.46721 1.52619 6.47851 1.5148 6.48891C1.5148 6.45174 1.5148 6.41625 1.5148 6.38076V1.54449C1.50465 1.19024 1.61478 0.843918 1.82509 0.568746C2.0354 0.293574 2.33187 0.107901 2.66038 0.0456165C3.03608 -0.0467519 3.42977 -0.00884725 3.7837 0.153768C4.02857 0.268046 4.23654 0.456032 4.38188 0.694493C4.52723 0.932953 4.60359 1.21143 4.60151 1.49549C4.61424 2.18832 4.60151 2.87945 4.60151 3.57228C4.60151 3.57228 4.60151 3.58918 4.60151 3.59763C4.59636 3.6033 4.59348 3.61087 4.59348 3.61875C4.59348 3.62663 4.59636 3.6342 4.60151 3.63987L4.59356 3.68212Z" fill="#71ACAB"/>
<path d="M11.1981 2.96395C10.9753 2.93691 10.7558 2.89973 10.533 2.87945C10.2721 2.8558 10.0095 2.85072 9.747 2.84396C9.76084 2.72174 9.74398 2.59781 9.69816 2.48474C9.65233 2.37167 9.57916 2.27348 9.48606 2.20014C9.35521 2.10041 9.20004 2.04289 9.03917 2.0345C8.8783 2.02611 8.71857 2.0672 8.57914 2.15283C8.46752 2.22171 8.37714 2.32352 8.31896 2.44591C8.26077 2.5683 8.23729 2.70599 8.25137 2.84227C8.06999 2.8541 7.88861 2.84228 7.70563 2.86087C7.42366 2.87887 7.14273 2.91214 6.86395 2.96056H6.80189C6.77721 2.62406 6.82061 2.28585 6.92918 1.96864C7.08884 1.55515 7.36722 1.20568 7.72472 0.969956C8.12998 0.69347 8.60748 0.560908 9.08829 0.591427C9.44275 0.610194 9.78961 0.707469 10.1066 0.877008C10.5224 1.09426 10.8539 1.45882 11.0437 1.90781C11.1411 2.12586 11.1952 2.36282 11.2028 2.60401C11.1997 2.72737 11.1981 2.84566 11.1981 2.96395Z" fill="#E7D5C6"/>
<path d="M0.0062852 24.8235C0.0457212 25.3758 0.267241 25.8956 0.631883 26.2915C0.996526 26.6874 1.48094 26.9341 1.99993 26.9882C2.02061 26.9882 2.0397 26.9882 2.06039 26.9983C1.74504 27.0095 1.43172 26.9407 1.14642 26.7976C0.86113 26.6545 0.612095 26.4412 0.419974 26.1754C0.195119 25.8733 0.0545537 25.5103 0.0142484 25.1277C0.00405594 25.0267 0.00138808 24.925 0.0062852 24.8235Z" fill="#A0D1CA"/>
<path d="M15.9458 26.9949C16.2896 26.9636 16.6219 26.8479 16.9164 26.657C17.1989 26.4816 17.4405 26.2407 17.6229 25.9521C17.8053 25.6636 17.9238 25.3349 17.9697 24.9908L17.9935 24.8218C18.0001 25.1092 17.9516 25.3951 17.851 25.662C17.7504 25.9289 17.5997 26.1713 17.4083 26.3745C17.2168 26.5777 16.9884 26.7375 16.737 26.8442C16.4856 26.9508 16.2164 27.0021 15.9458 26.9949Z" fill="#A0D1CA"/>
<path d="M4.59348 3.63989C4.58833 3.63422 4.58545 3.62664 4.58545 3.61876C4.58545 3.61088 4.58833 3.60331 4.59348 3.59764V3.63989Z" fill="#A0D1CA"/>
<path d="M0.696781 21.9508C0.696781 21.9119 0.696781 21.8731 0.696781 21.8342C0.696781 18.7317 0.696781 15.6292 0.696781 12.5267C0.695785 11.4185 0.920496 10.3232 1.35549 9.31599C1.64604 8.62971 2.02693 7.99077 2.48676 7.41832C2.84715 6.96905 3.25203 6.56228 3.69439 6.20503C4.82489 5.29141 6.17703 4.73868 7.59256 4.61153C7.92191 4.58111 8.24968 4.5828 8.58063 4.58111H9.72622C9.96748 4.57828 10.2087 4.59069 10.4486 4.61828C10.451 4.6402 10.4606 4.66053 10.4756 4.67574C10.755 4.95408 11.0062 5.26274 11.225 5.59669C11.3316 5.76567 11.435 5.92114 11.5273 6.09182C11.6565 6.32992 11.7724 6.57594 11.8742 6.82858C11.9542 7.01846 12.0238 7.21312 12.0826 7.41157C12.124 7.57041 12.1638 7.73263 12.2051 7.89147C12.2306 7.99286 12.2417 8.09594 12.2656 8.19564C12.2847 8.26266 12.2996 8.33097 12.3101 8.40011C12.3101 8.48798 12.3101 8.56909 12.3245 8.66372C12.3372 8.80567 12.3674 8.94592 12.3674 9.08787V16.5079H3.59574C3.49391 16.5079 3.39368 16.5079 3.29185 16.518C2.91965 16.5552 2.57405 16.739 2.32314 17.0334C2.07223 17.3277 1.9342 17.7111 1.93624 18.1081C1.93624 19.3417 1.93624 20.5759 1.93624 21.8105C1.93624 21.8545 1.93624 21.8984 1.93624 21.9424H0.793835L0.696781 21.9508ZM9.00704 9.82463H6.76201C6.68764 9.82277 6.6137 9.83699 6.54466 9.86641C6.47562 9.89584 6.41292 9.93986 6.3604 9.99581C6.30787 10.0518 6.26659 10.1185 6.23908 10.1919C6.21157 10.2653 6.19839 10.3439 6.20036 10.4228C6.20036 11.1235 6.20036 11.8248 6.20036 12.5267C6.19955 12.5959 6.21088 12.6646 6.23377 12.7294C6.27275 12.8475 6.34628 12.9493 6.44361 13.0198C6.54095 13.0904 6.65699 13.126 6.77475 13.1215H11.2425C11.3188 13.1246 11.3949 13.1109 11.4659 13.0812C11.5369 13.0515 11.6014 13.0065 11.6552 12.949C11.709 12.8915 11.7511 12.8228 11.7786 12.7472C11.8062 12.6716 11.8187 12.5908 11.8153 12.5098C11.8153 11.8254 11.8074 11.141 11.8153 10.4566C11.8177 10.3728 11.804 10.2893 11.775 10.2113C11.746 10.1333 11.7023 10.0623 11.6466 10.0029C11.5909 9.9434 11.5243 9.89662 11.451 9.86539C11.3777 9.83416 11.2992 9.81914 11.2203 9.82125C10.4788 9.8297 9.74372 9.82125 9.00704 9.82125V9.82463Z" fill="#E7D5C6"/>
<path d="M1.93313 21.9508C1.93313 21.9069 1.93313 21.8629 1.93313 21.819C1.93313 20.5798 1.93313 19.3457 1.93313 18.1166C1.93109 17.7196 2.06912 17.3361 2.32003 17.0418C2.57095 16.7475 2.91654 16.5636 3.28873 16.5265C3.39056 16.5163 3.4908 16.5163 3.59263 16.5163H12.3643C12.6825 16.5163 13.0135 16.5163 13.3381 16.5163C13.7899 16.5163 14.2418 16.4977 14.6921 16.5282C15.0274 16.551 15.3443 16.6995 15.5863 16.9472C15.7389 17.0944 15.8604 17.2742 15.9427 17.4749C16.0249 17.6757 16.0662 17.8926 16.0636 18.1115C16.0636 19.3536 16.0636 20.5939 16.0636 21.8291C16.0636 21.868 16.0636 21.9069 16.0636 21.9457C16.0636 22.2736 16.0636 22.6031 16.0636 22.9309C16.0687 23.1917 16.0122 23.4497 15.8994 23.6814C15.7866 23.9131 15.621 24.1111 15.4176 24.2574C15.167 24.4451 14.8667 24.5434 14.56 24.5379H9.4367C7.43829 24.5379 5.43989 24.5379 3.44148 24.5379C3.24495 24.5395 3.05008 24.4998 2.86803 24.4212C2.68598 24.3425 2.52035 24.2265 2.38064 24.0797C2.24094 23.9329 2.12991 23.7582 2.05394 23.5657C1.97796 23.3732 1.93852 23.1667 1.9379 22.9579C1.93312 22.6267 1.93472 22.2888 1.93313 21.9508ZM8.99915 18.7503H14.3993C14.4459 18.7545 14.4927 18.7545 14.5393 18.7503C14.6571 18.713 14.7586 18.6327 14.8259 18.5235C14.8932 18.4144 14.922 18.2834 14.9071 18.1539C14.8923 18.0244 14.8347 17.9046 14.7447 17.8158C14.6547 17.727 14.5379 17.675 14.4152 17.6688H3.5799C3.51464 17.6666 3.44966 17.6787 3.38897 17.7043C3.27481 17.7582 3.18274 17.8539 3.12957 17.974C3.0764 18.0941 3.06569 18.2305 3.09939 18.3582C3.11933 18.4756 3.17873 18.5812 3.26654 18.6555C3.35435 18.7298 3.46457 18.7677 3.57672 18.7621L8.99915 18.7503Z" fill="#71ACAB"/>
<path d="M16.0669 21.9508C16.0669 21.9119 16.0669 21.8731 16.0669 21.8342C16.0669 20.5939 16.0669 19.3536 16.0669 18.1166C16.0694 17.8977 16.0282 17.6807 15.9459 17.48C15.8637 17.2793 15.7422 17.0994 15.5895 16.9523C15.3476 16.7046 15.0307 16.5561 14.6954 16.5332C14.2451 16.5028 13.7932 16.5332 13.3413 16.5214C13.0231 16.5214 12.6922 16.5214 12.3676 16.5214V9.09463C12.3676 8.95269 12.3374 8.81243 12.3246 8.67048C12.3167 8.58261 12.3246 8.5015 12.3103 8.40687C12.2998 8.33774 12.2849 8.26943 12.2658 8.20241C12.2419 8.10271 12.2308 7.99963 12.2053 7.89824C12.1639 7.7394 12.1242 7.57717 12.0828 7.41833C12.024 7.21988 11.9544 7.02522 11.8744 6.83534C11.7725 6.5827 11.6567 6.33668 11.5275 6.09858C11.4352 5.92959 11.3318 5.76061 11.2252 5.60346C11.0064 5.26951 10.7552 4.96084 10.4758 4.6825C10.4607 4.66729 10.4512 4.64696 10.4487 4.62505C10.6623 4.64168 10.8747 4.67102 11.0852 4.71292C11.5841 4.80471 12.0726 4.95198 12.5426 5.15228C12.9697 5.33287 13.3803 5.5546 13.7693 5.81469C14.3311 6.19295 14.8441 6.6474 15.2952 7.16655C15.7052 7.63604 16.0605 8.15632 16.3533 8.71611C16.6763 9.32708 16.9208 9.98122 17.0804 10.6611C17.1686 11.0392 17.2298 11.4239 17.2634 11.8119C17.2914 12.1021 17.3052 12.3937 17.3047 12.6855C17.3047 15.7475 17.3047 18.8089 17.3047 21.8697C17.3047 21.8984 17.3047 21.9255 17.3047 21.9525H16.156L16.0669 21.9508Z" fill="#E7D5C6"/>
<path d="M8.25129 2.84227C8.23721 2.70599 8.26069 2.5683 8.31887 2.44591C8.37706 2.32352 8.46744 2.22171 8.57906 2.15283C8.71849 2.0672 8.87822 2.02611 9.03909 2.0345C9.19996 2.0429 9.35513 2.10041 9.48598 2.20014C9.57908 2.27348 9.65225 2.37167 9.69807 2.48474C9.7439 2.59782 9.76076 2.72174 9.74692 2.84397L8.25129 2.84227Z" fill="#FEFEFE"/>
<path d="M9.0071 9.82125C9.74377 9.82125 10.4789 9.82125 11.2139 9.82125C11.2929 9.81915 11.3714 9.83417 11.4447 9.8654C11.518 9.89663 11.5846 9.94341 11.6403 10.0029C11.696 10.0624 11.7397 10.1333 11.7687 10.2113C11.7977 10.2893 11.8114 10.3728 11.809 10.4566C11.7979 11.1326 11.809 11.8254 11.809 12.5098C11.8124 12.5908 11.7999 12.6716 11.7723 12.7472C11.7448 12.8228 11.7027 12.8915 11.6489 12.949C11.5951 13.0065 11.5306 13.0515 11.4596 13.0812C11.3886 13.1109 11.3125 13.1246 11.2362 13.1215H6.76207C6.64431 13.126 6.52828 13.0904 6.43095 13.0199C6.33361 12.9493 6.26007 12.8475 6.2211 12.7294C6.19821 12.6646 6.18688 12.5959 6.18769 12.5267C6.18769 11.8248 6.18769 11.1236 6.18769 10.4228C6.18573 10.3439 6.1989 10.2653 6.22641 10.1919C6.25392 10.1185 6.29519 10.0518 6.34772 9.99582C6.40025 9.93987 6.46294 9.89585 6.53198 9.86642C6.60102 9.83699 6.67497 9.82278 6.74934 9.82464H9.00233L9.0071 9.82125Z" fill="#FEFEFE"/>
<path d="M8.99912 18.752H3.57987C3.46773 18.7576 3.3575 18.7197 3.26969 18.6454C3.18189 18.5711 3.12248 18.4654 3.10254 18.3481C3.06884 18.2203 3.07955 18.084 3.13272 17.9639C3.18589 17.8438 3.27797 17.7481 3.39212 17.6941C3.45281 17.6686 3.5178 17.6565 3.58306 17.6586H14.4136C14.5363 17.6648 14.653 17.7169 14.7431 17.8057C14.8331 17.8945 14.8906 18.0142 14.9055 18.1438C14.9204 18.2733 14.8916 18.4042 14.8243 18.5134C14.7569 18.6225 14.6554 18.7029 14.5377 18.7401C14.4911 18.7443 14.4443 18.7443 14.3977 18.7401H8.99912V18.752Z" fill="#FEFEFE"/>
</g>
<defs>
<clipPath id="clip0_166_321">
<rect width="18" height="27" fill="white"/>
</clipPath>
</defs>
</svg>
