<svg width="25" height="23" viewBox="0 0 25 23" fill="none" xmlns="http://www.w3.org/2000/svg">
<g clip-path="url(#clip0_306_2)">
<path d="M2.8346 5.87068C2.77853 5.87951 2.76384 5.9144 2.75747 5.96141C2.64893 6.0381 2.56253 6.13989 2.506 6.25758C2.44948 6.37527 2.4246 6.50516 2.43371 6.63551C2.40408 7.67243 2.51515 8.71109 2.76414 9.72537C2.9122 10.2226 2.99049 10.7354 2.9969 11.2501C2.92972 11.2793 2.87196 11.3249 2.82932 11.3825C2.78667 11.4401 2.76063 11.5077 2.75375 11.5785C2.71169 12.0587 2.8381 12.5415 3.11289 12.9504C3.12871 12.9712 3.14967 12.988 3.17382 12.9992C3.19797 13.0103 3.2245 13.0155 3.25106 13.0143C3.31014 13.6546 3.3115 14.2976 3.25501 14.9361C3.10128 15.8208 3.08712 16.7251 3.21303 17.6187C3.34353 18.3996 3.65097 18.7724 4.35076 18.914C5.04276 19.1059 5.76352 19.1733 6.47641 19.1131L6.59614 19.1108C6.95521 19.1214 7.32621 19.0758 7.6923 19.0533C8.07042 19.008 8.45212 18.9908 8.83407 19.002C9.09686 19.12 9.38275 19.1807 9.67081 19.1797C10.2011 19.2431 10.7369 19.1722 11.2247 18.974C11.3976 19.0107 11.581 18.9978 11.7477 19.0298C12.3633 19.1676 12.9909 19.2453 13.6207 19.2615C13.9528 19.2629 14.3005 19.3437 14.607 19.1254C14.9921 19.0137 15.0865 18.671 15.203 18.3605C15.4423 17.6565 15.5741 16.9211 15.5943 16.1771C15.6647 15.5675 15.6744 14.9518 15.6233 14.3383C15.6001 13.9879 15.577 13.6374 15.5573 13.2877C15.6161 13.2748 15.6697 13.2461 15.7117 13.2048C15.7537 13.1636 15.7824 13.1116 15.7946 13.0548C15.8587 12.821 15.9091 12.5837 15.9455 12.344C15.9775 12.0571 16.04 11.7456 15.6537 11.5911L15.6853 11.4423C15.6957 11.4395 15.7051 11.434 15.7125 11.4265C15.7198 11.4189 15.7248 11.4095 15.727 11.3993C15.7291 11.3891 15.7284 11.3785 15.7247 11.3686C15.7211 11.3587 15.7147 11.3499 15.7063 11.3431C15.7624 10.892 15.8184 10.441 15.8765 9.99722C15.9794 9.15529 16.0925 8.31556 16.1823 7.4674C16.2216 7.31138 16.2216 7.14793 16.1821 6.99056C16.1427 6.83319 16.0649 6.68641 15.9553 6.56236C15.9055 6.47375 15.8262 6.40335 15.7304 6.36258C15.4442 6.26197 15.144 6.20525 14.841 6.19452C14.6925 6.12843 14.7627 6.01895 14.7885 5.93116C14.8178 5.82945 14.8252 5.72274 14.8103 5.61745C14.7954 5.51216 14.7585 5.41046 14.7019 5.31849C14.5972 5.13115 14.4676 4.95729 14.3166 4.80136C14.0013 4.49949 13.6193 4.27329 13.3047 3.98537C12.7913 3.56575 12.183 3.26838 11.5305 3.1181C10.8683 2.89987 10.1726 2.79783 9.47709 2.81692C8.71949 2.82261 7.96807 2.92692 7.24336 3.12701C6.90177 3.27336 6.57222 3.44358 6.25726 3.63632C5.82806 3.8287 5.41723 4.05586 5.02915 4.31537C4.5771 4.62364 4.14156 4.95615 4.28354 5.59783C4.06493 5.58943 3.84501 5.57038 3.62704 5.57593C3.38042 5.55447 3.13665 5.62681 2.94836 5.77736L2.8346 5.87068Z" fill="#FEFEFE"/>
<path d="M15.635 11.594C16.0227 11.742 15.9602 12.0535 15.9268 12.347C15.8904 12.5867 15.84 12.824 15.7759 13.0578C15.7637 13.1145 15.7349 13.1665 15.6929 13.2078C15.6509 13.249 15.5974 13.2777 15.5386 13.2907C15.2937 13.2698 15.046 13.2621 14.8053 13.2214C13.6767 13.0405 12.5428 12.9519 11.407 12.8731C11.279 12.8632 11.2195 12.8886 11.1755 13.0105C11.0095 13.4694 10.8371 13.9234 10.6573 14.3793C10.4818 14.7045 10.4228 15.0778 10.4894 15.4423C10.6351 15.9812 10.7283 16.5296 10.865 17.0769C10.9158 17.6543 11.0775 18.2207 11.1013 18.8062C11.1002 18.8441 11.1131 18.8813 11.1379 18.9113C11.1626 18.9412 11.1976 18.9619 11.2364 18.9696C10.7504 19.1763 10.214 19.2554 9.68106 19.1991C9.393 19.2002 9.10711 19.1395 8.84432 19.0215C8.71478 18.4867 8.6173 17.9457 8.55236 17.4013C8.44559 15.8619 7.98026 14.3949 7.58757 12.9088C7.56227 12.8067 7.52165 12.7255 7.38861 12.7905L7.13623 12.7369L6.79577 12.7579C5.84982 12.7615 4.9058 12.816 3.96814 12.9212C3.74098 12.9827 3.50477 13.0106 3.26763 13.004C3.24107 13.0052 3.21454 13 3.19039 12.9889C3.16624 12.9777 3.14528 12.9609 3.12946 12.9401C2.85466 12.5312 2.72826 12.0484 2.77032 11.5682C2.7772 11.4974 2.80324 11.4298 2.84589 11.3722C2.88853 11.3146 2.94629 11.269 3.01347 11.2398C3.14544 11.2989 3.26611 11.2071 3.38096 11.2107C4.51601 11.1062 5.64214 10.9755 6.78114 10.9375C6.94444 10.9341 6.97988 10.8864 6.92709 10.7266C6.61491 9.86666 6.21772 9.03605 5.741 8.24632C5.28707 7.33801 4.73268 6.47749 4.24688 5.58315C4.10489 4.94147 4.54035 4.60894 4.9924 4.30067C5.38048 4.04116 5.79131 3.814 6.22051 3.62162C6.53547 3.42888 6.86511 3.25867 7.20669 3.11233C7.93141 2.91224 8.68283 2.80792 9.44043 2.80224C10.136 2.78315 10.8316 2.88517 11.4938 3.1034C12.1462 3.25368 12.7546 3.55106 13.268 3.97068C13.5689 4.25567 13.9646 4.4848 14.2799 4.78668C14.431 4.94261 14.5604 5.11645 14.6651 5.30379C14.7218 5.39576 14.7587 5.49745 14.7736 5.60275C14.7885 5.70804 14.7811 5.81477 14.7519 5.91647C14.7329 6.00574 14.6557 6.11373 14.8043 6.17982C14.7553 6.18948 14.7096 6.21036 14.6711 6.24066C14.6326 6.27096 14.6024 6.30981 14.583 6.35397C14.4607 6.59464 14.3254 6.82884 14.1776 7.05564C13.8037 7.54998 13.4965 8.0883 13.2629 8.65809C13.1433 8.78505 13.0709 8.94681 13.0567 9.11875C12.9732 9.21605 12.9101 9.32816 12.871 9.44901C12.7627 9.58759 12.6786 9.74239 12.6219 9.90748C12.5019 10.1077 12.3984 10.3167 12.3121 10.5327C12.2086 10.6558 12.1276 10.7951 12.0728 10.9449C11.9934 11.1146 12.0167 11.2094 12.2403 11.1774C12.4639 11.1454 12.4306 11.166 12.6073 11.3382C12.617 11.3455 12.6282 11.3506 12.6402 11.3531C12.6521 11.3556 12.6645 11.3556 12.6764 11.3529C12.7643 11.3301 12.8729 11.3462 12.9202 11.2423C13.0746 11.2758 13.2329 11.2873 13.39 11.2763L13.5524 11.3108C14.2509 11.368 14.9462 11.4625 15.635 11.594ZM12.8353 4.52836C12.8984 4.23081 12.8088 4.12542 12.453 3.9635C11.7429 3.63509 10.977 3.43732 10.1956 3.38062C9.15788 3.27597 8.11289 3.38641 7.13153 3.70446C6.57186 3.90696 6.40566 4.19645 6.68431 4.72204C7.12186 5.55431 7.56211 6.3906 7.98302 7.23316C8.47762 8.12647 8.91955 9.04506 9.30669 9.98452C9.40963 10.2655 9.49735 10.5502 9.58506 10.8348C9.59738 10.8789 9.60551 10.9428 9.67471 10.9402C9.74391 10.9376 9.73571 10.891 9.74829 10.8487C9.87941 10.5034 10.0175 10.1596 10.1424 9.80953C10.3483 9.23132 10.5306 8.64466 10.7903 8.0848C11.254 7.15512 11.7792 6.25572 12.3628 5.39202C12.5492 5.11991 12.7074 4.83068 12.8353 4.52836Z" fill="#A0D1CA"/>
<path d="M7.1244 12.7413L7.37678 12.7949C7.22362 13.1079 6.83893 13.0988 6.61262 13.3479C6.72325 13.3714 6.81884 13.3468 6.89956 13.4261C7.1434 13.6639 7.34274 13.9401 7.48864 14.2422C7.76435 14.7577 7.93624 15.3171 7.99505 15.8906C8.00079 16.0508 8.1617 16.1609 8.11418 16.3167C8.08209 16.482 8.09684 16.6533 8.15694 16.8129C8.25613 17.145 8.30497 17.4882 8.30195 17.8318C8.26645 18.0058 8.27401 18.1861 8.32393 18.3582C8.3583 18.4346 8.29838 18.5636 8.427 18.5874C8.55563 18.6113 8.54218 18.4702 8.61369 18.3886C8.6253 18.4629 8.64361 18.5361 8.6684 18.6076C8.76188 18.814 8.70283 18.9051 8.4599 18.9261C8.09085 18.9332 7.72295 18.9612 7.35813 19.01C7.1158 19.0623 6.85036 18.9852 6.62852 19.1281L6.50878 19.1303C6.47107 19.0946 6.42476 19.0683 6.37415 19.0539C6.32355 19.0396 6.27024 19.0376 6.21908 19.0481L5.64621 19.0578C5.22706 19.0253 4.81124 18.9555 4.40414 18.8494C4.26444 18.8543 4.12624 18.8137 4.01194 18.7343C3.89765 18.6548 3.81395 18.5411 3.77443 18.4116C3.648 17.8387 3.60085 17.2536 3.63431 16.6716C3.6275 16.1761 3.70237 15.6876 3.74537 15.1957C3.71804 14.8012 3.74131 14.4058 3.81464 14.0184C3.86604 13.8051 3.97796 13.6105 4.13822 13.4561C4.29848 13.3018 4.50087 13.1937 4.72298 13.1437C4.91755 13.0952 5.10062 13.1686 5.29104 13.1226C5.66312 13.0824 6.03975 13.0858 6.41263 13.1327C6.55526 13.1235 6.69335 13.0836 6.81657 13.0158C6.9398 12.9481 7.04499 12.8543 7.1244 12.7413Z" fill="#71ACAB"/>
<path d="M11.2248 18.974C11.186 18.9663 11.151 18.9456 11.1263 18.9157C11.1015 18.8857 11.0885 18.8484 11.0897 18.8106C11.0658 18.2251 10.9043 17.6587 10.8541 17.0779C10.9116 17.0625 10.9815 17.0393 10.9844 16.9743C11.0375 16.6011 11.056 16.2235 11.0397 15.8459C11.025 15.3425 11.1625 14.8485 11.4356 14.4235C11.6849 14.035 12.0574 13.7343 12.4997 13.5646C12.8611 13.3688 13.2899 13.3159 13.6966 13.4171C14.1033 13.5182 14.4564 13.7655 14.6823 14.1074C14.7801 14.2594 14.8481 14.4501 15.0374 14.5283C15.0149 14.6341 14.9407 14.7116 14.9438 14.8332C14.9654 15.4804 14.7877 16.113 14.7844 16.7583C14.76 17.1082 14.7127 17.4559 14.6429 17.7994C14.6069 18.2412 14.5947 18.6849 14.6064 19.1287C14.3027 19.3337 13.9549 19.253 13.62 19.2648C12.9903 19.2486 12.3627 19.1709 11.747 19.033C11.5804 18.9838 11.404 18.9809 11.2248 18.974Z" fill="#71ACAB"/>
<path d="M4.24908 5.59045C4.73488 6.48478 5.28927 7.34531 5.7432 8.25361C5.45156 8.36791 5.53124 8.55412 5.61014 8.77817C5.80382 9.16695 5.87289 9.60036 5.80845 10.0226C5.72205 10.2503 5.55929 10.4429 5.34536 10.5706C5.13143 10.6982 4.87823 10.7537 4.62519 10.7285C4.21896 10.6841 3.82203 10.5753 3.45062 10.4066C3.44189 10.0903 3.45464 9.77515 3.42651 9.46513C3.41907 9.28395 3.36338 9.10678 3.26477 8.95054C3.2055 8.87231 3.06919 9.08869 2.92539 9.05125C2.94995 8.93554 3.0642 8.90796 3.14879 8.84991C3.1876 8.83279 3.21882 8.80323 3.23721 8.76622C3.2556 8.72922 3.26008 8.68704 3.24978 8.64677C3.14811 8.17258 2.99724 7.70867 2.86926 7.23926C2.72316 6.82543 2.69227 6.38397 2.7797 5.95915C2.83232 5.94959 2.84762 5.91138 2.85675 5.8684C2.90936 5.85884 2.922 5.81661 2.93458 5.77436C3.12287 5.62382 3.36664 5.55147 3.61326 5.57294C3.81049 5.56298 4.04084 5.58424 4.24908 5.59045Z" fill="#71ACAB"/>
<path d="M13.265 8.6654C13.4985 8.0956 13.8058 7.55729 14.1796 7.06295C14.3274 6.83615 14.4627 6.60194 14.5851 6.36128C14.6044 6.31712 14.6347 6.27827 14.6732 6.24797C14.7117 6.21766 14.7573 6.19679 14.8063 6.18713C15.1093 6.19785 15.4094 6.25458 15.6956 6.35519C15.7915 6.39596 15.8707 6.46635 15.9206 6.55497C15.8262 6.88044 15.6744 7.22135 15.5689 7.56519C15.4262 8.08382 15.3145 8.61032 15.2341 9.14217C15.1355 9.7086 15.0673 10.2849 14.9577 10.8525C14.9366 10.9162 14.9005 10.9742 14.8521 11.022C14.8038 11.0698 14.7445 11.1061 14.6787 11.1282C14.613 11.1502 14.5426 11.1575 14.4729 11.1493C14.4033 11.1411 14.3362 11.1178 14.2769 11.0811C14.165 11.0124 14.056 10.8787 13.9034 11.0018C13.7734 11.0827 13.6607 11.1865 13.5711 11.3079L13.4086 11.2734C13.4584 11.0859 13.5508 10.9121 13.6793 10.7642C13.8839 10.4777 13.9686 10.1264 13.9168 9.7787C13.865 9.43104 13.6805 9.11204 13.3992 8.88393C13.3295 8.82798 13.2819 8.75063 13.265 8.6654Z" fill="#71ACAB"/>
<path d="M15.0381 14.525C14.8509 14.4368 14.783 14.2462 14.6831 14.1041C14.4572 13.7622 14.104 13.5149 13.6973 13.4138C13.2906 13.3126 12.8618 13.3655 12.5004 13.5613C12.0581 13.731 11.6857 14.0317 11.4363 14.4202C11.1677 14.8408 11.0315 15.3287 11.0439 15.8261C11.0602 16.2036 11.0417 16.5813 10.9887 16.9545C10.9753 17.0173 10.9158 17.0427 10.8583 17.0581C10.7389 16.5145 10.6436 15.976 10.482 15.4269C10.4154 15.0624 10.4743 14.6891 10.6498 14.3638C10.8297 13.908 11.002 13.4539 11.1681 12.9951C11.1947 12.8695 11.2715 12.8478 11.3995 12.8577C12.5354 12.9364 13.6692 13.0251 14.7979 13.206C15.0364 13.2566 15.2862 13.2544 15.5311 13.2752C15.5508 13.6249 15.574 13.9754 15.5972 14.3258C15.4041 14.3332 15.2657 14.5595 15.0381 14.525Z" fill="#71ACAB"/>
<path d="M7.12444 12.7413C7.04418 12.8548 6.93781 12.9489 6.81332 13.0164C6.68883 13.0839 6.54946 13.1232 6.40576 13.1312C6.03288 13.0843 5.65632 13.081 5.28425 13.1211C5.09383 13.1671 4.92796 13.0973 4.7161 13.1422C4.49399 13.1922 4.29169 13.3003 4.13143 13.4547C3.97117 13.609 3.85916 13.8036 3.80776 14.0169C3.73443 14.4043 3.71117 14.7997 3.73849 15.1942C3.6955 15.6861 3.62071 16.1746 3.62752 16.6702C3.58492 17.2551 3.62382 17.8443 3.74329 18.4223C3.7828 18.5518 3.8665 18.6655 3.98079 18.7449C4.09509 18.8244 4.23329 18.8649 4.37299 18.86L4.35545 18.9426C3.66398 18.7958 3.34822 18.4282 3.21421 17.6638C3.08892 16.7647 3.10544 15.855 3.26316 14.9655C3.31964 14.327 3.31829 13.684 3.2592 13.0436C3.49635 13.0502 3.73256 13.0223 3.95971 12.9609C4.89737 12.8556 5.8414 12.8011 6.78735 12.7976L7.12444 12.7413Z" fill="#71ACAB"/>
<path d="M13.5582 11.3016C13.6478 11.1803 13.7605 11.0765 13.8905 10.9956C14.0424 10.8758 14.1514 11.0095 14.264 11.0748C14.3233 11.1116 14.3904 11.1349 14.46 11.1431C14.5297 11.1512 14.6001 11.144 14.6658 11.1219C14.7315 11.0999 14.7908 11.0635 14.8392 11.0157C14.8876 10.968 14.9237 10.91 14.9448 10.8462C15.0648 10.2809 15.1226 9.70236 15.2212 9.13593C15.3016 8.60408 15.4133 8.07758 15.5559 7.55894C15.6615 7.21511 15.8098 6.89073 15.9077 6.54873C16.0173 6.67278 16.095 6.81955 16.1345 6.97692C16.174 7.1343 16.1741 7.29776 16.1347 7.45378C16.0457 8.29864 15.9324 9.13835 15.8289 9.98359C15.7694 10.4339 15.7134 10.885 15.6588 11.3295L15.6377 11.4287L15.6061 11.5774C14.9286 11.4496 14.2449 11.3575 13.5582 11.3016Z" fill="#71ACAB"/>
<path d="M15.038 14.525C15.2628 14.5727 15.4011 14.3464 15.6129 14.3361C15.664 14.9496 15.6543 15.5653 15.5838 16.1749C15.5637 16.9189 15.432 17.6543 15.1926 18.3584C15.0741 18.6787 14.9969 19.0078 14.5966 19.1232C14.585 18.6794 14.5972 18.2357 14.6332 17.7939C14.703 17.4504 14.7502 17.1028 14.7747 16.7529C14.778 16.1075 14.9557 15.4749 14.9341 14.8277C14.9414 14.7083 15.0329 14.6345 15.038 14.525Z" fill="#71ACAB"/>
<path d="M6.58721 19.1193C6.80905 18.9763 7.07449 19.0534 7.31682 19.0012C7.68164 18.9524 8.04954 18.9244 8.41859 18.9173C8.66152 18.8963 8.72065 18.8052 8.62366 18.6153C8.59888 18.5439 8.58057 18.4706 8.56896 18.3964C8.49745 18.4779 8.50044 18.6168 8.38219 18.5951C8.26393 18.5735 8.31348 18.4423 8.27911 18.3659C8.22919 18.1938 8.22172 18.0135 8.25722 17.8396C8.26023 17.4959 8.21139 17.1527 8.11221 16.8207C8.0521 16.6611 8.03728 16.4897 8.06937 16.3244C8.10305 16.1657 7.95597 16.0585 7.95023 15.8983C7.89638 15.3272 7.73049 14.7691 7.46121 14.2536C7.31531 13.9515 7.11589 13.6753 6.87204 13.4375C6.79132 13.3581 6.69231 13.3993 6.58519 13.3593C6.8115 13.1102 7.19961 13.1028 7.34926 12.8063C7.48231 12.7413 7.52293 12.8224 7.54822 12.9246C7.95474 14.4136 8.40773 15.8711 8.5131 17.4171C8.57803 17.9615 8.67552 18.5025 8.80506 19.0373C8.42311 19.0261 8.04133 19.0432 7.66321 19.0886C7.31726 19.0842 6.94628 19.1299 6.58721 19.1193Z" fill="#71ACAB"/>
<path d="M2.94256 9.05495C3.08777 9.08578 3.22259 8.876 3.28186 8.95423C3.38047 9.11046 3.43616 9.28764 3.4436 9.46882C3.47173 9.77883 3.45906 10.094 3.4678 10.4103C3.3748 10.6698 3.35161 10.9488 3.40033 11.2217C3.27166 11.2151 3.15099 11.307 3.03284 11.2508C3.02643 10.7361 2.94814 10.2233 2.80008 9.72608C2.5511 8.7118 2.44003 7.67314 2.46965 6.63622C2.46055 6.50587 2.48533 6.37597 2.54186 6.25827C2.59839 6.14058 2.68487 6.03881 2.79342 5.96212C2.70598 6.38694 2.73687 6.8284 2.88298 7.24223C3.01095 7.71164 3.16174 8.17553 3.26341 8.64973C3.27371 8.68999 3.26931 8.73219 3.25092 8.7692C3.23254 8.8062 3.20132 8.83576 3.1625 8.85288C3.07791 8.91093 2.97058 8.93997 2.9391 9.05422C2.86995 9.03954 2.8311 9.0693 2.81431 9.13138L2.83928 9.11595C2.86134 9.11851 2.8835 9.11388 2.90223 9.10282C2.92096 9.09176 2.93519 9.0749 2.94256 9.05495Z" fill="#71ACAB"/>
<path d="M4.34857 18.9239L4.36611 18.8413C4.77321 18.9474 5.18903 19.0172 5.60818 19.0497L6.18114 19.04C6.23229 19.0295 6.2856 19.0315 6.33621 19.0459C6.38682 19.0602 6.43305 19.0865 6.47075 19.1222C5.75905 19.1823 5.03951 19.1151 4.34857 18.9239Z" fill="#71ACAB"/>
<path d="M2.83883 5.86805C2.82971 5.91103 2.82123 5.95069 2.7617 5.95878C2.76807 5.91177 2.78276 5.87688 2.83883 5.86805Z" fill="#71ACAB"/>
<path d="M2.91588 5.77736C2.90676 5.82034 2.89767 5.86333 2.83814 5.87142L2.91588 5.77736Z" fill="#71ACAB"/>
<path d="M15.6596 11.4437L15.6807 11.3445C15.689 11.3513 15.6954 11.3601 15.699 11.37C15.7026 11.3799 15.7034 11.3905 15.7012 11.4007C15.699 11.4109 15.694 11.4203 15.6867 11.4279C15.6794 11.4354 15.67 11.4409 15.6596 11.4437Z" fill="#A0D1CA"/>
<path d="M12.8354 4.52835C12.7075 4.83067 12.5493 5.1199 12.3629 5.39201C11.7793 6.25571 11.2541 7.15511 10.7904 8.0848C10.5307 8.64465 10.3484 9.23131 10.1425 9.80952C10.0176 10.1596 9.87951 10.5034 9.7484 10.8487C9.73927 10.8917 9.72878 10.9413 9.67481 10.9402C9.62085 10.9391 9.59748 10.8789 9.58516 10.8348C9.49745 10.5502 9.40974 10.2655 9.30679 9.98451C8.91966 9.04506 8.47772 8.12646 7.98313 7.23315C7.56221 6.39059 7.12196 5.5543 6.68441 4.72203C6.40576 4.19645 6.57196 3.90695 7.13164 3.70445C8.11299 3.3864 9.15799 3.27596 10.1957 3.38061C10.9771 3.43732 11.743 3.63508 12.4531 3.96349C12.8089 4.12541 12.902 4.23154 12.8354 4.52835Z" fill="#71ACAB"/>
<path d="M3.38297 11.218C3.33425 10.9452 3.35744 10.6662 3.45043 10.4066C3.82184 10.5754 4.21877 10.6842 4.625 10.7285C4.87805 10.7537 5.13124 10.6982 5.34517 10.5706C5.5591 10.443 5.72186 10.2504 5.80826 10.0227C5.8727 9.60039 5.80363 9.16697 5.60995 8.7782C5.53035 8.55746 5.45137 8.36794 5.74301 8.25364C6.21973 9.04338 6.61692 9.87398 6.9291 10.7339C6.98189 10.8937 6.94645 10.9415 6.78315 10.9448C5.64415 10.9829 4.51661 11.1201 3.38297 11.218Z" fill="#71ACAB"/>
<path d="M12.9257 11.2331C12.8784 11.337 12.7698 11.3209 12.6819 11.3437C12.6701 11.3464 12.6576 11.3465 12.6457 11.3439C12.6337 11.3414 12.6225 11.3363 12.6128 11.329C12.4361 11.1568 12.4355 11.1428 12.2458 11.1682C12.0561 11.1936 11.9968 11.1154 12.0783 10.9357C12.2559 10.9638 12.4372 10.9407 12.5991 10.8692C12.761 10.7977 12.8961 10.6812 12.9873 10.5344C13.1407 10.1696 13.2179 9.78872 12.8564 9.44938C12.8955 9.32853 12.9586 9.21642 13.0421 9.11913C13.0836 9.12793 13.139 9.13968 13.1666 9.14556C13.3399 9.32109 13.4606 9.53788 13.5159 9.77251C13.5711 10.0071 13.5588 10.2506 13.4802 10.4767C13.3684 10.722 13.185 10.9301 12.9518 11.0762C12.9316 11.1203 12.7648 11.1402 12.9257 11.2331Z" fill="#71ACAB"/>
<path d="M12.9258 11.233C12.7648 11.1401 12.9489 11.1239 12.9552 11.0942C13.1884 10.948 13.3718 10.7399 13.4836 10.4946C13.5623 10.2686 13.5746 10.0251 13.5193 9.79047C13.4641 9.55584 13.3433 9.33905 13.1701 9.16352C13.1466 9.13781 13.0871 9.14589 13.0456 9.13708C13.0597 8.96514 13.1322 8.80338 13.2518 8.67643C13.2666 8.75775 13.3092 8.83247 13.3729 8.88871C13.6542 9.11682 13.8387 9.43582 13.8905 9.78348C13.9423 10.1311 13.8576 10.4825 13.653 10.769C13.5245 10.9168 13.4321 11.0907 13.3823 11.2781C13.2291 11.2842 13.0753 11.269 12.9258 11.233Z" fill="#71ACAB"/>
<path d="M12.8732 9.45632C13.2175 9.79198 13.1402 10.1729 13.0042 10.5414C12.913 10.6881 12.7778 10.8047 12.6159 10.8761C12.454 10.9476 12.2727 10.9708 12.0952 10.9427C12.15 10.7929 12.2309 10.6536 12.3345 10.5305C12.7125 10.4518 12.8268 10.1858 12.6443 9.90524C12.6957 9.74471 12.7729 9.59326 12.8732 9.45632Z" fill="#71ACAB"/>
<path d="M12.624 9.91481C12.8093 10.1822 12.6778 10.4445 12.3142 10.5401C12.4004 10.324 12.504 10.115 12.624 9.91481Z" fill="#71ACAB"/>
<path d="M2.7971 9.12769C2.81044 9.06487 2.85275 9.03585 2.9219 9.05053C2.92012 9.06434 2.91517 9.07756 2.90742 9.08922C2.89967 9.10089 2.88929 9.11072 2.87705 9.11802C2.8648 9.12532 2.85103 9.12992 2.83661 9.13147C2.8222 9.13301 2.80748 9.13146 2.79364 9.12695L2.7971 9.12769Z" fill="#71ACAB"/>
</g>
<g clip-path="url(#clip1_306_2)">
<path d="M23.8118 17.5231C23.8537 17.5246 23.8945 17.5261 23.858 17.4614C23.625 16.7323 23.3924 16.0029 23.16 15.2731C23.1623 15.2664 23.1631 15.2593 23.1623 15.2523C23.1616 15.2453 23.1593 15.2385 23.1557 15.2325C23.1521 15.2265 23.1473 15.2214 23.1415 15.2176C23.1358 15.2138 23.1293 15.2114 23.1225 15.2105C23.1247 15.0874 23.0997 14.9654 23.0496 14.8539C22.8936 14.34 22.7169 13.8327 22.5804 13.3143C22.2243 11.9704 22.1559 10.5617 22.38 9.18627C22.5435 8.17365 22.8809 7.21173 23.1344 6.22457C23.1737 6.07174 23.2596 5.92694 23.2249 5.75873C23.2723 5.63578 23.3277 5.51523 23.364 5.38976C23.7508 4.0232 24.1363 2.65553 24.5205 1.28676C24.6484 0.831792 24.6493 0.832886 24.2376 0.637242C24.1243 0.578181 24.0065 0.528469 23.8997 0.460133C23.7219 0.348012 23.6446 0.395917 23.5698 0.596068C23.3516 1.17666 23.0961 1.7411 22.8787 2.3249C22.5618 3.17134 22.0637 3.83474 21.1938 4.09791C20.4425 4.33752 19.6676 4.48836 18.8838 4.54754L18.6655 4.5396L18.5553 4.5356C17.702 4.39893 16.847 4.28227 16.0211 3.98282C15.2487 3.70222 14.7148 3.1841 14.4444 2.38817C14.2299 1.7686 14.0299 1.14217 13.8185 0.521659C13.6395 -0.00680504 13.6333 -0.00597072 13.1278 0.214445C13.1206 0.214185 13.116 0.228809 13.1106 0.23601C13.0372 0.274792 12.9608 0.307353 12.8823 0.333372C12.6761 0.386102 12.6341 0.499746 12.6971 0.705959C12.7666 0.930369 12.7968 1.16709 12.8467 1.39712C13.1231 2.67509 13.3998 3.95622 13.6766 5.24054C13.656 5.27255 13.6666 5.28984 13.7011 5.29638C13.6658 5.53916 13.767 5.7605 13.8109 5.98821C14.0339 7.1311 14.3333 8.25668 14.3834 9.43555C14.4414 10.7916 14.2277 12.1461 13.7555 13.4141C13.566 13.9355 13.3682 14.4566 13.1748 14.9705C13.1676 14.9695 13.1602 14.9704 13.1534 14.9729C13.1465 14.9755 13.1403 14.9797 13.1352 14.9851C13.1302 14.9906 13.1264 14.9972 13.1242 15.0044C13.1221 15.0116 13.1215 15.0192 13.1227 15.0267L12.3373 17.0997C12.3435 17.1263 12.3351 17.1598 12.3559 17.1775C13.1873 18.1132 14.0155 19.0509 14.8543 19.9795C15.4367 20.6251 15.9926 21.2973 16.6099 21.9103L17.9251 21.9581L19.2424 22.006C19.3436 22.0308 19.3839 21.934 19.439 21.88C20.7218 20.6179 22.0026 19.3553 23.2813 18.0923C23.4637 17.9109 23.6825 17.7646 23.8127 17.5273L23.8118 17.5231Z" fill="white"/>
<path d="M23.1603 15.2731C23.3933 16.0022 23.626 16.7316 23.8583 17.4613L23.8121 17.523C23.7577 17.5158 23.7027 17.5138 23.6478 17.5171C21.8569 17.769 20.237 18.9336 19.6011 20.8568C19.4748 21.2399 19.3626 21.6279 19.2434 22.0134L17.9261 21.9655C18.0476 21.4353 17.9711 20.8979 17.9843 20.3637C18.0858 17.3202 18.2056 14.2763 18.3091 11.2318C18.3719 9.36282 18.4103 7.49193 18.4598 5.6225C19.2879 5.64322 20.1148 5.54163 20.9157 5.32081C21.9273 5.0649 22.6029 4.4386 22.9903 3.44997C23.3283 2.58422 23.6803 1.72426 24.0283 0.863108C24.0676 0.766273 24.0808 0.629395 24.2404 0.651045C24.6501 0.846614 24.6492 0.845521 24.5233 1.30057C24.1372 2.66715 23.7516 4.03481 23.3668 5.40356C23.3306 5.52903 23.2751 5.64958 23.2277 5.77253C22.9423 5.95235 22.8013 6.26103 22.627 6.52941C21.9346 7.56084 21.4442 8.68731 21.2863 9.93787C21.113 11.2135 21.3532 12.5116 21.9695 13.6291C22.2876 14.2112 22.6254 14.7835 23.1294 15.2234L23.1603 15.2731Z" fill="#DC968F"/>
<path d="M18.4643 5.61102C18.4147 7.48045 18.3763 9.35134 18.3135 11.2203C18.2121 14.2649 18.0922 17.3088 17.9888 20.3523C17.9694 20.8862 18.052 21.4238 17.9306 21.9541L16.6143 21.9062C16.5826 21.7117 16.557 21.5164 16.52 21.3238C16.1926 19.6213 15.3144 18.3458 13.7905 17.574C13.33 17.3407 12.8337 17.2223 12.3416 17.0987L13.127 15.0257C13.1441 15.0063 13.1611 14.9879 13.1792 14.9695C13.2975 14.9738 13.3544 14.8702 13.4202 14.8029C13.7123 14.4899 13.9866 14.1598 14.2418 13.8142C14.8653 12.9366 15.2895 11.9747 15.4148 10.8878C15.5819 9.43996 15.2601 8.08745 14.6313 6.80725C14.3736 6.28015 14.1161 5.74777 13.7109 5.31569C13.7023 5.29742 13.6948 5.27813 13.6863 5.25986C13.4099 3.98189 13.1333 2.70076 12.8564 1.41644C12.8065 1.18641 12.7712 0.9495 12.7068 0.725275C12.6438 0.519062 12.6847 0.407491 12.892 0.352688C12.9705 0.326669 13.0469 0.294108 13.1203 0.255326C13.2089 0.291301 13.2292 0.379735 13.255 0.457803C13.5375 1.31335 13.8375 2.16952 14.0931 3.03571C14.4224 4.15077 15.1138 4.86058 16.1912 5.18396C16.9381 5.40763 17.6919 5.58189 18.4742 5.5913C18.4714 5.59815 18.4681 5.60475 18.4643 5.61102Z" fill="#DC968F"/>
<path d="M13.707 5.31131C14.1122 5.7434 14.3697 6.27577 14.6274 6.80287C15.2563 8.08307 15.578 9.43558 15.4109 10.8834C15.2856 11.9703 14.8614 12.9322 14.2379 13.8098C13.9827 14.1554 13.7084 14.4856 13.4163 14.7985C13.3503 14.8711 13.2936 14.9694 13.1753 14.9651C13.3689 14.4439 13.5664 13.9291 13.756 13.4087C14.2273 12.1475 14.4428 10.8002 14.3892 9.45049C14.3391 8.27162 14.0398 7.14604 13.8167 6.00314C13.7729 5.77544 13.6716 5.5541 13.707 5.31131Z" fill="#E7D5C6"/>
<path d="M23.1247 15.2116C22.6207 14.7706 22.2828 14.1994 21.9648 13.6173C21.3485 12.4998 21.1082 11.2017 21.2816 9.92607C21.4394 8.67552 21.9299 7.54905 22.6223 6.51762C22.8006 6.24938 22.9375 5.94055 23.223 5.76074C23.2577 5.92894 23.1717 6.07585 23.1325 6.22658C22.879 7.21373 22.5416 8.17565 22.3781 9.18827C22.154 10.5637 22.2224 11.9724 22.5785 13.3163C22.715 13.8347 22.8917 14.342 23.0477 14.8559C23.0991 14.9668 23.1254 15.0884 23.1247 15.2116Z" fill="#E7D5C6"/>
<path d="M24.2417 0.639463C24.0851 0.617924 24.072 0.754805 24.0296 0.85153C23.6816 1.71269 23.3306 2.57267 22.9916 3.43838C22.6042 4.42701 21.9286 5.05332 20.917 5.30923C20.1161 5.53005 19.2892 5.63164 18.4611 5.61092C18.4625 5.60149 18.4628 5.59193 18.4622 5.58243C18.4982 5.23823 18.4263 4.88271 18.5529 4.54603L18.6631 4.55004C18.6765 4.56608 18.693 4.57909 18.7114 4.58824C18.7299 4.5974 18.75 4.60251 18.7705 4.60325C18.791 4.604 18.8115 4.60036 18.8306 4.59257C18.8496 4.58478 18.867 4.573 18.8815 4.55797C19.6653 4.4988 20.4402 4.34796 21.1915 4.10835C22.0614 3.84518 22.5595 3.18178 22.8764 2.33534C23.0937 1.75366 23.3491 1.19027 23.5675 0.60651C23.6422 0.406359 23.7197 0.356344 23.8974 0.470575C24.0106 0.530691 24.1323 0.583716 24.2417 0.639463Z" fill="#E7D5C6"/>
<path d="M18.5591 4.54623C18.4324 4.88291 18.5043 5.23843 18.4683 5.58262C17.686 5.57321 16.9322 5.39895 16.1853 5.17527C15.1079 4.85189 14.4165 4.14209 14.0872 3.02704C13.8316 2.16085 13.5367 1.30802 13.2491 0.449125C13.2233 0.371057 13.203 0.282623 13.1144 0.246648C13.1198 0.239447 13.1243 0.229045 13.1316 0.225083C13.6402 0.00477878 13.6433 0.003833 13.8223 0.532297C14.0337 1.15281 14.2337 1.77924 14.4482 2.3988C14.7258 3.195 15.2566 3.713 16.0249 3.99345C16.8508 4.2929 17.7058 4.41167 18.5591 4.54623Z" fill="#E7D5C6"/>
<path d="M12.3386 17.0944C12.8307 17.218 13.3268 17.3417 13.7875 17.5697C15.3133 18.3447 16.1865 19.618 16.5169 21.3226C16.5538 21.5152 16.5794 21.7106 16.6112 21.9051C15.9939 21.292 15.438 20.6199 14.8556 19.9743C14.0168 19.0457 13.1866 18.1079 12.3573 17.1722C12.3415 17.1548 12.3448 17.1211 12.3386 17.0944Z" fill="#E7D5C6"/>
<path d="M19.2437 22.0049C19.3599 21.6193 19.4761 21.2315 19.6014 20.8483C20.2371 18.9304 21.859 17.7669 23.6481 17.5086C23.703 17.5053 23.758 17.5073 23.8124 17.5146C23.6832 17.7518 23.4644 17.8981 23.281 18.0795C22.0042 19.3461 20.7237 20.6098 19.4396 21.8705C19.3853 21.9329 19.349 22.0299 19.2437 22.0049Z" fill="#E7D5C6"/>
<path d="M18.888 4.54975C18.8735 4.56477 18.8562 4.57655 18.8371 4.58434C18.818 4.59213 18.7976 4.59577 18.7771 4.59502C18.7566 4.59428 18.7365 4.58916 18.718 4.58001C18.6995 4.57085 18.6831 4.55785 18.6697 4.54181L18.888 4.54975Z" fill="#E7D5C6"/>
<path d="M23.8119 17.523L23.8581 17.4613C23.8946 17.5239 23.8538 17.5235 23.8119 17.523Z" fill="#E7D5C6"/>
<path d="M13.6806 5.2512C13.6891 5.26947 13.6966 5.28876 13.7051 5.30703C13.6706 5.30049 13.66 5.2832 13.6806 5.2512Z" fill="#E7D5C6"/>
<path d="M23.1601 15.2731L23.1226 15.2104C23.1293 15.2113 23.1358 15.2138 23.1416 15.2176C23.1473 15.2214 23.1522 15.2265 23.1558 15.2325C23.1594 15.2385 23.1617 15.2452 23.1624 15.2523C23.1632 15.2593 23.1624 15.2664 23.1601 15.2731Z" fill="#E7D5C6"/>
<path d="M13.1762 14.9652C13.1581 14.9835 13.1411 15.0019 13.1241 15.0214C13.1229 15.0139 13.1234 15.0063 13.1256 14.9991C13.1277 14.9919 13.1315 14.9853 13.1365 14.9798C13.1416 14.9744 13.1478 14.9702 13.1547 14.9677C13.1616 14.9651 13.1689 14.9643 13.1762 14.9652Z" fill="#E7D5C6"/>
</g>
<defs>
<clipPath id="clip0_306_2">
<rect width="15" height="17" fill="white" transform="translate(3.53027 1.38513) rotate(11.9856)"/>
</clipPath>
<clipPath id="clip1_306_2">
<rect width="11.9306" height="21.7557" fill="white" transform="translate(12.6943) rotate(2.08146)"/>
</clipPath>
</defs>
</svg>
