<svg width="25" height="17" viewBox="0 0 25 17" fill="none" xmlns="http://www.w3.org/2000/svg">
<g clip-path="url(#clip0_173_962)">
<path d="M24.0529 13.9935L24.0819 13.9672C24.099 13.9665 24.1155 13.9594 24.1293 13.9468C24.1431 13.9342 24.1536 13.9167 24.1594 13.8966C24.1699 13.8976 24.1804 13.8945 24.1893 13.8876C24.1983 13.8807 24.2053 13.8704 24.2094 13.8583C24.4115 13.6952 24.5838 13.4806 24.715 13.2285C24.8462 12.9764 24.9334 12.6925 24.9708 12.3954C25.0256 12.0767 24.9914 11.7441 24.874 11.4531L24.8611 11.3905C24.8611 11.3058 24.8079 11.2573 24.7676 11.2049C24.6456 11.062 24.5034 10.9491 24.3481 10.8719C23.7395 10.5476 23.1096 10.2897 22.4655 10.1011C21.9315 9.93164 21.3782 9.88321 20.8523 9.69757C20.1488 9.56581 19.4389 9.49435 18.7277 9.48368C18.7133 9.46145 18.6939 9.44527 18.672 9.43733C18.65 9.42939 18.6267 9.43007 18.6051 9.43929L18.5131 9.40095L18.639 9.33437C19.1312 9.1157 19.5558 8.70825 19.8521 8.17009C19.8727 8.15474 19.8907 8.13431 19.9048 8.11003C19.9189 8.08575 19.929 8.05813 19.9344 8.02884C19.9529 8.00404 19.9702 7.97775 19.986 7.95015C20.4296 7.05424 20.5538 6.06553 20.5377 5.03443C20.5401 4.99413 20.5401 4.95365 20.5377 4.91335C20.5079 4.10475 20.3699 3.30812 20.1296 2.55656C19.955 1.97831 19.6957 1.44591 19.3649 0.986714C19.1826 0.71526 18.9546 0.49759 18.6972 0.349328C18.4398 0.201065 18.1593 0.125883 17.8759 0.129148C17.2887 0.14529 16.7015 0.141254 16.1143 0.129148C14.2117 0.0887915 12.3108 0.0538122 10.4116 0.0242178C8.84834 4.13228e-06 7.28514 -0.00202007 5.72193 0.0807099C4.8494 0.095487 3.9803 0.220561 3.12788 0.454011C2.35999 0.69413 1.64372 1.05935 1.06941 1.77365C0.740672 2.16593 0.490804 2.64993 0.340237 3.18611C0.328033 3.19851 0.318743 3.21482 0.313347 3.23329C0.30795 3.25177 0.306658 3.27172 0.309595 3.29104C0.288936 3.33562 0.271132 3.38218 0.256357 3.43027C0.09602 4.14233 0.0119386 4.87784 0.0063101 5.61757C-0.0130485 6.93923 0.0692192 8.25484 0.120842 9.57247C0.144545 9.9546 0.230169 10.3267 0.372503 10.6661C0.622552 11.3179 1.04844 11.788 1.434 12.3026C1.69484 12.6853 1.97792 13.0434 2.28094 13.374C3.36695 14.6356 4.64162 15.6162 6.03167 16.2595C7.37265 16.8705 8.80385 17.1095 10.226 16.9596C11.194 16.8628 12.1506 16.7437 13.1121 16.6287C14.101 16.5117 15.0866 16.3604 16.0723 16.1929C16.8789 16.0537 17.7001 15.8922 18.5099 15.7187C19.0148 15.6097 19.5181 15.4846 20.0215 15.3676L20.0812 15.3494C20.1598 15.3513 20.2382 15.3377 20.3135 15.3091C21.0894 15.1214 21.8767 15.0125 22.6413 14.7542C22.9522 14.6673 23.253 14.5317 23.5367 14.3506H23.5463H23.5544C23.6494 14.3252 23.7373 14.2688 23.8093 14.1872C23.819 14.1886 23.8288 14.186 23.8373 14.1798C23.8457 14.1736 23.8523 14.1642 23.8561 14.1529C23.8836 14.1504 23.9103 14.14 23.9341 14.1225C23.9579 14.105 23.9781 14.0809 23.9932 14.052C24.0035 14.0529 24.0137 14.0496 24.0224 14.0427C24.0311 14.0358 24.0379 14.0257 24.0416 14.0137L24.0529 13.9935Z" fill="#FDFDFD"/>
<path d="M0.337158 3.18813C0.487725 2.65195 0.737584 2.16794 1.06632 1.77567C1.64063 1.0654 2.3569 0.696144 3.12479 0.456026C3.98273 0.217692 4.85784 0.0892304 5.73659 0.072638C7.29979 -0.010092 8.863 -0.00806777 10.4262 0.0161459C12.3266 0.0457403 14.2275 0.0807072 16.1289 0.121063C16.7161 0.13317 17.3033 0.137206 17.8906 0.121063C18.174 0.117799 18.4544 0.192993 18.7118 0.341256C18.9693 0.489518 19.1973 0.707176 19.3795 0.97863C19.7103 1.43783 19.9697 1.97024 20.1442 2.54849C20.3846 3.30005 20.5225 4.09668 20.5524 4.90528C20.5548 4.94558 20.5548 4.98605 20.5524 5.02634C20.5378 4.89317 20.4814 4.8629 20.391 4.92343C20.391 4.92343 20.3733 4.92343 20.3636 4.92343C20.3622 4.75113 20.3508 4.57918 20.3297 4.4089C20.2494 3.91979 20.1366 3.43991 19.9926 2.97424C19.9377 2.79466 19.8167 2.65543 19.7748 2.48392C19.7093 2.22955 19.6101 1.9908 19.4812 1.77768C19.3545 1.54546 19.1981 1.34094 19.0182 1.17234C18.8488 1.01697 18.6665 0.883801 18.489 0.74659C18.3237 0.624799 18.1357 0.559398 17.9438 0.556916C17.5518 0.536738 17.1582 0.556916 16.7645 0.556916C16.7307 0.556916 16.6645 0.510506 16.6661 0.619467C16.6677 0.728429 16.7113 0.746583 16.7742 0.726405C16.9565 0.673942 17.142 0.708242 17.3243 0.67394C17.5665 0.612433 17.8184 0.671815 18.0261 0.839401C18.1963 1.01864 18.3495 1.22175 18.4826 1.44474C18.7214 1.76356 18.8198 2.17922 18.9795 2.55251C19.0069 2.61708 19.015 2.69981 18.9488 2.70385C18.8278 2.70385 18.7246 2.80677 18.5988 2.78861C18.516 2.77544 18.432 2.77953 18.3503 2.80071C17.9502 2.90967 17.5437 2.87537 17.134 2.94801C16.8748 2.99875 16.6136 3.03108 16.3515 3.04486C16.177 3.03891 16.0024 3.05515 15.8305 3.0933C15.6039 3.14077 15.3746 3.16506 15.1449 3.16594C15.1142 3.16594 15.0755 3.16594 15.0674 3.11751C15.0594 3.06908 15.0868 3.05899 15.1078 3.03477C15.2013 2.92581 15.2981 2.82088 15.3868 2.70587C15.4304 2.64735 15.5288 2.59893 15.4885 2.50409C15.4481 2.40925 15.3723 2.50409 15.311 2.50409C15.2497 2.50409 15.2013 2.46777 15.1723 2.56866C15.0932 2.84914 15.0771 2.86125 14.8367 2.84107C14.8755 2.91775 14.9093 2.98232 14.869 3.07917C14.7996 3.23858 14.5931 3.17805 14.5673 3.39597C14.5459 3.39995 14.5242 3.39995 14.5028 3.39597C14.4809 3.39231 14.4587 3.39501 14.4378 3.40386C14.4169 3.41271 14.3979 3.42746 14.3823 3.44698C14.3667 3.4665 14.3549 3.49026 14.3478 3.5164C14.3407 3.54255 14.3386 3.57039 14.3415 3.59775C14.3415 3.65223 14.3495 3.71276 14.2995 3.7289C14.2495 3.74504 14.2253 3.68854 14.2108 3.63809C14.1759 3.50693 14.1253 3.38311 14.0608 3.27085C14.014 3.19619 13.9962 3.1397 14.0463 3.05697C14.0963 2.97424 14.164 2.99845 14.2269 3.04486C14.3017 3.12289 14.3957 3.16636 14.4931 3.16795C14.4595 3.11601 14.4382 3.05329 14.4316 2.98694C14.425 2.92059 14.4335 2.85327 14.456 2.79263C14.4802 2.72403 14.4867 2.65744 14.4221 2.61507C14.3576 2.57269 14.3173 2.61507 14.2769 2.66753C14.2366 2.71999 14.2124 2.7765 14.1543 2.80273C14.0869 2.82359 14.0262 2.86977 13.9803 2.93505C13.9345 3.00034 13.9057 3.08161 13.8978 3.16795C13.8976 3.19265 13.8929 3.21695 13.8842 3.23913C13.8755 3.2613 13.863 3.28081 13.8476 3.29624C13.8322 3.31166 13.8142 3.32262 13.795 3.32835C13.7758 3.33408 13.7558 3.33444 13.7365 3.32938C13.6494 3.3182 13.5614 3.32227 13.4752 3.34148C13.0783 3.45246 12.6686 3.41412 12.2717 3.48878C12.0084 3.54591 11.742 3.57763 11.4748 3.58362C11.3324 3.57597 11.1898 3.58542 11.0489 3.61186C10.7294 3.68183 10.4053 3.71427 10.081 3.70872C10.0181 3.70872 9.94546 3.73092 9.91965 3.62196C9.90855 3.57697 9.91037 3.52854 9.92481 3.48506C9.93925 3.44158 9.96539 3.40577 9.99871 3.38385C10.0555 3.33426 10.1033 3.27033 10.1391 3.19619C10.1552 3.16593 10.1681 3.13163 10.1391 3.10338C10.1287 3.09161 10.1152 3.08509 10.1011 3.08509C10.0871 3.08509 10.0736 3.09161 10.0632 3.10338C9.96966 3.23051 9.8648 3.2083 9.74059 3.12356C9.76811 3.19109 9.77763 3.26787 9.76776 3.34267C9.75789 3.41746 9.72916 3.48633 9.68574 3.53922C9.6623 3.56616 9.64719 3.60257 9.64306 3.64205C9.63893 3.68153 9.64605 3.72156 9.66316 3.75513C9.81299 4.14334 9.93238 4.54879 10.0197 4.96581C10.1356 5.49392 10.2123 6.0343 10.2488 6.58006C10.2456 6.71744 10.2631 6.85434 10.3004 6.98362C10.2833 7.26376 10.2433 7.54096 10.181 7.81091C10.1197 8.11156 10.0197 8.39406 9.93256 8.68664C9.81749 9.04335 9.64 9.36327 9.41311 9.62291C9.38568 9.62291 9.35181 9.62291 9.33245 9.6451C9.05473 9.92119 8.74311 10.1392 8.40968 10.2908C8.23868 10.3735 8.05962 10.5733 7.85958 10.3534C7.8083 10.3053 7.76125 10.2505 7.71923 10.1899C7.70284 10.157 7.67751 10.1325 7.64789 10.121C7.61826 10.1096 7.58632 10.1118 7.55791 10.1274C7.09645 10.3191 6.61913 10.445 6.13505 10.5027C5.77189 10.5431 5.40631 10.535 5.04452 10.4785C4.4884 10.388 3.94231 10.2188 3.41678 9.974C3.33035 9.93307 3.25056 9.87291 3.18126 9.79644C2.94409 9.50962 2.7549 9.16667 2.6247 8.78753C2.60429 8.75527 2.59029 8.71742 2.58384 8.67709C2.57739 8.63675 2.57868 8.59508 2.5876 8.55548C2.74451 8.76765 2.92682 8.94805 3.12802 9.09021C3.4435 9.31821 3.78363 9.48811 4.13789 9.59466C4.3041 9.65116 4.47341 9.6923 4.64444 9.71774C4.97044 9.79037 5.30413 9.79037 5.63012 9.71774C6.11408 9.56439 6.58836 9.39489 7.0691 9.2375C7.31694 9.17234 7.55599 9.06294 7.77892 8.91264C8.0322 8.8521 8.19674 8.61199 8.39356 8.43644C8.45163 8.38196 8.49519 8.28712 8.57585 8.29519C8.65651 8.30326 8.67748 8.41222 8.72426 8.49697C8.86425 8.27056 8.95735 8.00439 8.99528 7.72213C9.06158 7.26661 9.04838 6.79856 8.95657 6.35002C8.79595 5.55562 8.55868 4.7886 8.24998 4.06587C8.05355 3.57605 7.81092 3.11744 7.52726 2.69982C7.13867 2.1272 6.63372 1.69639 6.06569 1.45282C5.59359 1.25671 5.09825 1.16254 4.60089 1.17436C4.34438 1.17436 4.08788 1.22481 3.82976 1.23691C3.41321 1.27087 2.99884 1.33827 2.5892 1.4387C2.34077 1.49116 2.10524 1.58196 1.84551 1.61626C1.80841 1.61626 1.78421 1.63644 1.77937 1.68688C1.67935 1.68688 1.52126 1.68689 1.49706 1.75549C1.43092 1.96736 1.35025 1.98552 1.20022 1.86849C1.30347 2.03395 1.23088 2.15502 1.15989 2.27205C1.13086 2.31644 1.07924 2.37899 1.03084 2.32249C0.982442 2.266 1.04858 2.23169 1.07923 2.19739C1.10988 2.16309 1.14861 2.11062 1.12602 2.06623C1.10344 2.02184 1.04213 2.05009 1.0018 2.06623C0.97789 2.0837 0.956146 2.10546 0.93727 2.1308C0.740325 2.37233 0.581125 2.65768 0.467828 2.97222C0.442017 3.04486 0.448466 3.15181 0.362965 3.174C0.360268 3.17205 0.357209 3.17103 0.354094 3.17103C0.350979 3.17103 0.34792 3.17205 0.345222 3.174L0.337158 3.18813ZM13.551 0.829315C13.7881 0.847475 14.0188 0.774829 14.256 0.786936C14.5238 0.801061 14.7932 0.786936 15.0626 0.786936C15.2239 0.786936 15.3949 0.768779 15.5595 0.764743C15.7676 0.764743 15.9724 0.67193 16.1822 0.732464C16.2241 0.744571 16.2451 0.73246 16.2451 0.677979C16.2451 0.623498 16.258 0.554888 16.1886 0.546817C16.0741 0.53471 15.9595 0.514536 15.845 0.512518C15.1432 0.490322 14.4399 0.534719 13.7381 0.480238C13.1945 0.437864 12.6492 0.480231 12.104 0.447947C11.4732 0.401537 10.8392 0.447952 10.2052 0.415667C9.36471 0.379347 8.52261 0.40356 7.68051 0.415667C7.55647 0.403999 7.4327 0.442169 7.32722 0.524624C7.31049 0.545526 7.29029 0.561568 7.26805 0.571621C7.24581 0.581673 7.22207 0.585499 7.19852 0.582803C7.17497 0.580108 7.15218 0.570963 7.13176 0.556029C7.11135 0.541095 7.09382 0.520725 7.0804 0.496372C7.06104 0.462069 7.03523 0.411633 6.99329 0.429793C6.98231 0.439399 6.97325 0.452042 6.96681 0.46674C6.96037 0.481439 6.95673 0.497794 6.95618 0.514538C6.95618 0.575072 7.00134 0.575075 7.03522 0.593235C7.26509 0.708134 7.48826 0.842982 7.70309 0.996796C8.3569 1.48046 8.90585 2.15737 9.3018 2.96818C9.33406 3.03477 9.35987 3.08925 9.44053 3.05899C9.60185 2.99845 9.61153 2.98231 9.54861 2.79667C9.4244 2.42943 9.29857 2.06422 9.16628 1.70505C9.07063 1.41648 8.9054 1.17242 8.69361 1.00688C8.64522 0.970562 8.58068 0.952403 8.59036 0.869673C8.60004 0.786943 8.67102 0.768783 8.73071 0.756676C8.93481 0.712646 9.14147 0.689695 9.34858 0.688066C9.73575 0.700173 10.1229 0.688067 10.5101 0.714298C11.0634 0.746583 11.6168 0.754651 12.1685 0.786936C12.6282 0.817203 13.0912 0.772816 13.551 0.829315Z" fill="#F2CBC5"/>
<path d="M20.3539 4.92345C20.3636 4.92345 20.3749 4.92345 20.3813 4.92345C20.4749 4.86291 20.5314 4.89318 20.5426 5.02636C20.5588 6.05746 20.4346 7.04416 19.9909 7.94209C19.9751 7.96969 19.9579 7.99598 19.9393 8.02078C19.9393 7.96025 19.9974 7.932 19.9812 7.86339C19.9684 7.86064 19.9553 7.86064 19.9425 7.86339C19.8635 7.88357 19.7925 8.03289 19.6973 7.8755C19.6764 7.84119 19.6199 7.92595 19.6473 7.97034C19.6989 8.05912 19.728 8.20037 19.857 8.17212C19.5607 8.71028 19.1362 9.11772 18.6439 9.33638C18.6019 9.35656 18.56 9.38078 18.5197 9.40298C18.5051 9.32832 18.4568 9.3384 18.4196 9.35051C18.1067 9.44333 17.7857 9.47965 17.4695 9.55229C17.1242 9.6209 16.779 9.67538 16.4338 9.73592C16.0886 9.79645 15.7885 9.84892 15.4659 9.90138L14.5512 10.0487C14.3336 10.0629 14.1175 10.1028 13.9059 10.1677C13.7122 10.2299 13.5137 10.2651 13.3138 10.2726C12.9073 10.3211 12.4992 10.3695 12.0959 10.4401C11.5328 10.537 10.9666 10.5188 10.4004 10.6419C10.1471 10.6924 9.88736 10.6782 9.63247 10.7206C9.08398 10.8094 8.53386 10.8336 7.98376 10.88C7.5331 10.9271 7.08067 10.9419 6.62866 10.9244C6.63834 10.8376 6.69157 10.8598 6.73513 10.8538C7.00292 10.8154 7.27233 10.7912 7.54174 10.7327C7.94474 10.6535 8.33515 10.4948 8.69842 10.2626C8.9605 10.1216 9.19375 9.90847 9.38081 9.63906C9.6077 9.37942 9.78519 9.05951 9.90026 8.7028C9.98415 8.41022 10.0874 8.12772 10.1487 7.82707C10.211 7.55712 10.251 7.27992 10.2681 6.99978C10.314 6.74987 10.3287 6.49257 10.3116 6.23704C10.2955 6.08369 10.2826 5.92832 10.2697 5.77497C10.2697 5.70838 10.2697 5.64986 10.3439 5.64583C10.6149 5.62565 10.8859 5.58731 11.1505 5.57923C11.4151 5.57116 11.7119 5.57924 11.9926 5.60144C12.2733 5.62364 12.5185 5.6539 12.775 5.69627C13.2832 5.7936 13.7863 5.92836 14.2818 6.09983C14.7286 6.25827 15.1889 6.34972 15.653 6.37224C16.1933 6.39115 16.7337 6.34247 17.2662 6.22695C17.5888 6.15028 17.9292 6.08571 18.2503 5.96868C18.6613 5.82745 19.0658 5.65768 19.4618 5.46019C19.7702 5.31165 20.0686 5.13215 20.3539 4.92345ZM16.1015 7.12084L16.1628 7.14103C16.2273 7.15515 16.3031 7.14102 16.3096 7.06031C16.316 6.9796 16.2305 6.97758 16.1837 6.97556C16.1079 6.97556 16.074 6.94328 16.074 6.84642C16.074 6.80405 16.0611 6.74352 16.0143 6.74755C15.9676 6.75159 15.9692 6.8101 15.9676 6.85651C15.966 6.90292 15.9772 6.93319 15.9482 6.95135C15.9192 6.96951 15.8917 6.9231 15.8692 6.89889C15.8466 6.87467 15.8369 6.8565 15.8191 6.84036C15.8014 6.82422 15.7659 6.74149 15.7175 6.78992C15.6691 6.83834 15.6965 6.89687 15.7304 6.93924C15.8304 7.06637 15.9337 7.18945 16.0353 7.31455C16.0563 7.34078 16.0805 7.35693 16.1079 7.32666C16.1184 7.31556 16.1257 7.30057 16.1289 7.28387C16.1321 7.26718 16.131 7.24966 16.1257 7.23384C16.116 7.19953 16.0708 7.17936 16.1015 7.12084ZM11.3554 6.90695C11.3876 6.90695 11.4199 6.90695 11.4506 6.89081C11.4812 6.87466 11.5377 6.84036 11.5635 6.89081C11.5893 6.94125 11.528 6.96749 11.5054 7.00582C11.4828 7.04416 11.4844 7.02802 11.4764 7.04214C11.4683 7.05627 11.4312 7.1047 11.4635 7.14505C11.4957 7.18541 11.5183 7.1733 11.5506 7.14505C11.6012 7.11093 11.6413 7.05675 11.6647 6.99102C11.6881 6.92529 11.6933 6.85172 11.6796 6.78185C11.6216 6.63253 11.5183 6.68095 11.428 6.71324C11.3909 6.72535 11.3457 6.78185 11.3151 6.72737C11.2844 6.67288 11.336 6.63052 11.3731 6.59824C11.3871 6.58841 11.3977 6.57242 11.4027 6.55339C11.4078 6.53437 11.407 6.51367 11.4006 6.49533C11.3893 6.459 11.3634 6.43277 11.336 6.45497C11.2917 6.47926 11.2541 6.51944 11.2279 6.57043C11.2018 6.62142 11.1883 6.68094 11.1892 6.74149C11.1941 6.88274 11.2715 6.90897 11.3554 6.90695ZM18.9698 9.07811C18.9698 9.06802 18.9811 9.05591 18.9698 9.04986C18.9585 9.04381 18.9552 9.03574 18.9488 9.03775C18.9423 9.03977 18.9375 9.05793 18.9488 9.06399C18.9601 9.07004 18.9649 9.07408 18.973 9.07811H18.9698Z" fill="#DC968F"/>
<path d="M6.6385 10.9062C7.09051 10.9237 7.54294 10.9089 7.9936 10.8618C8.5437 10.8154 9.09382 10.7912 9.64231 10.7024C9.8972 10.6601 10.1569 10.6742 10.4102 10.6237C10.9716 10.5087 11.5395 10.5269 12.1057 10.422C12.509 10.3513 12.9123 10.3029 13.3237 10.2545C13.5235 10.2469 13.7221 10.2117 13.9157 10.1496C14.1273 10.0846 14.3434 10.0447 14.561 10.0305L15.4757 9.8832C15.7983 9.83074 16.121 9.77424 16.4436 9.71774C16.7663 9.66124 17.1341 9.60273 17.4793 9.53413C17.802 9.46956 18.1246 9.43324 18.4295 9.33235C18.4666 9.32024 18.515 9.31015 18.5295 9.38481L18.6199 9.42315L18.7425 9.46754C19.4537 9.4782 20.1636 9.54966 20.8671 9.68142C20.8784 9.72178 20.8671 9.73591 20.8316 9.74802C20.5718 9.8368 20.3137 9.92962 20.0556 10.0224L19.7055 10.1173C19.178 10.2666 18.6457 10.3998 18.1117 10.5208C17.6277 10.6237 17.1325 10.7226 16.6421 10.8094C16.1871 10.8941 15.7322 10.9647 15.2773 11.0394C14.9369 11.0959 14.5965 11.1625 14.2529 11.2028C13.9835 11.2311 13.7189 11.3158 13.4463 11.3179C13.3769 11.3179 13.3059 11.3179 13.2382 11.3179C12.9284 11.3602 12.6187 11.4228 12.3073 11.447C11.946 11.4753 11.5846 11.5277 11.2233 11.5661C10.6328 11.6266 10.0413 11.6683 9.44872 11.6912C8.91797 11.7093 8.38722 11.6912 7.85486 11.6912C7.69354 11.6912 7.54352 11.6629 7.38704 11.6568C7.23055 11.6508 7.04826 11.6568 6.87887 11.6568C6.4304 11.6246 5.98514 11.5338 5.53344 11.5237C5.51884 11.5014 5.50034 11.4836 5.47936 11.4717C5.45838 11.4598 5.43548 11.4541 5.41245 11.4551C5.23477 11.4279 5.05934 11.3813 4.88816 11.3159C4.55683 11.1986 4.23322 11.0495 3.92023 10.8699C3.27494 10.543 2.61837 10.2646 2.04084 9.75608C1.79593 9.56224 1.59398 9.29438 1.45362 8.97721C1.35553 8.69266 1.2893 8.39255 1.25682 8.08535C1.26429 8.02527 1.25457 7.96381 1.22939 7.91181V7.56475C1.17921 7.21512 1.15384 6.86062 1.15357 6.5054C1.13421 6.04333 1.13582 5.57923 1.15357 5.11917C1.16248 4.78678 1.18672 4.45531 1.22617 4.12642C1.26475 3.7674 1.34179 3.4165 1.45524 3.0832C1.50946 2.94006 1.57599 2.80474 1.65366 2.67964C1.88658 2.38118 2.16988 2.15162 2.48286 2.00772C2.93774 1.8177 3.41328 1.71629 3.89281 1.70706C4.68005 1.66872 5.46892 1.67881 6.23197 1.97745C6.70652 2.12731 7.11808 2.49645 7.38381 3.01056C7.52822 3.31971 7.65595 3.64058 7.76614 3.97104C8.08889 4.85117 8.33394 5.7727 8.49693 6.71929C8.52738 6.86257 8.53128 7.01266 8.50836 7.15812C8.48544 7.30358 8.43629 7.44058 8.36464 7.55869C8.12086 7.9508 7.82179 8.28384 7.48221 8.54137C7.42538 8.53737 7.36897 8.5557 7.32089 8.59382C7.12128 8.74542 6.90928 8.86989 6.68851 8.96511C6.38182 9.1056 6.05976 9.18657 5.73349 9.20523C5.43182 9.20523 5.13175 9.17496 4.82847 9.19312C4.48073 9.21778 4.13191 9.18453 3.79117 9.09425C3.48133 9.02866 3.19764 8.83634 2.98456 8.54742C2.79182 8.276 2.63646 7.96643 2.5248 7.63134C2.34684 7.13699 2.24504 6.60507 2.22475 6.0635C2.21237 5.71209 2.22099 5.36002 2.25055 5.01022C2.28285 4.58716 2.35376 4.17012 2.46188 3.76724C2.4764 3.72285 2.52157 3.66836 2.47318 3.61187C2.53571 3.48074 2.61885 3.36684 2.71755 3.27701C2.81626 3.18719 2.92849 3.12332 3.04748 3.08926C3.19523 3.04417 3.34582 3.01514 3.49757 3.0025C3.84704 2.92936 4.19163 2.82346 4.52841 2.6857C4.72503 2.60891 4.93363 2.59302 5.13624 2.63942C5.33886 2.68582 5.52943 2.79311 5.69155 2.95205C6.17308 3.40173 6.57556 3.9704 6.87403 4.62279C7.01018 4.89889 7.09202 5.21148 7.11279 5.53484C7.11977 6.07498 6.98989 6.60402 6.74175 7.04617C6.58749 7.34773 6.36905 7.58951 6.11098 7.74434C6.1066 7.72808 6.09911 7.71342 6.08916 7.70163C6.0792 7.68983 6.06709 7.68127 6.05388 7.67669C6.04067 7.67211 6.02675 7.67166 6.01336 7.67536C5.99997 7.67906 5.98752 7.6868 5.97708 7.69792C5.91578 7.75038 5.98676 7.77662 6.00128 7.81496C6.00048 7.82569 6.00048 7.83651 6.00128 7.84725H5.88997C5.76898 7.76452 5.63831 7.84724 5.52699 7.86742C5.25959 7.91034 4.98973 7.92452 4.72039 7.9098C4.42864 7.90053 4.14478 7.7894 3.90087 7.58896C3.34108 7.11478 3.12814 6.40452 3.06361 5.60143C3.0566 5.34866 3.08388 5.09622 3.14427 4.85484C3.1604 4.75597 3.22494 4.70552 3.28302 4.65306C3.66434 4.28091 4.14069 4.09449 4.6236 4.12842C4.81866 4.13339 5.00782 4.21296 5.16564 4.35644C5.53022 4.69543 5.5028 5.34516 5.11724 5.56712C5.11126 5.55472 5.10213 5.5452 5.09131 5.54007C5.08048 5.53495 5.06859 5.53454 5.05755 5.53888C4.83695 5.6028 4.60555 5.57151 4.40097 5.45009C4.27998 5.38149 4.14931 5.33911 4.02671 5.28059C3.9041 5.22208 3.86538 5.25638 3.83957 5.38955C3.82367 5.39267 3.80846 5.39984 3.79486 5.4106C3.78127 5.42136 3.76958 5.43548 3.76052 5.4521C3.45724 5.85566 3.58952 6.52558 3.82344 6.84439C4.01285 7.09262 4.26804 7.24612 4.54132 7.27621C5.10433 7.36499 5.50925 7.21971 5.83189 6.60831C5.98744 6.28683 6.08233 5.92523 6.10936 5.55099C6.1627 5.15563 6.12638 4.74948 6.00451 4.37864C5.91807 4.14148 5.78791 3.93333 5.6247 3.77128C5.46149 3.60923 5.26989 3.4979 5.06562 3.44642C5.08014 3.39597 5.1366 3.35965 5.10918 3.29306C5.08175 3.22647 5.02206 3.24261 4.97366 3.23858C4.55418 3.20429 4.13414 3.29415 3.74762 3.50089C3.57114 3.56957 3.41208 3.69478 3.28624 3.86409C3.22332 3.93875 3.15395 4.00736 3.09749 4.08808C2.83306 4.48549 2.68458 4.9836 2.67644 5.50054C2.66354 5.74671 2.66193 5.9949 2.63611 6.24107C2.61035 6.45239 2.61035 6.66737 2.63611 6.87869C2.7684 7.79074 3.21849 8.34564 3.92669 8.58576C4.35073 8.72055 4.79121 8.75477 5.22532 8.68665C5.72445 8.63284 6.21887 8.52482 6.70302 8.3638C6.86202 8.32902 7.01229 8.24816 7.14182 8.12771C7.34264 8.03523 7.51623 7.86856 7.63954 7.6498C7.76286 7.43105 7.83008 7.17056 7.83228 6.9029C7.87933 6.07523 7.76876 5.24539 7.50963 4.48154C7.33958 3.98717 7.09721 3.53689 6.79498 3.15383C6.54183 2.83243 6.23652 2.58266 5.89965 2.42137C5.89965 2.35478 5.97224 2.27205 5.89965 2.21959C5.8001 2.15164 5.6901 2.11105 5.577 2.10053C5.35115 2.11264 5.12853 2.07834 4.90429 2.0743C4.53626 2.05951 4.16785 2.07097 3.80085 2.10861C3.4562 2.14018 3.11898 2.24955 2.8055 2.43146C2.73129 2.47786 2.64418 2.50611 2.61514 2.63324C2.49156 2.7365 2.38254 2.86469 2.2925 3.01258C1.9923 3.44311 1.80284 3.97683 1.74885 4.54409C1.68684 4.79571 1.64999 5.05598 1.63915 5.31893C1.62546 5.88957 1.66772 6.46014 1.76497 7.01792C1.8668 7.6869 2.05073 8.33216 2.31024 8.93081C2.54738 9.45745 2.85067 9.90339 3.32818 10.1173C3.68793 10.2767 4.04445 10.4542 4.40581 10.6116C4.79921 10.774 5.20839 10.8691 5.62218 10.8941C5.96095 10.9183 6.29973 10.9062 6.6385 10.9062Z" fill="#DC968F"/>
<path d="M20.0491 10.0285C20.3072 9.93568 20.5653 9.84285 20.8251 9.75406C20.8606 9.74196 20.8719 9.72784 20.8606 9.68748C21.3897 9.87918 21.943 9.9276 22.4738 10.091C23.1179 10.2796 23.7478 10.5375 24.3564 10.8618C24.5116 10.939 24.6539 11.0519 24.7758 11.1948C24.8162 11.2472 24.8662 11.2957 24.8694 11.3804C24.8468 11.4087 24.8517 11.4309 24.8823 11.443L24.8533 11.6185L24.8242 11.6548C24.3419 11.3225 23.8324 11.056 23.3046 10.8598L23.453 11.102C23.525 11.2262 23.5607 11.3777 23.5539 11.5309C23.5472 11.6842 23.4984 11.8298 23.4159 11.9434C23.1546 12.2985 22.8045 12.4236 22.448 12.5205C22.0221 12.6335 21.5897 12.7102 21.1574 12.8231C21.0225 12.8887 20.8839 12.942 20.7428 12.9825C20.5748 12.9966 20.408 13.0283 20.2443 13.0774C19.4366 13.294 18.63 13.5126 17.8245 13.7332C17.3099 13.8724 16.7937 14.0157 16.279 14.1589C15.7951 14.2921 15.3111 14.4455 14.8126 14.5484C14.654 14.6143 14.4924 14.6682 14.3287 14.7098C14.2238 14.6412 14.1189 14.7098 14.0173 14.7098C13.7915 14.728 13.5704 14.6412 13.3414 14.6836C13.296 14.6954 13.2491 14.6956 13.2036 14.6841C13.1582 14.6727 13.115 14.6498 13.0768 14.617C12.9055 14.4535 12.7248 14.3058 12.5364 14.1751C12.4944 14.1557 12.4574 14.1226 12.429 14.0794C12.4006 14.0361 12.382 13.9842 12.3751 13.9289C12.3706 13.8911 12.3572 13.8558 12.3364 13.8277C12.3157 13.7997 12.2887 13.7801 12.2589 13.7715C12.033 13.6908 11.9508 13.4507 11.8782 13.2166C11.8056 12.9826 11.8136 12.9705 11.9976 12.8272C12.0379 12.7949 12.0814 12.7707 12.0718 12.698C12.0492 12.5265 11.9104 12.4156 11.9104 12.234C11.9104 12.234 11.8879 12.2138 11.875 12.2117C11.662 12.1653 11.4507 12.0443 11.2297 12.1936C11.2134 12.2049 11.1951 12.2108 11.1764 12.2108C11.1578 12.2108 11.1395 12.2049 11.1232 12.1936L10.8296 11.9918C11.007 11.9757 11.1522 11.9555 11.2845 11.9494C11.6572 11.9333 12.0298 11.8929 12.4009 11.8808C12.8945 11.8687 13.3849 11.79 13.8786 11.8062C13.9415 11.7941 14.006 11.7759 14.0689 11.7719C14.3448 11.7577 14.6223 11.7598 14.8981 11.7315C15.1498 11.7073 15.4014 11.6851 15.6531 11.6569C16.0451 11.6145 16.4355 11.5439 16.8275 11.4954C16.9404 11.4833 17.0211 11.2937 17.1502 11.4107C17.1679 11.4268 17.1711 11.3037 17.2228 11.3401C17.3534 11.4329 17.4728 11.3401 17.5922 11.3118C17.9148 11.2069 18.2375 11.0616 18.5698 10.9466C19.4748 10.6258 20.3879 10.3413 21.3397 10.2928C21.0945 10.2323 20.8477 10.1899 20.6008 10.1375C20.4152 10.1165 20.2309 10.0801 20.0491 10.0285Z" fill="#F2CBC5"/>
<path d="M24.8242 11.6609L24.8532 11.6246C24.9629 11.6851 24.8952 11.8062 24.9097 11.897C24.9365 12.1912 24.9151 12.4892 24.8468 12.7727C24.8371 12.8352 24.7855 12.8312 24.7468 12.8474C24.6619 12.8655 24.581 12.9061 24.5096 12.9664C24.3207 13.177 24.1134 13.3604 23.8918 13.5132C23.6184 13.7011 23.3322 13.8584 23.0368 13.9834C22.7307 14.1086 22.4194 14.213 22.1043 14.2961C21.4929 14.4414 20.875 14.5564 20.2636 14.6997C19.9749 14.7723 19.6748 14.7582 19.3925 14.8813H19.3796C19.2618 14.8026 19.1489 14.9055 19.057 14.9378C18.8408 15.0165 18.6198 15.0569 18.402 15.1113C18.1132 15.182 17.8245 15.2405 17.5341 15.297C17.1889 15.3656 16.8452 15.4261 16.5 15.4987C16.1548 15.5714 15.7644 15.6339 15.3966 15.6884C15.0288 15.7429 14.7061 15.8055 14.3577 15.8398C14.035 15.87 13.7285 15.9265 13.4139 15.9709C13.3079 15.9989 13.1997 16.0124 13.0913 16.0113C12.6412 16.094 12.1863 16.1222 11.7346 16.1767C11.4974 16.205 11.2506 16.2191 11.0199 16.2534C10.6005 16.3119 10.1794 16.3644 9.75677 16.3805C9.10883 16.4051 8.46051 16.3511 7.82092 16.2191C7.27325 16.1071 6.73375 15.9397 6.2077 15.7187C5.80236 15.5472 5.40675 15.3416 5.0236 15.1033C4.53603 14.8022 4.06644 14.4576 3.61848 14.0722C3.14904 13.6686 2.72637 13.1863 2.20692 12.8796C2.22558 12.8469 2.24606 12.8159 2.26822 12.7868C2.29887 12.7444 2.33921 12.7021 2.3021 12.6395C2.265 12.577 2.23273 12.6395 2.19563 12.6536C2.15852 12.6678 2.08755 12.696 2.04399 12.6314C2.00044 12.5669 2.04399 12.5184 2.07303 12.47C2.0804 12.4629 2.08636 12.4537 2.09047 12.4432C2.09457 12.4327 2.0967 12.4212 2.0967 12.4095C2.0967 12.3978 2.09457 12.3863 2.09047 12.3758C2.08636 12.3653 2.0804 12.3561 2.07303 12.349C2.03109 12.3066 2.00043 12.349 1.98107 12.3853C1.94236 12.4539 1.9117 12.5306 1.87621 12.6032C1.78787 12.5582 1.70568 12.4963 1.63261 12.4196C1.57938 12.3631 1.53099 12.2783 1.44549 12.3066C1.05993 11.792 0.638876 11.3219 0.383987 10.6701C0.241653 10.3307 0.156029 9.95861 0.132326 9.57649C0.0807034 8.25886 -0.00157416 6.95335 0.0177844 5.62159C0.0191106 4.88471 0.0983099 4.15127 0.253317 3.44035C0.268092 3.39225 0.285896 3.3457 0.306556 3.30112H0.335593C0.335593 3.30112 0.351729 3.32332 0.350116 3.32735C0.253451 3.62665 0.186795 3.93978 0.151684 4.25958C0.100041 4.68594 0.0693312 5.11587 0.0597296 5.54694C0.051154 5.93914 0.0651731 6.33161 0.101675 6.7213C0.117807 6.93721 0.114579 6.93721 0.211372 6.87264C0.217654 7.00407 0.233856 7.13446 0.259767 7.26207C0.303324 7.42148 0.200079 7.51833 0.180721 7.64949C0.167815 7.73423 0.153301 7.81898 0.145235 7.90373C0.142695 7.92419 0.145572 7.94512 0.153437 7.96334C0.161301 7.98156 0.173725 7.99606 0.188795 8.00462C0.222672 8.01874 0.230731 7.97032 0.242024 7.94207C0.253316 7.91382 0.25493 7.82101 0.313006 7.83311C0.371081 7.84522 0.358175 7.92189 0.363015 7.97637C0.367855 8.03085 0.363016 8.0369 0.40496 8.03892C0.410697 7.93849 0.439867 7.84238 0.48885 7.76248C0.516275 7.72616 0.52434 7.64343 0.437226 7.66361C0.38883 7.67572 0.374307 7.64343 0.372694 7.58491C0.388347 7.42897 0.395893 7.27194 0.395281 7.11477C0.3909 7.08007 0.394313 7.04452 0.405137 7.0121C0.415962 6.97968 0.433772 6.95165 0.456584 6.93115C0.553377 6.86052 0.558218 6.75156 0.558218 6.6305C0.558218 6.15429 0.558218 5.67675 0.558218 5.19786C0.558218 5.14136 0.545307 5.07678 0.593704 5.02634C0.609836 5.32901 0.661461 5.63169 0.696952 5.91822C0.742122 6.30564 0.789444 6.69171 0.838915 7.07644C0.841592 7.11165 0.854308 7.14449 0.874746 7.16894C0.895185 7.19339 0.921981 7.20783 0.950228 7.20961C1.01153 7.20961 0.987334 7.12082 1.00347 7.0724C1.05186 6.92106 1.00347 6.77578 1.00347 6.62848C1.00347 6.06349 1.01476 5.50052 1.05348 4.93554C1.07337 4.52238 1.12359 4.1124 1.2035 3.71074C1.23087 3.47762 1.31674 3.26141 1.44872 3.09329C1.33527 3.42659 1.25821 3.77747 1.21963 4.13649C1.18018 4.46539 1.15594 4.79686 1.14704 5.12925C1.1309 5.58931 1.12929 6.0534 1.14704 6.51548C1.14731 6.8707 1.17269 7.22519 1.22286 7.57483C1.04057 7.60106 1.00669 7.70397 1.07283 8.05305C0.956682 8.00058 0.911506 7.85127 0.824392 7.78469C0.800194 7.76653 0.777615 7.74028 0.750191 7.76046C0.743161 7.76584 0.737152 7.77308 0.732595 7.78167C0.728039 7.79026 0.725042 7.79999 0.723812 7.81018C0.722583 7.82037 0.72315 7.83077 0.725476 7.84066C0.727803 7.85055 0.731834 7.85968 0.737282 7.86741C0.75507 7.89567 0.765907 7.92978 0.768485 7.9656C0.771062 8.00143 0.765273 8.03741 0.751805 8.06919C0.664692 8.33352 0.751804 8.48889 0.992173 8.47275C1.05186 8.47275 1.08574 8.49697 1.08413 8.56558C1.08413 8.80771 1.18576 9.01756 1.21157 9.25162C1.23346 9.38711 1.27153 9.51771 1.32449 9.63904C1.43945 9.96883 1.60372 10.2681 1.80846 10.5208C1.75684 10.5672 1.72134 10.5208 1.68262 10.5208C1.5455 10.5027 1.50195 10.5693 1.55518 10.7226C1.58162 10.8029 1.61403 10.8799 1.65197 10.9526C1.86444 11.3198 2.10723 11.658 2.37631 11.9615C2.71529 12.3939 3.07633 12.7983 3.45716 13.1722C3.92799 13.6535 4.44172 14.0652 4.98811 14.399C5.03812 14.4273 5.1091 14.4374 5.13491 14.4858C5.19621 14.6008 5.23815 14.623 5.29623 14.4313C5.31398 14.5867 5.31075 14.7421 5.44142 14.5827C5.45141 14.5763 5.46246 14.573 5.47368 14.573C5.4849 14.573 5.49596 14.5763 5.50595 14.5827C5.6353 14.6548 5.77217 14.7037 5.91248 14.7279C6.41096 14.9116 6.91429 15.073 7.41761 15.2364C7.87384 15.4147 8.34461 15.5284 8.8211 15.5754C8.91306 15.5754 9.01307 15.5996 9.04211 15.753C9.05179 15.8115 9.10825 15.8297 9.15342 15.8438C9.26151 15.8761 9.33088 15.8034 9.4067 15.7167C9.48252 15.6299 9.37605 15.5391 9.37928 15.4402C9.45187 15.4402 9.5406 15.5108 9.58255 15.4564C9.69386 15.3171 9.81485 15.3938 9.93261 15.3979C10.1504 15.3979 10.365 15.3393 10.5779 15.3615C10.6563 15.3676 10.735 15.3676 10.8134 15.3615C11.2796 15.3171 11.7475 15.2728 12.2137 15.2243C12.4154 15.2021 12.6154 15.1658 12.817 15.1416C13.1268 15.1033 13.4333 15.0367 13.743 14.9822C13.9512 14.9528 14.1576 14.9063 14.3609 14.843C14.3915 14.843 14.4238 14.843 14.4432 14.8087C14.5762 14.8031 14.7085 14.7822 14.8384 14.7461C15.2094 14.7037 15.5708 14.5928 15.937 14.512C16.5952 14.3668 17.2523 14.208 17.9083 14.0358L19.257 13.6827C19.9442 13.5052 20.6282 13.2993 21.3155 13.1097C22.2675 12.8739 23.2063 12.5604 24.1257 12.1714C24.379 12.0665 24.65 11.9575 24.8242 11.6609ZM0.775998 8.65436C0.785906 8.65937 0.796563 8.66164 0.80724 8.66102C0.817917 8.66041 0.828364 8.65692 0.837862 8.65079C0.847359 8.64466 0.855685 8.63603 0.862271 8.6255C0.868857 8.61498 0.873543 8.60279 0.876016 8.58979C0.892148 8.53329 0.845369 8.52521 0.819558 8.50907C0.696953 8.43038 0.572739 8.35975 0.450135 8.27904C0.403352 8.25079 0.380764 8.27904 0.356566 8.3194C0.332367 8.35975 0.303329 8.37792 0.325914 8.43643C0.392056 8.59382 0.451742 8.75524 0.514658 8.91263C0.529176 8.94895 0.543696 8.99335 0.585639 8.97922C0.627583 8.9651 0.630808 8.92675 0.624355 8.87025C0.604996 8.68663 0.632422 8.64427 0.775998 8.65436Z" fill="#DC968F"/>
<path d="M1.43091 12.3046C1.51641 12.2763 1.56481 12.3611 1.61805 12.4176C1.69111 12.4942 1.7733 12.5562 1.86164 12.6012C1.95682 12.7223 2.09395 12.7646 2.19397 12.8776C2.71342 13.1843 3.13608 13.6686 3.60553 14.0701C4.05349 14.4556 4.52307 14.8002 5.01063 15.1012C5.39379 15.3395 5.7894 15.5452 6.19474 15.7167C6.72078 15.9377 7.26029 16.1051 7.80795 16.2171C8.44755 16.3491 9.09587 16.4031 9.74381 16.3785C10.1665 16.3624 10.5875 16.3099 11.007 16.2514C11.2441 16.2171 11.4909 16.203 11.7216 16.1747C12.1733 16.1202 12.6282 16.092 13.0783 16.0092C13.1867 16.0104 13.2949 15.9969 13.401 15.9689C13.4123 16.1404 13.5139 16.1101 13.5978 16.096C13.6498 16.0749 13.7051 16.0694 13.7591 16.0799C13.9024 16.1388 14.052 16.1701 14.2027 16.1727C14.4505 16.1736 14.6979 16.1959 14.9432 16.2393C15.0045 16.2514 15.0448 16.3301 15.1045 16.3099C15.3648 16.2412 15.6283 16.1933 15.8934 16.1666C16.429 16.0758 16.963 15.9649 17.4969 15.862C18.1116 15.7348 18.7246 15.5956 19.3376 15.4584C19.5545 15.3947 19.7763 15.3608 19.999 15.3575C19.4957 15.4745 18.9924 15.5996 18.4874 15.7086C17.6808 15.8821 16.8645 16.0436 16.0499 16.1828C15.0642 16.3503 14.0785 16.5016 13.0896 16.6186C12.1217 16.7336 11.1667 16.8527 10.2036 16.9496C8.78164 17.1006 7.35044 16.8631 6.00921 16.2534C4.61701 15.6117 3.34009 14.6317 2.25204 13.37C1.95809 13.0401 1.68366 12.6841 1.43091 12.3046Z" fill="#F2CBC5"/>
<path d="M20.0168 15.3636C19.794 15.3669 19.5722 15.4007 19.3553 15.4645C18.7423 15.5956 18.1293 15.7348 17.5147 15.868C16.9807 15.977 16.4467 16.0819 15.9111 16.1727C15.646 16.1994 15.3825 16.2472 15.1223 16.316C15.0577 16.3361 15.0174 16.2575 14.9609 16.2453C14.7156 16.202 14.4682 16.1797 14.2205 16.1788C14.0697 16.1761 13.9201 16.1448 13.7768 16.0859C13.7228 16.0755 13.6675 16.081 13.6155 16.1021C13.5316 16.1162 13.43 16.1465 13.4187 15.975C13.7413 15.9306 14.0462 15.8741 14.3624 15.8438C14.7109 15.8095 15.0545 15.7449 15.4013 15.6925C15.7482 15.64 16.137 15.5674 16.5048 15.5028C16.8726 15.4382 17.1936 15.3797 17.5389 15.301C17.8292 15.2445 18.118 15.186 18.4068 15.1154C18.6246 15.0609 18.8456 15.0205 19.0617 14.9418C19.1553 14.9096 19.2682 14.8066 19.3844 14.8853H19.3973C19.6796 14.7623 19.9797 14.7764 20.2684 14.7037C20.8798 14.5524 21.4977 14.4374 22.1091 14.3002C22.4242 14.217 22.7355 14.1126 23.0415 13.9874C23.337 13.8624 23.6231 13.7051 23.8965 13.5173C24.1182 13.3644 24.3254 13.181 24.5144 12.9704C24.5858 12.9101 24.6666 12.8696 24.7515 12.8514C24.7903 12.8353 24.8419 12.8393 24.8516 12.7767C24.9199 12.4932 24.9413 12.1952 24.9145 11.901C24.9 11.8102 24.9677 11.6992 24.858 11.6286L24.8871 11.4531C25.0044 11.7441 25.0386 12.0767 24.9838 12.3954C24.9464 12.6925 24.8592 12.9764 24.728 13.2285C24.5968 13.4806 24.4245 13.6952 24.2224 13.8583C24.1982 13.8583 24.1756 13.8583 24.1724 13.8966C24.1369 13.8966 24.0998 13.9067 24.095 13.9672C24.0772 13.9672 24.0692 13.9672 24.0659 13.9935C24.0417 13.9935 24.0191 13.9935 24.0175 14.0318C23.99 14.0343 23.9633 14.0447 23.9395 14.0622C23.9157 14.0797 23.8955 14.1038 23.8804 14.1327C23.8546 14.1327 23.8336 14.1327 23.8336 14.167C23.7351 14.1789 23.644 14.2374 23.5787 14.3304H23.5707H23.561C23.5144 14.3241 23.4674 14.3368 23.4271 14.3668C23.0857 14.5361 22.7339 14.6711 22.3753 14.7703C21.8219 14.9358 21.2557 15.0145 20.6991 15.1537C20.4962 15.1815 20.2969 15.2405 20.1055 15.3293L20.0168 15.3636Z" fill="#DC968F"/>
<path d="M20.0764 15.3454C20.2678 15.2566 20.4672 15.1977 20.6701 15.1699C21.2266 15.0306 21.7993 14.9519 22.3462 14.7865C22.7049 14.6872 23.0566 14.5523 23.398 14.3829C23.4383 14.353 23.4853 14.3402 23.5319 14.3466C23.2482 14.5276 22.9474 14.6632 22.6366 14.7501C21.8719 15.0084 21.0847 15.1174 20.3087 15.305C20.2335 15.3337 20.1551 15.3473 20.0764 15.3454Z" fill="#F2CBC5"/>
<path d="M23.5498 14.3365C23.615 14.2434 23.7062 14.185 23.8047 14.1731C23.7327 14.2547 23.6448 14.311 23.5498 14.3365Z" fill="#F2CBC5"/>
<path d="M18.7359 9.4736L18.6133 9.4292C18.6349 9.41998 18.6582 9.41929 18.6802 9.42723C18.7021 9.43517 18.7216 9.45136 18.7359 9.4736Z" fill="#DC968F"/>
<path d="M19.9426 8.01875C19.9373 8.04803 19.9272 8.07565 19.9131 8.09993C19.8989 8.1242 19.881 8.14465 19.8604 8.16C19.8862 8.11157 19.8942 8.04902 19.9426 8.02279V8.01875Z" fill="#DC968F"/>
<path d="M23.8611 14.1347C23.8762 14.1058 23.8964 14.0817 23.9202 14.0642C23.944 14.0467 23.9707 14.0363 23.9982 14.0338C23.9831 14.0627 23.9629 14.0869 23.9391 14.1044C23.9153 14.1219 23.8886 14.1323 23.8611 14.1347Z" fill="#F2CBC5"/>
<path d="M0.335504 3.28903H0.306467C0.303529 3.26971 0.304822 3.24975 0.310218 3.23128C0.315615 3.21281 0.324914 3.1965 0.337118 3.1841C0.335411 3.18664 0.33447 3.18987 0.33447 3.19319C0.33447 3.19651 0.335411 3.19972 0.337118 3.20226L0.335504 3.28903Z" fill="#F2CBC5"/>
<path d="M24.0869 13.9652C24.0869 13.9047 24.1289 13.9027 24.1643 13.8946C24.1586 13.9147 24.1481 13.9322 24.1343 13.9448C24.1205 13.9573 24.104 13.9645 24.0869 13.9652Z" fill="#F2CBC5"/>
<path d="M24.8854 11.449C24.8547 11.4369 24.8499 11.4147 24.8725 11.3865L24.8854 11.449Z" fill="#DC968F"/>
<path d="M23.8093 14.173C23.8093 14.1287 23.8303 14.1287 23.8561 14.1387C23.8523 14.15 23.8457 14.1595 23.8373 14.1657C23.8289 14.1718 23.819 14.1744 23.8093 14.173Z" fill="#F2CBC5"/>
<path d="M24.0015 14.0338C24.0015 13.9915 24.0257 13.9894 24.0498 13.9955C24.0461 14.0075 24.0394 14.0177 24.0307 14.0246C24.022 14.0315 24.0117 14.0347 24.0015 14.0338Z" fill="#F2CBC5"/>
<path d="M24.1675 13.8926C24.1675 13.8542 24.1933 13.8522 24.2175 13.8542C24.2134 13.8664 24.2064 13.8767 24.1975 13.8836C24.1885 13.8904 24.178 13.8936 24.1675 13.8926Z" fill="#F2CBC5"/>
<path d="M24.053 13.9935C24.053 13.9713 24.0643 13.9632 24.082 13.9672L24.053 13.9935Z" fill="#F2CBC5"/>
<path d="M20.354 4.92344C20.0702 5.12414 19.7741 5.29621 19.4684 5.43799C19.0724 5.63548 18.6679 5.80523 18.2569 5.94647C17.9342 6.0635 17.6019 6.12807 17.2728 6.20475C16.7403 6.32027 16.1998 6.36893 15.6596 6.35003C15.1955 6.3275 14.7352 6.23607 14.2883 6.07763C13.7929 5.90615 13.2898 5.7714 12.7816 5.67407C12.5251 5.63169 12.2621 5.59537 11.9992 5.57922C11.7362 5.56308 11.4378 5.54896 11.1571 5.55703C10.8764 5.5651 10.6151 5.60344 10.3505 5.62362C10.2763 5.62362 10.2714 5.68618 10.2763 5.75277C10.2892 5.90612 10.3021 6.06148 10.3182 6.21484C10.3353 6.47037 10.3206 6.72767 10.2747 6.97757C10.2374 6.84829 10.2199 6.71139 10.223 6.57401C10.1866 6.02825 10.1099 5.48787 9.99397 4.95977C9.90668 4.54275 9.78728 4.13729 9.63744 3.74909C9.62033 3.71551 9.61323 3.67547 9.61736 3.63599C9.62149 3.59651 9.63659 3.56012 9.66003 3.53318C9.70344 3.48029 9.73219 3.4114 9.74206 3.33661C9.75193 3.26182 9.74241 3.18505 9.71488 3.11751C9.84394 3.20226 9.9488 3.22445 10.0375 3.09733C10.0479 3.08556 10.0614 3.07904 10.0754 3.07904C10.0894 3.07904 10.103 3.08556 10.1133 3.09733C10.1392 3.12558 10.1262 3.15988 10.1133 3.19015C10.0776 3.26429 10.0298 3.32821 9.97299 3.37781C9.93968 3.39972 9.91354 3.43552 9.89911 3.479C9.88467 3.52249 9.88285 3.57092 9.89395 3.61591C9.91976 3.72487 9.99236 3.70267 10.0553 3.70267C10.3796 3.70821 10.7037 3.67579 11.0232 3.60582C11.1641 3.57938 11.3067 3.56991 11.4491 3.57757C11.7163 3.57157 11.9827 3.53987 12.246 3.48274C12.6461 3.40808 13.0526 3.44641 13.4495 3.33543C13.5357 3.31621 13.6237 3.31214 13.7108 3.32332C13.7301 3.32838 13.7501 3.32804 13.7693 3.32231C13.7885 3.31658 13.8065 3.30561 13.8219 3.29018C13.8373 3.27475 13.8498 3.25525 13.8585 3.23307C13.8672 3.21089 13.8718 3.18659 13.8721 3.1619C13.88 3.07556 13.9088 2.99428 13.9546 2.929C14.0005 2.86371 14.0612 2.81754 14.1286 2.79668C14.1867 2.77045 14.2141 2.70992 14.2512 2.66149C14.2883 2.61306 14.3367 2.56867 14.3964 2.60902C14.4561 2.64938 14.4545 2.71799 14.4303 2.78659C14.4078 2.84722 14.3993 2.91455 14.4059 2.9809C14.4125 3.04725 14.4338 3.10995 14.4674 3.1619C14.37 3.1603 14.276 3.11684 14.2012 3.03882C14.1383 2.99241 14.0819 2.95205 14.0206 3.05092C13.9593 3.1498 13.9883 3.19015 14.0351 3.26481C14.0996 3.37707 14.1502 3.50088 14.1851 3.63205C14.1996 3.6825 14.2254 3.73698 14.2738 3.72285C14.3222 3.70873 14.319 3.64617 14.3158 3.59169C14.3128 3.56433 14.315 3.53649 14.3221 3.51035C14.3292 3.4842 14.341 3.46045 14.3566 3.44094C14.3722 3.42142 14.3912 3.40665 14.4121 3.39781C14.433 3.38896 14.4552 3.38626 14.4771 3.38991C14.4985 3.39389 14.5202 3.39389 14.5416 3.38991C14.5674 3.17199 14.7739 3.23252 14.8433 3.07312C14.8836 2.97626 14.8433 2.91169 14.811 2.83502C15.0514 2.85519 15.0675 2.83502 15.1466 2.56262C15.1756 2.46173 15.2369 2.50612 15.2853 2.49805C15.3337 2.48998 15.4273 2.40926 15.4628 2.49805C15.4983 2.58683 15.4047 2.63929 15.3611 2.69983C15.2724 2.81484 15.1756 2.91977 15.082 3.02873C15.0611 3.05294 15.0369 3.07312 15.0417 3.11145C15.0466 3.14979 15.0885 3.16392 15.1192 3.15988C15.3489 3.159 15.5782 3.13471 15.8048 3.08724C15.9767 3.04909 16.1513 3.03287 16.3258 3.03882C16.5879 3.02504 16.8491 2.9927 17.1082 2.94197C17.5132 2.86932 17.9245 2.90362 18.3246 2.79466C18.4063 2.77348 18.4903 2.76939 18.573 2.78255C18.6989 2.80071 18.8021 2.70386 18.9231 2.69781C18.9893 2.69781 18.9812 2.61104 18.9538 2.54647C18.7924 2.17318 18.6957 1.75751 18.4569 1.4387C18.3238 1.21571 18.1706 1.01259 18.0004 0.833358C17.7927 0.665772 17.5408 0.60639 17.2986 0.667896C17.1163 0.702199 16.9308 0.667898 16.7485 0.720361C16.6856 0.740539 16.642 0.706231 16.6404 0.613412C16.6388 0.520593 16.7049 0.55086 16.7388 0.55086C17.1324 0.55086 17.5261 0.534718 17.9181 0.55086C18.11 0.553342 18.298 0.618744 18.4633 0.740534C18.6408 0.877745 18.8231 1.01092 18.9925 1.16629C19.1724 1.33488 19.3288 1.5394 19.4555 1.77163C19.5844 1.98474 19.6836 2.2235 19.7491 2.47786C19.791 2.64937 19.9104 2.7886 19.9669 2.96819C20.1109 3.43385 20.2237 3.91374 20.304 4.40285C20.3308 4.57464 20.3475 4.74862 20.354 4.92344ZM18.636 3.85804C18.7215 3.85804 18.7586 4.00937 18.8376 3.91656C18.9167 3.82374 18.9844 3.77128 18.9667 3.63205C18.9489 3.49282 19.0022 3.48474 19.0812 3.49887C19.1603 3.51299 19.2248 3.44238 19.2764 3.36772C19.2958 3.33947 19.3071 3.30516 19.2764 3.2749C19.2458 3.24463 19.2345 3.26279 19.2119 3.2749C19.1893 3.287 19.1635 3.34754 19.1344 3.28902C19.1054 3.23051 19.1441 3.22647 19.1586 3.1962C19.1714 3.17732 19.1797 3.15431 19.1825 3.1298C19.1852 3.1053 19.1824 3.08031 19.1743 3.05773C19.1662 3.03515 19.1532 3.0159 19.1367 3.0022C19.1202 2.9885 19.101 2.9809 19.0812 2.98029C19.0561 2.97235 19.0298 2.9721 19.0046 2.97957C18.9793 2.98703 18.9559 3.00198 18.9363 3.02316C18.9167 3.04435 18.9014 3.07112 18.8918 3.10124C18.8822 3.13137 18.8786 3.16394 18.8812 3.1962C18.8812 3.32332 18.8505 3.37579 18.7457 3.36368C18.7089 3.36291 18.6731 3.37787 18.644 3.40606C18.5908 3.4565 18.5505 3.46861 18.5021 3.40606C18.4964 3.3948 18.4885 3.38553 18.4792 3.3791C18.4699 3.37267 18.4595 3.3693 18.4488 3.3693C18.4382 3.3693 18.4277 3.37267 18.4184 3.3791C18.4091 3.38553 18.4013 3.3948 18.3956 3.40606C18.3601 3.45852 18.3859 3.50493 18.4182 3.54125C18.4795 3.60784 18.544 3.67039 18.6053 3.74303L18.5795 3.79549C18.5249 3.75776 18.4608 3.74803 18.4006 3.76836C18.3404 3.78869 18.2888 3.83749 18.2569 3.90445C18.2356 3.95974 18.2309 4.02273 18.2437 4.08197C18.2564 4.14121 18.2857 4.19279 18.3262 4.22731C18.351 4.26548 18.3848 4.29273 18.4229 4.30508C18.4609 4.31743 18.5011 4.3142 18.5376 4.2959C18.6844 4.19501 18.6827 4.0457 18.636 3.85804Z" fill="#DC968F"/>
<path d="M7.47248 8.53532C7.81206 8.27779 8.11113 7.94475 8.35491 7.55265C8.42656 7.43453 8.47571 7.29753 8.49863 7.15207C8.52155 7.00661 8.51764 6.85652 8.48719 6.71323C8.3242 5.76664 8.07916 4.84511 7.75641 3.96498C7.64622 3.63453 7.51849 3.31366 7.37408 3.00452C7.10835 2.4904 6.69679 2.12125 6.22224 1.97139C5.45919 1.67276 4.67033 1.66268 3.88308 1.70101C3.40355 1.71025 2.92801 1.81165 2.47313 2.00167C2.48281 1.98351 2.48764 1.95122 2.49893 1.94718C2.55217 1.92297 2.59734 1.89069 2.5796 1.81199C2.56185 1.7333 2.51346 1.78173 2.47636 1.7898C2.43925 1.79787 2.42796 1.77365 2.41021 1.7454C2.36893 1.68327 2.31281 1.63935 2.25008 1.6201C2.18735 1.60085 2.12134 1.60728 2.06176 1.63846C1.97069 1.67875 1.87437 1.69724 1.77783 1.69295C1.77783 1.6425 1.80687 1.62837 1.84397 1.62232C2.09563 1.58801 2.33923 1.49721 2.58767 1.44475C2.99731 1.34433 3.41168 1.27693 3.82823 1.24297C4.08635 1.23086 4.34284 1.1784 4.59934 1.18042C5.09671 1.1686 5.59205 1.26276 6.06415 1.45888C6.63218 1.70244 7.13713 2.13326 7.52572 2.70588C7.80938 3.12349 8.05201 3.58212 8.24844 4.07193C8.55714 4.79467 8.79441 5.56169 8.95503 6.35609C9.04684 6.80463 9.06004 7.27268 8.99374 7.72819C8.95581 8.01045 8.86271 8.27663 8.72272 8.50304C8.67594 8.42031 8.65497 8.31336 8.57431 8.30126C8.49365 8.28915 8.45009 8.38801 8.39202 8.44249C8.1952 8.61804 8.03066 8.85817 7.77738 8.9187C7.74028 8.89651 7.69833 8.86422 7.66284 8.9066C7.53056 9.0539 7.41763 8.90659 7.29825 8.87431C7.24985 8.87431 7.24824 8.79964 7.24824 8.74516C7.25488 8.72432 7.2665 8.70654 7.28151 8.69426C7.29653 8.68198 7.3142 8.67581 7.33213 8.67657C7.40473 8.74113 7.44183 8.7149 7.44344 8.60593L7.47248 8.53532Z" fill="#DC968F"/>
<path d="M7.24813 8.74315C7.24813 8.79763 7.24813 8.86219 7.29814 8.87228C7.41752 8.89649 7.53044 9.05187 7.66273 8.90457C7.69822 8.8622 7.74017 8.89448 7.77727 8.91668C7.55434 9.06698 7.31529 9.17638 7.06745 9.24154C6.58349 9.39893 6.1092 9.56843 5.62847 9.72178C5.30247 9.79441 4.96879 9.79441 4.64279 9.72178C4.47176 9.69633 4.30245 9.6552 4.13624 9.5987C3.78236 9.49069 3.44278 9.31943 3.12798 9.0902C2.91546 8.94898 2.72262 8.76568 2.55691 8.54742C2.54799 8.58701 2.54671 8.62868 2.55316 8.66902C2.55961 8.70936 2.5736 8.74721 2.59401 8.77947C2.72421 9.1586 2.9134 9.50156 3.15057 9.78837C3.21988 9.86484 3.29966 9.925 3.38609 9.96594C3.91162 10.2107 4.45772 10.38 5.01383 10.4704C5.37562 10.527 5.7412 10.5351 6.10437 10.4946C6.58844 10.437 7.06576 10.311 7.52722 10.1193C7.55564 10.1037 7.58757 10.1015 7.6172 10.113C7.64682 10.1245 7.67215 10.1489 7.68855 10.1818C7.73056 10.2424 7.77761 10.2972 7.82889 10.3453C8.02893 10.5652 8.208 10.3655 8.379 10.2827C8.71242 10.1312 9.02404 9.91313 9.30176 9.63703C9.32112 9.61686 9.355 9.62088 9.38242 9.61483C9.19537 9.88424 8.9621 10.0974 8.70002 10.2383C8.33808 10.4685 7.94936 10.6258 7.5482 10.7044C7.28202 10.763 7.01261 10.7872 6.74159 10.8255C6.69803 10.8255 6.64479 10.8094 6.63511 10.8961C6.29634 10.8961 5.95757 10.9183 5.62202 10.8961C5.20823 10.8711 4.79905 10.776 4.40565 10.6136C4.04429 10.4563 3.68777 10.2787 3.32802 10.1193C2.84405 9.90539 2.54722 9.45946 2.31008 8.93281C2.05056 8.33416 1.86663 7.68891 1.76481 7.01994C1.66756 6.46216 1.6253 5.89158 1.63899 5.32095C1.64983 5.05799 1.68668 4.79773 1.74868 4.54611C1.82451 4.53198 1.86645 4.59857 1.91001 4.6591C1.93849 4.70956 1.97795 4.74874 2.0237 4.77199C2.06945 4.79524 2.11957 4.80158 2.16812 4.79026C2.15682 4.95572 2.15038 5.1232 2.13263 5.28866C2.08825 5.75042 2.08825 6.21717 2.13263 6.67893C2.16593 7.10063 2.26109 7.51105 2.41333 7.88961C2.53969 8.22324 2.70677 8.53026 2.90859 8.79964C3.21963 9.14598 3.6214 9.33766 4.03784 9.33839C4.46373 9.37875 4.89284 9.3848 5.32841 9.38682C5.83654 9.40131 6.34101 9.27595 6.80611 9.01959C6.94969 8.92071 7.09972 8.83193 7.24813 8.74315Z" fill="#DC968F"/>
<path d="M1.7777 1.69294C1.87423 1.69723 1.97055 1.67875 2.06162 1.63846C2.12121 1.60728 2.18722 1.60084 2.24994 1.62009C2.31267 1.63935 2.3688 1.68326 2.41007 1.74539C2.42782 1.77364 2.44396 1.79786 2.47622 1.78979C2.50849 1.78172 2.5601 1.72925 2.57946 1.81198C2.59882 1.89471 2.55203 1.92296 2.4988 1.94717C2.48751 1.94717 2.48267 1.9835 2.47299 2.00166C2.16002 2.14556 1.87671 2.37513 1.6438 2.67359C1.56613 2.79869 1.49959 2.93401 1.44537 3.07715C1.3134 3.24527 1.22753 3.46148 1.20016 3.6946C1.12025 4.09626 1.07003 4.50625 1.05013 4.91941C1.01142 5.48439 1.00012 6.04735 1.00012 6.61234C1.00012 6.75964 1.05175 6.90492 1.00012 7.05626C0.983993 7.10468 1.00012 7.18943 0.946886 7.19347C0.918639 7.19169 0.891853 7.17725 0.871414 7.1528C0.850976 7.12835 0.83825 7.09551 0.835574 7.0603C0.786102 6.67422 0.73878 6.28815 0.69361 5.90208C0.658119 5.60546 0.606504 5.31288 0.590372 5.01021C0.541975 5.06066 0.554876 5.12522 0.554876 5.18172C0.554876 5.65927 0.554876 6.13681 0.554876 6.61436C0.554876 6.73542 0.554875 6.84438 0.453243 6.91501C0.43043 6.93551 0.41262 6.96354 0.401796 6.99596C0.390972 7.02838 0.387558 7.06393 0.39194 7.09863C0.392552 7.2558 0.385015 7.41285 0.369362 7.56879C0.369362 7.6273 0.385488 7.65958 0.433885 7.64747C0.520998 7.62729 0.512933 7.71003 0.485509 7.74635C0.436525 7.82625 0.407355 7.92236 0.401618 8.02279C0.359675 8.02279 0.36291 7.98647 0.359683 7.96024C0.356457 7.93401 0.370976 7.8311 0.309674 7.81697C0.248372 7.80285 0.256437 7.88154 0.238692 7.92593C0.220947 7.97032 0.219331 8.00261 0.185453 7.98848C0.170384 7.97992 0.15797 7.96543 0.150105 7.94721C0.14224 7.92899 0.139354 7.90805 0.141893 7.88759C0.141893 7.80284 0.164483 7.71811 0.177389 7.63336C0.196748 7.5022 0.299992 7.40534 0.256435 7.24593C0.230524 7.11832 0.214322 6.98793 0.20804 6.8565C0.111248 6.92107 0.114465 6.92107 0.0983332 6.70516C0.0618315 6.31547 0.0478223 5.923 0.0563979 5.5308C0.0659994 5.09973 0.0967092 4.6698 0.148352 4.24344C0.183463 3.92364 0.250109 3.61051 0.346775 3.31121C0.346775 3.31121 0.337091 3.29507 0.332251 3.28498C0.327412 3.27489 0.332251 3.23454 0.332251 3.21032L0.350004 3.18611C0.435505 3.15786 0.429046 3.05092 0.454857 2.98433C0.568154 2.66979 0.727364 2.38444 0.924309 2.14291C0.943185 2.11756 0.964919 2.09581 0.988831 2.07834C1.02916 2.05211 1.08079 2.00771 1.11305 2.07834C1.14532 2.14896 1.09691 2.1752 1.06626 2.2095C1.03561 2.2438 0.961405 2.266 1.01787 2.3346C1.07433 2.40321 1.11789 2.3346 1.14692 2.28416C1.2179 2.17318 1.2905 2.05211 1.18725 1.8806C1.33728 1.99763 1.41795 1.97947 1.48409 1.7676C1.51474 1.68487 1.67606 1.69092 1.7777 1.69294Z" fill="#DC968F"/>
<path d="M13.551 0.829327C13.0913 0.772828 12.6283 0.811172 12.1669 0.784941C11.6152 0.752656 11.0618 0.744576 10.5085 0.712291C10.1213 0.688077 9.73416 0.698165 9.34699 0.686058C9.13988 0.687687 8.93323 0.710639 8.72913 0.754669C8.66944 0.766776 8.60007 0.778882 8.58878 0.867665C8.57749 0.956449 8.64363 0.968554 8.69203 1.00487C8.90382 1.17042 9.06905 1.41448 9.1647 1.70304C9.29698 2.06221 9.42281 2.42743 9.54703 2.79467C9.60994 2.9803 9.59381 2.99644 9.43895 3.05698C9.35828 3.08724 9.33248 3.03277 9.30021 2.96619C8.90427 2.15537 8.35532 1.47845 7.70151 0.994788C7.48667 0.840975 7.26351 0.706126 7.03365 0.591227C6.99977 0.573067 6.95459 0.573064 6.95459 0.51253C6.95515 0.495786 6.95879 0.479431 6.96522 0.464733C6.97166 0.450034 6.98072 0.437392 6.9917 0.427786C7.03364 0.409625 7.05945 0.460074 7.07881 0.494377C7.09223 0.51873 7.10978 0.539087 7.13019 0.554022C7.1506 0.568956 7.17339 0.578101 7.19694 0.580796C7.22049 0.583491 7.24422 0.579678 7.26646 0.569626C7.2887 0.559573 7.30891 0.543519 7.32564 0.522617C7.43112 0.440161 7.55489 0.401991 7.67893 0.41366C8.52103 0.41366 9.36312 0.383392 10.2036 0.41366C10.8376 0.441909 11.4716 0.399529 12.1024 0.445939C12.6476 0.486295 13.1929 0.445946 13.7366 0.478231C14.4383 0.532711 15.1417 0.478225 15.8434 0.51051C15.958 0.51051 16.0725 0.532715 16.187 0.544822C16.2564 0.544822 16.2435 0.619473 16.2435 0.675972C16.2435 0.73247 16.2225 0.742563 16.1806 0.730456C15.9709 0.669922 15.766 0.7587 15.5579 0.762736C15.3965 0.762736 15.2352 0.782923 15.061 0.784941C14.7932 0.784941 14.5238 0.797048 14.2544 0.784941C14.0189 0.774852 13.7882 0.847487 13.551 0.829327Z" fill="#DC968F"/>
<path d="M0.360631 3.19016L0.343598 3.21437C0.341959 3.21183 0.341064 3.20861 0.341064 3.20529C0.341064 3.20197 0.341959 3.19875 0.343598 3.1962C0.345742 3.19326 0.348468 3.19115 0.351472 3.19008C0.354475 3.18902 0.357638 3.18904 0.360631 3.19016Z" fill="#DC968F"/>
<path d="M16.1015 7.12083C16.0708 7.17934 16.116 7.19952 16.1257 7.23382C16.131 7.24964 16.1321 7.26717 16.1289 7.28386C16.1257 7.30055 16.1184 7.31554 16.1079 7.32665C16.0805 7.35691 16.0563 7.34077 16.0353 7.31454C15.9337 7.18944 15.8304 7.06635 15.7304 6.93923C15.6965 6.89686 15.6675 6.84035 15.7175 6.7899C15.7675 6.73946 15.7901 6.81008 15.8192 6.84035C15.8482 6.87061 15.8514 6.88071 15.8692 6.89887C15.8869 6.91703 15.9095 6.97353 15.9482 6.95134C15.9869 6.92914 15.966 6.8908 15.9676 6.85649C15.9692 6.82219 15.9676 6.75157 16.0144 6.74754C16.0611 6.7435 16.074 6.80403 16.074 6.84641C16.074 6.94326 16.1079 6.97353 16.1837 6.97555C16.2305 6.97555 16.316 6.97555 16.3096 7.06029C16.3031 7.14504 16.2273 7.15514 16.1628 7.14101L16.1015 7.12083Z" fill="#DC968F"/>
<path d="M11.3555 6.90695C11.2683 6.90695 11.1941 6.88273 11.1941 6.75359C11.1933 6.69304 11.2067 6.63352 11.2328 6.58253C11.259 6.53154 11.2966 6.49136 11.3409 6.46707C11.3684 6.44487 11.3942 6.46707 11.4055 6.50743C11.4119 6.52578 11.4127 6.54647 11.4076 6.5655C11.4026 6.58452 11.392 6.60051 11.378 6.61034C11.3409 6.64262 11.2813 6.66884 11.32 6.73947C11.3587 6.81009 11.3958 6.73948 11.4329 6.72535C11.5281 6.69307 11.6265 6.64463 11.6845 6.79395C11.6982 6.86382 11.693 6.93739 11.6696 7.00312C11.6463 7.06885 11.6061 7.12303 11.5555 7.15715C11.5232 7.17935 11.4942 7.1854 11.4684 7.15715C11.4426 7.12891 11.4571 7.08451 11.4813 7.05424C11.5055 7.02398 11.5023 7.03003 11.5103 7.01793C11.5184 7.00582 11.6007 6.9695 11.5684 6.90291C11.5361 6.83632 11.4958 6.88475 11.4555 6.90291C11.4151 6.92107 11.3909 6.9009 11.3555 6.90695Z" fill="#DC968F"/>
<path d="M19.9361 8.0127C19.8877 8.03893 19.8796 8.10149 19.8538 8.14992C19.7247 8.18422 19.6925 8.04297 19.6441 7.94814C19.6167 7.90375 19.6731 7.81899 19.6941 7.85329C19.7893 8.01068 19.8554 7.85329 19.9393 7.84119C19.9521 7.83844 19.9652 7.83844 19.978 7.84119C19.9942 7.92392 19.9296 7.95216 19.9361 8.0127Z" fill="#DC968F"/>
<path d="M18.9722 9.0781C18.9645 9.0781 18.9537 9.0781 18.9521 9.06398C18.9506 9.04985 18.9521 9.03976 18.9521 9.03775C18.9521 9.03573 18.9707 9.03774 18.9722 9.04985C18.9738 9.06196 18.9753 9.06801 18.9722 9.0781Z" fill="#DC968F"/>
<path d="M14.3576 14.8551C14.1543 14.9184 13.9479 14.9649 13.7398 14.9943C13.43 15.0488 13.1235 15.1154 12.8138 15.1537C12.6121 15.1779 12.4121 15.2143 12.2104 15.2364C11.7442 15.2849 11.2764 15.3293 10.8102 15.3737C10.7317 15.3797 10.6531 15.3797 10.5746 15.3737C10.3568 15.3515 10.1423 15.418 9.92934 15.41C9.81158 15.41 9.69059 15.3293 9.57928 15.4685C9.53411 15.523 9.44861 15.4463 9.37601 15.4524C9.37601 15.5512 9.50346 15.6138 9.40344 15.7288C9.30342 15.8438 9.25825 15.8882 9.15017 15.8559C9.105 15.8418 9.04854 15.8236 9.03886 15.7651C9.00982 15.6118 8.9098 15.5916 8.81785 15.5875C8.34135 15.5406 7.87057 15.4269 7.41435 15.2486C6.91102 15.0851 6.4077 14.9237 5.90921 14.7401C5.76891 14.7159 5.63204 14.6669 5.50268 14.5948C5.49269 14.5884 5.48164 14.5851 5.47043 14.5851C5.45921 14.5851 5.44815 14.5884 5.43816 14.5948C5.30749 14.7542 5.31071 14.5948 5.29297 14.4435C5.23489 14.6452 5.19295 14.6129 5.13164 14.4979C5.10583 14.4495 5.03486 14.4394 4.98485 14.4112C4.43846 14.0773 3.92474 13.6657 3.45391 13.1843C3.07307 12.8104 2.71203 12.406 2.37305 11.9736C2.10396 11.6701 1.86118 11.3319 1.64872 10.9647C1.61077 10.892 1.57836 10.815 1.55192 10.7347C1.49868 10.5733 1.54225 10.5067 1.67937 10.5329C1.71809 10.5329 1.75357 10.5854 1.80519 10.5329C1.60045 10.2802 1.43619 9.98096 1.32123 9.65117C1.26827 9.52984 1.2302 9.39923 1.2083 9.26374C1.18249 9.02967 1.07602 8.81983 1.08086 8.57769C1.08086 8.50909 1.0486 8.48285 0.988908 8.48487C0.753379 8.48487 0.666267 8.33959 0.748541 8.08131C0.762008 8.04953 0.767808 8.01354 0.76523 7.97772C0.762653 7.9419 0.751805 7.90779 0.734017 7.87953C0.728569 7.8718 0.724548 7.86267 0.722221 7.85278C0.719895 7.84289 0.719328 7.83249 0.720557 7.8223C0.721787 7.81211 0.724784 7.80237 0.72934 7.79379C0.733897 7.7852 0.739896 7.77796 0.746926 7.77258C0.77435 7.7524 0.796939 7.77259 0.821137 7.7968C0.913091 7.86743 0.953417 8.0127 1.06957 8.06516C1.00343 7.71608 1.0373 7.61318 1.2196 7.58694V7.72415C1.17604 7.72415 1.13894 7.72416 1.13894 7.80689C1.13894 7.88962 1.1583 7.92796 1.22121 7.93401C1.2464 7.98602 1.25611 8.04746 1.24863 8.10754C1.20669 8.1257 1.16475 8.05911 1.11958 8.10754C1.11958 8.17413 1.16475 8.22054 1.16152 8.28915C1.14436 8.67438 1.23318 9.05535 1.41318 9.36867C1.71163 9.89935 2.17624 10.1758 2.61665 10.4623C2.90545 10.6422 3.20608 10.7907 3.51521 10.9062C4.02015 11.1181 4.48313 11.4793 5.0413 11.5116C5.20263 11.5116 5.36395 11.5116 5.52527 11.5116C5.97697 11.5217 6.42222 11.6125 6.87069 11.6447C7.03202 11.6569 7.20946 11.6447 7.37885 11.6447C7.54824 11.6447 7.69021 11.6811 7.84669 11.6791C8.37905 11.6791 8.9098 11.6912 9.44055 11.6791C10.0342 11.6562 10.6257 11.6145 11.2151 11.554C11.5764 11.5156 11.9378 11.4631 12.2992 11.4349C12.6105 11.4107 12.9202 11.3481 13.23 11.3058C13.2977 11.3058 13.3687 11.3058 13.4381 11.3058C13.4835 11.3845 13.5455 11.4459 13.6172 11.4833C13.722 11.558 13.872 11.5842 13.8817 11.7921C13.3881 11.7759 12.8977 11.8546 12.404 11.8667C12.033 11.8788 11.6603 11.9192 11.2877 11.9353C11.1506 11.9353 11.0102 11.9615 10.8328 11.9777L11.1264 12.1795C11.1426 12.1908 11.161 12.1967 11.1796 12.1967C11.1982 12.1967 11.2165 12.1908 11.2328 12.1795C11.4506 12.0302 11.6619 12.1512 11.8781 12.1976C11.891 12.1976 11.9136 12.2118 11.9136 12.2198C11.9233 12.4014 12.0572 12.5124 12.0749 12.6839C12.0846 12.7566 12.041 12.7808 12.0007 12.8131C11.8168 12.9563 11.8055 12.9644 11.8813 13.2025C11.9572 13.4406 12.0427 13.6767 12.2621 13.7574C12.2918 13.7659 12.3189 13.7855 12.3396 13.8136C12.3603 13.8417 12.3738 13.877 12.3782 13.9148C12.3852 13.97 12.4038 14.022 12.4322 14.0652C12.4605 14.1085 12.4976 14.1416 12.5395 14.161C12.728 14.2917 12.9086 14.4394 13.08 14.6029C13.1182 14.6357 13.1613 14.6586 13.2068 14.67C13.2523 14.6814 13.2991 14.6813 13.3445 14.6694C13.5736 14.6271 13.7946 14.7138 14.0205 14.6957C14.1221 14.6957 14.227 14.623 14.3318 14.6957L14.3592 14.8006L14.3576 14.8551ZM11.1764 13.1359C11.2925 13.1985 11.3958 13.2408 11.4893 13.1117C11.5119 13.0794 11.5619 13.0512 11.5329 13.0007C11.5038 12.9503 11.4635 12.9826 11.4312 13.0007C11.3748 13.0411 11.3151 13.0673 11.2699 13.0007C11.2604 12.9857 11.2534 12.9685 11.2494 12.95C11.2455 12.9315 11.2446 12.9122 11.2469 12.8932C11.2491 12.8743 11.2545 12.8561 11.2626 12.8399C11.2708 12.8237 11.2815 12.8097 11.2941 12.7989C11.3248 12.7626 11.3409 12.7202 11.2941 12.6839C11.2866 12.6769 11.2779 12.6721 11.2687 12.6699C11.2595 12.6677 11.25 12.6682 11.241 12.6713C11.232 12.6744 11.2236 12.6801 11.2166 12.6879C11.2096 12.6957 11.2041 12.7053 11.2006 12.7162C11.1603 12.7719 11.1364 12.8431 11.1328 12.918C11.1328 13.0128 11.1522 13.1016 11.0199 13.0612C10.9735 13.0506 10.9256 13.0633 10.8867 13.0965C10.8477 13.1298 10.8208 13.1809 10.8118 13.2388C10.7983 13.3002 10.8018 13.3655 10.8217 13.4241C10.8416 13.4827 10.8768 13.5312 10.9215 13.5617C11.0054 13.6404 11.0828 13.598 11.1473 13.5334C11.2764 13.4204 11.2377 13.2832 11.1764 13.1359ZM6.49804 13.3902C6.49571 13.3349 6.48219 13.2813 6.45878 13.2344C6.43536 13.1874 6.40279 13.1487 6.36414 13.1218C6.33648 13.0944 6.30166 13.0809 6.26647 13.0839C6.23128 13.0869 6.19824 13.1061 6.17378 13.1379C6.12216 13.2065 6.08667 13.2287 6.03182 13.15C6.02647 13.1405 6.01935 13.1326 6.01106 13.1272C6.00278 13.1219 5.99357 13.119 5.98423 13.119C5.97489 13.119 5.96569 13.1219 5.9574 13.1272C5.94912 13.1326 5.94199 13.1405 5.93664 13.15C5.90115 13.2025 5.93664 13.2348 5.96407 13.265C6.03828 13.3599 6.11248 13.4567 6.18991 13.5455C6.23508 13.596 6.26735 13.7049 6.35123 13.6565C6.39172 13.631 6.4265 13.5933 6.45241 13.5468C6.47833 13.5003 6.49457 13.4465 6.49966 13.3902H6.49804ZM11.4893 12.5669L11.4506 12.5972C11.4071 12.5306 11.3651 12.462 11.3183 12.3954C11.2715 12.3288 11.257 12.3328 11.2248 12.3812C11.2164 12.3892 11.2096 12.3994 11.205 12.4111C11.2003 12.4228 11.1979 12.4358 11.1979 12.4489C11.1979 12.462 11.2003 12.4749 11.205 12.4866C11.2096 12.4983 11.2164 12.5085 11.2248 12.5164C11.3377 12.6415 11.4474 12.7727 11.5571 12.9018C11.599 12.9503 11.6571 12.9341 11.649 12.8776C11.6265 12.7384 11.6813 12.7344 11.7636 12.7263C11.7881 12.7244 11.8114 12.7125 11.8301 12.6925C11.8487 12.6724 11.8616 12.6453 11.8668 12.6153C11.7426 12.5588 11.5442 12.6375 11.5732 12.3429C11.5737 12.3372 11.5732 12.3314 11.5717 12.326C11.5702 12.3205 11.5677 12.3156 11.5644 12.3115C11.5612 12.3075 11.5572 12.3044 11.5529 12.3025C11.5485 12.3006 11.5439 12.2999 11.5393 12.3005C11.5308 12.3039 11.5231 12.3096 11.5167 12.3173C11.5102 12.325 11.5053 12.3345 11.5022 12.3449C11.4974 12.4196 11.4958 12.4942 11.4909 12.5669H11.4893Z" fill="#DC968F"/>
<path d="M7.13853 8.11964C7.009 8.24009 6.85873 8.32093 6.69974 8.35572C6.21684 8.51923 5.72348 8.62995 5.22526 8.68664C4.78544 8.75469 4.33928 8.71772 3.91048 8.57768C3.20712 8.33756 2.75703 7.78266 2.61991 6.87062C2.59414 6.65929 2.59414 6.44431 2.61991 6.23299C2.64572 5.98682 2.64733 5.73862 2.66024 5.49245C2.66837 4.97551 2.81687 4.4774 3.0813 4.07999C3.13776 3.99928 3.20713 3.93067 3.27004 3.85602C3.31646 3.85766 3.36158 3.83668 3.39587 3.7975C3.52766 3.70461 3.66724 3.63017 3.81208 3.57554C4.20977 3.40639 4.63414 3.35933 5.04941 3.43833C5.25369 3.48982 5.44529 3.60115 5.60849 3.7632C5.7717 3.92525 5.90187 4.13339 5.9883 4.37055C6.11017 4.74139 6.1465 5.14754 6.09317 5.5429C6.06613 5.91714 5.97123 6.27874 5.81569 6.60022C5.49305 7.20557 5.08974 7.3569 4.52512 7.26812C4.25183 7.23803 3.99666 7.08455 3.80724 6.83632C3.57333 6.5175 3.44104 5.84759 3.74433 5.44403C3.75339 5.4274 3.76508 5.41327 3.77867 5.40251C3.79227 5.39175 3.80748 5.38459 3.82337 5.38147C4.05246 5.5326 4.29581 5.64716 4.5477 5.72248C4.64383 5.74885 4.74348 5.74786 4.83925 5.71957C4.93503 5.69127 5.02449 5.63641 5.10104 5.55904C5.48659 5.34717 5.51403 4.69744 5.14944 4.34836C4.99162 4.20489 4.80245 4.12532 4.60739 4.12035C4.12449 4.08641 3.64814 4.27282 3.26681 4.64497C3.20874 4.70147 3.14421 4.75191 3.12808 4.84675C3.0087 4.93755 3.00063 5.10907 2.96676 5.25031C2.91185 5.52249 2.91185 5.80747 2.96676 6.07964C3.03523 6.62307 3.23508 7.12724 3.53945 7.52438C3.83251 7.87036 4.21744 8.0687 4.6203 8.0813C4.95103 8.10738 5.28303 8.07339 5.60597 7.98041C5.58984 8.07726 5.52531 8.07121 5.46562 8.08534C5.10703 8.16298 4.74133 8.17521 4.37993 8.12166C3.98402 8.05596 3.61945 7.81722 3.3507 7.4477C3.21394 7.26922 3.0913 7.0746 2.9845 6.86658C2.96675 6.83429 2.95224 6.7899 2.9103 6.80604C2.86835 6.82219 2.85867 6.86658 2.85706 6.91702C2.85525 6.97423 2.8607 7.03144 2.87319 7.08652C2.92137 7.28541 3.00214 7.46957 3.11033 7.62729C3.28436 7.88148 3.4977 8.08902 3.7375 8.23744C3.97731 8.38585 4.23863 8.47208 4.50576 8.49092C4.82154 8.53945 5.14046 8.54756 5.45756 8.51513C5.72374 8.47881 5.99153 8.45257 6.26417 8.40818C6.56668 8.33708 6.8602 8.21561 7.13691 8.047L7.13853 8.11964ZM4.71871 7.11073C4.8865 7.11929 5.05392 7.08446 5.21047 7.00843C5.36702 6.93239 5.50935 6.81678 5.62856 6.66883C5.75074 6.52867 5.84674 6.35657 5.90975 6.16477C5.97276 5.97296 6.00123 5.76616 5.99315 5.55904C5.98635 5.23702 5.94122 4.91807 5.85925 4.61269C5.80789 4.33806 5.71057 4.08017 5.57371 3.85602C5.5237 3.78539 5.46563 3.70267 5.38658 3.76118C5.30753 3.8197 5.32527 3.92059 5.34463 4.01341C5.40916 4.35442 5.47207 4.69743 5.54306 5.03643C5.58264 5.19567 5.59551 5.36344 5.58083 5.52919C5.56615 5.69494 5.52424 5.85511 5.45775 5.99966C5.39126 6.14421 5.30161 6.27001 5.19442 6.36919C5.08723 6.46837 4.96483 6.53878 4.83486 6.57601C4.77678 6.59888 4.71534 6.60528 4.65503 6.59472C4.59472 6.58416 4.53706 6.55691 4.48622 6.51497C4.43539 6.47304 4.39267 6.41746 4.36117 6.35227C4.32966 6.28709 4.31017 6.21394 4.30411 6.13815C4.30411 6.07156 4.27507 6.00498 4.26701 5.93637C4.26465 5.86327 4.24049 5.79393 4.19928 5.74202C4.15808 5.6901 4.10281 5.65937 4.04438 5.65589C3.98146 5.65865 3.92101 5.68721 3.87233 5.73716C3.82365 5.78711 3.78944 5.85568 3.77498 5.93233C3.74615 6.06318 3.74466 6.20111 3.77065 6.33289C3.79663 6.46467 3.84922 6.5859 3.92339 6.68498C4.01973 6.82882 4.14177 6.9423 4.27965 7.01626C4.41753 7.09022 4.56737 7.12258 4.71709 7.11073H4.71871Z" fill="#DC968F"/>
<path d="M7.13839 8.11965V8.04701C7.17015 7.99047 7.2101 7.94187 7.25617 7.90374C7.37268 7.78893 7.46697 7.6427 7.53202 7.47597C7.74012 6.95537 7.71592 6.40653 7.6514 5.86172C7.61944 5.55467 7.54923 5.25577 7.4433 4.9759C7.41426 4.90326 7.40135 4.79834 7.31907 4.82861C7.27829 4.84152 7.24315 4.87385 7.22115 4.91871C7.19915 4.96357 7.19203 5.0174 7.20131 5.06873C7.25769 5.32883 7.29814 5.59393 7.3223 5.86172C7.37185 6.21143 7.31425 6.57165 7.16098 6.87062C6.88527 7.30771 6.51607 7.63796 6.09626 7.82302C6.0841 7.8318 6.06976 7.83461 6.05604 7.83088C6.04232 7.82715 6.0302 7.81715 6.02205 7.80285L6.10594 7.73223C6.36401 7.5774 6.58244 7.33562 6.73671 7.03407C6.98484 6.59191 7.11472 6.06287 7.10774 5.52273C7.08697 5.19937 7.00515 4.88679 6.86899 4.61068C6.57053 3.9583 6.16803 3.38962 5.6865 2.93995C5.52439 2.781 5.33383 2.67371 5.13121 2.62731C4.92859 2.58091 4.72 2.5968 4.52338 2.67359C4.1866 2.81136 3.84201 2.91726 3.49253 2.99039C3.34078 3.00304 3.19019 3.03207 3.04244 3.07715C2.92345 3.11122 2.81122 3.17508 2.71251 3.26491C2.6138 3.35473 2.53067 3.46864 2.46813 3.59976C2.29617 3.95932 2.19139 4.36285 2.16163 4.78018C2.11308 4.79149 2.06295 4.78514 2.0172 4.76189C1.97145 4.73865 1.93199 4.69947 1.90351 4.64902C1.86479 4.58849 1.82285 4.5219 1.74219 4.53602C1.79618 3.96876 1.98565 3.43505 2.28585 3.00452C2.37589 2.85662 2.48491 2.72843 2.60849 2.62517C2.64787 2.61124 2.6862 2.59301 2.72303 2.57068C3.01263 2.40791 3.32271 2.30958 3.63933 2.28012C4.03367 2.23909 4.42966 2.22832 4.82505 2.24784C5.18297 2.2415 5.5398 2.29855 5.88493 2.41733C6.22181 2.57862 6.52711 2.82839 6.78027 3.14979C7.08249 3.53285 7.32487 3.98315 7.49492 4.47751C7.75404 5.24136 7.86462 6.0712 7.81756 6.89888C7.81558 7.16417 7.74972 7.42256 7.62856 7.64033C7.50741 7.8581 7.33659 8.02514 7.13839 8.11965Z" fill="#DC968F"/>
<path d="M13.885 11.8001C13.8754 11.5983 13.7237 11.5661 13.6205 11.4914C13.5488 11.454 13.4869 11.3925 13.4414 11.3138C13.7124 11.3138 13.977 11.2271 14.248 11.1988C14.5916 11.1585 14.932 11.0919 15.2724 11.0354C15.7273 10.9607 16.1823 10.8901 16.6372 10.8053C17.1212 10.7125 17.6164 10.6197 18.1068 10.5168C18.6408 10.4058 19.1732 10.2726 19.7007 10.1132L20.0508 10.0184C20.2374 10.0688 20.4266 10.1032 20.617 10.1213C20.8638 10.1738 21.1106 10.2161 21.3558 10.2767C20.404 10.317 19.491 10.6096 18.586 10.9304C18.2633 11.0455 17.9407 11.1907 17.6083 11.2957C17.489 11.334 17.3696 11.4167 17.2389 11.3239C17.1873 11.2876 17.1841 11.4107 17.1663 11.3945C17.0292 11.2694 16.9485 11.4672 16.8437 11.4793C16.4517 11.5277 16.0613 11.5983 15.6693 11.6407C15.4176 11.669 15.1659 11.6912 14.9143 11.7154C14.6384 11.7436 14.3609 11.7416 14.0851 11.7557C14.0125 11.7699 13.948 11.788 13.885 11.8001Z" fill="#DC968F"/>
<path d="M6.03193 7.80689C6.04008 7.82119 6.0522 7.83118 6.06592 7.83491C6.07964 7.83864 6.09399 7.83584 6.10615 7.82706C6.52282 7.63889 6.88853 7.30735 7.16119 6.87063C7.31446 6.57165 7.37205 6.21143 7.32251 5.86172C7.29949 5.59336 7.26012 5.32758 7.20475 5.06671C7.19547 5.01538 7.20259 4.96155 7.22459 4.91669C7.24659 4.87183 7.28172 4.8395 7.32251 4.82659C7.40478 4.79632 7.41769 4.90124 7.44673 4.97388C7.54948 5.25507 7.61643 5.55465 7.64515 5.86172C7.70968 6.4146 7.73388 6.96344 7.52577 7.47597C7.45965 7.64072 7.36483 7.78483 7.2483 7.89769C7.20223 7.93582 7.16229 7.98441 7.13053 8.04095C6.85382 8.20956 6.5603 8.33104 6.25779 8.40214C5.99 8.44654 5.7222 8.47276 5.45118 8.50908C5.13408 8.54151 4.81516 8.5334 4.49938 8.48487C4.23225 8.46603 3.97092 8.37981 3.73111 8.2314C3.49131 8.08299 3.27798 7.87543 3.10394 7.62124C2.99575 7.46353 2.91499 7.27936 2.86681 7.08047C2.85432 7.02539 2.84888 6.96819 2.85068 6.91098C2.85068 6.86054 2.86035 6.81817 2.90391 6.80001C2.94746 6.78185 2.96037 6.82825 2.97812 6.86054C3.08492 7.06856 3.20756 7.26318 3.34432 7.44167C3.61307 7.81119 3.97764 8.04991 4.37354 8.11561C4.73495 8.16916 5.10065 8.15693 5.45925 8.07929C5.51893 8.06516 5.58346 8.07928 5.59959 7.97436C5.69155 7.92593 5.80608 7.95216 5.87706 7.83715H5.9303C5.9303 7.86338 5.9303 7.89768 5.9674 7.88759C6.00451 7.87751 5.98031 7.8533 5.98837 7.83514C5.98757 7.8244 5.98757 7.81359 5.98837 7.80285L6.03193 7.80689Z" fill="#F2CBC5"/>
<path d="M2.16001 4.7842C2.18977 4.36687 2.29455 3.96335 2.46652 3.60379C2.51492 3.66029 2.46652 3.71477 2.45523 3.75917C2.3471 4.16205 2.27619 4.57908 2.2439 5.00213C2.21433 5.35193 2.2057 5.70402 2.21808 6.05543C2.23358 6.5965 2.33046 7.12907 2.50362 7.62527C2.61528 7.96036 2.77064 8.26994 2.96338 8.54136C3.17646 8.83028 3.46015 9.0226 3.76999 9.08818C4.11073 9.17847 4.45955 9.21171 4.80729 9.18705C5.11057 9.16889 5.41064 9.20521 5.71231 9.19916C6.03858 9.1805 6.36064 9.09953 6.66733 8.95904C6.8881 8.86382 7.1001 8.73936 7.29971 8.58777C7.34779 8.54964 7.4042 8.5313 7.46103 8.5353L7.43199 8.60392C7.3836 8.60392 7.34165 8.60391 7.32068 8.67453C7.30275 8.67377 7.28508 8.67995 7.27006 8.69223C7.25505 8.70451 7.24342 8.7223 7.23679 8.74314C7.08838 8.83193 6.93835 8.92071 6.78832 9.00546C6.32322 9.26182 5.81875 9.38719 5.31062 9.3727C4.88312 9.3727 4.454 9.37269 4.02005 9.32426C3.60361 9.32353 3.20184 9.13185 2.8908 8.78551C2.68898 8.51613 2.5219 8.20911 2.39554 7.87548C2.2433 7.49692 2.14813 7.0865 2.11483 6.6648C2.07045 6.20304 2.07045 5.7363 2.11483 5.27454C2.14871 5.11715 2.16001 4.94966 2.16001 4.7842Z" fill="#DC968F"/>
<path d="M5.52688 11.5217C5.36556 11.5217 5.20424 11.5217 5.04291 11.5217C4.49119 11.4894 4.02175 11.1282 3.51681 10.9163C3.20734 10.7896 2.90724 10.6296 2.61986 10.4381C2.17945 10.1455 1.71485 9.87514 1.41641 9.34446C1.2364 9.03114 1.14759 8.65016 1.16475 8.26493C1.16475 8.19632 1.12603 8.14992 1.1228 8.08333C1.16797 8.03894 1.20991 8.10553 1.25186 8.08333C1.28434 8.39053 1.35058 8.69065 1.44868 8.9752C1.58903 9.29237 1.79097 9.56022 2.03588 9.75407C2.61341 10.2565 3.27161 10.541 3.91528 10.8679C4.22827 11.0475 4.55188 11.1966 4.88321 11.3138C5.05439 11.3793 5.22982 11.4259 5.4075 11.4531C5.43026 11.4524 5.45283 11.4583 5.47351 11.4702C5.49419 11.482 5.51244 11.4997 5.52688 11.5217Z" fill="#DC968F"/>
<path d="M5.88828 7.8432C5.8173 7.95822 5.70277 7.93198 5.61082 7.98041C5.28788 8.0734 4.95587 8.10738 4.62514 8.0813C4.22228 8.0687 3.83735 7.87036 3.54429 7.52439C3.23992 7.12725 3.04007 6.62307 2.9716 6.07964C2.91669 5.80747 2.91669 5.52249 2.9716 5.25032C3.00386 5.11311 3.01193 4.94159 3.13292 4.84676C3.07252 5.08814 3.04525 5.34057 3.05226 5.59335C3.11679 6.40047 3.32972 7.10671 3.88951 7.58089C4.13341 7.78133 4.41728 7.89245 4.70902 7.90171C4.97837 7.91644 5.24822 7.90227 5.51563 7.85935C5.63662 7.84522 5.76729 7.76047 5.88828 7.8432Z" fill="#DC968F"/>
<path d="M5.88826 2.43145C5.54313 2.31268 5.18629 2.25561 4.82837 2.26195C4.43298 2.24243 4.037 2.25322 3.64266 2.29424C3.32604 2.32371 3.01596 2.42203 2.72636 2.58481C2.68953 2.60713 2.6512 2.62536 2.61182 2.63929C2.6344 2.51217 2.72797 2.48392 2.80217 2.43751C3.11096 2.26003 3.44254 2.15276 3.7814 2.12072C4.14839 2.08308 4.51681 2.07162 4.88484 2.0864C5.10908 2.0864 5.3317 2.12474 5.55755 2.11264C5.67064 2.12315 5.78064 2.16375 5.88019 2.23169C5.96085 2.27205 5.88503 2.35478 5.88826 2.43145Z" fill="#DC968F"/>
<path d="M5.06381 3.42825C4.64853 3.34925 4.22416 3.39631 3.82647 3.56546C3.68164 3.62009 3.54205 3.69452 3.41026 3.78741C3.37597 3.82659 3.33085 3.84758 3.28442 3.84593C3.41027 3.67662 3.56933 3.55141 3.74581 3.48273C4.13233 3.276 4.55237 3.18612 4.97185 3.22041C5.02025 3.22041 5.07671 3.20427 5.10737 3.27489C5.13802 3.34552 5.07187 3.3778 5.06381 3.42825Z" fill="#DC968F"/>
<path d="M5.11067 5.54896C5.03413 5.62633 4.94467 5.6812 4.84889 5.70949C4.75311 5.73778 4.65347 5.73877 4.55734 5.71241C4.30544 5.63708 4.0621 5.52252 3.83301 5.3714C3.85882 5.23822 3.92174 5.21401 4.02015 5.26244C4.11855 5.31087 4.27341 5.36332 4.3944 5.43193C4.59898 5.55334 4.83038 5.58463 5.05098 5.52071C5.06202 5.51637 5.07391 5.5168 5.08474 5.52192C5.09556 5.52704 5.10469 5.53657 5.11067 5.54896Z" fill="#DC968F"/>
<path d="M6.03185 7.80688H6.00604C5.99152 7.76854 5.92054 7.7423 5.98184 7.68984C5.99228 7.67872 6.00473 7.67097 6.01812 7.66727C6.03151 7.66356 6.04542 7.66403 6.05863 7.66861C6.07184 7.67319 6.08396 7.68174 6.09392 7.69354C6.10387 7.70533 6.11136 7.71999 6.11574 7.73625L6.03185 7.80688Z" fill="#DC968F"/>
<path d="M1.2229 7.9098C1.15999 7.9098 1.14062 7.85531 1.14062 7.78267C1.14062 7.71003 1.17773 7.69994 1.22129 7.69994C1.22129 7.77056 1.2229 7.83917 1.2229 7.9098Z" fill="#DC968F"/>
<path d="M5.99948 7.83917C5.99948 7.85733 5.98819 7.88962 5.97851 7.89164C5.96883 7.89366 5.94786 7.86742 5.94141 7.84119L5.99948 7.83917Z" fill="#DC968F"/>
<path d="M14.3575 14.8208L14.3301 14.7158C14.4938 14.6743 14.6555 14.6204 14.814 14.5544C15.298 14.4515 15.7917 14.2982 16.2805 14.165C16.7951 14.0217 17.3113 13.8785 17.8259 13.7392C18.6336 13.52 19.4402 13.3014 20.2457 13.0834C20.4095 13.0344 20.5762 13.0027 20.7442 12.9886C20.8853 12.948 21.0239 12.8948 21.1588 12.8292C21.5847 12.7162 22.0171 12.6395 22.4494 12.5265C22.8059 12.4297 23.156 12.3046 23.4173 11.9494C23.4999 11.8359 23.5486 11.6902 23.5554 11.537C23.5621 11.3837 23.5265 11.2322 23.4544 11.108L23.306 10.8659C23.8339 11.062 24.3433 11.3285 24.8257 11.6609C24.6514 11.9575 24.3804 12.0645 24.1239 12.1835C23.2045 12.5726 22.2658 12.886 21.3137 13.1218C20.6265 13.3115 19.9424 13.5253 19.2552 13.6948L17.9066 14.048C17.2516 14.2215 16.5945 14.3802 15.9352 14.5242C15.569 14.6049 15.2077 14.7259 14.8366 14.7582C14.7067 14.7943 14.5744 14.8152 14.4414 14.8208C14.4204 14.7663 14.3849 14.8107 14.3575 14.8208Z" fill="#DC968F"/>
<path d="M0.775897 8.65437C0.63232 8.64428 0.604895 8.67857 0.624254 8.87027C0.624254 8.92676 0.624256 8.96309 0.585538 8.97923C0.546821 8.99538 0.529075 8.94896 0.514557 8.91264C0.451641 8.75526 0.391955 8.59383 0.325813 8.43645C0.303228 8.37793 0.325813 8.34968 0.356465 8.31941C0.387116 8.28914 0.403251 8.2508 0.450034 8.27905C0.572638 8.35976 0.696852 8.43039 0.819457 8.50908C0.845268 8.52523 0.892047 8.5333 0.875915 8.5898C0.873442 8.60281 0.868756 8.61499 0.86217 8.62552C0.855584 8.63604 0.847258 8.64467 0.837761 8.6508C0.828263 8.65693 0.817816 8.66042 0.807139 8.66103C0.796462 8.66165 0.785805 8.65938 0.775897 8.65437Z" fill="#DC968F"/>
<path d="M2.19389 12.8776C2.09387 12.7646 1.95675 12.7223 1.86157 12.6012C1.89706 12.5285 1.92771 12.4519 1.96643 12.3833C1.98578 12.349 2.01644 12.3046 2.05838 12.3469C2.06575 12.3541 2.07171 12.3633 2.07582 12.3738C2.07992 12.3843 2.08206 12.3958 2.08206 12.4075C2.08206 12.4192 2.07992 12.4307 2.07582 12.4412C2.07171 12.4517 2.06575 12.4608 2.05838 12.468C2.0245 12.5164 1.98256 12.5608 2.02934 12.6294C2.07613 12.698 2.12936 12.6738 2.18099 12.6516C2.23261 12.6294 2.24874 12.5729 2.28745 12.6375C2.32617 12.7021 2.28746 12.7424 2.25358 12.7848C2.23198 12.814 2.21203 12.845 2.19389 12.8776Z" fill="#DC968F"/>
<path d="M14.3577 14.8208C14.3851 14.8208 14.4125 14.7663 14.4399 14.8208C14.4206 14.8611 14.3883 14.8551 14.3577 14.8551V14.8208Z" fill="#F2CBC5"/>
<path d="M18.6359 3.85804C18.6827 4.03763 18.6843 4.19501 18.5375 4.28177C18.501 4.30008 18.4608 4.3033 18.4228 4.29095C18.3848 4.2786 18.3509 4.25135 18.3262 4.21318C18.2856 4.17866 18.2563 4.12709 18.2436 4.06785C18.2309 4.00861 18.2356 3.94561 18.2568 3.89032C18.2888 3.82336 18.3403 3.77456 18.4005 3.75423C18.4607 3.7339 18.5249 3.74363 18.5794 3.78136L18.6052 3.7289C18.5439 3.66231 18.4794 3.59976 18.4181 3.52712C18.3859 3.4908 18.36 3.44439 18.3955 3.39193C18.4012 3.38067 18.4091 3.3714 18.4184 3.36497C18.4277 3.35854 18.4381 3.35517 18.4488 3.35517C18.4594 3.35517 18.4699 3.35854 18.4792 3.36497C18.4885 3.3714 18.4963 3.38067 18.502 3.39193C18.5504 3.46255 18.5907 3.45045 18.644 3.39193C18.673 3.36374 18.7088 3.34878 18.7456 3.34955C18.8505 3.36166 18.8795 3.30919 18.8811 3.18207C18.8785 3.14981 18.8821 3.11725 18.8917 3.08713C18.9013 3.05701 18.9166 3.03022 18.9362 3.00903C18.9558 2.98785 18.9793 2.9729 19.0045 2.96544C19.0297 2.95798 19.056 2.95823 19.0811 2.96617C19.1009 2.96678 19.1202 2.97437 19.1366 2.98807C19.1531 3.00177 19.1662 3.02102 19.1743 3.0436C19.1824 3.06618 19.1852 3.09117 19.1824 3.11568C19.1796 3.14018 19.1714 3.16319 19.1586 3.18207C19.1441 3.21234 19.1182 3.24059 19.1344 3.27489C19.1505 3.3092 19.1876 3.27489 19.2118 3.26077C19.236 3.24664 19.257 3.23655 19.2763 3.26077C19.2957 3.28498 19.2892 3.32534 19.2763 3.35359C19.2247 3.42825 19.1731 3.5029 19.0811 3.48474C18.9892 3.46658 18.9521 3.50492 18.9666 3.61792C18.9811 3.73092 18.9037 3.8197 18.8375 3.90243C18.7714 3.98516 18.7214 3.86409 18.6359 3.85804Z" fill="#F2CBC5"/>
<path d="M7.33203 8.67454C7.353 8.60997 7.39495 8.6019 7.44334 8.60392C7.44173 8.71288 7.40463 8.73911 7.33203 8.67454Z" fill="#DC968F"/>
<path d="M11.1765 13.1359C11.2378 13.2832 11.2765 13.4204 11.149 13.5395C11.078 13.604 11.0071 13.6464 10.9232 13.5677C10.8785 13.5372 10.8433 13.4888 10.8234 13.4302C10.8035 13.3716 10.8 13.3063 10.8135 13.2449C10.8225 13.187 10.8494 13.1358 10.8883 13.1026C10.9273 13.0693 10.9752 13.0567 11.0216 13.0673C11.1539 13.1077 11.141 13.0189 11.1345 12.924C11.1381 12.8491 11.162 12.778 11.2023 12.7223C11.2058 12.7114 11.2113 12.7017 11.2183 12.6939C11.2253 12.6861 11.2337 12.6805 11.2427 12.6774C11.2517 12.6742 11.2612 12.6737 11.2704 12.6759C11.2797 12.6781 11.2883 12.6829 11.2958 12.69C11.3394 12.7263 11.3233 12.7687 11.2958 12.805C11.2832 12.8158 11.2725 12.8297 11.2643 12.846C11.2562 12.8622 11.2508 12.8803 11.2486 12.8993C11.2463 12.9182 11.2472 12.9375 11.2511 12.956C11.2551 12.9745 11.2621 12.9918 11.2716 13.0068C11.3184 13.0774 11.3781 13.0512 11.433 13.0068C11.4652 12.9846 11.5104 12.9604 11.5346 13.0068C11.5588 13.0532 11.5136 13.0855 11.491 13.1177C11.3959 13.2408 11.2926 13.1985 11.1765 13.1359Z" fill="#F2CBC5"/>
<path d="M6.49966 13.3901C6.49357 13.4485 6.4755 13.5039 6.44723 13.5509C6.41896 13.5979 6.38145 13.635 6.33834 13.6585C6.26252 13.7069 6.23025 13.598 6.17702 13.5475C6.09958 13.4588 6.02537 13.3619 5.95116 13.2671C5.92697 13.2368 5.88825 13.2045 5.92374 13.152C5.9291 13.1425 5.93621 13.1347 5.9445 13.1293C5.95278 13.1239 5.96199 13.121 5.97133 13.121C5.98067 13.121 5.98988 13.1239 5.99816 13.1293C6.00645 13.1347 6.01356 13.1425 6.01892 13.152C6.07377 13.2307 6.10926 13.2085 6.16088 13.1399C6.18534 13.1082 6.21838 13.0889 6.25357 13.0859C6.28876 13.0829 6.32358 13.0964 6.35124 13.1238C6.39238 13.1482 6.42773 13.1856 6.45376 13.2323C6.47979 13.279 6.49561 13.3334 6.49966 13.3901ZM6.38835 13.3901C6.38681 13.356 6.37526 13.3237 6.35592 13.2996C6.33658 13.2754 6.31079 13.2609 6.28349 13.259C6.24316 13.259 6.19638 13.2711 6.20606 13.3276C6.21348 13.3639 6.22819 13.3972 6.2488 13.4244C6.26941 13.4516 6.29523 13.4718 6.32382 13.483C6.36899 13.5052 6.38351 13.4466 6.38835 13.3922V13.3901Z" fill="#F2CBC5"/>
<path d="M11.4909 12.5669C11.4909 12.4942 11.4909 12.4196 11.507 12.3469C11.51 12.3365 11.515 12.327 11.5214 12.3193C11.5278 12.3116 11.5356 12.3059 11.5441 12.3025C11.5487 12.3019 11.5533 12.3026 11.5576 12.3045C11.562 12.3064 11.5659 12.3095 11.5692 12.3135C11.5724 12.3176 11.5749 12.3225 11.5764 12.328C11.578 12.3334 11.5785 12.3392 11.578 12.3449C11.5506 12.6395 11.7393 12.5608 11.8716 12.6173C11.8664 12.6474 11.8535 12.6744 11.8348 12.6945C11.8162 12.7145 11.7929 12.7264 11.7683 12.7283C11.6861 12.7283 11.6312 12.7404 11.6538 12.8796C11.6538 12.9361 11.6038 12.9523 11.5618 12.9039C11.4522 12.7747 11.3424 12.6436 11.2295 12.5185C11.2212 12.5106 11.2144 12.5003 11.2097 12.4886C11.2051 12.4769 11.2026 12.464 11.2026 12.4509C11.2026 12.4378 11.2051 12.4248 11.2097 12.4131C11.2144 12.4014 11.2212 12.3912 11.2295 12.3833C11.2618 12.3348 11.2989 12.3611 11.3231 12.3974C11.3473 12.4337 11.4118 12.5306 11.4554 12.5992L11.4909 12.5669Z" fill="#F2CBC5"/>
<path d="M4.71709 7.11074C4.56723 7.12234 4.41731 7.08967 4.27942 7.01536C4.14154 6.94104 4.01957 6.82717 3.92339 6.68297C3.84922 6.58389 3.79663 6.46265 3.77064 6.33087C3.74466 6.19909 3.74615 6.06118 3.77498 5.93033C3.78944 5.85368 3.82365 5.7851 3.87233 5.73515C3.92101 5.6852 3.98146 5.65664 4.04438 5.65388C4.1028 5.65735 4.15807 5.68809 4.19928 5.74C4.24049 5.79192 4.26465 5.86126 4.267 5.93436C4.27507 6.00094 4.29765 6.06753 4.30411 6.13614C4.31017 6.21193 4.32966 6.28507 4.36116 6.35026C4.39267 6.41544 4.43539 6.47104 4.48622 6.51297C4.53706 6.55491 4.59472 6.58215 4.65503 6.59271C4.71533 6.60326 4.77677 6.59688 4.83486 6.57401C4.96482 6.53678 5.08723 6.46636 5.19442 6.36718C5.3016 6.268 5.39125 6.1422 5.45775 5.99765C5.52424 5.8531 5.56614 5.69293 5.58082 5.52718C5.5955 5.36142 5.58264 5.19367 5.54305 5.03442C5.47207 4.69543 5.40916 4.35241 5.34463 4.0114C5.32527 3.91858 5.31398 3.80962 5.38658 3.75917C5.45917 3.70873 5.5237 3.78338 5.57371 3.854C5.71057 4.07815 5.80789 4.33605 5.85925 4.61068C5.94121 4.91606 5.98634 5.23501 5.99315 5.55703C6.00123 5.76415 5.97276 5.97095 5.90975 6.16275C5.84674 6.35455 5.75073 6.52665 5.62856 6.66682C5.50929 6.81539 5.36677 6.93151 5.20991 7.0079C5.05306 7.0843 4.88527 7.11931 4.71709 7.11074Z" fill="#F2CBC5"/>
<path d="M6.38842 13.3922C6.38842 13.4467 6.36905 13.5052 6.32388 13.485C6.2953 13.4738 6.26947 13.4536 6.24886 13.4264C6.22825 13.3992 6.21354 13.3659 6.20612 13.3296C6.19644 13.2731 6.24322 13.255 6.28355 13.261C6.31086 13.2629 6.33664 13.2774 6.35598 13.3016C6.37532 13.3258 6.38687 13.358 6.38842 13.3922Z" fill="#DC968F"/>
</g>
<defs>
<clipPath id="clip0_173_962">
<rect width="25" height="17" fill="white"/>
</clipPath>
</defs>
</svg>
