<svg width="16" height="23" viewBox="0 0 16 23" fill="none" xmlns="http://www.w3.org/2000/svg">
<g clip-path="url(#clip0_177_1417)">
<path d="M9.46922 0.155133L10.9409 0.57684C12.2636 1.11923 13.4205 1.99583 14.2964 3.11955C15.3239 4.44815 15.8948 5.96833 15.9302 7.62909C15.985 10.3645 16.0695 13.1045 15.8959 15.8376C15.6813 19.1988 12.9434 22.2165 9.62448 22.8457C5.22774 23.6789 1.19408 21.0613 0.1985 16.7241C0.0733939 16.1705 0.0120973 15.6046 0.0158148 15.0373C0.0238068 12.8834 0.0854494 10.7295 0.00552936 8.58132C-0.148602 4.45948 2.35062 1.25247 6.09088 0.227683C6.31922 0.183472 6.54757 0.214082 6.75308 0.0814488L7.89479 -0.00244141L8.83671 0.0519736L9.46922 0.155133ZM1.63933 14.687L1.62336 14.6711L1.5183 14.5793L1.39159 14.4535L1.29796 14.356L1.27742 14.3367L0.465644 13.3765C0.440526 14.9534 0.392569 16.4158 0.945159 17.8283C1.13811 18.3248 1.35275 18.5232 1.88593 18.3531C2.18734 18.2568 2.52188 18.2624 2.83699 18.2001C3.97462 17.9927 5.08817 17.6714 6.16054 17.241L5.42525 17.0143V17.0313L5.18093 16.9282C3.95245 16.3466 2.7582 15.7095 1.7455 14.7868L1.63933 14.687ZM12.4925 13.3459L12.4765 13.3618L12.6089 13.2337L12.5929 13.2518L12.7265 13.1215L12.7083 13.1419L12.8441 13.0115L12.835 13.0308C12.8892 13.0102 12.9364 12.9748 12.9712 12.9286C13.0059 12.8825 13.0268 12.8275 13.0314 12.77L13.1581 12.6487L13.2357 12.5558L14.6401 11.1444C15.2497 10.6298 15.6391 10.0482 15.5534 9.17761C15.4701 8.38407 15.5683 7.57013 15.4164 6.7732C14.8102 2.23872 9.50118 -1.04877 5.14668 1.10511C5.01652 1.06543 4.89093 1.05069 4.80416 1.18219L4.82016 1.16972L4.57468 1.29442L4.58953 1.28195L4.34862 1.41118L4.3589 1.40211L3.99356 1.6175V1.60957C3.00484 2.17637 2.24672 2.96991 1.64047 3.91648C0.996546 4.91973 0.564991 6.00234 0.512472 7.20398C0.498772 8.92708 0.48544 10.6502 0.472501 12.3733C0.472501 12.4866 0.472508 12.6 0.59353 12.6669C1.3208 13.9535 2.42026 14.865 3.66473 15.6143L3.65673 15.6052C4.50928 16.1709 5.44744 16.5976 6.43568 16.8692C6.76449 16.961 7.00654 16.9463 7.23488 16.7252L7.22459 16.7354C7.44168 16.7326 7.65047 16.6521 7.81259 16.5087L7.80231 16.5167L8.04322 16.3954L8.02837 16.4067L8.26699 16.2797L8.25785 16.2865L8.40171 16.1981L8.43025 16.2174L9.42697 15.6256L9.41899 15.6404L9.64734 15.4919L9.63934 15.5009C9.69581 15.4928 9.74717 15.464 9.78331 15.4201C9.81944 15.3763 9.83773 15.3206 9.83457 15.264L9.96471 15.2391C10.0492 15.2663 10.0503 15.1903 10.0789 15.1472C10.1679 15.1257 10.2764 15.1552 10.3278 15.0452L10.3164 15.0543L10.4305 14.9149L10.418 14.9273C10.5036 14.8956 10.6166 14.9217 10.6623 14.814L10.6532 14.8219L10.7959 14.7085L10.7879 14.7267L11.1213 14.475L11.1099 14.4852L11.2514 14.3719L11.2423 14.3889C11.3004 14.3779 11.3525 14.346 11.3885 14.2994C11.4245 14.2528 11.4419 14.1946 11.4375 14.1361L11.796 13.8946C12.0575 13.839 12.2048 13.6327 12.3749 13.4593L12.3635 13.4695L12.4925 13.3459ZM4.56099 21.7347C4.75976 21.8966 4.99876 22.0023 5.25288 22.0408C5.54597 22.1695 5.84726 22.2789 6.15482 22.3684C9.04793 23.027 11.5152 22.2188 13.5497 20.1295C14.6119 19.0396 15.2787 17.6298 15.4449 16.1222C15.6413 14.5226 15.4952 12.9163 15.5317 11.3133C15.5317 11.1852 15.6288 11.0186 15.4575 10.912C14.3261 12.235 13.1319 13.4786 11.7561 14.5464C9.94418 15.951 7.9964 17.1073 5.80888 17.8339C4.76535 18.174 3.70013 18.4529 2.64519 18.7601C2.25815 18.6297 1.90192 18.836 1.43153 18.8066C2.24557 20.1295 3.23316 21.1203 4.56896 21.754L4.56099 21.7347Z" fill="#71ACAB"/>
<path d="M2.64203 18.7558C3.69698 18.4485 4.7622 18.1731 5.80572 17.8296C7.99325 17.1086 9.94103 15.9523 11.7529 14.5421C13.1287 13.4742 14.3229 12.2306 15.4544 10.9077C15.6256 11.0143 15.532 11.1809 15.5286 11.309C15.4921 12.912 15.6428 14.5183 15.4418 16.1178C15.2755 17.6254 14.6087 19.0353 13.5466 20.1252C11.512 22.2144 9.04477 23.0227 6.15167 22.3641C5.8441 22.2746 5.54281 22.1652 5.24972 22.0365C5.13555 21.6816 4.84555 21.7043 4.55784 21.7304L4.56584 21.7406C4.54186 21.4005 4.22332 21.3325 4.02009 21.1613C3.27227 20.5163 2.53585 19.8667 2.12598 18.8827C2.30693 18.8928 2.48674 18.8485 2.64203 18.7558Z" fill="#A0D1CA"/>
<path d="M9.96614 15.2426L9.83485 15.2642C9.68072 15.2755 9.59508 15.3424 9.62705 15.509L9.63505 15.4999C9.51517 15.4818 9.41812 15.4999 9.4067 15.6485L9.41471 15.6337C9.00597 15.7029 8.58354 15.7471 8.41799 16.2255L8.38945 16.2051C8.37405 16.2007 8.35789 16.1996 8.34203 16.2018C8.32618 16.204 8.31097 16.2096 8.29741 16.218C8.28384 16.2265 8.27222 16.2376 8.26329 16.2508C8.25436 16.264 8.24834 16.279 8.24559 16.2946L8.2547 16.2878C8.14852 16.281 8.04579 16.2799 8.0161 16.4148L8.03093 16.4034C7.92589 16.3955 7.82201 16.3898 7.79005 16.5247L7.8003 16.5157C7.57196 16.4975 7.32308 16.4533 7.21233 16.7424L7.22262 16.7322C6.59581 16.7821 6.04321 16.5361 5.46893 16.3354C4.84898 16.1178 4.32721 15.6473 3.64218 15.6122L3.65018 15.6212C3.66689 15.5366 3.65319 15.4489 3.61147 15.3733C3.56974 15.2977 3.50264 15.239 3.42184 15.2075C2.92063 14.9558 2.56098 14.5273 2.12941 14.1963C1.38958 13.6181 0.900932 12.938 1.0231 11.8939C1.12585 11.0188 1.02309 10.1209 1.04935 9.2333C1.08018 8.14956 1.03452 7.07942 1.3131 5.98774C1.72297 4.3746 2.66831 3.16957 3.7655 2.02008C3.87967 1.89652 4.05548 1.82623 3.98356 1.61198V1.61991C4.17765 1.66866 4.35232 1.68566 4.3489 1.40452L4.33864 1.41359C4.45281 1.42493 4.54984 1.41926 4.57953 1.28436L4.5647 1.29683C4.67887 1.31043 4.77819 1.31043 4.81016 1.17213L4.79419 1.1846C4.91977 1.19934 5.04879 1.23448 5.1367 1.10752C9.4912 -1.05203 14.8002 2.24113 15.4064 6.77561C15.2466 7.13383 15.3402 7.49886 15.363 7.86615C15.4247 8.83313 15.725 9.84772 14.8139 10.6344C14.7435 10.6983 14.6902 10.7786 14.6591 10.8681C14.628 10.9576 14.62 11.0535 14.6358 11.1468L13.2315 12.5582L13.1538 12.6512L13.0317 12.7702C12.8764 12.7872 12.793 12.8586 12.8364 13.0264L12.8456 13.0071C12.828 13.0067 12.8105 13.0097 12.7941 13.016C12.7777 13.0224 12.7627 13.0319 12.7501 13.044C12.7374 13.0561 12.7273 13.0707 12.7204 13.0867C12.7135 13.1028 12.7098 13.12 12.7097 13.1375L12.728 13.1171C12.6931 13.1176 12.6598 13.1315 12.6349 13.1558C12.6101 13.18 12.5955 13.2128 12.5944 13.2474L12.6104 13.2293C12.576 13.2299 12.5431 13.2434 12.5185 13.2672C12.4939 13.291 12.4794 13.3233 12.4779 13.3574L12.4939 13.3415C12.46 13.342 12.4275 13.3548 12.4026 13.3776C12.3778 13.4005 12.3623 13.4316 12.3592 13.4651L12.3706 13.4549C12.084 13.4764 11.8363 13.5501 11.7917 13.8902L11.4333 14.1317C11.2734 14.1441 11.1969 14.2201 11.238 14.3845L11.2472 14.3675C11.2136 14.3656 11.1806 14.3762 11.1545 14.3972C11.1283 14.4181 11.1109 14.4479 11.1056 14.4808L11.117 14.4706C10.9275 14.4525 10.7402 14.4366 10.7836 14.7223L10.7916 14.7041C10.7746 14.7018 10.7574 14.7029 10.7409 14.7073C10.7244 14.7118 10.709 14.7196 10.6956 14.7303C10.6823 14.7409 10.6712 14.7541 10.6632 14.7691C10.6551 14.7841 10.6503 14.8006 10.6489 14.8175L10.658 14.8096C10.5496 14.7937 10.4537 14.8016 10.4137 14.9229L10.4262 14.9105L10.3121 15.0499L10.3235 15.0408C10.2173 15.0193 10.1203 15.017 10.0746 15.1429L9.96614 15.2426ZM9.24573 13.5785C9.70242 13.6726 10.0815 13.4311 10.4868 13.2769C13.2383 12.226 15.008 9.40561 14.3949 6.40945C13.9188 4.08667 12.5453 2.486 10.255 1.7038C9.37473 1.40226 8.46593 1.37618 7.5537 1.41586C5.00539 1.52922 3.08959 2.68211 2.03807 5.00376C0.763914 7.81854 1.63504 10.2343 3.34418 11.9699C4.21645 12.8563 5.37758 13.5399 6.74079 13.6193C7.5594 13.9185 8.38945 13.8029 9.21948 13.6794C9.23318 13.6771 9.2366 13.6136 9.24573 13.5785Z" fill="#A0D1CA"/>
<path d="M1.74226 14.7847C2.75496 15.7074 3.94918 16.3445 5.17767 16.9261C5.21877 17.0519 5.31355 17.0553 5.42201 17.0292V17.0122C5.57728 17.239 5.48365 17.3398 5.24047 17.4158C4.22974 17.7128 3.20331 17.9542 2.16583 18.139C1.78678 18.2127 1.62694 18.1073 1.52875 17.799C1.20907 16.7957 0.977296 15.7789 1.04009 14.7144C1.05037 14.5387 1.0401 14.3675 1.27415 14.3358L1.29355 14.3539L1.38832 14.4525L1.51503 14.5784L1.62009 14.6702L1.63606 14.686L1.74226 14.7847Z" fill="#A0D1CA"/>
<path d="M3.98346 1.61768C4.05539 1.83193 3.88186 1.90221 3.76541 2.02578C2.66822 3.1764 1.72288 4.38144 1.313 5.99344C1.03442 7.08739 1.08465 8.15525 1.04926 9.23899C1.023 10.1266 1.12576 11.0244 1.023 11.8996C0.900839 12.9437 1.38949 13.6238 2.12932 14.202C2.56089 14.5421 2.92054 14.9615 3.42175 15.2132C3.50255 15.2447 3.56965 15.3034 3.61137 15.379C3.6531 15.4546 3.6668 15.5423 3.65009 15.6269C2.39991 14.8776 1.30613 13.9662 0.57886 12.6795C0.57886 11.0018 0.58115 9.32402 0.585717 7.64626C0.585717 7.49889 0.618825 7.34132 0.497803 7.21662C0.550322 6.00932 0.981905 4.92671 1.62583 3.92913C2.23665 2.98142 2.99474 2.18108 3.98346 1.61768Z" fill="#E9E9E9"/>
<path d="M1.27758 14.3369C1.04353 14.3686 1.04923 14.5398 1.04352 14.7155C0.980727 15.7799 1.2125 16.7968 1.53218 17.8001C1.63037 18.1073 1.79022 18.2127 2.16926 18.1401C3.20674 17.9553 4.23317 17.7139 5.2439 17.4169C5.48708 17.3409 5.58068 17.2435 5.42541 17.0133L6.1607 17.2401C5.08833 17.6704 3.97478 17.9917 2.83715 18.1991C2.52204 18.2614 2.18751 18.2558 1.88609 18.3521C1.35291 18.5222 1.13827 18.3238 0.945321 17.8273C0.392731 16.4148 0.440689 14.9524 0.465807 13.3755L1.27758 14.3369Z" fill="#E9E9E9"/>
<path d="M2.64185 18.7558C2.48719 18.8505 2.30734 18.8967 2.1258 18.8884C2.53681 19.8724 3.26752 20.5219 4.01991 21.167C4.21971 21.3381 4.54168 21.4073 4.56565 21.7462C3.22985 21.116 2.24227 20.1252 1.42822 18.7988C1.90203 18.8317 2.25824 18.6254 2.64185 18.7558Z" fill="#E9E9E9"/>
<path d="M14.639 11.1491C14.6232 11.0557 14.6312 10.9599 14.6623 10.8704C14.6934 10.7809 14.7466 10.7006 14.8171 10.6367C15.7304 9.85 15.4279 8.83541 15.3662 7.86843C15.3434 7.50114 15.2521 7.13612 15.4096 6.77789C15.5615 7.57143 15.4633 8.38649 15.5466 9.18229C15.638 10.0495 15.2487 10.6345 14.639 11.1491Z" fill="#E9E9E9"/>
<path d="M3.64673 15.619C4.33176 15.6542 4.85352 16.1246 5.47347 16.3423C6.04433 16.5429 6.60033 16.7889 7.22713 16.739C6.9908 16.9658 6.75446 16.9748 6.42793 16.883C5.4389 16.6116 4.49998 16.1849 3.64673 15.619Z" fill="#E9E9E9"/>
<path d="M0.502464 7.21552C0.623486 7.34021 0.590378 7.49778 0.590378 7.64515C0.590378 9.32291 0.588088 11.0007 0.583521 12.6784C0.46935 12.6127 0.461351 12.4959 0.462493 12.3848C0.475432 10.6632 0.488764 8.94013 0.502464 7.21552Z" fill="#FDFDFD"/>
<path d="M8.42236 16.2289C8.58791 15.755 9.01037 15.7063 9.41911 15.6371L8.42236 16.2289Z" fill="#E9E9E9"/>
<path d="M11.7905 13.8948C11.8351 13.5547 12.0828 13.481 12.3694 13.4595C12.1993 13.6329 12.052 13.8392 11.7905 13.8948Z" fill="#E9E9E9"/>
<path d="M4.56128 21.736C4.84899 21.71 5.13214 21.6873 5.25317 22.0421C4.99905 22.0036 4.76005 21.8979 4.56128 21.736Z" fill="#E9E9E9"/>
<path d="M7.2168 16.7492C7.33097 16.4568 7.57072 16.501 7.80477 16.5225C7.64286 16.6663 7.43397 16.7468 7.2168 16.7492Z" fill="#E9E9E9"/>
<path d="M4.34777 1.41022C4.34777 1.69135 4.17651 1.67435 3.98242 1.6256L4.34777 1.41022Z" fill="#E9E9E9"/>
<path d="M10.7824 14.7325C10.7391 14.4469 10.9263 14.4627 11.1158 14.4809L10.7824 14.7325Z" fill="#E9E9E9"/>
<path d="M9.62798 15.5124C9.59602 15.3458 9.68165 15.2789 9.83578 15.2676C9.84085 15.3274 9.8218 15.3868 9.78285 15.4327C9.7439 15.4786 9.68821 15.5072 9.62798 15.5124Z" fill="#E9E9E9"/>
<path d="M11.2368 14.389C11.1957 14.2247 11.2722 14.1487 11.432 14.1362C11.4364 14.1948 11.419 14.253 11.383 14.2996C11.347 14.3462 11.2949 14.3781 11.2368 14.389Z" fill="#E9E9E9"/>
<path d="M12.8352 13.031C12.7918 12.8632 12.8751 12.7918 13.0304 12.7748C13.0251 12.8313 13.004 12.8852 12.9695 12.9305C12.935 12.9757 12.8885 13.0105 12.8352 13.031Z" fill="#E9E9E9"/>
<path d="M5.13988 1.11321C5.0474 1.24017 4.91839 1.20503 4.79736 1.19029C4.88413 1.05879 5.00972 1.07353 5.13988 1.11321Z" fill="#E9E9E9"/>
<path d="M9.41113 15.6519C9.41912 15.5022 9.51617 15.4852 9.63948 15.5034L9.41113 15.6519Z" fill="#E9E9E9"/>
<path d="M4.81113 1.17786C4.77916 1.31616 4.67528 1.31616 4.56567 1.30256L4.81113 1.17786Z" fill="#E9E9E9"/>
<path d="M8.02051 16.4182C8.05019 16.2833 8.15293 16.2844 8.25911 16.2912L8.02051 16.4182Z" fill="#E9E9E9"/>
<path d="M7.79443 16.5282C7.8264 16.3933 7.93031 16.3989 8.03535 16.4069L7.79443 16.5282Z" fill="#E9E9E9"/>
<path d="M4.58296 1.29004C4.55327 1.42494 4.45165 1.43061 4.34204 1.41927L4.58296 1.29004Z" fill="#E9E9E9"/>
<path d="M5.42208 17.0292C5.31361 17.0553 5.21884 17.0519 5.17773 16.9261L5.42208 17.0292Z" fill="#E9E9E9"/>
<path d="M10.4124 14.9366C10.4523 14.8119 10.5482 14.8039 10.6567 14.8232C10.611 14.9309 10.498 14.9048 10.4124 14.9366Z" fill="#E9E9E9"/>
<path d="M10.0735 15.1565C10.1192 15.0306 10.2162 15.0329 10.3224 15.0545C10.271 15.1644 10.1625 15.1349 10.0735 15.1565Z" fill="#E9E9E9"/>
<path d="M12.7085 13.1421C12.7086 13.1246 12.7123 13.1073 12.7192 13.0913C12.7262 13.0753 12.7363 13.0607 12.7489 13.0486C12.7616 13.0365 12.7765 13.0269 12.7929 13.0206C12.8093 13.0143 12.8268 13.0112 12.8444 13.0117L12.7085 13.1421Z" fill="#E9E9E9"/>
<path d="M12.593 13.252C12.5942 13.2174 12.6087 13.1846 12.6336 13.1603C12.6584 13.1361 12.6918 13.1222 12.7266 13.1216L12.593 13.252Z" fill="#E9E9E9"/>
<path d="M12.4766 13.362C12.478 13.3279 12.4926 13.2956 12.5172 13.2718C12.5418 13.248 12.5747 13.2344 12.609 13.2339L12.4766 13.362Z" fill="#E9E9E9"/>
<path d="M12.3579 13.4697C12.361 13.4362 12.3765 13.405 12.4014 13.3822C12.4262 13.3594 12.4588 13.3465 12.4926 13.3461L12.3579 13.4697Z" fill="#E9E9E9"/>
<path d="M11.1042 14.4911C11.1096 14.4581 11.127 14.4283 11.1531 14.4074C11.1793 14.3865 11.2123 14.3759 11.2458 14.3777L11.1042 14.4911Z" fill="#E9E9E9"/>
<path d="M10.6477 14.8277C10.6491 14.8108 10.6539 14.7943 10.662 14.7793C10.67 14.7643 10.6811 14.7511 10.6944 14.7405C10.7078 14.7298 10.7232 14.7221 10.7397 14.7176C10.7562 14.7131 10.7735 14.712 10.7904 14.7144L10.6477 14.8277Z" fill="#E9E9E9"/>
<path d="M9.96606 15.2426L10.0802 15.1508C10.0517 15.1939 10.0506 15.2698 9.96606 15.2426Z" fill="#E9E9E9"/>
<path d="M8.25 16.298C8.25275 16.2824 8.25877 16.2674 8.2677 16.2542C8.27663 16.241 8.28825 16.2299 8.30182 16.2214C8.31538 16.213 8.33059 16.2075 8.34644 16.2052C8.3623 16.203 8.37843 16.2041 8.39383 16.2085L8.25 16.298Z" fill="#E9E9E9"/>
<path d="M6.74069 13.6193C5.37748 13.54 4.21635 12.8564 3.34408 11.9699C1.63151 10.2343 0.763814 7.81858 2.03797 5.0038C3.08949 2.68215 5.00644 1.52813 7.5536 1.4159C8.46697 1.37622 9.37463 1.4023 10.2549 1.70384C12.5452 2.48604 13.9187 4.08444 14.3948 6.40949C15.0079 9.40565 13.2382 12.2261 10.4867 13.277C10.0814 13.4311 9.70803 13.6726 9.24563 13.5785C8.41332 13.7576 7.57757 13.6771 6.74069 13.6193ZM5.35923 12.6727C5.4186 12.7691 5.51792 12.768 5.61383 12.7748C6.41988 13.1749 7.28873 13.1919 8.16215 13.1942C11.8316 13.2033 14.4861 10.1708 13.9484 6.5818C13.543 3.88038 10.9445 1.76619 8.17583 1.88522C7.89105 1.90522 7.61785 2.00512 7.38803 2.1733C7.15821 2.34148 6.98125 2.57102 6.87772 2.83519C6.67906 3.38159 6.87771 4.04249 7.35495 4.47213C7.81163 4.88477 8.36307 4.77708 8.85629 4.63651C9.25132 4.52315 9.49337 4.15586 9.48538 3.71488C9.47738 3.19341 9.0972 3.23082 8.72043 3.22289C8.3117 3.21495 8.30142 3.44961 8.3448 3.73302C8.37106 3.90306 8.4373 4.11278 8.18726 4.12525C7.99545 4.13545 7.92123 3.9416 7.89612 3.76589C7.82761 3.2739 8.01027 2.91227 8.48066 2.72183C8.70471 2.63754 8.95094 2.63122 9.17907 2.70391C9.4072 2.7766 9.60374 2.924 9.73655 3.122C10.0871 3.65253 9.9375 4.36104 9.37463 4.83263C9.07341 5.08355 8.69649 5.2275 8.30355 5.24167C7.91061 5.25583 7.52414 5.13941 7.20537 4.91085C6.51235 4.41092 6.16071 3.44508 6.44157 2.75697C6.54661 2.50191 6.69845 2.26611 6.83089 2.01785C5.31241 1.92036 3.00843 3.64686 2.30057 5.49466C1.43629 7.74716 2.10534 10.274 4.01314 11.8667C4.03598 11.9801 4.13531 11.9801 4.2198 12.0084L4.21294 11.9994C4.35337 12.1388 4.46297 12.3213 4.6936 12.3293L4.6856 12.3224L4.91394 12.4596L4.89911 12.4472L5.13546 12.5821L5.12174 12.5696L5.37063 12.6829L5.35923 12.6727Z" fill="#71ACAB"/>
<path d="M6.74072 13.6193C7.5776 13.6737 8.41336 13.7576 9.24567 13.5785C9.23653 13.6136 9.23311 13.6783 9.21941 13.6794C8.38938 13.8029 7.55933 13.9186 6.74072 13.6193Z" fill="#E9E9E9"/>
<path d="M4.01193 11.8633C2.1087 10.2763 1.43965 7.74374 2.29936 5.49124C3.00723 3.64344 5.3112 1.91694 6.82968 2.01444C6.69724 2.2627 6.5454 2.49849 6.44037 2.75356C6.1595 3.4428 6.51115 4.40864 7.20417 4.90743C7.52293 5.136 7.90941 5.25242 8.30234 5.23825C8.69528 5.22409 9.0722 5.08014 9.37343 4.82921C9.93629 4.35763 10.0858 3.64911 9.73534 3.11858C9.60253 2.92058 9.40599 2.77319 9.17786 2.7005C8.94973 2.6278 8.7035 2.63412 8.47945 2.71841C8.01363 2.90886 7.82641 3.27049 7.89491 3.76248C7.92003 3.93819 7.99424 4.13204 8.18605 4.12184C8.43609 4.10937 8.36986 3.89511 8.3436 3.7296C8.30021 3.4428 8.31049 3.21154 8.71922 3.21947C9.09599 3.22741 9.47618 3.19 9.48417 3.71146C9.49216 4.15244 9.25012 4.51973 8.85508 4.63309C8.36186 4.77366 7.81613 4.88136 7.35374 4.46872C6.87422 4.03908 6.67785 3.37818 6.87651 2.83177C6.98004 2.5676 7.15701 2.33807 7.38682 2.16989C7.61664 2.00171 7.88984 1.9018 8.17462 1.8818C10.9433 1.76277 13.5407 3.87697 13.9471 6.57839C14.4849 10.1674 11.8304 13.1999 8.16094 13.1908C7.28753 13.1908 6.41867 13.1715 5.61262 12.7713C5.5601 12.658 5.46192 12.658 5.35802 12.6693L5.37285 12.6807C5.33403 12.5469 5.23471 12.5435 5.12396 12.5673L5.13768 12.5798C5.11256 12.4415 5.01322 12.4313 4.90134 12.4449L4.91616 12.4573C4.88876 12.3281 4.79058 12.3168 4.68782 12.3202L4.69582 12.327C4.68326 12.005 4.48689 11.9461 4.21516 11.9971L4.22202 12.0062C4.21631 11.8633 4.24028 11.6785 4.01193 11.8633ZM5.34316 7.84577C5.32832 8.31282 5.63316 8.68011 6.05331 8.70165C6.47346 8.72319 6.82968 8.37178 6.85822 7.9274C6.88677 7.48302 6.52829 7.03864 6.10699 7.02617C5.70968 7.0171 5.35915 7.39346 5.34431 7.84804L5.34316 7.84577ZM10.6362 7.87752C10.6362 7.42407 10.3085 7.04203 9.9032 7.02843C9.49789 7.01483 9.1485 7.38439 9.13594 7.83784C9.1211 8.3423 9.43851 8.70392 9.89063 8.70052C10.3096 8.69939 10.6339 8.3423 10.6339 7.87978L10.6362 7.87752ZM9.26382 9.93617C9.27524 9.76726 9.21016 9.69244 9.11997 9.6607C8.93273 9.59495 8.87678 9.73665 8.77745 9.86361C8.32648 10.4644 7.66087 10.4746 7.22017 9.89876C7.12084 9.76952 7.06147 9.54393 6.84682 9.67997C6.59907 9.83867 6.74177 10.0405 6.85708 10.215C7.36743 10.9836 8.58792 10.995 9.10968 10.2343C9.1693 10.1393 9.22087 10.0396 9.26382 9.93617ZM10.7069 9.13697C10.4432 9.18458 10.1156 9.20611 10.0984 9.53033C10.0813 9.85454 10.369 9.9373 10.6613 9.94297C10.9536 9.94864 11.2915 9.90102 11.2995 9.54507C11.3029 9.21065 10.9639 9.18685 10.7035 9.1313L10.7069 9.13697ZM5.28379 9.93617C5.5795 9.92143 5.88091 9.85681 5.88205 9.536C5.88319 9.21518 5.57837 9.11882 5.30322 9.14716C5.02807 9.17551 4.67756 9.15624 4.70268 9.56887C4.72437 9.9271 5.03947 9.91576 5.28379 9.93617Z" fill="#E7D5C6"/>
<path d="M4.21289 11.9982C4.48462 11.9472 4.68099 12.0062 4.69355 12.3281C4.46863 12.3168 4.35446 12.1377 4.21289 11.9982Z" fill="#E9E9E9"/>
<path d="M4.01196 11.8633C4.24031 11.6763 4.21519 11.8633 4.21862 12.005C4.13527 11.9767 4.03594 11.9767 4.01196 11.8633Z" fill="#E9E9E9"/>
<path d="M4.68555 12.3168C4.79173 12.3168 4.88991 12.3247 4.91389 12.4539L4.68555 12.3168Z" fill="#E9E9E9"/>
<path d="M4.90259 12.446C5.01676 12.4324 5.11381 12.446 5.13893 12.5809L4.90259 12.446Z" fill="#E9E9E9"/>
<path d="M5.12524 12.5684C5.23942 12.5469 5.33531 12.5503 5.37413 12.6818L5.12524 12.5684Z" fill="#E9E9E9"/>
<path d="M5.35913 12.6727C5.46303 12.6603 5.56121 12.6614 5.61373 12.7748C5.51783 12.7702 5.4185 12.7702 5.35913 12.6727Z" fill="#E9E9E9"/>
<path d="M5.34426 7.84806C5.3591 7.39461 5.70963 7.01711 6.10808 7.02845C6.52938 7.04092 6.889 7.47283 6.85931 7.92968C6.82963 8.38652 6.46542 8.72321 6.0544 8.70394C5.64338 8.68467 5.32941 8.31511 5.34426 7.84806Z" fill="#575757"/>
<path d="M10.634 7.87978C10.634 8.34229 10.3063 8.69939 9.88847 8.70279C9.43178 8.70279 9.11896 8.34456 9.13381 7.8401C9.14637 7.38666 9.49687 7.01709 9.90104 7.0307C10.3052 7.0443 10.6409 7.42746 10.634 7.87978ZM9.70009 7.44561C9.65197 7.4595 9.61038 7.48993 9.58277 7.53147C9.55516 7.573 9.54332 7.62293 9.54938 7.67233C9.54925 7.7006 9.55499 7.72859 9.56627 7.75454C9.57755 7.7805 9.59411 7.80386 9.61491 7.82317C9.63571 7.84247 9.66032 7.85729 9.68716 7.86671C9.714 7.87614 9.74252 7.87995 9.77092 7.87791C9.79932 7.87587 9.82697 7.86803 9.85217 7.85488C9.87737 7.84172 9.89958 7.82355 9.91737 7.80148C9.93516 7.77941 9.94815 7.75392 9.95556 7.72662C9.96296 7.69933 9.96463 7.67081 9.96041 7.64286C9.95698 7.51136 9.88505 7.4422 9.70352 7.4422L9.70009 7.44561Z" fill="#575757"/>
<path d="M9.264 9.93617C9.22214 10.0395 9.17172 10.1392 9.11328 10.2343C8.59152 10.995 7.37103 10.9836 6.86068 10.215C6.74651 10.0405 6.60267 9.83868 6.85042 9.67997C7.06507 9.54394 7.12441 9.76953 7.22374 9.89876C7.66444 10.4746 8.33008 10.4656 8.78105 9.86362C8.87696 9.73665 8.9329 9.59495 9.12357 9.6607C9.20691 9.68677 9.27199 9.76159 9.264 9.93617Z" fill="#DC968F"/>
<path d="M10.7037 9.13129C10.964 9.18683 11.3031 9.21064 11.2962 9.53939C11.2882 9.89534 10.9651 9.94296 10.658 9.93729C10.3509 9.93162 10.0792 9.85 10.0952 9.52465C10.1111 9.1993 10.44 9.1789 10.7037 9.13129Z" fill="#DC968F"/>
<path d="M5.28375 9.93616C5.03486 9.91348 4.72433 9.92482 4.70264 9.56886C4.67752 9.15623 5.04515 9.17323 5.30318 9.14715C5.56121 9.12108 5.88429 9.21404 5.88201 9.53598C5.87973 9.85793 5.57946 9.92369 5.28375 9.93616Z" fill="#DC968F"/>
<path d="M9.7034 7.44221C9.88493 7.43314 9.95684 7.50796 9.96369 7.63606C9.96791 7.66402 9.96627 7.69253 9.95886 7.71983C9.95146 7.74712 9.93847 7.77261 9.92068 7.79468C9.90289 7.81675 9.88068 7.83493 9.85548 7.84808C9.83028 7.86123 9.80262 7.86908 9.77423 7.87111C9.74583 7.87315 9.71731 7.86934 9.69047 7.85992C9.66362 7.8505 9.63902 7.83567 9.61822 7.81636C9.59742 7.79706 9.58086 7.7737 9.56958 7.74775C9.5583 7.72179 9.55256 7.6938 9.55269 7.66553C9.54748 7.61667 9.55971 7.56755 9.58725 7.52674C9.61479 7.48592 9.65591 7.45601 9.7034 7.44221Z" fill="#575757"/>
</g>
<defs>
<clipPath id="clip0_177_1417">
<rect width="16" height="23" fill="white"/>
</clipPath>
</defs>
</svg>
