<svg width="26" height="29" viewBox="0 0 26 29" fill="none" xmlns="http://www.w3.org/2000/svg">
<g clip-path="url(#clip0_160_192)">
<path d="M0 3.06612C1.98669 2.06956 3.86068 0.978348 5.85524 0.197407C6.77258 -0.161511 7.92187 0.0803952 8.96633 0.076451C9.05806 0.076451 9.18387 0.265772 9.23498 0.39067C9.95575 2.12741 11.2164 3.08584 13.1206 3.03719C14.9998 2.98855 16.1792 1.94466 16.8397 0.236847C16.867 0.183104 16.8972 0.130878 16.9301 0.080395C18.5027 0.061989 20.0753 -0.137846 21.5693 0.800861C22.7788 1.5634 24.1208 2.11557 25.4037 2.76241C25.5938 2.8597 25.7785 2.96751 26 3.08847C25.3317 4.7621 24.679 6.39629 24.0133 8.06598L20.0347 6.0847V21.0172H5.99415V6.06761L1.99456 8.05941L0 3.06612Z" fill="#E7D5C6"/>
<path d="M18.2945 25.1913C18.0127 25.7356 17.7703 26.2023 17.5291 26.6703L17.6903 26.761C17.8096 26.5757 17.9721 26.4048 18.0402 26.2023C18.3351 25.3241 18.913 25.019 19.8592 25.3004L19.0598 26.6585L19.1804 26.7532C19.3507 26.5191 19.5735 26.3075 19.681 26.0471C20.0125 25.2583 20.5891 25.0046 21.4672 25.1978L20.4817 26.7084L20.6429 26.8399C20.905 26.4587 21.2234 26.101 21.4291 25.6895C21.6611 25.2268 21.9612 25.1637 22.429 25.2517C24.1327 25.5752 25.1666 27.0608 24.9583 29H12.97V22.312C14.0262 22.312 15.0667 22.2976 16.1046 22.3291C16.2357 22.3291 16.4375 22.5461 16.4742 22.6959C16.5466 23.038 16.5857 23.3863 16.5908 23.7359C16.6354 24.7101 16.8922 24.9967 17.8659 25.1321L18.2945 25.1913Z" fill="#DC968F"/>
<path d="M12.3907 22.3541V29H0.410255C0.148158 26.9832 1.28172 25.4503 3.18324 25.2399C3.29969 25.239 3.415 25.263 3.52145 25.3104C3.62789 25.3578 3.72303 25.4274 3.80048 25.5147C4.13334 25.9301 4.39806 26.3995 4.6916 26.8478L4.8908 26.7282L3.92628 25.2228C5.38223 24.7101 5.53031 26.1129 6.18293 26.7623L6.31398 26.6651L5.52769 25.3503L5.60239 25.1492C6.04009 25.257 6.57477 25.2465 6.88928 25.5055C7.24442 25.796 7.40168 26.3285 7.64412 26.7558L7.81449 26.6743L7.08717 25.1952C7.32437 25.1623 7.51045 25.1466 7.69261 25.1098C8.47235 24.9546 8.72527 24.6588 8.76983 23.87C8.8537 22.3567 8.8537 22.3567 10.366 22.3567L12.3907 22.3541Z" fill="#DC968F"/>
<path d="M20.0163 19.7405H5.99414V21.0552H20.0163V19.7405Z" fill="#DC968F"/>
</g>
<defs>
<clipPath id="clip0_160_192">
<rect width="26" height="29" fill="white"/>
</clipPath>
</defs>
</svg>
