<svg width="33" height="23" viewBox="0 0 33 23" fill="none" xmlns="http://www.w3.org/2000/svg">
<g clip-path="url(#clip0_178_1989)">
<path d="M14.0682 19.5184H14.1574C15.9091 19.467 17.6571 19.3229 19.3944 19.0867C19.4398 19.0875 19.4848 19.0782 19.5263 19.0594C19.5678 19.0406 19.6048 19.0127 19.6347 18.9777C19.6645 18.9427 19.6865 18.9015 19.6991 18.8568C19.7117 18.8122 19.7147 18.7653 19.7077 18.7194C19.7077 18.4012 19.7077 18.0829 19.7077 17.7647C19.7201 17.6601 19.7051 17.5541 19.6641 17.4575C19.8061 16.8633 19.8856 16.2552 19.9013 15.6436C19.9662 13.9263 19.9299 12.2065 19.7925 10.4936C19.7664 10.1397 19.7359 9.78586 19.7055 9.43199C19.86 9.65455 19.9818 9.87711 20.1276 10.0752C20.7793 10.9685 21.5581 11.757 22.4382 12.4143C23.0362 12.9033 23.6772 13.3346 24.3528 13.7029C24.5312 13.8654 24.7053 14.0301 24.8902 14.1836C24.9544 14.2455 25.0392 14.2799 25.1274 14.2799C25.2155 14.2799 25.3004 14.2455 25.3646 14.1836C25.8954 13.6851 26.4249 13.1836 26.9528 12.6792C27.0189 12.6241 27.062 12.5453 27.0733 12.4589C27.0846 12.3725 27.0633 12.2849 27.0137 12.214C26.905 12.0248 26.7962 11.8401 26.6765 11.6531C26.6352 11.5129 26.5982 11.3727 26.5481 11.2347C26.319 10.6552 26.0201 10.1072 25.6583 9.60336C24.879 8.45349 24.0325 7.35278 23.1235 6.30724C21.897 4.86642 20.597 3.49278 19.229 2.19209C19.1024 2.06531 18.9512 1.96713 18.7852 1.90388C18.6191 1.84062 18.442 1.8137 18.2652 1.82487C17.9062 1.84713 17.5493 1.87828 17.1925 1.90722C16.8857 1.77368 16.5768 1.68466 16.2613 1.87828C15.4644 2.15742 14.6315 2.31418 13.7897 2.34344C12.7957 2.37245 11.8039 2.23255 10.8546 1.92947C10.7204 1.8355 10.5615 1.78522 10.3988 1.78522C10.2361 1.78522 10.0773 1.8355 9.94299 1.92947C9.67951 1.92985 9.41632 1.91125 9.15538 1.87383C8.88614 1.81928 8.60783 1.83471 8.34593 1.9187C8.08403 2.00268 7.84691 2.15255 7.6563 2.35457C6.35087 3.66545 5.06066 4.99858 3.85966 6.41184C2.91575 7.49438 2.04352 8.64015 1.24878 9.8415C0.874634 10.3851 0.587476 10.9861 0.398081 11.622C0.300173 11.7822 0.202259 11.9425 0.106527 12.1027C0.069736 12.1441 0.0423733 12.1933 0.0263983 12.2468C0.0104232 12.3003 0.0062345 12.3567 0.0141412 12.412C0.0220479 12.4674 0.0418487 12.5202 0.0721199 12.5668C0.102391 12.6134 0.142379 12.6525 0.189206 12.6814C0.689623 13.1606 1.19222 13.6376 1.69699 14.1124C1.72781 14.1479 1.76522 14.1769 1.80704 14.1975C1.84887 14.218 1.89428 14.2299 1.94064 14.2324C1.987 14.2349 2.03339 14.2279 2.07709 14.2119C2.1208 14.1959 2.16095 14.1712 2.19523 14.1391C2.37146 13.9923 2.53682 13.8342 2.7087 13.694C3.63433 13.1714 4.50423 12.5515 5.30434 11.8445C6.06165 11.2225 6.71049 10.4738 7.22334 9.63007L7.34082 9.4253C7.27337 10.3756 7.20375 11.3126 7.182 12.2541C7.14283 14.0012 7.0471 15.7505 7.43003 17.4776C7.39739 17.4931 7.39522 17.5243 7.39304 17.5532C7.35823 18.011 7.35823 18.4709 7.39304 18.9286C7.40392 19.0755 7.52141 19.1512 7.6563 19.1512C7.7912 19.1512 7.94132 19.1801 8.09145 19.1935C9.06617 19.2959 10.0438 19.3767 11.0243 19.4361C11.677 19.4761 12.3298 19.5095 12.9825 19.5095C13.3438 19.5361 13.7065 19.5391 14.0682 19.5184Z" fill="white"/>
<path d="M0.387207 11.6375C0.576602 11.0016 0.863767 10.4006 1.23792 9.85706C2.03266 8.6557 2.90489 7.50994 3.84879 6.42741C5.04979 5.01415 6.33565 3.68102 7.64544 2.37013C7.83605 2.16812 8.07316 2.01825 8.33506 1.93426C8.59696 1.85028 8.87527 1.83485 9.14451 1.8894C9.40545 1.92682 9.66863 1.94541 9.93212 1.94504C9.98667 2.19822 10.1113 2.43001 10.2911 2.61272C10.5791 2.99599 10.9259 3.32896 11.3181 3.59866C11.7611 3.92348 12.2612 4.15775 12.791 4.2886C12.9868 4.33534 13.0325 4.4021 13.0325 4.59795C13.0325 7.00383 13.0325 9.40972 13.0325 11.8156C13.0325 14.0412 13.0325 16.2668 13.0325 18.4924C12.939 18.4791 12.8432 18.4613 12.7497 18.4568C12.4103 18.4412 12.0709 18.4568 11.7315 18.4256C11.1679 18.3878 10.6066 18.3411 10.0453 18.2765C9.46569 18.2188 8.89115 18.1169 8.32644 17.9716C8.00008 17.8804 7.6215 17.8626 7.42569 17.4976C7.04276 15.7705 7.13849 14.0212 7.17765 12.2741C7.19941 11.3326 7.26903 10.3957 7.33648 9.44533L7.21899 9.65008C6.70615 10.4938 6.05731 11.2425 5.3 11.8646C4.49575 12.5668 3.6222 13.1814 2.69348 13.6985C2.41245 13.7169 2.13256 13.6478 1.89064 13.5004C1.43826 13.2045 1.0502 12.8166 0.750556 12.3609C0.61198 12.1294 0.490523 11.8876 0.387207 11.6375ZM8.71807 14.3417C8.66368 14.3973 8.68326 14.4685 8.68326 14.5353C8.68326 14.9203 8.68326 15.3053 8.68326 15.6926C8.68326 16.2223 8.92476 16.5561 9.43388 16.6563C10.0485 16.7914 10.6849 16.7837 11.2963 16.634C11.4827 16.5872 11.6483 16.4777 11.7666 16.3232C11.885 16.1686 11.9492 15.9779 11.949 15.7816C11.949 15.3053 11.949 14.8268 11.949 14.3483C11.949 14.1903 11.949 14.0323 11.949 13.8721C11.949 13.7118 11.9033 13.6873 11.7728 13.6918C11.4856 13.6918 11.1984 13.6918 10.9134 13.6918H8.87037C8.7964 13.6918 8.69196 13.6695 8.6876 13.7808C8.65816 13.9678 8.66855 14.1591 8.71807 14.3417Z" fill="#DC968F"/>
<path d="M24.3551 13.6918C23.6795 13.3235 23.0385 12.8921 22.4405 12.4032C21.5605 11.7459 20.7816 10.9574 20.1299 10.0641C19.9841 9.85711 19.8623 9.63454 19.7078 9.42088C19.7382 9.77476 19.7687 10.1286 19.7948 10.4825C19.9322 12.1954 19.9685 13.9152 19.9036 15.6325C19.888 16.2479 19.8077 16.8597 19.6643 17.4575C19.5647 17.6109 19.4187 17.7266 19.2487 17.7869C18.675 18.0051 18.0785 18.1544 17.4711 18.232C16.8078 18.3356 16.1397 18.404 15.4695 18.4368C14.993 18.4591 14.5165 18.4835 14.0378 18.4835C14.0378 18.4034 14.0378 18.3255 14.0378 18.2454C14.0378 15.9308 14.0378 13.6169 14.0378 11.3037C14.0378 9.04994 14.0378 6.79689 14.0378 4.54458C14.0378 4.42662 14.0378 4.34205 14.188 4.32202C14.8412 4.17635 15.4508 3.8726 15.9655 3.43623C16.4912 3.03909 16.914 2.51646 17.197 1.91391C17.5538 1.88498 17.9106 1.85382 18.2696 1.83156C18.4465 1.82039 18.6236 1.84731 18.7896 1.91057C18.9557 1.97382 19.1069 2.07202 19.2335 2.19879C20.6015 3.49949 21.9015 4.87311 23.128 6.31394C24.0373 7.35438 24.8844 8.44987 25.6649 9.59447C26.0267 10.0983 26.3257 10.6463 26.5548 11.2258C26.6048 11.3638 26.6418 11.504 26.6832 11.6443C26.6362 11.8048 26.5766 11.9611 26.5048 12.1116C26.2647 12.5061 25.9717 12.8642 25.6345 13.1755C25.2755 13.5182 24.886 13.7586 24.3551 13.6918ZM15.1518 9.28734C15.2236 9.46316 15.2693 9.65011 15.4738 9.73246C15.5444 9.76338 15.6204 9.77911 15.6972 9.77866C15.7739 9.77822 15.8498 9.76162 15.92 9.72988C15.9902 9.69814 16.0533 9.65196 16.1053 9.5942C16.1573 9.53645 16.1971 9.46836 16.2223 9.39418H17.3819C17.5865 9.71912 17.7975 9.83929 18.0499 9.74581C18.1788 9.70505 18.2896 9.61914 18.3628 9.50315C18.436 9.38716 18.467 9.24851 18.4502 9.11152C18.5895 8.93793 18.5068 8.7354 18.5264 8.54622C18.5354 8.48153 18.5266 8.41553 18.5008 8.35573C18.475 8.29594 18.4334 8.24473 18.3806 8.20793C18.3229 8.17058 18.2779 8.11587 18.2518 8.05132C18.2257 7.98676 18.2197 7.91552 18.2348 7.84738C18.2392 7.76806 18.2392 7.68856 18.2348 7.60924C18.237 7.50793 18.2188 7.40724 18.1813 7.31346C18.1437 7.21968 18.0877 7.13484 18.0166 7.06423C17.9455 6.99363 17.861 6.93877 17.7683 6.90311C17.6755 6.86745 17.5766 6.85175 17.4777 6.85698C17.2209 6.85698 16.9642 6.85698 16.7075 6.85698C16.5363 6.8672 16.3746 6.94046 16.2523 7.0632C16.1299 7.18594 16.0551 7.34987 16.0417 7.52466C16.0417 7.68713 16.1178 7.89189 15.996 7.99872C15.8742 8.10555 15.6849 8.02766 15.526 8.03211C15.4458 8.02297 15.3645 8.03239 15.2883 8.05966C15.212 8.08693 15.1427 8.13136 15.0855 8.18967C15.0283 8.24798 14.9846 8.31869 14.9577 8.39658C14.9307 8.47447 14.9212 8.55755 14.9299 8.6397C14.9299 8.70646 14.9299 8.77545 14.9299 8.84222C14.9165 8.93085 14.9308 9.02154 14.9706 9.10143C15.0104 9.18132 15.0738 9.24635 15.1518 9.28734ZM15.1126 14.3528C15.1126 14.818 15.1126 15.2831 15.1126 15.7483C15.1043 15.9549 15.168 16.1578 15.2923 16.3209C15.4166 16.4839 15.5935 16.5965 15.7915 16.6385C16.3503 16.777 16.931 16.7959 17.4972 16.6942C18.113 16.5962 18.4154 16.2735 18.3893 15.5814C18.3784 15.2831 18.3893 14.9827 18.3893 14.6911C18.3893 14.591 18.5111 14.4374 18.3458 14.3506C18.485 14.2126 18.3893 14.0368 18.4154 13.881C18.435 13.7608 18.3762 13.7297 18.2609 13.7274C17.8258 13.7274 17.3906 13.7274 16.9555 13.7007C16.3898 13.6673 15.8219 13.7007 15.2541 13.7007C15.1475 13.7007 15.1018 13.7319 15.1083 13.8454C15.1192 14.0101 15.1126 14.1814 15.1126 14.3528Z" fill="#DC968F"/>
<path d="M17.1926 1.90722C16.9117 2.51171 16.4904 3.03666 15.9655 3.43621C15.4498 3.86668 14.8411 4.16501 14.1901 4.30642C14.0399 4.33758 14.0399 4.42215 14.0399 4.52898C14.0399 6.78129 14.0399 9.03436 14.0399 11.2882C14.0399 13.6013 14.0399 15.9152 14.0399 18.2298C14.0399 18.3099 14.0399 18.3878 14.0399 18.4679V19.4917H13.0717C13.0397 19.4337 13.0274 19.3663 13.0369 19.3003C13.0369 19.0221 13.0369 18.7439 13.0369 18.4657C13.0369 16.2401 13.0369 14.0145 13.0369 11.7889C13.0369 9.38304 13.0369 6.97715 13.0369 4.57127C13.0369 4.37541 12.9912 4.30865 12.7954 4.26192C12.2656 4.13106 11.7655 3.89679 11.3225 3.57197C10.9303 3.30227 10.5835 2.9693 10.2955 2.58603C10.1157 2.40332 9.99108 2.17154 9.93652 1.91835C10.0708 1.82438 10.2297 1.7741 10.3923 1.7741C10.555 1.7741 10.7139 1.82438 10.8482 1.91835C10.8425 1.92049 10.8375 1.92411 10.8336 1.92882C10.8298 1.93353 10.8272 1.93919 10.8261 1.94524C10.825 1.9513 10.8254 1.95753 10.8274 1.96335C10.8293 1.96917 10.8328 1.97437 10.8373 1.97844C11.2606 2.6825 11.9309 3.19447 12.7111 3.4096C13.4913 3.62474 14.3224 3.52678 15.0343 3.13576C15.4279 2.91895 15.7691 2.61477 16.0329 2.24552C16.1368 2.13845 16.215 2.00817 16.2614 1.86494C16.5768 1.69134 16.8858 1.77369 17.1926 1.90722ZM13.5504 11.0878C13.4986 11.0848 13.4467 11.0924 13.3978 11.1101C13.3489 11.1278 13.3039 11.1552 13.2655 11.1908C13.227 11.2264 13.1958 11.2695 13.1738 11.3175C13.1517 11.3656 13.1392 11.4176 13.137 11.4706C13.1414 11.5748 13.1826 11.6738 13.2531 11.7492C13.3236 11.8245 13.4184 11.8711 13.5199 11.8802C13.5725 11.8811 13.6246 11.8711 13.6734 11.851C13.7221 11.8308 13.7663 11.8009 13.8035 11.7629C13.8406 11.7249 13.8699 11.6796 13.8896 11.6298C13.9093 11.58 13.919 11.5266 13.9181 11.4729C13.917 11.3726 13.8782 11.2766 13.8097 11.2049C13.7412 11.1332 13.6484 11.0913 13.5504 11.0878ZM13.9268 14.6488C13.923 14.5438 13.8806 14.4441 13.8079 14.3698C13.7353 14.2955 13.6378 14.2521 13.5352 14.2482C13.4333 14.2545 13.3373 14.2988 13.2651 14.3726C13.193 14.4464 13.1497 14.5446 13.1435 14.6488C13.1506 14.7527 13.1942 14.8504 13.2661 14.924C13.3381 14.9976 13.4336 15.0422 13.5352 15.0494C13.6375 15.0445 13.7344 15.0008 13.8068 14.9267C13.8792 14.8526 13.922 14.7535 13.9268 14.6488ZM13.9268 17.8114C13.9268 17.732 13.9037 17.6544 13.8605 17.5884C13.8173 17.5224 13.7558 17.4711 13.684 17.4409C13.6122 17.4107 13.5332 17.403 13.4572 17.4188C13.3811 17.4347 13.3113 17.4733 13.2567 17.5297C13.2021 17.5862 13.1652 17.658 13.1505 17.736C13.1359 17.814 13.1443 17.8947 13.1746 17.9678C13.2049 18.0409 13.2558 18.1032 13.3208 18.1467C13.3857 18.1901 13.4619 18.2129 13.5395 18.212C13.6412 18.207 13.7373 18.163 13.8087 18.0888C13.8801 18.0145 13.9215 17.9155 13.9246 17.8114H13.9268ZM13.1718 5.14993C13.1671 5.20057 13.1731 5.25165 13.1893 5.29974C13.2055 5.34782 13.2316 5.39179 13.2658 5.42869C13.3 5.46559 13.3416 5.49457 13.3877 5.51367C13.4338 5.53277 13.4833 5.54155 13.533 5.53941C13.5838 5.54244 13.6346 5.53485 13.6824 5.51711C13.7302 5.49937 13.774 5.47186 13.811 5.43624C13.8481 5.40063 13.8776 5.35766 13.8979 5.30996C13.9182 5.26227 13.9288 5.21084 13.929 5.15883C13.9321 5.10674 13.9244 5.05458 13.9066 5.00568C13.8888 4.95679 13.8612 4.91226 13.8255 4.87495C13.7898 4.83764 13.747 4.80837 13.6996 4.78903C13.6522 4.7697 13.6014 4.76072 13.5504 4.76268C13.4993 4.75712 13.4476 4.7633 13.399 4.78076C13.3505 4.79822 13.3064 4.82653 13.2699 4.86362C13.2335 4.90072 13.2055 4.94567 13.1882 4.9952C13.1708 5.04472 13.1645 5.09758 13.1697 5.14993H13.1718ZM13.5482 8.69977C13.599 8.7004 13.6493 8.69052 13.6962 8.67074C13.7431 8.65097 13.7856 8.62171 13.8211 8.5847C13.8567 8.5477 13.8846 8.50373 13.9031 8.45542C13.9217 8.40712 13.9305 8.35548 13.929 8.30361C13.9256 8.20205 13.8838 8.10583 13.8123 8.03523C13.7409 7.96463 13.6454 7.9252 13.5461 7.92525C13.4466 7.92331 13.3502 7.96059 13.2769 8.02938C13.2036 8.09816 13.1589 8.19318 13.1522 8.29471C13.1508 8.34813 13.1599 8.4013 13.1791 8.45098C13.1984 8.50067 13.2273 8.54583 13.2641 8.58373C13.301 8.62162 13.345 8.65145 13.3934 8.6714C13.4419 8.69135 13.4938 8.701 13.5461 8.69977H13.5482Z" fill="#E7D5C6"/>
<path d="M13.0282 18.4724C13.0282 18.7506 13.0282 19.0288 13.0282 19.307C13.0187 19.3729 13.031 19.4403 13.063 19.4984L12.9608 19.5206C12.3081 19.5206 11.6553 19.4872 11.0026 19.4472C10.0235 19.3863 9.04591 19.3055 8.06973 19.2046C7.92613 19.1912 7.78254 19.1823 7.63459 19.1623C7.48664 19.1423 7.3822 19.0755 7.37133 18.9397C7.33651 18.4819 7.33651 18.0221 7.37133 17.5643C7.37133 17.5354 7.37133 17.5042 7.40832 17.4886C7.60413 17.8536 7.9827 17.8715 8.30906 17.9627C8.87378 18.108 9.44832 18.2099 10.0279 18.2676C10.5892 18.3322 11.1506 18.3789 11.7141 18.4167C12.0535 18.4412 12.3929 18.4323 12.7323 18.4479C12.8389 18.4412 12.9347 18.459 13.0282 18.4724Z" fill="#DC968F"/>
<path d="M14.0334 19.4962V18.4724C14.5121 18.4724 14.9886 18.4479 15.4651 18.4257C16.1353 18.3928 16.8034 18.3245 17.4667 18.2209C18.0741 18.1433 18.6706 17.9939 19.2443 17.7758C19.4144 17.7192 19.5618 17.6075 19.6642 17.4575C19.7057 17.5595 19.7186 17.6712 19.7012 17.7802C19.7012 18.0985 19.7012 18.4168 19.7012 18.735C19.7082 18.7809 19.7053 18.8278 19.6927 18.8724C19.6801 18.9171 19.6581 18.9583 19.6282 18.9933C19.5984 19.0283 19.5614 19.0562 19.5199 19.075C19.4783 19.0938 19.4333 19.1031 19.3879 19.1022C17.6507 19.3385 15.9027 19.4826 14.1509 19.534H14.0617L14.0334 19.4962Z" fill="#DC968F"/>
<path d="M16.2613 1.8783C16.215 2.02153 16.1368 2.15181 16.0329 2.25888C15.7691 2.62813 15.4279 2.93231 15.0342 3.14912C14.8014 3.1395 14.5684 3.15892 14.3402 3.20698C13.8267 3.23591 13.3176 3.23146 12.8041 3.20698C12.5731 3.16323 12.3369 3.15498 12.1035 3.1825C11.5901 2.90012 11.1545 2.48982 10.8372 1.98958C10.8327 1.98551 10.8293 1.9803 10.8273 1.97448C10.8254 1.96867 10.8249 1.96243 10.826 1.95638C10.8271 1.95032 10.8297 1.94467 10.8336 1.93995C10.8375 1.93524 10.8425 1.93163 10.8481 1.92948C11.7994 2.2333 12.7935 2.3732 13.7897 2.34345C14.6315 2.3142 15.4644 2.15744 16.2613 1.8783Z" fill="#E7D5C6"/>
<path d="M24.355 13.6918C24.875 13.7586 25.2753 13.5182 25.6321 13.1688C25.9694 12.8575 26.2623 12.4994 26.5024 12.105C26.5742 11.9544 26.6339 11.7981 26.6808 11.6376C26.794 11.8245 26.9093 12.0093 27.0181 12.1984C27.0677 12.2693 27.089 12.3569 27.0776 12.4433C27.0663 12.5298 27.0232 12.6085 26.9571 12.6636C26.4306 13.1681 25.9012 13.6695 25.3689 14.1681C25.3047 14.2299 25.2199 14.2643 25.1317 14.2643C25.0436 14.2643 24.9587 14.2299 24.8946 14.1681C24.7075 14.019 24.5334 13.8543 24.355 13.6918Z" fill="#DC968F"/>
<path d="M0.387333 11.6376C0.492053 11.8877 0.614964 12.1295 0.755032 12.3609C1.05468 12.8167 1.44274 13.2045 1.89511 13.5004C2.13704 13.6478 2.41693 13.7169 2.69795 13.6985C2.52607 13.8498 2.36072 14.0078 2.18449 14.1436C2.15021 14.1756 2.11005 14.2004 2.06634 14.2164C2.02264 14.2324 1.97626 14.2394 1.9299 14.2369C1.88354 14.2344 1.83813 14.2225 1.7963 14.2019C1.75447 14.1813 1.71706 14.1524 1.68624 14.1169C1.18147 13.6406 0.678883 13.1636 0.178465 12.6858C0.131639 12.657 0.0916505 12.6178 0.0613794 12.5713C0.0311082 12.5247 0.0113074 12.4718 0.00340069 12.4165C-0.00450601 12.3612 -0.000323974 12.3047 0.0156511 12.2512C0.0316262 12.1977 0.0589955 12.1486 0.0957868 12.1072C0.191519 11.9581 0.300304 11.7978 0.387333 11.6376Z" fill="#DC968F"/>
<path d="M14.0333 19.4962L14.0682 19.5184C13.7001 19.5429 13.3309 19.5429 12.9629 19.5184L13.0652 19.4962H14.0333Z" fill="#DC968F"/>
<path d="M11.9535 14.3416C11.9535 14.8201 11.9535 15.2987 11.9535 15.7749C11.9537 15.9713 11.8895 16.162 11.7711 16.3165C11.6528 16.4711 11.4872 16.5805 11.3008 16.6273C10.6894 16.7771 10.053 16.7847 9.43839 16.6496C8.92927 16.5494 8.68993 16.2156 8.68776 15.6859C8.68776 15.2986 8.68776 14.9136 8.68776 14.5286C8.68776 14.4618 8.66818 14.3906 8.72257 14.335L11.9535 14.3416Z" fill="#E7D5C6"/>
<path d="M11.9535 14.3417H8.7182C8.67045 14.1595 8.66154 13.969 8.69209 13.783C8.69209 13.6718 8.80088 13.694 8.87485 13.694H10.9179C11.2029 13.694 11.4901 13.694 11.7773 13.694C11.9078 13.694 11.96 13.7408 11.9535 13.8743C11.947 14.0078 11.9535 14.1925 11.9535 14.3417Z" fill="#DC968F"/>
<path d="M18.3589 14.3528C18.5242 14.4396 18.4067 14.5932 18.4024 14.6933C18.4024 14.9938 18.3893 15.2942 18.4024 15.5835C18.4285 16.2646 18.1261 16.5873 17.5103 16.6964C16.9441 16.7981 16.3633 16.7792 15.8046 16.6407C15.6066 16.5987 15.4297 16.4861 15.3054 16.323C15.181 16.16 15.1174 15.9571 15.1257 15.7505C15.1257 15.2853 15.1257 14.8202 15.1257 14.355L18.3589 14.3528Z" fill="#E7D5C6"/>
<path d="M17.3818 9.39636H16.2221C16.2221 9.36075 16.2221 9.32291 16.2221 9.2873C16.2325 9.20517 16.2238 9.12171 16.1969 9.04361C16.17 8.96552 16.1256 8.89496 16.0672 8.83761C16.0088 8.78026 15.9381 8.73771 15.8607 8.71339C15.7833 8.68906 15.7014 8.68362 15.6216 8.69752C15.354 8.71755 15.1713 8.94233 15.1473 9.2873C15.0702 9.24564 15.0077 9.18032 14.9687 9.10049C14.9296 9.02066 14.916 8.93032 14.9298 8.84218C14.9298 8.77541 14.9298 8.70642 14.9298 8.63965C14.9211 8.55751 14.9306 8.47443 14.9576 8.39654C14.9845 8.31865 15.0282 8.24794 15.0854 8.18963C15.1426 8.13131 15.2119 8.08688 15.2881 8.05961C15.3644 8.03234 15.4456 8.02293 15.5259 8.03207C15.6847 8.03207 15.8806 8.09883 15.9959 7.99868C16.1112 7.89852 16.0329 7.68709 16.0416 7.52462C16.0549 7.34983 16.1297 7.1859 16.2521 7.06316C16.3745 6.94042 16.5362 6.86716 16.7073 6.85694C16.9641 6.85694 17.2208 6.85694 17.4775 6.85694C17.5765 6.85171 17.6754 6.86741 17.7681 6.90307C17.8609 6.93873 17.9454 6.99359 18.0165 7.06419C18.0875 7.1348 18.1436 7.21964 18.1811 7.31342C18.2187 7.40719 18.2369 7.50788 18.2347 7.60919C18.239 7.68851 18.239 7.76802 18.2347 7.84734C18.2196 7.91548 18.2255 7.98672 18.2516 8.05127C18.2777 8.11583 18.3227 8.17054 18.3805 8.20788C18.4333 8.24469 18.4749 8.29589 18.5007 8.35569C18.5264 8.41549 18.5353 8.48149 18.5262 8.54618C18.5067 8.73536 18.5893 8.93788 18.4501 9.11148C18.424 9.05806 18.3979 9.00243 18.3674 8.95124C18.3371 8.88598 18.2938 8.82791 18.2402 8.78078C18.1867 8.73364 18.1241 8.69845 18.0565 8.6775C17.9889 8.65654 17.9178 8.65028 17.8477 8.65909C17.7776 8.6679 17.71 8.69161 17.6494 8.72868C17.3753 8.88225 17.3557 9.12929 17.3818 9.39636ZM17.2317 7.56245V7.6359C17.2317 8.01203 17.2317 8.00981 17.5841 8.00313H17.6734C17.9736 8.00313 17.9431 8.04986 17.9453 7.71379C17.9475 7.68936 17.9475 7.66479 17.9453 7.64036C17.9342 7.50597 17.8774 7.37981 17.7848 7.28384C17.6922 7.18788 17.5696 7.12818 17.4384 7.11512C17.2774 7.10176 17.2034 7.14849 17.2208 7.32431C17.2299 7.40333 17.2335 7.48291 17.2317 7.56245ZM17.0141 7.58249C17.0141 7.48011 17.0141 7.3755 17.0141 7.27313C17.0141 7.17075 16.9793 7.11289 16.8618 7.11512C16.5072 7.11512 16.3244 7.33767 16.3266 7.76276C16.3266 8.07657 16.3048 8.03207 16.579 8.03207C17.0185 8.03429 17.0185 8.03206 17.0185 7.58249H17.0141Z" fill="#E7D5C6"/>
<path d="M18.3587 14.3528H15.1125C15.1125 14.1814 15.1125 14.0101 15.1125 13.8387C15.1125 13.7252 15.1517 13.6918 15.2583 13.694C15.8262 13.694 16.3941 13.6696 16.9597 13.694C17.3949 13.723 17.83 13.7119 18.2652 13.7208C18.3805 13.7208 18.4392 13.7541 18.4197 13.8743C18.3914 14.039 18.4871 14.2148 18.3587 14.3528Z" fill="#DC968F"/>
<path d="M17.382 9.3964C17.3558 9.12933 17.382 8.88228 17.6496 8.73984C17.7102 8.70277 17.7777 8.67906 17.8478 8.67025C17.918 8.66144 17.9891 8.66772 18.0567 8.68867C18.1243 8.70963 18.1869 8.7448 18.2404 8.79194C18.2939 8.83908 18.3372 8.89714 18.3676 8.9624C18.398 9.01359 18.4241 9.06923 18.4502 9.12264C18.467 9.25963 18.436 9.39828 18.3628 9.51427C18.2896 9.63025 18.1788 9.71618 18.0499 9.75695C17.7975 9.83262 17.5865 9.72134 17.382 9.3964Z" fill="#DC968F"/>
<path d="M15.1519 9.28729C15.1758 8.94232 15.3585 8.71755 15.6262 8.69752C15.706 8.68362 15.7878 8.68905 15.8652 8.71338C15.9426 8.73771 16.0133 8.78026 16.0717 8.83761C16.1301 8.89496 16.1745 8.96551 16.2014 9.04361C16.2284 9.12171 16.237 9.20516 16.2267 9.28729C16.2267 9.3229 16.2267 9.36075 16.2267 9.39636C16.2015 9.47054 16.1617 9.53863 16.1097 9.59638C16.0577 9.65414 15.9946 9.70033 15.9244 9.73206C15.8542 9.7638 15.7783 9.7804 15.7016 9.78084C15.6248 9.78129 15.5488 9.76556 15.4782 9.73464C15.2693 9.65007 15.2237 9.46312 15.1519 9.28729Z" fill="#DC968F"/>
<path d="M12.1035 3.1825C12.3369 3.15498 12.5731 3.16323 12.8041 3.20698C13.3176 3.22923 13.8267 3.23368 14.3402 3.20698C14.5684 3.15892 14.8014 3.1395 15.0342 3.14912C14.5777 3.37319 14.0788 3.49229 13.5725 3.49805C13.0662 3.50382 12.5648 3.39611 12.1035 3.1825Z" fill="#DC968F"/>
<path d="M13.5503 11.0879C13.6498 11.089 13.7449 11.13 13.8153 11.2019C13.8856 11.2739 13.9256 11.3711 13.9268 11.4729C13.9276 11.5266 13.9179 11.58 13.8982 11.6298C13.8785 11.6796 13.8493 11.7249 13.8121 11.7629C13.775 11.8009 13.7307 11.8309 13.682 11.851C13.6333 11.8712 13.5811 11.8811 13.5286 11.8802C13.4255 11.8732 13.3285 11.8275 13.2563 11.752C13.184 11.6764 13.1416 11.5762 13.137 11.4707C13.1392 11.4176 13.1517 11.3656 13.1737 11.3176C13.1958 11.2695 13.2269 11.2265 13.2654 11.1908C13.3039 11.1552 13.3489 11.1278 13.3978 11.1101C13.4467 11.0924 13.4986 11.0849 13.5503 11.0879Z" fill="#DC968F"/>
<path d="M13.9268 14.6488C13.9221 14.7535 13.8793 14.8525 13.8068 14.9266C13.7344 15.0007 13.6375 15.0445 13.5352 15.0494C13.4337 15.0421 13.3381 14.9976 13.2662 14.924C13.1942 14.8504 13.1507 14.7526 13.1436 14.6488C13.1497 14.5446 13.193 14.4463 13.2651 14.3725C13.3373 14.2987 13.4333 14.2545 13.5352 14.2482C13.6378 14.252 13.7353 14.2955 13.8079 14.3698C13.8806 14.4441 13.923 14.5438 13.9268 14.6488Z" fill="#DC968F"/>
<path d="M13.9247 17.8114C13.9215 17.9158 13.8798 18.0152 13.808 18.0895C13.7361 18.1638 13.6395 18.2076 13.5374 18.212C13.4344 18.2078 13.3365 18.1649 13.2626 18.0913C13.1887 18.0178 13.144 17.9189 13.1371 17.8136C13.1331 17.7586 13.1402 17.7034 13.158 17.6514C13.1758 17.5994 13.2039 17.5517 13.2406 17.5113C13.2772 17.4709 13.3216 17.4386 13.371 17.4166C13.4204 17.3946 13.4737 17.3832 13.5276 17.3832C13.5815 17.3832 13.6348 17.3946 13.6842 17.4166C13.7336 17.4386 13.778 17.4709 13.8147 17.5113C13.8513 17.5517 13.8794 17.5994 13.8972 17.6514C13.9151 17.7034 13.9222 17.7586 13.9182 17.8136L13.9247 17.8114Z" fill="#DC968F"/>
<path d="M13.1697 5.14993C13.1646 5.09779 13.1709 5.04514 13.1881 4.99579C13.2053 4.94644 13.2331 4.90162 13.2693 4.86457C13.3055 4.82752 13.3493 4.79915 13.3976 4.78153C13.4458 4.76391 13.4973 4.75747 13.5483 4.76267C13.5992 4.76072 13.65 4.76969 13.6974 4.78903C13.7448 4.80836 13.7877 4.83763 13.8234 4.87495C13.859 4.91226 13.8866 4.95679 13.9045 5.00568C13.9223 5.05457 13.9299 5.10674 13.9268 5.15883C13.9266 5.21084 13.9161 5.26227 13.8958 5.30996C13.8755 5.35766 13.8459 5.40062 13.8089 5.43624C13.7718 5.47185 13.728 5.49936 13.6802 5.5171C13.6324 5.53484 13.5816 5.54243 13.5308 5.53941C13.4812 5.54154 13.4316 5.53276 13.3855 5.51367C13.3394 5.49457 13.2979 5.46559 13.2637 5.42869C13.2294 5.39178 13.2034 5.34782 13.1871 5.29973C13.1709 5.25165 13.165 5.20056 13.1697 5.14993Z" fill="#DC968F"/>
<path d="M13.546 8.69976C13.4936 8.7013 13.4415 8.69186 13.3927 8.67205C13.344 8.65224 13.2998 8.62247 13.2627 8.58454C13.2256 8.54662 13.1965 8.50134 13.1771 8.4515C13.1578 8.40166 13.1486 8.34831 13.1501 8.2947C13.1567 8.19317 13.2014 8.09815 13.2747 8.02936C13.348 7.96058 13.4444 7.9233 13.5439 7.92524C13.6432 7.92518 13.7387 7.96462 13.8101 8.03522C13.8816 8.10582 13.9234 8.20204 13.9268 8.3036C13.9283 8.35547 13.9195 8.40711 13.9009 8.45541C13.8824 8.50372 13.8545 8.54769 13.819 8.58469C13.7834 8.6217 13.7409 8.65096 13.694 8.67073C13.6471 8.69051 13.5968 8.70038 13.546 8.69976Z" fill="#DC968F"/>
<path d="M17.2317 7.56245C17.2371 7.48317 17.2371 7.40359 17.2317 7.32431C17.2078 7.14849 17.2817 7.10176 17.4493 7.11512C17.5805 7.12818 17.7031 7.18787 17.7957 7.28384C17.8883 7.37981 17.9451 7.50597 17.9562 7.64036C17.9584 7.66479 17.9584 7.68936 17.9562 7.71379C17.9562 8.04986 17.9845 7.99645 17.6842 8.00313H17.595C17.2426 8.00313 17.2426 8.00312 17.2426 7.6359V7.56245H17.2317Z" fill="#DC968F"/>
<path d="M17.0186 7.58248C17.0186 8.0276 17.0186 8.0276 16.5834 8.0276C16.3093 8.0276 16.3332 8.07211 16.3311 7.7583C16.3311 7.33099 16.5116 7.11511 16.8663 7.11066C16.9838 7.11066 17.0273 7.14848 17.0186 7.26867C17.0099 7.38885 17.0186 7.48011 17.0186 7.58248Z" fill="#DC968F"/>
</g>
<g clip-path="url(#clip1_178_1989)">
<path d="M17.4039 7.25723C17.383 7.08941 17.3711 6.91859 17.3382 6.75077C17.2695 6.40164 17.0919 6.2548 16.741 6.2518C16.2707 6.2518 15.8049 6.32222 15.3376 6.35369L15.2136 6.36568C14.8717 6.39115 14.8464 6.37917 14.7284 6.066C14.491 5.41569 14.3119 4.74741 14.1207 4.08362C13.961 3.52621 13.8057 2.9673 13.6027 2.42338C13.4907 2.1237 13.5161 2.06976 13.8057 1.98135C14.8523 1.6568 15.8792 1.27156 16.8813 0.827579C17.5615 0.559009 18.2689 0.366067 18.991 0.252197C19.0597 0.333111 18.979 0.378062 18.9462 0.429008C18.6304 0.924628 18.257 1.38084 17.8339 1.78806C17.7884 1.82341 17.7558 1.87273 17.741 1.92849C17.7261 1.98425 17.7299 2.04335 17.7518 2.09673C17.8207 2.31359 17.8751 2.53485 17.9145 2.75902C17.9474 2.94482 18.0086 2.90886 18.1056 2.81296C18.3729 2.54325 18.6506 2.28253 18.9059 2.00233C19.0418 1.85249 19.103 1.86148 19.2194 2.0263C19.7554 2.78899 20.4332 3.39434 21.3246 3.69403C22.1295 3.94834 22.9879 3.97941 23.809 3.78393C24.4643 3.64285 25.0624 3.30775 25.5259 2.82195C25.9201 2.42338 26.2725 1.99034 26.6308 1.5618C26.7233 1.45092 26.7681 1.4614 26.8398 1.57678C26.9533 1.75809 27.0772 1.93191 27.2041 2.10422C27.5094 2.51091 27.839 2.89871 28.191 3.26548C28.2814 2.96656 28.3896 2.67335 28.515 2.38742C28.5553 2.30351 28.515 2.24507 28.4627 2.18214C28.3134 2.00983 28.1641 1.83901 28.0282 1.6562C27.7349 1.30748 27.4999 0.913269 27.3325 0.488948C28.3776 0.731689 29.3809 1.12277 30.3842 1.50336C31.1307 1.78956 31.8773 2.10272 32.6238 2.4024C32.7691 2.44739 32.8987 2.53318 32.997 2.64964V2.84443C32.679 3.51722 32.364 4.193 32.043 4.85979C31.834 5.29582 31.6234 5.73036 31.401 6.1589C31.2517 6.44809 31.183 6.46907 30.8695 6.40314C30.4349 6.29947 29.9932 6.22835 29.5481 6.19037C29.3033 6.17539 29.0629 6.21884 28.9196 6.46308L28.8972 6.50653L28.8808 6.58445C28.8195 6.60243 28.7957 6.6264 28.8628 6.67135L28.8479 6.87663C28.8479 6.87663 28.833 6.88563 28.8345 6.88862C28.8373 6.89834 28.8408 6.90786 28.8449 6.91709L28.8091 9.24412C28.7331 9.14473 28.6945 9.02163 28.7001 8.89649C28.733 8.40501 28.4314 8.04539 28.2417 7.64232C28.0417 7.21228 27.6983 6.89312 27.4101 6.52901C27.1715 6.22799 26.8886 5.96525 26.5711 5.74984C26.2561 5.51965 25.9208 5.31902 25.5692 5.15048C25.4677 5.10553 25.4199 4.97516 25.299 4.97067C24.7973 4.95419 24.3345 4.74441 23.8358 4.67998C23.4081 4.6291 22.9747 4.65241 22.5548 4.74891C21.9501 4.85797 21.37 5.07573 20.8423 5.39172C20.172 5.82925 19.5643 6.32073 19.1388 7.0055C19.0298 7.18231 18.8402 7.30518 18.773 7.49398C18.6879 7.71874 18.6431 7.74571 18.4087 7.66329C18.1742 7.56838 17.9521 7.44511 17.7473 7.29619C17.702 7.25331 17.644 7.22634 17.5821 7.21932C17.5202 7.21229 17.4576 7.22559 17.4039 7.25723Z" fill="#71ACAB"/>
<path d="M17.404 7.25726C17.4584 7.22639 17.5212 7.21408 17.5832 7.22218C17.6451 7.23029 17.7027 7.25838 17.7474 7.30221C17.9522 7.45112 18.1743 7.5744 18.4088 7.66932C18.6432 7.75173 18.688 7.72476 18.7731 7.5C18.8477 7.3067 19.0299 7.18833 19.1389 7.01152C19.5644 6.32675 20.1721 5.83527 20.8424 5.39773C21.3684 5.07841 21.9475 4.85709 22.5519 4.74443C22.9718 4.64794 23.4052 4.62462 23.8329 4.6755C24.3316 4.73993 24.7945 4.94971 25.2961 4.96619C25.417 4.96619 25.4648 5.10105 25.5663 5.146C25.9179 5.31454 26.2532 5.51518 26.5682 5.74536C26.8857 5.96077 27.1686 6.22352 27.4072 6.52454C27.6954 6.88715 28.0388 7.20781 28.2389 7.63785C28.4285 8.04092 28.7301 8.40053 28.6972 8.89201C28.6916 9.01715 28.7302 9.14026 28.8062 9.23964C28.8062 10.2885 28.8062 11.3269 28.8271 12.3713C28.845 13.8218 28.8495 15.2737 28.9346 16.7167C28.854 16.7556 28.8271 16.8665 28.7271 16.8785C28.4649 16.9287 28.2108 17.0143 27.9716 17.1332C27.7745 17.2291 27.5371 17.2441 27.3744 17.4329C27.3899 17.4481 27.409 17.459 27.4299 17.4648C27.4508 17.4706 27.4728 17.4709 27.4938 17.4659C27.7995 17.4139 28.0995 17.3326 28.3897 17.2231C28.5808 17.1587 28.7525 17.0224 28.9719 17.0538C28.9943 17.1452 29.0167 17.2381 29.0376 17.331C29.0299 17.372 29.0086 17.4091 28.9771 17.4363C28.9456 17.4635 28.9059 17.4792 28.8644 17.4809C28.7345 17.4973 28.6076 17.5318 28.4792 17.5543C27.5319 17.7048 26.6494 18.131 25.9411 18.78C25.5808 19.1313 25.254 19.5156 24.9647 19.9278C24.9251 19.9278 24.8871 19.912 24.8591 19.8839C24.8311 19.8558 24.8154 19.8177 24.8154 19.7779C24.7989 19.664 24.7168 19.6281 24.6063 19.6281C24.4302 19.6146 24.3495 19.7225 24.2734 19.8528C24.0405 20.2634 23.6986 20.4087 23.2283 20.3488C23.0596 20.3278 22.9297 20.2124 22.761 20.2124C22.6833 20.2124 22.5937 20.2259 22.6818 20.0941C22.7281 20.0266 22.6594 19.9997 22.5937 20.0192C22.528 20.0386 22.4668 20.0716 22.4011 20.0911C22.213 20.148 22.0682 20.3203 21.8517 20.3009C21.7823 20.2149 21.7315 20.1154 21.7024 20.0087C21.8248 19.8798 21.9458 19.7479 22.0712 19.6206C22.1536 19.5375 22.2128 19.4342 22.2429 19.3209C22.2489 19.3046 22.249 19.2867 22.2433 19.2703C22.2376 19.2539 22.2263 19.24 22.2115 19.231C22.1994 19.2238 22.1851 19.2213 22.1713 19.2241C22.1575 19.2268 22.1453 19.2346 22.1369 19.246C21.9995 19.4857 21.7382 19.5681 21.5397 19.724C21.3605 19.4962 21.1873 19.264 21.0007 19.0437C20.4242 18.3523 19.6713 17.8312 18.8224 17.5363C18.3365 17.3889 17.8357 17.2965 17.3293 17.2606L17.3786 16.9294C17.639 16.9158 17.8979 16.9766 18.1251 17.1048C18.1699 17.1257 18.2237 17.1587 18.2535 17.1048C18.2834 17.0508 18.2237 17.0059 18.1744 16.9879C18.0713 16.9496 17.9661 16.917 17.8594 16.8905C17.6563 16.8425 17.4324 16.8276 17.3935 16.5533V15.1868C17.4563 15.1433 17.4398 15.0774 17.4398 15.0175C17.4398 14.0315 17.4398 13.0461 17.4398 12.0611C17.4398 12.0042 17.4637 11.9323 17.3846 11.9008C17.3622 11.7906 17.3622 11.6769 17.3846 11.5667C17.4052 11.5487 17.4217 11.5264 17.433 11.5015C17.4443 11.4766 17.4501 11.4495 17.4501 11.4221C17.4501 11.3947 17.4443 11.3676 17.433 11.3426C17.4217 11.3177 17.4052 11.2955 17.3846 11.2775C17.3622 11.1395 17.3622 10.9989 17.3846 10.8609C17.4637 10.8279 17.4398 10.7575 17.4398 10.7006C17.4398 10.1861 17.4398 9.67168 17.4398 9.15723C17.4398 9.09879 17.4563 9.03286 17.3935 8.98941L17.404 7.25726Z" fill="#A0D1CA"/>
<path d="M27.3297 0.481451C27.4971 0.905772 27.7321 1.29999 28.0254 1.64871C28.1613 1.83152 28.3121 2.00234 28.4599 2.17465C28.5122 2.23759 28.5525 2.29602 28.5122 2.37993C28.3868 2.66586 28.2786 2.95907 28.1882 3.258C27.8362 2.89122 27.5066 2.50342 27.2013 2.09673C27.0744 1.92442 26.9504 1.7506 26.837 1.56929C26.7653 1.45392 26.7205 1.44343 26.628 1.55431C26.2696 1.98286 25.9173 2.41589 25.5231 2.81447C25.0596 3.30026 24.4615 3.63535 23.8061 3.77644C22.9851 3.97192 22.1266 3.94085 21.3218 3.68654C20.4259 3.38686 19.7526 2.78749 19.2166 2.01881C19.1001 1.85399 19.0389 1.8465 18.9031 1.99484C18.6478 2.27504 18.3701 2.53576 18.1028 2.80548C18.0058 2.90137 17.9445 2.93734 17.9117 2.75154C17.8723 2.52736 17.8179 2.3061 17.749 2.08924C17.7271 2.03586 17.7233 1.97676 17.7381 1.921C17.753 1.86525 17.7856 1.81592 17.8311 1.78057C18.2542 1.37335 18.6275 0.91714 18.9434 0.42152C18.9762 0.370574 19.0568 0.325623 18.9882 0.24471C19.46 0.157802 19.9288 0.0394283 20.4155 0.0948692C20.6225 0.110085 20.8223 0.17761 20.9963 0.29116C21.4383 0.598238 21.9453 0.798264 22.4774 0.875531C23.2151 0.994509 23.9703 0.938581 24.6826 0.712211C25.0857 0.574358 25.4753 0.393049 25.9053 0.33611C26.1168 0.316402 26.3301 0.327501 26.5384 0.36907C26.8047 0.385645 27.0693 0.423221 27.3297 0.481451ZM25.556 1.35952C25.0043 1.55225 24.4321 1.67948 23.8509 1.73861C23.2609 1.79569 22.6661 1.77907 22.0802 1.68916C21.3337 1.5603 20.6962 1.19769 20.0781 0.790121C20.0139 0.746668 19.9288 0.625299 19.8571 0.736181C19.7854 0.847063 19.5973 0.951948 19.7227 1.14524C20.0076 1.61247 20.3737 2.02458 20.8037 2.36195C21.5278 2.90587 22.3445 3.02574 23.2313 2.94333C24.3078 2.84443 24.9573 2.14918 25.556 1.35952Z" fill="#A0D1CA"/>
<path d="M17.3458 17.2651C17.8521 17.3009 18.3529 17.3934 18.8388 17.5408C19.6877 17.8357 20.4407 18.3567 21.0171 19.0482C21.2038 19.2684 21.3769 19.4977 21.5561 19.7285L21.7218 20.0147C21.7509 20.1214 21.8018 20.2208 21.8711 20.3068C21.901 20.4177 21.8711 20.5451 21.9652 20.638C22.0808 21.1111 22.0242 21.6101 21.8054 22.045C21.6256 22.3207 21.4153 22.575 21.1784 22.8032C21.0156 22.7777 20.8514 22.7552 20.6887 22.7283C20.4725 22.6991 20.2669 22.6163 20.0907 22.4873C19.9145 22.3583 19.7731 22.1872 19.6794 21.9895C19.127 20.9047 18.3879 19.9472 17.6115 19.0167C17.5279 18.9163 17.4622 18.8039 17.3727 18.7035C17.1009 18.3889 16.9949 18.0532 17.2069 17.6547C17.2642 17.529 17.3107 17.3987 17.3458 17.2651ZM18.2416 18.3349C18.3386 18.4413 18.3909 18.4998 18.4491 18.5612C18.9369 19.0888 19.3775 19.6584 19.766 20.2634C20.0566 20.7661 20.3125 21.2883 20.5319 21.8262C20.62 22.0285 20.6573 22.03 20.8081 21.8622C20.9681 21.7012 21.0716 21.4925 21.1031 21.2674C21.1346 21.0422 21.0924 20.813 20.9828 20.614C20.6842 19.9652 20.1915 19.4692 19.6585 19.0152C19.2485 18.6732 18.76 18.4394 18.2371 18.3349H18.2416Z" fill="#A0D1CA"/>
<path d="M24.9796 19.9263C25.2689 19.5141 25.5958 19.1299 25.9561 18.7785C26.6644 18.1295 27.5469 17.7033 28.4942 17.5528C28.6226 17.5303 28.7495 17.4959 28.8794 17.4794C28.9209 17.4777 28.9606 17.462 28.9921 17.4348C29.0235 17.4076 29.0449 17.3705 29.0526 17.3295C29.1243 17.5228 29.1914 17.7191 29.2661 17.9124C29.4034 18.272 29.402 18.272 29.1302 18.5402C28.8022 18.847 28.4902 19.1706 28.1956 19.5097C27.5559 20.3184 27.041 21.219 26.6682 22.1814C26.6169 22.3242 26.5519 22.4617 26.4741 22.5919C26.3398 22.7942 26.1158 22.8377 25.8948 22.8586C25.6739 22.8796 25.4141 22.8901 25.1722 22.9051C25.1722 22.8317 25.1155 22.8002 25.0797 22.7553C24.9329 22.5768 24.8118 22.3786 24.7198 22.1664C24.5892 21.7494 24.558 21.3075 24.6288 20.8763C24.7035 20.5455 24.8215 20.226 24.9796 19.9263ZM27.7268 18.7545C27.1599 18.9678 26.6554 19.3201 26.2591 19.7794C25.9814 20.1241 25.6978 20.4612 25.5709 20.9002C25.5064 21.1047 25.4894 21.3213 25.5209 21.5335C25.5525 21.7456 25.6319 21.9477 25.753 22.1244C26.1105 20.8509 26.7905 19.6919 27.7268 18.7605V18.7545Z" fill="#A0D1CA"/>
<path d="M24.7139 22.1738C24.8058 22.386 24.9269 22.5842 25.0737 22.7627C25.1095 22.8092 25.1722 22.8406 25.1662 22.9126C24.0226 22.9335 22.8779 22.9216 21.7323 22.8766C21.548 22.8617 21.3646 22.8372 21.1829 22.8032C21.4197 22.575 21.6301 22.3207 21.8099 22.045C21.8411 22.0448 21.8719 22.0519 21.8999 22.0657C21.9278 22.0795 21.9522 22.0995 21.9712 22.1244C22.0478 22.229 22.1598 22.302 22.2862 22.3297C22.5451 22.42 22.8186 22.4606 23.0924 22.4496C23.4269 22.4496 23.7703 22.466 24.1002 22.3267C24.2898 22.2473 24.4929 22.1334 24.7139 22.1738Z" fill="#71ACAB"/>
<path d="M28.9808 17.0598C28.7614 17.0283 28.5897 17.1647 28.3986 17.2291C28.1084 17.3386 27.8084 17.4199 27.5027 17.4719C27.4817 17.4769 27.4597 17.4766 27.4388 17.4708C27.4179 17.465 27.3988 17.4541 27.3833 17.4389C27.549 17.2531 27.7864 17.2381 27.9805 17.1392C28.2197 17.0203 28.4738 16.9346 28.736 16.8845C28.836 16.8665 28.8629 16.7616 28.9435 16.7227C28.9793 16.8335 28.9002 16.9564 28.9808 17.0598Z" fill="#71ACAB"/>
<path d="M17.4101 11.9053C17.4892 11.9367 17.4653 12.0087 17.4653 12.0656C17.4653 13.0516 17.4653 14.037 17.4653 15.022C17.4653 15.0819 17.4817 15.1478 17.419 15.1913C17.4116 14.5919 17.3996 14.006 17.3981 13.4142C17.3966 12.9107 17.4056 12.4087 17.4101 11.9053Z" fill="#71ACAB"/>
<path d="M17.4161 16.5579C17.4549 16.8321 17.6788 16.8471 17.8819 16.895C17.9886 16.9215 18.0938 16.9541 18.1969 16.9924C18.2462 17.0104 18.3149 17.0373 18.276 17.1093C18.2372 17.1812 18.1924 17.1303 18.1476 17.1093C17.9204 16.9811 17.6615 16.9203 17.4011 16.934L17.4161 16.5579Z" fill="#71ACAB"/>
<path d="M17.419 8.98792C17.4817 9.03137 17.4652 9.0973 17.4652 9.15574C17.4652 9.67119 17.4652 10.1856 17.4652 10.6991C17.4652 10.756 17.4891 10.8265 17.41 10.8594C17.3846 10.2406 17.404 9.61724 17.419 8.98792Z" fill="#71ACAB"/>
<path d="M17.41 11.282C17.4305 11.3 17.447 11.3222 17.4583 11.3472C17.4697 11.3721 17.4755 11.3992 17.4755 11.4266C17.4755 11.454 17.4697 11.4811 17.4583 11.506C17.447 11.531 17.4305 11.5532 17.41 11.5712C17.3891 11.4759 17.3891 11.3772 17.41 11.282Z" fill="#71ACAB"/>
<path d="M28.8659 6.66986C28.7987 6.6249 28.8226 6.60093 28.8838 6.58295L28.8659 6.66986Z" fill="#A0D1CA"/>
<path d="M28.8481 6.91563C28.844 6.9064 28.8405 6.89688 28.8376 6.88716C28.8376 6.88716 28.8451 6.87968 28.8511 6.87518L28.8481 6.91563Z" fill="#A0D1CA"/>
<path d="M24.9797 19.9263C24.8195 20.2257 24.6995 20.5452 24.6229 20.8763C24.5542 20.8568 24.5109 20.9512 24.4571 20.9332C24.1257 20.8223 23.7748 20.9197 23.4449 20.8313C23.1731 20.7579 22.891 20.8178 22.6133 20.7279C22.4162 20.665 22.1967 20.5781 21.9713 20.632C21.8817 20.5391 21.9071 20.4118 21.8772 20.3009C22.0937 20.3204 22.2385 20.151 22.4266 20.0911C22.4923 20.0716 22.5535 20.0402 22.6192 20.0192C22.6849 19.9982 22.7536 20.0267 22.7073 20.0941C22.6192 20.226 22.7073 20.2125 22.7864 20.2125C22.9537 20.2125 23.0851 20.3278 23.2538 20.3488C23.7181 20.4088 24.06 20.2634 24.2989 19.8529C24.375 19.7225 24.4556 19.6146 24.6318 19.6281C24.7423 19.6371 24.8244 19.6686 24.8408 19.7779C24.8411 19.8157 24.8556 19.8519 24.8813 19.8794C24.9071 19.9069 24.9422 19.9236 24.9797 19.9263Z" fill="#71ACAB"/>
<path d="M21.7263 20.0146L21.5605 19.7284C21.7621 19.5786 22.0234 19.4902 22.1578 19.2504C22.1661 19.2391 22.1784 19.2313 22.1922 19.2285C22.206 19.2258 22.2203 19.2282 22.2324 19.2355C22.2472 19.2445 22.2584 19.2584 22.2642 19.2748C22.2699 19.2912 22.2697 19.3091 22.2638 19.3254C22.2336 19.4386 22.1744 19.542 22.0921 19.625C21.9696 19.7539 21.8487 19.8858 21.7263 20.0146Z" fill="#71ACAB"/>
<path d="M25.5559 1.35955C24.9587 2.14921 24.3077 2.83697 23.2312 2.93737C22.3444 3.01978 21.5277 2.89991 20.8036 2.35599C20.3736 2.01861 20.0075 1.60651 19.7226 1.13928C19.5972 0.945989 19.7824 0.848596 19.857 0.730222C19.9317 0.611848 20.0063 0.740709 20.078 0.784162C20.6961 1.19772 21.3366 1.56034 22.0801 1.6832C22.666 1.77312 23.2608 1.78973 23.8508 1.73265C24.4317 1.67546 25.004 1.55025 25.5559 1.35955Z" fill="#71ACAB"/>
<path d="M21.9713 20.638C22.1967 20.581 22.4192 20.671 22.6133 20.7339C22.891 20.8238 23.1732 20.7639 23.4449 20.8373C23.7748 20.9257 24.1257 20.8283 24.4572 20.9392C24.5109 20.9571 24.5542 20.8627 24.6229 20.8822C24.5521 21.3135 24.5833 21.7554 24.714 22.1723C24.487 22.1334 24.2899 22.2473 24.1018 22.3222C23.7719 22.4615 23.4285 22.4406 23.094 22.4451C22.8202 22.4561 22.5467 22.4155 22.2878 22.3252C22.1614 22.2975 22.0494 22.2245 21.9728 22.1199C21.9538 22.0951 21.9294 22.075 21.9014 22.0612C21.8735 22.0474 21.8427 22.0403 21.8115 22.0405C22.0292 21.6069 22.0858 21.1097 21.9713 20.638Z" fill="#A0D1CA"/>
<path d="M18.2371 18.335C18.7583 18.4401 19.2453 18.6739 19.6539 19.0152C20.1869 19.4648 20.6752 19.9652 20.9782 20.614C21.0878 20.813 21.1301 21.0423 21.0986 21.2674C21.067 21.4925 20.9635 21.7012 20.8036 21.8622C20.6543 22.03 20.6154 22.0285 20.5274 21.8262C20.308 21.2883 20.0521 20.7661 19.7614 20.2634C19.373 19.6584 18.9324 19.0888 18.4446 18.5612C18.3908 18.4998 18.3341 18.4413 18.2371 18.335Z" fill="#71ACAB"/>
<path d="M27.7269 18.7605C26.7897 19.6936 26.1096 20.8547 25.7531 22.1304C25.632 21.9537 25.5526 21.7516 25.521 21.5394C25.4895 21.3273 25.5065 21.1107 25.571 20.9062C25.6979 20.4672 25.9815 20.13 26.2592 19.7854C26.6555 19.3261 27.16 18.9737 27.7269 18.7605Z" fill="#71ACAB"/>
</g>
<defs>
<clipPath id="clip0_178_1989">
<rect width="27.0769" height="17.7692" fill="white" transform="translate(0 1.76923)"/>
</clipPath>
<clipPath id="clip1_178_1989">
<rect width="19.4615" height="22.8462" fill="white" transform="translate(13.5386 0.0769043)"/>
</clipPath>
</defs>
</svg>
