<svg width="37" height="24" viewBox="0 0 37 24" fill="none" xmlns="http://www.w3.org/2000/svg">
<g clip-path="url(#clip0_179_4783)">
<path d="M9.03124 22.7117C9.03915 22.2827 9.16185 21.8725 9.24893 21.4584C9.54578 20.0614 9.79414 18.6544 10.3651 17.3382C10.5402 16.934 10.754 16.5399 11.1359 16.2774C11.1986 16.2212 11.2796 16.1901 11.3635 16.1901C11.4474 16.1901 11.5284 16.2212 11.5911 16.2774C12.0492 16.6357 12.3045 17.1306 12.4896 17.6605C13.0071 19.1433 13.3108 20.6831 13.6423 22.2148C13.6789 22.3894 13.7809 22.5641 13.6967 22.7527C13.6703 22.7584 13.6454 22.7696 13.6234 22.7855C13.6014 22.8014 13.5829 22.8216 13.569 22.845C13.5551 22.8684 13.5461 22.8944 13.5425 22.9214C13.539 22.9484 13.5409 22.9759 13.5483 23.0021C13.5899 23.2566 13.6384 23.5101 13.6987 23.7595C13.7166 23.8299 13.7588 23.8915 13.8178 23.9333C13.8768 23.975 13.9486 23.9941 14.0203 23.987C14.9217 23.993 15.8222 23.994 16.7236 23.996C16.9057 23.996 17.0363 23.8763 17.0136 23.7176C16.967 23.3983 17.3253 23.0191 16.882 22.7586C16.8775 22.7142 16.8775 22.6694 16.882 22.6249C17.066 21.7039 17.1719 20.7739 17.2778 19.8399C17.3694 18.9843 17.4295 18.1282 17.4578 17.2713C17.4974 16.0739 17.4677 14.8664 17.4677 13.664C17.4684 13.575 17.4641 13.486 17.4549 13.3975C17.3559 12.5104 17.257 11.6223 17.1501 10.7352C17.0759 10.1125 16.9957 9.48984 16.9136 8.86717C16.8147 8.14869 16.6474 7.4382 16.6771 6.70576C17.1719 7.21667 17.6587 7.72958 18.1614 8.22852C19.1294 9.16164 20.1815 10.0018 21.304 10.7382C21.3619 10.7874 21.4351 10.8145 21.5108 10.8145C21.5865 10.8145 21.6598 10.7874 21.7177 10.7382C22.1055 10.4288 22.4895 10.1145 22.8744 9.80218C23.002 9.70239 23.0456 9.55471 22.9585 9.42199C22.6992 9.02284 22.5775 8.56381 22.3272 8.16366C21.5564 6.93527 20.6836 5.78073 19.797 4.63815C18.6977 3.22116 17.5993 1.80318 16.3555 0.508929C16.2569 0.361518 16.115 0.24884 15.9498 0.186613C15.3946 -0.00467813 14.7943 -0.0182705 14.2311 0.147696C14.0771 0.0775068 13.9019 0.0710573 13.7432 0.129734C13.2572 0.315996 12.7494 0.438085 12.2323 0.492962C11.2744 0.601842 10.3046 0.496913 9.39142 0.185615C9.2232 0.12674 9.07082 0.0359339 8.88776 0.102792C8.82656 0.0994283 8.7657 0.091422 8.70569 0.0788422C8.23046 -0.0366801 7.73409 -0.0301611 7.26201 0.0978021C7.16679 0.114083 7.07642 0.151781 6.99763 0.208097C6.91883 0.264414 6.85362 0.337903 6.80683 0.423111C6.67932 0.501888 6.56701 0.603314 6.47535 0.722475C5.43736 1.82014 4.47854 2.98167 3.55038 4.17015C2.30262 5.76676 0.971739 7.30948 0.0950397 9.17052C-0.0375536 9.45292 -0.0415116 9.54572 0.19399 9.74231C0.535368 10.0237 0.880703 10.3021 1.21911 10.5865C1.40019 10.7392 1.56445 10.7312 1.73761 10.5765C1.88307 10.4468 2.01764 10.2772 2.18982 10.2113C2.70337 10.0117 3.10709 9.64651 3.52367 9.30723C4.51472 8.49318 5.44966 7.61201 6.32198 6.66984C6.37541 7.04803 6.29823 7.41825 6.24678 7.78846C6.1597 8.41912 6.037 9.04479 5.9618 9.67745C5.8678 10.4588 5.7639 11.2401 5.66495 12.0215C5.54423 12.9814 5.46705 13.9424 5.4334 14.9063C5.38393 16.5149 5.472 18.1215 5.58183 19.7261C5.62339 20.3248 5.70453 20.9235 5.77973 21.5223C5.83118 21.9214 5.94201 22.3026 5.94993 22.7038C5.91694 22.7096 5.88544 22.7221 5.8573 22.7404C5.82915 22.7587 5.80491 22.7825 5.78601 22.8104C5.76711 22.8383 5.75393 22.8697 5.74725 22.9028C5.74056 22.9359 5.7405 22.97 5.74708 23.0031C5.76588 23.2247 5.77676 23.4472 5.80645 23.6677C5.80853 23.7081 5.81872 23.7477 5.8364 23.7841C5.85408 23.8204 5.87889 23.8527 5.90932 23.8791C5.93975 23.9055 5.97517 23.9254 6.01345 23.9376C6.05172 23.9498 6.09205 23.9541 6.132 23.9501C7.01529 23.9501 7.89892 23.9538 8.78287 23.9611C8.82675 23.9665 8.87126 23.963 8.91378 23.9508C8.95629 23.9386 8.99596 23.9179 9.03044 23.89C9.06492 23.8621 9.09353 23.8276 9.11456 23.7884C9.1356 23.7492 9.14865 23.7061 9.15294 23.6617C9.19153 23.4622 9.23211 23.2626 9.27663 23.063C9.32116 22.8634 9.24794 22.7267 9.03124 22.7117Z" fill="#FEFEFE"/>
<path d="M5.95177 22.7008C5.94386 22.3016 5.83303 21.9145 5.78158 21.5193C5.7044 20.9206 5.62326 20.3278 5.58368 19.7231C5.47384 18.1185 5.38578 16.5119 5.43525 14.9034C5.46494 13.9394 5.54608 12.9784 5.6668 12.0185C5.76575 11.2371 5.86965 10.4558 5.96365 9.67446C6.03885 9.04181 6.16155 8.41614 6.24863 7.78548C6.30008 7.41526 6.37726 7.04505 6.32383 6.66686C6.41288 6.51817 6.38122 6.35252 6.37429 6.19586C6.3599 6.05865 6.37705 5.91993 6.42441 5.79049C6.47178 5.66104 6.54808 5.54434 6.6474 5.44944C6.83995 5.24948 6.96734 4.99498 7.01252 4.71999C7.31432 3.3499 7.38062 1.98979 6.82749 0.65962C6.80036 0.584304 6.79254 0.503302 6.80473 0.424121C6.85151 0.338913 6.91672 0.265424 6.99551 0.209107C7.07431 0.152791 7.16468 0.115093 7.2599 0.0988124C7.73169 -0.0274987 8.22733 -0.0326447 8.7016 0.0838441C8.76161 0.0964239 8.82247 0.104429 8.88367 0.107793C8.76295 0.21756 8.84409 0.314354 8.90148 0.414142C9.21392 0.962376 9.68628 1.4002 10.2543 1.66804C10.8223 1.93587 11.4583 2.02069 12.0758 1.91096C12.5225 1.83643 12.9467 1.66125 13.3169 1.39846C13.6872 1.13568 13.9938 0.792058 14.2141 0.393187C14.2616 0.313356 14.3032 0.23652 14.227 0.1517C14.7902 -0.0142667 15.3905 -0.000674332 15.9458 0.190617C16.111 0.252844 16.2528 0.365522 16.3514 0.512933C16.2654 0.712508 16.1615 0.912084 16.0952 1.11765C15.7518 2.21531 15.7657 3.31997 15.9566 4.43659C16.0318 4.88165 16.1545 5.30076 16.487 5.63405C16.6335 5.77874 16.6562 5.98031 16.6602 6.17889C16.6602 6.35751 16.6681 6.53513 16.6711 6.71276C16.6414 7.4452 16.8126 8.15569 16.9075 8.87416C16.9897 9.49684 17.0698 10.1195 17.144 10.7422C17.2489 11.6293 17.3489 12.5174 17.4488 13.4045C17.4581 13.493 17.4623 13.582 17.4617 13.671C17.4617 14.8734 17.4914 16.0769 17.4518 17.2783C17.4241 18.1345 17.364 18.9907 17.2717 19.8468C17.1727 20.7809 17.0649 21.7109 16.8759 22.6319C16.8714 22.6764 16.8714 22.7212 16.8759 22.7656L14.223 22.7457C14.1557 22.0671 13.9697 21.4105 13.8203 20.7499C13.5709 19.6453 13.3186 18.5396 12.9297 17.4729C12.7318 16.935 12.527 16.3982 12.0857 15.988C11.9773 15.8817 11.8476 15.7999 11.7055 15.7479C11.5633 15.6959 11.4118 15.675 11.261 15.6865C11.1102 15.698 10.9635 15.7417 10.8307 15.8147C10.6979 15.8876 10.582 15.9882 10.4906 16.1098C10.0265 16.6786 9.77125 17.3472 9.56247 18.0317C9.09542 19.5634 8.78967 21.1351 8.49084 22.7078L5.95177 22.7008ZM11.5009 11.759C11.6833 11.7657 11.8658 11.7469 12.0432 11.7032C12.6802 11.5692 13.2506 11.2145 13.6553 10.7007C14.06 10.1868 14.2735 9.5462 14.2587 8.89013C14.2587 8.65463 14.2804 8.51593 14.4813 8.36525C14.9543 8.01 15.0315 7.4003 14.7079 6.91433C14.5593 6.68469 14.3292 6.5211 14.0648 6.45708C13.8004 6.39307 13.5218 6.43349 13.286 6.57006C13.2347 6.60706 13.173 6.62628 13.11 6.62484C13.047 6.6234 12.9862 6.60137 12.9367 6.56208C11.9828 5.99329 11.0151 5.9863 10.0483 6.53015C10.0046 6.56454 9.95084 6.58322 9.89544 6.58322C9.84003 6.58322 9.78622 6.56454 9.74256 6.53015C9.62631 6.44826 9.49385 6.39275 9.3543 6.36742C9.21474 6.3421 9.0714 6.34757 8.93414 6.38346C8.72441 6.42698 8.53258 6.53332 8.38376 6.68857C8.23493 6.84382 8.13603 7.04075 8.09999 7.25361C8.00994 7.70764 8.19102 8.07387 8.55417 8.34629C8.65312 8.41913 8.72139 8.47402 8.70259 8.6207C8.48886 10.2762 9.79599 11.759 11.5009 11.759Z" fill="#E7D5C6"/>
<path d="M6.8029 0.427063C6.79071 0.506243 6.79854 0.587246 6.82566 0.662563C7.37879 1.99274 7.31249 3.35684 7.01069 4.72293C6.96551 4.99792 6.83812 5.25242 6.64557 5.45238C6.54625 5.54728 6.46995 5.66398 6.42259 5.79343C6.37522 5.92287 6.35807 6.06159 6.37247 6.1988C6.37939 6.35546 6.41106 6.52111 6.322 6.6698C5.44921 7.61376 4.51361 8.4966 3.52171 9.31218C3.10513 9.65146 2.70141 10.0107 2.18786 10.2163C2.01569 10.2841 1.88111 10.4518 1.73566 10.5815C1.56249 10.7362 1.39824 10.7441 1.21716 10.5915C0.878747 10.3071 0.533409 10.0287 0.192031 9.74726C-0.0454498 9.54768 -0.0414918 9.45787 0.0930806 9.17547C0.967801 7.31443 2.29868 5.77171 3.54645 4.1751C4.4746 2.98662 5.43343 1.8221 6.47142 0.727424C6.56298 0.607905 6.6753 0.506137 6.8029 0.427063Z" fill="#DC968F"/>
<path d="M16.6711 6.70971C16.6711 6.53209 16.6641 6.35447 16.6602 6.17585C16.6602 5.97627 16.6334 5.7767 16.487 5.63101C16.1525 5.30071 16.0318 4.8816 15.9566 4.43355C15.7657 3.31692 15.7518 2.20728 16.0952 1.1146C16.1615 0.907044 16.2654 0.715451 16.3514 0.509888C17.5952 1.80713 18.6936 3.22212 19.7929 4.63911C20.6835 5.78168 21.5523 6.93424 22.3231 8.16462C22.5734 8.56377 22.6951 9.02779 22.9544 9.42295C23.0415 9.55567 22.9979 9.69936 22.8703 9.80314C22.4854 10.1155 22.1014 10.4298 21.7136 10.7392C21.6557 10.7884 21.5825 10.8154 21.5067 10.8154C21.431 10.8154 21.3578 10.7884 21.2999 10.7392C20.1774 10.0028 19.1253 9.1626 18.1573 8.22948C17.6526 7.73354 17.1628 7.22063 16.6711 6.70971Z" fill="#DC968F"/>
<path d="M8.50073 22.7037C8.79758 21.1311 9.10531 19.5594 9.57236 18.0277C9.78114 17.3431 10.0364 16.6745 10.5005 16.1058C10.5919 15.9842 10.7078 15.8836 10.8406 15.8106C10.9734 15.7377 11.12 15.694 11.2709 15.6825C11.4217 15.6709 11.5732 15.6919 11.7154 15.7439C11.8575 15.7958 11.9871 15.8777 12.0956 15.984C12.5369 16.3941 12.7457 16.931 12.9396 17.4689C13.3246 18.5356 13.5769 19.6412 13.8302 20.7459C13.9796 21.4075 14.1656 22.0641 14.2329 22.7417L13.7006 22.7546C13.7847 22.566 13.6828 22.3914 13.6461 22.2168C13.3147 20.685 13.0109 19.1453 12.4934 17.6624C12.3083 17.1326 12.053 16.6376 11.5949 16.2794C11.5322 16.2231 11.4512 16.1921 11.3673 16.1921C11.2834 16.1921 11.2024 16.2231 11.1397 16.2794C10.7578 16.5428 10.546 16.936 10.3689 17.3401C9.79797 18.6563 9.54762 20.0663 9.25275 21.4604C9.16568 21.8745 9.04298 22.2846 9.03506 22.7137L8.50073 22.7037Z" fill="#E7D5C6"/>
<path d="M14.2272 0.151663C14.3033 0.236483 14.2618 0.31332 14.2143 0.39315C13.9934 0.791091 13.6865 1.13374 13.3163 1.39563C12.9461 1.65753 12.5222 1.83195 12.076 1.90594C11.4585 2.01567 10.8224 1.93084 10.2544 1.66301C9.68645 1.39518 9.21409 0.95735 8.90165 0.409117C8.84426 0.309329 8.76312 0.209541 8.88384 0.102768C9.0669 0.0359096 9.21928 0.126716 9.3875 0.185591C10.3006 0.496889 11.2705 0.601817 12.2284 0.492938C12.7454 0.438061 13.2533 0.315972 13.7393 0.12971C13.8985 0.0722891 14.0737 0.0801723 14.2272 0.151663ZM13.209 0.836209C12.1205 1.10264 11.0509 1.06672 9.91985 0.896081C10.9371 1.67143 12.4599 1.63751 13.209 0.836209Z" fill="#DC968F"/>
<path d="M8.50084 22.7038L9.03121 22.7118C9.24791 22.7267 9.32806 22.8415 9.27858 23.053C9.22911 23.2646 9.19349 23.4522 9.1549 23.6518C9.1506 23.6961 9.13755 23.7392 9.11652 23.7784C9.09548 23.8176 9.06688 23.8522 9.03239 23.8801C8.99791 23.9079 8.95825 23.9286 8.91573 23.9408C8.87321 23.953 8.8287 23.9565 8.78482 23.9511C7.90087 23.9458 7.01724 23.9421 6.13395 23.9401C6.094 23.9441 6.05367 23.9399 6.01539 23.9277C5.97712 23.9155 5.9417 23.8956 5.91127 23.8692C5.88084 23.8428 5.85603 23.8104 5.83835 23.7741C5.82067 23.7377 5.81048 23.6982 5.8084 23.6577C5.77871 23.4372 5.76783 23.2147 5.74903 22.9932C5.74245 22.96 5.74251 22.9259 5.7492 22.8928C5.75589 22.8597 5.76906 22.8283 5.78796 22.8004C5.80686 22.7725 5.8311 22.7487 5.85924 22.7304C5.88739 22.7121 5.91889 22.6996 5.95188 22.6938L8.50084 22.7038Z" fill="#DC968F"/>
<path d="M13.6967 22.7566L14.229 22.7437L16.8819 22.7626C17.3252 23.0221 16.967 23.4023 17.0135 23.7216C17.0363 23.8802 16.9057 24 16.7236 24C15.8221 24 14.9217 24 14.0203 23.991C13.9486 23.998 13.8767 23.979 13.8177 23.9372C13.7588 23.8955 13.7165 23.8339 13.6987 23.7635C13.6383 23.514 13.5898 23.2645 13.5483 23.0061C13.5409 22.9799 13.5389 22.9524 13.5425 22.9254C13.5461 22.8984 13.5551 22.8724 13.569 22.849C13.5829 22.8256 13.6014 22.8054 13.6234 22.7895C13.6453 22.7736 13.6703 22.7624 13.6967 22.7566Z" fill="#DC968F"/>
<path d="M11.5009 11.759C9.79601 11.759 8.48887 10.2802 8.70261 8.62367C8.72141 8.47698 8.65115 8.4241 8.55418 8.34925C8.19103 8.07683 8.00996 7.71061 8.1 7.25658C8.13604 7.04372 8.23495 6.84679 8.38377 6.69154C8.5326 6.53629 8.72442 6.42995 8.93415 6.38643C9.07141 6.35054 9.21475 6.34507 9.35431 6.37039C9.49387 6.39571 9.62633 6.45123 9.74258 6.53311C9.78624 6.56751 9.84005 6.58619 9.89545 6.58619C9.95085 6.58619 10.0047 6.56751 10.0483 6.53311C11.0151 5.98927 11.9828 5.99625 12.9367 6.56505C12.9862 6.60434 13.047 6.62637 13.11 6.62781C13.173 6.62925 13.2348 6.61002 13.286 6.57303C13.5213 6.43608 13.7996 6.39504 14.064 6.4583C14.3283 6.52156 14.5587 6.68434 14.7079 6.91331C15.0315 7.39927 14.9543 8.01097 14.4813 8.36422C14.2834 8.5149 14.2577 8.65361 14.2587 8.88911C14.2735 9.54517 14.06 10.1858 13.6553 10.6996C13.2506 11.2135 12.6802 11.5682 12.0432 11.7021C11.8659 11.7462 11.6834 11.7654 11.5009 11.759ZM11.5148 9.03081C11.122 9.02 10.7372 9.14305 10.4224 9.38006C10.2121 9.54692 10.0756 9.79064 10.0425 10.0583C10.0093 10.3261 10.0822 10.5961 10.2452 10.81C10.7924 11.5175 11.9878 11.5674 12.5953 10.9098C12.7519 10.7456 12.8476 10.5321 12.8664 10.3051C12.8851 10.0781 12.8257 9.85148 12.6982 9.66346C12.4083 9.20444 11.9551 9.06473 11.5108 9.02681L11.5148 9.03081ZM14.5357 7.56791C14.5357 7.04602 14.0509 6.6818 13.6115 6.83048C13.4512 6.88537 13.4087 6.93726 13.5462 7.07596C13.7554 7.30206 13.9229 7.56394 14.041 7.84932C14.0806 7.93414 14.0726 8.08382 14.1726 8.08681C14.2973 8.08681 14.3794 7.96906 14.4289 7.85231C14.4783 7.73556 14.511 7.64276 14.5357 7.56791ZM8.80749 8.03692C8.97266 7.62764 9.20965 7.25175 9.50707 6.92728C9.60602 6.81951 9.48036 6.80354 9.41604 6.7766C9.24973 6.71954 9.06869 6.72416 8.90545 6.78964C8.74222 6.85512 8.6075 6.97716 8.52549 7.13384C8.36222 7.45815 8.47007 7.81838 8.80749 8.04091V8.03692ZM12.3578 8.63066C12.252 8.64562 12.1758 8.70151 12.1777 8.81726C12.1758 8.8442 12.1799 8.87124 12.1897 8.89636C12.1996 8.92148 12.2149 8.94403 12.2346 8.96235C12.2543 8.98067 12.2778 8.99427 12.3034 9.00215C12.329 9.01003 12.3561 9.01198 12.3826 9.00785C12.4071 9.00723 12.4312 9.0014 12.4534 8.99076C12.4756 8.98011 12.4953 8.96489 12.5112 8.94607C12.5272 8.92725 12.539 8.90526 12.546 8.88152C12.553 8.85778 12.555 8.83283 12.5518 8.80828C12.5488 8.69851 12.4726 8.64263 12.3578 8.63465V8.63066ZM10.5639 8.98291C10.5884 8.98523 10.6132 8.98247 10.6367 8.97478C10.6602 8.96709 10.6819 8.95463 10.7004 8.93818C10.7189 8.92174 10.734 8.90164 10.7445 8.87913C10.7551 8.85662 10.7609 8.83217 10.7618 8.80728C10.7654 8.78074 10.7629 8.75372 10.7546 8.72827C10.7464 8.70282 10.7324 8.6796 10.714 8.66037C10.6955 8.64114 10.6729 8.62641 10.6479 8.61729C10.6229 8.60816 10.5962 8.60489 10.5698 8.60771C10.5453 8.60622 10.5208 8.61002 10.498 8.61886C10.4751 8.62769 10.4543 8.64134 10.4371 8.65891C10.4198 8.67648 10.4065 8.69756 10.398 8.72074C10.3895 8.74392 10.386 8.76866 10.3877 8.79331C10.3867 8.81769 10.3904 8.84204 10.3987 8.86497C10.4069 8.8879 10.4196 8.90896 10.436 8.92694C10.4523 8.94492 10.4721 8.95947 10.494 8.96976C10.5159 8.98005 10.5397 8.98587 10.5639 8.9869V8.98291Z" fill="#DC968F"/>
<path d="M13.2088 0.836243C12.4597 1.63455 10.9329 1.67147 9.91968 0.896115C11.0507 1.06675 12.1154 1.10268 13.2088 0.836243Z" fill="#DC968F"/>
<path d="M11.5108 9.0268C11.9511 9.06771 12.4014 9.20442 12.6982 9.65846C12.8256 9.84752 12.8843 10.0752 12.8642 10.3029C12.8442 10.5306 12.7468 10.7443 12.5884 10.9078C11.9808 11.5674 10.7855 11.5175 10.2383 10.808C10.0766 10.5934 10.0053 10.3232 10.0397 10.0559C10.0742 9.78867 10.2116 9.54584 10.4224 9.38005C10.7356 9.14247 11.119 9.01805 11.5108 9.0268ZM11.3683 9.86801C11.3683 10.0915 11.3564 10.3141 11.3594 10.5366C11.3594 10.6793 11.3426 10.7551 11.1615 10.7002C10.9998 10.6573 10.8414 10.6026 10.6875 10.5366C10.6331 10.5116 10.5609 10.4857 10.5282 10.5635C10.5025 10.6254 10.5619 10.6543 10.6054 10.6853C10.9814 10.9517 11.87 10.9677 12.2579 10.7142C12.3074 10.6823 12.3855 10.6583 12.337 10.5775C12.2886 10.4967 12.2381 10.5426 12.1748 10.5645C12.0263 10.6204 11.8779 10.6773 11.7255 10.7202C11.5731 10.7631 11.5088 10.7202 11.5167 10.5496C11.5276 10.328 11.5167 10.1045 11.5167 9.88198C11.6899 9.7822 11.7859 9.60557 11.9125 9.46088C12.0392 9.31619 11.9798 9.2154 11.8007 9.20442C11.5642 9.19045 11.3268 9.18945 11.0903 9.19544C10.9201 9.19544 10.8587 9.28325 10.9785 9.43094C11.0982 9.57863 11.2446 9.72332 11.3723 9.86801H11.3683Z" fill="#DC968F"/>
<path d="M14.5359 7.56791C14.5111 7.63876 14.4775 7.74753 14.4369 7.85231C14.3964 7.95709 14.3053 8.08981 14.1807 8.08681C14.0817 8.08681 14.0886 7.93414 14.0491 7.84932C13.931 7.56394 13.7635 7.30206 13.5543 7.07596C13.4168 6.93726 13.4553 6.88536 13.6196 6.83048C14.051 6.68579 14.5398 7.05002 14.5359 7.56791Z" fill="#DC968F"/>
<path d="M8.80746 8.0409C8.47004 7.81837 8.36218 7.45813 8.52149 7.13782C8.6035 6.98114 8.73823 6.8591 8.90147 6.79362C9.0647 6.72814 9.24573 6.72351 9.41205 6.78057C9.47636 6.80752 9.605 6.82348 9.50309 6.93125C9.20707 7.25605 8.97144 7.63192 8.80746 8.0409Z" fill="#DC968F"/>
<path d="M12.358 8.63464C12.4728 8.64263 12.549 8.69851 12.5559 8.81326C12.5591 8.83781 12.5571 8.86276 12.5502 8.8865C12.5432 8.91024 12.5313 8.93223 12.5154 8.95105C12.4994 8.96987 12.4797 8.9851 12.4575 8.99574C12.4354 9.00639 12.4112 9.01221 12.3867 9.01284C12.3602 9.01696 12.3332 9.01501 12.3076 9.00713C12.2819 8.99926 12.2584 8.98565 12.2387 8.96734C12.219 8.94902 12.2037 8.92646 12.1939 8.90134C12.184 8.87622 12.1799 8.84918 12.1819 8.82225C12.1759 8.70549 12.2521 8.64961 12.358 8.63464Z" fill="#575757"/>
<path d="M10.564 8.98688C10.5399 8.98611 10.5161 8.98054 10.494 8.97049C10.472 8.96044 10.4522 8.94611 10.4356 8.92831C10.4191 8.91052 10.4062 8.88961 10.3976 8.86679C10.3891 8.84396 10.3851 8.81967 10.3859 8.79529C10.3842 8.77064 10.3877 8.7459 10.3962 8.72272C10.4047 8.69954 10.418 8.67846 10.4353 8.66089C10.4525 8.64332 10.4733 8.62967 10.4961 8.62084C10.519 8.612 10.5435 8.6082 10.568 8.60969C10.5944 8.60687 10.6211 8.61014 10.6461 8.61927C10.6711 8.62839 10.6937 8.64312 10.7122 8.66235C10.7306 8.68158 10.7446 8.7048 10.7528 8.73025C10.7611 8.7557 10.7636 8.78272 10.76 8.80926C10.7594 8.83413 10.7537 8.85862 10.7434 8.88122C10.7331 8.90382 10.7183 8.92406 10.7 8.94069C10.6816 8.95733 10.6601 8.97 10.6367 8.97795C10.6134 8.98589 10.5886 8.98893 10.564 8.98688Z" fill="#575757"/>
<path d="M11.3723 9.868C11.2447 9.72331 11.1131 9.58161 10.9904 9.43093C10.8677 9.28025 10.932 9.19942 11.1022 9.19543C11.3387 9.18944 11.5761 9.19044 11.8126 9.20441C11.9917 9.21539 12.06 9.3042 11.9244 9.46087C11.7889 9.61753 11.7018 9.78119 11.5286 9.88197L11.3723 9.868Z" fill="#575757"/>
<path d="M11.3725 9.86804L11.5288 9.88201C11.5288 10.1045 11.5357 10.3281 11.5288 10.5496C11.5209 10.7172 11.6 10.7591 11.7376 10.7202C11.8751 10.6813 12.0344 10.6204 12.1868 10.5646C12.2462 10.5426 12.3066 10.5047 12.3491 10.5775C12.3916 10.6504 12.3194 10.6823 12.2699 10.7142C11.8821 10.9677 10.9935 10.9517 10.6175 10.6853C10.5739 10.6544 10.5185 10.6254 10.5403 10.5636C10.5729 10.4857 10.6452 10.5117 10.6996 10.5366C10.8535 10.6026 11.0119 10.6573 11.1736 10.7003C11.3507 10.7552 11.3715 10.6793 11.3715 10.5366C11.3606 10.3141 11.3695 10.0916 11.3725 9.86804Z" fill="#DC968F"/>
</g>
<g clip-path="url(#clip1_179_4783)">
<path d="M16.0312 22.7117C16.0392 22.2827 16.1619 21.8725 16.2489 21.4584C16.5458 20.0614 16.7941 18.6544 17.3651 17.3382C17.5402 16.934 17.754 16.5399 18.1359 16.2774C18.1986 16.2212 18.2796 16.1901 18.3635 16.1901C18.4474 16.1901 18.5284 16.2212 18.5911 16.2774C19.0492 16.6357 19.3045 17.1306 19.4896 17.6605C20.0071 19.1433 20.3108 20.6831 20.6423 22.2148C20.6789 22.3894 20.7809 22.5641 20.6967 22.7527C20.6703 22.7584 20.6454 22.7696 20.6234 22.7855C20.6014 22.8014 20.5829 22.8216 20.569 22.845C20.5551 22.8684 20.5461 22.8944 20.5425 22.9214C20.539 22.9484 20.5409 22.9759 20.5483 23.0021C20.5899 23.2566 20.6384 23.5101 20.6987 23.7595C20.7166 23.8299 20.7588 23.8915 20.8178 23.9333C20.8768 23.975 20.9486 23.9941 21.0203 23.987C21.9217 23.993 22.8222 23.994 23.7236 23.996C23.9057 23.996 24.0363 23.8763 24.0136 23.7176C23.967 23.3983 24.3253 23.0191 23.882 22.7586C23.8775 22.7142 23.8775 22.6694 23.882 22.6249C24.066 21.7039 24.1719 20.7739 24.2778 19.8399C24.3694 18.9843 24.4295 18.1282 24.4578 17.2713C24.4974 16.0739 24.4677 14.8664 24.4677 13.664C24.4684 13.575 24.4641 13.486 24.4549 13.3975C24.3559 12.5104 24.257 11.6223 24.1501 10.7352C24.0759 10.1125 23.9957 9.48984 23.9136 8.86717C23.8147 8.14869 23.6474 7.4382 23.6771 6.70576C24.1719 7.21667 24.6587 7.72958 25.1614 8.22852C26.1294 9.16164 27.1815 10.0018 28.304 10.7382C28.3619 10.7874 28.4351 10.8145 28.5108 10.8145C28.5865 10.8145 28.6598 10.7874 28.7177 10.7382C29.1055 10.4288 29.4895 10.1145 29.8744 9.80218C30.002 9.70239 30.0456 9.55471 29.9585 9.42199C29.6992 9.02284 29.5775 8.56381 29.3272 8.16366C28.5564 6.93527 27.6836 5.78073 26.797 4.63815C25.6977 3.22116 24.5993 1.80318 23.3555 0.508929C23.2569 0.361518 23.115 0.24884 22.9498 0.186613C22.3946 -0.00467813 21.7943 -0.0182705 21.2311 0.147696C21.0771 0.0775068 20.9019 0.0710573 20.7432 0.129734C20.2572 0.315996 19.7494 0.438085 19.2323 0.492962C18.2744 0.601842 17.3046 0.496913 16.3914 0.185615C16.2232 0.12674 16.0708 0.0359339 15.8878 0.102792C15.8266 0.0994283 15.7657 0.091422 15.7057 0.0788422C15.2305 -0.0366801 14.7341 -0.0301611 14.262 0.0978021C14.1668 0.114083 14.0764 0.151781 13.9976 0.208097C13.9188 0.264414 13.8536 0.337903 13.8068 0.423111C13.6793 0.501888 13.567 0.603314 13.4754 0.722475C12.4374 1.82014 11.4785 2.98167 10.5504 4.17015C9.30262 5.76676 7.97174 7.30948 7.09504 9.17052C6.96245 9.45292 6.95849 9.54572 7.19399 9.74231C7.53537 10.0237 7.8807 10.3021 8.21911 10.5865C8.40019 10.7392 8.56445 10.7312 8.73761 10.5765C8.88307 10.4468 9.01764 10.2772 9.18982 10.2113C9.70337 10.0117 10.1071 9.64651 10.5237 9.30723C11.5147 8.49318 12.4497 7.61201 13.322 6.66984C13.3754 7.04803 13.2982 7.41825 13.2468 7.78846C13.1597 8.41912 13.037 9.04479 12.9618 9.67745C12.8678 10.4588 12.7639 11.2401 12.665 12.0215C12.5442 12.9814 12.467 13.9424 12.4334 14.9063C12.3839 16.5149 12.472 18.1215 12.5818 19.7261C12.6234 20.3248 12.7045 20.9235 12.7797 21.5223C12.8312 21.9214 12.942 22.3026 12.9499 22.7038C12.9169 22.7096 12.8854 22.7221 12.8573 22.7404C12.8291 22.7587 12.8049 22.7825 12.786 22.8104C12.7671 22.8383 12.7539 22.8697 12.7472 22.9028C12.7406 22.9359 12.7405 22.97 12.7471 23.0031C12.7659 23.2247 12.7768 23.4472 12.8064 23.6677C12.8085 23.7081 12.8187 23.7477 12.8364 23.7841C12.8541 23.8204 12.8789 23.8527 12.9093 23.8791C12.9397 23.9055 12.9752 23.9254 13.0134 23.9376C13.0517 23.9498 13.0921 23.9541 13.132 23.9501C14.0153 23.9501 14.8989 23.9538 15.7829 23.9611C15.8268 23.9665 15.8713 23.963 15.9138 23.9508C15.9563 23.9386 15.996 23.9179 16.0304 23.89C16.0649 23.8621 16.0935 23.8276 16.1146 23.7884C16.1356 23.7492 16.1487 23.7061 16.1529 23.6617C16.1915 23.4622 16.2321 23.2626 16.2766 23.063C16.3212 22.8634 16.2479 22.7267 16.0312 22.7117Z" fill="#FEFEFE"/>
<path d="M12.9518 22.7008C12.9439 22.3016 12.833 21.9145 12.7816 21.5193C12.7044 20.9206 12.6233 20.3278 12.5837 19.7231C12.4738 18.1185 12.3858 16.5119 12.4353 14.9034C12.4649 13.9394 12.5461 12.9784 12.6668 12.0185C12.7657 11.2371 12.8696 10.4558 12.9636 9.67446C13.0389 9.04181 13.1615 8.41614 13.2486 7.78548C13.3001 7.41526 13.3773 7.04505 13.3238 6.66686C13.4129 6.51817 13.3812 6.35252 13.3743 6.19586C13.3599 6.05865 13.3771 5.91993 13.4244 5.79049C13.4718 5.66104 13.5481 5.54434 13.6474 5.44944C13.8399 5.24948 13.9673 4.99498 14.0125 4.71999C14.3143 3.3499 14.3806 1.98979 13.8275 0.65962C13.8004 0.584304 13.7925 0.503302 13.8047 0.424121C13.8515 0.338913 13.9167 0.265424 13.9955 0.209107C14.0743 0.152791 14.1647 0.115093 14.2599 0.0988124C14.7317 -0.0274987 15.2273 -0.0326447 15.7016 0.0838441C15.7616 0.0964239 15.8225 0.104429 15.8837 0.107793C15.763 0.21756 15.8441 0.314354 15.9015 0.414142C16.2139 0.962376 16.6863 1.4002 17.2543 1.66804C17.8223 1.93587 18.4583 2.02069 19.0758 1.91096C19.5225 1.83643 19.9467 1.66125 20.3169 1.39846C20.6872 1.13568 20.9938 0.792058 21.2141 0.393187C21.2616 0.313356 21.3032 0.23652 21.227 0.1517C21.7902 -0.0142667 22.3905 -0.000674332 22.9458 0.190617C23.111 0.252844 23.2528 0.365522 23.3514 0.512933C23.2654 0.712508 23.1615 0.912084 23.0952 1.11765C22.7518 2.21531 22.7657 3.31997 22.9566 4.43659C23.0318 4.88165 23.1545 5.30076 23.487 5.63405C23.6335 5.77874 23.6562 5.98031 23.6602 6.17889C23.6602 6.35751 23.6681 6.53513 23.6711 6.71276C23.6414 7.4452 23.8126 8.15569 23.9075 8.87416C23.9897 9.49684 24.0698 10.1195 24.144 10.7422C24.2489 11.6293 24.3489 12.5174 24.4488 13.4045C24.4581 13.493 24.4623 13.582 24.4617 13.671C24.4617 14.8734 24.4914 16.0769 24.4518 17.2783C24.4241 18.1345 24.364 18.9907 24.2717 19.8468C24.1727 20.7809 24.0649 21.7109 23.8759 22.6319C23.8714 22.6764 23.8714 22.7212 23.8759 22.7656L21.223 22.7457C21.1557 22.0671 20.9697 21.4105 20.8203 20.7499C20.5709 19.6453 20.3186 18.5396 19.9297 17.4729C19.7318 16.935 19.527 16.3982 19.0857 15.988C18.9773 15.8817 18.8476 15.7999 18.7055 15.7479C18.5633 15.6959 18.4118 15.675 18.261 15.6865C18.1102 15.698 17.9635 15.7417 17.8307 15.8147C17.6979 15.8876 17.582 15.9882 17.4906 16.1098C17.0265 16.6786 16.7713 17.3472 16.5625 18.0317C16.0954 19.5634 15.7897 21.1351 15.4908 22.7078L12.9518 22.7008ZM18.5009 11.759C18.6833 11.7657 18.8658 11.7469 19.0432 11.7032C19.6802 11.5692 20.2506 11.2145 20.6553 10.7007C21.06 10.1868 21.2735 9.5462 21.2587 8.89013C21.2587 8.65463 21.2804 8.51593 21.4813 8.36525C21.9543 8.01 22.0315 7.4003 21.7079 6.91433C21.5593 6.68469 21.3292 6.5211 21.0648 6.45708C20.8004 6.39307 20.5218 6.43349 20.286 6.57006C20.2347 6.60706 20.173 6.62628 20.11 6.62484C20.047 6.6234 19.9862 6.60137 19.9367 6.56208C18.9828 5.99329 18.0151 5.9863 17.0483 6.53015C17.0046 6.56454 16.9508 6.58322 16.8954 6.58322C16.84 6.58322 16.7862 6.56454 16.7426 6.53015C16.6263 6.44826 16.4939 6.39275 16.3543 6.36742C16.2147 6.3421 16.0714 6.34757 15.9341 6.38346C15.7244 6.42698 15.5326 6.53332 15.3838 6.68857C15.2349 6.84382 15.136 7.04075 15.1 7.25361C15.0099 7.70764 15.191 8.07387 15.5542 8.34629C15.6531 8.41913 15.7214 8.47402 15.7026 8.6207C15.4889 10.2762 16.796 11.759 18.5009 11.759Z" fill="#A0D1CA"/>
<path d="M13.8029 0.427063C13.7907 0.506243 13.7985 0.587246 13.8257 0.662563C14.3788 1.99274 14.3125 3.35684 14.0107 4.72293C13.9655 4.99792 13.8381 5.25242 13.6456 5.45238C13.5462 5.54728 13.4699 5.66398 13.4226 5.79343C13.3752 5.92287 13.3581 6.06159 13.3725 6.1988C13.3794 6.35546 13.4111 6.52111 13.322 6.6698C12.4492 7.61376 11.5136 8.4966 10.5217 9.31218C10.1051 9.65146 9.70141 10.0107 9.18786 10.2163C9.01569 10.2841 8.88111 10.4518 8.73566 10.5815C8.56249 10.7362 8.39824 10.7441 8.21716 10.5915C7.87875 10.3071 7.53341 10.0287 7.19203 9.74726C6.95455 9.54768 6.95851 9.45787 7.09308 9.17547C7.9678 7.31443 9.29868 5.77171 10.5464 4.1751C11.4746 2.98662 12.4334 1.8221 13.4714 0.727424C13.563 0.607905 13.6753 0.506137 13.8029 0.427063Z" fill="#F1C65E"/>
<path d="M23.6711 6.70971C23.6711 6.53209 23.6641 6.35447 23.6602 6.17585C23.6602 5.97627 23.6334 5.7767 23.487 5.63101C23.1525 5.30071 23.0318 4.8816 22.9566 4.43355C22.7657 3.31692 22.7518 2.20728 23.0952 1.1146C23.1615 0.907044 23.2654 0.715451 23.3514 0.509888C24.5952 1.80713 25.6936 3.22212 26.7929 4.63911C27.6835 5.78168 28.5523 6.93424 29.3231 8.16462C29.5734 8.56377 29.6951 9.02779 29.9544 9.42295C30.0415 9.55567 29.9979 9.69936 29.8703 9.80314C29.4854 10.1155 29.1014 10.4298 28.7136 10.7392C28.6557 10.7884 28.5825 10.8154 28.5067 10.8154C28.431 10.8154 28.3578 10.7884 28.2999 10.7392C27.1774 10.0028 26.1253 9.1626 25.1573 8.22948C24.6526 7.73354 24.1628 7.22063 23.6711 6.70971Z" fill="#F1C65E"/>
<path d="M15.5007 22.7037C15.7976 21.1311 16.1053 19.5594 16.5724 18.0277C16.7811 17.3431 17.0364 16.6745 17.5005 16.1058C17.5919 15.9842 17.7078 15.8836 17.8406 15.8106C17.9734 15.7377 18.12 15.694 18.2709 15.6825C18.4217 15.6709 18.5732 15.6919 18.7154 15.7439C18.8575 15.7958 18.9871 15.8777 19.0956 15.984C19.5369 16.3941 19.7457 16.931 19.9396 17.4689C20.3246 18.5356 20.5769 19.6412 20.8302 20.7459C20.9796 21.4075 21.1656 22.0641 21.2329 22.7417L20.7006 22.7546C20.7847 22.566 20.6828 22.3914 20.6461 22.2168C20.3147 20.685 20.0109 19.1453 19.4934 17.6624C19.3083 17.1326 19.053 16.6376 18.5949 16.2794C18.5322 16.2231 18.4512 16.1921 18.3673 16.1921C18.2834 16.1921 18.2024 16.2231 18.1397 16.2794C17.7578 16.5428 17.546 16.936 17.3689 17.3401C16.798 18.6563 16.5476 20.0663 16.2528 21.4604C16.1657 21.8745 16.043 22.2846 16.0351 22.7137L15.5007 22.7037Z" fill="#A0D1CA"/>
<path d="M21.2272 0.151663C21.3033 0.236483 21.2618 0.31332 21.2143 0.39315C20.9934 0.791091 20.6865 1.13374 20.3163 1.39563C19.9461 1.65753 19.5222 1.83195 19.076 1.90594C18.4585 2.01567 17.8224 1.93084 17.2544 1.66301C16.6865 1.39518 16.2141 0.95735 15.9017 0.409117C15.8443 0.309329 15.7631 0.209541 15.8838 0.102768C16.0669 0.0359096 16.2193 0.126716 16.3875 0.185591C17.3006 0.496889 18.2705 0.601817 19.2284 0.492938C19.7454 0.438061 20.2533 0.315972 20.7393 0.12971C20.8985 0.0722891 21.0737 0.0801723 21.2272 0.151663ZM20.209 0.836209C19.1205 1.10264 18.0509 1.06672 16.9199 0.896081C17.9371 1.67143 19.4599 1.63751 20.209 0.836209Z" fill="#F1C65E"/>
<path d="M15.5008 22.7038L16.0312 22.7118C16.2479 22.7267 16.3281 22.8415 16.2786 23.053C16.2291 23.2646 16.1935 23.4522 16.1549 23.6518C16.1506 23.6961 16.1376 23.7392 16.1165 23.7784C16.0955 23.8176 16.0669 23.8522 16.0324 23.8801C15.9979 23.9079 15.9582 23.9286 15.9157 23.9408C15.8732 23.953 15.8287 23.9565 15.7848 23.9511C14.9009 23.9458 14.0172 23.9421 13.1339 23.9401C13.094 23.9441 13.0537 23.9399 13.0154 23.9277C12.9771 23.9155 12.9417 23.8956 12.9113 23.8692C12.8808 23.8428 12.856 23.8104 12.8384 23.7741C12.8207 23.7377 12.8105 23.6982 12.8084 23.6577C12.7787 23.4372 12.7678 23.2147 12.749 22.9932C12.7425 22.96 12.7425 22.9259 12.7492 22.8928C12.7559 22.8597 12.7691 22.8283 12.788 22.8004C12.8069 22.7725 12.8311 22.7487 12.8592 22.7304C12.8874 22.7121 12.9189 22.6996 12.9519 22.6938L15.5008 22.7038Z" fill="#F1C65E"/>
<path d="M20.6967 22.7566L21.229 22.7437L23.8819 22.7626C24.3252 23.0221 23.967 23.4023 24.0135 23.7216C24.0363 23.8802 23.9057 24 23.7236 24C22.8221 24 21.9217 24 21.0203 23.991C20.9486 23.998 20.8767 23.979 20.8177 23.9372C20.7588 23.8955 20.7165 23.8339 20.6987 23.7635C20.6383 23.514 20.5898 23.2645 20.5483 23.0061C20.5409 22.9799 20.5389 22.9524 20.5425 22.9254C20.5461 22.8984 20.5551 22.8724 20.569 22.849C20.5829 22.8256 20.6014 22.8054 20.6234 22.7895C20.6453 22.7736 20.6703 22.7624 20.6967 22.7566Z" fill="#F1C65E"/>
<path d="M18.5009 11.759C16.796 11.759 15.4889 10.2802 15.7026 8.62367C15.7214 8.47698 15.6512 8.4241 15.5542 8.34925C15.191 8.07683 15.01 7.71061 15.1 7.25658C15.136 7.04372 15.2349 6.84679 15.3838 6.69154C15.5326 6.53629 15.7244 6.42995 15.9342 6.38643C16.0714 6.35054 16.2148 6.34507 16.3543 6.37039C16.4939 6.39571 16.6263 6.45123 16.7426 6.53311C16.7862 6.56751 16.84 6.58619 16.8955 6.58619C16.9509 6.58619 17.0047 6.56751 17.0483 6.53311C18.0151 5.98927 18.9828 5.99625 19.9367 6.56505C19.9862 6.60434 20.047 6.62637 20.11 6.62781C20.173 6.62925 20.2348 6.61002 20.286 6.57303C20.5213 6.43608 20.7996 6.39504 21.064 6.4583C21.3283 6.52156 21.5587 6.68434 21.7079 6.91331C22.0315 7.39927 21.9543 8.01097 21.4813 8.36422C21.2834 8.5149 21.2577 8.65361 21.2587 8.88911C21.2735 9.54517 21.06 10.1858 20.6553 10.6996C20.2506 11.2135 19.6802 11.5682 19.0432 11.7021C18.8659 11.7462 18.6834 11.7654 18.5009 11.759ZM18.5148 9.03081C18.122 9.02 17.7372 9.14305 17.4224 9.38006C17.2121 9.54692 17.0756 9.79064 17.0425 10.0583C17.0093 10.3261 17.0822 10.5961 17.2452 10.81C17.7924 11.5175 18.9878 11.5674 19.5953 10.9098C19.7519 10.7456 19.8476 10.5321 19.8664 10.3051C19.8851 10.0781 19.8257 9.85148 19.6982 9.66346C19.4083 9.20444 18.9551 9.06473 18.5108 9.02681L18.5148 9.03081ZM21.5357 7.56791C21.5357 7.04602 21.0509 6.6818 20.6115 6.83048C20.4512 6.88537 20.4087 6.93726 20.5462 7.07596C20.7554 7.30206 20.9229 7.56394 21.041 7.84932C21.0806 7.93414 21.0726 8.08382 21.1726 8.08681C21.2973 8.08681 21.3794 7.96906 21.4289 7.85231C21.4783 7.73556 21.511 7.64276 21.5357 7.56791ZM15.8075 8.03692C15.9727 7.62764 16.2096 7.25175 16.5071 6.92728C16.606 6.81951 16.4804 6.80354 16.416 6.7766C16.2497 6.71954 16.0687 6.72416 15.9055 6.78964C15.7422 6.85512 15.6075 6.97716 15.5255 7.13384C15.3622 7.45815 15.4701 7.81838 15.8075 8.04091V8.03692ZM19.3578 8.63066C19.252 8.64562 19.1758 8.70151 19.1777 8.81726C19.1758 8.8442 19.1799 8.87124 19.1897 8.89636C19.1996 8.92148 19.2149 8.94403 19.2346 8.96235C19.2543 8.98067 19.2778 8.99427 19.3034 9.00215C19.329 9.01003 19.3561 9.01198 19.3826 9.00785C19.4071 9.00723 19.4312 9.0014 19.4534 8.99076C19.4756 8.98011 19.4953 8.96489 19.5112 8.94607C19.5272 8.92725 19.539 8.90526 19.546 8.88152C19.553 8.85778 19.555 8.83283 19.5518 8.80828C19.5488 8.69851 19.4726 8.64263 19.3578 8.63465V8.63066ZM17.5639 8.98291C17.5884 8.98523 17.6132 8.98247 17.6367 8.97478C17.6602 8.96709 17.6819 8.95463 17.7004 8.93818C17.7189 8.92174 17.734 8.90164 17.7445 8.87913C17.7551 8.85662 17.7609 8.83217 17.7618 8.80728C17.7654 8.78074 17.7629 8.75372 17.7546 8.72827C17.7464 8.70282 17.7324 8.6796 17.714 8.66037C17.6955 8.64114 17.6729 8.62641 17.6479 8.61729C17.6229 8.60816 17.5962 8.60489 17.5698 8.60771C17.5453 8.60622 17.5208 8.61002 17.498 8.61886C17.4751 8.62769 17.4543 8.64134 17.4371 8.65891C17.4198 8.67648 17.4065 8.69756 17.398 8.72074C17.3895 8.74392 17.386 8.76866 17.3877 8.79331C17.3867 8.81769 17.3904 8.84204 17.3987 8.86497C17.4069 8.8879 17.4196 8.90896 17.436 8.92694C17.4523 8.94492 17.4721 8.95947 17.494 8.96976C17.5159 8.98005 17.5397 8.98587 17.5639 8.9869V8.98291Z" fill="#F1C65E"/>
<path d="M20.2088 0.836243C19.4597 1.63455 17.9329 1.67147 16.9197 0.896115C18.0507 1.06675 19.1154 1.10268 20.2088 0.836243Z" fill="#F1C65E"/>
<path d="M18.5108 9.0268C18.9511 9.06771 19.4014 9.20442 19.6982 9.65846C19.8256 9.84752 19.8843 10.0752 19.8642 10.3029C19.8442 10.5306 19.7468 10.7443 19.5884 10.9078C18.9808 11.5674 17.7855 11.5175 17.2383 10.808C17.0766 10.5934 17.0053 10.3232 17.0397 10.0559C17.0742 9.78867 17.2116 9.54584 17.4224 9.38005C17.7356 9.14247 18.119 9.01805 18.5108 9.0268ZM18.3683 9.86801C18.3683 10.0915 18.3564 10.3141 18.3594 10.5366C18.3594 10.6793 18.3426 10.7551 18.1615 10.7002C17.9998 10.6573 17.8414 10.6026 17.6875 10.5366C17.6331 10.5116 17.5609 10.4857 17.5282 10.5635C17.5025 10.6254 17.5619 10.6543 17.6054 10.6853C17.9814 10.9517 18.87 10.9677 19.2579 10.7142C19.3074 10.6823 19.3855 10.6583 19.337 10.5775C19.2886 10.4967 19.2381 10.5426 19.1748 10.5645C19.0263 10.6204 18.8779 10.6773 18.7255 10.7202C18.5731 10.7631 18.5088 10.7202 18.5167 10.5496C18.5276 10.328 18.5167 10.1045 18.5167 9.88198C18.6899 9.7822 18.7859 9.60557 18.9125 9.46088C19.0392 9.31619 18.9798 9.2154 18.8007 9.20442C18.5642 9.19045 18.3268 9.18945 18.0903 9.19544C17.9201 9.19544 17.8587 9.28325 17.9785 9.43094C18.0982 9.57863 18.2446 9.72332 18.3723 9.86801H18.3683Z" fill="#F1C65E"/>
<path d="M21.5359 7.56791C21.5111 7.63876 21.4775 7.74753 21.4369 7.85231C21.3964 7.95709 21.3053 8.08981 21.1807 8.08681C21.0817 8.08681 21.0886 7.93414 21.0491 7.84932C20.931 7.56394 20.7635 7.30206 20.5543 7.07596C20.4168 6.93726 20.4553 6.88536 20.6196 6.83048C21.051 6.68579 21.5398 7.05002 21.5359 7.56791Z" fill="#F1C65E"/>
<path d="M15.8075 8.0409C15.47 7.81837 15.3622 7.45813 15.5215 7.13782C15.6035 6.98114 15.7382 6.8591 15.9015 6.79362C16.0647 6.72814 16.2457 6.72351 16.412 6.78057C16.4764 6.80752 16.605 6.82348 16.5031 6.93125C16.2071 7.25605 15.9714 7.63192 15.8075 8.0409Z" fill="#F1C65E"/>
<path d="M19.358 8.63464C19.4728 8.64263 19.549 8.69851 19.5559 8.81326C19.5591 8.83781 19.5571 8.86276 19.5502 8.8865C19.5432 8.91024 19.5313 8.93223 19.5154 8.95105C19.4994 8.96987 19.4797 8.9851 19.4575 8.99574C19.4354 9.00639 19.4112 9.01221 19.3867 9.01284C19.3602 9.01696 19.3332 9.01501 19.3076 9.00713C19.2819 8.99926 19.2584 8.98565 19.2387 8.96734C19.219 8.94902 19.2037 8.92646 19.1939 8.90134C19.184 8.87622 19.1799 8.84918 19.1819 8.82225C19.1759 8.70549 19.2521 8.64961 19.358 8.63464Z" fill="#575757"/>
<path d="M17.564 8.98688C17.5399 8.98611 17.5161 8.98054 17.494 8.97049C17.472 8.96044 17.4522 8.94611 17.4356 8.92831C17.4191 8.91052 17.4062 8.88961 17.3976 8.86679C17.3891 8.84396 17.3851 8.81967 17.3859 8.79529C17.3842 8.77064 17.3877 8.7459 17.3962 8.72272C17.4047 8.69954 17.418 8.67846 17.4353 8.66089C17.4525 8.64332 17.4733 8.62967 17.4961 8.62084C17.519 8.612 17.5435 8.6082 17.568 8.60969C17.5944 8.60687 17.6211 8.61014 17.6461 8.61927C17.6711 8.62839 17.6937 8.64312 17.7122 8.66235C17.7306 8.68158 17.7446 8.7048 17.7528 8.73025C17.7611 8.7557 17.7636 8.78272 17.76 8.80926C17.7594 8.83413 17.7537 8.85862 17.7434 8.88122C17.7331 8.90382 17.7183 8.92406 17.7 8.94069C17.6816 8.95733 17.6601 8.97 17.6367 8.97795C17.6134 8.98589 17.5886 8.98893 17.564 8.98688Z" fill="#575757"/>
<path d="M18.3723 9.868C18.2447 9.72331 18.1131 9.58161 17.9904 9.43093C17.8677 9.28025 17.932 9.19942 18.1022 9.19543C18.3387 9.18944 18.5761 9.19044 18.8126 9.20441C18.9917 9.21539 19.06 9.3042 18.9244 9.46087C18.7889 9.61753 18.7018 9.78119 18.5286 9.88197L18.3723 9.868Z" fill="#575757"/>
<path d="M18.3725 9.86804L18.5288 9.88201C18.5288 10.1045 18.5357 10.3281 18.5288 10.5496C18.5209 10.7172 18.6 10.7591 18.7376 10.7202C18.8751 10.6813 19.0344 10.6204 19.1868 10.5646C19.2462 10.5426 19.3066 10.5047 19.3491 10.5775C19.3916 10.6504 19.3194 10.6823 19.2699 10.7142C18.8821 10.9677 17.9935 10.9517 17.6175 10.6853C17.5739 10.6544 17.5185 10.6254 17.5403 10.5636C17.5729 10.4857 17.6452 10.5117 17.6996 10.5366C17.8535 10.6026 18.0119 10.6573 18.1736 10.7003C18.3507 10.7552 18.3715 10.6793 18.3715 10.5366C18.3606 10.3141 18.3695 10.0916 18.3725 9.86804Z" fill="#F1C65E"/>
</g>
<g clip-path="url(#clip2_179_4783)">
<path d="M23.0312 22.7117C23.0392 22.2827 23.1619 21.8725 23.2489 21.4584C23.5458 20.0614 23.7941 18.6544 24.3651 17.3382C24.5402 16.934 24.754 16.5399 25.1359 16.2774C25.1986 16.2212 25.2796 16.1901 25.3635 16.1901C25.4474 16.1901 25.5284 16.2212 25.5911 16.2774C26.0492 16.6357 26.3045 17.1306 26.4896 17.6605C27.0071 19.1433 27.3108 20.6831 27.6423 22.2148C27.6789 22.3894 27.7809 22.5641 27.6967 22.7527C27.6703 22.7584 27.6454 22.7696 27.6234 22.7855C27.6014 22.8014 27.5829 22.8216 27.569 22.845C27.5551 22.8684 27.5461 22.8944 27.5425 22.9214C27.539 22.9484 27.5409 22.9759 27.5483 23.0021C27.5899 23.2566 27.6384 23.5101 27.6987 23.7595C27.7166 23.8299 27.7588 23.8915 27.8178 23.9333C27.8768 23.975 27.9486 23.9941 28.0203 23.987C28.9217 23.993 29.8222 23.994 30.7236 23.996C30.9057 23.996 31.0363 23.8763 31.0136 23.7176C30.967 23.3983 31.3253 23.0191 30.882 22.7586C30.8775 22.7142 30.8775 22.6694 30.882 22.6249C31.066 21.7039 31.1719 20.7739 31.2778 19.8399C31.3694 18.9843 31.4295 18.1282 31.4578 17.2713C31.4974 16.0739 31.4677 14.8664 31.4677 13.664C31.4684 13.575 31.4641 13.486 31.4549 13.3975C31.3559 12.5104 31.257 11.6223 31.1501 10.7352C31.0759 10.1125 30.9957 9.48984 30.9136 8.86717C30.8147 8.14869 30.6474 7.4382 30.6771 6.70576C31.1719 7.21667 31.6587 7.72958 32.1614 8.22852C33.1294 9.16164 34.1815 10.0018 35.304 10.7382C35.3619 10.7874 35.4351 10.8145 35.5108 10.8145C35.5865 10.8145 35.6598 10.7874 35.7177 10.7382C36.1055 10.4288 36.4895 10.1145 36.8744 9.80218C37.002 9.70239 37.0456 9.55471 36.9585 9.42199C36.6992 9.02284 36.5775 8.56381 36.3272 8.16366C35.5564 6.93527 34.6836 5.78073 33.797 4.63815C32.6977 3.22116 31.5993 1.80318 30.3555 0.508929C30.2569 0.361518 30.115 0.24884 29.9498 0.186613C29.3946 -0.00467813 28.7943 -0.0182705 28.2311 0.147696C28.0771 0.0775068 27.9019 0.0710573 27.7432 0.129734C27.2572 0.315996 26.7494 0.438085 26.2323 0.492962C25.2744 0.601842 24.3046 0.496913 23.3914 0.185615C23.2232 0.12674 23.0708 0.0359339 22.8878 0.102792C22.8266 0.0994283 22.7657 0.091422 22.7057 0.0788422C22.2305 -0.0366801 21.7341 -0.0301611 21.262 0.0978021C21.1668 0.114083 21.0764 0.151781 20.9976 0.208097C20.9188 0.264414 20.8536 0.337903 20.8068 0.423111C20.6793 0.501888 20.567 0.603314 20.4754 0.722475C19.4374 1.82014 18.4785 2.98167 17.5504 4.17015C16.3026 5.76676 14.9717 7.30948 14.095 9.17052C13.9624 9.45292 13.9585 9.54572 14.194 9.74231C14.5354 10.0237 14.8807 10.3021 15.2191 10.5865C15.4002 10.7392 15.5645 10.7312 15.7376 10.5765C15.8831 10.4468 16.0176 10.2772 16.1898 10.2113C16.7034 10.0117 17.1071 9.64651 17.5237 9.30723C18.5147 8.49318 19.4497 7.61201 20.322 6.66984C20.3754 7.04803 20.2982 7.41825 20.2468 7.78846C20.1597 8.41912 20.037 9.04479 19.9618 9.67745C19.8678 10.4588 19.7639 11.2401 19.665 12.0215C19.5442 12.9814 19.467 13.9424 19.4334 14.9063C19.3839 16.5149 19.472 18.1215 19.5818 19.7261C19.6234 20.3248 19.7045 20.9235 19.7797 21.5223C19.8312 21.9214 19.942 22.3026 19.9499 22.7038C19.9169 22.7096 19.8854 22.7221 19.8573 22.7404C19.8291 22.7587 19.8049 22.7825 19.786 22.8104C19.7671 22.8383 19.7539 22.8697 19.7472 22.9028C19.7406 22.9359 19.7405 22.97 19.7471 23.0031C19.7659 23.2247 19.7768 23.4472 19.8064 23.6677C19.8085 23.7081 19.8187 23.7477 19.8364 23.7841C19.8541 23.8204 19.8789 23.8527 19.9093 23.8791C19.9397 23.9055 19.9752 23.9254 20.0134 23.9376C20.0517 23.9498 20.0921 23.9541 20.132 23.9501C21.0153 23.9501 21.8989 23.9538 22.7829 23.9611C22.8268 23.9665 22.8713 23.963 22.9138 23.9508C22.9563 23.9386 22.996 23.9179 23.0304 23.89C23.0649 23.8621 23.0935 23.8276 23.1146 23.7884C23.1356 23.7492 23.1487 23.7061 23.1529 23.6617C23.1915 23.4622 23.2321 23.2626 23.2766 23.063C23.3212 22.8634 23.2479 22.7267 23.0312 22.7117Z" fill="#FEFEFE"/>
<path d="M19.9518 22.7008C19.9439 22.3016 19.833 21.9145 19.7816 21.5193C19.7044 20.9206 19.6233 20.3278 19.5837 19.7231C19.4738 18.1185 19.3858 16.5119 19.4353 14.9034C19.4649 13.9394 19.5461 12.9784 19.6668 12.0185C19.7657 11.2371 19.8696 10.4558 19.9636 9.67446C20.0389 9.04181 20.1615 8.41614 20.2486 7.78548C20.3001 7.41526 20.3773 7.04505 20.3238 6.66686C20.4129 6.51817 20.3812 6.35252 20.3743 6.19586C20.3599 6.05865 20.3771 5.91993 20.4244 5.79049C20.4718 5.66104 20.5481 5.54434 20.6474 5.44944C20.8399 5.24948 20.9673 4.99498 21.0125 4.71999C21.3143 3.3499 21.3806 1.98979 20.8275 0.65962C20.8004 0.584304 20.7925 0.503302 20.8047 0.424121C20.8515 0.338913 20.9167 0.265424 20.9955 0.209107C21.0743 0.152791 21.1647 0.115093 21.2599 0.0988124C21.7317 -0.0274987 22.2273 -0.0326447 22.7016 0.0838441C22.7616 0.0964239 22.8225 0.104429 22.8837 0.107793C22.763 0.21756 22.8441 0.314354 22.9015 0.414142C23.2139 0.962376 23.6863 1.4002 24.2543 1.66804C24.8223 1.93587 25.4583 2.02069 26.0758 1.91096C26.5225 1.83643 26.9467 1.66125 27.3169 1.39846C27.6872 1.13568 27.9938 0.792058 28.2141 0.393187C28.2616 0.313356 28.3032 0.23652 28.227 0.1517C28.7902 -0.0142667 29.3905 -0.000674332 29.9458 0.190617C30.111 0.252844 30.2528 0.365522 30.3514 0.512933C30.2654 0.712508 30.1615 0.912084 30.0952 1.11765C29.7518 2.21531 29.7657 3.31997 29.9566 4.43659C30.0318 4.88165 30.1545 5.30076 30.487 5.63405C30.6335 5.77874 30.6562 5.98031 30.6602 6.17889C30.6602 6.35751 30.6681 6.53513 30.6711 6.71276C30.6414 7.4452 30.8126 8.15569 30.9075 8.87416C30.9897 9.49684 31.0698 10.1195 31.144 10.7422C31.2489 11.6293 31.3489 12.5174 31.4488 13.4045C31.4581 13.493 31.4623 13.582 31.4617 13.671C31.4617 14.8734 31.4914 16.0769 31.4518 17.2783C31.4241 18.1345 31.364 18.9907 31.2717 19.8468C31.1727 20.7809 31.0649 21.7109 30.8759 22.6319C30.8714 22.6764 30.8714 22.7212 30.8759 22.7656L28.223 22.7457C28.1557 22.0671 27.9697 21.4105 27.8203 20.7499C27.5709 19.6453 27.3186 18.5396 26.9297 17.4729C26.7318 16.935 26.527 16.3982 26.0857 15.988C25.9773 15.8817 25.8476 15.7999 25.7055 15.7479C25.5633 15.6959 25.4118 15.675 25.261 15.6865C25.1102 15.698 24.9635 15.7417 24.8307 15.8147C24.6979 15.8876 24.582 15.9882 24.4906 16.1098C24.0265 16.6786 23.7713 17.3472 23.5625 18.0317C23.0954 19.5634 22.7897 21.1351 22.4908 22.7078L19.9518 22.7008ZM25.5009 11.759C25.6833 11.7657 25.8658 11.7469 26.0432 11.7032C26.6802 11.5692 27.2506 11.2145 27.6553 10.7007C28.06 10.1868 28.2735 9.5462 28.2587 8.89013C28.2587 8.65463 28.2804 8.51593 28.4813 8.36525C28.9543 8.01 29.0315 7.4003 28.7079 6.91433C28.5593 6.68469 28.3292 6.5211 28.0648 6.45708C27.8004 6.39307 27.5218 6.43349 27.286 6.57006C27.2347 6.60706 27.173 6.62628 27.11 6.62484C27.047 6.6234 26.9862 6.60137 26.9367 6.56208C25.9828 5.99329 25.0151 5.9863 24.0483 6.53015C24.0046 6.56454 23.9508 6.58322 23.8954 6.58322C23.84 6.58322 23.7862 6.56454 23.7426 6.53015C23.6263 6.44826 23.4939 6.39275 23.3543 6.36742C23.2147 6.3421 23.0714 6.34757 22.9341 6.38346C22.7244 6.42698 22.5326 6.53332 22.3838 6.68857C22.2349 6.84382 22.136 7.04075 22.1 7.25361C22.0099 7.70764 22.191 8.07387 22.5542 8.34629C22.6531 8.41913 22.7214 8.47402 22.7026 8.6207C22.4889 10.2762 23.796 11.759 25.5009 11.759Z" fill="#E7D5C6"/>
<path d="M20.8029 0.427063C20.7907 0.506243 20.7985 0.587246 20.8257 0.662563C21.3788 1.99274 21.3125 3.35684 21.0107 4.72293C20.9655 4.99792 20.8381 5.25242 20.6456 5.45238C20.5462 5.54728 20.4699 5.66398 20.4226 5.79343C20.3752 5.92287 20.3581 6.06159 20.3725 6.1988C20.3794 6.35546 20.4111 6.52111 20.322 6.6698C19.4492 7.61376 18.5136 8.4966 17.5217 9.31218C17.1051 9.65146 16.7014 10.0107 16.1879 10.2163C16.0157 10.2841 15.8811 10.4518 15.7357 10.5815C15.5625 10.7362 15.3982 10.7441 15.2172 10.5915C14.8787 10.3071 14.5334 10.0287 14.192 9.74726C13.9546 9.54768 13.9585 9.45787 14.0931 9.17547C14.9678 7.31443 16.2987 5.77171 17.5464 4.1751C18.4746 2.98662 19.4334 1.8221 20.4714 0.727424C20.563 0.607905 20.6753 0.506137 20.8029 0.427063Z" fill="#71ACAB"/>
<path d="M30.6711 6.70971C30.6711 6.53209 30.6641 6.35447 30.6602 6.17585C30.6602 5.97627 30.6334 5.7767 30.487 5.63101C30.1525 5.30071 30.0318 4.8816 29.9566 4.43355C29.7657 3.31692 29.7518 2.20728 30.0952 1.1146C30.1615 0.907044 30.2654 0.715451 30.3514 0.509888C31.5952 1.80713 32.6936 3.22212 33.7929 4.63911C34.6835 5.78168 35.5523 6.93424 36.3231 8.16462C36.5734 8.56377 36.6951 9.02779 36.9544 9.42295C37.0415 9.55567 36.9979 9.69936 36.8703 9.80314C36.4854 10.1155 36.1014 10.4298 35.7136 10.7392C35.6557 10.7884 35.5825 10.8154 35.5067 10.8154C35.431 10.8154 35.3578 10.7884 35.2999 10.7392C34.1774 10.0028 33.1253 9.1626 32.1573 8.22948C31.6526 7.73354 31.1628 7.22063 30.6711 6.70971Z" fill="#71ACAB"/>
<path d="M22.5007 22.7037C22.7976 21.1311 23.1053 19.5594 23.5724 18.0277C23.7811 17.3431 24.0364 16.6745 24.5005 16.1058C24.5919 15.9842 24.7078 15.8836 24.8406 15.8106C24.9734 15.7377 25.12 15.694 25.2709 15.6825C25.4217 15.6709 25.5732 15.6919 25.7154 15.7439C25.8575 15.7958 25.9871 15.8777 26.0956 15.984C26.5369 16.3941 26.7457 16.931 26.9396 17.4689C27.3246 18.5356 27.5769 19.6412 27.8302 20.7459C27.9796 21.4075 28.1656 22.0641 28.2329 22.7417L27.7006 22.7546C27.7847 22.566 27.6828 22.3914 27.6461 22.2168C27.3147 20.685 27.0109 19.1453 26.4934 17.6624C26.3083 17.1326 26.053 16.6376 25.5949 16.2794C25.5322 16.2231 25.4512 16.1921 25.3673 16.1921C25.2834 16.1921 25.2024 16.2231 25.1397 16.2794C24.7578 16.5428 24.546 16.936 24.3689 17.3401C23.798 18.6563 23.5476 20.0663 23.2528 21.4604C23.1657 21.8745 23.043 22.2846 23.0351 22.7137L22.5007 22.7037Z" fill="#E7D5C6"/>
<path d="M28.2272 0.151663C28.3033 0.236483 28.2618 0.31332 28.2143 0.39315C27.9934 0.791091 27.6865 1.13374 27.3163 1.39563C26.9461 1.65753 26.5222 1.83195 26.076 1.90594C25.4585 2.01567 24.8224 1.93084 24.2544 1.66301C23.6865 1.39518 23.2141 0.95735 22.9017 0.409117C22.8443 0.309329 22.7631 0.209541 22.8838 0.102768C23.0669 0.0359096 23.2193 0.126716 23.3875 0.185591C24.3006 0.496889 25.2705 0.601817 26.2284 0.492938C26.7454 0.438061 27.2533 0.315972 27.7393 0.12971C27.8985 0.0722891 28.0737 0.0801723 28.2272 0.151663ZM27.209 0.836209C26.1205 1.10264 25.0509 1.06672 23.9199 0.896081C24.9371 1.67143 26.4599 1.63751 27.209 0.836209Z" fill="#71ACAB"/>
<path d="M22.5008 22.7038L23.0312 22.7118C23.2479 22.7267 23.3281 22.8415 23.2786 23.053C23.2291 23.2646 23.1935 23.4522 23.1549 23.6518C23.1506 23.6961 23.1376 23.7392 23.1165 23.7784C23.0955 23.8176 23.0669 23.8522 23.0324 23.8801C22.9979 23.9079 22.9582 23.9286 22.9157 23.9408C22.8732 23.953 22.8287 23.9565 22.7848 23.9511C21.9009 23.9458 21.0172 23.9421 20.1339 23.9401C20.094 23.9441 20.0537 23.9399 20.0154 23.9277C19.9771 23.9155 19.9417 23.8956 19.9113 23.8692C19.8808 23.8428 19.856 23.8104 19.8384 23.7741C19.8207 23.7377 19.8105 23.6982 19.8084 23.6577C19.7787 23.4372 19.7678 23.2147 19.749 22.9932C19.7425 22.96 19.7425 22.9259 19.7492 22.8928C19.7559 22.8597 19.7691 22.8283 19.788 22.8004C19.8069 22.7725 19.8311 22.7487 19.8592 22.7304C19.8874 22.7121 19.9189 22.6996 19.9519 22.6938L22.5008 22.7038Z" fill="#71ACAB"/>
<path d="M27.6967 22.7566L28.229 22.7437L30.8819 22.7626C31.3252 23.0221 30.967 23.4023 31.0135 23.7216C31.0363 23.8802 30.9057 24 30.7236 24C29.8221 24 28.9217 24 28.0203 23.991C27.9486 23.998 27.8767 23.979 27.8177 23.9372C27.7588 23.8955 27.7165 23.8339 27.6987 23.7635C27.6383 23.514 27.5898 23.2645 27.5483 23.0061C27.5409 22.9799 27.5389 22.9524 27.5425 22.9254C27.5461 22.8984 27.5551 22.8724 27.569 22.849C27.5829 22.8256 27.6014 22.8054 27.6234 22.7895C27.6453 22.7736 27.6703 22.7624 27.6967 22.7566Z" fill="#71ACAB"/>
<path d="M25.5009 11.759C23.796 11.759 22.4889 10.2802 22.7026 8.62367C22.7214 8.47698 22.6512 8.4241 22.5542 8.34925C22.191 8.07683 22.01 7.71061 22.1 7.25658C22.136 7.04372 22.2349 6.84679 22.3838 6.69154C22.5326 6.53629 22.7244 6.42995 22.9342 6.38643C23.0714 6.35054 23.2148 6.34507 23.3543 6.37039C23.4939 6.39571 23.6263 6.45123 23.7426 6.53311C23.7862 6.56751 23.84 6.58619 23.8955 6.58619C23.9509 6.58619 24.0047 6.56751 24.0483 6.53311C25.0151 5.98927 25.9828 5.99625 26.9367 6.56505C26.9862 6.60434 27.047 6.62637 27.11 6.62781C27.173 6.62925 27.2348 6.61002 27.286 6.57303C27.5213 6.43608 27.7996 6.39504 28.064 6.4583C28.3283 6.52156 28.5587 6.68434 28.7079 6.91331C29.0315 7.39927 28.9543 8.01097 28.4813 8.36422C28.2834 8.5149 28.2577 8.65361 28.2587 8.88911C28.2735 9.54517 28.06 10.1858 27.6553 10.6996C27.2506 11.2135 26.6802 11.5682 26.0432 11.7021C25.8659 11.7462 25.6834 11.7654 25.5009 11.759ZM25.5148 9.03081C25.122 9.02 24.7372 9.14305 24.4224 9.38006C24.2121 9.54692 24.0756 9.79064 24.0425 10.0583C24.0093 10.3261 24.0822 10.5961 24.2452 10.81C24.7924 11.5175 25.9878 11.5674 26.5953 10.9098C26.7519 10.7456 26.8476 10.5321 26.8664 10.3051C26.8851 10.0781 26.8257 9.85148 26.6982 9.66346C26.4083 9.20444 25.9551 9.06473 25.5108 9.02681L25.5148 9.03081ZM28.5357 7.56791C28.5357 7.04602 28.0509 6.6818 27.6115 6.83048C27.4512 6.88537 27.4087 6.93726 27.5462 7.07596C27.7554 7.30206 27.9229 7.56394 28.041 7.84932C28.0806 7.93414 28.0726 8.08382 28.1726 8.08681C28.2973 8.08681 28.3794 7.96906 28.4289 7.85231C28.4783 7.73556 28.511 7.64276 28.5357 7.56791ZM22.8075 8.03692C22.9727 7.62764 23.2096 7.25175 23.5071 6.92728C23.606 6.81951 23.4804 6.80354 23.416 6.7766C23.2497 6.71954 23.0687 6.72416 22.9055 6.78964C22.7422 6.85512 22.6075 6.97716 22.5255 7.13384C22.3622 7.45815 22.4701 7.81838 22.8075 8.04091V8.03692ZM26.3578 8.63066C26.252 8.64562 26.1758 8.70151 26.1777 8.81726C26.1758 8.8442 26.1799 8.87124 26.1897 8.89636C26.1996 8.92148 26.2149 8.94403 26.2346 8.96235C26.2543 8.98067 26.2778 8.99427 26.3034 9.00215C26.329 9.01003 26.3561 9.01198 26.3826 9.00785C26.4071 9.00723 26.4312 9.0014 26.4534 8.99076C26.4756 8.98011 26.4953 8.96489 26.5112 8.94607C26.5272 8.92725 26.539 8.90526 26.546 8.88152C26.553 8.85778 26.555 8.83283 26.5518 8.80828C26.5488 8.69851 26.4726 8.64263 26.3578 8.63465V8.63066ZM24.5639 8.98291C24.5884 8.98523 24.6132 8.98247 24.6367 8.97478C24.6602 8.96709 24.6819 8.95463 24.7004 8.93818C24.7189 8.92174 24.734 8.90164 24.7445 8.87913C24.7551 8.85662 24.7609 8.83217 24.7618 8.80728C24.7654 8.78074 24.7629 8.75372 24.7546 8.72827C24.7464 8.70282 24.7324 8.6796 24.714 8.66037C24.6955 8.64114 24.6729 8.62641 24.6479 8.61729C24.6229 8.60816 24.5962 8.60489 24.5698 8.60771C24.5453 8.60622 24.5208 8.61002 24.498 8.61886C24.4751 8.62769 24.4543 8.64134 24.4371 8.65891C24.4198 8.67648 24.4065 8.69756 24.398 8.72074C24.3895 8.74392 24.386 8.76866 24.3877 8.79331C24.3867 8.81769 24.3904 8.84204 24.3987 8.86497C24.4069 8.8879 24.4196 8.90896 24.436 8.92694C24.4523 8.94492 24.4721 8.95947 24.494 8.96976C24.5159 8.98005 24.5397 8.98587 24.5639 8.9869V8.98291Z" fill="#71ACAB"/>
<path d="M27.2088 0.836243C26.4597 1.63455 24.9329 1.67147 23.9197 0.896115C25.0507 1.06675 26.1154 1.10268 27.2088 0.836243Z" fill="#71ACAB"/>
<path d="M25.5108 9.0268C25.9511 9.06771 26.4014 9.20442 26.6982 9.65846C26.8256 9.84752 26.8843 10.0752 26.8642 10.3029C26.8442 10.5306 26.7468 10.7443 26.5884 10.9078C25.9808 11.5674 24.7855 11.5175 24.2383 10.808C24.0766 10.5934 24.0053 10.3232 24.0397 10.0559C24.0742 9.78867 24.2116 9.54584 24.4224 9.38005C24.7356 9.14247 25.119 9.01805 25.5108 9.0268ZM25.3683 9.86801C25.3683 10.0915 25.3564 10.3141 25.3594 10.5366C25.3594 10.6793 25.3426 10.7551 25.1615 10.7002C24.9998 10.6573 24.8414 10.6026 24.6875 10.5366C24.6331 10.5116 24.5609 10.4857 24.5282 10.5635C24.5025 10.6254 24.5619 10.6543 24.6054 10.6853C24.9814 10.9517 25.87 10.9677 26.2579 10.7142C26.3074 10.6823 26.3855 10.6583 26.337 10.5775C26.2886 10.4967 26.2381 10.5426 26.1748 10.5645C26.0263 10.6204 25.8779 10.6773 25.7255 10.7202C25.5731 10.7631 25.5088 10.7202 25.5167 10.5496C25.5276 10.328 25.5167 10.1045 25.5167 9.88198C25.6899 9.7822 25.7859 9.60557 25.9125 9.46088C26.0392 9.31619 25.9798 9.2154 25.8007 9.20442C25.5642 9.19045 25.3268 9.18945 25.0903 9.19544C24.9201 9.19544 24.8587 9.28325 24.9785 9.43094C25.0982 9.57863 25.2446 9.72332 25.3723 9.86801H25.3683Z" fill="#71ACAB"/>
<path d="M28.5359 7.56791C28.5111 7.63876 28.4775 7.74753 28.4369 7.85231C28.3964 7.95709 28.3053 8.08981 28.1807 8.08681C28.0817 8.08681 28.0886 7.93414 28.0491 7.84932C27.931 7.56394 27.7635 7.30206 27.5543 7.07596C27.4168 6.93726 27.4553 6.88536 27.6196 6.83048C28.051 6.68579 28.5398 7.05002 28.5359 7.56791Z" fill="#71ACAB"/>
<path d="M22.8075 8.0409C22.47 7.81837 22.3622 7.45813 22.5215 7.13782C22.6035 6.98114 22.7382 6.8591 22.9015 6.79362C23.0647 6.72814 23.2457 6.72351 23.412 6.78057C23.4764 6.80752 23.605 6.82348 23.5031 6.93125C23.2071 7.25605 22.9714 7.63192 22.8075 8.0409Z" fill="#71ACAB"/>
<path d="M26.358 8.63464C26.4728 8.64263 26.549 8.69851 26.5559 8.81326C26.5591 8.83781 26.5571 8.86276 26.5502 8.8865C26.5432 8.91024 26.5313 8.93223 26.5154 8.95105C26.4994 8.96987 26.4797 8.9851 26.4575 8.99574C26.4354 9.00639 26.4112 9.01221 26.3867 9.01284C26.3602 9.01696 26.3332 9.01501 26.3076 9.00713C26.2819 8.99926 26.2584 8.98565 26.2387 8.96734C26.219 8.94902 26.2037 8.92646 26.1939 8.90134C26.184 8.87622 26.1799 8.84918 26.1819 8.82225C26.1759 8.70549 26.2521 8.64961 26.358 8.63464Z" fill="#575757"/>
<path d="M24.564 8.98688C24.5399 8.98611 24.5161 8.98054 24.494 8.97049C24.472 8.96044 24.4522 8.94611 24.4356 8.92831C24.4191 8.91052 24.4062 8.88961 24.3976 8.86679C24.3891 8.84396 24.3851 8.81967 24.3859 8.79529C24.3842 8.77064 24.3877 8.7459 24.3962 8.72272C24.4047 8.69954 24.418 8.67846 24.4353 8.66089C24.4525 8.64332 24.4733 8.62967 24.4961 8.62084C24.519 8.612 24.5435 8.6082 24.568 8.60969C24.5944 8.60687 24.6211 8.61014 24.6461 8.61927C24.6711 8.62839 24.6937 8.64312 24.7122 8.66235C24.7306 8.68158 24.7446 8.7048 24.7528 8.73025C24.7611 8.7557 24.7636 8.78272 24.76 8.80926C24.7594 8.83413 24.7537 8.85862 24.7434 8.88122C24.7331 8.90382 24.7183 8.92406 24.7 8.94069C24.6816 8.95733 24.6601 8.97 24.6367 8.97795C24.6134 8.98589 24.5886 8.98893 24.564 8.98688Z" fill="#575757"/>
<path d="M25.3723 9.868C25.2447 9.72331 25.1131 9.58161 24.9904 9.43093C24.8677 9.28025 24.932 9.19942 25.1022 9.19543C25.3387 9.18944 25.5761 9.19044 25.8126 9.20441C25.9917 9.21539 26.06 9.3042 25.9244 9.46087C25.7889 9.61753 25.7018 9.78119 25.5286 9.88197L25.3723 9.868Z" fill="#575757"/>
<path d="M25.3725 9.86804L25.5288 9.88201C25.5288 10.1045 25.5357 10.3281 25.5288 10.5496C25.5209 10.7172 25.6 10.7591 25.7376 10.7202C25.8751 10.6813 26.0344 10.6204 26.1868 10.5646C26.2462 10.5426 26.3066 10.5047 26.3491 10.5775C26.3916 10.6504 26.3194 10.6823 26.2699 10.7142C25.8821 10.9677 24.9935 10.9517 24.6175 10.6853C24.5739 10.6544 24.5185 10.6254 24.5403 10.5636C24.5729 10.4857 24.6452 10.5117 24.6996 10.5366C24.8535 10.6026 25.0119 10.6573 25.1736 10.7003C25.3507 10.7552 25.3715 10.6793 25.3715 10.5366C25.3606 10.3141 25.3695 10.0916 25.3725 9.86804Z" fill="#71ACAB"/>
</g>
<defs>
<clipPath id="clip0_179_4783">
<rect width="23" height="24" fill="white"/>
</clipPath>
<clipPath id="clip1_179_4783">
<rect width="23" height="24" fill="white" transform="translate(7)"/>
</clipPath>
<clipPath id="clip2_179_4783">
<rect width="23" height="24" fill="white" transform="translate(14)"/>
</clipPath>
</defs>
</svg>
