<svg width="21" height="24" viewBox="0 0 21 24" fill="none" xmlns="http://www.w3.org/2000/svg">
<g clip-path="url(#clip0_173_1018)">
<path d="M20.3833 2.25957C20.4732 2.74971 20.1632 3.31828 19.6142 3.62463C18.9043 4.03145 18.095 4.1834 17.3165 4.39661C17.1982 4.42847 17.0799 4.44562 16.9592 4.47013L15.7973 4.7152C14.5645 4.8794 13.3269 4.96027 12.0869 5.04114H11.0529H8.92321C8.54947 5.05301 8.17539 5.03664 7.80395 4.99214C6.90002 4.96028 5.99367 4.99213 5.08973 4.9186H3.68889C3.17304 4.82548 2.65007 4.80342 2.14131 4.67353C1.46928 4.49708 0.813854 4.28878 0.350056 3.70796C0.213137 3.56224 0.111512 3.38498 0.0535159 3.19072C-0.00448052 2.99647 -0.0172342 2.79074 0.0163689 2.59041C0.0599677 2.61386 0.101194 2.64178 0.139422 2.67374C0.82802 3.40896 1.713 3.7055 2.65952 3.85009C2.95917 3.8991 3.26263 3.91879 3.56584 3.9089C3.57873 3.93109 3.59724 3.94921 3.61934 3.9613C3.64144 3.97339 3.66631 3.97901 3.69126 3.97753C4.10522 3.95854 4.51995 3.984 4.92884 4.0535C5.44943 4.13193 5.97715 4.0535 6.49537 4.15888L7.09405 4.10741C7.51526 4.23975 7.94827 4.13928 8.37658 4.16624H8.66763H10.492C10.8375 4.11402 11.1869 4.09596 11.5356 4.11232H11.6515C12.1816 4.05595 12.7188 4.09271 13.2441 3.98733H13.4192C13.7565 3.98342 14.0932 3.95722 14.4273 3.9089C14.6189 3.86969 14.8295 3.93341 15.0023 3.80107H15.1916C15.511 3.7349 15.8446 3.77411 16.1594 3.67853H16.2872C16.7419 3.67187 17.1926 3.58911 17.6218 3.43346H17.9246C18.0406 3.4114 18.1613 3.39671 18.2749 3.3673C18.6084 3.32481 18.9268 3.19862 19.2025 2.99969C19.2692 3.00842 19.3369 3.00076 19.4002 2.97735C19.4635 2.95393 19.5206 2.91541 19.5669 2.86491C19.8035 2.72031 20.0969 2.64924 20.2389 2.37476L20.3833 2.25957Z" fill="#E4B29D"/>
<path d="M8.38398 4.14909C7.95568 4.12213 7.5226 4.22262 7.1014 4.09028C7.87874 3.83169 8.59532 3.40762 9.20508 2.8453C9.27134 2.78403 9.39913 2.72766 9.32814 2.63698C9.25715 2.5463 9.17903 2.67621 9.11987 2.72767C8.43837 3.333 7.70012 3.83784 6.79382 3.98488C6.69917 3.99959 6.53117 3.95793 6.50277 4.14173C5.98455 4.03635 5.45683 4.11478 4.93624 4.03635C4.52735 3.96685 4.11262 3.94139 3.69866 3.96038C3.67371 3.96186 3.64884 3.95625 3.62674 3.94415C3.60464 3.93206 3.58613 3.91395 3.57324 3.89177C3.58868 3.8584 3.61281 3.83015 3.64291 3.81023C3.67302 3.79031 3.70789 3.77951 3.74361 3.77903C4.46077 3.6973 5.17213 3.56796 5.87329 3.39181C7.21026 3.09037 8.41947 2.52425 9.38966 1.49004C9.83926 0.999895 10.2841 0.526913 10.7313 0.0441196C10.9527 -0.0196097 11.1867 -0.0196097 11.4081 0.0441196C11.4034 0.117234 11.3731 0.186055 11.3229 0.237722C10.8053 0.96825 10.2325 1.65499 9.60971 2.29144C9.54109 2.36251 9.42753 2.41642 9.45593 2.61248C10.278 1.85854 10.9997 0.994869 11.6021 0.0441196C11.8897 0.00608697 12.1813 0.0160145 12.4659 0.0735272C12.4233 0.3186 12.2292 0.455832 12.073 0.615129C11.2259 1.49984 10.3835 2.38457 9.47008 3.20066C9.26894 3.38202 9.01578 3.5266 8.90929 3.80844C10.2794 2.68566 11.5468 1.43459 12.6954 0.0710741C12.8007 0.0463712 12.9108 0.0566604 13.0101 0.100482C13.0101 0.169102 13.0101 0.237717 13.0101 0.308788C12.8587 0.321041 12.8256 0.426423 12.8279 0.553861C12.7525 0.568195 12.6838 0.607926 12.6324 0.666869C12.5811 0.725812 12.55 0.80067 12.5439 0.879812C12.6152 0.857829 12.6796 0.816819 12.7307 0.760895C12.7818 0.704971 12.8177 0.636106 12.835 0.56122C12.8828 0.539567 12.9246 0.505744 12.9565 0.462901C12.9883 0.420058 13.0092 0.369583 13.0172 0.316147C13.1237 0.171554 13.3106 0.223017 13.436 0.129889H13.6277C13.6275 0.203734 13.6171 0.277172 13.597 0.348008C13.2018 1.23762 12.8587 2.15909 12.1606 2.87226C11.8435 3.1982 11.5051 3.54621 11.5548 4.08292C11.2061 4.06656 10.8567 4.08462 10.5113 4.13684C10.5218 3.80257 10.6172 3.47708 10.7881 3.1933C11.0905 2.73882 11.4276 2.3102 11.7962 1.91157C12.0391 1.60605 12.2837 1.30133 12.5298 0.997442L12.4588 0.926377C12.3759 1.0097 12.286 1.08322 12.2221 1.17145C11.8199 1.6616 11.4247 2.13705 11.0248 2.61984C10.6769 3.04382 10.3362 3.50946 10.4166 4.13684H8.69866C8.68683 4.06332 8.80041 3.9996 8.69866 3.89177L8.38398 4.14909Z" fill="#C79D85"/>
<path d="M3.57087 16.6356L3.50698 16.8267C3.25615 16.8635 3.08339 16.6184 2.83966 16.6307C2.7592 16.4763 2.58887 16.4616 2.46582 16.3709C2.49895 16.165 2.42087 15.9444 2.53208 15.7484H2.65514L2.68113 15.7729L2.65751 15.7459C2.64683 15.7165 2.63006 15.6899 2.6084 15.6679C2.58674 15.6458 2.56069 15.629 2.53208 15.6185C2.55338 15.344 2.49186 15.0646 2.59598 14.8H2.65514L2.68113 14.8245L2.65751 14.7975L2.59598 14.7362C2.62201 14.398 2.64563 14.0598 2.66929 13.7216C2.76631 13.7216 2.80185 13.6751 2.71193 13.5942C2.79238 12.6482 2.90674 11.7063 3.05503 10.7685C3.06808 10.4684 3.11734 10.1712 3.20171 9.88379H3.26561L3.32477 9.94751L3.38629 10.0088C3.3854 10.0161 3.3854 10.0235 3.38629 10.0308H3.40287L3.37682 10.0063L3.31766 9.94261L3.25613 9.88134C3.2593 9.85617 3.25514 9.8306 3.24417 9.80789C3.23321 9.78519 3.21595 9.76639 3.19461 9.75391C3.22725 8.58626 3.32761 7.42169 3.49513 6.26651C3.5188 6.12927 3.45019 5.96999 3.5685 5.8499C3.63904 5.89597 3.72196 5.91744 3.80513 5.91117C4.07726 6.15624 4.39908 5.99939 4.69724 6.03125C4.70432 6.13569 4.70432 6.2405 4.69724 6.34494C4.60259 7.30807 4.5174 8.27367 4.40382 9.23681C4.30443 10.0848 4.21688 10.9352 4.0465 11.7733L3.86192 11.7096C3.85027 11.6877 3.83254 11.6699 3.81103 11.6585C3.78951 11.6472 3.7652 11.6428 3.74124 11.6459L3.67971 11.5821L3.61345 11.5356L3.59693 11.5601L3.67734 11.5871L3.73887 11.6483C3.75052 11.6702 3.76825 11.688 3.78977 11.6994C3.81128 11.7107 3.83559 11.7151 3.85955 11.712C3.87359 11.7511 3.89931 11.7845 3.93292 11.8074C3.96654 11.8303 4.00631 11.8416 4.0465 11.8395C3.95422 12.6164 3.85485 13.3908 3.76966 14.1677C3.64768 14.9845 3.58124 15.8091 3.57087 16.6356ZM2.90119 14.9936L2.96034 15.0573C2.97336 15.0783 2.99177 15.0951 3.01349 15.106C3.03522 15.1168 3.05942 15.1212 3.0834 15.1186L3.10945 15.1455L3.08576 15.1186C3.07411 15.0967 3.05638 15.0789 3.03487 15.0675C3.01335 15.0562 2.98904 15.0517 2.96508 15.0548L2.90355 14.9911L2.84203 14.9274L2.81366 14.9029L2.83966 14.9299L2.90119 14.9936ZM3.13782 14.05L3.16624 14.0745L3.14255 14.0451L3.08103 13.9839L3.05266 13.9569L3.07866 13.9863L3.13782 14.05ZM3.68682 10.2686L3.71287 10.2931L3.68919 10.2637L3.62292 10.2171L3.60634 10.2416L3.68682 10.2686ZM3.14019 16.0621C3.14103 16.0556 3.14103 16.049 3.14019 16.0425C3.14019 16.0425 3.14023 16.0425 3.12366 16.0425L3.14966 16.0694L3.21592 16.116L3.23014 16.0915L3.14019 16.0621ZM2.83729 15.8734L2.80892 15.8464L2.83498 15.8758C2.84749 15.8975 2.86569 15.915 2.88749 15.9263C2.9093 15.9376 2.93373 15.9422 2.95797 15.9396L2.98403 15.9641L2.96034 15.9371C2.9484 15.916 2.93101 15.8989 2.91008 15.8876C2.88915 15.8763 2.86554 15.8714 2.84203 15.8734H2.83729ZM2.95797 12.3468C2.9567 12.3533 2.9567 12.3599 2.95797 12.3664H2.97456L2.94856 12.3394L2.92724 12.2585L2.90355 12.2733L2.95797 12.3468ZM3.14255 12.4693L3.11419 12.4448L3.13782 12.4742C3.13782 12.5477 3.16389 12.6164 3.24672 12.6335C3.28221 12.6335 3.30587 12.6188 3.29877 12.582C3.28457 12.4963 3.22065 12.4791 3.14729 12.4693H3.14255Z" fill="#F5D4AF"/>
<path d="M18.9093 19.6622C18.2491 19.6304 18.0551 19.4514 17.9155 18.7505C17.8487 18.5327 17.8167 18.3051 17.8208 18.0766H17.9912L18.0527 18.1403C18.0652 18.1614 18.0831 18.1785 18.1044 18.1897C18.1257 18.201 18.1496 18.2059 18.1734 18.204L18.2349 18.2653L18.261 18.2922L18.2373 18.2628L18.1758 18.1991C18.1636 18.1776 18.1458 18.1602 18.1245 18.1489C18.1031 18.1376 18.079 18.133 18.0551 18.1354L17.9935 18.0741C17.9953 18.0495 17.992 18.0248 17.9837 18.0017C17.9754 17.9786 17.9623 17.9576 17.9455 17.9401C17.9286 17.9227 17.9084 17.9092 17.886 17.9006C17.8637 17.892 17.8398 17.8885 17.8161 17.8903C17.7971 17.4664 17.6481 17.0571 17.6883 16.6258L17.8705 16.6895L17.9297 16.7532C17.9271 16.7783 17.9316 16.8036 17.9425 16.8262C17.9534 16.8488 17.9703 16.8677 17.9912 16.8806C18.0034 16.9019 18.0213 16.919 18.0428 16.9298C18.0642 16.9407 18.0882 16.9449 18.1119 16.9419L18.1734 17.0056L18.1994 17.0326L18.1758 17.0032L18.1166 16.9395C18.1045 16.9173 18.0864 16.8995 18.0645 16.8881C18.0426 16.8768 18.0179 16.8725 17.9935 16.8757C17.9965 16.8509 17.9923 16.8257 17.9814 16.8035C17.9704 16.7812 17.9532 16.7628 17.932 16.7507L17.8705 16.687C17.8322 16.6051 17.7678 16.5394 17.6883 16.5008L17.6339 16.442C17.5226 16.1332 17.6031 15.795 17.499 15.4862L17.4446 15.4273L17.4185 14.7902H17.57L17.6315 14.8514L17.6575 14.8759L17.6339 14.8514L17.5723 14.7877C17.5723 14.6603 17.4777 14.6603 17.3901 14.6627C17.3736 14.6358 17.3452 14.6113 17.3404 14.5843C17.2671 13.8662 17.0873 13.1678 16.9902 12.4546C16.8719 11.8723 16.7819 11.2842 16.7205 10.6925L16.9003 10.7563L16.9619 10.82L17.021 10.8837L17.0494 10.9082L17.0258 10.8788L16.9642 10.8175L16.9027 10.7538C16.8843 10.7099 16.857 10.6705 16.8228 10.6384C16.7885 10.6063 16.748 10.5821 16.7039 10.5676C16.5743 10.0943 16.495 9.6078 16.4673 9.11671C16.6187 9.11671 16.7323 9.26866 16.8932 9.24416L16.9524 9.30788C16.9974 9.38385 17.0683 9.3716 17.137 9.3716L17.1985 9.43532L17.26 9.50148C17.2732 9.54015 17.298 9.57343 17.3308 9.59637C17.3636 9.61932 17.4027 9.63073 17.4422 9.62892C17.4943 9.74411 17.6007 9.77597 17.7025 9.81518C17.8658 10.4793 17.9391 11.1606 18.0409 11.8346L17.8705 11.7047C17.8712 11.6879 17.8685 11.6711 17.8625 11.6554C17.8566 11.6398 17.8475 11.6256 17.8359 11.6138C17.8243 11.602 17.8104 11.5929 17.7952 11.587C17.7799 11.5812 17.7637 11.5787 17.7474 11.5797C17.7408 11.5171 17.7137 11.4587 17.6707 11.4141C17.6277 11.3695 17.5713 11.3415 17.5108 11.3346L17.4493 11.2709L17.3878 11.2096L17.3216 11.1631L17.305 11.1851L17.3831 11.2145L17.4446 11.2758L17.5061 11.3395C17.5119 11.4025 17.5387 11.4614 17.5819 11.5061C17.6251 11.5509 17.682 11.5786 17.7428 11.5846C17.7414 11.6015 17.7435 11.6185 17.749 11.6345C17.7545 11.6504 17.7634 11.6649 17.7748 11.677C17.7863 11.6891 17.8001 11.6985 17.8154 11.7046C17.8307 11.7106 17.8471 11.7132 17.8634 11.712C17.8699 11.7671 17.8911 11.8191 17.9245 11.8624C17.9579 11.9056 18.0023 11.9385 18.0527 11.9571C18.2349 12.587 18.2893 13.2437 18.4053 13.8834C18.5047 14.3735 18.5615 14.8906 18.6419 15.3955C18.6608 15.5303 18.6419 15.6675 18.6609 15.8023L18.5449 15.7386C18.5423 15.7813 18.5534 15.8237 18.5765 15.8592C18.5996 15.8947 18.6335 15.9212 18.6727 15.9346C18.773 16.2556 18.8163 16.5927 18.8005 16.9296C18.7532 17.236 18.9259 17.5154 18.907 17.8193L18.791 17.7531C18.7921 17.7362 18.7896 17.7192 18.7838 17.7034C18.778 17.6875 18.7689 17.6732 18.7572 17.6613C18.7455 17.6495 18.7315 17.6403 18.7161 17.6346C18.7007 17.6289 18.6843 17.6267 18.668 17.6281C18.671 17.6033 18.6667 17.5781 18.6557 17.5558C18.6448 17.5336 18.6276 17.5152 18.6064 17.5031C18.6002 17.4403 18.5733 17.3817 18.5302 17.337C18.4871 17.2924 18.4305 17.2645 18.3698 17.258L18.3414 17.1772L18.3201 17.1943C18.3343 17.2164 18.3485 17.2409 18.3651 17.263C18.3713 17.3258 18.3982 17.3844 18.4413 17.4291C18.4844 17.4737 18.5411 17.5016 18.6017 17.508C18.5987 17.5328 18.603 17.558 18.614 17.5803C18.6249 17.6026 18.6421 17.6209 18.6632 17.633C18.6618 17.6499 18.664 17.6669 18.6695 17.6829C18.6751 17.6988 18.6838 17.7133 18.6953 17.7254C18.7068 17.7375 18.7206 17.7469 18.7359 17.753C18.7512 17.759 18.7676 17.7616 18.7839 17.7604C18.7838 17.8014 18.7954 17.8414 18.8173 17.8755C18.8392 17.9095 18.8704 17.936 18.907 17.9516C18.9484 18.3748 19.0124 18.7954 19.0987 19.2113C19.0987 19.2529 19.0868 19.2921 19.0821 19.3338C18.9354 19.2774 18.9685 19.0397 18.7887 19.0152C18.7905 18.9905 18.7857 18.9658 18.7748 18.9438C18.764 18.9217 18.7475 18.9032 18.7271 18.8902C18.7196 18.8366 18.6988 18.786 18.6669 18.743C18.635 18.7001 18.593 18.6664 18.5449 18.6452C18.5456 18.6283 18.5429 18.6116 18.5369 18.5959C18.5309 18.5803 18.5219 18.5661 18.5103 18.5543C18.4987 18.5425 18.4848 18.5334 18.4696 18.5275C18.4544 18.5216 18.4381 18.5191 18.4219 18.5202L18.3958 18.4932L18.4195 18.5226C18.4181 18.5395 18.4203 18.5565 18.4258 18.5725C18.4313 18.5884 18.4401 18.603 18.4516 18.6151C18.463 18.6272 18.4769 18.6366 18.4922 18.6426C18.5075 18.6486 18.5238 18.6512 18.5402 18.6501C18.5615 18.7652 18.5851 18.878 18.7224 18.8951C18.7206 18.9198 18.7253 18.9445 18.7362 18.9666C18.747 18.9886 18.7636 19.0071 18.7839 19.0201C18.8205 19.1883 18.9026 19.3421 19.0205 19.4637L18.9638 19.5887L18.8975 19.65L18.9093 19.6622ZM18.3651 15.5621L18.3935 15.5891L18.3698 15.5572L18.3083 15.4935L18.2468 15.4323L18.1876 15.3685L18.1261 15.3048L18.0645 15.2435L18.003 15.1798L17.9439 15.1161L17.8823 15.0548L17.854 15.0279L17.8776 15.0573L17.9391 15.121L18.0007 15.1823L18.0622 15.246L18.1213 15.3097L18.1829 15.3734L18.242 15.4372L18.3035 15.4984C18.3154 15.5254 18.3343 15.5425 18.3651 15.5621ZM17.7569 13.1653L17.8184 13.229C17.8563 13.4153 17.9841 13.5109 18.1971 13.6187C18.0906 13.3981 18.0007 13.2658 17.8208 13.2266L17.7593 13.1629L17.7001 13.1016C17.7001 13.0256 17.6741 12.9595 17.5937 12.9399C17.5864 12.9369 17.5785 12.9363 17.5708 12.9379C17.5632 12.9396 17.5562 12.9435 17.5507 12.9492C17.5452 12.955 17.5414 12.9622 17.5398 12.9701C17.5381 12.978 17.5388 12.9862 17.5416 12.9938C17.5582 13.0771 17.6244 13.0967 17.6954 13.1041L17.7569 13.1653Z" fill="#F5D4AF"/>
<path d="M2.66684 3.83294C1.72031 3.68834 0.835332 3.39671 0.146735 2.65659C0.108507 2.62463 0.0672804 2.59672 0.0236816 2.57327C0.0236816 2.48995 0.0402713 2.40662 0.0497365 2.3282C0.667345 3.09283 1.49554 3.23987 2.39947 3.21536C3.30545 3.19325 4.20689 3.07583 5.08994 2.86491C5.86609 2.6762 6.65647 2.53896 7.36399 2.12969C7.78394 1.89941 8.13502 1.55446 8.37915 1.13224C8.72937 0.872463 8.89262 0.460742 9.12689 0.107837C9.56444 0.0469891 10.0068 0.0313903 10.4473 0.0612727C10.4284 0.274486 10.2462 0.370052 10.1326 0.507292C9.44634 1.31848 8.71278 2.08801 7.76626 2.57571C6.53341 3.2129 5.18696 3.42857 3.84526 3.65649C3.45718 3.71776 3.04781 3.69324 2.66684 3.83294Z" fill="#C79D85"/>
<path d="M0.0947266 2.19095C0.115757 2.10084 0.154545 2.01621 0.208709 1.9424C0.262874 1.86858 0.331262 1.80719 0.409465 1.76208C0.646096 2.36251 0.901619 2.58062 1.4932 2.56836C1.81502 2.56836 2.13921 2.56836 2.45157 2.60757C3.06425 2.64134 3.67867 2.61096 4.28546 2.51689C5.02803 2.44764 5.74508 2.20145 6.38054 1.79756C7.016 1.39367 7.55263 0.843033 7.94851 0.188697C8.25001 0.121875 8.55904 0.0987879 8.86667 0.120085C8.85924 0.266324 8.80222 0.405161 8.70572 0.512196C8.58267 0.708254 8.3863 0.865103 8.3792 1.12733C8.33796 1.12666 8.29728 1.13717 8.26117 1.1578C8.22506 1.17843 8.19474 1.20847 8.1733 1.24496C7.57462 1.98018 6.77247 2.31594 5.89693 2.52425C4.90937 2.78063 3.90367 2.95519 2.88936 3.04626C1.83871 3.12468 0.854314 3.11978 0.0947266 2.19095Z" fill="#C79D85"/>
<path d="M0.525391 1.6812C0.663299 1.55563 0.835062 1.47693 1.01754 1.45573C1.04497 1.5671 1.09564 1.67089 1.16596 1.7598C1.23628 1.84872 1.32452 1.9206 1.42454 1.97038C1.76864 2.15887 2.16649 2.21363 2.54618 2.12478C3.80222 1.94087 5.02629 1.57112 6.18086 1.02686C6.32445 0.973216 6.45144 0.880494 6.54846 0.758448C6.64548 0.636402 6.70897 0.489537 6.73223 0.333294C7.054 0.254155 7.38351 0.213861 7.71423 0.213211C7.69278 0.359418 7.62341 0.493535 7.5178 0.593071C6.57128 1.78658 5.29352 2.33553 3.83823 2.44092C3.07155 2.49728 2.29776 2.45807 1.52871 2.44092C0.953691 2.43847 0.6863 2.22281 0.525391 1.6812Z" fill="#C79D85"/>
<path d="M19.2097 2.96293C18.934 3.16186 18.6155 3.28805 18.2821 3.33054C18.1661 3.35995 18.0454 3.37466 17.9319 3.39672C17.9122 3.37295 17.8899 3.35157 17.8656 3.333C16.6682 2.73257 16.1524 1.65179 15.9229 0.370056C16.1906 0.373489 16.4567 0.415558 16.7132 0.495046C16.8031 0.605329 16.9025 0.708268 16.9877 0.825903C17.6077 1.67141 18.2513 2.49239 19.2097 2.96293Z" fill="#C79D85"/>
<path d="M15.0095 3.77413C14.8368 3.90647 14.6261 3.84275 14.4345 3.88196C14.1004 3.93028 13.7637 3.95647 13.4264 3.96038C13.3773 3.79049 13.3572 3.61298 13.3673 3.43592C13.3862 2.98009 13.585 2.57328 13.701 2.1444C13.8832 1.4876 14.0866 0.83571 14.2807 0.183816C14.4256 0.164712 14.5728 0.183233 14.709 0.237725C14.6688 0.671504 14.6144 1.10774 14.5907 1.54397C14.5481 2.32085 14.5931 3.08547 15.0095 3.77413Z" fill="#C79D85"/>
<path d="M13.2515 3.95793C12.7261 4.06332 12.189 4.02656 11.6589 4.08292C11.6593 3.92097 11.6934 3.761 11.7587 3.61385C11.824 3.46671 11.9191 3.33582 12.0376 3.23007C12.8965 2.36497 13.3816 1.26949 13.791 0.137255C13.9169 0.112881 14.0469 0.127365 14.1649 0.178913C13.9283 0.914132 13.7319 1.67141 13.4692 2.40173C13.2879 2.8978 13.2135 3.42896 13.2515 3.95793Z" fill="#C79D85"/>
<path d="M4.48192 0.754816C5.17859 0.556718 5.89156 0.426274 6.6116 0.365158C6.53812 0.531672 6.43001 0.679303 6.29501 0.797506C6.16002 0.915709 6.00146 1.00156 5.8307 1.04891C4.9734 1.41863 4.08007 1.69143 3.16623 1.86255C2.80182 1.92137 2.44216 2.06596 2.06355 2.00959C1.68494 1.95322 1.29919 1.88216 1.13354 1.44103C1.38828 1.33752 1.65769 1.2779 1.93102 1.26457C2.16199 1.47018 2.45125 1.59238 2.75519 1.61272C3.05912 1.63306 3.36121 1.55043 3.61581 1.37731C3.93053 1.19841 4.19559 0.963128 4.48192 0.754816Z" fill="#C79D85"/>
<path d="M15.7976 4.70784L16.9595 4.46277C17.0689 5.00244 17.1479 5.54825 17.1961 6.09742C16.8507 6.11947 16.4862 6.04105 16.1337 6.20034C16.5146 6.28367 16.8578 6.12192 17.208 6.15868C17.319 6.46167 17.3759 6.78304 17.376 7.10712C16.9761 6.98703 16.5667 7.06545 16.1597 7.04585C16.1374 7.01216 16.1206 6.9749 16.11 6.93556C16.0674 6.40375 15.9893 5.87685 15.9657 5.34259C15.9633 5.13673 16.039 4.86714 15.7976 4.70784Z" fill="#F5D4AF"/>
<path d="M20.2581 2.32821C20.1161 2.61249 19.8227 2.68356 19.586 2.81835C19.2765 2.81909 18.9754 2.71398 18.7294 2.51936C18.1663 2.10028 17.7569 1.51946 17.286 1.00235C17.1457 0.865529 17.0366 0.698103 16.9666 0.512207C17.4616 0.556123 17.9523 0.642186 18.4337 0.769531C18.6426 1.22981 18.9807 1.61415 19.4038 1.87236C19.6026 2.18605 19.9339 2.23753 20.2581 2.32821Z" fill="#C79D85"/>
<path d="M17.5842 8.68784C17.6688 8.99754 17.7008 9.32012 17.6789 9.64117H17.4422C17.4422 9.51374 17.3499 9.51128 17.26 9.51373L17.1985 9.45003L17.137 9.3863C17.092 9.31278 17.021 9.32258 16.9524 9.32258L16.8932 9.25886C16.8492 9.18397 16.7832 9.12569 16.7048 9.0926C16.6264 9.05951 16.5398 9.05336 16.4578 9.07506C16.3088 8.43095 16.2114 7.77519 16.1667 7.11447C16.5741 7.09603 16.9822 7.11819 17.3854 7.18065C17.515 7.63031 17.5733 8.09875 17.5582 8.56775H17.4399C17.4285 8.54561 17.4108 8.52763 17.3892 8.51624C17.3676 8.50484 17.3432 8.50058 17.3192 8.50403L17.2931 8.47953L17.3168 8.50894C17.329 8.53017 17.3469 8.54727 17.3683 8.55815C17.3898 8.56903 17.4138 8.57321 17.4375 8.57021C17.4495 8.60163 17.4694 8.62912 17.4953 8.64981C17.5211 8.67051 17.5518 8.68364 17.5842 8.68784ZM17.1393 8.3766L17.1653 8.40111L17.1417 8.37415C17.0944 8.29328 17.0446 8.21486 16.9311 8.28593C16.9784 8.38151 17.0612 8.37415 17.1393 8.3766ZM16.3324 8.07272C16.399 8.12553 16.4754 8.16381 16.5567 8.18529C16.638 8.20677 16.7227 8.21099 16.8056 8.19769C16.668 8.09733 16.4996 8.05286 16.3324 8.07272Z" fill="#F5D4AF"/>
<path d="M16.1689 3.65649C15.8518 3.75206 15.5182 3.71285 15.1987 3.77902C15.193 3.73779 15.1801 3.69796 15.1608 3.66139C14.7562 3.17125 14.716 2.55121 14.7184 1.94588C14.7207 1.34055 14.7917 0.806291 14.8319 0.23037C14.9502 0.218947 15.0693 0.23657 15.1798 0.281825C15.2034 0.468081 15.2271 0.651888 15.2531 0.835693C15.3953 1.82455 15.7053 2.77955 16.1689 3.65649Z" fill="#C79D85"/>
<path d="M17.6289 3.40162C17.1997 3.55726 16.749 3.64002 16.2943 3.64669C16.1145 3.1737 15.8661 2.73011 15.7288 2.23507C15.549 1.59788 15.2981 0.977833 15.3194 0.29653C15.484 0.285116 15.6494 0.300833 15.8092 0.343094C15.8522 0.874698 16.0013 1.39127 16.247 1.8601C16.5496 2.5047 17.0306 3.04137 17.6289 3.40162Z" fill="#C79D85"/>
<path d="M2.66675 3.83294C3.04772 3.69325 3.45473 3.71776 3.84991 3.65159C5.19161 3.42367 6.53806 3.20801 7.77091 2.57082C8.71743 2.08068 9.44862 1.3136 10.1372 0.502407C10.2508 0.365166 10.433 0.257332 10.452 0.0563724C10.5461 0.0171182 10.6512 0.0171182 10.7454 0.0563724C10.2981 0.546518 9.85324 1.02197 9.40364 1.50231C8.43345 2.53652 7.2243 3.10262 5.88733 3.40406C5.18617 3.58021 4.47481 3.70955 3.75764 3.79128C3.72192 3.79176 3.68705 3.80258 3.65695 3.8225C3.62684 3.84242 3.60271 3.87065 3.58728 3.90402C3.27896 3.91079 2.97069 3.88698 2.66675 3.83294Z" fill="#AB8169"/>
<path d="M0.0947241 2.19096C0.844846 3.11978 1.83871 3.12468 2.88936 3.04626C3.90367 2.95519 4.90937 2.78064 5.89693 2.52425C6.77247 2.31594 7.57462 1.97528 8.1733 1.24496C8.19474 1.20848 8.22506 1.17844 8.26117 1.1578C8.29728 1.13717 8.33796 1.12666 8.3792 1.12733C8.13507 1.54955 7.78399 1.8945 7.36404 2.12478C6.65414 2.53651 5.86613 2.67375 5.08998 2.86C4.20693 3.07092 3.30549 3.18834 2.39951 3.21045C1.49558 3.23496 0.667386 3.08792 0.0497779 2.32329C0.042555 2.29916 0.0430092 2.27325 0.0511067 2.24941C0.0592041 2.22558 0.0745006 2.20509 0.0947241 2.19096Z" fill="#AB8169"/>
<path d="M0.525257 1.6812C0.686167 2.22281 0.953558 2.43848 1.52857 2.44828C2.29762 2.44828 3.07141 2.4973 3.8381 2.44828C5.29338 2.3429 6.56405 1.79393 7.51767 0.600422C7.62328 0.500886 7.69264 0.366769 7.71409 0.220561L7.95073 0.19606C7.55485 0.850396 7.01821 1.40103 6.38275 1.80492C5.7473 2.20881 5.03025 2.455 4.28767 2.52425C3.68088 2.61833 3.06647 2.6487 2.45378 2.61493C2.14143 2.58797 1.81723 2.57081 1.49541 2.57571C0.903833 2.57571 0.638787 2.36985 0.411621 1.76942L0.525257 1.6812Z" fill="#AB8169"/>
<path d="M3.6938 4.90636H5.09464C4.77046 4.93577 4.69241 5.13918 4.72317 5.44307C4.73379 5.5989 4.73379 5.75533 4.72317 5.91116C4.42704 5.98636 4.11773 5.98636 3.82159 5.91116C3.80297 5.86049 3.77081 5.81632 3.72893 5.78378C3.68704 5.75125 3.63715 5.73169 3.58496 5.72736C3.60279 5.45141 3.63915 5.17707 3.6938 4.90636Z" fill="#F5D4AF"/>
<path d="M3.50686 17.0081C3.53872 17.2898 3.47876 17.5744 3.33649 17.8168C3.31275 17.8599 3.27829 17.8956 3.23666 17.9202C3.19503 17.9448 3.14777 17.9573 3.09986 17.9565C3.08728 17.9342 3.06877 17.9161 3.04654 17.9043C3.0243 17.8926 2.99927 17.8878 2.97444 17.8903C2.96296 17.8684 2.94517 17.8507 2.92354 17.8397C2.90191 17.8288 2.87752 17.825 2.85375 17.8291L2.79459 17.7653L2.73307 17.7016C2.72142 17.6797 2.70369 17.6619 2.68217 17.6506C2.66066 17.6392 2.63635 17.6348 2.61238 17.6379C2.61427 17.6207 2.61241 17.6033 2.6069 17.5869C2.60138 17.5706 2.59238 17.5557 2.58055 17.5435C2.56873 17.5312 2.5544 17.5219 2.53861 17.5162C2.52282 17.5105 2.50595 17.5085 2.48933 17.5105L2.42544 17.4468L2.36865 17.3855H2.35449C2.4147 17.0766 2.44322 16.762 2.43965 16.4469C2.54751 16.5635 2.69549 16.6313 2.85138 16.6356C3.03644 16.8144 3.26178 16.9425 3.50686 17.0081Z" fill="#F5D4AF"/>
<path d="M18.6016 0.820999C19.2334 0.899423 19.8013 1.11264 20.1965 1.6665C20.3155 1.81236 20.3801 1.99755 20.3787 2.18851C20.019 2.18851 19.7374 1.94344 19.3943 1.87972C19.3943 1.73267 19.276 1.66895 19.1955 1.58317C18.9608 1.36234 18.7604 1.10525 18.6016 0.820999Z" fill="#C79D85"/>
<path d="M1.13589 1.44103C1.30154 1.88216 1.68019 1.95322 2.0659 2.00959C2.45161 2.06596 2.80417 1.92137 3.16858 1.86255C4.08242 1.69143 4.97575 1.41863 5.83305 1.04891C6.00381 1.00156 6.16237 0.915709 6.29736 0.797506C6.43235 0.679304 6.54047 0.531673 6.61395 0.365158L6.73226 0.333298C6.709 0.48954 6.64551 0.636405 6.54849 0.758451C6.45147 0.880497 6.32448 0.973219 6.18089 1.02686C5.02633 1.57113 3.80226 1.94087 2.54621 2.12478C2.16652 2.21364 1.76867 2.15887 1.42458 1.97038C1.32455 1.9206 1.23631 1.84872 1.16599 1.7598C1.09568 1.67089 1.045 1.5671 1.01758 1.45574L1.13589 1.44103Z" fill="#AB8169"/>
<path d="M12.6858 0.0686188C11.5372 1.43214 10.2698 2.68321 8.89966 3.80598C9.00614 3.52415 9.25937 3.37956 9.4605 3.19821C10.3715 2.38211 11.2139 1.4974 12.0634 0.612689C12.2173 0.453391 12.4136 0.318596 12.4562 0.0710719L12.6858 0.0686188Z" fill="#AB8169"/>
<path d="M13.7907 0.137242C13.3814 1.27438 12.8963 2.36495 12.0373 3.23006C11.9189 3.33581 11.8238 3.46669 11.7584 3.61384C11.6931 3.76099 11.6591 3.92096 11.6587 4.08291H11.5427C11.493 3.5462 11.8314 3.1982 12.1485 2.87225C12.8466 2.15909 13.1897 1.23762 13.5849 0.348001C13.605 0.277166 13.6154 0.203728 13.6156 0.129883L13.7907 0.137242Z" fill="#AB8169"/>
<path d="M2.16748 1.21557C2.78813 1.0382 3.42101 0.910385 4.06053 0.833252C3.8561 1.10208 3.57153 1.29337 3.25121 1.37732C2.88207 1.49496 2.4893 1.55622 2.16748 1.21557Z" fill="#C79D85"/>
<path d="M13.2513 3.95793C13.2134 3.42896 13.2877 2.89779 13.4691 2.40172C13.7317 1.6665 13.9423 0.91903 14.1648 0.178909H14.2807C14.0867 0.833254 13.8832 1.48515 13.701 2.13949C13.585 2.56837 13.3862 2.9752 13.3673 3.43103C13.3573 3.60809 13.3773 3.78558 13.4265 3.95548L13.2513 3.95793Z" fill="#AB8169"/>
<path d="M17.629 3.40162C17.0314 3.04268 16.5504 2.5078 16.2471 1.86501C16.0014 1.39619 15.8523 0.879611 15.8093 0.348007L15.9229 0.370055C16.1595 1.65179 16.6683 2.73257 17.8656 3.33299C17.89 3.35157 17.9122 3.37295 17.9319 3.39672L17.629 3.40162Z" fill="#AB8169"/>
<path d="M16.9452 0.524461C17.0153 0.710357 17.1244 0.877782 17.2647 1.01461C17.738 1.53171 18.1449 2.11253 18.7081 2.53161C18.9541 2.72624 19.2552 2.83135 19.5648 2.83061C19.5185 2.88112 19.4614 2.91963 19.3981 2.94305C19.3348 2.96646 19.267 2.97412 19.2003 2.96539C18.242 2.49485 17.5983 1.67387 16.9783 0.828364C16.8931 0.710729 16.7938 0.607789 16.7039 0.497506C16.7851 0.480696 16.8693 0.490102 16.9452 0.524461Z" fill="#AB8169"/>
<path d="M14.8322 0.237717C14.7919 0.808737 14.721 1.37731 14.7186 1.95323C14.7162 2.52915 14.7564 3.16634 15.1611 3.66874C15.1803 3.70531 15.1932 3.74514 15.199 3.78637H15.0096C14.5932 3.09771 14.5364 2.33309 14.5908 1.55376C14.6145 1.11753 14.6689 0.681293 14.7091 0.247514L14.8322 0.237717Z" fill="#AB8169"/>
<path d="M19.0962 19.2186C19.0099 18.8027 18.9459 18.3822 18.9045 17.959V17.8291C18.9234 17.5252 18.7507 17.2458 18.798 16.9395C19.0126 17.1752 19.1406 17.4812 19.1601 17.8046C19.2789 18.2716 19.2566 18.7651 19.0962 19.2186Z" fill="#CFD2DA"/>
<path d="M15.3195 0.301443C15.2982 0.982746 15.5562 1.60277 15.7289 2.23996C15.8662 2.73011 16.1146 3.1786 16.2945 3.65159H16.1667C15.7057 2.77632 15.3965 1.82408 15.2533 0.838154C15.2273 0.654349 15.2036 0.470542 15.1799 0.284286L15.3195 0.301443Z" fill="#AB8169"/>
<path d="M11.595 0.0416684C10.9925 0.992418 10.2708 1.85609 9.4488 2.61003C9.42041 2.41397 9.53397 2.36496 9.60259 2.28898C10.2307 1.65632 10.8091 0.972869 11.3324 0.245083C11.3826 0.193416 11.4128 0.12458 11.4175 0.0514659C11.4767 0.0318601 11.5335 0.0024567 11.595 0.0416684Z" fill="#AB8169"/>
<path d="M2.16761 1.21557C2.48943 1.54886 2.87747 1.49496 3.25371 1.37732C3.57403 1.29337 3.8586 1.10208 4.06303 0.833252C4.19356 0.769438 4.33803 0.742387 4.48188 0.754827C4.19555 0.963139 3.92339 1.19842 3.61814 1.37732C3.36354 1.55044 3.06145 1.63307 2.75752 1.61273C2.45358 1.59239 2.16432 1.4702 1.93335 1.26458L2.16761 1.21557Z" fill="#AB8169"/>
<path d="M2.96724 18.0153C2.57916 18.2604 2.3189 18.1428 2.29761 17.6894C2.29761 17.606 2.29761 17.5203 2.29761 17.4443L2.34966 17.3879H2.36381L2.42066 17.4492L2.4845 17.5129C2.49506 17.542 2.51152 17.5684 2.53274 17.5904C2.55396 17.6124 2.57946 17.6294 2.60755 17.6404C2.61895 17.6625 2.63663 17.6805 2.65822 17.6919C2.6798 17.7033 2.70424 17.7075 2.72824 17.7041L2.78976 17.7678L2.84892 17.8315C2.86012 17.8537 2.87788 17.8716 2.89959 17.8826C2.92129 17.8936 2.94581 17.8972 2.9696 17.8928L2.96724 18.0153Z" fill="#F5D4AF"/>
<path d="M18.6015 0.820997C18.7604 1.10524 18.9608 1.36234 19.1955 1.58317C19.2759 1.66895 19.3967 1.73267 19.3943 1.87971C18.9712 1.6215 18.633 1.23717 18.4241 0.776886L18.6015 0.820997Z" fill="#AB8169"/>
<path d="M8.37915 1.12733C8.37915 0.865105 8.58263 0.708256 8.70567 0.512198C8.80218 0.405163 8.85919 0.266326 8.86663 0.120087H9.00146H9.12452C8.89972 0.455837 8.72937 0.867556 8.37915 1.12733Z" fill="#AB8169"/>
<path d="M19.3921 1.88461C19.7352 1.93853 20.0168 2.19829 20.3765 2.19339V2.25957L20.2392 2.32819C19.9339 2.23752 19.6027 2.18605 19.3921 1.88461Z" fill="#AB8169"/>
<path d="M17.2149 6.16604C16.8647 6.12928 16.5216 6.29102 16.1406 6.2077C16.5027 6.0484 16.8505 6.12683 17.2031 6.10477L17.2149 6.16604Z" fill="#E4B29D"/>
<path d="M17.39 7.17819C16.9867 7.11573 16.5787 7.09357 16.1713 7.11201C16.1678 7.09258 16.1678 7.07264 16.1713 7.0532C16.5784 7.07281 16.9878 6.99438 17.3877 7.11447C17.3908 7.13555 17.3915 7.15692 17.39 7.17819Z" fill="#E4B29D"/>
<path d="M18.7861 19.0226C18.966 19.0471 18.9328 19.2848 19.0796 19.3412C19.0862 19.3655 19.0849 19.3913 19.0759 19.4148C19.0669 19.4383 19.0508 19.458 19.0299 19.471C18.9119 19.3495 18.8298 19.1956 18.7932 19.0275L18.7861 19.0226Z" fill="#E4B29D"/>
<path d="M2.84191 16.6307C2.68601 16.6264 2.53804 16.5586 2.43018 16.4419L2.46807 16.3709C2.59112 16.4616 2.76146 16.4763 2.84191 16.6307Z" fill="#E4B29D"/>
<path d="M13.4242 0.124988C13.2988 0.218115 13.1119 0.166652 13.0054 0.311245V0.105392L13.4242 0.124988Z" fill="#AB8169"/>
<path d="M3.5874 5.73471C3.63959 5.73904 3.68948 5.75861 3.73137 5.79115C3.77325 5.82368 3.80541 5.86784 3.82403 5.91852C3.74086 5.92479 3.65794 5.90332 3.5874 5.85725V5.73471Z" fill="#E4B29D"/>
<path d="M17.4446 9.64362H17.6812C17.6812 9.70488 17.6977 9.76615 17.7072 9.82497C17.6031 9.7833 17.4966 9.75145 17.4446 9.64362Z" fill="#E4B29D"/>
<path d="M18.0572 11.9669C18.0069 11.9482 17.9625 11.9154 17.929 11.8722C17.8956 11.8289 17.8744 11.7768 17.8679 11.7218L18.0383 11.8517L18.0572 11.9669Z" fill="#E4B29D"/>
<path d="M18.5399 15.7484L18.6559 15.8121C18.6559 15.8562 18.6559 15.9003 18.6677 15.9445C18.6285 15.931 18.5946 15.9044 18.5715 15.869C18.5484 15.8335 18.5373 15.7911 18.5399 15.7484Z" fill="#E4B29D"/>
<path d="M2.71429 13.5991C2.80421 13.68 2.76867 13.7143 2.67166 13.7265C2.66276 13.7035 2.66221 13.678 2.67004 13.6546C2.67786 13.6312 2.69357 13.6115 2.71429 13.5991Z" fill="#E4B29D"/>
<path d="M17.5841 8.68783C17.552 8.68237 17.5219 8.66814 17.497 8.64659C17.472 8.62504 17.4531 8.59697 17.4421 8.56529H17.5628L17.5841 8.68783Z" fill="#E4B29D"/>
<path d="M2.53442 15.621C2.56303 15.6314 2.58908 15.6483 2.61074 15.6703C2.6324 15.6923 2.64911 15.719 2.65979 15.7484H2.53442V15.621Z" fill="#E4B29D"/>
<path d="M3.26775 9.8887H3.20386V9.76126C3.2252 9.77374 3.24246 9.79254 3.25343 9.81524C3.26439 9.83795 3.26855 9.86353 3.26538 9.8887H3.26775Z" fill="#E4B29D"/>
<path d="M9.00154 0.107837H8.8667C8.89983 0.0686249 8.95421 0.08578 9.00154 0.107837Z" fill="#C79D85"/>
<path d="M2.59829 14.7411L2.65976 14.8024H2.59829C2.59582 14.7821 2.59582 14.7615 2.59829 14.7411Z" fill="#E4B29D"/>
<path d="M8.92811 8.50402C8.92811 9.03338 8.92811 9.5603 8.92811 10.0897C8.94018 10.2144 8.92055 10.3403 8.87126 10.4548C8.79043 10.4936 8.72522 10.5603 8.68674 10.6435L8.62521 10.7072L8.56368 10.7685L8.50453 10.8322L8.443 10.8959L8.38147 10.9572L8.31995 11.0209L8.26079 11.0846L8.19926 11.1459L8.13774 11.2096L8.07858 11.2734L8.01705 11.3371L7.99337 11.364L8.01942 11.3371L8.08095 11.2758L8.14011 11.2121L8.20163 11.1484L8.26316 11.0871L8.32232 11.0234L8.38384 10.9597L8.44537 10.8959L8.50453 10.8347L8.56605 10.7709L8.62758 10.7072L8.68674 10.646L8.86658 10.5798C8.78613 12.1973 8.8121 13.8148 8.81447 15.4322C8.81447 15.643 8.81447 15.8538 8.81447 16.067C8.79456 16.0791 8.77845 16.0968 8.76796 16.1181C8.75748 16.1393 8.75306 16.1633 8.75531 16.1871L8.69379 16.2508L8.63463 16.3145C8.58967 16.3145 8.54 16.3145 8.54237 16.3929C8.54351 16.3977 8.54591 16.402 8.54924 16.4054C8.55258 16.4089 8.55674 16.4113 8.56132 16.4125C8.62757 16.4125 8.6299 16.3635 8.637 16.317L8.69852 16.2557L8.75768 16.192H8.81447V17.8364C8.77227 17.8743 8.73951 17.9221 8.71892 17.9758C8.69832 18.0296 8.6905 18.0877 8.69615 18.1452C8.53525 18.2481 8.54003 18.4246 8.514 18.5863C8.42645 18.6525 8.45957 18.7505 8.45248 18.8314C8.38566 18.8958 8.34293 18.9826 8.33179 19.0765C7.97684 20.5322 7.81354 22.0174 7.59821 23.4878C7.43493 23.3971 7.48463 23.2427 7.47989 23.0957C7.4231 21.5836 7.63608 20.0788 7.60532 18.5667L7.84195 17.8658L7.77095 17.8438L7.61242 18.1942C7.61242 17.606 7.61242 17.0179 7.61242 16.4297C7.6715 16.4035 7.72098 16.3585 7.75373 16.3012C7.78649 16.2439 7.80083 16.1774 7.79463 16.1111C7.81557 16.0988 7.83251 16.0804 7.84345 16.0582C7.85439 16.0359 7.85884 16.0109 7.85616 15.9861L7.87979 15.9592L7.85379 15.9861C7.83306 15.9987 7.81623 16.0171 7.80532 16.0393C7.79441 16.0614 7.78989 16.0864 7.79226 16.1111C7.69761 16.1381 7.68815 16.2532 7.61479 16.3022L7.60058 15.7876V11.8934C7.70943 11.8444 7.73783 11.7316 7.78753 11.6483L7.84905 11.5846L7.894 11.5184L7.87031 11.5013L7.84668 11.5821C7.82539 11.6042 7.80646 11.6263 7.78516 11.6459L7.60768 11.712C7.58355 11.0585 7.59141 10.4041 7.63131 9.75145C7.666 9.74885 7.69926 9.73589 7.72698 9.71415C7.7547 9.6924 7.77572 9.66279 7.78753 9.62891L7.84668 9.56519L7.90821 9.50393L7.93184 9.47697L7.90821 9.50147L7.84668 9.56519L7.78516 9.62891H7.65026C7.57215 9.15033 7.57215 8.66156 7.65026 8.18298L7.71889 8.11437L7.77805 8.05064C7.79426 8.05215 7.81059 8.04995 7.82589 8.0442C7.84119 8.03845 7.85511 8.02928 7.86662 8.01736C7.87813 8.00544 7.88695 7.99106 7.8925 7.97521C7.89805 7.95936 7.90019 7.94244 7.89874 7.92565L7.96026 7.86193H7.97921C7.97921 7.86193 7.97921 7.86193 7.97921 7.84478L7.95553 7.87175L7.894 7.93301C7.87757 7.93194 7.8611 7.93448 7.8457 7.94051C7.8303 7.94653 7.81633 7.95589 7.80468 7.96794C7.79304 7.98 7.78398 7.99449 7.77817 8.01044C7.77235 8.02639 7.76991 8.04343 7.77095 8.06044L7.70942 8.12171H7.64789C7.64193 7.11556 7.70123 6.11014 7.82537 5.11222C7.8299 5.07151 7.8299 5.0304 7.82537 4.98969C8.19681 5.03419 8.57089 5.05058 8.94463 5.0387V8.43296L8.87837 8.49913L8.81684 8.56285L8.75768 8.62656L8.69615 8.69028L8.63463 8.754L8.57547 8.81527L8.514 8.87899L8.45248 8.94271L8.39095 9.00398L8.33179 9.0677C8.32475 9.06637 8.31751 9.06637 8.31047 9.0677C8.31047 9.0677 8.31047 9.06769 8.31047 9.08485L8.33653 9.06034L8.398 8.99662L8.45715 8.9329L8.51868 8.86919L8.58021 8.80793L8.64173 8.7442L8.70089 8.68048L8.76242 8.61922L8.82394 8.55549L8.88547 8.49177L8.92811 8.50402ZM8.07384 9.32012L8.13537 9.25885H8.15432C8.15432 9.25885 8.15432 9.25885 8.15432 9.24415L8.13063 9.26865L8.0691 9.33237H8.04779C8.04779 9.33237 8.04779 9.33237 8.04779 9.34953L8.07384 9.32012ZM8.37911 7.49432L8.44063 7.4306C8.51653 7.41736 8.58603 7.37842 8.63827 7.31988C8.69051 7.26134 8.72253 7.18652 8.72932 7.10712C8.56131 7.19044 8.46193 7.27377 8.43826 7.42816L8.37674 7.49187L8.35068 7.51884L8.37911 7.49432ZM8.61574 14.7411L8.63937 14.7142L8.61337 14.7387L8.58968 14.7681L8.61574 14.7411ZM8.55421 6.04595L8.58021 6.01654L8.55184 6.04104L8.52816 6.07045L8.55421 6.04595ZM8.06674 13.4153C8.04601 13.4285 8.02926 13.4474 8.01838 13.4699C8.00751 13.4924 8.00295 13.5176 8.00521 13.5427C7.98449 13.5551 7.96779 13.5736 7.95726 13.5959C7.94673 13.6182 7.94284 13.6432 7.94605 13.6677C7.89248 13.6943 7.84899 13.7386 7.82242 13.7936C7.79585 13.8487 7.78776 13.9113 7.79937 13.9716C7.85008 13.9423 7.89114 13.8979 7.91728 13.8442C7.94343 13.7904 7.95343 13.7298 7.94605 13.6702C7.96696 13.6573 7.98376 13.6384 7.99429 13.6157C8.00482 13.593 8.0086 13.5676 8.00521 13.5427C8.02659 13.5309 8.04395 13.5126 8.05495 13.4903C8.06595 13.4679 8.07007 13.4426 8.06674 13.4177L8.09279 13.3908L8.06674 13.4153ZM8.36963 12.8492C8.34892 12.8616 8.33221 12.8801 8.32168 12.9024C8.31115 12.9246 8.30726 12.9496 8.31047 12.9742C8.26689 12.9954 8.23125 13.0309 8.20903 13.0752C8.1868 13.1195 8.1792 13.1701 8.18742 13.2192C8.18742 13.2192 8.1732 13.2192 8.16847 13.2192C8.16374 13.2192 8.16847 13.2192 8.16847 13.2339L8.19453 13.2094C8.23793 13.1881 8.27328 13.1525 8.29511 13.1082C8.31693 13.0638 8.32403 13.0133 8.31521 12.9644C8.33655 12.9519 8.35382 12.9331 8.36478 12.9104C8.37574 12.8877 8.3799 12.8621 8.37674 12.8369L8.40037 12.8124L8.36963 12.8492ZM8.31047 16.7581C8.33163 16.746 8.34878 16.7277 8.35975 16.7054C8.37072 16.6831 8.375 16.6579 8.372 16.6331C8.41933 16.6331 8.46899 16.6331 8.46426 16.5547C8.46312 16.5499 8.46078 16.5456 8.45744 16.5422C8.45411 16.5387 8.44994 16.5363 8.44537 16.5351C8.37911 16.5351 8.3791 16.5841 8.36963 16.6307C8.3489 16.6432 8.33207 16.6616 8.32116 16.6838C8.31025 16.706 8.30573 16.7309 8.3081 16.7556L8.28442 16.7826L8.31047 16.7581ZM8.43353 14.9936C8.47849 14.9936 8.52815 14.9936 8.52579 14.9151C8.52579 14.9151 8.51163 14.8955 8.5069 14.8955C8.44064 14.8955 8.43826 14.9445 8.43116 14.9911C8.41025 15.0039 8.39345 15.0229 8.38292 15.0456C8.37239 15.0682 8.36861 15.0936 8.372 15.1186C8.24895 15.1186 8.24658 15.2141 8.24895 15.3073C8.12826 15.3073 8.1259 15.4053 8.12826 15.496C8.12122 15.4946 8.11399 15.4946 8.10694 15.496C8.10694 15.496 8.10694 15.5082 8.10694 15.5131L8.133 15.4862C8.16954 15.472 8.20098 15.4465 8.22301 15.4132C8.24503 15.3799 8.25657 15.3403 8.25605 15.2999C8.29233 15.2842 8.32322 15.2576 8.34473 15.2235C8.36625 15.1894 8.37741 15.1495 8.37674 15.1087C8.39641 15.0973 8.41275 15.0805 8.42399 15.0602C8.43524 15.04 8.44098 15.0169 8.44063 14.9936H8.43353ZM8.31047 6.23221C8.26551 6.23221 8.21348 6.23221 8.21821 6.31063C8.21821 6.31063 8.21817 6.32778 8.2371 6.33023C8.30099 6.33023 8.30337 6.28122 8.31047 6.23221ZM7.98863 15.6455L7.96737 15.6994C7.98393 15.6994 8.00522 15.7239 8.01705 15.719C8.02888 15.7141 8.03364 15.6871 8.04074 15.67L7.98863 15.6455ZM8.4761 12.6262L8.45248 12.6776C8.46904 12.6776 8.49033 12.7021 8.50216 12.6972C8.51399 12.6923 8.51869 12.6654 8.52579 12.6482L8.4761 12.6262Z" fill="#F5D4AF"/>
<path d="M8.80035 18.0178C8.80035 18.6868 8.80035 19.3559 8.80035 20.0249C8.80035 20.118 8.824 20.2185 8.73645 20.2871C8.6489 20.3558 8.6844 20.4072 8.68203 20.4734L8.63703 20.542L8.65834 20.5592L8.68203 20.4759H8.73645C8.75776 20.8022 8.75776 21.1298 8.73645 21.4561C8.65126 22.135 8.7057 22.8138 8.6844 23.4927C8.67257 23.8701 8.54951 24 8.19692 24C8.17739 23.4271 8.20194 22.8534 8.27029 22.2845C8.38009 21.854 8.45918 21.4158 8.50693 20.9733L8.55424 20.9072L8.53055 20.89L8.50693 20.9733C8.47944 21.0156 8.45642 21.0608 8.43829 21.1081C8.17839 22.0277 8.05707 22.9833 8.07861 23.9412C7.86091 23.9412 7.76625 23.7721 7.65503 23.6226C7.67958 23.5652 7.69783 23.5052 7.70945 23.4437C7.8041 22.4634 7.99341 21.4831 8.12355 20.5028C8.20164 19.9318 8.38151 19.3877 8.4454 18.8192C8.53532 18.753 8.49983 18.655 8.50693 18.5741C8.66784 18.4712 8.66547 18.2972 8.68914 18.133L8.80035 18.0178ZM8.60629 20.7258C8.60629 20.7258 8.60628 20.7087 8.59445 20.7062C8.58262 20.7038 8.58023 20.7062 8.5755 20.7062L8.59682 20.7381L8.60629 20.7258Z" fill="#F5D4AF"/>
<path d="M11.6589 14.7901C11.7062 14.2608 11.5761 13.7388 11.6092 13.2119C11.6544 13.1354 11.6894 13.053 11.7133 12.9668C11.831 12.2552 12.0165 11.5574 12.2671 10.8837C12.3002 10.7857 12.3144 10.6754 12.4303 10.6386C12.4161 11.2586 12.5534 11.864 12.57 12.4816C12.5274 12.5748 12.4903 12.6705 12.4588 12.7683C12.1798 13.724 12.2005 14.7468 12.5179 15.6896C12.423 15.7174 12.3233 15.7231 12.226 15.7064C12.1287 15.6897 12.0362 15.6509 11.955 15.5928C11.8738 15.5348 11.806 15.4589 11.7565 15.3705C11.7069 15.2822 11.6769 15.1836 11.6684 15.0818C11.6601 14.9848 11.6569 14.8875 11.6589 14.7901Z" fill="#F5D4AF"/>
<path d="M12.5675 12.9153C12.6953 13.0697 12.6148 13.2535 12.6338 13.4226C12.674 13.8221 12.577 14.2314 12.6977 14.626C12.6977 14.871 12.6977 15.1161 12.6977 15.3759C12.6977 15.4739 12.7284 15.594 12.5864 15.621C12.4638 15.2229 12.3845 14.8119 12.3498 14.3956C12.3066 13.8912 12.3813 13.3835 12.5675 12.9153Z" fill="#F5D4AF"/>
<path d="M8.43838 18.8363C8.37449 19.4049 8.20172 19.9489 8.11654 20.52C7.98639 21.5003 7.79708 22.4658 7.70243 23.4608C7.69081 23.5224 7.67256 23.5824 7.64801 23.6397C7.62704 23.6273 7.60993 23.609 7.59862 23.5868C7.58731 23.5647 7.58226 23.5397 7.58412 23.5148C7.79945 22.0443 7.96275 20.5469 8.3177 19.1034C8.32379 19.0018 8.36692 18.9063 8.43838 18.8363Z" fill="#E4B29D"/>
<path d="M8.07165 23.9461C8.04857 22.9885 8.16829 22.0329 8.42659 21.113C8.44472 21.0657 8.46774 21.0205 8.49523 20.9783C8.44748 21.4207 8.36839 21.8589 8.25859 22.2894C8.19024 22.8583 8.1657 23.432 8.18523 24.0049C8.16289 24.007 8.14041 24.0026 8.12035 23.9922C8.10028 23.9818 8.08343 23.9659 8.07165 23.9461Z" fill="#E4B29D"/>
<path d="M12.5676 12.9153C12.3835 13.3866 12.3121 13.8969 12.3594 14.4029C12.3941 14.8192 12.4734 15.2302 12.596 15.6283L12.5274 15.6896C12.21 14.7468 12.1893 13.724 12.4682 12.7683C12.4998 12.6705 12.5369 12.5748 12.5795 12.4816C12.57 12.6237 12.5676 12.7707 12.5676 12.9153Z" fill="#E4B29D"/>
<path d="M3.50692 17.0081C3.25715 16.943 3.02749 16.8131 2.8396 16.6307C3.07623 16.6307 3.25609 16.8757 3.50692 16.8267C3.52585 16.8855 3.60157 16.9468 3.50692 17.0081Z" fill="#E4B29D"/>
<path d="M7.59109 18.2212L7.74961 17.8707L7.82062 17.8928L7.58398 18.5937L7.59109 18.2212Z" fill="#E4B29D"/>
<path d="M7.77108 16.1258C7.77728 16.1921 7.76299 16.2586 7.73023 16.3159C7.69748 16.3732 7.64795 16.4182 7.58887 16.4444C7.58887 16.4003 7.58887 16.3586 7.58887 16.317C7.66222 16.2679 7.67169 16.1528 7.76634 16.1258H7.77108Z" fill="#E4B29D"/>
<path d="M17.8159 17.8952C17.8397 17.8934 17.8635 17.8969 17.8859 17.9055C17.9082 17.9141 17.9285 17.9276 17.9453 17.945C17.9622 17.9624 17.9752 17.9834 17.9835 18.0066C17.9918 18.0297 17.9952 18.0544 17.9934 18.079H17.823C17.8183 18.0153 17.8183 17.9565 17.8159 17.8952Z" fill="#E4B29D"/>
<path d="M8.80028 18.0178L8.68197 18.1427C8.67631 18.0852 8.68408 18.0271 8.70467 17.9734C8.72527 17.9196 8.75808 17.8718 8.80028 17.834V18.0178Z" fill="#E4B29D"/>
<path d="M17.6882 16.5057C17.7678 16.5443 17.8321 16.6101 17.8704 16.6919L17.6882 16.6282V16.5057Z" fill="#E4B29D"/>
<path d="M2.96729 18.0153V17.8903C2.99212 17.8878 3.01715 17.8926 3.03938 17.9043C3.06162 17.9161 3.08013 17.9342 3.09271 17.9565C3.08009 17.9784 3.06134 17.9957 3.03892 18.0063C3.01651 18.0168 2.99149 18.0199 2.96729 18.0153Z" fill="#E4B29D"/>
<path d="M8.68213 20.4734C8.68213 20.4072 8.68212 20.3362 8.73655 20.2871V20.4759H8.68213V20.4734Z" fill="#E4B29D"/>
<path d="M8.80029 16.1895H8.7435C8.74124 16.1657 8.74561 16.1418 8.75609 16.1205C8.76658 16.0992 8.78274 16.0815 8.80266 16.0694L8.80029 16.1895Z" fill="#E4B29D"/>
<path d="M11.1027 6.04596C10.9986 5.71511 11.0862 5.37446 11.0531 5.03871H12.0871C12.1439 5.66855 12.1983 6.30083 12.2575 6.93312C12.2798 7.05707 12.2658 7.18509 12.2173 7.30073C11.9238 7.62423 11.8576 8.03595 11.744 8.44767C11.9404 8.17319 11.9522 7.80313 12.2054 7.56051C12.3024 7.65364 12.2622 7.77618 12.2622 7.88646C12.272 8.72805 12.3281 9.56837 12.4302 10.4033C12.1463 10.6215 12.1534 10.9817 12.0303 11.2783C11.841 11.7218 11.8268 12.2267 11.6044 12.6629C11.5115 12.2286 11.4702 11.7842 11.4813 11.3395C11.5736 11.3395 11.6139 11.2758 11.5784 11.19C11.5379 11.0386 11.5242 10.8808 11.5381 10.7244C11.5014 10.0187 11.5588 9.31116 11.7085 8.62168C11.6142 8.7447 11.5544 8.89223 11.5357 9.0481C11.4576 9.32503 11.5121 9.63138 11.3606 9.89115C11.2163 9.62402 11.2967 9.32259 11.2494 9.0383C11.1074 8.15359 11.1216 7.25171 11.0625 6.35964C11.2447 6.31063 11.1453 6.15624 11.1737 6.04841L11.1997 6.02144L11.1714 6.04841L11.1027 6.04596ZM11.4198 5.6661C11.3748 5.6661 11.3252 5.6661 11.3275 5.74207C11.3287 5.74681 11.331 5.75114 11.3343 5.75459C11.3377 5.75804 11.3419 5.76048 11.3465 5.76166C11.4127 5.76166 11.4127 5.71266 11.4222 5.6661L11.4672 5.59747L11.4435 5.58277L11.4198 5.6661ZM11.6564 5.3426C11.6408 5.36183 11.6295 5.38443 11.6233 5.40876C11.6233 5.44062 11.6446 5.46513 11.6754 5.44798C11.6859 5.44038 11.6947 5.43054 11.7012 5.41913C11.7077 5.40771 11.7118 5.39499 11.7132 5.3818C11.7156 5.3524 11.7061 5.32054 11.6564 5.3426Z" fill="#F5D4AF"/>
<path d="M10.3928 4.14418C10.3123 3.51679 10.653 3.05116 11.0009 2.62718C11.4008 2.13703 11.796 1.64689 12.1982 1.1788C12.274 1.08813 12.3639 1.01461 12.4349 0.933731L12.5059 1.0048C12.2598 1.30869 12.0152 1.61339 11.7723 1.91891C11.4037 2.31754 11.0666 2.74617 10.7642 3.20066C10.5934 3.48444 10.4979 3.80991 10.4874 4.14418H10.3928Z" fill="#AB8169"/>
<path d="M6.50269 4.14174C6.53108 3.95793 6.69909 3.99959 6.79374 3.98489C7.7095 3.83784 8.45012 3.33301 9.11979 2.72768C9.17894 2.67621 9.24286 2.52915 9.32805 2.63699C9.41324 2.74482 9.27126 2.78404 9.205 2.84531C8.59524 3.40762 7.87866 3.83169 7.10131 4.09028L6.50269 4.14174Z" fill="#AB8169"/>
<path d="M8.38379 4.1491L8.67484 3.90402C8.77659 4.0045 8.66301 4.06822 8.67484 4.1491H8.38379Z" fill="#AB8169"/>
<path d="M12.823 0.575917C12.8058 0.650803 12.7698 0.719669 12.7187 0.775592C12.6676 0.831516 12.6032 0.872526 12.532 0.894509C12.538 0.815367 12.5691 0.740509 12.6205 0.681566C12.6718 0.622623 12.7405 0.582892 12.8159 0.568558L12.823 0.575917Z" fill="#AB8169"/>
<path d="M12.8159 0.556307C12.8159 0.423967 12.8467 0.311234 12.9981 0.311234C12.9901 0.364669 12.9693 0.415159 12.9374 0.458002C12.9056 0.500845 12.8638 0.534654 12.8159 0.556307Z" fill="#AB8169"/>
<path d="M4.71608 5.92097C4.71608 5.96018 4.71608 5.99695 4.71608 6.03616C4.41792 6.0043 4.0961 6.15623 3.82397 5.91606C4.11672 5.99128 4.42258 5.99296 4.71608 5.92097Z" fill="#E4B29D"/>
<path d="M3.14707 12.4693C3.21806 12.4693 3.28435 12.4963 3.30329 12.582C3.30329 12.6188 3.28667 12.6409 3.25118 12.6335C3.16835 12.6164 3.14943 12.5477 3.14233 12.4742L3.14707 12.4693Z" fill="#E4B29D"/>
<path d="M4.06073 11.7782V11.8493C4.02053 11.8514 3.98071 11.8402 3.94709 11.8172C3.91348 11.7943 3.88781 11.7609 3.87378 11.7218L4.06073 11.7782Z" fill="#E4B29D"/>
<path d="M3.87361 11.7169C3.84965 11.72 3.82534 11.7156 3.80383 11.7043C3.78231 11.6929 3.76458 11.6751 3.75293 11.6532C3.77689 11.6501 3.8012 11.6545 3.82272 11.6659C3.84423 11.6772 3.86196 11.695 3.87361 11.7169Z" fill="#E4B29D"/>
<path d="M3.08326 15.1186C3.05928 15.1212 3.03508 15.1168 3.01335 15.106C2.99163 15.0951 2.97322 15.0783 2.96021 15.0573C2.9843 15.0554 3.00846 15.0606 3.02982 15.0723C3.05118 15.084 3.06888 15.1017 3.08089 15.1234L3.08326 15.1186Z" fill="#E4B29D"/>
<path d="M2.96267 12.3394L2.91772 12.2708L2.94141 12.2561L2.96267 12.337V12.3394Z" fill="#E4B29D"/>
<path d="M2.96265 15.9395C2.93841 15.9422 2.91397 15.9376 2.89217 15.9263C2.87037 15.915 2.85211 15.8975 2.8396 15.8758C2.86387 15.8729 2.88845 15.8773 2.91031 15.8887C2.93217 15.9 2.95037 15.9177 2.96265 15.9395Z" fill="#E4B29D"/>
<path d="M3.14478 16.0621L3.22525 16.0866L3.21104 16.1111L3.14478 16.0645V16.0621Z" fill="#E4B29D"/>
<path d="M3.69376 11.6042L3.61328 11.5773L3.62986 11.5527L3.69613 11.5993L3.69376 11.6042Z" fill="#E4B29D"/>
<path d="M3.69376 10.2686L3.61328 10.2416L3.62986 10.2171L3.69613 10.2637L3.69376 10.2686Z" fill="#E4B29D"/>
<path d="M2.96265 12.3394L2.9887 12.3664H2.97212C2.97085 12.3599 2.97085 12.3533 2.97212 12.3468L2.96265 12.3394Z" fill="#E4B29D"/>
<path d="M3.14252 12.4742L3.1189 12.4448L3.14726 12.4693L3.14252 12.4742Z" fill="#E4B29D"/>
<path d="M3.08337 13.9863L3.05737 13.9569L3.08574 13.9839L3.08337 13.9863Z" fill="#E4B29D"/>
<path d="M3.14241 14.0549L3.08325 13.9912C3.1049 14.0104 3.12545 14.0308 3.14478 14.0525L3.14241 14.0549Z" fill="#E4B29D"/>
<path d="M3.14707 14.0549L3.17076 14.0843L3.14233 14.0598L3.14707 14.0549Z" fill="#E4B29D"/>
<path d="M2.65978 14.8024L2.68347 14.8294L2.65747 14.8049L2.65978 14.8024Z" fill="#E4B29D"/>
<path d="M2.83947 14.9298L2.81348 14.9029L2.84184 14.9274L2.83947 14.9298Z" fill="#E4B29D"/>
<path d="M2.90356 14.9911L2.96509 15.0524L2.90593 14.9887L2.90356 14.9911Z" fill="#E4B29D"/>
<path d="M3.08562 15.1186L3.10931 15.1455L3.08325 15.1186H3.08562Z" fill="#E4B29D"/>
<path d="M2.83947 15.8758L2.81348 15.8464L2.84184 15.8734L2.83947 15.8758Z" fill="#E4B29D"/>
<path d="M2.96502 15.9371L2.9887 15.964L2.96265 15.9395L2.96502 15.9371Z" fill="#E4B29D"/>
<path d="M3.14489 16.0645L3.1189 16.0376C3.1189 16.0376 3.13305 16.0376 3.13542 16.0376C3.13626 16.0441 3.13626 16.0507 3.13542 16.0572L3.14489 16.0645Z" fill="#E4B29D"/>
<path d="M3.26782 9.8887L3.32935 9.94997L3.27019 9.88625L3.26782 9.8887Z" fill="#E4B29D"/>
<path d="M3.38867 10.0137L3.32715 9.95242L3.38631 10.0161L3.38867 10.0137Z" fill="#E4B29D"/>
<path d="M3.38867 10.0137L3.41473 10.0382H3.39815C3.39726 10.0309 3.39726 10.0235 3.39815 10.0161L3.38867 10.0137Z" fill="#E4B29D"/>
<path d="M3.69377 10.2637L3.71746 10.2931L3.69141 10.2685L3.69377 10.2637Z" fill="#E4B29D"/>
<path d="M3.75301 11.6532L3.69385 11.6042L3.75537 11.6679L3.75301 11.6532Z" fill="#E4B29D"/>
<path d="M2.65978 15.7484L2.68347 15.7754L2.65747 15.7508L2.65978 15.7484Z" fill="#E4B29D"/>
<path d="M17.8112 13.2266C17.991 13.2658 18.081 13.3981 18.1875 13.6187C17.9745 13.5109 17.8467 13.4153 17.8088 13.229L17.8112 13.2266Z" fill="#E4B29D"/>
<path d="M16.4719 9.13141C16.4719 9.11181 16.4719 9.09465 16.4719 9.07505C16.5539 9.05335 16.6405 9.05951 16.7189 9.09259C16.7973 9.12568 16.8633 9.18396 16.9073 9.25885C16.737 9.28336 16.6234 9.13876 16.4719 9.13141Z" fill="#E4B29D"/>
<path d="M17.7474 11.5895C17.6866 11.5835 17.6297 11.5558 17.5865 11.5111C17.5434 11.4663 17.5165 11.4074 17.5107 11.3444C17.5712 11.3513 17.6276 11.3793 17.6707 11.4239C17.7137 11.4685 17.7407 11.5269 17.7474 11.5895Z" fill="#E4B29D"/>
<path d="M18.365 17.258C18.4256 17.2645 18.4823 17.2924 18.5254 17.337C18.5685 17.3816 18.5954 17.4403 18.6016 17.5031C18.541 17.4967 18.4844 17.4688 18.4412 17.4242C18.3981 17.3795 18.3712 17.3208 18.365 17.258Z" fill="#E4B29D"/>
<path d="M17.6858 13.104C17.6148 13.104 17.5486 13.0771 17.532 12.9938C17.5292 12.9862 17.5286 12.978 17.5302 12.9701C17.5318 12.9622 17.5356 12.9549 17.5411 12.9492C17.5466 12.9435 17.5536 12.9396 17.5612 12.9379C17.5689 12.9363 17.5768 12.9369 17.5841 12.9399C17.6645 12.9595 17.6834 13.0256 17.6905 13.1016L17.6858 13.104Z" fill="#E4B29D"/>
<path d="M18.5425 18.6452C18.5906 18.6664 18.6326 18.7001 18.6645 18.743C18.6964 18.786 18.7171 18.8366 18.7247 18.8902C18.5874 18.8657 18.5638 18.753 18.5425 18.6452Z" fill="#E4B29D"/>
<path d="M17.4186 14.7901L17.3901 14.6725C17.4777 14.6725 17.5652 14.6725 17.5723 14.7975L17.4186 14.7901Z" fill="#E4B29D"/>
<path d="M17.2622 9.50883C17.3521 9.50883 17.4397 9.50882 17.4444 9.63626C17.4049 9.63807 17.3658 9.62666 17.333 9.60371C17.3002 9.58077 17.2754 9.54751 17.2622 9.50883Z" fill="#E4B29D"/>
<path d="M16.7085 10.7072C16.7085 10.6656 16.6966 10.6239 16.6919 10.5823C16.7359 10.5968 16.7764 10.621 16.8107 10.6531C16.845 10.6852 16.8723 10.7246 16.8907 10.7685L16.7085 10.7072Z" fill="#E4B29D"/>
<path d="M18.6631 17.6379C18.6794 17.6365 18.6958 17.6387 18.7112 17.6444C18.7266 17.6501 18.7407 17.6593 18.7523 17.6711C18.764 17.683 18.7731 17.6973 18.7789 17.7132C18.7848 17.729 18.7872 17.746 18.7861 17.7629C18.7698 17.764 18.7534 17.7615 18.7381 17.7554C18.7228 17.7494 18.709 17.74 18.6975 17.7279C18.6861 17.7158 18.6773 17.7013 18.6718 17.6853C18.6662 17.6694 18.6641 17.6523 18.6655 17.6355L18.6631 17.6379Z" fill="#E4B29D"/>
<path d="M18.9021 17.8291V17.9589C18.8656 17.9434 18.8344 17.9168 18.8124 17.8828C18.7905 17.8487 18.7789 17.8087 18.7791 17.7678L18.9021 17.8291Z" fill="#E4B29D"/>
<path d="M17.8679 11.7169C17.8516 11.7181 17.8353 11.7155 17.82 11.7095C17.8047 11.7034 17.7908 11.694 17.7794 11.6819C17.7679 11.6698 17.7591 11.6553 17.7535 11.6393C17.748 11.6234 17.7458 11.6064 17.7472 11.5895C17.7635 11.5885 17.7797 11.5909 17.795 11.5968C17.8102 11.6027 17.8241 11.6118 17.8357 11.6236C17.8473 11.6354 17.8564 11.6496 17.8623 11.6652C17.8683 11.6809 17.871 11.6977 17.8703 11.7145L17.8679 11.7169Z" fill="#E4B29D"/>
<path d="M18.5376 18.65C18.5213 18.6512 18.5049 18.6486 18.4896 18.6426C18.4743 18.6365 18.4604 18.6271 18.449 18.615C18.4375 18.6029 18.4288 18.5884 18.4232 18.5725C18.4177 18.5565 18.4155 18.5395 18.4169 18.5226C18.4331 18.5216 18.4494 18.5241 18.4646 18.5299C18.4799 18.5358 18.4937 18.5449 18.5053 18.5567C18.5169 18.5685 18.526 18.5827 18.532 18.5983C18.538 18.614 18.5407 18.6308 18.54 18.6476L18.5376 18.65Z" fill="#E4B29D"/>
<path d="M16.957 9.32013C17.0257 9.32013 17.0967 9.32013 17.1416 9.38385C17.073 9.38385 17.002 9.39855 16.957 9.32013Z" fill="#E4B29D"/>
<path d="M17.3806 11.2145L17.3025 11.1851L17.3191 11.1631L17.3853 11.2096L17.3806 11.2145Z" fill="#E4B29D"/>
<path d="M17.9912 16.8855C17.9703 16.8726 17.9534 16.8537 17.9425 16.8311C17.9316 16.8085 17.9271 16.7832 17.9297 16.7581C17.9508 16.7702 17.968 16.7885 17.979 16.8108C17.99 16.8331 17.9942 16.8583 17.9912 16.8831V16.8855Z" fill="#E4B29D"/>
<path d="M18.365 17.263C18.3485 17.2409 18.3343 17.2164 18.3201 17.1943L18.3413 17.1772L18.3698 17.258L18.365 17.263Z" fill="#E4B29D"/>
<path d="M18.6608 17.6404C18.6397 17.6283 18.6225 17.6099 18.6116 17.5876C18.6006 17.5654 18.5963 17.5402 18.5993 17.5154C18.6205 17.5274 18.6376 17.5458 18.6486 17.5681C18.6596 17.5904 18.6638 17.6155 18.6608 17.6404Z" fill="#E4B29D"/>
<path d="M18.1117 16.9468C18.088 16.9498 18.064 16.9456 18.0426 16.9347C18.0211 16.9239 18.0032 16.9068 17.991 16.8855C18.0153 16.8822 18.04 16.8866 18.0619 16.8979C18.0838 16.9093 18.102 16.9271 18.114 16.9492L18.1117 16.9468Z" fill="#E4B29D"/>
<path d="M18.1732 18.2212C18.1493 18.223 18.1255 18.2181 18.1042 18.2069C18.0829 18.1956 18.065 18.1785 18.0525 18.1575C18.0764 18.155 18.1005 18.1597 18.1219 18.171C18.1433 18.1823 18.1611 18.1997 18.1732 18.2212Z" fill="#E4B29D"/>
<path d="M18.7814 19.0275C18.761 19.0145 18.7445 18.996 18.7337 18.9739C18.7228 18.9519 18.718 18.9272 18.7199 18.9025C18.7402 18.9155 18.7567 18.934 18.7676 18.956C18.7784 18.9781 18.7832 19.0028 18.7814 19.0275Z" fill="#E4B29D"/>
<path d="M17.4468 11.2709L17.5082 11.3346C17.4869 11.3126 17.4657 11.293 17.4468 11.2709Z" fill="#E4B29D"/>
<path d="M17.6906 13.1016L17.7498 13.1629L17.6882 13.1016H17.6906Z" fill="#E4B29D"/>
<path d="M17.5674 14.8024L17.6289 14.8661L17.5674 14.8049V14.8024Z" fill="#E4B29D"/>
<path d="M17.6291 14.8661L17.6528 14.8906L17.6267 14.8661H17.6291Z" fill="#E4B29D"/>
<path d="M17.8681 15.0573L17.8445 15.0279L17.8728 15.0548L17.8681 15.0573Z" fill="#E4B29D"/>
<path d="M17.9294 15.121L17.8679 15.0573L17.9294 15.1186V15.121Z" fill="#E4B29D"/>
<path d="M17.991 15.1823L17.9294 15.121L17.9886 15.1847L17.991 15.1823Z" fill="#E4B29D"/>
<path d="M18.0549 15.2435L18.1165 15.3048L18.0573 15.2411L18.0549 15.2435Z" fill="#E4B29D"/>
<path d="M18.365 15.5621C18.3437 15.5425 18.3248 15.5205 18.3035 15.4984L18.365 15.5621Z" fill="#E4B29D"/>
<path d="M18.3651 15.5572L18.3888 15.5891L18.3604 15.5621L18.3651 15.5572Z" fill="#E4B29D"/>
<path d="M17.8704 16.6919L17.9319 16.7556L17.8727 16.6919H17.8704Z" fill="#E4B29D"/>
<path d="M18.1733 17.0105C18.1544 16.9885 18.1331 16.9688 18.1118 16.9468L18.171 17.0105H18.1733Z" fill="#E4B29D"/>
<path d="M18.1757 17.0081L18.1994 17.0375L18.1733 17.0105L18.1757 17.0081Z" fill="#E4B29D"/>
<path d="M17.9934 18.079L18.0549 18.1403L17.9934 18.0766V18.079Z" fill="#E4B29D"/>
<path d="M18.1755 18.204L18.2371 18.2677L18.1755 18.2065V18.204Z" fill="#E4B29D"/>
<path d="M18.2372 18.2677L18.2609 18.2972L18.2349 18.2702L18.2372 18.2677Z" fill="#E4B29D"/>
<path d="M18.4169 18.5226L18.3933 18.4932L18.4193 18.5202L18.4169 18.5226Z" fill="#E4B29D"/>
<path d="M16.9595 10.8322L17.021 10.8935L16.9618 10.8298L16.9595 10.8322Z" fill="#E4B29D"/>
<path d="M17.0209 10.8935L17.0445 10.9229L17.0161 10.8984L17.0209 10.8935Z" fill="#E4B29D"/>
<path d="M16.3323 8.07271C16.4995 8.05286 16.6679 8.09733 16.8055 8.19769C16.7226 8.21098 16.6379 8.20677 16.5566 8.18529C16.4753 8.16381 16.3989 8.12552 16.3323 8.07271Z" fill="#E4B29D"/>
<path d="M17.1392 8.3766C17.0611 8.3766 16.9782 8.3766 16.9309 8.28592C17.0445 8.21485 17.0942 8.28592 17.1415 8.37414L17.1392 8.3766Z" fill="#E4B29D"/>
<path d="M17.4422 8.5653C17.4185 8.56831 17.3945 8.56412 17.3731 8.55325C17.3516 8.54237 17.3337 8.52527 17.3215 8.50403C17.3455 8.50058 17.37 8.50484 17.3916 8.51624C17.4131 8.52763 17.4308 8.54562 17.4422 8.56776V8.5653Z" fill="#E4B29D"/>
<path d="M17.1415 8.37415L17.1652 8.4011L17.1392 8.3766L17.1415 8.37415Z" fill="#E4B29D"/>
<path d="M17.3215 8.50403L17.2979 8.47462L17.3239 8.49914L17.3215 8.50403Z" fill="#E4B29D"/>
<path d="M2.59815 17.6404C2.57006 17.6294 2.5445 17.6124 2.52328 17.5904C2.50206 17.5684 2.48566 17.542 2.4751 17.5129C2.49171 17.511 2.50853 17.5129 2.52432 17.5186C2.54011 17.5243 2.55444 17.5337 2.56626 17.5459C2.57809 17.5582 2.58709 17.573 2.5926 17.5894C2.59812 17.6057 2.60004 17.6231 2.59815 17.6404Z" fill="#E4B29D"/>
<path d="M2.71877 17.7016C2.69478 17.7051 2.67039 17.7008 2.64881 17.6894C2.62723 17.678 2.60954 17.66 2.59814 17.6379C2.62211 17.6348 2.64642 17.6392 2.66793 17.6506C2.68945 17.6619 2.70712 17.6797 2.71877 17.7016Z" fill="#E4B29D"/>
<path d="M2.96273 17.8903C2.93893 17.8948 2.91441 17.8912 2.89271 17.8802C2.871 17.8691 2.85324 17.8512 2.84204 17.8291C2.86581 17.825 2.8902 17.8288 2.91183 17.8397C2.93346 17.8507 2.95125 17.8684 2.96273 17.8903Z" fill="#E4B29D"/>
<path d="M11.6091 12.658C11.8316 12.2218 11.8458 11.7169 12.0351 11.2734C12.1581 10.9768 12.151 10.6166 12.435 10.3985C12.435 10.4793 12.435 10.5578 12.435 10.6435C12.319 10.6827 12.3048 10.793 12.2717 10.8886C12.0212 11.5623 11.8357 12.2601 11.718 12.9717C11.6941 13.0579 11.6591 13.1403 11.6139 13.2168L11.6091 12.658Z" fill="#E4B29D"/>
<path d="M12.2126 7.5556C11.9594 7.80067 11.9476 8.16828 11.7512 8.44276C11.8601 8.04084 11.9263 7.61932 12.2245 7.29582L12.2126 7.5556Z" fill="#E4B29D"/>
<path d="M7.59117 11.7169L7.76864 11.6508C7.71895 11.7439 7.69054 11.8566 7.58169 11.8958C7.57012 11.8839 7.56114 11.8696 7.55529 11.8538C7.54944 11.838 7.54689 11.8211 7.54778 11.8042C7.54868 11.7873 7.55301 11.7708 7.56049 11.7558C7.56797 11.7407 7.57841 11.7275 7.59117 11.7169Z" fill="#E4B29D"/>
<path d="M7.7709 9.64362C7.7591 9.67749 7.73808 9.7071 7.71036 9.72885C7.68264 9.7506 7.64943 9.76355 7.61475 9.76615C7.61475 9.72694 7.61471 9.68773 7.63364 9.64607H7.7709V9.64362Z" fill="#E4B29D"/>
<path d="M7.64544 8.12172H7.7117L7.64307 8.19035C7.64307 8.17319 7.64544 8.14623 7.64544 8.12172Z" fill="#E4B29D"/>
<path d="M11.3655 9.88869C11.5169 9.62892 11.4625 9.32257 11.5406 9.04564C11.5593 8.88977 11.619 8.74224 11.7133 8.61922C11.5636 9.3087 11.5063 10.0163 11.543 10.7219C11.5291 10.8784 11.5427 11.0362 11.5832 11.1876C11.6187 11.2734 11.5832 11.3273 11.4862 11.3371C11.4326 11.0696 11.4096 10.7965 11.4175 10.5234L11.3892 10.4573L11.3655 9.88869Z" fill="#E4B29D"/>
<path d="M11.1783 6.0435C11.15 6.15133 11.2493 6.30574 11.0671 6.35475L11.1027 6.04596H11.1783V6.0435Z" fill="#E4B29D"/>
<path d="M8.68213 10.6435C8.72061 10.5603 8.78588 10.4936 8.86671 10.4548C8.86671 10.4965 8.86671 10.5381 8.86671 10.5798L8.68687 10.646L8.68213 10.6435Z" fill="#E4B29D"/>
<path d="M8.92815 8.50403H8.86426L8.93046 8.43787C8.93046 8.45747 8.92815 8.47952 8.92815 8.50403Z" fill="#E4B29D"/>
<path d="M8.43823 7.43797C8.4619 7.28358 8.56128 7.1929 8.72928 7.11693C8.7225 7.19633 8.69048 7.27115 8.63824 7.32969C8.586 7.38823 8.5165 7.42718 8.4406 7.44043L8.43823 7.43797Z" fill="#E4B29D"/>
<path d="M8.68197 18.1427C8.6583 18.3069 8.66067 18.4809 8.49976 18.5839C8.52579 18.4221 8.52106 18.2457 8.68197 18.1427Z" fill="#E4B29D"/>
<path d="M7.95316 13.6702C7.96054 13.7298 7.95054 13.7905 7.92439 13.8442C7.89824 13.8979 7.85713 13.9423 7.80642 13.9716C7.79481 13.9113 7.80296 13.8487 7.82953 13.7936C7.8561 13.7386 7.89959 13.6943 7.95316 13.6677V13.6702Z" fill="#E4B29D"/>
<path d="M8.31751 12.9766C8.32633 13.0255 8.31924 13.0761 8.29741 13.1204C8.27558 13.1647 8.24024 13.2004 8.19683 13.2217C8.18861 13.1725 8.19621 13.1219 8.21844 13.0777C8.24066 13.0334 8.2763 12.9979 8.31988 12.9766H8.31751Z" fill="#E4B29D"/>
<path d="M8.2561 15.3073C8.2561 15.2141 8.25611 15.1235 8.37916 15.1186C8.37983 15.1593 8.36867 15.1993 8.34715 15.2333C8.32564 15.2674 8.29475 15.294 8.25847 15.3097L8.2561 15.3073Z" fill="#E4B29D"/>
<path d="M8.25855 15.3097C8.25907 15.3501 8.24753 15.3897 8.22551 15.423C8.20348 15.4564 8.17204 15.4818 8.1355 15.496C8.1355 15.4053 8.1355 15.3146 8.25855 15.3073V15.3097Z" fill="#E4B29D"/>
<path d="M7.99824 15.6455L8.04792 15.67C8.04792 15.6871 8.03612 15.7141 8.02429 15.719C8.01246 15.7239 7.99117 15.719 7.97461 15.6994L7.99824 15.6455Z" fill="#E4B29D"/>
<path d="M8.31766 6.23221C8.31766 6.28122 8.31765 6.33268 8.24429 6.33023C8.24429 6.33023 8.22534 6.31553 8.22534 6.31063C8.22534 6.24201 8.2727 6.23956 8.31766 6.23221Z" fill="#E4B29D"/>
<path d="M8.62276 16.317C8.62276 16.3635 8.62275 16.415 8.54703 16.4125C8.54245 16.4113 8.53829 16.4089 8.53495 16.4054C8.53162 16.402 8.52922 16.3977 8.52808 16.3929C8.52808 16.3243 8.57543 16.3219 8.62039 16.3145L8.62276 16.317Z" fill="#E4B29D"/>
<path d="M8.37671 16.6307C8.37671 16.5841 8.37673 16.5302 8.45245 16.5351C8.45702 16.5363 8.46119 16.5387 8.46452 16.5422C8.46786 16.5456 8.47019 16.5499 8.47134 16.5547C8.47134 16.6209 8.4264 16.6258 8.37908 16.6331L8.37671 16.6307Z" fill="#E4B29D"/>
<path d="M7.89167 7.92811C7.89312 7.9449 7.89098 7.96182 7.88543 7.97766C7.87988 7.99351 7.87106 8.0079 7.85955 8.01982C7.84804 8.03174 7.83412 8.0409 7.81882 8.04665C7.80352 8.0524 7.7872 8.0546 7.77099 8.0531C7.76994 8.03608 7.77239 8.01903 7.77821 8.00308C7.78402 7.98713 7.79308 7.97264 7.80472 7.96058C7.81636 7.94853 7.83034 7.93919 7.84574 7.93316C7.86114 7.92714 7.87761 7.92458 7.89404 7.92565L7.89167 7.92811Z" fill="#E4B29D"/>
<path d="M8.48316 12.6262L8.53284 12.6482C8.53284 12.6654 8.53288 12.6923 8.50921 12.6972C8.48555 12.7021 8.47604 12.685 8.45947 12.6776L8.48316 12.6262Z" fill="#E4B29D"/>
<path d="M8.43823 14.9911C8.43823 14.9445 8.43825 14.8931 8.51397 14.8955C8.51397 14.8955 8.5305 14.9078 8.53286 14.9151C8.53286 14.9838 8.48556 14.9862 8.4406 14.9936L8.43823 14.9911Z" fill="#E4B29D"/>
<path d="M8.49978 18.5839C8.49978 18.6721 8.52817 18.7701 8.43825 18.829C8.44535 18.7481 8.41222 18.65 8.49978 18.5839Z" fill="#E4B29D"/>
<path d="M8.31531 16.7507C8.31294 16.726 8.31746 16.701 8.32837 16.6789C8.33928 16.6567 8.35611 16.6383 8.37684 16.6257C8.37984 16.6506 8.37556 16.6757 8.36459 16.698C8.35362 16.7203 8.33647 16.7387 8.31531 16.7507Z" fill="#E4B29D"/>
<path d="M8.37908 15.1186C8.37569 15.0936 8.37947 15.0682 8.39 15.0456C8.40052 15.0229 8.41733 15.0039 8.43824 14.9911C8.44061 15.0159 8.43609 15.0408 8.42518 15.0629C8.41427 15.0851 8.39744 15.1036 8.37671 15.1161L8.37908 15.1186Z" fill="#E4B29D"/>
<path d="M8.31755 12.9742C8.31434 12.9496 8.31823 12.9246 8.32876 12.9024C8.3393 12.8801 8.356 12.8616 8.37671 12.8492C8.37988 12.8744 8.37571 12.8999 8.36475 12.9226C8.35379 12.9453 8.33653 12.9641 8.31519 12.9766L8.31755 12.9742Z" fill="#E4B29D"/>
<path d="M8.01228 13.5427C8.01002 13.5177 8.01458 13.4924 8.02546 13.4699C8.03633 13.4474 8.05308 13.4285 8.07381 13.4153C8.07714 13.4401 8.07303 13.4655 8.06203 13.4878C8.05102 13.5102 8.03366 13.5285 8.01228 13.5403V13.5427Z" fill="#E4B29D"/>
<path d="M7.83008 11.587L7.85376 11.5062L7.87739 11.5233L7.83245 11.5895L7.83008 11.587Z" fill="#E4B29D"/>
<path d="M7.83241 16.0008C7.83508 16.0256 7.83069 16.0507 7.81975 16.0729C7.80882 16.0951 7.79182 16.1135 7.77088 16.1258C7.7685 16.1011 7.77303 16.0761 7.78394 16.054C7.79484 16.0318 7.81167 16.0134 7.83241 16.0008Z" fill="#E4B29D"/>
<path d="M8.0124 13.5427C8.01579 13.5676 8.01201 13.593 8.00148 13.6157C7.99096 13.6384 7.97415 13.6573 7.95325 13.6702C7.95003 13.6456 7.95392 13.6206 7.96445 13.5984C7.97499 13.5761 7.99169 13.5576 8.0124 13.5452V13.5427Z" fill="#E4B29D"/>
<path d="M8.01482 11.3371L7.98877 11.364L8.01246 11.3371H8.01482Z" fill="#E4B29D"/>
<path d="M8.37671 12.8492L8.40271 12.8247L8.37908 12.8492H8.37671Z" fill="#E4B29D"/>
<path d="M8.18987 13.229L8.16382 13.2536C8.16382 13.2536 8.16382 13.2413 8.16382 13.2388C8.16382 13.2364 8.16384 13.2388 8.18277 13.2388L8.18987 13.229Z" fill="#E4B29D"/>
<path d="M8.07397 13.4153L8.10003 13.3908L8.07397 13.4177V13.4153Z" fill="#E4B29D"/>
<path d="M8.55908 6.04104L8.58745 6.01654L8.56145 6.04595L8.55908 6.04104Z" fill="#E4B29D"/>
<path d="M8.01245 11.3371L8.07398 11.2734L8.01245 11.3346V11.3371Z" fill="#E4B29D"/>
<path d="M8.62061 14.7387L8.6466 14.7142L8.62297 14.7411L8.62061 14.7387Z" fill="#E4B29D"/>
<path d="M8.56146 6.04595L8.5354 6.07045L8.55909 6.04105L8.56146 6.04595Z" fill="#E4B29D"/>
<path d="M8.62298 14.7411L8.59692 14.7681L8.62061 14.7387L8.62298 14.7411Z" fill="#E4B29D"/>
<path d="M8.37925 7.49434L8.35083 7.51885L8.37688 7.49188L8.37925 7.49434Z" fill="#E4B29D"/>
<path d="M7.95312 7.87174L7.97681 7.84477C7.97681 7.84477 7.97681 7.85948 7.97681 7.86193H7.95786L7.95312 7.87174Z" fill="#E4B29D"/>
<path d="M8.13543 15.496L8.10938 15.5229C8.10938 15.5229 8.10938 15.5229 8.10938 15.5058C8.11566 15.5049 8.12204 15.5049 8.12832 15.5058L8.13543 15.496Z" fill="#E4B29D"/>
<path d="M7.95313 7.87175L7.8916 7.93547L7.95313 7.8742V7.87175Z" fill="#E4B29D"/>
<path d="M7.77107 8.06044L7.71191 8.12416L7.77344 8.06289L7.77107 8.06044Z" fill="#E4B29D"/>
<path d="M7.83008 16.0008L7.85613 15.9739L7.83245 16.0008H7.83008Z" fill="#E4B29D"/>
<path d="M8.80518 8.56529L8.74365 8.62901L8.80281 8.56529H8.80518Z" fill="#E4B29D"/>
<path d="M8.74348 16.192L8.68433 16.2557L8.74585 16.192H8.74348Z" fill="#E4B29D"/>
<path d="M8.62053 16.3145L8.67969 16.2508L8.61816 16.3121L8.62053 16.3145Z" fill="#E4B29D"/>
<path d="M8.74366 8.62901L8.68213 8.69028L8.74366 8.62656V8.62901Z" fill="#E4B29D"/>
<path d="M8.62061 8.754L8.68213 8.69028L8.62297 8.754H8.62061Z" fill="#E4B29D"/>
<path d="M8.62281 8.754L8.56128 8.81772L8.62044 8.75645L8.62281 8.754Z" fill="#E4B29D"/>
<path d="M8.49976 8.879L8.56128 8.81528L8.49976 8.87655V8.879Z" fill="#E4B29D"/>
<path d="M8.43831 8.94272L8.37915 9.00644L8.44068 8.94517L8.43831 8.94272Z" fill="#E4B29D"/>
<path d="M8.31755 9.0677L8.37671 9.00398L8.31519 9.0677H8.31755Z" fill="#E4B29D"/>
<path d="M8.31756 16.7507L8.2915 16.7752L8.31519 16.7483L8.31756 16.7507Z" fill="#E4B29D"/>
<path d="M8.31756 9.07014L8.2915 9.09466C8.2915 9.09466 8.2915 9.09466 8.2915 9.0775C8.29854 9.07617 8.30578 9.07617 8.31282 9.0775L8.31756 9.07014Z" fill="#E4B29D"/>
<path d="M8.1355 9.2564L8.15918 9.2319C8.15918 9.2319 8.15918 9.2319 8.15918 9.24661H8.14024L8.1355 9.2564Z" fill="#E4B29D"/>
<path d="M8.13306 11.2096L8.19458 11.1459C8.17528 11.1684 8.15473 11.1896 8.13306 11.2096Z" fill="#E4B29D"/>
<path d="M8.07397 9.32013L8.1355 9.25641L8.07397 9.31768V9.32013Z" fill="#E4B29D"/>
<path d="M8.07391 9.32013L8.04785 9.34708C8.04785 9.34708 8.04785 9.33238 8.04785 9.32993H8.06917L8.07391 9.32013Z" fill="#E4B29D"/>
<path d="M7.8916 9.50883L7.91529 9.48431L7.8916 9.51128V9.50883Z" fill="#E4B29D"/>
<path d="M7.8916 9.51129L7.83008 9.57256L7.8916 9.50883V9.51129Z" fill="#E4B29D"/>
<path d="M7.83015 9.57256L7.771 9.63626L7.83252 9.57256H7.83015Z" fill="#E4B29D"/>
<path d="M8.68196 10.646L8.6228 10.7072L8.68433 10.6435L8.68196 10.646Z" fill="#E4B29D"/>
<path d="M8.62281 10.7072L8.56128 10.771L8.62281 10.7097V10.7072Z" fill="#E4B29D"/>
<path d="M8.56128 10.771L8.49976 10.8347L8.55891 10.771H8.56128Z" fill="#E4B29D"/>
<path d="M8.43823 10.8959L8.49976 10.8322L8.4406 10.8935L8.43823 10.8959Z" fill="#E4B29D"/>
<path d="M8.44068 10.8959L8.37915 10.9597L8.44068 10.8984V10.8959Z" fill="#E4B29D"/>
<path d="M8.68197 20.4759L8.65828 20.5592L8.63696 20.542L8.68197 20.4734V20.4759Z" fill="#E4B29D"/>
<path d="M8.60628 20.7258V20.7479L8.58496 20.716C8.58496 20.716 8.59918 20.716 8.60391 20.716C8.60864 20.716 8.60155 20.7185 8.60628 20.7258Z" fill="#E4B29D"/>
<path d="M8.49976 20.9782L8.52338 20.8949L8.54707 20.9121L8.49976 20.9782Z" fill="#E4B29D"/>
<path d="M11.6563 5.3426C11.706 5.32054 11.7155 5.34259 11.7131 5.3818C11.7117 5.39499 11.7076 5.40771 11.7011 5.41912C11.6946 5.43054 11.6858 5.44038 11.6753 5.44798C11.6445 5.46513 11.6208 5.44797 11.6232 5.40876C11.6294 5.38442 11.6407 5.36183 11.6563 5.3426Z" fill="#E4B29D"/>
<path d="M11.4223 5.66609C11.4223 5.71266 11.4223 5.76411 11.3466 5.76166C11.342 5.76047 11.3378 5.75804 11.3345 5.75458C11.3311 5.75113 11.3288 5.7468 11.3276 5.74206C11.3276 5.67344 11.3749 5.67099 11.4199 5.66609H11.4223Z" fill="#E4B29D"/>
<path d="M11.4199 5.6661L11.4436 5.58276L11.4673 5.59747L11.4223 5.6661H11.4199Z" fill="#E4B29D"/>
<path d="M11.176 6.04349L11.2044 6.01654L11.1783 6.04349H11.176Z" fill="#E4B29D"/>
</g>
<defs>
<clipPath id="clip0_173_1018">
<rect width="20.4" height="24" fill="white"/>
</clipPath>
</defs>
</svg>
