<svg width="23" height="24" viewBox="0 0 23 24" fill="none" xmlns="http://www.w3.org/2000/svg">
<g clip-path="url(#clip0_179_2201)">
<path d="M21.8807 10.4129V23.3152C21.8807 23.6424 21.719 23.8774 21.4368 23.9685C21.369 23.9897 21.2982 24.0003 21.227 24H14.326H14.271C14.271 23.9482 14.271 23.8965 14.271 23.8459V10.5782C14.271 10.5265 14.271 10.4747 14.271 10.423C14.3046 10.4077 14.3421 10.4022 14.3788 10.4073H14.7733C14.8092 10.4234 14.8489 10.4293 14.888 10.4241L21.8807 10.4129Z" fill="#E7D5C6"/>
<path d="M8.71306 23.9967H8.63964H1.79723C1.65288 24.0051 1.50989 23.9652 1.39172 23.8834C1.27356 23.8017 1.18726 23.683 1.14694 23.5469C1.12802 23.4826 1.11875 23.4159 1.11942 23.349C1.11942 19.0381 1.11942 14.728 1.11942 10.4186H8.09946C8.13878 10.4236 8.17872 10.4169 8.21415 10.3995C8.27723 10.3995 8.34144 10.3995 8.40567 10.3995C8.50842 10.3905 8.61198 10.3961 8.71306 10.4163C8.71306 10.4647 8.71306 10.513 8.71306 10.5614C8.71383 15.0394 8.71383 19.5179 8.71306 23.9967Z" fill="#E7D5C6"/>
<path d="M8.71657 10.4152C8.61549 10.395 8.51193 10.3893 8.40918 10.3983C8.34495 10.3983 8.28073 10.3983 8.21651 10.3983C8.21651 10.35 8.21651 10.3016 8.21651 10.2521V4.35587C8.21651 4.23106 8.2165 4.23107 8.08919 4.23107H5.17262C5.07169 4.23107 4.96963 4.23107 4.86756 4.23107C4.67338 4.19771 4.4852 4.13673 4.309 4.05004C3.84221 3.79368 3.52222 3.41589 3.44423 2.89417C3.31234 2.02615 3.61399 1.28967 4.26084 0.697118C4.74392 0.243931 5.39071 -0.00275237 6.05918 0.011246C6.59898 0.0222026 7.12339 0.189661 7.56622 0.492486C8.11559 0.850041 8.67528 1.19298 9.22923 1.54378C9.60427 1.78215 9.97817 2.02277 10.3532 2.26227C10.367 2.26842 10.38 2.27595 10.3922 2.28475C10.5069 2.39719 10.6032 2.3702 10.7248 2.28475C10.8935 2.17196 11.0941 2.11377 11.2983 2.11834C11.5792 2.11834 11.8614 2.11834 12.1424 2.11834C12.3615 2.11929 12.5752 2.18471 12.756 2.30612C12.7766 2.32295 12.8025 2.33216 12.8294 2.33216C12.8562 2.33216 12.8822 2.32295 12.9028 2.30612C13.8845 1.68321 14.8674 1.06179 15.8515 0.441881C16.3378 0.118761 16.9238 -0.0283213 17.5087 0.0258635C18.0107 0.0697591 18.4897 0.251783 18.8907 0.550956C19.2696 0.829096 19.5619 1.2052 19.7349 1.6371C19.8168 1.83935 19.8704 2.05153 19.8943 2.26788C19.9267 2.50933 19.9182 2.75439 19.8691 2.99312C19.8134 3.2142 19.7097 3.42091 19.5651 3.59916C19.4117 3.79371 19.2158 3.95201 18.9917 4.06241C18.8289 4.15218 18.648 4.2059 18.4618 4.21981C18.3621 4.24188 18.26 4.2517 18.1579 4.24905H14.9087C14.7642 4.24905 14.7642 4.24905 14.7642 4.39297C14.7642 6.39812 14.7642 8.40328 14.7642 10.4084H14.3696C14.3329 10.4034 14.2955 10.4089 14.2618 10.4242L8.71657 10.4152ZM7.41942 3.4676H7.77152C8.17065 3.4676 8.57435 3.4676 8.97003 3.4676C9.07739 3.47136 9.18328 3.44219 9.27291 3.38414C9.36255 3.32609 9.43146 3.24206 9.47007 3.14378C9.50301 3.03991 9.49971 2.92824 9.46066 2.82642C9.42161 2.7246 9.34905 2.63845 9.25446 2.58159C8.7223 2.24427 8.18785 1.90696 7.65798 1.56964C7.42187 1.40767 7.14408 1.31398 6.8563 1.29927C6.56851 1.28455 6.2823 1.34938 6.03028 1.4864C5.77826 1.62341 5.5706 1.82709 5.43093 2.0742C5.29125 2.32131 5.22519 2.60193 5.2403 2.88406C5.25811 3.03658 5.32977 3.17818 5.44288 3.28434C5.55599 3.39051 5.70341 3.45454 5.85962 3.46535C6.37916 3.47547 6.89872 3.4676 7.41942 3.4676ZM15.8755 3.4676C16.3836 3.4676 16.8917 3.4676 17.3986 3.4676C17.5609 3.47476 17.7201 3.42295 17.8458 3.32212C17.9716 3.22128 18.0549 3.0785 18.0799 2.92116C18.1021 2.78187 18.0955 2.63961 18.0604 2.50289C17.9953 2.18735 17.8285 1.90065 17.5847 1.68506C17.3408 1.46947 17.0327 1.33638 16.7059 1.30541C16.3645 1.26726 16.0203 1.34677 15.7322 1.53029L14.0577 2.58834C13.9691 2.64409 13.9013 2.72659 13.8648 2.82339C13.8282 2.92019 13.8247 3.02603 13.8549 3.12494C13.885 3.22384 13.9472 3.31043 14.032 3.37164C14.1168 3.43284 14.2196 3.46535 14.3249 3.46423L15.8755 3.4676Z" fill="#DC968F"/>
<path d="M8.71636 10.4152H14.2674C14.2674 10.4669 14.2674 10.5186 14.2674 10.5703V23.8381C14.2674 23.8887 14.2674 23.9404 14.2674 23.9921H14.1836H8.79319H8.70947C8.70947 19.5141 8.70947 15.0353 8.70947 10.5557C8.71406 10.5119 8.71521 10.4635 8.71636 10.4152Z" fill="#DC968F"/>
<path d="M14.7688 10.3961C14.7688 8.39167 14.7688 6.38652 14.7688 4.38062C14.7688 4.2367 14.7688 4.23669 14.9133 4.23669H18.1671C18.2692 4.23935 18.3713 4.22953 18.471 4.20746C18.5136 4.22556 18.5606 4.23103 18.6063 4.2232H22.3372C22.4919 4.21605 22.644 4.26455 22.7648 4.35959C22.8856 4.45463 22.9668 4.58967 22.9932 4.7393C23.0013 4.79025 23.0048 4.8418 23.0035 4.89334V9.73494C23.0035 10.1442 22.7398 10.4017 22.3154 10.4096L21.8807 10.4163H14.8846C14.8448 10.4206 14.8046 10.4136 14.7688 10.3961Z" fill="#E7D5C6"/>
<path d="M4.86284 4.21982C4.96491 4.21982 5.06698 4.21982 5.1679 4.21982H8.08335C8.21066 4.21982 8.21064 4.21983 8.21064 4.34464V10.2409C8.21064 10.2904 8.21064 10.3387 8.21064 10.3871C8.17531 10.4048 8.13528 10.4115 8.09595 10.4062H1.11591C0.970258 10.4062 0.825742 10.4062 0.680085 10.3995C0.260319 10.3995 -0.00805664 10.1386 -0.00805664 9.72482C-0.00805664 8.11395 -0.00805664 6.50233 -0.00805664 4.88996C-0.00805664 4.47169 0.254584 4.21533 0.680085 4.21533H4.72866L4.86284 4.21982Z" fill="#E7D5C6"/>
</g>
<defs>
<clipPath id="clip0_179_2201">
<rect width="23" height="24" fill="white"/>
</clipPath>
</defs>
</svg>
