<svg width="16" height="22" viewBox="0 0 16 22" fill="none" xmlns="http://www.w3.org/2000/svg">
<g clip-path="url(#clip0_177_1474)">
<path d="M1.95892 19.3909C0.98767 18.3099 0.336001 17.0058 0.0698914 15.6104C0.0185874 15.2717 -0.00175398 14.9295 0.00909949 14.5876C0.00909949 12.1344 -0.0218738 9.68133 0.032033 7.2293C0.0859398 4.75994 1.31088 2.84859 3.38572 1.40099C3.67934 1.19621 3.9592 1.02609 4.01655 0.642523C4.05784 0.347803 4.32394 0.0628345 4.59921 0.18419C5.33899 0.509249 6.01454 0.22428 6.70844 0.112677C7.80195 -0.0657948 8.92356 -0.0158657 9.99445 0.258954C10.381 0.357555 10.7228 0.384642 11.0921 0.239449C11.5279 0.0682516 11.8537 0.196108 11.9661 0.637105C12.0567 0.993586 12.2895 1.19621 12.5912 1.40641C14.2898 2.58854 15.4219 4.09899 15.8026 6.1176C15.9212 6.78497 15.9799 7.4606 15.9781 8.1373C15.993 10.0129 15.9311 11.8907 15.9953 13.7652C16.1031 16.9258 14.7543 19.3237 11.9477 21.014C11.7779 21.0435 11.6222 21.1227 11.5027 21.2404L11.2641 21.3488C11.2015 21.3476 11.1393 21.3585 11.0813 21.3808C11.0233 21.4032 10.9708 21.4365 10.9269 21.4788L8.97712 21.9252L8.73281 21.9621L8.50342 21.9946L8.28665 22.0032H7.71318L7.48379 21.9913L7.04335 21.9285L6.45727 21.883C6.16722 21.7518 5.85184 21.6781 5.53052 21.6663V21.6608C5.21626 21.4604 4.85497 21.365 4.50515 21.2426L3.61971 20.7485L2.45438 19.8893C2.29037 19.7278 2.12408 19.5566 1.95892 19.3909ZM14.1442 11.1929L14.2703 11.0693L14.2634 11.0823L14.6006 10.7367C15.3003 10.1733 15.7568 9.51989 15.5824 8.59022C15.5262 8.29225 15.5732 7.97802 15.571 7.67139C15.5515 5.28762 14.5605 3.34593 12.5705 1.87016C12.4639 1.79107 12.3744 1.64587 12.2264 1.68921C12.0751 2.28299 12.2975 2.68498 12.7494 3.11731C14.2588 4.55949 14.814 6.32997 14.4034 8.32584C13.8161 11.1604 11.0577 13.6265 6.67059 12.9471C4.1599 12.5581 2.42687 11.1376 1.72149 8.82968C1.01956 6.54776 1.60679 4.50964 3.49123 2.87026C3.72062 2.67306 3.89611 2.49428 3.77797 2.18439C3.77797 2.01644 3.86056 1.84524 3.75389 1.63612C2.21583 2.66981 1.15605 3.99063 0.69842 5.71886C0.591753 6.07318 0.399047 6.42532 0.393312 6.78072C0.365785 8.41252 0.393312 10.0454 0.393312 11.6772C0.393312 11.9535 0.427726 12.2125 0.714465 12.3685L0.720205 12.3782L0.818827 12.5018C0.884158 12.6761 1.00776 12.8255 1.17095 12.9276L1.16177 12.9168L1.28679 13.0414L1.2719 13.0273L1.39919 13.153L1.382 13.1389L1.51159 13.2635H1.49095C1.84869 13.6893 2.27941 14.0556 2.76523 14.347V14.3286L2.90286 14.4424L2.89138 14.4337C3.15797 14.6689 3.46372 14.8611 3.79634 15.0026V14.9906C3.96084 15.144 4.16358 15.2558 4.38586 15.3157L4.37898 15.3049C4.92722 15.6603 5.56609 15.8174 6.17168 16.0471C6.70731 16.2508 7.1764 16.1554 7.62141 15.8466L7.61226 15.8596C7.70631 15.8434 7.80723 15.8401 7.8554 15.7404L7.84277 15.7534C7.93797 15.7394 8.03662 15.7296 8.08594 15.6321L8.07104 15.644C8.16394 15.6267 8.26601 15.6223 8.31303 15.5226L8.29928 15.5346C8.34719 15.5348 8.39438 15.5236 8.43649 15.502C8.4786 15.4804 8.51424 15.4491 8.54013 15.411L8.53209 15.4208C8.75225 15.3563 8.95391 15.2451 9.12164 15.0957V15.1077L9.69512 14.7663L9.68249 14.7761L9.79718 14.6461C10.2376 14.321 10.8375 14.2235 11.1735 13.7565C11.1876 13.7613 11.2027 13.7631 11.2176 13.7617C11.2325 13.7602 11.2469 13.7557 11.2597 13.7483C11.2724 13.7409 11.2833 13.7309 11.2914 13.719C11.2995 13.7071 11.3047 13.6936 11.3066 13.6796L11.2951 13.698C11.5221 13.5939 11.7213 13.4428 11.8778 13.2559L11.872 13.2646C12.0477 13.1829 12.2002 13.063 12.317 12.9146L12.5636 12.6979L12.5487 12.7066L12.6806 12.5852L12.6657 12.6004L12.7976 12.479L12.7827 12.4953L12.9135 12.3717L12.8985 12.388L13.0282 12.2634L13.0144 12.2807C13.0483 12.2789 13.0803 12.2655 13.1044 12.2429C13.1285 12.2204 13.143 12.1903 13.1452 12.1583L13.1314 12.1735C13.1653 12.1721 13.1975 12.1588 13.2215 12.1361C13.2455 12.1134 13.2596 12.0831 13.261 12.051L13.2449 12.0651C13.2792 12.0646 13.312 12.0515 13.3364 12.0287C13.3607 12.0059 13.3748 11.9751 13.3757 11.9427L13.3619 11.9589C13.3961 11.9575 13.4285 11.9439 13.4523 11.9207C13.4762 11.8975 13.4898 11.8666 13.4904 11.8343L13.4766 11.8506C13.5107 11.8489 13.5429 11.8352 13.5667 11.8121C13.5906 11.789 13.6043 11.7582 13.6051 11.726L13.5913 11.7422C13.6253 11.7406 13.6575 11.7271 13.6815 11.7042C13.7055 11.6813 13.7195 11.6508 13.7209 11.6187L13.7049 11.6328C13.7388 11.6304 13.7707 11.6165 13.7945 11.5936C13.8184 11.5706 13.8326 11.5403 13.8345 11.5082L13.8184 11.5233L13.9469 11.3976L13.9308 11.4128L14.0581 11.2871L14.0432 11.3023L14.1705 11.1777L14.1442 11.1929ZM3.34098 3.69158L3.35246 3.67966L3.23776 3.80535L3.0749 3.99821L3.09439 3.98413L2.9797 4.12607C1.05626 6.46433 1.7559 10.507 5.16465 12.0543C6.18888 12.5202 7.26702 12.6275 8.38301 12.5863C10.529 12.5061 12.1679 11.6024 13.2748 9.87745C14.0868 8.61622 14.213 7.23689 13.8482 5.83046C13.6303 4.9929 13.2426 4.22793 12.5246 3.62548C12.1634 3.32101 12.0762 3.45862 11.9844 3.76851C11.8353 4.2756 11.4878 4.35036 11.0141 4.1965C10.3623 3.99777 9.73718 3.72796 9.15146 3.39252C8.93583 3.26466 8.76265 3.23649 8.52638 3.37518C8.36052 3.47532 8.16807 3.52916 7.97124 3.5305C7.77441 3.53184 7.58118 3.48063 7.41381 3.38277C7.11904 3.19857 6.97455 3.29176 6.77498 3.43912L6.53985 3.58214L6.55245 3.57239L6.31505 3.69266H6.32306L6.17053 3.75334H6.15446L5.84938 3.91262L5.86315 3.90287L5.28279 4.13257L5.29195 4.12715C5.17725 4.14016 5.06257 4.13582 4.99031 4.23551H4.9559L4.5086 4.29402L4.26887 4.24851L4.04981 4.01989L4.05782 4.03181L3.94313 3.79451L3.95576 3.8086C3.89841 3.62873 3.96148 3.41528 3.77338 3.23433L3.44078 3.58756L3.45226 3.57889L3.34098 3.69158ZM5.42731 3.48896C5.53168 3.48896 5.63833 3.48896 5.70027 3.3806C6.02891 3.31527 6.33284 3.16742 6.58 2.95261C6.83806 2.60805 6.62014 2.23856 6.62931 1.88208C6.62931 1.74447 6.77727 1.52235 6.51462 1.45734C5.901 1.30348 5.43648 0.86573 4.82401 0.698867C4.56021 0.627354 4.45928 0.690199 4.42257 0.89607C4.26085 1.79757 4.14615 2.70015 4.49941 3.58972C4.47762 3.75767 4.5579 3.83894 4.72306 3.76743C4.95245 3.66666 5.23233 3.65907 5.42845 3.47921L5.42731 3.48896ZM7.31863 2.73049C7.31892 2.74362 7.32456 2.75614 7.3344 2.76542C7.34423 2.77471 7.35749 2.78005 7.37139 2.78033C7.80035 2.96344 8.22815 2.98836 8.65252 2.76624C8.96106 2.31549 8.94041 1.72822 8.5711 1.60036C8.19748 1.46296 7.78221 1.46684 7.41154 1.6112C7.05599 1.76072 7.14429 2.12154 7.17067 2.42276C7.15336 2.48246 7.15866 2.54599 7.18568 2.60238C7.2127 2.65877 7.25973 2.70447 7.31863 2.73157V2.73049ZM5.28394 21.0421C5.33211 21.1505 5.4445 21.1288 5.53397 21.157L5.51907 21.1451C6.47104 21.6034 7.49296 21.5655 8.5149 21.5222C11.3066 21.3228 13.347 20.015 14.6947 17.7298C16.0584 15.4175 15.4024 12.8907 15.5251 10.4333C15.4208 10.4851 15.3308 10.5594 15.2624 10.65C13.4973 12.6166 11.4775 14.3015 9.10786 15.5952C7.06055 16.7113 4.85152 17.4047 2.54615 17.849C2.20206 17.9129 1.8293 17.849 1.45998 18.0386C2.41081 19.4472 3.61969 20.5145 5.29654 21.0606L5.28394 21.0421ZM5.67274 16.6138C5.80464 16.5585 6.01683 16.6268 6.05124 16.3971L5.66815 16.319C4.00756 15.7158 2.49112 14.8056 1.20766 13.6416C0.97827 13.3523 0.761495 13.0522 0.404793 12.803C0.404793 13.3447 0.434608 13.8107 0.399052 14.2733C0.316472 15.3287 0.604372 16.3006 1.0448 17.253C1.1595 17.4914 1.28795 17.5857 1.55519 17.5499C2.9625 17.3614 4.35719 17.1284 5.67159 16.5899L5.67274 16.6138ZM11.7126 2.09445C11.6771 1.79215 11.6369 1.38149 11.575 0.973C11.5383 0.730289 11.4327 0.585096 11.1162 0.69995C10.5446 0.891885 9.99195 1.13082 9.46458 1.414C9.36938 1.46817 9.26158 1.50176 9.24667 1.6307C9.11821 2.73699 9.29598 3.02412 10.4188 3.47271C10.662 3.57131 10.9281 3.62332 11.1621 3.736C11.4282 3.86386 11.4947 3.736 11.5463 3.53446C11.6498 3.05978 11.7055 2.5769 11.7126 2.09229V2.09445ZM6.12693 0.606766C7.0594 1.31323 8.9106 1.3219 9.8144 0.617602C8.60216 0.34948 7.34126 0.345032 6.12693 0.604599V0.606766Z" fill="#E7D5C6"/>
<path d="M6.78416 3.43369C6.98373 3.28633 7.12825 3.19314 7.42302 3.37734C7.59039 3.4752 7.78362 3.52641 7.98045 3.52507C8.17728 3.52373 8.3697 3.46989 8.53556 3.36976C8.77183 3.23107 8.94504 3.26141 9.16067 3.3871C9.74639 3.72253 10.3715 3.99234 11.0233 4.19107C11.497 4.34493 11.8445 4.27017 11.9936 3.76308C12.0854 3.45319 12.1726 3.31558 12.5338 3.62005C13.2518 4.2225 13.6395 4.98747 13.8574 5.82504C14.2222 7.23363 14.096 8.6108 13.284 9.87203C12.1737 11.5981 10.5381 12.5018 8.39219 12.5809C7.2762 12.622 6.19809 12.5148 5.17386 12.0488C1.76511 10.5016 1.06547 6.4589 2.98891 4.12064C3.02311 4.11437 3.05367 4.09644 3.07482 4.07028C3.09596 4.04412 3.10621 4.01153 3.1036 3.9787L3.08409 3.99279C3.22401 3.99279 3.24238 3.90177 3.24697 3.79992L3.36167 3.67423L3.35019 3.68615L3.47177 3.56046L3.9999 2.74999C4.22126 2.72182 3.8124 3.69807 3.97527 3.78583L3.96267 3.77175C3.95579 3.87035 3.96267 3.96462 4.07736 4.00904L4.06933 3.99712C4.06255 4.02659 4.06331 4.05715 4.07154 4.08628C4.07977 4.11541 4.09526 4.14227 4.11668 4.16462C4.1381 4.18698 4.16483 4.20418 4.19469 4.21481C4.22456 4.22544 4.25668 4.22919 4.28839 4.22575L4.52811 4.27126C4.72768 4.59632 4.83892 4.32001 4.97541 4.21274H5.00982C5.12452 4.21274 5.24726 4.23008 5.31149 4.10439L5.3023 4.10981C5.53169 4.10981 5.78632 4.1759 5.88267 3.8801L5.86889 3.88985C5.99506 3.87793 6.18088 3.96787 6.174 3.73057H6.19119C6.26574 3.76308 6.31278 3.73057 6.3426 3.66989H6.33456C6.43779 3.66989 6.53414 3.66231 6.57199 3.54962L6.55936 3.55938C6.66259 3.58321 6.75663 3.55721 6.78416 3.43369ZM6.07764 6.72545C5.66589 6.73195 5.25757 7.11227 5.33098 7.51751C5.39177 7.84907 5.35621 8.32583 5.93657 8.3345C6.48252 8.34316 6.85413 7.99102 6.8461 7.50126C6.83578 7.05051 6.51005 6.71678 6.07764 6.72545ZM10.6563 7.53593C10.6723 7.11444 10.3305 6.7352 9.92109 6.7222C9.51162 6.7092 9.13772 7.05593 9.11822 7.48067C9.09987 7.85557 9.56095 8.43743 9.87178 8.43201C10.1826 8.42659 10.6437 7.88916 10.6563 7.53376V7.53593ZM8.09859 10.4095C8.43538 10.2611 8.76348 10.0958 9.08151 9.91428C9.1962 9.84385 9.21801 9.6369 9.26962 9.48954C9.28916 9.43795 9.28623 9.38115 9.2615 9.33159C9.23678 9.28203 9.19226 9.24376 9.13771 9.22516C9.02301 9.17532 8.93242 9.21757 8.83837 9.30534C8.0355 10.0497 7.94375 10.0497 7.14661 9.30534C7.03192 9.19698 6.91722 9.17857 6.80253 9.2555C6.68783 9.33243 6.6947 9.42453 6.73485 9.54263C6.84839 9.88828 7.61458 10.4257 8.09859 10.4095ZM5.3046 9.45053C5.52023 9.43211 5.84251 9.49821 5.86889 9.13197C5.89527 8.76574 5.5615 8.7354 5.32064 8.72998C5.05111 8.72348 4.6818 8.78416 4.67148 9.10813C4.66116 9.43211 4.99263 9.44945 5.3046 9.45053ZM10.6953 9.45053C10.9453 9.43644 11.2688 9.47979 11.2688 9.10488C11.2688 8.75165 10.9247 8.72565 10.6849 8.7289C10.4452 8.73215 10.1115 8.77224 10.1287 9.13197C10.1482 9.4657 10.4395 9.43319 10.6953 9.45053Z" fill="#E7D5C6"/>
<path d="M2.5519 17.8523C4.85727 17.408 7.0663 16.7146 9.11361 15.5985C11.4855 14.3048 13.503 12.6199 15.2682 10.6533C15.3366 10.5626 15.4265 10.4884 15.5308 10.4366C15.4081 12.894 16.0641 15.4208 14.7004 17.7331C13.3527 20.0172 11.3123 21.325 8.52065 21.5254C8.45642 21.3347 8.78673 21.0779 8.39332 20.9371C7.66042 20.6749 6.93555 20.5763 6.22444 20.9815C6.01631 21.1068 5.77093 21.1653 5.52479 21.1484L5.53972 21.1603C5.49728 21.0411 5.39521 21.0389 5.28969 21.0454L5.30229 21.0638C5.27361 20.8677 5.09126 20.8168 4.9456 20.7442C3.91334 20.2339 3.14487 19.4537 2.43146 18.6032C2.14128 18.2651 2.01856 18.0354 2.5519 17.8523Z" fill="#DC968F"/>
<path d="M3.77582 2.17466C3.89051 2.48455 3.71618 2.66333 3.48908 2.86053C1.60808 4.501 1.0174 6.53912 1.71934 8.81995C2.4293 11.1322 4.15775 12.5527 6.66843 12.9374C11.0555 13.6167 13.814 11.1506 14.4012 8.31611C14.8153 6.32024 14.2567 4.54975 12.7473 3.10757C12.2954 2.67416 12.0729 2.27326 12.2243 1.67948C12.3745 1.63614 12.464 1.78134 12.5684 1.86043C14.5583 3.3362 15.5505 5.27572 15.5688 7.66166C15.5688 7.9683 15.5241 8.28252 15.5803 8.58049C15.7546 9.51016 15.2981 10.1635 14.5985 10.727C14.2085 10.5991 14.2544 10.857 14.2613 11.0726L14.2681 11.0596L14.142 11.1831L14.1569 11.1701L14.0296 11.2947L14.0445 11.2796L13.9172 11.4053L13.9332 11.3901C13.899 11.392 13.8668 11.406 13.8431 11.4292C13.8193 11.4525 13.8056 11.4834 13.8048 11.5158L13.8208 11.5006C13.7863 11.5012 13.7533 11.5145 13.7291 11.5379C13.7048 11.5612 13.6912 11.5925 13.6913 11.6252L13.7073 11.6111C13.6901 11.6107 13.6729 11.6136 13.6569 11.6196C13.6408 11.6257 13.6263 11.6348 13.6142 11.6464C13.602 11.6579 13.5925 11.6717 13.5862 11.6869C13.58 11.7021 13.577 11.7184 13.5777 11.7346L13.5915 11.7184C13.5742 11.7182 13.5572 11.7214 13.5413 11.7276C13.5254 11.7339 13.511 11.7431 13.499 11.7547C13.487 11.7664 13.4776 11.7802 13.4714 11.7954C13.4652 11.8106 13.4624 11.8268 13.463 11.843L13.4768 11.8267C13.4596 11.8266 13.4425 11.8297 13.4266 11.836C13.4107 11.8422 13.3963 11.8515 13.3843 11.8631C13.3723 11.8747 13.3629 11.8886 13.3567 11.9037C13.3506 11.9189 13.3477 11.9351 13.3483 11.9514L13.3621 11.9351C13.3276 11.9351 13.2945 11.948 13.27 11.9709C13.2455 11.9938 13.2316 12.025 13.2313 12.0575L13.2474 12.0434C13.2302 12.043 13.2132 12.0459 13.1972 12.0519C13.1813 12.0579 13.1668 12.0669 13.1547 12.0783C13.1425 12.0898 13.133 12.1035 13.1267 12.1185C13.1203 12.1336 13.1173 12.1497 13.1178 12.1659L13.1315 12.1507C13.097 12.1507 13.064 12.1636 13.0395 12.1865C13.015 12.2094 13.0011 12.2406 13.0008 12.2732L13.0145 12.2558C12.9805 12.2579 12.9485 12.2718 12.9246 12.2948C12.9007 12.3177 12.8866 12.3482 12.8849 12.3804L12.8998 12.3642C12.8657 12.3658 12.8334 12.3793 12.8092 12.4021C12.7851 12.4249 12.7708 12.4554 12.7691 12.4877L12.784 12.4714L12.6521 12.5928L12.667 12.5776L12.5351 12.699L12.5489 12.6903C12.3803 12.6708 12.3011 12.7467 12.3034 12.907C12.0442 12.8973 11.8309 12.9395 11.8584 13.257V13.2483C11.5028 13.205 11.3056 13.3491 11.2769 13.6904L11.2884 13.672L11.1553 13.7489C10.8216 14.2159 10.2217 14.3178 9.77898 14.6385L9.66429 14.7685L9.67577 14.7588C9.40165 14.7479 9.10229 14.6981 9.10229 15.1001V15.0882C8.82932 15.0719 8.57238 15.0806 8.51274 15.4132L8.52078 15.4035C8.41526 15.4035 8.31202 15.4035 8.27991 15.527L8.29368 15.5151C8.18587 15.5075 8.08493 15.5151 8.05166 15.6364L8.06659 15.6245C7.95763 15.6169 7.85554 15.6191 7.82342 15.7459L7.83605 15.7329C7.72938 15.7253 7.62614 15.7253 7.59288 15.8521L7.60207 15.8391C6.81755 16.0644 6.09038 15.8391 5.36666 15.5844C5.03863 15.4674 4.75074 15.2193 4.35963 15.2973L4.36652 15.3081C4.34128 14.9191 4.05912 14.9516 3.77697 14.9831V14.995C3.69439 14.4933 3.26429 14.4868 2.87203 14.4261L2.88349 14.4348L2.74586 14.321V14.3395C2.5784 13.8367 1.94301 13.2938 1.47161 13.2559H1.49224C1.49196 13.2233 1.47829 13.1921 1.45411 13.1689C1.42993 13.1456 1.39711 13.1322 1.36262 13.1313L1.37985 13.1454C1.37856 13.1134 1.36489 13.0829 1.34143 13.0597C1.31797 13.0366 1.28634 13.0223 1.25252 13.0197L1.26745 13.0338C1.22616 12.9915 1.18486 12.9504 1.14242 12.9092L1.1516 12.92C1.00135 12.1724 1.03691 11.4172 1.03691 10.663C1.03691 9.79621 1.08163 8.92938 1.02772 8.06256C0.916657 6.56743 1.28991 5.07577 2.09784 3.78587C2.53139 3.1325 2.94313 2.45854 3.77582 2.17466Z" fill="#DC968F"/>
<path d="M1.20785 13.6503C2.49131 14.8143 4.00775 15.7245 5.66834 16.3277C5.66834 16.4242 5.66834 16.5206 5.66834 16.617V16.5986C5.44073 16.5747 5.21037 16.6007 4.99509 16.6745C4.23883 16.9165 3.46225 17.0978 2.67366 17.2162C1.69301 17.3874 1.7194 17.3766 1.33058 16.4794C1.19574 16.1635 1.11819 15.8283 1.10119 15.488C1.07022 14.8823 0.886701 14.2484 1.20785 13.6503Z" fill="#DC968F"/>
<path d="M11.7128 2.09228C11.7058 2.57762 11.6501 3.06124 11.5464 3.53663C11.4948 3.74142 11.4318 3.86169 11.1622 3.73817C10.9328 3.62981 10.6622 3.57347 10.419 3.47487C9.29614 3.02412 9.11837 2.73699 9.24682 1.63287C9.26173 1.50176 9.36954 1.46817 9.46473 1.41616C9.99211 1.13298 10.5448 0.894052 11.1163 0.702116C11.4329 0.587262 11.5384 0.732454 11.5751 0.975165C11.6371 1.37932 11.6772 1.78998 11.7128 2.09228Z" fill="#DC968F"/>
<path d="M3.77579 2.17462C2.9431 2.45417 2.53135 3.12813 2.12074 3.78692C1.31281 5.07682 0.939562 6.56848 1.05063 8.06361C1.10454 8.93044 1.05752 9.79726 1.05981 10.6641C1.05981 11.4226 1.02196 12.1734 1.17451 12.9211C1.01132 12.819 0.887717 12.6695 0.822386 12.4952L0.723764 12.3717L0.716875 12.3598C0.633391 12.0849 0.594716 11.7995 0.60218 11.5136C0.635441 9.57947 0.532227 7.6432 0.699682 5.71018C1.15846 3.97653 2.21709 2.66113 3.75515 1.62744C3.85838 1.83981 3.78153 2.01101 3.77579 2.17462Z" fill="#DC968F"/>
<path d="M6.58003 2.95482C6.33316 3.16941 6.02966 3.31725 5.70144 3.38281C5.59478 3.38281 5.47207 3.35355 5.42733 3.49116L4.49829 3.59952C4.49829 2.93314 4.4983 2.26678 4.51092 1.6004C4.51092 1.43462 4.45356 1.22658 4.78159 1.24609C6.02259 1.31543 6.52842 1.79002 6.58003 2.95482Z" fill="#DC968F"/>
<path d="M1.20767 13.6503C0.886521 14.2484 1.07004 14.8823 1.10331 15.4923C1.1203 15.8326 1.19785 16.1678 1.3327 16.4837C1.72151 17.3809 1.69513 17.3917 2.67577 17.2205C3.46436 17.1021 4.24094 16.9208 4.99721 16.6788C5.21248 16.605 5.44284 16.579 5.67045 16.6029C4.35604 17.1447 2.96136 17.3744 1.55405 17.5629C1.28681 17.5987 1.15377 17.5044 1.04366 17.266C0.603231 16.3136 0.315332 15.3417 0.397912 14.2863C0.433468 13.8237 0.403653 13.3567 0.403653 12.816C0.761502 13.0609 0.979424 13.361 1.20767 13.6503Z" fill="#DC968F"/>
<path d="M6.12695 0.604612C7.34111 0.344333 8.60201 0.348039 9.81442 0.615448C8.91063 1.31974 7.05943 1.30782 6.12695 0.604612Z" fill="#DC968F"/>
<path d="M7.17075 2.42388C7.14437 2.12265 7.05606 1.76184 7.41162 1.61231C7.78228 1.46795 8.19756 1.46407 8.57117 1.60148C8.94049 1.72933 8.96113 2.31661 8.6526 2.76627C8.22787 2.70086 7.79433 2.706 7.37146 2.78144C7.36459 2.78144 7.35778 2.78015 7.35144 2.77763C7.34511 2.77511 7.33937 2.77142 7.33456 2.76678C7.32975 2.76214 7.32597 2.75663 7.32344 2.75059C7.32092 2.74455 7.3197 2.7381 7.31986 2.7316C7.32343 2.67271 7.31171 2.61389 7.28572 2.56026C7.25974 2.50663 7.22026 2.45981 7.17075 2.42388Z" fill="#DC968F"/>
<path d="M5.51904 21.1483C5.76519 21.1653 6.01053 21.1068 6.21867 20.9815C6.92978 20.5762 7.65464 20.6748 8.38755 20.937C8.78095 21.0779 8.45064 21.3347 8.51487 21.5254C7.49294 21.5698 6.47101 21.6067 5.51904 21.1483Z" fill="#DC968F"/>
<path d="M6.58011 2.95481C6.52849 1.79002 6.02267 1.31543 4.78511 1.23958C4.45708 1.22008 4.51674 1.42812 4.51444 1.5939C4.50412 2.26027 4.50526 2.92664 4.50181 3.59301C4.14855 2.70343 4.26326 1.80085 4.42498 0.899356C4.46168 0.693486 4.56261 0.63064 4.82641 0.702153C5.43888 0.867933 5.9034 1.30568 6.51702 1.46062C6.77738 1.52564 6.63172 1.74776 6.63172 1.88537C6.62025 2.24076 6.83817 2.60808 6.58011 2.95481Z" fill="#DC968F"/>
<path d="M2.55186 17.8522C2.02426 18.0354 2.14698 18.2651 2.43716 18.6031C3.15057 19.4537 3.91672 20.2338 4.95127 20.7442C5.09694 20.8168 5.27931 20.8677 5.30799 21.0638C3.63114 20.5221 2.42226 19.4483 1.47144 18.0419C1.82928 17.8522 2.19974 17.9162 2.55186 17.8522Z" fill="#DC968F"/>
<path d="M0.696285 5.71344C0.52883 7.64646 0.632045 9.58273 0.598783 11.5168C0.591319 11.8028 0.629994 12.0881 0.713479 12.3631C0.42674 12.207 0.393473 11.9481 0.392326 11.6718C0.386591 10.04 0.361358 8.4071 0.392326 6.7753C0.396914 6.4199 0.589619 6.06775 0.696285 5.71344Z" fill="#DC968F"/>
<path d="M4.37451 15.2983C4.76562 15.2203 5.05351 15.4685 5.38154 15.5855C6.10527 15.8423 6.83244 16.0655 7.61695 15.8401C7.17193 16.15 6.6994 16.2443 6.16721 16.0406C5.56162 15.8109 4.92276 15.6537 4.37451 15.2983Z" fill="#DC968F"/>
<path d="M1.49219 13.2581C1.96014 13.2971 2.59901 13.8399 2.76647 14.3416C2.28065 14.0502 1.84992 13.6839 1.49219 13.2581Z" fill="#DC968F"/>
<path d="M7.36914 2.78144C7.792 2.706 8.22555 2.70086 8.65028 2.76627C8.2282 2.98948 7.8004 2.96456 7.36914 2.78144Z" fill="#DC968F"/>
<path d="M2.88696 14.4294C3.27922 14.4901 3.70934 14.4966 3.79192 14.9982C3.4593 14.8568 3.15355 14.6646 2.88696 14.4294Z" fill="#DC968F"/>
<path d="M4.50175 3.59731L5.4308 3.48895C5.23467 3.66882 4.95824 3.6764 4.7254 3.77717C4.55795 3.84652 4.47767 3.76525 4.50175 3.59731Z" fill="#DC968F"/>
<path d="M11.2883 13.6926C11.317 13.3512 11.5177 13.2071 11.8698 13.2505C11.714 13.4376 11.5151 13.5888 11.2883 13.6926Z" fill="#DC968F"/>
<path d="M3.96615 3.79992C3.80329 3.70782 3.67253 3.55071 3.45117 3.58321L3.78378 3.22998C3.97188 3.40226 3.90881 3.61572 3.96615 3.79992Z" fill="#E9E9E9"/>
<path d="M3.79175 14.9863C4.0739 14.9527 4.35604 14.9202 4.38127 15.3114C4.15898 15.2515 3.95625 15.1397 3.79175 14.9863Z" fill="#DC968F"/>
<path d="M8.52759 15.4143C8.58723 15.0827 8.84413 15.0741 9.11711 15.0892C8.94938 15.2386 8.74775 15.3498 8.52759 15.4143Z" fill="#DC968F"/>
<path d="M9.11475 15.1023C9.11475 14.7003 9.41181 14.7501 9.68822 14.7609L9.11475 15.1023Z" fill="#DC968F"/>
<path d="M14.2636 11.0824C14.2636 10.8657 14.2109 10.6089 14.6008 10.7367L14.2636 11.0824Z" fill="#DC968F"/>
<path d="M11.8652 13.2592C11.8377 12.9417 12.051 12.8994 12.3102 12.9092C12.1934 13.0576 12.0408 13.1775 11.8652 13.2592Z" fill="#DC968F"/>
<path d="M5.67285 16.617C5.67285 16.5206 5.67285 16.4241 5.67285 16.3277L6.05594 16.4057C6.01351 16.63 5.80475 16.5617 5.67285 16.617Z" fill="#FBD1C5"/>
<path d="M5.87822 3.88989C5.78187 4.1857 5.5261 4.12177 5.29785 4.1196L5.87822 3.88989Z" fill="#E9E9E9"/>
<path d="M4.96048 4.22253C4.824 4.33089 4.71275 4.60719 4.51318 4.28105L4.96048 4.22253Z" fill="#E9E9E9"/>
<path d="M7.17068 2.42383C7.2202 2.45976 7.25967 2.50658 7.28566 2.56021C7.31164 2.61384 7.32336 2.67267 7.31979 2.73155C7.26077 2.70483 7.21352 2.6594 7.18628 2.60318C7.15904 2.54696 7.15352 2.4835 7.17068 2.42383Z" fill="#DC968F"/>
<path d="M11.4981 21.2328C11.474 21.3791 11.4488 21.5254 11.2595 21.3412L11.4981 21.2328Z" fill="#FDFDFD"/>
<path d="M4.27809 4.23332C4.24639 4.23677 4.21427 4.23302 4.1844 4.22239C4.15453 4.21176 4.12778 4.19455 4.10636 4.1722C4.08494 4.14985 4.06948 4.12299 4.06125 4.09386C4.05302 4.06473 4.05223 4.03416 4.05901 4.0047L4.27809 4.23332Z" fill="#E9E9E9"/>
<path d="M6.16372 3.74036C6.1706 3.97765 5.98481 3.88772 5.85864 3.89964L6.16372 3.74036Z" fill="#E9E9E9"/>
<path d="M5.42749 3.48898C5.47566 3.35354 5.59493 3.38063 5.7016 3.38063C5.63852 3.48573 5.53416 3.48573 5.42749 3.48898Z" fill="#DC968F"/>
<path d="M12.301 12.9135C12.301 12.7564 12.3779 12.6805 12.5465 12.6968L12.301 12.9135Z" fill="#DC968F"/>
<path d="M7.60767 15.8531C7.64093 15.7264 7.74414 15.7264 7.85081 15.734C7.80263 15.8336 7.70172 15.8369 7.60767 15.8531Z" fill="#DC968F"/>
<path d="M5.28394 21.0454C5.38946 21.0389 5.49153 21.0454 5.53396 21.1603C5.4445 21.1364 5.33211 21.1516 5.28394 21.0454Z" fill="#FBD1C5"/>
<path d="M5.30456 4.11414C5.24034 4.23983 5.11992 4.22249 5.00293 4.22249C5.07519 4.12497 5.18987 4.12497 5.30456 4.11414Z" fill="#E9E9E9"/>
<path d="M6.78418 3.43372C6.75665 3.55724 6.66262 3.58108 6.54907 3.57674L6.78418 3.43372Z" fill="#E9E9E9"/>
<path d="M6.56628 3.56696C6.52844 3.67531 6.43208 3.69048 6.32886 3.68723L6.56628 3.56696Z" fill="#E9E9E9"/>
<path d="M3.24025 3.79993C3.24025 3.90178 3.21732 3.9928 3.07739 3.9928C3.13359 3.92887 3.18864 3.86494 3.24025 3.79993Z" fill="#E9E9E9"/>
<path d="M4.0671 4.01665C3.95241 3.97223 3.94667 3.87796 3.95241 3.77936L4.0671 4.01665Z" fill="#E9E9E9"/>
<path d="M8.29468 15.5281C8.32679 15.4035 8.43 15.4024 8.53552 15.4046C8.50963 15.4426 8.47399 15.4739 8.43189 15.4955C8.38978 15.5171 8.34259 15.5283 8.29468 15.5281Z" fill="#DC968F"/>
<path d="M8.06665 15.6375C8.09991 15.514 8.20083 15.5086 8.30864 15.5161C8.26162 15.6158 8.15955 15.6202 8.06665 15.6375Z" fill="#DC968F"/>
<path d="M7.83838 15.7469C7.87049 15.6202 7.97256 15.618 8.08152 15.6256C8.0322 15.7188 7.93358 15.7329 7.83838 15.7469Z" fill="#DC968F"/>
<path d="M6.33695 3.68182C6.30713 3.74792 6.2601 3.77501 6.18555 3.7425L6.33695 3.68182Z" fill="#E9E9E9"/>
<path d="M11.1667 13.7511L11.2998 13.6741C11.2979 13.6882 11.2927 13.7017 11.2846 13.7135C11.2765 13.7254 11.2656 13.7355 11.2529 13.7428C11.2401 13.7502 11.2257 13.7548 11.2108 13.7562C11.1959 13.7577 11.1808 13.7559 11.1667 13.7511Z" fill="#DC968F"/>
<path d="M1.3833 13.1335C1.41779 13.1343 1.45057 13.1478 1.47475 13.171C1.49894 13.1943 1.51261 13.2255 1.51289 13.2581C1.46931 13.2169 1.42574 13.1757 1.3833 13.1335Z" fill="#DC968F"/>
<path d="M1.27319 13.0219C1.30701 13.0245 1.33861 13.0387 1.36207 13.0619C1.38553 13.085 1.3992 13.1155 1.40049 13.1475L1.27319 13.0219Z" fill="#DC968F"/>
<path d="M12.7712 12.4974C12.7729 12.4652 12.7872 12.4347 12.8114 12.4118C12.8355 12.389 12.8678 12.3755 12.902 12.3739L12.7712 12.4974Z" fill="#DC968F"/>
<path d="M12.8872 12.3902C12.8888 12.358 12.9029 12.3275 12.9268 12.3045C12.9507 12.2815 12.9828 12.2677 13.0168 12.2656L12.8872 12.3902Z" fill="#DC968F"/>
<path d="M13.0029 12.2829C13.0032 12.2503 13.0171 12.2192 13.0416 12.1963C13.0661 12.1733 13.0992 12.1605 13.1337 12.1605C13.1315 12.1924 13.117 12.2226 13.0929 12.2451C13.0688 12.2677 13.0368 12.2811 13.0029 12.2829Z" fill="#DC968F"/>
<path d="M13.1199 12.1756C13.1194 12.1594 13.1225 12.1433 13.1288 12.1283C13.1352 12.1132 13.1447 12.0995 13.1568 12.0881C13.169 12.0766 13.1835 12.0676 13.1994 12.0616C13.2153 12.0556 13.2324 12.0528 13.2495 12.0532C13.2481 12.0853 13.234 12.1156 13.21 12.1383C13.186 12.161 13.1538 12.1743 13.1199 12.1756Z" fill="#DC968F"/>
<path d="M13.2336 12.0673C13.2339 12.0347 13.2479 12.0036 13.2724 11.9806C13.2969 11.9577 13.3299 11.9448 13.3644 11.9448C13.3635 11.9772 13.3494 12.008 13.3251 12.0309C13.3007 12.0537 13.2679 12.0667 13.2336 12.0673Z" fill="#DC968F"/>
<path d="M13.3504 11.9611C13.3498 11.9449 13.3527 11.9287 13.3589 11.9135C13.3651 11.8983 13.3745 11.8845 13.3865 11.8728C13.3985 11.8612 13.4129 11.852 13.4287 11.8457C13.4446 11.8395 13.4617 11.8363 13.4789 11.8365C13.4783 11.8688 13.4647 11.8997 13.4408 11.9229C13.417 11.9461 13.3846 11.9597 13.3504 11.9611Z" fill="#DC968F"/>
<path d="M13.4652 11.8528C13.4645 11.8365 13.4674 11.8203 13.4736 11.8051C13.4798 11.79 13.4892 11.7762 13.5012 11.7645C13.5132 11.7529 13.5276 11.7436 13.5435 11.7374C13.5594 11.7311 13.5764 11.728 13.5936 11.7282C13.5928 11.7604 13.5791 11.7912 13.5553 11.8143C13.5315 11.8374 13.4993 11.8511 13.4652 11.8528Z" fill="#DC968F"/>
<path d="M13.5799 11.7444C13.5793 11.7281 13.5822 11.7118 13.5885 11.6966C13.5948 11.6815 13.6043 11.6676 13.6164 11.6561C13.6286 11.6445 13.6431 11.6354 13.6591 11.6293C13.6751 11.6233 13.6923 11.6204 13.7095 11.6208C13.7081 11.653 13.6941 11.6835 13.6701 11.7063C13.6461 11.7292 13.6139 11.7428 13.5799 11.7444Z" fill="#DC968F"/>
<path d="M13.6934 11.6349C13.6934 11.6022 13.7069 11.5709 13.7312 11.5476C13.7554 11.5243 13.7884 11.5109 13.823 11.5103C13.8211 11.5424 13.8069 11.5728 13.7831 11.5957C13.7592 11.6187 13.7273 11.6326 13.6934 11.6349Z" fill="#DC968F"/>
<path d="M13.8071 11.5255C13.8079 11.4932 13.8216 11.4623 13.8454 11.439C13.8692 11.4157 13.9014 11.4017 13.9356 11.3998L13.8071 11.5255Z" fill="#DC968F"/>
<path d="M3.09907 3.9798C3.10168 4.01262 3.09143 4.04521 3.07028 4.07137C3.04914 4.09754 3.01858 4.11546 2.98438 4.12174L3.09907 3.9798Z" fill="#E9E9E9"/>
<path d="M6.07779 6.7255C6.51019 6.719 6.83592 7.05056 6.84624 7.5013C6.85657 7.99106 6.48267 8.34321 5.93672 8.33454C5.35636 8.32587 5.39191 7.84912 5.33112 7.51756C5.25772 7.11015 5.66603 6.7255 6.07779 6.7255Z" fill="#575757"/>
<path d="M10.6564 7.53379C10.6438 7.88918 10.1747 8.42228 9.87078 8.4277C9.56684 8.43312 9.09887 7.85126 9.11722 7.47636C9.13787 7.05378 9.50833 6.70597 9.92009 6.71789C10.3318 6.72981 10.6725 7.11229 10.6564 7.53379Z" fill="#575757"/>
<path d="M8.09873 10.4095C7.61472 10.4246 6.84853 9.88722 6.72925 9.54266C6.6891 9.42455 6.68911 9.32595 6.79693 9.25552C6.90474 9.18509 7.02632 9.19484 7.14101 9.30536C7.94388 10.0541 8.03449 10.0541 8.83277 9.30536C8.92682 9.2176 9.01744 9.17534 9.13214 9.22518C9.18669 9.24378 9.23121 9.28205 9.25593 9.33161C9.28066 9.38117 9.28356 9.43798 9.26403 9.48956C9.21241 9.63692 9.18946 9.84388 9.07591 9.91431C8.75975 10.0957 8.43357 10.261 8.09873 10.4095Z" fill="#DC968F"/>
<path d="M5.30474 9.45055C4.98933 9.45055 4.6613 9.41912 4.67162 9.10815C4.68195 8.79718 5.05126 8.7235 5.32079 8.73C5.56165 8.73542 5.89427 8.77767 5.86904 9.13199C5.8438 9.4863 5.52381 9.43429 5.30474 9.45055Z" fill="#DC968F"/>
<path d="M10.6953 9.45163C10.435 9.43862 10.1436 9.46571 10.1219 9.13307C10.1001 8.77334 10.4373 8.73433 10.6781 8.73C10.919 8.72566 11.2596 8.75275 11.2619 9.10598C11.2688 9.48088 10.95 9.43429 10.6953 9.45163Z" fill="#DC968F"/>
<path d="M4.00003 2.75L2.85718 3.85L3.42861 5.5L6.85718 3.3L4.57146 3.85L4.00003 2.75Z" fill="#E7D5C6"/>
</g>
<defs>
<clipPath id="clip0_177_1474">
<rect width="16" height="22" fill="white"/>
</clipPath>
</defs>
</svg>
