<svg width="27" height="15" viewBox="0 0 27 15" fill="none" xmlns="http://www.w3.org/2000/svg">
<g clip-path="url(#clip0_325_10)">
<path opacity="0.5" d="M25.5359 1.8938C25.5359 4.70767 25.5359 7.5217 25.5359 10.3359C25.5302 10.7999 25.4484 11.2602 25.2936 11.7002C25.1651 12.0878 24.9826 12.4572 24.7508 12.7984C24.5914 13.0312 24.4134 13.2519 24.2182 13.4585C23.9279 13.7604 23.5996 14.0271 23.2409 14.2526C23.024 14.3826 22.7966 14.4959 22.5608 14.5912C22.2359 14.7294 21.8967 14.8347 21.5488 14.9055C21.2882 14.9639 21.0218 14.9952 20.7542 14.9989C15.9454 15.001 11.1365 15.001 6.32743 14.9989C5.86507 14.9958 5.40601 14.9244 4.96661 14.7872C4.64568 14.6874 4.33595 14.5575 4.042 14.3993C3.67833 14.2049 3.33962 13.9707 3.03271 13.7017C2.81159 13.5016 2.61128 13.2815 2.43459 13.0447C2.21954 12.7696 2.03851 12.4718 1.89507 12.1571C1.77856 11.8956 1.68295 11.6261 1.60905 11.3509C1.46844 10.8396 1.46312 10.3207 1.46365 9.79872C1.46578 7.16358 1.46578 4.52861 1.46365 1.8938C1.49934 1.8938 1.53449 1.88974 1.57017 1.88974H10.8818C10.91 1.88974 10.9382 1.88974 10.9664 1.88974C10.9961 1.88867 11.0252 1.89702 11.0493 1.91347C11.0734 1.92992 11.0911 1.95355 11.0996 1.98062C11.2098 2.24008 11.3291 2.49598 11.4426 2.7539C11.515 2.91943 11.6024 3.023 11.8516 3.02148C12.8471 3.01691 13.843 3.02148 14.8385 3.02148C15.0441 3.02148 15.1394 2.957 15.2198 2.77523C15.3306 2.52136 15.4505 2.27511 15.5543 2.02074C15.5959 1.91919 15.6576 1.89989 15.7604 1.89989C18.7015 1.90226 21.6424 1.90226 24.5831 1.89989C24.8989 1.89837 25.2174 1.88669 25.5359 1.8938ZM11.9065 9.67534C11.8447 9.73322 11.8277 9.81243 11.8 9.88656C11.6801 10.2262 11.6636 10.5771 11.67 10.932C11.678 11.4052 11.8 11.8398 12.1126 12.216C12.2887 12.54 12.5133 12.8378 12.7794 13.1C13.6849 13.9632 14.7874 14.3617 16.0651 14.2906C16.9362 14.2492 17.7645 13.9179 18.4059 13.3544C18.4709 13.2985 18.5177 13.2229 18.603 13.1884C18.6382 13.1942 18.6738 13.1979 18.7095 13.1995C20.0943 13.1995 21.479 13.1934 22.8638 13.1995C23.1262 13.1978 23.3791 13.1063 23.5767 12.9417C23.7742 12.7772 23.9032 12.5505 23.9402 12.3029C23.9935 11.8941 23.9594 11.4814 23.953 11.0701C23.953 10.845 23.953 10.6204 23.953 10.3963C23.953 10.2374 23.9562 10.079 23.9604 9.92058C23.9809 9.35624 23.9054 8.79246 23.7368 8.25115C23.4984 7.49517 23.0791 6.80233 22.5118 6.22732C22.1388 5.84713 21.7055 5.5252 21.2276 5.27328C20.5206 4.8964 19.7325 4.67862 18.9236 4.63658C18.0827 4.58617 17.2414 4.72896 16.4704 5.05293C15.6026 5.41263 14.8521 5.98797 14.2974 6.7188C14.082 6.99052 13.9021 7.28616 13.7616 7.59922C13.6928 7.61495 13.6231 7.62714 13.556 7.64999C13.0527 7.80231 12.715 8.13944 12.4402 8.54919C12.2048 8.89901 12.0668 9.292 11.9065 9.67534ZM12.3544 5.01078C12.2905 5.01078 12.2266 5.00672 12.1632 5.01078C11.5938 5.05293 11.0373 5.1692 10.4818 5.28648C9.6461 5.46267 8.81524 5.66018 7.97851 5.83484C7.0768 6.0227 6.19374 6.25676 5.36873 6.66244C4.76316 6.96048 4.21137 7.32555 3.75971 7.81856C3.21047 8.39934 2.90881 9.15488 2.91394 9.93682C2.91394 10.5182 3.06733 11.0716 3.29582 11.6073C3.53602 12.1693 3.82097 12.7065 4.26782 13.1503C4.72374 13.6032 5.2718 13.856 5.94075 13.8362C6.47336 13.8205 6.9527 13.6443 7.40276 13.3925C8.26558 12.9101 8.9553 12.2435 9.56727 11.5017C10.1643 10.7776 10.7624 10.0546 11.3781 9.34633C11.8798 8.77056 12.3901 8.20037 12.8641 7.60429C13.1065 7.29965 13.3435 6.99146 13.507 6.6396C13.6364 6.3639 13.7424 6.08109 13.6055 5.77645C13.5903 5.7403 13.5877 5.70047 13.5981 5.66281C13.6084 5.62515 13.6312 5.59166 13.663 5.56726C13.8079 5.42916 13.9426 5.28141 14.0779 5.13467C14.1381 5.06917 14.1844 5.05293 14.2734 5.10573C14.5008 5.24383 14.8486 5.18646 15.0329 4.99403C15.2172 4.8016 15.2561 4.47106 15.0968 4.26492C14.9828 4.11768 14.839 3.99328 14.7314 3.83893C14.6753 3.76823 14.5966 3.71675 14.5072 3.6922C14.2531 3.60842 14.0252 3.64853 13.8335 3.83284C13.63 4.02883 13.6039 4.25984 13.7136 4.50356C13.7477 4.58023 13.7328 4.61627 13.6699 4.65892C13.4745 4.79246 13.2817 4.92904 13.0878 5.06511C13.0646 5.08021 13.0377 5.08936 13.0097 5.09167C12.9817 5.09398 12.9536 5.08938 12.928 5.07831C12.7437 5.01875 12.5484 4.99577 12.3544 5.01078Z" fill="#D3D3D3"/>
<path d="M25.5359 1.89389C25.2163 1.88678 24.8967 1.89846 24.5809 1.89897C21.6398 1.90303 18.699 1.90303 15.7583 1.89897C15.6555 1.89897 15.5937 1.91826 15.5521 2.01981C15.4483 2.27367 15.3284 2.52246 15.2177 2.7743C15.1372 2.95607 15.0419 3.02055 14.8363 3.02055C13.8409 3.02055 12.8449 3.01801 11.8495 3.02055C11.5986 3.02055 11.5129 2.919 11.4404 2.75297C11.327 2.49504 11.2077 2.23915 11.0974 1.97969C11.0889 1.95262 11.0712 1.92899 11.0471 1.91254C11.023 1.89609 10.9939 1.88774 10.9643 1.88881C10.936 1.88881 10.9078 1.88881 10.8796 1.88881H1.568C1.53285 1.88881 1.4977 1.89135 1.46148 1.89287H0.948053L0.868162 1.88881C0.38562 1.81265 0.0729781 1.51156 0.00160872 1.05308C-0.000861759 1.01927 -0.000861759 0.985341 0.00160872 0.951533C0.0367608 0.951533 0.0724455 0.948486 0.10813 0.948486H26.8711C26.9137 0.948486 26.9558 0.948486 26.9984 0.948486C27.0028 1.15922 26.9312 1.365 26.7954 1.53137C26.6597 1.69775 26.4681 1.81462 26.2528 1.86241L26.1494 1.88576C26.1463 1.88441 26.1429 1.88394 26.1395 1.88439C26.1361 1.88484 26.1329 1.88619 26.1303 1.8883L25.5359 1.89389Z" fill="#71ACAB"/>
<path d="M26.9984 0.952516C26.9557 0.952516 26.9137 0.952516 26.8711 0.952516H0.108083C0.0729308 0.952516 0.0372461 0.952516 0.0015614 0.955562C-0.0362537 0.511295 0.399422 0.0416412 0.869714 0.0203163C0.940551 0.0172699 1.01139 0.0172701 1.08276 0.0172701C2.56447 0.0172701 4.04583 0.0172701 5.52683 0.0172701C5.84054 0.0172701 6.15424 0.0172699 6.46794 0.00762298C6.73904 -0.00253171 7.0112 0.0233619 7.2823 0.0147305C7.45859 0.00965311 7.63488 0.0147311 7.81064 0.0121924C7.96031 0.009146 8.11263 0.00711506 8.26389 0.0121924C8.43646 0.0198084 8.60902 0.0121924 8.78212 0.0121924C8.95522 0.0121924 9.11873 0.0121924 9.28756 0.0121924C9.46705 0.0121924 9.64655 0.0121927 9.82603 0.00609984C9.95972 0.0025457 10.0923 0.00305343 10.2271 0.00609984C10.4977 0.0147313 10.7693 0.0147313 11.0393 0.00609984C11.3285 -0.00202391 11.6183 0.00863851 11.9075 0.00609984C12.0609 0.00609984 12.2169 0.00609984 12.3714 0.00609984C12.5503 0.00609984 12.7303 0.00609984 12.9098 0.00609984C13.0608 -0.00363191 13.2123 -0.00244497 13.3631 0.0096528C13.486 0.0189771 13.6095 0.0176182 13.7322 0.00559161C14.0256 -0.00659402 14.3181 0.00559161 14.611 0.00559161C14.7617 0.00559161 14.9135 0.000514264 15.0648 0.00559161C15.2373 0.0126999 15.4099 0.00813016 15.583 0.00863789C15.7561 0.00914563 15.9271 0.00508375 16.0986 0.00863789C16.195 0.0116843 16.2892 -0.0060869 16.3846 -0.0045637C16.6418 -0.00100956 16.8996 0.0137159 17.1568 0.00609984C17.4487 -0.00253165 17.7427 0.00610003 18.033 0.00153041C18.1864 0.00153041 18.3424 0.00153041 18.4969 0.00153041C18.6758 0.00406909 18.8559 0.00153041 19.0353 0.00153041C19.1855 0.00153041 19.3373 -0.00405466 19.4886 0.00153041C19.6612 0.00914643 19.8343 0.00406896 20.0068 0.0045767C20.1794 0.00508443 20.3509 0.0045767 20.5229 0.0045767C20.695 0.0045767 20.8824 -0.0101479 21.0614 -0.000500957C21.3277 0.0137156 21.5903 -0.0208103 21.8555 -0.000500957C22.0339 0.0121924 22.2145 0.00457614 22.394 0.00559161C22.5623 0.00559161 22.7311 0.00559161 22.8994 0.00559161C23.0544 0.00813028 23.2105 0.00914538 23.3644 0.0020371C23.5183 -0.00507119 23.6754 -0.000501577 23.8288 0.0020371C24.0951 0.00457577 24.3614 0.0020371 24.6277 0.0020371C24.9196 0.0020371 25.2136 -0.00557892 25.5033 0.0020371C25.7931 0.00965311 26.0961 -0.0355354 26.3843 0.0685502C26.7491 0.206654 27.0218 0.589486 26.9984 0.952516Z" fill="#71ACAB"/>
<path d="M0.868652 1.88916L0.948543 1.89322C0.93673 1.90131 0.922369 1.90532 0.907844 1.90458C0.893318 1.90384 0.879496 1.8984 0.868652 1.88916Z" fill="#F4F8F8"/>
<path d="M26.1323 1.8908C26.135 1.88869 26.1384 1.88733 26.1419 1.88688C26.1454 1.88643 26.149 1.88691 26.1522 1.88826L26.1323 1.8908Z" fill="#F4F8F8"/>
<path d="M12.3544 5.01073C12.5491 4.99527 12.7451 5.01808 12.9302 5.07775C12.9558 5.08882 12.9839 5.09342 13.0119 5.09111C13.0399 5.0888 13.0668 5.07965 13.09 5.06455C13.2838 4.92899 13.4766 4.79241 13.6721 4.65836C13.7349 4.61571 13.7499 4.57966 13.7158 4.503C13.6061 4.25928 13.6322 4.02826 13.8356 3.83228C14.0273 3.64797 14.2553 3.60786 14.5094 3.69164C14.5988 3.71619 14.6774 3.76767 14.7336 3.83837C14.8401 3.99069 14.985 4.11712 15.099 4.26436C15.2587 4.4705 15.2236 4.79596 15.035 4.99347C14.8465 5.19098 14.5024 5.24327 14.2755 5.10517C14.1877 5.0544 14.1403 5.06861 14.0801 5.13411C13.9448 5.28085 13.81 5.4286 13.6652 5.5667C13.6334 5.5911 13.6106 5.62459 13.6002 5.66225C13.5899 5.69991 13.5925 5.73974 13.6077 5.77589C13.7445 6.08357 13.6385 6.36537 13.5091 6.63904C13.3445 6.98886 13.1086 7.29909 12.8663 7.60373C12.3901 8.19981 11.882 8.77152 11.3803 9.34577C10.7625 10.0541 10.1643 10.7771 9.56942 11.5011C8.95745 12.2429 8.26773 12.9096 7.40491 13.3919C6.95432 13.6458 6.47391 13.8199 5.9429 13.8357C5.27395 13.8555 4.72589 13.6026 4.26998 13.1497C3.82312 12.706 3.53817 12.1688 3.29797 11.6067C3.06948 11.0711 2.91556 10.5176 2.91609 9.93626C2.91051 9.15476 3.21139 8.39947 3.75973 7.8185C4.21138 7.32549 4.76318 6.96043 5.36875 6.66239C6.19429 6.2562 7.07736 6.02265 7.97853 5.83478C8.81472 5.66012 9.64559 5.46262 10.4818 5.28643C11.0373 5.16914 11.5939 5.05287 12.1632 5.01073C12.2266 5.00667 12.2905 5.01073 12.3544 5.01073Z" fill="#A0D1CA"/>
<path d="M13.7615 7.6007C13.902 7.28764 14.082 6.992 14.2973 6.72029C14.852 5.98945 15.6025 5.41411 16.4703 5.05441C17.2413 4.73044 18.0826 4.58766 18.9235 4.63807C19.7323 4.67963 20.5204 4.89689 21.2276 5.27324C21.7063 5.52544 22.1403 5.84791 22.5138 6.2288C23.0811 6.80382 23.5005 7.49665 23.7388 8.25263C23.9074 8.79394 23.983 9.35772 23.9625 9.92206C23.9582 10.0805 23.9572 10.2389 23.9551 10.3978C23.8736 10.3978 23.7921 10.3927 23.7106 10.3978C23.5588 10.4054 23.4853 10.5192 23.5439 10.6517C23.5704 10.6956 23.5899 10.743 23.6019 10.7923C23.6126 10.8878 23.5892 10.9101 23.4922 10.8939C23.2962 10.8502 23.0959 10.8262 22.8946 10.8223C22.7285 10.8253 22.7098 10.7974 22.7114 10.6354C22.7133 10.605 22.7133 10.5745 22.7114 10.544C22.6965 10.3978 22.696 10.3978 22.5404 10.3983H22.4233C22.2704 10.4009 22.1953 10.4877 22.223 10.6283C22.2475 10.7497 22.223 10.7832 22.0925 10.8045C21.9503 10.8279 21.8039 10.8294 21.6766 10.9086C21.6308 10.9282 21.5787 10.9298 21.5317 10.9132C21.3884 10.8852 21.2617 10.8116 21.1211 10.7791C21.0859 10.7705 21.0289 10.7791 21.0204 10.7426C21.0119 10.706 21.0678 10.6821 21.0976 10.6552C21.1081 10.6462 21.1192 10.6377 21.1306 10.6298C21.2159 10.5649 21.2164 10.5359 21.1424 10.4633C21.1257 10.4482 21.1061 10.4366 21.0845 10.4291C21.063 10.4216 21.0401 10.4183 21.0172 10.4196C20.8681 10.4166 20.7195 10.4171 20.5709 10.4196C20.5112 10.4196 20.4542 10.4323 20.4388 10.4978C20.4297 10.5273 20.4316 10.5589 20.4442 10.5872C20.4567 10.6155 20.479 10.6388 20.5075 10.6532C20.5576 10.6832 20.6177 10.6984 20.6571 10.7461C20.6966 10.7938 20.6966 10.8446 20.6369 10.8822C20.5687 10.9248 20.2593 10.903 20.1959 10.8543C20.1325 10.8055 20.1144 10.7268 20.0281 10.7253C19.9419 10.7238 19.8939 10.7928 19.8337 10.8375C19.8252 10.8436 19.8146 10.8466 19.8066 10.8532C19.7818 10.8728 19.7513 10.8846 19.7193 10.8869C19.6872 10.8893 19.6552 10.8821 19.6276 10.8664C19.5637 10.837 19.5653 10.7837 19.5674 10.7283C19.5838 10.4658 19.5569 10.2025 19.4875 9.94795C19.331 9.41483 18.9752 9.05079 18.4463 8.83094C18.3067 8.77356 18.1523 8.76493 18.0144 8.70553C17.9668 8.683 17.9139 8.67234 17.8608 8.67456C17.8077 8.67678 17.7561 8.69181 17.7108 8.71822C17.4394 8.85694 17.1515 8.964 16.8533 9.03708C16.759 9.06246 16.7537 9.07516 16.8261 9.14523C16.9762 9.29765 17.1347 9.44223 17.3012 9.57832C17.6255 9.83219 17.9712 10.0399 18.3984 10.0942C18.4585 10.0951 18.5185 10.1015 18.5773 10.1135C18.6053 10.1193 18.6298 10.1352 18.646 10.1577C18.6621 10.1803 18.6686 10.2079 18.6641 10.2348C18.6641 10.2486 18.6612 10.2621 18.6556 10.2748C18.6499 10.2874 18.6417 10.2988 18.6313 10.3083C18.6209 10.3178 18.6085 10.3252 18.5951 10.33C18.5816 10.3348 18.5672 10.337 18.5528 10.3364C18.4503 10.341 18.3475 10.3378 18.2455 10.3267C17.763 10.2622 17.3651 10.0282 16.9859 9.75755C16.7495 9.58387 16.5287 9.39161 16.326 9.1828C16.2887 9.14573 16.2551 9.10918 16.2274 9.19397C16.1348 9.47728 15.9148 9.6621 15.6741 9.82762C15.2927 10.0891 14.8709 10.278 14.4368 10.4455C14.3532 10.4775 14.277 10.4872 14.2355 10.4054C14.194 10.3237 14.2414 10.2673 14.3234 10.2287C14.695 10.0632 15.0483 9.86271 15.3779 9.63011C15.5505 9.50369 15.7114 9.36761 15.812 9.17924C15.8914 9.02946 15.8344 8.89847 15.6709 8.85835C15.5376 8.82437 15.4094 8.77421 15.2895 8.70908C15.0314 8.56891 14.8122 8.37182 14.6504 8.13433C14.5532 8.00161 14.4794 7.85462 14.432 7.6992C14.4155 7.64284 14.3884 7.5875 14.3138 7.58699C14.1279 7.58445 13.9436 7.56566 13.7615 7.6007ZM14.7037 7.67584C14.7351 7.74741 14.7718 7.8168 14.8134 7.88351C15.1265 8.30543 15.5377 8.55625 16.0986 8.53493C16.1305 8.53493 16.1795 8.55575 16.1923 8.51462C16.2051 8.47349 16.1566 8.4608 16.1305 8.43998C15.9227 8.27818 15.7031 8.13073 15.4733 7.99876C15.2325 7.85982 14.9738 7.75127 14.7037 7.67584ZM16.9939 8.60754C16.8815 8.62074 16.7686 8.60449 16.6573 8.62226C16.6299 8.62722 16.6035 8.63667 16.5795 8.65018C16.5719 8.65463 16.5663 8.66163 16.5638 8.6698C16.5614 8.67798 16.5622 8.68674 16.5662 8.69436C16.5731 8.70807 16.587 8.70857 16.6024 8.70553C16.734 8.67862 16.8682 8.6644 16.9944 8.60754H16.9939Z" fill="#A0D1CA"/>
<path d="M13.7615 7.60084C13.9437 7.56581 14.128 7.58459 14.3117 7.58713C14.3863 7.58713 14.4135 7.64298 14.43 7.69934C14.4774 7.85477 14.5511 8.00175 14.6483 8.13447C14.8102 8.37197 15.0293 8.56905 15.2875 8.70922C15.4074 8.77435 15.5355 8.82452 15.6688 8.8585C15.8323 8.89861 15.8893 9.0296 15.81 9.17939C15.7093 9.36776 15.5484 9.50383 15.3759 9.63025C15.0462 9.86285 14.6929 10.0634 14.3213 10.2289C14.2393 10.2675 14.1914 10.3243 14.2334 10.4056C14.2755 10.4868 14.3512 10.4777 14.4348 10.4457C14.8688 10.2781 15.2907 10.0903 15.672 9.82776C15.9128 9.66224 16.1327 9.47743 16.2254 9.19411C16.2531 9.10932 16.2866 9.14334 16.3239 9.18294C16.5258 9.39057 16.7455 9.5818 16.9806 9.75465C17.3599 10.0253 17.7577 10.2593 18.2402 10.3238C18.3422 10.3349 18.445 10.3381 18.5476 10.3335C18.5619 10.3341 18.5763 10.3319 18.5898 10.3271C18.6033 10.3223 18.6156 10.3149 18.626 10.3054C18.6364 10.2959 18.6447 10.2845 18.6503 10.2719C18.656 10.2592 18.6589 10.2456 18.6589 10.2319C18.6634 10.205 18.6569 10.1774 18.6407 10.1548C18.6246 10.1323 18.6 10.1164 18.5721 10.1106C18.5132 10.0986 18.4533 10.0922 18.3931 10.0913C17.967 10.037 17.6203 9.82776 17.2959 9.57542C17.1295 9.43933 16.9709 9.29475 16.8209 9.14232C16.7484 9.07226 16.7537 9.05956 16.848 9.03417C17.1462 8.96109 17.4341 8.85404 17.7055 8.71532C17.7509 8.6889 17.8025 8.67388 17.8556 8.67166C17.9087 8.66944 17.9615 8.68009 18.0091 8.70262C18.147 8.76203 18.3015 8.77066 18.441 8.82803C18.9699 9.04636 19.3257 9.41041 19.4823 9.94505C19.5516 10.1996 19.5786 10.4629 19.5622 10.7254C19.5622 10.7808 19.5584 10.8341 19.6224 10.8635C19.65 10.8792 19.682 10.8864 19.714 10.884C19.7461 10.8817 19.7766 10.8699 19.8013 10.8503C19.8093 10.8437 19.82 10.8407 19.8285 10.8346C19.8887 10.7899 19.935 10.7209 20.0229 10.7224C20.1108 10.7239 20.1347 10.8077 20.1906 10.8514C20.2466 10.895 20.5635 10.9219 20.6316 10.8793C20.6913 10.8417 20.6961 10.7975 20.6519 10.7432C20.6077 10.6889 20.5523 10.6802 20.5022 10.6503C20.4738 10.6359 20.4514 10.6126 20.4389 10.5843C20.4264 10.556 20.4245 10.5244 20.4335 10.4949C20.449 10.4294 20.506 10.4167 20.5656 10.4167C20.7142 10.4167 20.8628 10.4167 21.0119 10.4167C21.0348 10.4154 21.0577 10.4187 21.0793 10.4262C21.1008 10.4337 21.1205 10.4453 21.1371 10.4604C21.2111 10.533 21.2106 10.5619 21.1254 10.6269C21.1139 10.6348 21.1029 10.6433 21.0924 10.6523C21.0625 10.6792 21.005 10.695 21.0151 10.7397C21.0253 10.7843 21.0806 10.7676 21.1158 10.7762C21.2564 10.8102 21.3821 10.8823 21.5264 10.9103C21.5735 10.9269 21.6255 10.9253 21.6713 10.9057C21.7986 10.8265 21.9451 10.825 22.0873 10.8016C22.2188 10.7803 22.2423 10.7468 22.2178 10.6254C22.1901 10.4848 22.2652 10.3979 22.418 10.3954H22.5352C22.6907 10.3954 22.6913 10.3954 22.7062 10.5411C22.708 10.5716 22.708 10.6021 22.7062 10.6325C22.7062 10.7945 22.7232 10.8224 22.8894 10.8194C23.0906 10.8233 23.2909 10.8473 23.487 10.891C23.5839 10.9087 23.6073 10.8864 23.5967 10.7894C23.5847 10.7401 23.5651 10.6927 23.5386 10.6488C23.48 10.5163 23.5535 10.4025 23.7053 10.3949C23.7868 10.3908 23.8683 10.3949 23.9498 10.3949C23.9498 10.6193 23.9498 10.8439 23.9498 11.0687H22.1219C21.2963 11.0687 20.4708 11.0687 19.6458 11.0687C19.5552 11.0687 19.519 11.0946 19.5142 11.1809C19.5058 11.2545 19.4927 11.3276 19.4748 11.3997C19.3683 11.9618 19.1675 12.4842 18.8022 12.9437C18.7366 13.026 18.6424 13.0874 18.6019 13.1885C18.5167 13.223 18.4698 13.2986 18.4048 13.3545C17.7635 13.918 16.9351 14.2493 16.064 14.2908C14.7857 14.3618 13.6859 13.9653 12.7784 13.1001C12.5122 12.838 12.2878 12.5402 12.1121 12.2161C12.103 12.1948 12.0961 12.1725 12.0854 12.1517C11.7485 11.5018 11.6527 10.7622 11.8138 10.0537C11.8415 9.92677 11.9001 9.80695 11.9044 9.67544C12.0641 9.2921 12.2026 8.89912 12.437 8.54827C12.7118 8.13853 13.0495 7.80038 13.5528 7.64908C13.6231 7.62877 13.6928 7.61658 13.7615 7.60084Z" fill="#DC968F"/>
<path d="M18.604 13.1884C18.6439 13.0869 18.7388 13.0259 18.8043 12.9437C19.1696 12.4867 19.3726 11.9617 19.4769 11.3997C19.4948 11.3275 19.5079 11.2545 19.5164 11.1808C19.5211 11.0945 19.5574 11.0681 19.6479 11.0686C20.4729 11.0717 21.299 11.0686 22.124 11.0686H23.9519C23.9583 11.4799 23.9919 11.8927 23.9391 12.3014C23.9021 12.549 23.7731 12.7757 23.5756 12.9402C23.378 13.1048 23.1251 13.1963 22.8627 13.198C21.478 13.1904 20.0932 13.198 18.7084 13.198C18.6734 13.1968 18.6386 13.1936 18.604 13.1884Z" fill="#A0D1CA"/>
<path d="M11.9065 9.67529C11.9023 9.8068 11.8437 9.92662 11.816 10.0536C11.6549 10.762 11.7506 11.5016 12.0876 12.1515C12.0983 12.1723 12.1052 12.1947 12.1142 12.216C11.8011 11.8398 11.6791 11.4036 11.6711 10.9319C11.6647 10.5765 11.6812 10.2262 11.8011 9.88651C11.8277 9.81238 11.8447 9.73317 11.9065 9.67529Z" fill="#71ACAB"/>
<path d="M14.7036 7.67603C14.9737 7.75146 15.2324 7.86 15.4732 7.99894C15.703 8.13092 15.9227 8.27837 16.1305 8.44017C16.1566 8.46098 16.2024 8.47977 16.1922 8.5148C16.1821 8.54984 16.1305 8.53359 16.0985 8.53511C15.5377 8.55644 15.1265 8.30562 14.8133 7.88369C14.7717 7.81699 14.7351 7.7476 14.7036 7.67603Z" fill="#DC968F"/>
<path d="M16.9944 8.60767C16.8687 8.66453 16.734 8.67875 16.6029 8.70566C16.5875 8.7087 16.5737 8.70566 16.5667 8.69449C16.5628 8.68687 16.5619 8.67811 16.5644 8.66993C16.5668 8.66176 16.5724 8.65476 16.58 8.65032C16.6041 8.6368 16.6304 8.62735 16.6578 8.62239C16.7691 8.60462 16.882 8.62087 16.9944 8.60767Z" fill="#DC968F"/>
</g>
<defs>
<clipPath id="clip0_325_10">
<rect width="27" height="15" fill="white"/>
</clipPath>
</defs>
</svg>
