<svg width="20" height="20" viewBox="0 0 20 20" fill="none" xmlns="http://www.w3.org/2000/svg">
<g clip-path="url(#clip0_229_4860)">
<path fill-rule="evenodd" clip-rule="evenodd" d="M6.60718 16.3394V17.5044C6.60718 18.6114 7.36273 19.6866 8.58798 19.8721C9.00136 19.9346 9.50092 19.9881 10.0112 19.9881C10.5215 19.9881 11.021 19.9346 11.4344 19.8721C12.6597 19.6866 13.4152 18.6114 13.4152 17.5044V16.3394H6.60718Z" fill="#DC968F"/>
<path fill-rule="evenodd" clip-rule="evenodd" d="M11.0715 1.07143C11.0715 0.479694 10.5918 0 10.0001 0C9.40839 0 8.92869 0.479694 8.92869 1.07143V1.81547C8.92869 2.40721 9.40839 2.8869 10.0001 2.8869C10.5918 2.8869 11.0715 2.40721 11.0715 1.81547V1.07143ZM4.44426 2.92891C4.02583 2.51049 3.34744 2.51049 2.92903 2.92891C2.5106 3.34733 2.5106 4.02571 2.92903 4.44414L3.45514 4.97026C3.87357 5.38867 4.55196 5.38867 4.97037 4.97026C5.3888 4.55184 5.3888 3.87344 4.97037 3.45503L4.44426 2.92891ZM20.0001 10C20.0001 10.5917 19.5204 11.0714 18.9287 11.0714H18.1846C17.5929 11.0714 17.1131 10.5917 17.1131 10C17.1131 9.40827 17.5929 8.92857 18.1846 8.92857H18.9287C19.5204 8.92857 20.0001 9.40827 20.0001 10ZM1.81547 11.0714C2.40721 11.0714 2.8869 10.5917 2.8869 10C2.8869 9.40827 2.40721 8.92857 1.81547 8.92857H1.07143C0.479694 8.92857 6.27916e-08 9.40827 0 10C-6.27916e-08 10.5917 0.479694 11.0714 1.07143 11.0714H1.81547ZM17.0711 2.92891C17.4896 3.34733 17.4896 4.02571 17.0711 4.44414L16.5451 4.97026C16.1267 5.38867 15.4483 5.38867 15.0299 4.97026C14.6114 4.55184 14.6114 3.87344 15.0299 3.45503L15.556 2.92891C15.9744 2.51049 16.6529 2.51049 17.0711 2.92891ZM12.6975 5.50666C11.8427 5.02513 10.8747 4.78119 9.89379 4.80013C8.9129 4.81909 7.95497 5.10024 7.11943 5.61441C6.2839 6.12859 5.60123 6.85703 5.14229 7.72413C4.68334 8.59123 4.46486 9.56537 4.50951 10.5454C4.55417 11.5255 4.86034 12.4757 5.39624 13.2975C5.52119 13.4891 5.6384 13.6625 5.74457 13.8196L5.74564 13.8212C6.27281 14.6014 6.5122 14.9699 6.58423 15.6956L6.59286 16.3393H13.4165V15.6991C13.4897 14.9981 13.7277 14.6281 14.2135 13.9009L14.2153 13.8982C14.3496 13.6973 14.5013 13.47 14.6639 13.21C15.2033 12.3468 15.4914 11.3502 15.496 10.3322C15.5026 9.3515 15.2466 8.38689 14.7547 7.53844C14.2626 6.68971 13.5523 5.98817 12.6975 5.50666Z" fill="#E7D5C6"/>
</g>
<defs>
<clipPath id="clip0_229_4860">
<rect width="20" height="20" fill="white"/>
</clipPath>
</defs>
</svg>
