<svg width="23" height="19" viewBox="0 0 23 19" fill="none" xmlns="http://www.w3.org/2000/svg">
<g clip-path="url(#clip0_335_24)">
<path d="M4.91983 16.4218C5.04528 16.4309 5.13761 16.4266 5.11561 16.2479C5.10594 16.1858 5.11607 16.1222 5.14458 16.0659C5.17309 16.0096 5.21857 15.9635 5.27474 15.9338L5.27872 15.9371C5.2451 16.0237 5.21115 16.1099 5.17849 16.1967C5.12265 16.3453 5.17058 16.4145 5.32721 16.4068C5.64564 16.3932 5.9605 16.3709 6.27697 16.3413C6.61188 16.3103 6.94924 16.3292 7.28743 16.3003C7.96127 16.2427 8.63921 16.2288 9.31556 16.2078C9.52296 16.2014 9.72379 16.1531 9.93049 16.1452C10.643 16.1191 11.3548 16.0842 12.0657 16.028C12.7153 15.9778 13.3686 15.9854 14.0176 15.9129C14.1681 15.8961 14.3238 15.9269 14.4759 15.9188C14.7557 15.904 15.0349 15.8596 15.314 15.859C15.5373 15.8589 15.7039 15.802 15.8151 15.6047C15.8447 15.5517 15.9203 15.5056 15.8873 15.444C15.8578 15.3888 15.7799 15.424 15.7248 15.4264C12.5159 15.5625 9.30721 15.6998 6.09881 15.8384C5.83483 15.8497 5.56868 15.84 5.30894 15.9053C5.40361 15.8067 5.53077 15.8186 5.64986 15.8135C8.76656 15.6788 11.8835 15.5454 15.0008 15.4132C15.2819 15.4012 15.5626 15.3851 15.8437 15.3791C15.9444 15.3766 16.006 15.339 16.0664 15.2605C17.2095 13.7829 18.3542 12.3064 19.5008 10.8309C19.5146 10.8153 19.5296 10.8007 19.5455 10.7871C19.6345 10.7871 19.6117 10.7033 19.6434 10.66C19.6628 10.6355 19.6825 10.6114 19.7018 10.5872C19.7964 10.4114 19.6963 10.2408 19.6888 10.0672C19.5639 7.14919 19.439 4.23122 19.3142 1.31325C19.3012 1.01064 19.2943 0.707445 19.2845 0.40469C19.2827 0.362538 19.2838 0.320263 19.2833 0.278685C19.3802 0.150054 19.5221 0.223712 19.6425 0.204691C19.7778 0.183143 19.8595 0.236058 19.8243 0.389467L19.829 0.498938C19.8381 0.712217 19.8472 0.925707 19.8564 1.13941C19.8635 1.23837 19.8731 1.33755 19.8774 1.43695C20.0357 5.13632 20.1941 8.83579 20.3524 12.5354C20.3553 12.6033 20.3531 12.6715 20.3532 12.7392C20.3107 12.7461 20.2642 12.733 20.2267 12.7664L19.9379 12.7788C19.9019 12.7488 19.8593 12.7673 19.8199 12.7636L19.7769 11.7605C19.7566 11.761 19.7367 11.7668 19.7193 11.7772C19.7018 11.7876 19.6874 11.8023 19.6774 11.8199C19.1468 12.5212 18.6164 13.2225 18.0863 13.9238C17.4731 14.7335 16.8591 15.5428 16.2442 16.3515C15.4549 16.3638 14.6681 16.4278 13.8775 16.4263C12.9666 16.4243 12.0575 16.5222 11.1452 16.508C10.9453 16.5045 10.7483 16.5662 10.5461 16.5613C10.3369 16.5558 10.1277 16.5502 9.91881 16.5582C9.19643 16.5847 8.47408 16.6119 7.75071 16.6227C7.02003 16.6341 6.29054 16.688 5.55882 16.6828C5.35524 16.6814 5.34832 16.6987 5.36704 16.8977C5.29238 16.7036 5.14266 16.6713 4.95848 16.7135C4.94837 16.7158 4.93788 16.7166 4.92679 16.7183L3.62785 16.7648C3.47777 16.7687 3.32611 16.7358 3.17792 16.784C3.06822 16.755 2.95717 16.7692 2.84627 16.7721C2.77272 16.7752 2.7012 16.7663 2.69659 16.6735C2.69307 16.5914 2.74718 16.5362 2.82419 16.5467C3.06455 16.58 3.20487 16.4224 3.35966 16.29C3.54647 16.1304 3.55148 16.1283 3.61786 16.3599C3.64624 16.4564 3.69587 16.4981 3.79196 16.4921C4.16868 16.469 4.54464 16.4456 4.91983 16.4218Z" fill="#71ACAB"/>
<path d="M4.91978 16.4216C4.54435 16.445 4.16882 16.4684 3.79318 16.4918C3.69773 16.4978 3.64746 16.4562 3.61909 16.3597C3.55143 16.1281 3.54546 16.1303 3.36088 16.2897C3.20706 16.4224 3.06577 16.5797 2.82541 16.5465C2.7484 16.5359 2.69366 16.5912 2.69781 16.6733C2.70178 16.7661 2.7739 16.774 2.8475 16.7718C2.95839 16.769 3.07008 16.7547 3.17914 16.7838C3.24624 16.8235 3.31276 16.8647 3.38132 16.9012C3.57048 17.0053 3.57077 17.0047 3.62533 16.7962C3.62742 16.7858 3.62867 16.7752 3.62908 16.7645L4.92797 16.7171C4.92183 16.7874 4.9157 16.8578 4.90958 16.9284L4.80896 17.3056L4.77549 17.3956C4.75949 17.4315 4.74317 17.4679 4.72718 17.5042L4.64436 17.6634L4.49158 17.8877L4.25269 18.1422L4.02381 18.325L3.88483 18.4169C3.79202 18.4323 3.74462 18.5175 3.66753 18.5574C3.61244 18.5597 3.55295 18.5411 3.50782 18.5897L2.94135 18.7038C2.93097 18.6979 2.91906 18.6952 2.90713 18.696C2.89519 18.6968 2.88375 18.7011 2.87423 18.7082L2.49737 18.6834L2.42846 18.6756C1.74811 18.5289 1.22649 18.1702 0.904272 17.5512C0.713667 17.1828 0.637969 16.7668 0.686754 16.3557C0.735539 15.9446 0.906614 15.557 1.17834 15.2417C1.73526 14.5917 2.63261 14.3226 3.4555 14.6022C4.32339 14.8972 4.81181 15.5164 4.91978 16.4216ZM2.66073 16.6865C2.45676 16.5717 2.263 16.4647 2.07229 16.354C2.01341 16.32 1.99037 16.3333 1.97523 16.397C1.94741 16.5093 1.94297 16.626 1.96216 16.74C1.98135 16.854 2.02378 16.963 2.08688 17.0603C2.12357 17.1199 2.15721 17.1232 2.21006 17.0761C2.35481 16.9473 2.50354 16.8225 2.66073 16.6865ZM2.71794 16.5325C2.70736 16.2853 2.69802 16.0669 2.68869 15.8489C2.68624 15.7917 2.67503 15.761 2.60598 15.78C2.40969 15.8292 2.23654 15.9438 2.11583 16.1045C2.08837 16.1409 2.06504 16.1697 2.12448 16.2021C2.31683 16.3061 2.50712 16.4142 2.71794 16.5325ZM2.883 16.4983L3.41968 16.0386C3.26452 15.8643 3.10463 15.7883 2.85173 15.7676L2.883 16.4983ZM2.88914 16.8132C2.89755 17.0095 2.90626 17.1759 2.91178 17.342C2.91455 17.4068 2.9293 17.4383 3.0046 17.4162C3.17944 17.3646 3.33323 17.2833 3.45389 17.1285C3.27022 17.026 3.0934 16.9271 2.88945 16.8129L2.88914 16.8132ZM2.26058 17.2429C2.37531 17.3431 2.51708 17.4082 2.66864 17.4303C2.7098 17.438 2.75678 17.4473 2.7535 17.3781C2.74625 17.2089 2.73901 17.0396 2.73049 16.8405L2.26058 17.2429Z" fill="#DC968F"/>
<path d="M20.531 13.7761C21.4503 13.9448 22.06 14.4689 22.2777 15.3654C22.4888 16.2346 22.209 16.9721 21.4972 17.5285C20.8465 18.0373 19.8845 18.1018 19.1752 17.6872C18.3898 17.2266 18.0091 16.5294 18.107 15.6334C18.2048 14.7373 18.7255 14.143 19.5901 13.8463C19.6351 13.8309 19.6815 13.8201 19.7272 13.8071C19.7512 13.9349 19.7815 14.0622 19.7979 14.191C19.8353 14.4851 19.9144 14.7738 19.9103 15.0727C19.7612 15.1239 19.6493 15.2229 19.5467 15.3366C19.4857 15.4023 19.5036 15.4409 19.5754 15.4779C19.7281 15.5574 19.8796 15.6391 20.0324 15.7202C20.0438 15.7853 20.0606 15.8501 20.043 15.9167C19.8721 15.8222 19.6965 15.7349 19.5319 15.631C19.4174 15.559 19.3958 15.6053 19.3795 15.7084C19.3463 15.9064 19.3832 16.1095 19.4842 16.2835C19.5305 16.366 19.566 16.3912 19.647 16.315C19.7773 16.1925 19.9183 16.0809 20.0547 15.9644C20.1764 16.0446 20.291 16.0233 20.401 15.9401C20.5576 16.028 20.7167 16.1094 20.87 16.2018C20.9535 16.2521 20.9847 16.2284 21.0143 16.1455C21.0901 15.9367 21.0815 15.7071 20.9901 15.5046C20.9575 15.4285 20.9299 15.4256 20.8676 15.4764C20.7096 15.6064 20.569 15.7574 20.3937 15.8673C20.3727 15.8005 20.388 15.7333 20.3902 15.6661C20.5193 15.5591 20.6454 15.4481 20.7788 15.3466C20.8502 15.2919 20.8258 15.2583 20.7733 15.2176C20.6682 15.1383 20.5618 15.0619 20.4238 15.0492C20.4381 14.8834 20.4492 14.7175 20.4663 14.5526C20.4933 14.2943 20.4798 14.0326 20.531 13.7761ZM20.872 16.3826L20.3051 16.0697C20.3133 16.2616 20.324 16.4225 20.3255 16.5838C20.3267 16.6704 20.3551 16.6937 20.4388 16.6665C20.6088 16.6171 20.7598 16.5182 20.872 16.3826ZM20.1489 16.095C20.0513 16.1773 19.9806 16.2323 19.9156 16.294C19.8401 16.3641 19.6812 16.4377 19.7073 16.5034C19.7509 16.6124 19.9048 16.6453 20.0302 16.6742C20.0508 16.679 20.0714 16.6832 20.092 16.6874C20.1563 16.7 20.176 16.6756 20.172 16.6124C20.1616 16.4505 20.1573 16.29 20.1489 16.095Z" fill="#DC968F"/>
<path d="M19.6356 13.2341C19.6341 13.1778 19.6298 13.1216 19.6226 13.0657C19.5867 12.8599 19.5854 12.8599 19.8036 12.8601L19.8412 12.8585L19.8864 12.8565L19.9412 12.8542L20.336 12.8373C20.3993 12.8251 20.4623 12.8063 20.5252 12.8292C20.5269 12.8277 20.5289 12.8266 20.5312 12.826C20.5334 12.8255 20.5357 12.8256 20.538 12.8261C20.5402 12.8267 20.5422 12.8279 20.5439 12.8295C20.5455 12.831 20.5467 12.833 20.5474 12.8352L20.5695 12.9417C20.5682 13.0048 20.5667 13.0668 20.5651 13.1278C20.5432 13.2882 20.5099 13.4482 20.5191 13.612C20.5205 13.6434 20.5242 13.6716 20.5265 13.7015L20.5297 13.6963L20.5312 13.7763C20.48 14.0328 20.4935 14.2944 20.4653 14.5528C20.4474 14.7177 20.4364 14.8836 20.4227 15.0494C20.4118 15.2551 20.401 15.4607 20.3904 15.6662C20.3882 15.7335 20.3729 15.8006 20.3939 15.8675C20.3966 15.8916 20.3989 15.9158 20.4012 15.9403C20.2912 16.0235 20.1766 16.0444 20.0549 15.9649L20.0432 15.9168C20.0608 15.8502 20.044 15.7854 20.0326 15.7203C19.9968 15.5038 19.9985 15.2806 19.9111 15.0728C19.9152 14.7739 19.8362 14.4851 19.7987 14.1911C19.7823 14.0623 19.752 13.935 19.728 13.8072C19.7239 13.7478 19.7365 13.6842 19.6856 13.636C19.7011 13.4999 19.6839 13.3623 19.6356 13.2341Z" fill="#71ACAB"/>
<path d="M2.6576 13.8562C3.6211 13.8509 4.40182 14.2259 5.00631 14.963C5.10732 15.087 5.10083 15.2111 5.00274 15.2821C4.90465 15.3531 4.78737 15.326 4.68579 15.2037C4.2533 14.6839 3.70991 14.3608 3.02623 14.2851C2.74624 14.2537 2.46267 14.278 2.1922 14.3564C2.15246 14.371 2.11134 14.3817 2.06947 14.3882C1.94224 14.3971 1.8496 14.3418 1.8213 14.2173C1.79385 14.0977 1.84866 14.0144 1.97052 13.977C2.19351 13.9083 2.42436 13.8677 2.6576 13.8562Z" fill="#DC968F"/>
<path d="M19.2831 1.12884L17.2497 1.21588C17.099 1.22232 16.9871 1.16408 16.9498 1.01535C16.914 0.872547 16.9576 0.756915 17.1109 0.702764L17.1115 0.716605L17.1109 0.702135C17.1456 0.670711 17.1899 0.676065 17.2313 0.674293C17.9072 0.645363 18.5833 0.617262 19.2597 0.589992C19.3114 0.768675 19.2267 0.95162 19.2831 1.12884Z" fill="#DC968F"/>
<path d="M21.9664 1.01025L19.9178 1.10139C19.9165 0.921816 19.8776 0.744161 19.8948 0.563792L21.9439 0.47829C21.9514 0.486664 21.9619 0.49183 21.9732 0.4927C21.9845 0.493569 21.9957 0.490074 22.0044 0.482951C22.009 0.48249 22.0137 0.483194 22.0179 0.484996C22.0222 0.486798 22.0259 0.489638 22.0288 0.493252C22.0156 0.58836 22.0929 0.537466 22.1287 0.553897C22.2113 0.627573 22.2225 0.71943 22.1981 0.820061C22.1458 0.856968 22.0915 0.892697 22.0908 0.966471L22.0316 0.998315C22.0213 0.99143 22.0087 0.988822 21.9965 0.991055C21.9843 0.993288 21.9735 1.00018 21.9664 1.01025Z" fill="#DC968F"/>
<path d="M19.6354 13.2341C19.6834 13.3623 19.7002 13.5 19.6845 13.636C19.2538 13.7356 18.8633 13.961 18.5637 14.2827C18.4216 14.4344 18.3473 14.4429 18.1624 14.3346C18.0932 14.2093 18.1314 14.109 18.2267 14.0107C18.604 13.6144 19.0961 13.3432 19.6354 13.2341Z" fill="#DC968F"/>
<path d="M20.7339 13.212C20.9349 13.235 21.1254 13.2971 21.3146 13.3652C21.4394 13.4103 21.5115 13.4923 21.4705 13.6299C21.439 13.7371 21.3117 13.7886 21.1802 13.7413C20.9966 13.6756 20.8079 13.6245 20.616 13.5886C20.5732 13.4975 20.6367 13.4078 20.622 13.3189C20.605 13.2204 20.6637 13.2122 20.7339 13.212Z" fill="#DC968F"/>
<path d="M19.2832 1.12879C19.2268 0.951571 19.3115 0.768627 19.2602 0.591188C19.3042 0.53289 19.2713 0.464651 19.284 0.403285C19.2935 0.706682 19.3004 1.00987 19.3134 1.31249C19.4383 4.23046 19.5632 7.14843 19.688 10.0664C19.6955 10.2397 19.7956 10.4107 19.7011 10.5865C19.6921 10.2667 19.6871 9.947 19.6737 9.62769C19.5561 6.88043 19.4386 4.13401 19.3211 1.38843C19.3177 1.30159 19.3399 1.20862 19.2832 1.12879Z" fill="#71ACAB"/>
<path d="M19.8247 0.388353C19.86 0.234943 19.7783 0.182029 19.643 0.203578C19.5226 0.222598 19.3806 0.148939 19.2837 0.27757C19.2415 0.169078 19.2651 0.110079 19.3967 0.122094C19.4492 0.123314 19.5018 0.121065 19.554 0.115361C19.8294 0.103257 19.8294 0.103257 19.8247 0.388353Z" fill="#71ACAB"/>
<path d="M20.7339 13.212C20.6621 13.2122 20.605 13.2203 20.6214 13.3189C20.636 13.4078 20.5726 13.4975 20.6154 13.5886L20.5207 13.6119C20.5114 13.4481 20.5448 13.2882 20.5666 13.1278C20.5853 13.2278 20.6867 13.1667 20.7339 13.212Z" fill="#71ACAB"/>
<path d="M19.8943 0.563165C19.8777 0.743507 19.9166 0.921162 19.9173 1.10077L19.855 1.13778C19.8459 0.924293 19.8368 0.710804 19.8276 0.497314C19.832 0.513049 19.8405 0.527385 19.8521 0.538926C19.8638 0.550467 19.8783 0.558818 19.8943 0.563165Z" fill="#71ACAB"/>
<path d="M20.5251 12.8292C20.4604 12.8068 20.3974 12.8255 20.336 12.8373C20.3328 12.7637 20.2696 12.7771 20.226 12.7651C20.2626 12.732 20.3091 12.7449 20.3525 12.738C20.3777 12.828 20.452 12.8276 20.5251 12.8292Z" fill="#71ACAB"/>
<path d="M19.644 10.6587C19.6124 10.7019 19.6351 10.7851 19.5461 10.7858C19.5724 10.7374 19.5984 10.689 19.6254 10.6409C19.6292 10.6417 19.6327 10.6434 19.6358 10.6458C19.639 10.6498 19.6418 10.6541 19.644 10.6587Z" fill="#71ACAB"/>
<path d="M22.0903 0.966509C22.091 0.892735 22.1453 0.857005 22.1976 0.820099C22.1937 0.851457 22.1818 0.881331 22.163 0.906933C22.1442 0.932535 22.1192 0.953031 22.0903 0.966509Z" fill="#71ACAB"/>
<path d="M22.1299 0.554952C22.0935 0.538249 22.0149 0.589666 22.0283 0.493303C22.0493 0.493459 22.0699 0.499284 22.0878 0.510149C22.1057 0.521014 22.1203 0.536506 22.1299 0.554952Z" fill="#71ACAB"/>
<path d="M20.5698 12.9435L20.5474 12.8352C20.6142 12.8593 20.5814 12.9036 20.5698 12.9435Z" fill="#71ACAB"/>
<path d="M22.0047 0.48313C21.9958 0.490371 21.9845 0.493924 21.973 0.493041C21.9615 0.492157 21.9508 0.486905 21.9432 0.478393C21.9523 0.471586 21.9636 0.468306 21.9749 0.46918C21.9862 0.470053 21.9968 0.475019 22.0047 0.48313Z" fill="#71ACAB"/>
<path d="M21.9663 1.01066C21.9735 1.00097 21.9842 0.99434 21.9961 0.992104C22.0081 0.989868 22.0204 0.992195 22.0307 0.998617C22.0228 1.00734 22.0122 1.01325 22.0006 1.01543C21.9889 1.0176 21.9769 1.01593 21.9663 1.01066Z" fill="#71ACAB"/>
<path d="M20.5299 13.6961L20.5266 13.7019L20.5294 13.7078L20.5299 13.6961Z" fill="#71ACAB"/>
<path d="M17.1124 0.703068L17.1124 0.718582L17.1111 0.704113L17.1124 0.703068Z" fill="#71ACAB"/>
<path d="M5.27633 15.9338L5.3114 15.9047L5.28067 15.9378L5.27633 15.9338Z" fill="#71ACAB"/>
<path d="M5.27856 15.9378L5.30905 15.9049C5.5688 15.8396 5.83495 15.8493 6.09892 15.838C9.30739 15.7007 12.5161 15.5634 15.725 15.426C15.78 15.4237 15.858 15.3888 15.8874 15.4437C15.9204 15.5053 15.8448 15.5507 15.8152 15.6043C15.704 15.8016 15.5367 15.8586 15.3141 15.8587C15.035 15.8593 14.7558 15.9037 14.4761 15.9185C14.3238 15.925 14.1682 15.8957 14.0177 15.9126C13.3688 15.9854 12.7154 15.9778 12.0658 16.0276C11.3549 16.0823 10.6432 16.12 9.93061 16.1449C9.72395 16.1537 9.52308 16.2011 9.31568 16.2074C8.63932 16.2285 7.96139 16.2424 7.28755 16.2999C6.94936 16.3289 6.61199 16.3099 6.27709 16.341C5.95935 16.3706 5.64443 16.3917 5.32733 16.4065C5.17066 16.4132 5.12276 16.345 5.17861 16.1964C5.21096 16.1099 5.24491 16.0237 5.27856 15.9378Z" fill="#71ACAB"/>
<path d="M16.2434 16.3507C16.2454 16.3555 16.2462 16.3607 16.2459 16.3659C16.2456 16.3711 16.2441 16.3762 16.2415 16.3807C16.1504 16.4899 16.0321 16.5198 15.8926 16.5252C14.721 16.5719 13.5495 16.6236 12.3781 16.6737C11.2066 16.7239 10.0355 16.791 8.86339 16.8194C7.69893 16.8475 6.53693 17.0151 5.36947 16.8987L5.36621 16.8969C5.34749 16.6979 5.3544 16.6806 5.55799 16.682C6.2897 16.6872 7.01921 16.6333 7.74989 16.6219C8.47326 16.6111 9.1956 16.584 9.91798 16.5575C10.1269 16.5485 10.3361 16.555 10.5453 16.5605C10.7474 16.5654 10.9445 16.5038 11.1443 16.5072C12.0567 16.5214 12.9658 16.4235 13.8767 16.4255C14.6673 16.4276 15.4541 16.3637 16.2434 16.3507Z" fill="#71ACAB"/>
<path d="M20.2259 12.7654C20.2699 12.7783 20.3324 12.764 20.3359 12.8376L19.9411 12.8545C19.94 12.8287 19.9388 12.8029 19.9377 12.7771L20.2259 12.7654Z" fill="#DC968F"/>
<path d="M19.937 12.7761C19.9381 12.8019 19.9392 12.8277 19.9403 12.8535L19.8856 12.8558C19.8684 12.8194 19.8526 12.8305 19.8403 12.8578L19.8028 12.8594C19.8081 12.8276 19.813 12.7934 19.8183 12.7604C19.8584 12.7647 19.901 12.7458 19.937 12.7761Z" fill="#71ACAB"/>
<path d="M5.36968 16.8995C6.53713 17.0159 7.69913 16.8483 8.86359 16.8202C10.0357 16.7918 11.2068 16.7246 12.3783 16.6745C13.5498 16.6243 14.7212 16.5726 15.8928 16.5259C16.0323 16.52 16.1513 16.4906 16.2417 16.3815C16.2568 16.5113 16.1807 16.5596 16.0664 16.5724C16.0296 16.5765 15.9922 16.5756 15.955 16.5772C12.5523 16.7228 9.14937 16.8685 5.74624 17.0141C5.60558 17.022 5.46842 17.0226 5.36968 16.8995Z" fill="#71ACAB"/>
<path d="M19.8412 12.8584C19.8548 12.83 19.8696 12.8188 19.8871 12.8565L19.8412 12.8584Z" fill="#DC968F"/>
</g>
<defs>
<clipPath id="clip0_335_24">
<rect width="22.1981" height="17.8667" fill="white" transform="translate(0 0.949219) rotate(-2.45084)"/>
</clipPath>
</defs>
</svg>
