<svg width="31" height="32" viewBox="0 0 31 32" fill="none" xmlns="http://www.w3.org/2000/svg">
<g clip-path="url(#clip0_179_2278)">
<path d="M5.54524 27.4693C5.5388 27.4491 5.53388 27.4285 5.53053 27.4076L4.91328 24.8163C4.90949 24.8038 4.90647 24.7911 4.90423 24.7783L5.58657 24.6158L5.6789 24.5938L6.80256 24.3261C6.87797 24.6427 6.95338 24.9593 7.02879 25.2759C7.07598 25.4713 7.16086 25.6555 7.27854 25.818C7.39623 25.9805 7.5444 26.1181 7.71457 26.2229C7.88474 26.3277 8.07355 26.3976 8.27016 26.4286C8.46677 26.4596 8.6673 26.4512 8.86025 26.4036C10.8259 25.9354 12.7915 25.4672 14.7571 24.999L19.7964 23.7986C20.0992 23.7319 20.3727 23.5695 20.5773 23.3349C20.7446 23.1503 20.8634 22.926 20.9226 22.6825C20.9819 22.439 20.9799 22.1841 20.9167 21.941C20.8435 21.6339 20.77 21.3252 20.6968 21.0181L20.7876 20.9965L21.916 20.7277L22.5952 20.5659C22.6329 20.7242 22.6736 20.8952 22.7132 21.0614L23.2056 23.1287C23.2166 23.1746 23.2275 23.2205 23.2384 23.2665L23.2527 23.4303C23.2844 23.7634 23.2411 24.0991 23.1261 24.4121C23.011 24.7252 22.8272 25.0075 22.5884 25.2379C22.3414 25.4858 22.0404 25.672 21.7092 25.7819C21.681 25.7886 21.6544 25.7949 21.6263 25.8016L8.05317 29.0348C8.03283 29.0396 8.01405 29.0441 7.99144 29.0395C7.46735 29.1104 6.93433 28.9918 6.48667 28.7044C6.03901 28.4171 5.70554 27.9796 5.54524 27.4693Z" fill="#E7D5C6"/>
<path d="M22.5996 20.5633L21.922 20.7247C21.916 20.6994 21.9099 20.674 21.9035 20.6471C21.2208 17.7809 20.5377 14.9131 19.8542 12.0438C19.7886 11.7711 19.709 11.5019 19.6158 11.2374C19.4958 10.8836 19.3497 10.5393 19.1786 10.2074C18.87 9.60794 18.4835 9.05248 18.0294 8.55582C17.6165 8.10003 17.151 7.69589 16.643 7.35215C16.0834 6.97154 15.4775 6.66601 14.8405 6.44329C14.3998 6.2908 13.9465 6.1793 13.4861 6.11019C12.9791 6.03267 12.4658 6.00918 11.9545 6.0401C11.7382 6.05015 11.5226 6.07245 11.3089 6.1069C11.0668 6.13725 10.8268 6.18214 10.5901 6.24132L9.46333 6.50972C9.13782 6.58726 8.81543 6.66405 8.49827 6.76971C7.13434 7.22047 5.92772 8.05504 5.01963 9.17575C4.66424 9.61404 4.35677 10.0899 4.10254 10.5952C3.77746 11.2367 3.54424 11.9219 3.40982 12.6304C3.20672 13.6759 3.23009 14.7545 3.47834 15.7923C4.17062 18.6986 4.86291 21.6049 5.55519 24.5112C5.56387 24.5476 5.57254 24.584 5.58121 24.6204L4.89888 24.783C4.88267 24.7149 4.86683 24.6484 4.85062 24.5804C4.09348 21.4018 3.33621 18.2227 2.57882 15.0431C2.17138 13.3731 2.28761 11.6191 2.9114 10.0242C2.92058 10.0003 2.92782 9.97511 2.93506 9.94997C2.94394 9.93756 2.95188 9.92448 2.95882 9.91085C3.114 9.51765 3.30001 9.13773 3.51508 8.77469C3.66206 8.5239 3.83235 8.28762 4.0042 8.05097C4.18388 7.80513 4.37818 7.5706 4.58606 7.34865C4.7937 7.12625 5.01357 6.91583 5.24463 6.71839C5.28161 6.68616 5.33725 6.66287 5.33701 6.59936C5.36942 6.64517 5.38622 6.59768 5.40274 6.5837C5.66297 6.37187 5.9364 6.17711 6.22138 6.00062C6.56319 5.79049 6.91881 5.60407 7.2858 5.44263L7.34932 5.41077L7.41036 5.39623C7.67376 5.28556 7.94266 5.18856 8.21599 5.10563C8.39295 5.0501 8.57437 5.02027 8.74863 4.96036L10.2197 4.60994C10.4779 4.54843 10.7388 4.49801 11.0007 4.45903C11.2244 4.42584 11.4486 4.40922 11.6737 4.38236C11.9358 4.37849 12.1975 4.36633 12.4594 4.37587C12.8211 4.38336 13.1819 4.41762 13.5389 4.47837C13.6961 4.50618 13.8508 4.53791 14.0067 4.56767C14.0241 4.5783 14.0423 4.5874 14.0612 4.59485C14.1964 4.62788 14.3328 4.65225 14.4652 4.69431C14.821 4.80287 15.1707 4.93122 15.5127 5.07879C15.8428 5.22721 16.1636 5.39604 16.4732 5.58432C16.8483 5.80876 17.2027 6.06701 17.5319 6.35588C17.5675 6.38754 17.5994 6.44518 17.6635 6.4366C17.7122 6.50425 17.7705 6.56422 17.8366 6.61452C18.2265 6.97658 18.5804 7.37637 18.8932 7.80809C18.9627 7.90529 19.0306 8.00287 19.0973 8.1024C19.6673 8.96794 20.077 9.93034 20.3063 10.9425C21.0649 14.1274 21.8236 17.3123 22.5822 20.4972C22.5888 20.5107 22.5932 20.5364 22.5996 20.5633Z" fill="#A0D1CA"/>
<path d="M17.6655 6.42437C17.6029 6.43929 17.5695 6.37532 17.5338 6.34367C17.2046 6.05479 16.8503 5.79654 16.4752 5.5721C16.1655 5.38381 15.8447 5.21498 15.5146 5.06657C15.1727 4.919 14.823 4.79064 14.4672 4.68209C14.3348 4.64002 14.1983 4.61566 14.0631 4.58263C14.0442 4.57517 14.026 4.56608 14.0087 4.55545C14.0011 4.52379 13.994 4.49371 13.9864 4.46205L13.5264 2.53086C13.4408 2.21479 13.4652 1.87917 13.5954 1.58019C13.7256 1.28121 13.9537 1.03701 14.2416 0.888467C14.5609 0.722259 14.9187 0.64512 15.2782 0.664966C15.5799 0.687582 15.8669 0.807327 16.0972 1.00661C16.3274 1.20588 16.4887 1.47419 16.5573 1.77209C16.9238 3.31071 17.2899 4.84776 17.6565 6.38639C17.6602 6.39886 17.6632 6.41154 17.6655 6.42437Z" fill="#71ACAB"/>
<path d="M5.33961 6.59028C5.33985 6.65379 5.28421 6.67707 5.24723 6.7093C5.01618 6.90674 4.79631 7.11716 4.58866 7.33957C4.38079 7.56152 4.18647 7.79606 4.00679 8.04189C3.83494 8.27854 3.66465 8.51482 3.51767 8.76561C3.3026 9.12865 3.1166 9.50858 2.96142 9.90177C2.95448 9.9154 2.94655 9.92847 2.93767 9.94089C2.92937 9.90606 2.92145 9.87282 2.91354 9.83958L1.83439 5.30918C1.74535 4.97971 1.77639 4.62949 1.92185 4.32245C2.06732 4.01541 2.31748 3.77202 2.62671 3.6367C2.97563 3.46215 3.37132 3.40542 3.75573 3.47483C4.02208 3.52451 4.26858 3.65188 4.46475 3.8412C4.66093 4.03053 4.79817 4.27351 4.85951 4.54008C5.02663 5.18611 5.16832 5.83651 5.32292 6.48552C5.32292 6.48552 5.32669 6.50136 5.32858 6.50927C5.32477 6.51579 5.32363 6.52356 5.32539 6.53094C5.32715 6.53832 5.33167 6.54474 5.338 6.54884L5.33961 6.59028Z" fill="#71ACAB"/>
<path d="M11.6757 4.37015C11.4506 4.39701 11.2263 4.41363 11.0027 4.44683C10.7408 4.4858 10.4814 4.54256 10.2217 4.59774C10.208 4.48 10.1638 4.36786 10.0935 4.27268C10.0232 4.1775 9.92929 4.10266 9.82136 4.05577C9.6704 3.993 9.50494 3.97548 9.34484 4.00531C9.18474 4.03514 9.0368 4.11105 8.91876 4.22394C8.82435 4.31461 8.75817 4.43116 8.72825 4.55944C8.69833 4.68772 8.70595 4.8222 8.75022 4.94657C8.57445 5.00015 8.3934 5.03157 8.21758 5.09185C7.94425 5.17478 7.67536 5.27177 7.41195 5.38244L7.35092 5.39698C7.25155 5.08755 7.21877 4.76056 7.25478 4.43797C7.31955 4.01322 7.51539 3.62063 7.81443 3.31606C8.15134 2.96211 8.59142 2.72606 9.07115 2.642C9.42399 2.57653 9.78686 2.58638 10.1365 2.67093C10.594 2.77701 11.0013 3.04086 11.2882 3.41697C11.4327 3.59842 11.5388 3.80771 11.6001 4.03187C11.6245 4.14817 11.6493 4.25935 11.6757 4.37015Z" fill="#E7D5C6"/>
<path d="M5.54531 27.4693C5.70732 27.9774 6.0412 28.4124 6.4882 28.6978C6.9352 28.9833 7.46672 29.1009 7.98925 29.03C8.0096 29.0251 8.02838 29.0206 8.05098 29.0253C7.74332 29.1097 7.41979 29.1187 7.10724 29.0514C6.79469 28.9842 6.50214 28.8427 6.25386 28.6387C5.9653 28.4085 5.74604 28.1014 5.62101 27.7524C5.58845 27.6601 5.56313 27.5655 5.54531 27.4693Z" fill="#A0D1CA"/>
<path d="M21.7078 25.7689C22.039 25.659 22.34 25.4728 22.587 25.2249C22.8258 24.9945 23.0096 24.7122 23.1247 24.3991C23.2397 24.0861 23.283 23.7504 23.2513 23.4173L23.237 23.2534C23.3076 23.5212 23.3237 23.8003 23.2843 24.0739C23.2449 24.3475 23.1508 24.6099 23.0078 24.8451C22.8648 25.0803 22.6758 25.2835 22.4524 25.4423C22.2289 25.6011 21.9756 25.7122 21.7078 25.7689Z" fill="#A0D1CA"/>
<path d="M5.33031 6.55075C5.32398 6.54665 5.31946 6.54023 5.3177 6.53285C5.31594 6.52547 5.31708 6.5177 5.32089 6.51118L5.33031 6.55075Z" fill="#A0D1CA"/>
<path d="M5.58343 24.6165C5.57475 24.5801 5.56608 24.5437 5.55741 24.5073C4.86512 21.601 4.17284 18.6947 3.48055 15.7884C3.23231 14.7506 3.20894 13.6719 3.41204 12.6265C3.54468 11.9155 3.77675 11.2278 4.1013 10.5838C4.35554 10.0785 4.663 9.60259 5.01839 9.16429C5.92648 8.04359 7.1331 7.20901 8.49703 6.75826C8.81419 6.6526 9.13696 6.57739 9.4621 6.49827L10.5889 6.22986C10.8256 6.17068 11.0656 6.12579 11.3077 6.09544C11.315 6.1154 11.3289 6.1322 11.3471 6.14293C11.684 6.3382 12 6.56849 12.2897 6.83005C12.4323 6.96336 12.5687 7.08477 12.6975 7.22303C12.8778 7.4158 13.0466 7.61912 13.2031 7.83193C13.3242 7.99104 13.4361 8.15709 13.5382 8.32921C13.6143 8.46831 13.6897 8.61095 13.7658 8.75006C13.8135 8.83907 13.8474 8.93302 13.8931 9.02082C13.9269 9.07912 13.9568 9.13963 13.9826 9.20192C14.0022 9.28424 14.0203 9.36022 14.0555 9.44551C14.0997 9.57549 14.1607 9.6998 14.1924 9.83277L15.8481 16.7835L7.2203 18.8386C7.12015 18.8625 7.02156 18.886 6.92366 18.9193C6.56586 19.0413 6.26696 19.2945 6.08584 19.629C5.90472 19.9635 5.85451 20.3551 5.94511 20.7265C6.22036 21.8821 6.49574 23.0381 6.77125 24.1947C6.78105 24.2359 6.79086 24.2771 6.80066 24.3182L5.677 24.5859L5.58343 24.6165ZM11.0515 11.3102L8.84334 11.8362C8.76978 11.8519 8.70022 11.8826 8.63888 11.9263C8.57754 11.97 8.5257 12.026 8.48651 12.0907C8.44733 12.1554 8.42162 12.2276 8.41094 12.3028C8.40026 12.378 8.40483 12.4547 8.42438 12.5282C8.58074 13.1846 8.73722 13.8415 8.89382 14.499C8.90847 14.564 8.93496 14.6257 8.97194 14.6811C9.03663 14.7826 9.13166 14.8607 9.24314 14.904C9.35461 14.9472 9.4767 14.9534 9.59151 14.9216L13.986 13.8748C14.0617 13.8599 14.1335 13.8292 14.1967 13.7847C14.2599 13.7403 14.3133 13.683 14.3534 13.6166C14.3935 13.5501 14.4195 13.4759 14.4298 13.3986C14.44 13.3213 14.4343 13.2427 14.4129 13.1676C14.2602 12.5265 14.0996 11.8873 13.9548 11.2443C13.9384 11.1652 13.9063 11.0902 13.8603 11.0239C13.8144 10.9576 13.7556 10.9014 13.6875 10.8588C13.6195 10.8161 13.5436 10.7879 13.4645 10.7758C13.3855 10.7637 13.3049 10.7681 13.2277 10.7885C12.5003 10.9702 11.7754 11.1345 11.0508 11.3071L11.0515 11.3102Z" fill="#E7D5C6"/>
<path d="M6.7996 24.3269C6.7898 24.2857 6.77999 24.2445 6.77019 24.2034C6.49368 23.0426 6.2183 21.8865 5.94405 20.7351C5.85345 20.3637 5.90366 19.9722 6.08478 19.6377C6.2659 19.3032 6.5648 19.05 6.92259 18.928C7.02049 18.8946 7.11909 18.8711 7.21925 18.8473L15.847 16.7921C16.16 16.7176 16.4855 16.64 16.8048 16.564C17.2492 16.4581 17.6895 16.3348 18.1392 16.2578C18.4742 16.2007 18.819 16.2655 19.1122 16.4409C19.2952 16.543 19.4548 16.683 19.5805 16.8517C19.7063 17.0205 19.7952 17.2141 19.8415 17.4197C20.1187 18.5832 20.3954 19.7451 20.6711 20.9022C20.6797 20.9386 20.6884 20.975 20.6971 21.0114C20.7702 21.3185 20.8437 21.6272 20.9169 21.9343C20.9801 22.1774 20.9822 22.4323 20.9229 22.6758C20.8636 22.9193 20.7449 23.1436 20.5775 23.3283C20.3729 23.5628 20.0994 23.7252 19.7966 23.792L14.7573 24.9923C12.7917 25.4605 10.8261 25.9287 8.86048 26.397C8.66753 26.4445 8.467 26.4529 8.27039 26.4219C8.07378 26.3909 7.88497 26.321 7.7148 26.2162C7.54463 26.1114 7.39645 25.9738 7.27877 25.8113C7.16108 25.6488 7.07621 25.4646 7.02902 25.2692C6.95042 24.96 6.87658 24.6431 6.7996 24.3269ZM13.0355 19.6732L18.3471 18.408C18.3938 18.401 18.4399 18.3901 18.4848 18.3752C18.5923 18.3127 18.6742 18.2137 18.7161 18.0956C18.7579 17.9776 18.757 17.8482 18.7135 17.7304C18.67 17.6125 18.5866 17.5138 18.4783 17.4517C18.3699 17.3897 18.2435 17.3682 18.1214 17.3912L7.46388 19.9298C7.39921 19.9431 7.33798 19.9696 7.284 20.0078C7.18375 20.0851 7.11455 20.1963 7.08905 20.3213C7.06354 20.4462 7.08343 20.5765 7.14509 20.6883C7.19089 20.7935 7.27289 20.8786 7.37583 20.9276C7.47878 20.9766 7.59565 20.9863 7.70471 20.9548L13.0355 19.6732Z" fill="#71ACAB"/>
<path d="M20.7013 21.0154C20.6926 20.979 20.6839 20.9426 20.6753 20.9062C20.3985 19.7443 20.1218 18.5824 19.8457 17.4237C19.7994 17.2181 19.7105 17.0245 19.5848 16.8557C19.459 16.687 19.2994 16.547 19.1165 16.4449C18.8232 16.2695 18.4784 16.2047 18.1434 16.2618C17.6937 16.3388 17.2561 16.4732 16.809 16.568C16.496 16.6425 16.1705 16.7201 15.8512 16.7961L14.194 9.83907C14.1624 9.7061 14.1013 9.5818 14.0571 9.45181C14.0297 9.37136 14.0194 9.29352 13.9842 9.20823C13.9584 9.14593 13.9286 9.08544 13.8948 9.02714C13.8491 8.93933 13.8151 8.84539 13.7674 8.75637C13.6913 8.61727 13.616 8.47462 13.5399 8.33552C13.4377 8.16339 13.3258 7.99735 13.2048 7.83823C13.0482 7.62543 12.8794 7.42211 12.6992 7.22933C12.5707 7.09266 12.4313 6.9586 12.2914 6.83636C12.0016 6.5748 11.6857 6.3445 11.3488 6.14923C11.3306 6.1385 11.3166 6.1217 11.3093 6.10175C11.5231 6.0673 11.7386 6.045 11.9549 6.03495C12.4662 6.00403 12.9795 6.02753 13.4865 6.10505C13.9469 6.17416 14.4002 6.28566 14.8409 6.43815C15.4779 6.66087 16.0838 6.9664 16.6434 7.34701C17.1514 7.69075 17.617 8.09488 18.0299 8.55067C18.4839 9.04733 18.8704 9.6028 19.179 10.2023C19.3502 10.5359 19.4962 10.8819 19.6158 11.2374C19.7082 11.5027 19.7868 11.7727 19.8514 12.0461C20.5347 14.9144 21.2178 17.7822 21.9008 20.6494C21.9072 20.6763 21.9132 20.7017 21.9192 20.727L20.7893 20.9961L20.7013 21.0154Z" fill="#E7D5C6"/>
<path d="M8.75031 4.94657C8.70605 4.82221 8.69842 4.68772 8.72834 4.55945C8.75826 4.43117 8.82444 4.31462 8.91886 4.22394C9.03689 4.11106 9.18484 4.03514 9.34494 4.00531C9.50504 3.97549 9.6705 3.99301 9.82146 4.05578C9.92939 4.10266 10.0233 4.1775 10.0936 4.27268C10.1639 4.36787 10.2081 4.48001 10.2218 4.59774L8.75031 4.94657Z" fill="#FEFEFE"/>
<path d="M11.051 11.307C11.7756 11.1344 12.4986 10.9622 13.2216 10.79C13.2988 10.7695 13.3794 10.7652 13.4585 10.7773C13.5375 10.7893 13.6134 10.8176 13.6815 10.8602C13.7495 10.9029 13.8083 10.9591 13.8543 11.0254C13.9002 11.0917 13.9323 11.1667 13.9487 11.2458C14.0885 11.8815 14.2541 12.528 14.4068 13.169C14.4282 13.2441 14.4339 13.3228 14.4237 13.4001C14.4135 13.4773 14.3875 13.5516 14.3474 13.618C14.3072 13.6845 14.2539 13.7418 14.1906 13.7862C14.1274 13.8306 14.0556 13.8613 13.9799 13.8763L9.57918 14.9245C9.46436 14.9564 9.34229 14.9502 9.23081 14.9069C9.11933 14.8636 9.02429 14.7855 8.9596 14.684C8.92263 14.6287 8.89614 14.5669 8.8815 14.5019C8.72489 13.8445 8.56841 13.1875 8.41206 12.5311C8.3925 12.4576 8.38792 12.3809 8.3986 12.3057C8.40928 12.2305 8.43499 12.1583 8.47418 12.0936C8.51336 12.0289 8.5652 11.973 8.62654 11.9292C8.68788 11.8855 8.75744 11.8549 8.83101 11.8392L11.047 11.3113L11.051 11.307Z" fill="#FEFEFE"/>
<path d="M13.0357 19.6748L7.70539 20.9445C7.59633 20.976 7.47946 20.9663 7.37651 20.9173C7.27357 20.8683 7.19156 20.7832 7.14577 20.678C7.08411 20.5662 7.06421 20.4359 7.08972 20.311C7.11522 20.1861 7.18443 20.0748 7.28468 19.9975C7.33866 19.9594 7.39989 19.9328 7.46456 19.9196L18.1174 17.382C18.2395 17.3591 18.3659 17.3805 18.4743 17.4426C18.5826 17.5047 18.6659 17.6034 18.7095 17.7212C18.753 17.8391 18.7539 17.9685 18.712 18.0865C18.6702 18.2045 18.5883 18.3035 18.4808 18.3661C18.4359 18.3809 18.3898 18.3919 18.3431 18.3989L13.0331 19.6637L13.0357 19.6748Z" fill="#FEFEFE"/>
</g>
<g clip-path="url(#clip1_179_2278)">
<path d="M23.2067 29.943C23.2722 29.9627 23.3388 29.9797 23.4033 30.002C23.4497 30.021 23.4543 29.9921 23.4661 29.9559C23.5134 29.8079 23.5672 29.6616 23.6157 29.5131C23.7061 29.235 23.7977 28.9563 23.8846 28.6768C23.9942 28.3244 24.099 27.9711 24.2059 27.6176C24.3026 27.299 24.4045 26.9804 24.4949 26.6622C24.6183 26.2385 24.7396 25.815 24.8586 25.3895C24.9777 24.964 25.1062 24.5578 25.2229 24.1406C25.3785 23.5833 25.5277 23.0243 25.6795 22.4665C25.8239 21.9364 25.9731 21.4073 26.1138 20.8767C26.2775 20.2622 26.4339 19.6456 26.595 19.03C26.7364 18.4874 26.8814 17.9463 27.0198 17.4035C27.1555 16.875 27.2856 16.3452 27.4186 15.8156C27.5696 15.2122 27.7246 14.6065 27.8721 14.0068C28.0064 13.4592 28.1359 12.9108 28.2693 12.3628C28.3081 12.2032 28.3107 12.2043 28.1618 12.1587C28.1355 12.1479 28.1084 12.1368 28.0812 12.1257C27.7052 11.9881 27.331 11.8462 26.9514 11.7174C26.8221 11.6737 26.6945 11.6235 26.5639 11.5803L25.2184 11.1423C24.91 11.0417 24.603 10.9354 24.2937 10.8396C23.8155 10.692 23.336 10.5501 22.8549 10.4095C22.407 10.2754 21.9603 10.1356 21.5106 10.0059C20.9846 9.85514 20.4566 9.71182 19.9296 9.56375C19.5066 9.44599 19.084 9.32735 18.6601 9.21434C18.1481 9.07859 17.6358 8.94613 17.1232 8.81696C16.7085 8.71147 16.2926 8.60962 15.8756 8.51141C15.6501 8.45808 15.6488 8.46371 15.5584 8.68948C15.4134 8.68219 15.2682 8.69939 15.1287 8.74038C14.7711 8.86494 14.5591 9.25032 14.7018 9.56843C14.7511 9.68 14.713 9.69826 14.6316 9.73986C14.332 9.8923 14.1864 10.2505 14.3164 10.5295C14.3581 10.6174 14.3417 10.6425 14.2612 10.6793C13.9428 10.8354 13.7942 11.1882 13.9336 11.4793C13.977 11.5731 13.9519 11.5895 13.8721 11.6296C13.5614 11.7817 13.4111 12.1338 13.5402 12.4176C13.5798 12.5057 13.5707 12.5328 13.4831 12.577C13.1683 12.7293 13.0214 13.088 13.1556 13.3769C13.1958 13.4632 13.1738 13.4871 13.0976 13.5185C12.7865 13.6692 12.6299 14.0116 12.7543 14.2945C12.8087 14.4112 12.7722 14.4353 12.6772 14.4827C12.5369 14.5502 12.4274 14.6687 12.3709 14.8142C12.3144 14.9596 12.3151 15.121 12.373 15.2655C12.4154 15.3568 12.3948 15.3771 12.3118 15.415C11.9993 15.5692 11.8483 15.918 11.9791 16.2025C12.0247 16.3033 11.9962 16.3255 11.9118 16.3669C11.6084 16.5188 11.4626 16.8697 11.59 17.1528C11.6311 17.2446 11.617 17.2666 11.5315 17.3106C11.2191 17.4619 11.0697 17.8267 11.2036 18.1114C11.2465 18.1988 11.2228 18.2168 11.146 18.2521C10.8276 18.4081 10.678 18.7585 10.8102 19.0497C10.8492 19.1365 10.8389 19.1642 10.7547 19.2026C10.4394 19.3537 10.287 19.7132 10.4271 20.0025C10.4718 20.0957 10.4472 20.1134 10.3663 20.1511C10.0561 20.3022 9.90435 20.6528 10.0336 20.9387C10.0778 21.0379 10.0516 21.0621 9.96627 21.1031C9.65756 21.2579 9.51513 21.6133 9.65018 21.8975C9.68996 21.9826 9.67288 22.0043 9.59223 22.039C9.27564 22.1907 9.12176 22.5465 9.25589 22.8354C9.30082 22.9329 9.26968 22.954 9.19181 22.9919C9.11533 23.0257 9.04647 23.0748 8.98942 23.1361C8.93236 23.1974 8.88831 23.2697 8.85995 23.3485C8.83158 23.4274 8.81949 23.5111 8.82442 23.5947C8.82935 23.6783 8.85119 23.76 8.88861 23.8347C8.91685 23.8955 8.88483 23.8989 8.84865 23.9148C8.70123 23.9788 8.57925 24.0904 8.50218 24.2318C8.36906 24.477 8.43231 24.8068 8.63828 24.9352C8.68004 24.9606 8.72773 24.9914 8.76859 24.964C8.80945 24.9366 8.77416 24.878 8.75927 24.837C8.64989 24.5325 8.79368 24.2937 9.11767 24.2488C9.13576 24.287 9.11137 24.3191 9.09805 24.3516C9.03649 24.5019 8.97494 24.6522 8.91338 24.8026C8.85183 24.9529 8.85687 24.9406 8.99054 25.0035C8.90235 25.2189 8.81415 25.4343 8.72632 25.6488C8.69716 25.72 8.69805 25.7553 8.77734 25.7887C9.11171 25.9257 9.44248 26.0714 9.7749 26.2106C10.5104 26.521 11.2445 26.8349 11.9956 27.1097C12.5069 27.2964 13.0074 27.5168 13.5181 27.7074C13.9432 27.8671 14.3677 28.0286 14.7952 28.1852C15.1739 28.3238 15.5519 28.4663 15.932 28.6014C16.1996 28.6967 16.4784 28.7872 16.747 28.89C17.1743 29.0547 17.6133 29.1831 18.0427 29.3425C18.2378 29.4152 18.4379 29.4756 18.6369 29.5387C19.0272 29.6615 19.4193 29.7821 19.8108 29.9044C20.0719 29.9856 20.3308 30.0721 20.5925 30.1495C20.9573 30.2568 21.3244 30.3589 21.6911 30.4618C22.0578 30.5648 22.4095 30.6667 22.7748 30.7455C22.9137 30.7757 22.9266 30.7594 22.9659 30.6184C23.0351 30.3895 23.1155 30.1641 23.2067 29.943Z" fill="white"/>
<path d="M15.5597 8.69407C15.6518 8.46902 15.654 8.46375 15.8769 8.51601C16.2933 8.61398 16.7091 8.71583 17.1244 8.82155C17.6374 8.95155 18.1498 9.08401 18.6614 9.21893C19.0853 9.33194 19.5079 9.45058 19.9308 9.56834C20.4586 9.71466 20.9866 9.85798 21.5119 10.0104C21.9616 10.1402 22.4082 10.28 22.8562 10.4141C23.3362 10.5573 23.8168 10.6966 24.295 10.8442C24.6042 10.94 24.9113 11.0463 25.2197 11.1469L26.5652 11.5849C26.6957 11.6281 26.8234 11.6783 26.9527 11.722C27.3323 11.8508 27.7065 11.9927 28.0825 12.1303C28.1096 12.1414 28.1368 12.1525 28.163 12.1633C28.312 12.2088 28.3094 12.2078 28.2706 12.3674C28.1372 12.9153 28.0076 13.4638 27.8733 14.0114C27.728 14.616 27.5691 15.2212 27.4199 15.8202C27.2868 16.3498 27.1568 16.8796 27.0211 17.4081C26.8826 17.9509 26.7377 18.492 26.5963 19.0346C26.4352 19.6502 26.2788 20.2667 26.115 20.8813C25.9744 21.4119 25.8252 21.941 25.6807 22.4711C25.5304 23.0254 25.3798 23.5879 25.2242 24.1451C25.1075 24.5624 24.9848 24.9792 24.8599 25.3941C24.735 25.809 24.6152 26.2413 24.4962 26.6668C24.4024 26.9857 24.3002 27.3051 24.2072 27.6222C24.1002 27.9757 23.9954 28.329 23.8859 28.6814C23.799 28.9609 23.7074 29.2396 23.617 29.5177C23.5685 29.6662 23.5147 29.8125 23.4674 29.9605C23.453 29.9956 23.4524 30.022 23.4045 30.0066C23.3415 29.9808 23.2735 29.9673 23.2079 29.9476C22.993 29.876 22.7791 29.8018 22.5639 29.7332C22.1636 29.6052 21.7608 29.4854 21.361 29.3535C20.9861 29.2308 20.6105 29.1047 20.2345 28.9846C19.8364 28.8586 19.4408 28.7264 19.0463 28.5915C18.6519 28.4567 18.2404 28.3282 17.8382 28.1923C17.389 28.0412 16.9476 27.8861 16.5 27.7387C16.1617 27.6289 15.825 27.5126 15.489 27.3946C15.1314 27.2696 14.7704 27.1526 14.4077 27.0226C14.0145 26.8821 13.6184 26.7487 13.2257 26.6094C12.8966 26.4921 12.5689 26.3713 12.2398 26.254C11.9107 26.1366 11.5885 26.0201 11.2612 25.8984C10.995 25.7996 10.7197 25.6982 10.4514 25.5945C9.96952 25.4085 9.48944 25.2181 9.00865 25.0294C8.87585 24.9668 8.87586 24.9668 8.9315 24.8284C8.98714 24.6901 9.05461 24.5278 9.11616 24.3775C9.12948 24.3449 9.15387 24.3128 9.13579 24.2746C9.28772 24.2505 9.4432 24.2691 9.58502 24.3282C9.58056 24.3455 9.57378 24.362 9.56486 24.3774C9.52916 24.4143 9.50824 24.463 9.50613 24.5142C9.50401 24.5654 9.52085 24.6156 9.5534 24.655C9.62145 24.7609 9.70304 24.8662 9.85665 24.848C9.85682 24.8559 9.85857 24.8638 9.8618 24.871C9.86502 24.8782 9.86966 24.8848 9.87543 24.8902C9.88121 24.8956 9.888 24.8998 9.89542 24.9026C9.90284 24.9053 9.91074 24.9066 9.91865 24.9062C9.93528 24.913 9.9532 24.9142 9.9655 24.8967C10.0109 24.9193 10.0616 24.9289 10.1121 24.9244C10.1627 24.9199 10.211 24.9015 10.2519 24.8712C10.2748 24.8601 10.2952 24.8445 10.312 24.8254C10.3288 24.8062 10.3416 24.7838 10.3496 24.7596C10.3576 24.7354 10.3607 24.7098 10.3586 24.6844C10.3566 24.659 10.3495 24.6343 10.3377 24.6118C10.2894 24.511 10.2107 24.4281 10.1127 24.3749C10.0685 24.2714 10.0026 24.1787 9.91945 24.1031C9.83635 24.0274 9.73797 23.9706 9.63097 23.9364C9.53644 23.8977 9.4324 23.8972 9.33602 23.868C9.37037 23.6768 9.47125 23.5128 9.53275 23.3327C9.68475 23.3034 9.84186 23.3206 9.98378 23.3819C9.97939 23.3991 9.9726 23.4157 9.96362 23.4311C9.86724 23.5292 9.89684 23.6316 9.95973 23.7251C10.0226 23.8186 10.1092 23.9167 10.2503 23.9016C10.2519 23.9175 10.2594 23.9323 10.2713 23.9429C10.2833 23.9535 10.2988 23.9592 10.3148 23.9588C10.3305 23.9652 10.3493 23.9668 10.3616 23.9492C10.4245 23.9745 10.4936 23.9797 10.5596 23.9641C10.6256 23.9485 10.6853 23.9129 10.7305 23.8621C10.7808 23.7893 10.7447 23.6277 10.658 23.5399C10.6222 23.4992 10.5743 23.471 10.5214 23.4593L10.5085 23.4284C10.4644 23.3233 10.3977 23.2292 10.3133 23.153C10.2288 23.0767 10.1286 23.02 10.0197 22.987C9.91888 22.9598 9.81667 22.9378 9.71352 22.9212C9.76641 22.74 9.82974 22.562 9.90319 22.3881C10.0636 22.3588 10.2288 22.3762 10.3793 22.4383C10.3744 22.4554 10.3676 22.4719 10.3592 22.4875C10.3252 22.5225 10.3045 22.5683 10.3009 22.617C10.2972 22.6656 10.3108 22.714 10.3392 22.7534C10.4116 22.8662 10.4909 22.9695 10.6462 22.9572C10.6477 22.9733 10.6552 22.9883 10.6673 22.9992C10.6793 23.01 10.695 23.0159 10.7112 23.0156C10.727 23.022 10.7449 23.0232 10.7572 23.0057C10.8172 23.0332 10.8847 23.04 10.9491 23.0249C11.0135 23.0099 11.0712 22.9739 11.1132 22.9225C11.1928 22.8279 11.1418 22.7403 11.094 22.655C11.0757 22.6197 11.05 22.5889 11.0187 22.5645C10.9874 22.5402 10.9512 22.5229 10.9126 22.514L10.9005 22.4834C10.8564 22.3808 10.791 22.2888 10.7087 22.2135C10.6265 22.1382 10.5291 22.0814 10.4232 22.0467C10.3129 22.0159 10.2007 21.9923 10.0873 21.9759C10.1326 21.7953 10.2345 21.6338 10.2702 21.4492C10.4447 21.4111 10.6266 21.4288 10.7902 21.5C10.7012 21.5775 10.6508 21.6656 10.7207 21.7795C10.7906 21.8933 10.8633 22.0226 11.0348 22.0107C11.036 22.027 11.0436 22.0421 11.056 22.0527C11.0683 22.0633 11.0843 22.0686 11.1005 22.0674C11.1703 22.0867 11.2435 22.0897 11.3147 22.0761C11.5065 22.052 11.5956 21.8893 11.4965 21.7317C11.4771 21.6906 11.4491 21.6541 11.4145 21.6247C11.3798 21.5952 11.3393 21.5736 11.2956 21.5612C11.2583 21.4555 11.1976 21.3597 11.1182 21.281C11.0388 21.2023 10.9426 21.1426 10.8368 21.1064C10.7106 21.0641 10.5797 21.0377 10.4469 21.0278C10.4807 20.9452 10.5149 20.8617 10.5488 20.7791C10.5826 20.6964 10.6435 20.6126 10.6375 20.5074C10.8128 20.4613 10.9982 20.4744 11.1649 20.5448C11.1178 20.5905 11.0893 20.6522 11.0852 20.7178C11.0811 20.7833 11.1015 20.848 11.1425 20.899C11.2132 20.995 11.3143 21.0639 11.4294 21.0945L11.4942 21.121C11.5593 21.1409 11.6285 21.1438 11.6952 21.1294C11.8869 21.093 11.9971 20.981 11.8849 20.776C11.8649 20.7378 11.8375 20.7039 11.8044 20.6765C11.7713 20.649 11.733 20.6284 11.6918 20.6158L11.6795 20.5861C11.6351 20.4812 11.5684 20.3873 11.4839 20.3111C11.3995 20.2349 11.2994 20.1781 11.1907 20.1448C11.0705 20.1083 10.9464 20.0864 10.8209 20.0796L11.0229 19.5587C11.1977 19.511 11.3834 19.524 11.5495 19.5957C11.5024 19.6458 11.4755 19.7115 11.4738 19.7801C11.4721 19.8488 11.4957 19.9156 11.5403 19.9676C11.6125 20.0526 11.7079 20.1145 11.8148 20.1458L11.8778 20.1716C11.9593 20.1882 12.0434 20.1876 12.1248 20.17C12.2956 20.1199 12.3535 20.0009 12.2826 19.8395C12.2645 19.7961 12.2366 19.7576 12.2012 19.7268C12.1657 19.6961 12.1236 19.674 12.0782 19.6623L12.0662 19.6318C12.02 19.5236 11.9503 19.4273 11.8621 19.3498C11.774 19.2723 11.6696 19.2156 11.5566 19.1839C11.4423 19.1522 11.3251 19.1324 11.2067 19.1248C11.2564 18.946 11.3415 18.7807 11.4064 18.6071C11.596 18.5545 11.7978 18.5716 11.9754 18.6554C11.9522 18.6642 11.9303 18.6763 11.9106 18.6914C11.8258 18.7737 11.8508 18.8599 11.893 18.949C11.9182 19.0101 11.9605 19.0625 12.0149 19.0999C12.0692 19.1373 12.1333 19.158 12.1992 19.1596C12.201 19.1755 12.2085 19.1901 12.2204 19.2007C12.2324 19.2113 12.2478 19.217 12.2637 19.2168C12.3104 19.2226 12.3591 19.2333 12.4017 19.2343C12.4588 19.241 12.5167 19.2305 12.568 19.2042C12.6194 19.1779 12.6618 19.137 12.6901 19.0866C12.7043 19.0305 12.7018 18.9715 12.6829 18.9168C12.664 18.8622 12.6296 18.8144 12.5839 18.7793C12.5499 18.7472 12.5081 18.7245 12.4627 18.7133L12.4495 18.6832C12.4043 18.5771 12.3364 18.4823 12.2506 18.4054C12.1648 18.3286 12.0632 18.2717 11.9529 18.2386C11.8351 18.2089 11.7157 18.1864 11.5952 18.1712C11.5625 18.1311 11.5943 18.0959 11.6075 18.0612C11.6618 17.9285 11.7155 17.7975 11.7709 17.6621C11.9533 17.6085 12.1484 17.6198 12.323 17.6942C12.2668 17.7841 12.2186 17.8742 12.2728 17.9816C12.3032 18.0444 12.3469 18.0998 12.4009 18.1439C12.4548 18.1879 12.5177 18.2197 12.5853 18.2368L12.6527 18.2644C12.6693 18.2712 12.6863 18.2721 12.7 18.2561C12.7595 18.2864 12.8278 18.2947 12.8929 18.2795C12.958 18.2643 13.0158 18.2266 13.056 18.173C13.0822 18.1259 13.0931 18.0719 13.0871 18.0185C13.0812 17.965 13.0586 17.9148 13.0227 17.875C12.9758 17.8151 12.9158 17.767 12.8472 17.7344C12.8033 17.6314 12.7379 17.5392 12.6554 17.4638C12.5729 17.3884 12.4753 17.3316 12.369 17.2973C12.2344 17.2575 12.0952 17.235 11.9549 17.2304L12.164 16.7196C12.3539 16.6613 12.5582 16.6742 12.7389 16.7559C12.694 16.7859 12.6617 16.8317 12.6486 16.8842C12.6354 16.9367 12.6422 16.9922 12.6676 17.0398C12.741 17.19 12.8599 17.2766 12.9835 17.2667C12.9845 17.2827 12.9917 17.2976 13.0035 17.3084C13.0153 17.3192 13.0308 17.3249 13.0468 17.3244C13.0634 17.3312 13.0813 17.3324 13.0936 17.3148C13.1331 17.3358 13.1774 17.3462 13.2222 17.3449C13.267 17.3436 13.3107 17.3308 13.3491 17.3075C13.4867 17.251 13.5191 17.1667 13.4646 17.0253C13.4185 16.924 13.3386 16.8419 13.2387 16.7932C13.1951 16.69 13.1299 16.5975 13.0475 16.522C12.965 16.4464 12.8673 16.3896 12.7609 16.3553C12.6265 16.3158 12.4876 16.2934 12.3476 16.2887L12.556 15.7797C12.7383 15.7203 12.9359 15.7299 13.1111 15.8069C13.1072 15.8243 13.1004 15.8409 13.091 15.8561C13.0005 15.9423 13.0295 16.0362 13.0831 16.1249C13.1485 16.2348 13.2249 16.3452 13.3812 16.3281C13.3831 16.3438 13.3909 16.3583 13.4028 16.3687C13.4148 16.3791 13.4302 16.3847 13.446 16.3844C13.4618 16.3908 13.4802 16.3932 13.4929 16.3748C13.5277 16.3935 13.5663 16.404 13.6058 16.4056C13.6453 16.4072 13.6847 16.3999 13.7211 16.3841C13.7511 16.3791 13.7797 16.3673 13.8046 16.3497C13.8295 16.3321 13.8501 16.309 13.8649 16.2823C13.8797 16.2555 13.8882 16.2258 13.8899 16.1953C13.8916 16.1648 13.8864 16.1344 13.8747 16.1062C13.8311 15.9951 13.7473 15.9047 13.6401 15.8531C13.5956 15.7482 13.5288 15.6544 13.4444 15.5782C13.36 15.502 13.26 15.4452 13.1513 15.4117C13.0197 15.3754 12.8842 15.3544 12.7477 15.3491L12.9565 14.8392C13.1464 14.7805 13.3509 14.7931 13.5317 14.8746C13.5127 14.9212 13.454 14.9372 13.4392 14.9907C13.3933 15.1577 13.5996 15.4003 13.7755 15.385C13.777 15.4012 13.7845 15.4162 13.7966 15.427C13.8086 15.4379 13.8243 15.4437 13.8405 15.4435C13.8563 15.4499 13.8742 15.4511 13.8865 15.4335C13.9438 15.4587 14.0073 15.4661 14.069 15.4548C14.1306 15.4434 14.1876 15.4139 14.2324 15.3699C14.2549 15.3515 14.2717 15.3271 14.2812 15.2996C14.2906 15.2721 14.2923 15.2426 14.286 15.2142C14.2423 15.0937 14.1916 14.9703 14.0429 14.9392L14.0313 14.9077C13.9869 14.8049 13.9213 14.7127 13.8387 14.6373C13.7561 14.5619 13.6584 14.505 13.5521 14.4703C13.4178 14.4308 13.2789 14.4084 13.1389 14.4038L13.3484 13.8921C13.5381 13.835 13.7417 13.8477 13.9224 13.928C13.8109 14.0507 13.7954 14.1059 13.8568 14.2204C13.8865 14.282 13.9296 14.336 13.9829 14.3787C14.0362 14.4213 14.0984 14.4513 14.1649 14.4666C14.1907 14.5008 14.2261 14.4917 14.2589 14.4867C14.3299 14.5137 14.4072 14.5197 14.4817 14.504C14.5147 14.5005 14.5464 14.4892 14.5742 14.471C14.6019 14.4528 14.625 14.4283 14.6414 14.3993C14.6579 14.3704 14.6672 14.338 14.6686 14.3048C14.6701 14.2716 14.6636 14.2386 14.6498 14.2084C14.6034 14.1027 14.5223 14.0163 14.42 13.9634C14.3752 13.859 14.3084 13.7655 14.2242 13.6894C14.14 13.6133 14.0404 13.5563 13.9321 13.5224C13.8007 13.485 13.6651 13.4639 13.5285 13.4598L13.7394 12.9446C13.929 12.8914 14.1308 12.9055 14.3108 12.9846C14.2015 13.1216 14.1858 13.2075 14.2705 13.3325C14.34 13.4283 14.4404 13.4969 14.5548 13.5269L14.6195 13.5535C14.6353 13.5599 14.6523 13.5607 14.6646 13.5432C14.7125 13.5671 14.7659 13.5776 14.8193 13.5734C14.8727 13.5692 14.924 13.5506 14.9677 13.5195C15.0052 13.4974 15.0341 13.4632 15.0495 13.4224C15.0649 13.3816 15.0659 13.3367 15.0523 13.2954C15.0392 13.2374 15.0107 13.1841 14.9698 13.1412C14.9289 13.0982 14.8771 13.0672 14.82 13.0515L14.8071 13.0205C14.7616 12.9138 14.6933 12.8185 14.6068 12.7414C14.5204 12.6643 14.418 12.6073 14.307 12.5745C14.1919 12.5463 14.0753 12.5243 13.9579 12.5085C13.9431 12.4697 13.968 12.4388 13.9814 12.4063C14.0375 12.2691 14.094 12.1311 14.1502 11.994C14.3321 11.9444 14.5253 11.9594 14.6971 12.0362C14.5773 12.1863 14.5773 12.2613 14.6893 12.4097C14.7565 12.4887 14.8441 12.5476 14.9425 12.5801L15.0055 12.6059C15.0212 12.6124 15.0391 12.6136 15.0518 12.5952C15.1123 12.6219 15.1796 12.6288 15.2444 12.615C15.3091 12.6011 15.3679 12.5672 15.4125 12.518C15.4721 12.4398 15.4567 12.3226 15.3748 12.2132C15.3344 12.1571 15.2749 12.1177 15.2075 12.1026L15.1955 12.072C15.1515 11.9693 15.0862 11.8772 15.0039 11.8019C14.9216 11.7266 14.8242 11.6698 14.7182 11.6353C14.5979 11.6 14.4747 11.576 14.3499 11.5635L14.5641 11.0405C14.7325 11 14.9091 11.0148 15.0681 11.0826C15.053 11.1195 15.0379 11.1565 15.0228 11.1934C14.9483 11.3754 15.1319 11.6158 15.3329 11.6016C15.3347 11.6175 15.3422 11.6321 15.3542 11.6427C15.3661 11.6533 15.3815 11.659 15.3974 11.6588C15.4573 11.6701 15.518 11.6771 15.5789 11.6798C15.7544 11.6757 15.8734 11.5448 15.8295 11.4047C15.8162 11.3461 15.7877 11.2921 15.7467 11.2483C15.7057 11.2044 15.6539 11.1723 15.5964 11.1553L15.5836 11.1243C15.5401 11.0212 15.4751 10.9288 15.3928 10.8533C15.3104 10.7777 15.2128 10.721 15.1066 10.6867C14.9927 10.6547 14.8766 10.6311 14.7593 10.6164C14.8312 10.4406 14.9032 10.2647 14.977 10.0845C15.1444 10.0524 15.3175 10.0721 15.4732 10.1409C15.3562 10.3168 15.356 10.3896 15.4605 10.5114C15.5266 10.591 15.6149 10.649 15.7142 10.6779L15.7807 10.7052C15.7879 10.7276 15.7935 10.7165 15.7985 10.7042C16.0042 10.7535 16.1389 10.7091 16.1987 10.5981C16.2772 10.4537 16.1749 10.2692 15.9819 10.2014L15.9699 10.1708C15.925 10.0662 15.8581 9.97267 15.7737 9.8965C15.6894 9.82033 15.5896 9.76336 15.4812 9.72947C15.3815 9.69584 15.2774 9.68809 15.1758 9.66397C15.2186 9.53366 15.2739 9.4078 15.341 9.28814C15.3597 9.26618 15.3737 9.2406 15.3822 9.213C15.3907 9.1854 15.3935 9.15637 15.3903 9.12769C15.5496 9.10149 15.713 9.12236 15.8604 9.18777C15.787 9.27472 15.7282 9.37076 15.7969 9.48C15.8657 9.58923 15.9363 9.71875 16.1042 9.69818C16.1051 9.71418 16.1123 9.72915 16.1241 9.73993C16.1359 9.7507 16.1514 9.75643 16.1674 9.7559C16.2599 9.78821 16.3606 9.78783 16.453 9.75481C16.4844 9.74641 16.5135 9.73084 16.5379 9.70932C16.5623 9.68779 16.5814 9.6609 16.5938 9.63075C16.6061 9.6006 16.6113 9.56801 16.609 9.53554C16.6067 9.50307 16.5969 9.4716 16.5804 9.44361C16.5324 9.34641 16.4531 9.26838 16.3553 9.22209C16.3124 9.12017 16.2483 9.02868 16.1673 8.95371C16.0862 8.87875 15.9901 8.82204 15.8853 8.78738C15.7789 8.7493 15.6701 8.71813 15.5597 8.69407ZM15.9279 17.1749C15.9491 17.1777 15.9697 17.1837 15.9891 17.1927C16.265 17.3641 16.5555 17.5109 16.8571 17.6313C17.65 17.9714 18.4506 18.2951 19.2652 18.5845C19.8532 18.7935 20.4434 18.992 21.043 19.1626C21.1846 19.2055 21.3302 19.2338 21.4776 19.2472C21.5092 19.2498 21.55 19.2625 21.5628 19.2236C21.5757 19.1847 21.5306 19.1724 21.5103 19.1497C21.4991 19.1406 21.4867 19.1331 21.4734 19.1274L21.1255 18.9162C21.1588 18.9298 21.1946 18.9373 21.2282 18.95C21.5823 19.0837 21.9459 19.2193 22.3025 19.3591C22.3743 19.3885 22.4019 19.366 22.4199 19.3046C22.5144 19.0538 22.6167 18.8041 22.7094 18.5526C22.9856 17.7983 23.2344 17.0359 23.4654 16.2672C23.6578 15.6275 23.8354 14.9816 24.0129 14.3409C24.0404 14.2413 24.0309 14.1923 23.9248 14.1468C23.3443 13.8947 22.7537 13.6672 22.1585 13.4533C21.3227 13.1582 20.4794 12.8889 19.6317 12.6352C19.0288 12.455 18.4247 12.2805 17.8171 12.1169C17.7491 12.0983 17.7226 12.1131 17.6988 12.1712C17.6438 12.3057 17.5773 12.4355 17.52 12.568C16.9034 14.0165 16.364 15.4934 15.8456 16.979C15.7893 17.1366 15.7902 17.1369 15.9279 17.1749ZM12.7804 21.0801C12.82 21.0607 12.8521 21.0287 12.8718 20.9892C13.0889 20.6171 13.2834 20.2323 13.4541 19.8367C13.6332 19.4492 13.8043 19.0563 13.9808 18.6676C14.1573 18.279 14.311 17.9088 14.4693 17.5271C15.0264 16.1816 15.6001 14.8429 16.1129 13.4782C16.2473 13.1227 16.3987 12.7802 16.5254 12.4236C16.6718 12.0185 16.8265 11.6158 16.9733 11.2099C17.0919 10.8828 17.1984 10.5528 17.3009 10.2201C17.3275 10.1608 17.3331 10.0943 17.3168 10.0315C17.2633 10.0425 17.2496 10.081 17.2295 10.1149C16.9809 10.5324 16.7926 10.9799 16.5836 11.4178C16.3846 11.8363 16.2025 12.2636 16.0154 12.688C15.8241 13.1228 15.6403 13.5691 15.4554 14.0107C14.9744 15.1554 14.4931 16.3009 14.0558 17.4635C13.9383 17.7757 13.8039 18.0789 13.6917 18.3953C13.5258 18.8478 13.3447 19.2951 13.1884 19.7515C13.0825 20.0602 12.966 20.3646 12.8657 20.6746C12.8141 20.8038 12.7852 20.941 12.7804 21.0801ZM23.8651 11.4421C23.301 11.1999 22.7225 10.9876 22.1412 10.7999C21.648 10.639 21.1519 10.4902 20.6505 10.3568C19.9664 10.1693 19.2724 10.0202 18.5716 9.90995C18.3485 9.86707 18.1218 9.84572 17.8945 9.8462C17.8713 9.84799 17.838 9.83949 17.8303 9.87328C17.8226 9.90708 17.851 9.91767 17.8741 9.92611C17.9712 9.9659 18.0671 10.0113 18.1656 10.0455C18.5646 10.1668 18.9658 10.2828 19.366 10.4036C19.7663 10.5244 20.1441 10.6401 20.534 10.7587C20.9708 10.8924 21.4091 11.0226 21.8451 11.1611C22.2537 11.2914 22.6605 11.4269 23.0656 11.5675C23.6747 11.7799 24.2822 12.001 24.8916 12.2125C25.1593 12.3077 25.4273 12.4021 25.6971 12.492C25.7924 12.5239 25.8922 12.5422 25.9907 12.5661C26.01 12.574 26.0358 12.5733 26.0463 12.5478C26.0567 12.5223 26.0378 12.5135 26.0251 12.5021C26.0088 12.4881 25.9915 12.4752 25.9734 12.4635C25.5689 12.1809 25.1183 11.9861 24.6754 11.777C24.4146 11.6528 24.1382 11.554 23.8651 11.4421Z" fill="#A0D1CA"/>
<path d="M9.01094 25.0262C9.49174 25.2149 9.97182 25.4053 10.4537 25.5914C10.7184 25.6936 10.9929 25.7947 11.2634 25.8952C11.5873 26.0155 11.9134 26.1326 12.2421 26.2508C12.5709 26.369 12.8989 26.489 13.228 26.6063C13.6207 26.7455 14.0168 26.879 14.41 27.0194C14.7666 27.147 15.1275 27.264 15.4913 27.3914C15.8273 27.5095 16.164 27.6258 16.5023 27.7356C16.9525 27.884 17.394 28.0391 17.8405 28.1891C18.2427 28.3251 18.652 28.4537 19.0486 28.5883C19.4452 28.723 19.8387 28.8554 20.2368 28.9815C20.6128 29.1016 20.9884 29.2276 21.3633 29.3504C21.7631 29.4823 22.1659 29.602 22.5662 29.73C22.7814 29.7986 22.9953 29.8729 23.2102 29.9445C23.1244 30.1748 23.0503 30.4092 22.988 30.6469C22.9505 30.7835 22.9376 30.7998 22.7969 30.774C22.4316 30.6952 22.073 30.5925 21.7132 30.4904C21.3533 30.3882 20.9794 30.2854 20.6146 30.1781C20.3529 30.1007 20.094 30.0142 19.8329 29.9329C19.4414 29.8106 19.0493 29.69 18.6591 29.5672C18.46 29.5042 18.2599 29.4438 18.0648 29.3711C17.6354 29.2117 17.1964 29.0832 16.7691 28.9185C16.504 28.8172 16.2261 28.727 15.9541 28.63C15.574 28.4949 15.196 28.3524 14.8173 28.2138C14.3898 28.0572 13.9654 27.8957 13.5402 27.7359C13.0295 27.5453 12.5301 27.3223 12.0178 27.1382C11.2666 26.8635 10.5325 26.5495 9.797 26.2391C9.46351 26.1025 9.13237 25.9577 8.79945 25.8173C8.71979 25.7847 8.71839 25.7482 8.74842 25.6773C8.83806 25.4584 8.92362 25.242 9.01094 25.0262Z" fill="#71ACAB"/>
<path d="M13.4056 16.3658C13.3898 16.3661 13.3744 16.3605 13.3625 16.3501C13.3505 16.3397 13.3428 16.3253 13.3408 16.3095C13.3625 16.2584 13.3728 16.2031 13.371 16.1477C13.3691 16.0922 13.3552 16.0378 13.3301 15.9884C13.305 15.939 13.2695 15.8957 13.2259 15.8616C13.1823 15.8276 13.1317 15.8035 13.0778 15.7912C12.9025 15.7142 12.705 15.7046 12.5227 15.7641C12.4261 15.789 12.3428 15.8503 12.2901 15.9353C12.2374 16.0203 12.2194 16.1223 12.2399 16.22C12.2493 16.267 12.2632 16.2953 12.3195 16.2752C12.4595 16.2799 12.5984 16.3022 12.7327 16.3418C12.8391 16.376 12.9369 16.4329 13.0194 16.5084C13.1018 16.584 13.167 16.6765 13.2106 16.7797C13.2554 16.9798 13.2435 17.1637 13.0646 17.3009C13.0567 17.2981 13.0482 17.2975 13.0399 17.2992C13.0317 17.3009 13.024 17.3048 13.0178 17.3105C13.0018 17.311 12.9863 17.3053 12.9745 17.2945C12.9627 17.2837 12.9555 17.2688 12.9546 17.2528C12.9827 17.1835 12.9899 17.1074 12.9751 17.0342C12.9604 16.961 12.9244 16.8938 12.8717 16.8411C12.8261 16.7927 12.7596 16.7829 12.7082 16.7413C12.5275 16.6596 12.3232 16.6467 12.1333 16.705C12.0365 16.7302 11.9529 16.7918 11.9001 16.8771C11.8473 16.9624 11.8293 17.0647 11.8498 17.1627C11.8592 17.2097 11.8728 17.2389 11.9294 17.2179C12.0697 17.2226 12.2089 17.2451 12.3435 17.2848C12.4498 17.3192 12.5474 17.376 12.6299 17.4513C12.7124 17.5267 12.7778 17.619 12.8217 17.7219C12.8645 17.9221 12.8525 18.1061 12.6745 18.2436C12.6666 18.2408 12.6581 18.24 12.6498 18.2415C12.6415 18.2429 12.6337 18.2466 12.6272 18.252L12.5598 18.2244C12.6234 17.9291 12.5445 17.7624 12.2982 17.68C12.1236 17.6056 11.9285 17.5943 11.7462 17.6479C11.6537 17.6727 11.5732 17.7302 11.5196 17.8097C11.466 17.8893 11.4428 17.9856 11.4545 18.0807C11.463 18.1622 11.4968 18.1894 11.573 18.158C11.6935 18.1733 11.813 18.1958 11.9307 18.2255C12.0409 18.2586 12.1425 18.3154 12.2283 18.3921C12.3141 18.4687 12.3822 18.5633 12.4277 18.6692L12.4406 18.7001C12.4466 18.7387 12.4504 18.7777 12.4521 18.8167C12.4556 18.9855 12.4096 19.1278 12.2415 19.2037C12.2256 19.2039 12.2102 19.1981 12.1983 19.1876C12.1864 19.177 12.1788 19.1624 12.1771 19.1465C12.1967 19.0988 12.2064 19.0475 12.2057 18.9959C12.2049 18.9444 12.1937 18.8935 12.1727 18.8465C12.1517 18.7995 12.1213 18.7572 12.0835 18.7224C12.0456 18.6876 12.0011 18.6609 11.9526 18.644C11.7749 18.5602 11.5731 18.5431 11.3836 18.5958C11.2861 18.6122 11.1988 18.6661 11.1403 18.7461C11.0818 18.8261 11.0567 18.9258 11.0703 19.0238C11.0764 19.1013 11.1017 19.1393 11.1839 19.1134C11.3022 19.1211 11.4195 19.1409 11.5337 19.1725C11.6467 19.2043 11.7511 19.2609 11.8393 19.3384C11.9274 19.4159 11.9972 19.5122 12.0433 19.6204L12.0553 19.651C12.0827 19.8562 12.0768 20.0478 11.8568 20.1558L11.7938 20.13C11.7964 20.1085 11.7982 20.0866 11.8026 20.0659C11.8188 20.0158 11.8244 19.963 11.8191 19.9107C11.8139 19.8584 11.7978 19.8079 11.7721 19.7622C11.7463 19.7165 11.7113 19.6767 11.6694 19.6454C11.6274 19.614 11.5794 19.5917 11.5284 19.5799C11.3623 19.5082 11.1767 19.4952 11.0019 19.5429C10.9038 19.5604 10.8161 19.6153 10.7572 19.6959C10.6982 19.7766 10.6726 19.8769 10.6856 19.9759C10.6925 20.0537 10.7187 20.0921 10.7998 20.0638C10.9253 20.0706 11.0495 20.0925 11.1697 20.129C11.2784 20.1623 11.3785 20.2191 11.4629 20.2953C11.5473 20.3715 11.614 20.4654 11.6584 20.5704L11.6708 20.6001C11.6741 20.6394 11.6807 20.678 11.6811 20.7172C11.6849 20.885 11.6385 21.0282 11.4722 21.1049L11.4075 21.0784C11.411 21.0572 11.4128 21.0354 11.4172 21.0146C11.4325 20.9645 11.4374 20.9119 11.4318 20.8599C11.4261 20.8079 11.41 20.7577 11.3843 20.7122C11.3587 20.6668 11.3241 20.6271 11.2826 20.5955C11.2411 20.5639 11.1936 20.5412 11.143 20.5287C10.9763 20.4583 10.7909 20.4452 10.6156 20.4913C10.5208 20.509 10.4358 20.5614 10.3771 20.6383C10.3185 20.7151 10.2903 20.811 10.298 20.9074C10.3033 21.0019 10.3363 21.0411 10.4297 21.0126C10.5625 21.0225 10.6934 21.0489 10.8196 21.0912C10.9254 21.1274 11.0216 21.187 11.101 21.2658C11.1804 21.3445 11.241 21.4403 11.2784 21.5459C11.3184 21.82 11.2674 21.952 11.0833 22.0522C11.0671 22.0534 11.0511 22.0481 11.0388 22.0375C11.0264 22.0269 11.0188 22.0118 11.0176 21.9955C11.0382 21.9461 11.0481 21.8929 11.0468 21.8394C11.0454 21.7859 11.0328 21.7334 11.0098 21.6852C10.9868 21.637 10.9539 21.5943 10.9132 21.5598C10.8726 21.5253 10.8251 21.4998 10.7738 21.4851C10.6103 21.414 10.4284 21.3962 10.2539 21.4344C10.0399 21.4802 9.91578 21.6162 9.91036 21.8141C9.90517 21.9691 9.91475 21.9781 10.071 21.961C10.1844 21.9774 10.2965 22.001 10.4069 22.0318C10.5128 22.0665 10.6101 22.1234 10.6924 22.1986C10.7747 22.2739 10.8401 22.3659 10.8842 22.4685L10.8962 22.4991C10.9276 22.6895 10.9085 22.8634 10.7409 22.9908C10.7331 22.9876 10.7246 22.9869 10.7164 22.9886C10.7082 22.9904 10.7007 22.9946 10.6949 23.0007C10.6787 23.001 10.663 22.9951 10.651 22.9843C10.6389 22.9735 10.6314 22.9585 10.6299 22.9423C10.6516 22.8912 10.6619 22.8359 10.6601 22.7804C10.6583 22.725 10.6443 22.6706 10.6192 22.6212C10.5941 22.5718 10.5585 22.5285 10.515 22.4944C10.4714 22.4604 10.4208 22.4363 10.3669 22.424C10.2164 22.3619 10.0511 22.3445 9.89072 22.3737C9.67751 22.4127 9.55088 22.5323 9.52553 22.719C9.50018 22.9057 9.52793 22.9253 9.70105 22.9068C9.8042 22.9235 9.90641 22.9455 10.0073 22.9727C10.1161 23.0057 10.2163 23.0624 10.3008 23.1386C10.3853 23.2149 10.4519 23.3089 10.496 23.4141L10.5089 23.445C10.5403 23.6354 10.5221 23.8097 10.3527 23.9364L10.3058 23.9459C10.2898 23.9463 10.2743 23.9406 10.2624 23.93C10.2504 23.9194 10.2429 23.9047 10.2413 23.8887C10.2631 23.8376 10.2734 23.7823 10.2715 23.7269C10.2697 23.6714 10.2557 23.617 10.2307 23.5676C10.2056 23.5182 10.17 23.4749 10.1264 23.4408C10.0828 23.4068 10.0323 23.3827 9.97832 23.3704C9.8364 23.3091 9.67929 23.292 9.52729 23.3212C9.43709 23.3218 9.3497 23.3533 9.27962 23.4105C9.20955 23.4677 9.161 23.5471 9.142 23.6356C9.09976 23.8236 9.1385 23.8713 9.33164 23.8539C9.42802 23.8831 9.53026 23.888 9.62659 23.9223C9.73359 23.9565 9.83196 24.0133 9.91507 24.089C9.99817 24.1646 10.0641 24.2573 10.1083 24.3608C10.151 24.561 10.14 24.7454 9.96112 24.8826C9.95319 24.8798 9.94464 24.8792 9.93639 24.8808C9.92814 24.8825 9.92049 24.8864 9.91427 24.8921C9.89821 24.8926 9.88264 24.8867 9.87089 24.8757C9.85914 24.8648 9.85215 24.8496 9.85139 24.8335C9.92181 24.5842 9.825 24.3988 9.58749 24.3149C9.44567 24.2558 9.29019 24.2372 9.13825 24.2613C8.81339 24.3058 8.67048 24.545 8.77985 24.8495C8.79475 24.8905 8.8447 24.9407 8.78917 24.9765C8.73364 25.0123 8.70062 24.9731 8.65886 24.9478C8.45289 24.8193 8.38964 24.4896 8.52276 24.2443C8.59983 24.1029 8.72181 23.9913 8.86923 23.9274C8.90542 23.9114 8.93743 23.9081 8.90919 23.8472C8.87379 23.7732 8.85352 23.6927 8.84958 23.6106C8.84564 23.5285 8.85811 23.4463 8.88625 23.369C8.91438 23.2917 8.95763 23.2208 9.01344 23.1604C9.06924 23.1 9.13649 23.0513 9.21122 23.0173C9.28822 22.979 9.31899 22.9588 9.2753 22.8608C9.14117 22.5718 9.29504 22.216 9.61162 22.0644C9.68877 22.0283 9.70586 22.0065 9.66958 21.9229C9.53525 21.6369 9.67769 21.2816 9.98568 21.1285C10.0701 21.0871 10.0963 21.0629 10.053 20.9641C9.92484 20.6755 10.0765 20.325 10.3857 20.1765C10.4624 20.1391 10.4891 20.1162 10.4466 20.0279C10.3108 19.7404 10.4632 19.3808 10.7741 19.2279C10.8591 19.1878 10.8679 19.1637 10.8296 19.0751C10.6974 18.7839 10.847 18.4335 11.1654 18.2775C11.2395 18.2411 11.2633 18.2231 11.223 18.1368C11.0865 17.851 11.2359 17.4862 11.5509 17.336C11.6346 17.2963 11.649 17.2735 11.6094 17.1782C11.482 16.8951 11.6278 16.5442 11.9312 16.3923C12.0147 16.3506 12.0432 16.3284 11.9985 16.2279C11.8684 15.9416 12.0194 15.5929 12.3312 15.4403C12.4107 15.401 12.432 15.379 12.3924 15.2909C12.3345 15.1464 12.3338 14.985 12.3903 14.8396C12.4468 14.6941 12.5563 14.5756 12.6966 14.508C12.7908 14.4604 12.8228 14.4345 12.7737 14.3199C12.6493 14.037 12.8059 13.6946 13.117 13.5438C13.1912 13.5075 13.2118 13.4872 13.175 13.4023C13.0391 13.1126 13.1859 12.754 13.5025 12.6023C13.5894 12.5599 13.5992 12.5311 13.5596 12.443C13.4316 12.1565 13.5819 11.8044 13.8915 11.655C13.9685 11.6168 13.9957 11.5951 13.953 11.5047C13.8171 11.215 13.9657 10.8622 14.2806 10.7047C14.3622 10.6653 14.3779 10.6419 14.3358 10.5549C14.2058 10.2758 14.3514 9.91769 14.651 9.76525C14.7324 9.72365 14.7705 9.7054 14.7212 9.59382C14.5785 9.27571 14.7879 8.88925 15.1481 8.76578C15.2876 8.72479 15.4328 8.70757 15.5778 8.71486C15.6721 8.73182 15.7655 8.75392 15.8573 8.78107C15.9621 8.81573 16.0582 8.87244 16.1393 8.9474C16.2203 9.02236 16.2844 9.11386 16.3273 9.21578C16.334 9.25443 16.3419 9.29257 16.3464 9.33138C16.3628 9.41421 16.3512 9.50024 16.3134 9.57586C16.2756 9.65148 16.2137 9.71236 16.1377 9.74887C16.1217 9.7494 16.1061 9.74367 16.0943 9.7329C16.0825 9.72213 16.0754 9.70716 16.0744 9.69116C16.1437 9.44956 16.0565 9.27321 15.8306 9.18074C15.6832 9.11533 15.5199 9.09446 15.3606 9.12066C15.1369 9.1502 14.9988 9.27023 14.9687 9.46113C14.9412 9.63566 14.9746 9.66885 15.1461 9.65695C15.2476 9.68107 15.3517 9.68882 15.4514 9.72245C15.5598 9.75634 15.6596 9.8133 15.744 9.88947C15.8283 9.96564 15.8952 10.0592 15.9402 10.1638L15.9522 10.1944C15.9827 10.3968 15.9657 10.5807 15.768 10.699C15.7655 10.6969 15.7623 10.6958 15.759 10.696C15.7557 10.6962 15.7526 10.6976 15.7503 10.6999L15.6838 10.6727C15.7458 10.3839 15.6757 10.228 15.4427 10.1356C15.287 10.0668 15.114 10.0472 14.9466 10.0793C14.7158 10.1162 14.5739 10.2705 14.5768 10.4832C14.5786 10.6184 14.5872 10.625 14.7288 10.6111C14.8462 10.6259 14.9622 10.6494 15.0761 10.6815C15.1824 10.7157 15.28 10.7725 15.3623 10.848C15.4446 10.9235 15.5097 11.0159 15.5531 11.119L15.566 11.15C15.5719 11.1886 15.5758 11.2275 15.5775 11.2666C15.581 11.4353 15.535 11.5777 15.3669 11.6536C15.351 11.6538 15.3356 11.648 15.3237 11.6374C15.3118 11.6269 15.3042 11.6122 15.3024 11.5964C15.3241 11.5453 15.3344 11.4902 15.3326 11.4348C15.3307 11.3794 15.3169 11.3251 15.2919 11.2758C15.2669 11.2264 15.2314 11.1832 15.188 11.1491C15.1445 11.115 15.0941 11.0909 15.0403 11.0784C14.8813 11.0106 14.7046 10.9958 14.5363 11.0363C14.4365 11.0486 14.3452 11.0991 14.2815 11.1774C14.2178 11.2556 14.1868 11.3554 14.1948 11.4559C14.1992 11.545 14.2253 11.5936 14.3238 11.5601C14.4486 11.5725 14.5718 11.5965 14.6921 11.6318C14.7981 11.6663 14.8955 11.7231 14.9778 11.7984C15.0601 11.8737 15.1254 11.9658 15.1694 12.0685L15.1814 12.0991C15.2128 12.2895 15.1942 12.4646 15.0257 12.5917C15.0073 12.5841 14.9935 12.5929 14.9794 12.6025L14.9164 12.5767C14.919 12.5552 14.9208 12.5333 14.9252 12.5126C14.9407 12.4642 14.9463 12.4133 14.9419 12.3628C14.9374 12.3123 14.9229 12.2633 14.8992 12.2185C14.8755 12.1738 14.8431 12.1343 14.8039 12.1024C14.7647 12.0705 14.7195 12.0468 14.671 12.0327C14.4992 11.9559 14.306 11.941 14.1241 11.9905C14.0263 12.0081 13.9388 12.0627 13.8798 12.1431C13.8209 12.2235 13.7949 12.3234 13.8073 12.4223C13.8157 12.5089 13.8501 12.5373 13.9309 12.5047C14.0484 12.5205 14.1649 12.5425 14.28 12.5707C14.391 12.6035 14.4934 12.6605 14.5798 12.7376C14.6663 12.8147 14.7347 12.91 14.7801 13.0167L14.793 13.0476C14.8244 13.2381 14.8062 13.4123 14.6377 13.5393C14.6299 13.5366 14.6216 13.5362 14.6137 13.538C14.6057 13.5398 14.5984 13.5438 14.5926 13.5496L14.5278 13.5231C14.5313 13.502 14.5331 13.4801 14.5375 13.4593C14.5529 13.411 14.5584 13.3602 14.5538 13.3098C14.5493 13.2594 14.5347 13.2104 14.511 13.1658C14.4872 13.1211 14.4548 13.0818 14.4157 13.0499C14.3765 13.0181 14.3314 12.9945 14.2829 12.9804C14.103 12.9013 13.9011 12.8872 13.7116 12.9405C13.6141 12.967 13.5303 13.0297 13.4772 13.1159C13.424 13.202 13.4056 13.3052 13.4256 13.4043C13.4358 13.4516 13.4509 13.4773 13.5059 13.4578C13.6425 13.4619 13.7781 13.4829 13.9095 13.5204C14.0178 13.5543 14.1174 13.6112 14.2016 13.6873C14.2858 13.7634 14.3526 13.8569 14.3974 13.9614C14.4369 14.1644 14.44 14.3566 14.2363 14.4846C14.2025 14.4872 14.1664 14.4981 14.1423 14.4646C14.2039 14.1768 14.1323 14.0171 13.9007 13.9263C13.72 13.846 13.5164 13.8333 13.3267 13.8904C13.23 13.9161 13.1467 13.978 13.0939 14.0633C13.0411 14.1486 13.0228 14.2509 13.0428 14.349C13.0526 14.3951 13.0658 14.4252 13.1224 14.4042C13.2625 14.4089 13.4013 14.4312 13.5357 14.4708C13.6419 14.5054 13.7396 14.5624 13.8222 14.6378C13.9048 14.7132 13.9704 14.8053 14.0148 14.9082L14.0264 14.9397C14.0578 15.1301 14.0387 15.304 13.8711 15.4314C13.8633 15.4282 13.8548 15.4274 13.8466 15.4292C13.8384 15.431 13.8309 15.4352 13.8251 15.4413C13.8089 15.4416 13.7932 15.4357 13.7812 15.4249C13.7691 15.414 13.7616 15.399 13.7601 15.3829C13.7807 15.3334 13.7906 15.2802 13.7893 15.2268C13.788 15.1733 13.7754 15.1207 13.7523 15.0725C13.7293 15.0244 13.6964 14.9816 13.6557 14.9471C13.6151 14.9126 13.5676 14.8872 13.5163 14.8724C13.3355 14.7909 13.131 14.7783 12.9411 14.8371C12.8448 14.8627 12.7618 14.9243 12.7091 15.0093C12.6565 15.0942 12.6382 15.1961 12.658 15.2939C12.6677 15.34 12.6806 15.3709 12.7376 15.3491C12.8741 15.3543 13.0095 15.3754 13.1412 15.4117C13.2498 15.4451 13.3498 15.5019 13.4342 15.5782C13.5187 15.6544 13.5854 15.7482 13.6299 15.8531C13.6748 16.0531 13.6628 16.2371 13.4827 16.3748L13.4056 16.3658Z" fill="#575757"/>
<path d="M15.928 17.1749C15.7902 17.137 15.7893 17.1366 15.8441 16.9804C16.3625 15.4949 16.9019 14.0179 17.5185 12.5695C17.5732 12.4359 17.6414 12.3067 17.6973 12.1726C17.7225 12.1111 17.749 12.0963 17.8156 12.1184C18.4232 12.282 19.0273 12.4565 19.6302 12.6366C20.4787 12.8907 21.322 13.16 22.157 13.4547C22.7532 13.666 23.3428 13.8961 23.9233 14.1482C24.0301 14.1919 24.0389 14.2428 24.0114 14.3424C23.8321 14.9875 23.6563 15.6289 23.4638 16.2687C23.2329 17.0374 22.9841 17.7998 22.7079 18.5541C22.6151 18.8056 22.5129 19.0552 22.4184 19.306C22.3935 19.3667 22.3728 19.39 22.301 19.3606C21.9487 19.2225 21.5851 19.087 21.2267 18.9515C21.1934 18.9379 21.1584 18.9286 21.124 18.9177C20.9261 18.8294 20.7293 18.7385 20.5302 18.653C19.3516 18.139 18.1473 17.6859 16.9221 17.2956C16.625 17.1944 16.3205 17.1161 16.0113 17.0612C15.9671 17.0544 15.909 17.0316 15.8777 17.0732C15.8463 17.1148 15.9335 17.1289 15.928 17.1749Z" fill="#F1C65E"/>
<path d="M12.7804 21.0801C12.7852 20.9417 12.8138 20.8051 12.865 20.6764C12.9654 20.3664 13.0818 20.062 13.1878 19.7533C13.344 19.2969 13.5251 18.8496 13.691 18.3971C13.806 18.0839 13.9369 17.7792 14.0552 17.4653C14.4924 16.3027 14.9738 15.1572 15.4548 14.0125C15.6347 13.5729 15.8176 13.1264 16.0148 12.6898C16.2018 12.2654 16.384 11.8381 16.5829 11.4196C16.7919 10.9817 16.9802 10.5342 17.2289 10.1167C17.2489 10.0828 17.2591 10.0428 17.3162 10.0333C17.3324 10.0961 17.3268 10.1626 17.3003 10.2219C17.1978 10.5546 17.0913 10.8846 16.9726 11.2117C16.8258 11.6176 16.6712 12.0203 16.5247 12.4254C16.3956 12.7831 16.2456 13.1271 16.1123 13.48C15.6002 14.8429 15.0265 16.1816 14.4687 17.5289C14.3121 17.9113 14.1551 18.2946 13.9801 18.6695C13.8052 19.0443 13.6325 19.451 13.4534 19.8385C13.2828 20.2341 13.0883 20.6189 12.8711 20.991C12.8514 21.0298 12.8195 21.0611 12.7804 21.0801Z" fill="white"/>
<path d="M23.8651 11.4422C24.1365 11.5533 24.4129 11.6521 24.6783 11.7751C25.1211 11.9842 25.5718 12.179 25.9763 12.4616C25.9944 12.4733 26.0116 12.4862 26.0279 12.5002C26.0407 12.5116 26.0574 12.5256 26.0491 12.5459C26.0408 12.5661 26.0139 12.5694 25.9936 12.5642C25.895 12.5403 25.7952 12.522 25.6999 12.4901C25.4301 12.4002 25.1621 12.3058 24.8945 12.2106C24.2865 11.9955 23.679 11.7745 23.0685 11.5655C22.6636 11.4244 22.2568 11.2889 21.8479 11.1592C21.412 11.0207 20.9737 10.8905 20.5368 10.7568C20.1469 10.6382 19.7583 10.519 19.3689 10.4017C18.9795 10.2843 18.5674 10.1649 18.1684 10.0436C18.0685 10.0129 17.9741 9.96399 17.8769 9.9242C17.8542 9.91488 17.8262 9.90341 17.8332 9.87137C17.8401 9.83933 17.8742 9.84608 17.8974 9.8443C18.1247 9.84382 18.3514 9.86516 18.5745 9.90804C19.2753 10.0183 19.9693 10.1674 20.6534 10.3549C21.1547 10.4883 21.6508 10.6371 22.144 10.798C22.7278 10.9898 23.3028 11.2006 23.8651 11.4422Z" fill="white"/>
<path d="M15.928 17.1749C15.9335 17.1289 15.8483 17.1197 15.8792 17.0718C15.9101 17.0239 15.9687 17.053 16.0129 17.0598C16.322 17.1147 16.6265 17.193 16.9237 17.2942C18.1489 17.6845 19.3531 18.1376 20.5318 18.6515C20.7322 18.7336 20.9276 18.828 21.1256 18.9162L21.4735 19.1275C21.4867 19.1331 21.4991 19.1406 21.5103 19.1497C21.5307 19.1724 21.5766 19.1851 21.5629 19.2236C21.5491 19.2621 21.5092 19.2499 21.4776 19.2472C21.3302 19.2338 21.1846 19.2055 21.043 19.1627C20.4434 18.9921 19.8532 18.7935 19.2653 18.5846C18.4506 18.2951 17.65 17.9714 16.8571 17.6313C16.5555 17.5109 16.2651 17.3641 15.9891 17.1927C15.9698 17.1837 15.9491 17.1777 15.928 17.1749Z" fill="white"/>
<path d="M11.1368 20.5312C11.1874 20.5438 11.2349 20.5665 11.2764 20.5981C11.3179 20.6296 11.3525 20.6693 11.3782 20.7148C11.4038 20.7603 11.42 20.8105 11.4256 20.8625C11.4313 20.9145 11.4263 20.9671 11.4111 21.0172C11.4032 21.0365 11.4049 21.0598 11.4013 21.0809C11.2863 21.0504 11.1851 20.9814 11.1144 20.8854C11.0734 20.8344 11.053 20.7697 11.0571 20.7042C11.0613 20.6386 11.0897 20.5769 11.1368 20.5312Z" fill="#71ACAB"/>
<path d="M9.97236 23.3751C10.0263 23.3875 10.0768 23.4115 10.1204 23.4456C10.164 23.4796 10.1996 23.5229 10.2247 23.5723C10.2498 23.6217 10.2637 23.6761 10.2656 23.7316C10.2674 23.7871 10.2571 23.8423 10.2354 23.8934C10.0943 23.9085 10.0133 23.8169 9.94482 23.717C9.87636 23.6171 9.85232 23.521 9.9487 23.4229C9.95879 23.4082 9.96675 23.3921 9.97236 23.3751Z" fill="#71ACAB"/>
<path d="M10.3603 22.4274C10.4142 22.4397 10.4647 22.4638 10.5083 22.4979C10.5519 22.5319 10.5875 22.5752 10.6126 22.6246C10.6377 22.674 10.6516 22.7284 10.6535 22.7839C10.6553 22.8393 10.645 22.8946 10.6233 22.9457C10.468 22.9581 10.3887 22.8548 10.3163 22.742C10.2878 22.7025 10.2743 22.6542 10.2779 22.6055C10.2816 22.5569 10.3022 22.511 10.3362 22.4761C10.346 22.4608 10.354 22.4445 10.3603 22.4274Z" fill="#71ACAB"/>
<path d="M9.58382 24.3237C9.82381 24.4065 9.91887 24.5912 9.84773 24.8423C9.695 24.8609 9.61341 24.7556 9.54536 24.6497C9.51281 24.6103 9.49598 24.5601 9.49809 24.5089C9.50021 24.4576 9.52113 24.4089 9.55682 24.3721C9.56807 24.3573 9.57716 24.341 9.58382 24.3237Z" fill="#71ACAB"/>
<path d="M13.0779 15.7912C13.1318 15.8035 13.1823 15.8275 13.2259 15.8616C13.2695 15.8957 13.3051 15.9389 13.3302 15.9883C13.3553 16.0378 13.3692 16.0921 13.3711 16.1476C13.3729 16.2031 13.3626 16.2583 13.3409 16.3095C13.1847 16.3266 13.1089 16.2145 13.0428 16.1063C12.9916 16.0217 12.9637 15.9251 13.0507 15.8375C13.0623 15.8237 13.0714 15.808 13.0779 15.7912Z" fill="#71ACAB"/>
<path d="M11.5247 19.5836C11.5758 19.5954 11.6238 19.6176 11.6657 19.649C11.7077 19.6804 11.7426 19.7202 11.7684 19.7658C11.7942 19.8115 11.8102 19.8621 11.8155 19.9144C11.8207 19.9666 11.8151 20.0195 11.799 20.0695C11.7911 20.0889 11.7928 20.1121 11.7901 20.1336C11.6832 20.1023 11.5878 20.0404 11.5155 19.9555C11.471 19.9034 11.4473 19.8367 11.449 19.768C11.4507 19.6993 11.4777 19.6336 11.5247 19.5836Z" fill="#71ACAB"/>
<path d="M10.7683 21.4859C10.8195 21.5007 10.867 21.5261 10.9077 21.5606C10.9483 21.5951 10.9812 21.6378 11.0043 21.686C11.0273 21.7342 11.0399 21.7868 11.0412 21.8402C11.0425 21.8937 11.0326 21.9469 11.012 21.9963C10.8411 22.0095 10.7697 21.8868 10.6979 21.7651C10.6261 21.6433 10.6786 21.5652 10.7683 21.4859Z" fill="#71ACAB"/>
<path d="M11.9524 18.6491C12.001 18.666 12.0455 18.6927 12.0834 18.7275C12.1212 18.7623 12.1516 18.8046 12.1726 18.8516C12.1936 18.8986 12.2048 18.9495 12.2056 19.001C12.2063 19.0526 12.1966 19.1039 12.177 19.1516C12.111 19.15 12.047 19.1292 11.9926 19.0918C11.9383 19.0545 11.8959 19.0021 11.8707 18.941C11.8285 18.8519 11.8035 18.7657 11.8883 18.6834C11.908 18.669 11.9296 18.6574 11.9524 18.6491Z" fill="#71ACAB"/>
<path d="M13.8742 13.9011C14.1044 13.9954 14.1801 14.1526 14.1158 14.4393C14.0493 14.424 13.9871 14.394 13.9338 14.3514C13.8805 14.3087 13.8375 14.2547 13.8078 14.1931C13.7472 14.079 13.7627 14.0238 13.8742 13.9011Z" fill="#71ACAB"/>
<path d="M13.4858 14.8497C13.537 14.8644 13.5845 14.8899 13.6252 14.9244C13.6659 14.9588 13.6988 15.0016 13.7218 15.0498C13.7448 15.098 13.7574 15.1505 13.7588 15.204C13.7601 15.2575 13.7502 15.3107 13.7296 15.3601C13.5537 15.3753 13.3474 15.1328 13.3933 14.9658C13.4081 14.9123 13.4632 14.8948 13.4858 14.8497Z" fill="#71ACAB"/>
<path d="M12.3014 17.6874C12.5459 17.7691 12.6266 17.9366 12.5629 18.2318C12.4954 18.2146 12.4325 18.1829 12.3785 18.1388C12.3246 18.0947 12.2809 18.0394 12.2504 17.9766C12.197 17.8674 12.2452 17.7773 12.3014 17.6874Z" fill="#71ACAB"/>
<path d="M14.2623 12.9534C14.3108 12.9675 14.3559 12.9911 14.3951 13.023C14.4342 13.0548 14.4666 13.0942 14.4904 13.1388C14.5141 13.1834 14.5287 13.2324 14.5332 13.2828C14.5378 13.3332 14.5322 13.3841 14.5169 13.4324C14.509 13.4517 14.5107 13.475 14.5072 13.4961C14.3929 13.4661 14.2925 13.3975 14.2229 13.3017C14.1373 13.1763 14.1531 13.0904 14.2623 12.9534Z" fill="#71ACAB"/>
<path d="M15.0201 11.0506C15.0739 11.063 15.1243 11.0871 15.1677 11.1212C15.2112 11.1553 15.2467 11.1986 15.2716 11.2479C15.2966 11.2973 15.3105 11.3516 15.3123 11.4069C15.3142 11.4623 15.3039 11.5175 15.2822 11.5685C15.0812 11.5827 14.8993 11.343 14.9721 11.1603C14.9872 11.1234 15.0041 11.0872 15.0201 11.0506Z" fill="#71ACAB"/>
<path d="M12.7084 16.7506C12.7572 16.7911 12.8248 16.7983 12.8719 16.8504C12.9246 16.9031 12.9606 16.9703 12.9753 17.0435C12.99 17.1167 12.9829 17.1928 12.9548 17.2621C12.832 17.2724 12.7131 17.1857 12.6388 17.0352C12.613 16.9877 12.6058 16.9322 12.6187 16.8796C12.6316 16.8269 12.6635 16.7809 12.7084 16.7506Z" fill="#71ACAB"/>
<path d="M15.8161 9.16139C16.0419 9.25386 16.1292 9.43021 16.0599 9.67181C15.892 9.69238 15.8224 9.56533 15.7527 9.45362C15.6829 9.34191 15.7427 9.24834 15.8161 9.16139Z" fill="#71ACAB"/>
<path d="M14.6515 12.0031C14.7 12.0172 14.7452 12.0409 14.7844 12.0728C14.8236 12.1047 14.856 12.1442 14.8797 12.1889C14.9034 12.2336 14.9179 12.2827 14.9224 12.3332C14.9268 12.3837 14.9212 12.4346 14.9057 12.4829C14.8978 12.5023 14.8995 12.5256 14.8968 12.5471C14.7985 12.5146 14.7109 12.4556 14.6436 12.3767C14.531 12.2299 14.5296 12.1585 14.6515 12.0031Z" fill="#71ACAB"/>
<path d="M15.4277 10.1099C15.6596 10.2049 15.7343 10.3597 15.6687 10.647C15.5695 10.618 15.4811 10.56 15.415 10.4804C15.314 10.36 15.3107 10.2858 15.4277 10.1099Z" fill="#71ACAB"/>
<path d="M15.133 9.63409C14.9604 9.64863 14.9281 9.6128 14.9556 9.43828C14.9864 9.24561 15.1238 9.12735 15.3474 9.09781C15.3506 9.12649 15.3479 9.15552 15.3394 9.18312C15.3309 9.21073 15.3168 9.2363 15.2981 9.25826C15.2311 9.37792 15.1758 9.50378 15.133 9.63409Z" fill="white"/>
<path d="M9.32549 23.8586C9.13234 23.876 9.09289 23.8301 9.13585 23.6403C9.15484 23.5518 9.20341 23.4724 9.27348 23.4152C9.34356 23.358 9.43094 23.3265 9.52114 23.3259C9.46001 23.5052 9.35912 23.6691 9.32549 23.8586Z" fill="white"/>
<path d="M16.1223 9.73128C16.1984 9.69477 16.2602 9.63388 16.2981 9.55826C16.3359 9.48265 16.3475 9.39661 16.3311 9.31379C16.3266 9.27497 16.3187 9.23683 16.312 9.19818C16.4098 9.24447 16.4891 9.32251 16.5371 9.4197C16.5536 9.4477 16.5634 9.47917 16.5657 9.51164C16.568 9.54411 16.5628 9.57669 16.5504 9.60684C16.5381 9.63699 16.519 9.66388 16.4945 9.68541C16.4701 9.70693 16.4411 9.7225 16.4097 9.7309C16.3167 9.7641 16.2152 9.76424 16.1223 9.73128Z" fill="#71ACAB"/>
<path d="M15.7501 10.6782C15.9477 10.5599 15.9647 10.376 15.9342 10.1736C16.1265 10.2431 16.2288 10.4277 16.1509 10.5703C16.0904 10.6831 15.9557 10.7275 15.7501 10.6782Z" fill="#71ACAB"/>
<path d="M15.3467 11.6257C15.5148 11.5498 15.5615 11.4057 15.5573 11.2388C15.5556 11.1997 15.5517 11.1608 15.5458 11.1221C15.6032 11.1392 15.6551 11.1713 15.696 11.2152C15.737 11.259 15.7656 11.313 15.7789 11.3716C15.8236 11.512 15.7037 11.6426 15.5282 11.6467C15.4673 11.644 15.4066 11.637 15.3467 11.6257Z" fill="#71ACAB"/>
<path d="M14.2115 14.4601C14.4117 14.3306 14.4121 14.1399 14.3726 13.9369C14.4749 13.9897 14.556 14.0762 14.6024 14.1819C14.6162 14.212 14.6227 14.2451 14.6212 14.2783C14.6198 14.3115 14.6104 14.3439 14.594 14.3728C14.5776 14.4017 14.5545 14.4263 14.5267 14.4445C14.499 14.4627 14.4673 14.474 14.4343 14.4775C14.3598 14.4932 14.2825 14.4872 14.2115 14.4601Z" fill="#71ACAB"/>
<path d="M12.2408 19.2105C12.4088 19.1346 12.4555 18.9905 12.4514 18.8235C12.4496 18.7845 12.4458 18.7455 12.4398 18.7069C12.4852 18.7181 12.5269 18.7409 12.561 18.773C12.6067 18.8081 12.6411 18.8559 12.66 18.9105C12.6788 18.9651 12.6813 19.0241 12.6672 19.0802C12.6389 19.1306 12.5965 19.1716 12.5451 19.1979C12.4938 19.2242 12.4359 19.2347 12.3787 19.228C12.3327 19.2256 12.2875 19.2163 12.2408 19.2105Z" fill="#71ACAB"/>
<path d="M12.6726 18.251C12.8506 18.1134 12.8625 17.9295 12.8198 17.7292C12.8884 17.7619 12.9484 17.81 12.9953 17.8699C13.0312 17.9097 13.0538 17.9599 13.0597 18.0133C13.0657 18.0668 13.0548 18.1208 13.0286 18.1679C12.9884 18.2215 12.9306 18.2592 12.8655 18.2744C12.8004 18.2896 12.7321 18.2813 12.6726 18.251Z" fill="#71ACAB"/>
<path d="M13.448 16.3544C13.6281 16.2167 13.64 16.0327 13.5952 15.8327C13.7025 15.8843 13.7863 15.9747 13.8299 16.0858C13.8416 16.114 13.8468 16.1445 13.8451 16.1749C13.8434 16.2054 13.8348 16.2352 13.82 16.2619C13.8052 16.2886 13.7846 16.3117 13.7597 16.3293C13.7348 16.347 13.7063 16.3587 13.6762 16.3637C13.6399 16.3795 13.6005 16.3868 13.561 16.3852C13.5215 16.3836 13.4829 16.3731 13.448 16.3544Z" fill="#71ACAB"/>
<path d="M15.002 12.5624C15.1705 12.4354 15.1891 12.2602 15.1577 12.0698C15.2251 12.085 15.2846 12.1243 15.325 12.1804C15.4069 12.2899 15.4226 12.4062 15.3627 12.4853C15.3181 12.5345 15.2593 12.5684 15.1946 12.5822C15.1298 12.5961 15.0624 12.5891 15.002 12.5624Z" fill="#71ACAB"/>
<path d="M14.6138 13.51C14.7823 13.383 14.8005 13.2088 14.7691 13.0183C14.8263 13.0341 14.878 13.0651 14.9189 13.1081C14.9598 13.151 14.9883 13.2043 15.0014 13.2623C15.0151 13.3036 15.0141 13.3484 14.9987 13.3892C14.9833 13.43 14.9544 13.4643 14.9168 13.4863C14.8731 13.5175 14.8218 13.5361 14.7685 13.5403C14.7151 13.5445 14.6616 13.534 14.6138 13.51Z" fill="#71ACAB"/>
<path d="M9.69551 22.9077C9.52383 22.9226 9.49704 22.8931 9.51997 22.7198C9.54291 22.5465 9.67197 22.4135 9.88518 22.3746C9.81173 22.5485 9.7484 22.7265 9.69551 22.9077Z" fill="white"/>
<path d="M13.0598 17.3051C13.2387 17.1679 13.2506 16.9839 13.2058 16.7839C13.3057 16.8326 13.3856 16.9146 13.4317 17.016C13.4854 17.157 13.4529 17.2413 13.3162 17.2982C13.2776 17.3215 13.2337 17.3344 13.1888 17.3356C13.1439 17.3368 13.0994 17.3263 13.0598 17.3051Z" fill="#71ACAB"/>
<path d="M13.8374 15.4063C14.005 15.2789 14.0241 15.105 13.9927 14.9145C14.1407 14.9474 14.1932 15.0664 14.2358 15.1896C14.2421 15.2179 14.2404 15.2475 14.231 15.275C14.2215 15.3025 14.2047 15.3268 14.1822 15.3453C14.1372 15.3886 14.0803 15.4175 14.0189 15.4284C13.9575 15.4392 13.8943 15.4315 13.8374 15.4063Z" fill="#71ACAB"/>
<path d="M11.8531 20.1594C12.0732 20.0514 12.0782 19.8594 12.0517 19.6546C12.0971 19.6663 12.1392 19.6884 12.1746 19.7191C12.2101 19.7498 12.238 19.7884 12.2561 19.8317C12.327 19.9932 12.2691 20.1121 12.0983 20.1623C12.0172 20.1782 11.9337 20.1772 11.8531 20.1594Z" fill="#71ACAB"/>
<path d="M11.0772 22.0548C11.2609 21.9555 11.3123 21.8226 11.2722 21.5485C11.3159 21.561 11.3564 21.5826 11.3911 21.612C11.4258 21.6414 11.4538 21.6779 11.4732 21.7191C11.5687 21.8752 11.486 22.0323 11.2913 22.0634C11.2202 22.077 11.1469 22.0741 11.0772 22.0548Z" fill="#71ACAB"/>
<path d="M11.466 21.1075C11.6323 21.0308 11.679 20.8867 11.6748 20.7198C11.6745 20.6806 11.6678 20.642 11.6645 20.6026C11.7057 20.6151 11.7439 20.6358 11.7771 20.6632C11.8102 20.6907 11.8375 20.7245 11.8575 20.7627C11.9698 20.9678 11.8596 21.0797 11.6678 21.1162C11.6009 21.1306 11.5314 21.1276 11.466 21.1075Z" fill="#71ACAB"/>
<path d="M10.7315 22.9911C10.8992 22.8637 10.9182 22.6898 10.8869 22.4993C10.9255 22.5083 10.9617 22.5256 10.993 22.5499C11.0243 22.5742 11.05 22.6051 11.0683 22.6404C11.1161 22.7256 11.1672 22.8133 11.0875 22.9079C11.0455 22.9593 10.9878 22.9953 10.9234 23.0103C10.859 23.0253 10.7915 23.0186 10.7315 22.9911Z" fill="#71ACAB"/>
<path d="M10.3426 23.9384C10.512 23.8117 10.5302 23.6375 10.4988 23.447C10.5518 23.4587 10.5996 23.4869 10.6355 23.5276C10.7257 23.6169 10.7617 23.7784 10.708 23.8498C10.6632 23.9002 10.6042 23.9356 10.5389 23.9514C10.4736 23.9673 10.4051 23.9627 10.3426 23.9384Z" fill="#71ACAB"/>
<path d="M9.95509 24.8873C10.1321 24.7545 10.145 24.5657 10.1023 24.3655C10.2003 24.4187 10.279 24.5016 10.3273 24.6024C10.339 24.6249 10.3462 24.6497 10.3482 24.675C10.3503 24.7004 10.3472 24.726 10.3392 24.7502C10.3312 24.7744 10.3184 24.7968 10.3016 24.816C10.2848 24.8352 10.2644 24.8508 10.2415 24.8619C10.2006 24.8921 10.1522 24.9105 10.1017 24.915C10.0512 24.9195 10.0004 24.9099 9.95509 24.8873Z" fill="#71ACAB"/>
<path d="M14.711 10.5843C14.5712 10.5989 14.5626 10.5923 14.559 10.4564C14.5561 10.2437 14.6981 10.0894 14.9288 10.0525C14.8561 10.2301 14.7838 10.4067 14.711 10.5843Z" fill="white"/>
<path d="M10.0654 21.9618C9.90919 21.9789 9.8996 21.9699 9.90479 21.815C9.91021 21.617 10.0344 21.481 10.2484 21.4352C10.2127 21.6197 10.1107 21.7812 10.0654 21.9618Z" fill="white"/>
<path d="M14.3034 11.5322C14.2049 11.5658 14.1788 11.5171 14.1744 11.4281C14.1664 11.3276 14.1974 11.2278 14.2611 11.1495C14.3248 11.0713 14.4161 11.0208 14.5159 11.0085C14.4455 11.1829 14.3742 11.3569 14.3034 11.5322Z" fill="white"/>
<path d="M10.4236 21.0152C10.3302 21.0437 10.2972 21.0045 10.2919 20.9099C10.2842 20.8136 10.3124 20.7177 10.3711 20.6409C10.4297 20.564 10.5147 20.5116 10.6095 20.4939C10.6155 20.599 10.5506 20.6751 10.5207 20.7655C10.4909 20.8559 10.4566 20.9322 10.4236 21.0152Z" fill="white"/>
<path d="M13.9107 12.4769C13.8299 12.5095 13.7955 12.481 13.7871 12.3944C13.7747 12.2956 13.8007 12.1956 13.8596 12.1153C13.9186 12.0349 14.0061 11.9803 14.1039 11.9627C14.0477 12.0998 13.9912 12.2378 13.9351 12.375C13.9209 12.4071 13.896 12.438 13.9107 12.4769Z" fill="white"/>
<path d="M11.1838 19.1186C11.1013 19.1453 11.0763 19.1064 11.0702 19.0289C11.0566 18.9309 11.0817 18.8312 11.1402 18.7512C11.1988 18.6713 11.2861 18.6173 11.3835 18.6009C11.3186 18.7744 11.2335 18.9398 11.1838 19.1186Z" fill="white"/>
<path d="M10.7962 20.0674C10.7168 20.0914 10.6889 20.0574 10.6819 19.9796C10.6689 19.8806 10.6946 19.7803 10.7535 19.6996C10.8124 19.6189 10.9001 19.5641 10.9982 19.5466C10.9319 19.7186 10.8625 19.8955 10.7962 20.0674Z" fill="white"/>
<path d="M12.7044 15.3252C12.65 15.3481 12.6371 15.3172 12.6248 15.27C12.605 15.1722 12.6233 15.0704 12.676 14.9854C12.7286 14.9005 12.8116 14.8388 12.9079 14.8132L12.7044 15.3252Z" fill="white"/>
<path d="M11.5761 18.1654C11.4999 18.1968 11.466 18.1696 11.4575 18.0881C11.4459 17.9929 11.469 17.8967 11.5227 17.8171C11.5763 17.7375 11.6568 17.6801 11.7492 17.6553C11.6945 17.7889 11.6412 17.919 11.5858 18.0544C11.5752 18.0901 11.5449 18.1218 11.5761 18.1654Z" fill="white"/>
<path d="M13.0933 14.3779C13.0393 14.4 13.026 14.3699 13.0137 14.3228C12.9937 14.2246 13.0119 14.1223 13.0647 14.037C13.1175 13.9517 13.2009 13.8899 13.2975 13.8642L13.0933 14.3779Z" fill="white"/>
<path d="M13.4827 13.4297C13.4303 13.4504 13.4153 13.4247 13.4024 13.3763C13.3824 13.2772 13.4008 13.174 13.454 13.0878C13.5071 13.0017 13.5909 12.9389 13.6884 12.9124L13.4827 13.4297Z" fill="white"/>
<path d="M12.3169 16.2741C12.2633 16.2952 12.2493 16.2669 12.2373 16.2189C12.2168 16.1212 12.2348 16.0191 12.2875 15.9342C12.3402 15.8492 12.4236 15.7878 12.5201 15.7629L12.3169 16.2741Z" fill="white"/>
<path d="M11.9287 17.2218C11.8747 17.2438 11.8611 17.2146 11.8491 17.1666C11.8286 17.0685 11.8466 16.9662 11.8994 16.8809C11.9522 16.7957 12.0358 16.734 12.1326 16.7089L11.9287 17.2218Z" fill="white"/>
<path d="M13.4057 16.3658L13.4525 16.3562C13.4399 16.3747 13.4222 16.3705 13.4057 16.3658Z" fill="#71ACAB"/>
<path d="M13.7946 15.4185C13.8004 15.4124 13.8079 15.4082 13.8161 15.4064C13.8243 15.4046 13.8328 15.4054 13.8406 15.4086C13.8283 15.4261 13.8114 15.4223 13.7946 15.4185Z" fill="#71ACAB"/>
<path d="M14.572 13.5227C14.5778 13.5169 14.5851 13.5128 14.593 13.511C14.601 13.5092 14.6093 13.5097 14.617 13.5124C14.6047 13.5299 14.5888 13.5265 14.572 13.5227Z" fill="#71ACAB"/>
<path d="M14.959 12.5746C14.9732 12.565 14.987 12.5563 15.0054 12.5638C14.9927 12.5823 14.9759 12.5784 14.959 12.5746Z" fill="#71ACAB"/>
<path d="M9.91131 24.8991C9.91753 24.8934 9.92517 24.8895 9.93343 24.8878C9.94168 24.8861 9.95023 24.8867 9.95815 24.8896C9.94586 24.9071 9.92902 24.9033 9.91131 24.8991Z" fill="#71ACAB"/>
<path d="M10.6877 23.0059C10.6935 22.9998 10.701 22.9956 10.7092 22.9939C10.7174 22.9921 10.7259 22.9928 10.7336 22.996C10.7224 23.0109 10.7056 23.0071 10.6877 23.0059Z" fill="#71ACAB"/>
<path d="M12.6307 18.2585C12.6372 18.2531 12.6449 18.2494 12.6532 18.248C12.6616 18.2465 12.6701 18.2473 12.678 18.2502C12.6622 18.2714 12.6473 18.2653 12.6307 18.2585Z" fill="#71ACAB"/>
<path d="M13.0173 17.3143C13.0235 17.3086 13.0311 17.3047 13.0394 17.3031C13.0476 17.3014 13.0562 17.302 13.0641 17.3048C13.0518 17.3223 13.035 17.3185 13.0173 17.3143Z" fill="#71ACAB"/>
<path d="M10.2997 23.9506L10.3466 23.941C10.3343 23.9586 10.3166 23.9544 10.2997 23.9506Z" fill="#71ACAB"/>
<path d="M15.7337 10.6777C15.736 10.6754 15.7391 10.674 15.7424 10.6738C15.7457 10.6737 15.7489 10.6747 15.7515 10.6768C15.7464 10.6891 15.7394 10.7037 15.7337 10.6777Z" fill="#71ACAB"/>
</g>
<defs>
<clipPath id="clip0_179_2278">
<rect width="18.2" height="26" fill="white" transform="translate(0 4.21729) rotate(-13.3983)"/>
</clipPath>
<clipPath id="clip1_179_2278">
<rect width="16" height="20" fill="white" transform="translate(15.5789 7) rotate(22.2682)"/>
</clipPath>
</defs>
</svg>
