<svg width="27" height="22" viewBox="0 0 27 22" fill="none" xmlns="http://www.w3.org/2000/svg">
<g clip-path="url(#clip0_178_2195)">
<path d="M11.893 21.9965C10.4902 21.9965 9.08801 21.9965 7.68582 22C7.52937 22 7.49041 21.9599 7.491 21.8069C7.49809 20.7018 7.491 19.5967 7.49808 18.4916C7.49808 18.3422 7.46502 18.2962 7.30502 18.2962C4.94068 18.302 2.57595 18.3032 0.210825 18.2997C0.00241563 18.2997 0.00123195 18.2997 0.00123195 18.0909C0.00123195 15.5395 0.00123195 12.9881 0.00123195 10.4367C0.00088903 10.3978 0.00838822 10.3592 0.0232853 10.3232C0.0381824 10.2871 0.06018 10.2544 0.0880185 10.2267C0.549708 9.69805 1.00254 9.16179 1.46246 8.63076C1.54334 8.54787 1.6198 8.46089 1.69153 8.37019C1.73699 8.30505 1.80961 8.31959 1.87456 8.31959C2.73417 8.31959 3.59379 8.3161 4.454 8.31959C4.60396 8.31959 4.64469 8.27248 4.6441 8.12882C4.63997 6.15129 4.64411 4.17376 4.6388 2.19914C4.63796 2.13962 4.64906 2.08052 4.67144 2.02523C4.69383 1.96993 4.72708 1.91954 4.76927 1.87692C5.11288 1.49305 5.44232 1.09696 5.78475 0.713671C5.96187 0.517081 6.13073 0.318747 6.29309 0.111688C6.32526 0.0725408 6.36666 0.0417399 6.41369 0.0219713C6.46072 0.00220281 6.51194 -0.00593398 6.56289 -0.00173C9.37239 0.000596509 12.1823 0.000596509 14.9926 -0.00173C15.1207 -0.00173 15.1443 0.0424743 15.1443 0.15531C15.1412 2.53455 15.1412 4.91437 15.1443 7.29477C15.1401 7.37886 15.1082 7.45931 15.0534 7.52393C14.6991 8.04739 14.3479 8.57085 13.9978 9.09432C13.8159 9.3671 13.6335 9.6393 13.4569 9.91499C13.4068 9.99351 13.3389 9.9813 13.2686 9.9813H10.7199C10.5032 9.9813 10.5032 9.9813 10.5032 10.2006C10.5032 10.7403 10.5085 11.2795 10.4997 11.8192C10.4997 11.9757 10.5522 12.0141 10.7033 12.0135C13.0681 12.0092 15.4326 12.0092 17.7969 12.0135C17.9989 12.0135 17.9983 12.0135 17.9983 12.206C17.9983 14.505 17.9995 16.8042 18.0018 19.1035C18.0018 19.3117 17.9682 19.481 17.8277 19.6543C17.6057 19.9283 17.4268 20.2359 17.2325 20.5314C16.9249 20.9967 16.5902 21.4504 16.3056 21.9331C16.2607 22.0105 16.1952 21.9913 16.132 21.9913C15.4365 21.9913 14.7407 21.9913 14.0444 21.9913L11.893 21.9965ZM11.8712 21.7482C13.1812 21.7482 14.4913 21.7482 15.8014 21.7517C15.9407 21.7517 15.9726 21.7109 15.9714 21.5818C15.9644 20.9467 15.9644 20.3116 15.9649 19.6764C15.9649 17.942 15.9663 16.2076 15.9691 14.4732C15.9691 14.3772 15.9992 14.2801 15.8244 14.2801C13.2712 14.2859 10.7173 14.2871 8.16287 14.2836C7.78206 14.2836 7.78147 14.2836 7.78147 14.6628C7.78147 16.9726 7.78147 19.2819 7.78147 21.5905C7.78147 21.6801 7.76966 21.754 7.91018 21.7534C9.2303 21.7464 10.5504 21.7482 11.8712 21.7482ZM9.02603 2.27417C7.71595 2.27417 6.40526 2.27417 5.09517 2.27417C4.97709 2.27417 4.93812 2.30442 4.93871 2.42481C4.94186 4.81026 4.94186 7.19492 4.93871 9.57881C4.93871 9.71724 4.98417 9.74283 5.11583 9.74283C7.73128 9.73857 10.3467 9.73857 12.9622 9.74283C13.1009 9.74283 13.1175 9.69223 13.1175 9.57648C13.1151 7.2019 13.1151 4.82693 13.1175 2.45157C13.1175 2.29918 13.0673 2.27243 12.9262 2.27301C11.6261 2.27417 10.3261 2.27417 9.02603 2.27417ZM4.39142 10.5612C3.08134 10.5612 1.77065 10.5612 0.460562 10.5583C0.307059 10.5583 0.271639 10.6124 0.272229 10.7525C0.275378 13.1275 0.275378 15.5025 0.272229 17.8775C0.272229 18.0025 0.320637 18.049 0.430451 18.0624C0.471249 18.0665 0.512256 18.0682 0.553258 18.0676H7.35521C7.50812 18.0642 7.53233 17.9734 7.53233 17.8437C7.53233 17.714 7.45676 17.7024 7.35521 17.7024C5.24159 17.7024 3.12777 17.7024 1.01376 17.7024C0.654795 17.7024 0.654214 17.7059 0.654214 17.3534C0.654214 15.3262 0.654214 13.2993 0.654214 11.2725C0.654214 11.2173 0.66838 11.162 0.666019 11.1073C0.657163 10.9427 0.746908 10.9218 0.892145 10.9224C2.35101 10.927 3.80988 10.9224 5.26875 10.9224C6.14883 10.9224 7.02911 10.9224 7.90959 10.9224C8.11209 10.9224 8.1121 10.9177 8.11092 11.1207C8.11092 11.8088 8.12036 12.4962 8.08611 13.1837C8.08611 13.2367 8.1186 13.3123 8.16937 13.2582C8.30811 13.1093 8.49703 12.9941 8.48936 12.7405C8.48109 12.4712 8.49762 12.2008 8.48936 11.9297C8.47519 11.5319 8.47932 11.1329 8.48936 10.7351C8.49231 10.592 8.43918 10.5565 8.30103 10.5571C6.99153 10.5618 5.69148 10.56 4.39142 10.56V10.5612ZM4.37607 15.3113H5.06683C5.25045 15.3113 5.34136 15.3695 5.40099 15.5393C5.54918 15.9569 5.69619 16.3757 5.84202 16.7939C5.91346 16.9957 6.12128 17.0655 6.38342 16.9794C6.52866 16.9317 6.59477 16.7706 6.53514 16.5886C6.46429 16.3739 6.38577 16.1617 6.31138 15.9488C6.12088 15.4013 5.93038 14.8542 5.73988 14.3074C5.44901 13.4691 5.15794 12.6312 4.86668 11.7936C4.85163 11.7395 4.81903 11.6917 4.77384 11.6574C4.72865 11.6232 4.67335 11.6044 4.61635 11.604C4.46285 11.5988 4.30935 11.5994 4.15584 11.604C4.09157 11.6014 4.02835 11.6208 3.97691 11.6588C3.92547 11.6969 3.88899 11.7513 3.87365 11.8128C3.75143 12.181 3.62095 12.5463 3.49401 12.9127C3.08191 14.1027 2.67061 15.2929 2.26009 16.4833C2.23175 16.567 2.18274 16.6485 2.1975 16.745C2.22112 16.8997 2.31559 16.9899 2.48562 17.0073C2.71175 17.0306 2.83041 16.9748 2.89122 16.7974C3.02701 16.4026 3.15886 16.0062 3.28678 15.6079C3.35881 15.3852 3.44855 15.3171 3.6853 15.3136C3.92205 15.3102 4.14582 15.3102 4.37607 15.3102V15.3113Z" fill="#E7D5C6"/>
<path d="M11.871 21.7482C10.5503 21.7482 9.23018 21.7482 7.90946 21.7511C7.76895 21.7511 7.78076 21.6778 7.78076 21.5882C7.78076 19.2792 7.78076 16.9699 7.78076 14.6605C7.78076 14.2818 7.78076 14.2813 8.16216 14.2813C10.7162 14.2813 13.2701 14.2801 15.8237 14.2778C16.0008 14.2778 15.9684 14.3749 15.9684 14.4709C15.9684 16.2053 15.967 17.9397 15.9642 19.6741C15.9642 20.3092 15.9642 20.9444 15.9707 21.5795C15.9707 21.7086 15.94 21.7499 15.8007 21.7493C14.4906 21.7435 13.1805 21.7458 11.8704 21.7458L11.871 21.7482ZM11.871 14.6122C10.6902 14.6122 9.50944 14.6122 8.32451 14.6087C8.17869 14.6087 8.13795 14.643 8.13795 14.7908C8.14347 16.9335 8.14347 19.076 8.13795 21.2183C8.13795 21.3602 8.17101 21.4091 8.32274 21.4085C10.6922 21.405 13.0617 21.405 15.4311 21.4085C15.5722 21.4085 15.6082 21.3655 15.6082 21.227C15.6039 19.0843 15.6039 16.9416 15.6082 14.7989C15.6082 14.6459 15.5693 14.6052 15.414 14.6058C14.2356 14.6151 13.053 14.6122 11.871 14.6122Z" fill="#71ACAB"/>
<path d="M9.02605 2.27415C10.3249 2.27415 11.6238 2.27415 12.9262 2.27124C13.0673 2.27124 13.1181 2.29741 13.1175 2.4498C13.112 4.82477 13.112 7.19974 13.1175 9.57472C13.1175 9.69104 13.101 9.74106 12.9622 9.74106C10.3468 9.7368 7.73129 9.7368 5.11584 9.74106C4.98595 9.74106 4.93872 9.71547 4.93872 9.57704C4.94266 7.19199 4.94266 4.80732 4.93872 2.42304C4.93872 2.30265 4.97474 2.27182 5.09518 2.2724C6.40527 2.27415 7.71596 2.27415 9.02605 2.27415ZM9.02605 9.4107C10.2181 9.4107 11.4101 9.4107 12.6027 9.4107C12.7266 9.4107 12.755 9.37347 12.7544 9.25599C12.7512 7.0935 12.7512 4.93082 12.7544 2.76795C12.7544 2.64057 12.7284 2.59346 12.5867 2.59346C10.248 2.59811 7.90941 2.59928 5.57105 2.59695C5.2847 2.59695 5.28411 2.59695 5.28411 2.88776V9.1955C5.28411 9.40721 5.28411 9.40779 5.4937 9.40779L9.02605 9.4107Z" fill="#DC968F"/>
<path d="M4.39148 10.56C5.69035 10.56 6.98921 10.56 8.29162 10.56C8.42977 10.56 8.48292 10.5949 8.47997 10.738C8.47229 11.1358 8.46816 11.5348 8.47997 11.9326C8.48942 12.2037 8.47288 12.4741 8.47997 12.7434C8.48764 12.997 8.29871 13.1122 8.15996 13.2611C8.10919 13.3152 8.07377 13.2395 8.07672 13.1866C8.11097 12.4991 8.09915 11.8117 8.10152 11.1236C8.10152 10.9206 8.10152 10.9247 7.9002 10.9253C7.01972 10.9253 6.13944 10.9253 5.25936 10.9253C3.80049 10.9253 2.34161 10.9253 0.882741 10.9253C0.737504 10.9253 0.646592 10.9456 0.656629 11.1102C0.656629 11.1649 0.64481 11.2201 0.64481 11.2754C0.64481 13.3022 0.64481 15.3291 0.64481 17.3563C0.64481 17.7053 0.644815 17.7053 1.00437 17.7053C3.11798 17.7053 5.23179 17.7053 7.34581 17.7053C7.44972 17.7053 7.52292 17.7134 7.52292 17.8466C7.52292 17.9798 7.50049 18.067 7.34581 18.0705H0.551537C0.510535 18.0711 0.469527 18.0694 0.42873 18.0653C0.318916 18.0519 0.270508 18.0071 0.270508 17.8803C0.275231 15.5054 0.275231 13.1304 0.270508 10.7554C0.270508 10.6153 0.305338 10.5606 0.458841 10.5612C1.76893 10.5664 3.07961 10.5641 4.3897 10.5641L4.39148 10.56Z" fill="#A0D1CA"/>
<path d="M4.37611 15.3102C4.14585 15.3102 3.91559 15.3102 3.68533 15.3102C3.45508 15.3102 3.35884 15.3817 3.28681 15.6045C3.15811 16.0019 3.02625 16.3984 2.89125 16.7939C2.83221 16.9684 2.71414 17.0265 2.48566 17.0039C2.31798 16.9864 2.22115 16.8963 2.19754 16.7415C2.18278 16.645 2.23178 16.5636 2.26012 16.4798C2.66907 15.2886 3.08037 14.0984 3.49404 12.9092C3.62098 12.5428 3.75147 12.1775 3.87368 11.8094C3.88902 11.7478 3.9255 11.6934 3.97694 11.6553C4.02838 11.6173 4.0916 11.5979 4.15587 11.6006C4.30938 11.5971 4.46288 11.5965 4.61639 11.6006C4.67339 11.601 4.72869 11.6197 4.77387 11.6539C4.81906 11.6882 4.85166 11.736 4.86671 11.7902C5.15876 12.6277 5.44983 13.4656 5.73991 14.304C5.93002 14.8515 6.12052 15.3986 6.31141 15.9453C6.3858 16.1593 6.46433 16.3716 6.53517 16.5851C6.59421 16.7671 6.52869 16.9282 6.38345 16.9759C6.12132 17.062 5.91113 16.9922 5.84205 16.7904C5.69445 16.3722 5.54685 15.9534 5.40103 15.5358C5.34199 15.3672 5.25048 15.3078 5.06687 15.3078H4.37611V15.3102ZM4.35721 12.2456C4.24562 12.6149 4.15234 12.9435 4.04666 13.2687C3.92858 13.6269 3.80106 13.9812 3.68121 14.3383C3.60623 14.5622 3.71014 14.7454 3.93331 14.7536C4.20865 14.7675 4.48453 14.7675 4.75986 14.7536C5.022 14.739 5.11409 14.5791 5.03262 14.3365C4.8927 13.9329 4.74628 13.5304 4.61286 13.1244C4.52371 12.847 4.45049 12.5655 4.35485 12.2456H4.35721Z" fill="#71ACAB"/>
<path d="M11.8712 14.6122C13.0519 14.6122 14.2357 14.6151 15.4177 14.6087C15.5729 14.6087 15.6119 14.6488 15.6119 14.8018C15.606 16.9445 15.606 19.0872 15.6119 21.2299C15.6119 21.3684 15.5741 21.4114 15.4348 21.4114C13.0649 21.4075 10.6955 21.4075 8.32641 21.4114C8.17468 21.4114 8.14102 21.3631 8.14161 21.2212C8.14555 19.0793 8.14555 16.9368 8.14161 14.7937C8.14161 14.6459 8.18236 14.611 8.32818 14.6116C9.50898 14.6174 10.6927 14.6151 11.8747 14.6151L11.8712 14.6122ZM12.4615 17.8146L12.5861 17.7565C13.2355 17.4558 13.5042 16.7444 13.1765 16.1349C12.9522 15.7184 12.5489 15.541 12.0996 15.4713C11.586 15.391 11.0694 15.4288 10.5546 15.4777C10.3184 15.4998 10.2422 15.6004 10.2422 15.8423C10.2422 17.289 10.2422 18.7357 10.2422 20.1824C10.2416 20.2428 10.2476 20.303 10.26 20.3621C10.2701 20.4199 10.3004 20.4723 10.3457 20.5103C10.391 20.5482 10.4484 20.5693 10.5079 20.5698C11.0393 20.6111 11.5706 20.6279 12.0984 20.5395C12.6021 20.4546 13.0472 20.2743 13.3223 19.8055C13.725 19.1186 13.4723 18.2776 12.7467 17.9356C12.6587 17.8931 12.5696 17.8617 12.461 17.8146H12.4615Z" fill="#E7D5C6"/>
<path d="M9.02542 9.40954H5.49426C5.28526 9.40954 5.28467 9.40954 5.28467 9.19725V2.89068C5.28467 2.59986 5.28467 2.59986 5.57161 2.59986C7.90997 2.59986 10.2485 2.5987 12.5873 2.59637C12.729 2.59637 12.755 2.64116 12.755 2.77086C12.7506 4.93335 12.7506 7.09603 12.755 9.2589C12.755 9.37522 12.7272 9.41419 12.6032 9.41361C11.4094 9.4078 10.2174 9.40954 9.02542 9.40954ZM9.66245 8.59526C9.88149 8.62144 10.1106 8.58479 10.3379 8.56095C10.5079 8.54292 10.6832 8.51326 10.8308 8.41263C10.8659 8.38786 10.8943 8.35518 10.9138 8.31732C10.9334 8.27946 10.9434 8.23754 10.943 8.19507C10.9427 8.15261 10.932 8.11085 10.9118 8.07331C10.8917 8.03576 10.8627 8.00353 10.8273 7.97932C10.6933 7.88393 10.5717 7.95664 10.4371 7.97932C9.98895 8.05493 9.54202 8.06424 9.09509 7.93803C8.46691 7.76063 8.10203 7.34535 7.92196 6.74977C7.81517 6.37586 7.79499 5.98309 7.86292 5.60047C7.94027 5.1026 8.13332 4.66987 8.55605 4.35056C8.89494 4.09406 9.27929 4.00158 9.68785 3.97308C9.98896 3.95928 10.2903 3.99526 10.5793 4.07952C10.6974 4.11151 10.8928 4.03299 10.9159 3.93469C10.9578 3.7573 10.9466 3.6212 10.7836 3.5514C10.6211 3.48368 10.4484 3.44262 10.2723 3.42984C10.0397 3.40632 9.80571 3.39971 9.57213 3.41007C9.03428 3.44438 8.54365 3.59328 8.11148 3.90503C7.78029 4.14372 7.51816 4.46351 7.35105 4.83273C7.19873 5.16658 7.13673 5.52312 7.1084 5.89419C7.07773 6.30914 7.13813 6.72572 7.28551 7.11561C7.46263 7.60068 7.77023 7.99793 8.23015 8.25676C8.66288 8.507 9.16167 8.62407 9.66245 8.59294V8.59526Z" fill="#E7D5C6"/>
<path d="M4.35473 12.2455C4.44801 12.5654 4.52123 12.8469 4.61156 13.1221C4.74499 13.5292 4.8914 13.9305 5.03132 14.3342C5.11516 14.5784 5.0207 14.7366 4.75857 14.7512C4.48323 14.7651 4.20735 14.7651 3.93201 14.7512C3.70884 14.7407 3.60493 14.5598 3.67991 14.3359C3.79799 13.9788 3.92906 13.6246 4.04536 13.2663C4.15223 12.9435 4.24551 12.6149 4.35473 12.2455Z" fill="#E7D5C6"/>
<path d="M12.4609 17.8146C12.5695 17.86 12.6587 17.8931 12.7449 17.9338C13.4705 18.2758 13.7232 19.1169 13.3205 19.8038C13.0454 20.2726 12.6002 20.4529 12.0966 20.5378C11.5688 20.6268 11.0375 20.6093 10.5061 20.568C10.4471 20.5675 10.3901 20.5467 10.3449 20.5092C10.2998 20.4717 10.2693 20.4199 10.2587 20.3627C10.2463 20.3036 10.2404 20.2433 10.241 20.183C10.241 18.7363 10.241 17.2896 10.241 15.8429C10.241 15.6009 10.3195 15.5003 10.5533 15.4782C11.0682 15.4294 11.5847 15.3915 12.0984 15.4718C12.5477 15.5416 12.9509 15.719 13.1753 16.1354C13.5041 16.745 13.2343 17.4563 12.5849 17.757L12.4609 17.8146ZM10.9082 19.0831C10.9082 19.31 10.9052 19.5368 10.9082 19.7636C10.9082 19.93 10.9985 20.0544 11.1337 20.0597C11.4602 20.0719 11.7884 20.0934 12.1073 19.9905C12.5471 19.8485 12.7915 19.5345 12.7974 19.0982C12.8033 18.6801 12.5613 18.3654 12.1232 18.2107C11.8315 18.1066 11.5328 18.1159 11.2293 18.1176C11.0132 18.1176 10.9111 18.2182 10.9076 18.4335C10.904 18.6487 10.9082 18.8685 10.9082 19.0831ZM10.9082 16.8113C10.92 16.9707 10.891 17.1824 10.9247 17.3929C10.9286 17.4494 10.9538 17.5024 10.9953 17.5415C11.0368 17.5807 11.0916 17.6032 11.149 17.6046C11.459 17.6163 11.7707 17.6326 12.0724 17.5215C12.4296 17.39 12.6333 17.1108 12.628 16.7398C12.6221 16.3547 12.4426 16.1256 12.0512 16.0023C11.756 15.9092 11.4543 15.9342 11.1544 15.9517C10.9961 15.9604 10.9129 16.0773 10.9093 16.2471C10.9058 16.417 10.9082 16.5909 10.9082 16.8148V16.8113Z" fill="#DC968F"/>
<path d="M9.66234 8.59295C9.1621 8.62356 8.66397 8.5063 8.23181 8.25619C7.77071 7.99737 7.4643 7.60012 7.28718 7.11504C7.1398 6.72516 7.07939 6.30857 7.11006 5.89363C7.1384 5.52255 7.2004 5.16601 7.35272 4.83216C7.5194 4.46238 7.78134 4.14196 8.11255 3.90272C8.54472 3.59097 9.03534 3.44207 9.57319 3.40776C9.80677 3.3974 10.0408 3.40401 10.2734 3.42753C10.4494 3.4403 10.6221 3.48137 10.7847 3.54909C10.9476 3.61889 10.9618 3.75499 10.9169 3.93238C10.8939 4.03068 10.6997 4.10687 10.5804 4.07721C10.2914 3.99295 9.99004 3.95697 9.68892 3.97077C9.28037 3.99985 8.89601 4.09175 8.55712 4.34825C8.1344 4.66872 7.94134 5.10029 7.864 5.59816C7.79607 5.98078 7.81624 6.37355 7.92304 6.74745C8.10016 7.34304 8.46798 7.75832 9.09616 7.93571C9.54309 8.06193 9.99002 8.05204 10.4381 7.97701C10.5727 7.95491 10.6944 7.8822 10.8284 7.97701C10.8638 8.00122 10.8928 8.03345 10.9129 8.071C10.933 8.10854 10.9437 8.1503 10.9441 8.19276C10.9444 8.23522 10.9344 8.27715 10.9149 8.315C10.8954 8.35286 10.8669 8.38555 10.8319 8.41032C10.6843 8.51094 10.509 8.54061 10.3389 8.55864C10.1105 8.58248 9.88138 8.61913 9.66234 8.59295Z" fill="#A0D1CA"/>
<path d="M10.9082 19.0831C10.9082 18.8668 10.9082 18.6498 10.9082 18.4335C10.9082 18.2171 11.0139 18.1188 11.23 18.1176C11.5311 18.1176 11.8322 18.1066 12.1239 18.2107C12.5602 18.3654 12.804 18.6801 12.7981 19.0983C12.7922 19.5345 12.5478 19.8486 12.1079 19.9905C11.7891 20.0934 11.4585 20.0719 11.1344 20.0597C10.9992 20.0545 10.9118 19.93 10.9088 19.7636C10.9047 19.5368 10.9088 19.31 10.9088 19.0831H10.9082Z" fill="#E7D5C6"/>
<path d="M10.9081 16.8148C10.9081 16.5926 10.9051 16.4216 10.9081 16.2506C10.911 16.0796 10.9948 15.9639 11.1531 15.9551C11.453 15.9377 11.7553 15.9127 12.0499 16.0057C12.4413 16.129 12.6208 16.3582 12.6267 16.7432C12.632 17.1143 12.4283 17.3935 12.0711 17.5249C11.7694 17.636 11.4577 17.6198 11.1478 17.6081C11.0903 17.6067 11.0355 17.5842 10.994 17.545C10.9525 17.5059 10.9273 17.4529 10.9234 17.3964C10.8909 17.1841 10.9199 16.9724 10.9081 16.8148Z" fill="#E7D5C6"/>
</g>
<g clip-path="url(#clip1_178_2195)">
<path d="M23.3286 15.9324C24.2331 15.7257 25.025 16.2648 25.1414 17.1998C25.2938 18.4135 24.9619 19.4801 24.1011 20.3604C23.1849 21.2983 22.1029 21.2018 21.3575 20.1284C21.2975 20.0543 21.2326 19.9843 21.1634 19.9188C21.1314 19.5513 21.0935 19.1837 21.0664 18.8152C21.0499 18.5705 20.9305 18.5832 20.7393 18.6309C20.1837 18.7877 19.6094 18.8674 19.0322 18.8678C17.792 18.8347 16.8001 18.1649 16.4488 17.0613C16.2363 16.3867 16.18 15.677 16.1218 14.9721C16.0606 14.2283 16.1518 13.4873 16.2363 12.7542C16.2984 12.2141 16.3168 11.633 16.6934 11.1719C17.0156 11.7227 17.2233 11.7998 17.792 11.5541C17.9992 11.4684 18.1975 11.3622 18.384 11.2372C18.5412 11.129 18.6858 11.1514 18.8614 11.1397C19.4641 11.1095 19.9688 11.326 20.4909 11.5824C20.9849 11.8241 21.3595 11.6204 21.5584 11.1017C21.6826 10.7722 21.6632 10.4368 21.6244 10.0985H21.737C22.6347 10.0917 23.3761 10.468 23.9419 11.131C24.6669 11.9811 25.3724 12.8244 26.3953 13.3547C26.9873 13.6609 27.1212 14.1932 26.8951 14.7557C26.6476 15.3738 26.1139 15.6818 25.4801 15.5863C24.6824 15.4654 24.0448 15.0472 23.4664 14.5139C23.3645 14.4106 23.4499 14.2214 23.2674 14.1142C23.1801 14.6523 23.0879 15.172 23.0161 15.6945C22.985 15.9236 23.1558 15.946 23.3286 15.9324ZM24.2806 18.0626C24.2088 17.7477 24.2806 17.3285 23.8924 17.1189C23.5042 16.9093 23.116 16.9785 22.7443 17.1969C22.2319 17.4991 21.9078 18.3394 22.0223 18.9614C22.1058 19.4118 22.328 19.7004 22.7706 19.8028C23.1966 19.9003 23.5401 19.7258 23.7798 19.3933C24.077 19.0109 24.2517 18.5469 24.2806 18.0626Z" fill="#A0D1CA"/>
<path d="M18.0687 2.88132C18.8499 2.70291 19.638 2.7458 20.4211 2.85012C20.8035 2.90179 21.085 2.92129 21.3693 2.54107C21.84 1.91323 22.6038 1.84791 23.3336 2.2603C24.0362 2.65611 24.4215 3.45846 24.238 4.13602C24.1933 4.30127 24.115 4.4554 24.0079 4.58865C23.9008 4.72189 23.7673 4.83135 23.616 4.9101C23.416 5.02027 23.3811 5.13141 23.4607 5.33906C23.5826 5.64103 23.6296 5.96826 23.5975 6.29252C23.4539 6.39879 23.5063 6.55575 23.4947 6.69613C23.3976 7.88162 22.63 8.87408 21.5537 9.21432C21.6507 8.33106 21.446 7.55698 20.656 7.06953C19.3022 6.24475 17.4941 6.69418 16.8983 8.14777C16.8415 8.14313 16.7878 8.12037 16.7448 8.08284C16.7019 8.0453 16.672 7.99495 16.6595 7.93914C16.1491 6.59864 16.1811 5.30006 16.9419 4.05121C17.236 3.57545 17.6941 3.27323 18.0687 2.88132ZM22.6008 2.68633C22.2573 2.71461 21.9894 2.86669 21.8846 3.14844C21.7876 3.41459 22.1127 3.44091 22.2495 3.57838C22.4562 3.78213 22.6892 3.96834 22.8668 4.18964C23.0288 4.39535 23.1463 4.35538 23.2986 4.20914C23.4152 4.10913 23.4969 3.97431 23.5318 3.82436C23.5667 3.67441 23.553 3.51717 23.4927 3.37559C23.3345 2.93104 22.9832 2.77798 22.6008 2.68536V2.68633ZM18.2065 6.26425C18.1774 6.06147 18.155 5.83042 17.9153 5.82359C17.7057 5.81677 17.6456 6.03027 17.6358 6.20771C17.6232 6.40269 17.6688 6.63277 17.892 6.65811C18.1502 6.68736 18.1405 6.42316 18.2065 6.26425ZM20.787 6.26425C20.7744 6.06927 20.755 5.84407 20.5124 5.83334C20.3037 5.82457 20.229 6.02832 20.2212 6.20478C20.2125 6.41829 20.262 6.66104 20.523 6.66006C20.722 6.65616 20.7686 6.44168 20.787 6.26035V6.26425Z" fill="#A0D1CA"/>
<path d="M18.0687 2.8813C17.6941 3.27126 17.2311 3.57543 16.94 4.05119C16.1791 5.30005 16.1471 6.59863 16.6576 7.93913C16.67 7.99493 16.6999 8.04528 16.7428 8.08282C16.7858 8.12035 16.8396 8.14311 16.8963 8.14776C16.6838 8.62644 16.9672 9.06612 17.004 9.52433C16.4868 9.99326 16.544 10.5704 16.6983 11.1661C16.3218 11.6272 16.3033 12.2083 16.2412 12.7484C16.1568 13.4815 16.0656 14.2224 16.1267 14.9663C16.1849 15.6711 16.2412 16.3809 16.4538 17.0555C16.8012 18.1591 17.7969 18.8289 19.0372 18.862C19.6143 18.8615 20.1886 18.7818 20.7443 18.6251C20.9384 18.5773 21.0548 18.5647 21.0713 18.8094C21.0956 19.1779 21.1335 19.5454 21.1684 19.913C19.5351 20.6929 17.925 20.5145 16.3276 19.7989C16.2606 19.4704 16.4635 19.1642 16.413 18.8415C16.2082 17.5381 15.7492 16.4091 14.375 15.9334C14.3517 14.9 14.3439 13.8666 14.472 12.838C14.6448 11.8885 14.9573 10.9984 15.5512 10.2233L16.3024 9.77001C16.019 9.45998 15.7201 9.18506 15.4842 8.86432C14.7321 7.85529 14.672 6.71464 14.9136 5.5272C14.9495 5.35367 14.9903 5.18013 15.0291 5.0066C15.0728 4.72778 15.5017 4.51427 15.1261 4.15843C14.77 3.82014 14.7952 3.41165 15.131 3.05873C15.526 2.64245 16.0588 2.53326 16.3635 2.90372C16.7032 3.31513 16.973 3.23324 17.3039 2.96124C17.5669 3.03826 17.8047 2.8384 18.0687 2.8813Z" fill="#A0D1CA"/>
<path d="M15.5484 10.2253C14.9564 11.0003 14.6419 11.8904 14.4692 12.84C13.291 12.7835 12.1148 12.722 11.0327 12.1673C10.6779 12.0049 10.3798 11.7393 10.1767 11.4049C9.89627 10.9107 9.96324 10.43 10.2845 9.99132C10.595 9.56723 11.0259 9.38882 11.5199 9.60135C12.601 10.0761 13.7316 10.1395 14.8855 10.1015C15.101 10.0986 15.3271 10.1824 15.5484 10.2253Z" fill="#A0D1CA"/>
<path d="M14.3702 15.9354C15.7463 16.4111 16.2054 17.5401 16.4082 18.8435C16.4587 19.1662 16.2558 19.4723 16.3228 19.8009C16.0423 20.2815 15.7172 20.7085 15.1582 20.9015C14.9626 20.977 14.7528 21.0082 14.5439 20.993C14.3349 20.9779 14.1318 20.9167 13.949 20.8138C12.9125 20.2445 12.0983 18.6066 12.2691 17.4289C12.4515 16.1986 13.0755 15.754 14.3702 15.9354ZM15.4484 18.7626C15.4484 18.0382 15.2659 17.6453 14.7254 17.2115C14.1654 16.7611 13.3123 17.0048 13.2289 17.657C13.1454 18.3093 13.2677 18.9244 13.7306 19.4119C14.0091 19.7043 14.341 19.9539 14.7981 19.7697C15.2552 19.5854 15.4891 19.2705 15.4484 18.7655V18.7626Z" fill="#A0D1CA"/>
<path d="M17.2999 2.96323C16.9689 3.23523 16.6991 3.31712 16.3595 2.90571C16.0547 2.53524 15.5219 2.64443 15.127 3.06072C14.7912 3.41364 14.7659 3.82212 15.1221 4.16042C15.4987 4.51626 15.0697 4.72976 15.0251 5.00859C14.2933 4.65664 14.0419 4.17406 14.1924 3.41266C14.3321 2.70293 15.1066 2.04779 15.8529 2.01074C16.5429 1.97564 17.1009 2.34124 17.2999 2.96323Z" fill="#A0D1CA"/>
<path d="M21.5518 9.21434C22.63 8.8741 23.3957 7.88164 23.4927 6.69615C23.5044 6.55577 23.452 6.40368 23.5956 6.29254C23.7092 7.78123 23.2278 8.98719 21.938 9.80806C21.8322 9.87533 21.6993 9.92798 21.7362 10.1005H21.6245C21.5353 9.93578 21.447 9.77102 21.3577 9.60723C21.3681 9.45563 21.4379 9.31435 21.5518 9.21434Z" fill="#A0D1CA"/>
<path d="M23.3286 15.9324C23.154 15.9461 22.9851 15.9236 23.0171 15.6945C23.0889 15.172 23.1811 14.6523 23.2685 14.1142C23.4509 14.2234 23.3655 14.4067 23.4674 14.5139C23.4208 14.9858 23.3752 15.4596 23.3286 15.9324Z" fill="#A0D1CA"/>
<path d="M21.3596 9.60431C21.4489 9.76809 21.5372 9.93285 21.6265 10.0976C21.6643 10.4359 21.6837 10.7713 21.5595 11.1008C21.3654 11.6194 20.9898 11.8232 20.492 11.5814C19.9698 11.325 19.4652 11.1086 18.8625 11.1388C18.6869 11.1476 18.5423 11.1252 18.385 11.2363C18.1986 11.3613 18.0003 11.4675 17.793 11.5532C17.2243 11.7988 17.0166 11.7218 16.6944 11.171C16.5401 10.5753 16.4829 10.0011 17.0002 9.52924C17.4215 9.5211 17.8345 9.64702 18.1803 9.88898C18.7849 10.3101 19.406 10.084 19.9883 9.89483C20.4454 9.7447 20.8481 9.44637 21.3596 9.60431Z" fill="#71ACAB"/>
<path d="M24.2808 18.0626C24.2507 18.5473 24.0747 19.0114 23.7762 19.3933C23.5364 19.7258 23.1939 19.9022 22.7669 19.8028C22.3243 19.7004 22.1021 19.4128 22.0186 18.9615C21.9041 18.3395 22.2282 17.4991 22.7407 17.1969C23.1114 16.9785 23.5006 16.9122 23.8887 17.1189C24.2769 17.3256 24.209 17.7448 24.2808 18.0626Z" fill="#A0D1CA"/>
<path d="M21.3594 9.60431C20.848 9.44637 20.4452 9.74469 19.992 9.89191C19.4097 10.081 18.7886 10.3072 18.184 9.88606C17.8383 9.64409 17.4252 9.51817 17.0039 9.52632C16.967 9.06811 16.6836 8.62842 16.8962 8.14974C17.4921 6.69616 19.3001 6.24672 20.6539 7.0715C21.4439 7.55408 21.6506 8.33108 21.5516 9.2163C21.4396 9.31546 21.3706 9.45472 21.3594 9.60431ZM19.2913 6.9935C18.7682 6.97693 18.3286 7.21871 18.35 7.48681C18.3694 7.73736 18.8478 7.96159 19.2729 7.91284C19.6135 7.87287 20.0046 7.79878 19.9775 7.37664C19.9532 6.97888 19.5204 7.07539 19.2913 6.9935Z" fill="#A0D1CA"/>
<path d="M22.6008 2.68536C22.9832 2.77798 23.3345 2.93104 23.4898 3.37463C23.5501 3.5162 23.5638 3.67344 23.5289 3.82339C23.4939 3.97334 23.4122 4.10816 23.2957 4.20817C23.1433 4.35441 23.0259 4.39438 22.8638 4.18867C22.6862 3.96347 22.4533 3.78116 22.2466 3.5774C22.1097 3.44287 21.7817 3.41362 21.8817 3.14747C21.9914 2.86572 22.2573 2.71364 22.6008 2.68536Z" fill="#A0D1CA"/>
<path d="M18.2064 6.26426C18.1404 6.42317 18.1501 6.68737 17.8949 6.65422C17.6716 6.62887 17.626 6.39977 17.6386 6.20381C17.6483 6.02638 17.7085 5.81385 17.9181 5.8197C18.1549 5.83042 18.1773 6.06148 18.2064 6.26426Z" fill="#575757"/>
<path d="M20.7869 6.26035C20.7685 6.44168 20.7219 6.65616 20.523 6.65616C20.2619 6.65616 20.2124 6.41438 20.2211 6.20088C20.2289 6.02247 20.3036 5.82066 20.5123 5.82944C20.7549 5.84016 20.7743 6.06342 20.7869 6.26035Z" fill="#575757"/>
<path d="M15.4483 18.7655C15.4901 19.2705 15.2475 19.5893 14.7962 19.7707C14.3449 19.952 14.0091 19.7053 13.7286 19.4129C13.2657 18.9254 13.1463 18.3063 13.2269 17.658C13.3074 17.0097 14.1634 16.7621 14.7234 17.2125C15.2659 17.6473 15.4493 18.0373 15.4483 18.7655Z" fill="#A0D1CA"/>
<path d="M19.2915 6.99349C19.5205 7.07538 19.9514 6.97887 19.9776 7.37663C20.0048 7.79876 19.6137 7.87286 19.273 7.91283C18.848 7.96157 18.3695 7.73735 18.3501 7.48679C18.3288 7.21577 18.7684 6.97692 19.2915 6.99349Z" fill="#575757"/>
</g>
<defs>
<clipPath id="clip0_178_2195">
<rect width="18" height="22" fill="white"/>
</clipPath>
<clipPath id="clip1_178_2195">
<rect width="17" height="19" fill="white" transform="translate(10 2)"/>
</clipPath>
</defs>
</svg>
