<svg width="15" height="31" viewBox="0 0 15 31" fill="none" xmlns="http://www.w3.org/2000/svg">
<g clip-path="url(#clip0_174_1280)">
<path d="M6.71939 17.3533C5.01139 17.4761 3.29283 17.5781 1.70322 18.284C0.576531 18.7837 0.542703 19.3791 1.53833 20.1474C1.69757 21.3967 1.85682 22.6459 2.01606 23.8951C1.98435 24.3116 1.91249 24.7467 2.15982 25.1444C1.93363 26.6018 2.6333 28.0156 2.4346 29.4855C2.36484 30.006 2.74323 30.2829 3.23576 30.4204C5.94711 31.1704 8.81238 31.1956 11.5369 30.4932C12.2556 30.3183 12.6065 29.8374 12.5156 29.1128C12.393 28.1134 12.4881 27.0474 12.56 26.123C12.6361 25.1631 12.8475 24.0909 12.9954 23.0686C13.1371 22.6549 13.1875 22.2162 13.1434 21.7818L13.2068 20.341C14.4329 19.2251 14.3145 18.6379 12.6995 18.0945C11.2367 17.6031 9.70838 17.449 8.17161 17.3803L8.14624 15.9978C9.27081 15.646 10.0487 14.9568 10.3129 13.795C10.4292 13.3036 10.63 13.2599 11.1183 13.3786C12.598 13.7284 13.805 13.2245 14.5005 12.0815C15.2213 10.8739 15.0585 9.68499 13.9234 8.49821C13.5767 8.13385 13.5598 7.98186 13.9234 7.61125C15.0078 6.51816 15.1917 5.26475 14.5576 4.10504C13.9234 2.94532 12.7037 2.3665 11.2346 2.68922C10.6004 2.82664 10.4123 2.74544 10.2347 2.12915C9.83732 0.744568 8.7973 0.00543213 7.44866 0.00543213C6.10002 0.00543213 5.07058 0.754977 4.6605 2.11874C4.49984 2.65799 4.40473 2.90992 3.69236 2.70796C3.07914 2.52219 2.41964 2.5504 1.82509 2.78784C1.23053 3.02527 0.737283 3.4574 0.428555 4.01134C-0.258447 5.19812 -0.127387 6.53273 0.931654 7.52588C1.48337 8.04432 1.23817 8.25253 0.855558 8.6502C0.39741 9.09096 0.105758 9.67256 0.0288789 10.2988C-0.0480001 10.925 0.0945022 11.5583 0.432787 12.094C0.753929 12.6146 1.23202 13.0237 1.80039 13.264C2.36877 13.5044 2.99911 13.5641 3.60357 13.4348C3.8678 13.3786 4.12147 13.2724 4.43433 13.1725C4.57807 14.6487 5.36228 15.5731 6.73629 16.0166L6.71939 17.3533Z" fill="#FEFEFE"/>
<path d="M6.74103 16.0111C5.36703 15.5677 4.58279 14.6432 4.43904 13.167C4.12619 13.267 3.87255 13.3752 3.60831 13.4294C3.00385 13.5587 2.37349 13.499 1.80511 13.2586C1.23674 13.0183 0.758675 12.6092 0.437532 12.0885C0.0992473 11.5529 -0.043255 10.9196 0.033624 10.2934C0.110503 9.66713 0.402155 9.08552 0.860303 8.64477C1.24291 8.24709 1.49446 8.03889 0.936399 7.52045C-0.120528 6.5273 -0.253702 5.19269 0.4333 4.00591C0.742028 3.45196 1.23525 3.01984 1.82981 2.7824C2.42436 2.54497 3.08386 2.51676 3.69708 2.70253C4.40945 2.91074 4.50459 2.65256 4.66524 2.1133C5.07533 0.749545 6.10476 0 7.4534 0C8.80204 0 9.84207 0.739136 10.2395 2.12371C10.417 2.74834 10.6136 2.82121 11.2393 2.68379C12.719 2.36107 13.9176 2.93364 14.5623 4.0996C15.207 5.26557 15.0125 6.51273 13.9281 7.60582C13.5582 7.97643 13.5751 8.12842 13.9281 8.49278C15.0633 9.67956 15.226 10.8684 14.5052 12.076C13.8203 13.2191 12.6027 13.7229 11.1231 13.3732C10.6348 13.2586 10.4339 13.3024 10.3177 13.7896C10.0471 14.941 9.27556 15.6405 8.1531 15.9924L6.74103 16.0111ZM7.42172 4.50561C6.94853 4.51076 6.48102 4.60792 6.04606 4.7915C5.6111 4.97508 5.21724 5.24146 4.88708 5.57537C4.55691 5.90927 4.29695 6.30412 4.12212 6.73724C3.94729 7.17036 3.86105 7.63322 3.86831 8.09927C3.90124 9.02149 4.29248 9.89604 4.96121 10.5423C5.62995 11.1886 6.52511 11.5573 7.46187 11.5722C9.4045 11.5597 11.0406 9.90651 11.0343 7.94728C11.0343 6.09839 9.33898 4.48687 7.42172 4.50561Z" fill="#A0D1CA"/>
<path d="M2.01655 23.9001C1.85872 22.6509 1.69947 21.4016 1.53882 20.1524C1.93411 20.2919 2.32094 20.4543 2.72469 20.5688C6.24214 21.5578 9.73425 21.3225 13.2073 20.344L13.1439 21.7847C12.7211 21.7244 12.3681 21.8222 12.2983 22.2949C12.2286 22.7675 12.4759 23.0611 12.9938 23.0715C12.8458 24.0938 12.6344 25.166 12.5583 26.1259C12.4865 27.0503 12.3914 28.1163 12.514 29.1157C12.6049 29.8403 12.254 30.3213 11.5352 30.4961C8.81075 31.1985 5.94548 31.1733 3.23413 30.4233C2.74161 30.2859 2.36322 30.0069 2.43297 29.4884C2.63168 28.0185 1.93201 26.6131 2.15819 25.1473C2.74795 24.6559 2.8325 24.227 2.01655 23.9001ZM9.5292 27.1669C9.41928 26.7817 9.27554 26.3861 8.81895 26.3945C8.39617 26.3945 7.9417 26.5777 7.92056 27.0691C7.89942 27.5604 8.25031 27.8103 8.72592 27.8165C9.15292 27.8248 9.41928 27.5708 9.5292 27.1669ZM7.07078 28.8326C7.07208 28.6483 7.00626 28.4696 6.88525 28.329C6.76425 28.1884 6.59607 28.0953 6.41126 28.0664C5.95467 27.9768 5.65239 28.2746 5.59743 28.691C5.57445 28.7855 5.57349 28.8838 5.59462 28.9787C5.61575 29.0736 5.65842 29.1626 5.71943 29.2389C5.78045 29.3152 5.85822 29.377 5.94692 29.4195C6.03562 29.462 6.13296 29.4841 6.23159 29.4843C6.66282 29.528 6.982 29.3739 7.07078 28.843V28.8326ZM11.9326 28.6556C11.9094 28.1934 11.6304 27.9997 11.1843 27.9977C10.7383 27.9956 10.4276 28.1684 10.417 28.641C10.4064 29.1137 10.7193 29.301 11.159 29.3052C11.5987 29.3094 11.9009 29.149 11.9305 28.6764L11.9326 28.6556ZM4.71383 26.5943C4.69903 26.1779 4.48976 25.8469 4.04796 25.8323C3.95939 25.8215 3.86955 25.8281 3.78355 25.8516C3.69755 25.875 3.61709 25.915 3.5468 25.9692C3.4765 26.0233 3.41775 26.0906 3.37389 26.1671C3.33003 26.2437 3.30194 26.328 3.29121 26.4153C3.24893 26.8671 3.55545 27.1211 3.98033 27.1794C4.40521 27.2377 4.65464 27.0399 4.71383 26.5943ZM8.5864 22.4302C8.18477 22.5447 7.86981 22.7654 7.90575 23.2089C7.91236 23.3847 7.98865 23.551 8.11827 23.672C8.24788 23.7931 8.4205 23.8593 8.5991 23.8564C8.69613 23.8636 8.79359 23.8504 8.88508 23.8178C8.97657 23.7851 9.05999 23.7338 9.12988 23.6671C9.19977 23.6004 9.25456 23.5199 9.29059 23.4309C9.32662 23.3419 9.3431 23.2463 9.33895 23.1506C9.33895 22.7238 9.01763 22.4947 8.58852 22.4302H8.5864ZM11.6896 24.8038C11.6774 24.6164 11.5968 24.4397 11.4628 24.3061C11.3288 24.1726 11.1504 24.0913 10.9603 24.0771C10.51 24.0292 10.2268 24.2478 10.212 24.7017C10.212 25.1182 10.4403 25.3264 10.8461 25.3576C11.252 25.3888 11.586 25.2785 11.6896 24.8038ZM6.38167 24.1208C6.0202 24.2145 5.74751 24.3811 5.74751 24.8121C5.74751 25.2431 5.94621 25.5512 6.4324 25.5346C6.91858 25.5179 7.09616 25.2118 7.07713 24.7684C7.05811 24.3249 6.75581 24.1937 6.3732 24.1208H6.38167ZM4.26781 23.2401C4.68001 23.2255 4.91464 23.0319 4.91887 22.6155C4.92752 22.5381 4.91946 22.4598 4.89521 22.3858C4.87095 22.3117 4.83107 22.2435 4.77816 22.1857C4.72526 22.1279 4.66054 22.0818 4.58824 22.0503C4.51595 22.0189 4.43771 22.0029 4.35869 22.0034C3.95706 21.9721 3.68227 22.1512 3.6569 22.5739C3.63154 22.9965 3.84715 23.2047 4.26781 23.2401Z" fill="#E7D5C6"/>
<path d="M13.2074 20.3481C9.73433 21.3267 6.23165 21.562 2.72477 20.573C2.32102 20.4585 1.93419 20.2961 1.5389 20.1566C0.543273 19.3883 0.577101 18.7928 1.70379 18.2931C3.2934 17.5873 5.01196 17.4853 6.71996 17.3624C6.75931 17.6677 6.77979 17.975 6.78127 18.2827C6.75167 18.8282 7.07932 19.0073 7.54225 19.0531C8.13202 19.1114 8.1003 18.695 8.11298 18.3077C8.11298 18.0016 8.15104 17.6956 8.17217 17.3874C9.70895 17.4561 11.2373 17.6102 12.7001 18.1016C14.315 18.6367 14.4377 19.2238 13.2074 20.3481Z" fill="#A0D1CA"/>
<path d="M8.17219 17.3791C8.15105 17.6872 8.12145 17.9933 8.11299 18.2994C8.10031 18.6866 8.13203 19.103 7.54226 19.0447C7.07933 18.9989 6.75169 18.8199 6.78128 18.2744C6.77981 17.9667 6.75933 17.6593 6.71997 17.3541C6.72843 16.9058 6.73547 16.4581 6.7411 16.0112L8.14894 15.9966C8.15598 16.4588 8.16373 16.9196 8.17219 17.3791Z" fill="#71ACAB"/>
<path d="M12.9961 23.0673C12.4782 23.0673 12.2309 22.7862 12.3006 22.2907C12.3704 21.7951 12.7234 21.7202 13.1462 21.7806C13.1897 22.2151 13.1385 22.6538 12.9961 23.0673Z" fill="#A0D1CA"/>
<path d="M2.01654 23.9001C2.83249 24.227 2.74794 24.6559 2.16029 25.1494C1.91297 24.7517 1.98483 24.3228 2.01654 23.9001Z" fill="#A0D1CA"/>
<path d="M7.42166 4.50559C9.33893 4.48686 11.0342 6.09838 11.0385 7.94726C11.0385 9.90025 9.40868 11.5597 7.46605 11.5722C6.52929 11.5572 5.63413 11.1886 4.96539 10.5423C4.29666 9.89602 3.90543 9.02147 3.87249 8.09925C3.86523 7.63356 3.95135 7.17103 4.12591 6.73817C4.30048 6.30532 4.56005 5.91066 4.88976 5.57681C5.21948 5.24296 5.61285 4.97649 6.04732 4.79267C6.4818 4.60885 6.94884 4.51129 7.42166 4.50559ZM5.46844 9.00912C5.89121 9.8128 6.55708 10.3625 7.48506 10.3021C8.34329 10.2459 9.12965 9.9169 9.53129 8.89461C8.66249 9.03202 8.17842 9.66289 7.49776 9.85236C6.61628 10.098 6.17869 9.26105 5.46844 9.00912ZM6.61627 7.02282C6.56765 6.70843 6.5275 6.24204 6.04343 6.25453C5.52765 6.26703 5.40927 6.75215 5.40927 7.1644C5.4283 7.52876 5.56147 7.99723 6.04343 7.94934C6.47677 7.89313 6.61627 7.48921 6.61627 7.02282ZM9.396 7.08528C9.37486 6.7001 9.34316 6.23996 8.8464 6.25245C8.28411 6.26286 8.27354 6.7584 8.29046 7.1769C8.30314 7.51627 8.30736 7.95559 8.75973 7.96183C9.28819 7.95351 9.41713 7.53501 9.39388 7.07487L9.396 7.08528Z" fill="#E7D5C6"/>
<path d="M9.52922 27.1669C9.4193 27.5708 9.15718 27.8248 8.72595 27.8165C8.25033 27.8165 7.89945 27.5396 7.92058 27.069C7.94172 26.5985 8.40043 26.4028 8.81897 26.3944C9.27557 26.3861 9.4193 26.7817 9.52922 27.1669Z" fill="#A0D1CA"/>
<path d="M7.07092 28.843C6.98214 29.3739 6.66295 29.528 6.22538 29.4884C6.12674 29.4883 6.02943 29.4661 5.94074 29.4236C5.85204 29.3811 5.77424 29.3194 5.71322 29.2431C5.6522 29.1667 5.60954 29.0778 5.58841 28.9829C5.56728 28.888 5.56824 28.7896 5.59122 28.6951C5.64618 28.2787 5.94846 27.9872 6.40505 28.0705C6.59211 28.0982 6.76265 28.1917 6.88508 28.3337C7.00751 28.4758 7.07353 28.6567 7.07092 28.843Z" fill="#A0D1CA"/>
<path d="M11.9307 28.6764C11.8948 29.1594 11.5925 29.3302 11.157 29.326C10.7216 29.3218 10.4045 29.1407 10.4151 28.6618C10.4256 28.1829 10.7448 28.0185 11.1824 28.0185C11.6199 28.0185 11.9011 28.2038 11.9307 28.6764Z" fill="#A0D1CA"/>
<path d="M4.71394 26.5943C4.65264 27.0399 4.38841 27.2356 3.98044 27.1794C3.57246 27.1232 3.24904 26.8671 3.29132 26.4153C3.30205 26.328 3.33014 26.2437 3.374 26.1672C3.41785 26.0906 3.47661 26.0233 3.54691 25.9692C3.6172 25.915 3.69766 25.8751 3.78366 25.8516C3.86966 25.8281 3.9595 25.8215 4.04807 25.8323C4.50255 25.8469 4.70126 26.1779 4.71394 26.5943Z" fill="#A0D1CA"/>
<path d="M8.58848 22.4302C9.01125 22.4989 9.33891 22.7279 9.34103 23.1506C9.34518 23.2463 9.3287 23.3419 9.29267 23.4309C9.25664 23.5199 9.20185 23.6004 9.13196 23.6671C9.06207 23.7338 8.97865 23.7851 8.88716 23.8177C8.79567 23.8504 8.69821 23.8635 8.60118 23.8564C8.42258 23.8592 8.24996 23.793 8.12035 23.672C7.99073 23.5509 7.91444 23.3847 7.90783 23.2089C7.87189 22.7612 8.18685 22.5405 8.58848 22.4302Z" fill="#A0D1CA"/>
<path d="M11.6897 24.8037C11.5945 25.2785 11.2669 25.393 10.8441 25.3638C10.4213 25.3347 10.21 25.1161 10.21 24.708C10.2248 24.2478 10.508 24.0292 10.9583 24.0833C11.1477 24.0969 11.3259 24.1771 11.4602 24.3094C11.5945 24.4417 11.6759 24.6172 11.6897 24.8037Z" fill="#A0D1CA"/>
<path d="M6.37336 24.1208C6.75597 24.1937 7.05403 24.329 7.07094 24.7683C7.08785 25.2077 6.91028 25.5179 6.4262 25.5345C5.94213 25.5512 5.74766 25.2618 5.74132 24.8121C5.73498 24.3623 6.01189 24.2145 6.37336 24.1208Z" fill="#A0D1CA"/>
<path d="M4.26791 23.2401C3.84514 23.2047 3.63375 22.9757 3.657 22.5676C3.68026 22.1595 3.95716 21.9659 4.35879 21.9971C4.43781 21.9967 4.51605 22.0127 4.58834 22.0441C4.66064 22.0755 4.72536 22.1216 4.77826 22.1795C4.83117 22.2373 4.87106 22.3054 4.89531 22.3795C4.91956 22.4536 4.92762 22.5319 4.91897 22.6093C4.92531 23.0236 4.68011 23.2255 4.26791 23.2401Z" fill="#A0D1CA"/>
<path d="M5.46851 9.00913C6.17876 9.26107 6.61001 10.0981 7.49783 9.85237C8.17849 9.66291 8.66256 9.03204 9.53135 8.89462C9.12972 9.91692 8.34336 10.2459 7.48513 10.3021C6.55715 10.3542 5.8955 9.81281 5.46851 9.00913Z" fill="#71ACAB"/>
<path d="M6.61641 7.02282C6.61641 7.49962 6.479 7.90354 6.05623 7.94934C5.57216 7.99931 5.43899 7.53293 5.42208 7.1644C5.40094 6.74799 5.52988 6.26703 6.05623 6.25454C6.52551 6.23163 6.56568 6.69802 6.61641 7.02282Z" fill="#71ACAB"/>
<path d="M9.39406 7.07489C9.41732 7.53503 9.28837 7.95352 8.75991 7.94519C8.30754 7.94519 8.30332 7.49963 8.29064 7.16025C8.27373 6.74384 8.29064 6.24622 8.84658 6.23581C9.34122 6.22956 9.36447 6.6897 9.39406 7.07489Z" fill="#71ACAB"/>
</g>
<defs>
<clipPath id="clip0_174_1280">
<rect width="14.9259" height="31" fill="white"/>
</clipPath>
</defs>
</svg>
