<svg width="24" height="26" viewBox="0 0 24 26" fill="none" xmlns="http://www.w3.org/2000/svg">
<g clip-path="url(#clip0_178_2197)">
<path d="M19.7453 26.0005C19.8131 25.9355 19.732 25.9228 19.7048 25.8963C19.4928 25.6881 19.272 25.4899 19.0667 25.273C18.8368 25.0332 18.8388 24.7975 19.0713 24.5587C19.3793 24.2422 19.6904 23.9273 20.0153 23.6275C20.1539 23.5 20.1334 23.4299 20.0092 23.3136C19.7012 23.0225 19.3932 22.7248 19.1032 22.4159C18.9707 22.2752 18.8819 22.2731 18.7249 22.3859C17.3559 23.37 15.8165 23.846 14.1313 23.7434C11.6054 23.591 9.6584 22.4256 8.29763 20.3081C8.25246 20.2375 8.20164 20.1699 8.15339 20.1008C7.85541 19.5552 7.62268 18.9771 7.45992 18.3781C7.44247 18.2872 7.42553 18.1958 7.40859 18.1048C6.89836 15.4293 7.63855 13.152 9.62914 11.273C10.2338 10.702 10.9529 10.2991 11.7044 9.94907C12.2906 9.71647 12.9029 9.55427 13.5282 9.46594C14.7601 9.34401 15.9684 9.44816 17.1254 9.91046C19.0416 10.676 20.4362 11.9933 21.1923 13.8974C22.1604 16.3334 21.8555 18.6499 20.3356 20.7989C20.2386 20.936 20.2294 21.0133 20.3577 21.1331C20.6811 21.4346 20.9952 21.7455 21.3001 22.0659C21.4207 22.1929 21.488 22.1746 21.5988 22.0593C21.8935 21.7545 22.1989 21.4573 22.5033 21.1606C22.7938 20.8776 23.0217 20.8802 23.3174 21.1662C23.4827 21.3257 23.6469 21.4857 23.8066 21.6508C24.0632 21.916 24.0663 22.139 23.8091 22.4017C23.5012 22.7172 23.187 23.0296 22.8657 23.3334C22.7517 23.4411 22.7486 23.5041 22.8657 23.6133C23.1819 23.9105 23.4873 24.2184 23.7922 24.5277C24.0719 24.8102 24.0725 25.0317 23.7922 25.3147C23.5828 25.5245 23.362 25.7241 23.1465 25.9284C23.1244 25.9497 23.0905 25.9705 23.1357 26.002H22.6737C22.6832 25.9918 22.6921 25.9811 22.7004 25.97C22.3149 25.5905 21.9258 25.2151 21.5434 24.8326C21.4351 24.7243 21.3838 24.8102 21.3191 24.8737C21.0363 25.1526 20.7483 25.4274 20.4742 25.715C20.3849 25.8085 20.2437 25.8582 20.2104 26.002L19.7453 26.0005ZM12.4954 11.5976C11.7595 11.857 11.0997 12.2922 10.5746 12.8646C9.20514 14.3379 8.75292 16.0494 9.26469 17.9956C9.41144 18.5779 9.66816 19.1274 10.0213 19.6152C10.2004 19.9159 10.4381 20.1689 10.6855 20.4153C12.3476 22.0699 15.0789 22.4418 17.1203 21.2886C20.0784 19.6182 20.8397 15.8777 18.7228 13.2329C17.5966 11.8257 16.0844 11.1622 14.2607 11.2247C13.6548 11.2465 13.0574 11.3727 12.4954 11.5976Z" fill="#DC968F"/>
<path d="M7.45973 18.378C7.62249 18.9769 7.85522 19.555 8.1532 20.1007C6.59481 20.311 5.11753 20.0372 3.7542 19.2787C1.77336 18.1768 0.537325 16.5064 0.122062 14.2899C-0.545232 10.7338 1.5593 7.2838 5.03847 6.17479C5.39525 6.05888 5.76187 5.97506 6.13386 5.92434C6.23652 5.91062 6.34586 5.90808 6.34329 5.7384C6.33303 4.94335 6.33764 4.14829 6.33559 3.35324C6.33559 3.34054 6.31865 3.32784 6.28837 3.28669C6.05327 3.5214 5.82332 3.75407 5.58977 3.9837C5.26844 4.30019 5.06209 4.30019 4.74025 3.9837C4.58215 3.83129 4.42302 3.67583 4.26954 3.51682C4.0093 3.24808 4.0052 3.01134 4.27571 2.74768C5.19555 1.85204 6.07946 0.921346 7.02702 0.0551704C7.05217 0.0318015 7.04138 0.015036 7.01982 -0.0012207H7.4818C7.43509 0.0211322 7.45356 0.049582 7.47871 0.0724429C8.37015 0.946577 9.26176 1.82122 10.1535 2.69637C10.5005 3.03776 10.4995 3.23335 10.1587 3.57271C10.0021 3.72867 9.84812 3.88768 9.68694 4.03907C9.43029 4.28038 9.20496 4.2814 8.94779 4.03501C8.69063 3.78862 8.44835 3.53664 8.14858 3.2364V4.74268C8.14858 5.05562 8.15679 5.36856 8.14498 5.68099C8.13882 5.8334 8.1804 5.89995 8.34209 5.92332C9.35784 6.07155 10.3285 6.43812 11.1858 6.99727C12.1667 7.63129 12.9587 8.44513 13.5275 9.46473C12.9022 9.55306 12.2899 9.71526 11.7037 9.94786C10.4718 8.13677 8.11059 7.24671 5.97012 7.77048C3.06226 8.48171 1.28879 11.3155 1.94582 14.1746C2.53663 16.7467 4.75359 18.4156 7.45973 18.378Z" fill="#A0D1CA"/>
<path d="M14.2605 11.2247C15.1665 14.6361 13.313 18.305 10.0212 19.6147C9.6689 19.1276 9.41288 18.5789 9.2666 17.9977C9.3436 17.9621 9.42059 17.9281 9.4981 17.8915C11.2736 17.0334 12.3259 15.6465 12.6246 13.7074C12.734 12.9962 12.6457 12.2946 12.4973 11.5976C13.0587 11.3729 13.6554 11.2467 14.2605 11.2247Z" fill="#A0D1CA"/>
</g>
<defs>
<clipPath id="clip0_178_2197">
<rect width="24" height="26" fill="white"/>
</clipPath>
</defs>
</svg>
