<svg width="24" height="24" viewBox="0 0 24 24" fill="none" xmlns="http://www.w3.org/2000/svg">
<g clip-path="url(#clip0_174_1336)">
<path d="M14.2629 5.65C14.2629 5.39617 14.2629 5.14257 14.2629 4.8892C14.2748 4.87086 14.2812 4.84966 14.2812 4.82804C14.2812 4.80641 14.2748 4.78521 14.2629 4.76687C14.2629 4.70776 14.2629 4.64797 14.2629 4.58887C14.2773 4.56662 14.2837 4.54046 14.2811 4.51438C14.2785 4.48831 14.2671 4.46377 14.2487 4.44454C14.1894 4.37582 14.2029 4.2796 14.1687 4.20125C14.1687 4.19025 14.1687 4.17994 14.1687 4.16964C14.1723 4.15587 14.1715 4.14134 14.1663 4.12804C14.161 4.11475 14.1516 4.10335 14.1394 4.09541C14.1394 4.08373 14.1394 4.07136 14.1358 4.05967C14.1572 4.01912 14.1737 3.97995 14.1037 3.97033C14.1037 3.96414 14.1001 3.95796 14.0987 3.95177C14.0908 3.92153 14.1172 3.87892 14.0644 3.86518C14.0636 3.85947 14.0636 3.8537 14.0644 3.84799C14.0279 3.75934 14.0208 3.65556 13.9215 3.59989C13.9189 3.59471 13.9172 3.58913 13.9165 3.5834C13.9067 3.54326 13.8886 3.50542 13.8634 3.47213C13.8381 3.43884 13.8061 3.41077 13.7694 3.38959C13.7698 3.38256 13.7687 3.37553 13.766 3.36896C13.7634 3.3624 13.7594 3.35644 13.7542 3.3515C13.7489 3.34655 13.7427 3.34274 13.7358 3.3403C13.729 3.33786 13.7217 3.33686 13.7144 3.33736L13.6958 3.32017C13.6771 3.27905 13.6499 3.242 13.6159 3.21128C13.5819 3.18057 13.5418 3.15682 13.4979 3.14149C13.4977 3.13706 13.4965 3.13273 13.4945 3.12874C13.4925 3.12476 13.4896 3.12119 13.4862 3.11826C13.4827 3.11532 13.4787 3.11307 13.4744 3.11163C13.47 3.11019 13.4654 3.10959 13.4608 3.10987C13.4672 3.04458 13.4358 3.0219 13.3679 3.04115C13.2922 2.99716 13.2251 3.0707 13.1486 3.05489C13.1679 2.89545 13.1894 2.73669 13.2201 2.57861C13.2642 2.31362 13.3399 2.05441 13.4458 1.80613C13.5834 1.50328 13.7724 1.22457 14.0051 0.981411C14.1074 0.885936 14.2149 0.795776 14.3272 0.711316C14.5206 0.555961 14.7389 0.431789 14.9737 0.343629C15.1414 0.26863 15.3176 0.212365 15.4987 0.175936C15.5944 0.159441 15.6865 0.120954 15.7844 0.111333C15.9837 0.0914019 16.1844 0.0838429 16.3844 0.0714722H16.4187C16.5274 0.109802 16.6392 0.139678 16.7529 0.160816C16.8322 0.182808 16.9029 0.235728 16.9908 0.229542L17.0236 0.235728C17.0401 0.2804 17.0822 0.276276 17.1187 0.283149C17.2863 0.345706 17.4434 0.431615 17.5851 0.538124C17.8599 0.734544 18.0956 0.977156 18.2808 1.25426C18.4496 1.50517 18.5706 1.78306 18.6379 2.07485C18.6934 2.35448 18.7174 2.63905 18.7094 2.92362V8.041C18.7094 8.15921 18.7094 8.1599 18.8337 8.1599C20.0718 8.1599 21.3098 8.1599 22.5479 8.1599C22.6394 8.1599 22.6572 8.13241 22.6572 8.04994C22.6544 6.99613 22.6544 5.94232 22.6572 4.88851C22.6572 4.55657 22.8608 4.36138 23.2029 4.36138H23.5329C23.551 4.35823 23.5696 4.35907 23.5873 4.36383C23.605 4.36859 23.6213 4.37715 23.6351 4.38887C23.5772 4.38887 23.5194 4.39368 23.4608 4.39368C23.3337 4.39368 23.3344 4.39368 23.3344 4.51808C23.3344 10.9326 23.3344 17.347 23.3344 23.7615C23.335 23.7937 23.3331 23.8258 23.3287 23.8577C23.3144 23.9402 23.3415 23.9711 23.4244 23.9526C23.5207 23.9431 23.6176 23.9394 23.7144 23.9416C23.8122 23.932 23.9122 23.9526 24.0072 23.9203C24.0215 23.9746 24.0015 23.9938 23.9429 23.9938C23.5394 23.9938 23.1358 23.9938 22.7287 23.9938C22.6572 23.9938 22.6572 23.9567 22.6572 23.9051C22.6572 23.343 22.6572 22.7812 22.6572 22.22C22.6572 21.899 22.6572 21.5788 22.6572 21.2578C22.6572 21.1719 22.6294 21.1485 22.5422 21.1485C19.4784 21.1485 16.4153 21.1485 13.3529 21.1485H1.49222C1.35794 21.1485 1.35793 21.1485 1.35793 21.2805C1.35793 22.1485 1.35793 23.0158 1.35793 23.8838C1.35793 23.9663 1.33937 23.9966 1.24794 23.9931C1.05866 23.9856 0.868657 23.9931 0.676514 23.9931V4.37856C0.759371 4.37856 0.841512 4.37856 0.924369 4.37856C1.02682 4.38392 1.12416 4.42329 1.19983 4.48996C1.2755 4.55662 1.32482 4.64647 1.33937 4.74419C1.3509 4.85516 1.35567 4.96669 1.35366 5.0782C1.35366 6.07198 1.35366 7.06623 1.35366 8.06093C1.35366 8.13722 1.37222 8.16058 1.45508 8.16058C6.90222 8.16058 12.3498 8.16058 17.7979 8.16058C17.8872 8.16058 17.9101 8.13584 17.9101 8.052C17.9101 6.33383 17.9101 4.61017 17.9051 2.88995C17.9092 2.5487 17.8432 2.21003 17.7108 1.89341C17.5954 1.62089 17.4056 1.38343 17.1615 1.20615C16.8247 0.965024 16.4231 0.821911 16.0044 0.793787C15.6144 0.761485 15.2279 0.77317 14.8615 0.906499C14.5926 0.997382 14.347 1.14251 14.1412 1.33216C13.9353 1.5218 13.774 1.75159 13.6679 2.00612C13.5966 2.18697 13.5487 2.37554 13.5251 2.56762C13.5101 2.66384 13.5494 2.69889 13.6515 2.70507C14.2271 2.72665 14.797 2.82281 15.3458 2.99097C15.6062 3.0663 15.8464 3.19555 16.0494 3.36966C16.2043 3.50621 16.2967 3.69622 16.3065 3.89817C16.3065 3.91741 16.3065 3.94559 16.2944 3.95658C16.1622 4.06792 16.2229 4.21568 16.2229 4.34558C16.2265 4.48303 16.2229 4.62461 16.2151 4.76412C16.2101 4.77512 16.2001 4.78611 16.1908 4.77649C16.1837 4.76471 16.1793 4.75158 16.1779 4.738C16.1722 4.52152 16.1672 4.30434 16.1615 4.08716C16.1615 4.07548 16.1651 4.06036 16.1615 4.0528C16.0586 3.92222 16.0901 3.74147 15.9787 3.61157C15.9129 3.53535 15.8364 3.46827 15.7515 3.41227C15.4857 3.25192 15.1919 3.13922 14.8844 3.07963C14.4997 2.99323 14.108 2.93851 13.7137 2.91606C13.6708 2.91606 13.6051 2.88995 13.5894 2.93324C13.5737 2.97654 13.6372 2.99853 13.6722 3.02534C13.7322 3.07082 13.7862 3.12321 13.8329 3.18135C13.8344 3.1991 13.8424 3.21577 13.8555 3.22837C13.8686 3.24096 13.8859 3.24866 13.9044 3.25007L13.9258 3.28238C13.9259 3.3011 13.9333 3.3191 13.9465 3.33284C13.9597 3.34658 13.9778 3.35505 13.9972 3.3566C13.9993 3.36192 14.0008 3.36745 14.0015 3.37309C14.0575 3.48544 14.1254 3.59185 14.2044 3.69061C14.2054 3.69537 14.2054 3.70029 14.2044 3.70504L14.2201 3.72566L14.2579 3.81363C14.2702 3.90094 14.2998 3.98517 14.3451 4.06173L14.3487 4.09678C14.3391 4.11502 14.3369 4.13597 14.3423 4.15571C14.3476 4.17545 14.3603 4.19262 14.3779 4.204C14.3779 4.23905 14.3779 4.27273 14.3837 4.30915C14.3675 4.35083 14.3454 4.39015 14.3179 4.42598C14.3043 4.43743 14.2956 4.45346 14.2937 4.47082C14.2919 4.48818 14.297 4.50556 14.3079 4.51945V4.97992C14.2952 4.99809 14.2884 5.01951 14.2884 5.04143C14.2884 5.06335 14.2952 5.08477 14.3079 5.10294V5.65275C14.3011 5.6569 14.2931 5.65886 14.285 5.65836C14.2769 5.65787 14.2692 5.65495 14.2629 5.65ZM1.37721 16.5404V16.5466C1.36282 16.6037 1.35657 16.6624 1.35864 16.7212V19.139C1.35864 19.1651 1.35864 19.1919 1.35864 19.218C1.36436 19.3018 1.40151 19.3355 1.49794 19.3348C2.11509 19.33 2.73294 19.3348 3.35008 19.3348H3.50936C3.56294 19.3348 3.60579 19.3252 3.59365 19.2551C3.59433 19.2261 3.59745 19.1971 3.60294 19.1685C3.60294 18.3273 3.60294 17.4861 3.60294 16.6449C3.60294 16.6133 3.61079 16.5762 3.58151 16.5535C3.62579 16.5225 3.61936 16.4799 3.61222 16.4366C3.60508 16.3933 3.61794 16.3603 3.61794 16.3225V13.3673C3.61794 11.952 3.61794 10.5371 3.61794 9.12276C3.61794 9.04441 3.59723 9.0231 3.5158 9.02448C3.2008 9.0286 2.88652 9.02448 2.57152 9.02448C2.3208 9.02448 2.07151 9.02792 1.81937 9.02929H1.78223L1.47937 9.02517C1.34508 9.02517 1.34436 9.02517 1.34436 9.15575V15.1487C1.34436 15.5835 1.34436 16.0188 1.34436 16.4545C1.34579 16.4827 1.32007 16.5274 1.37721 16.5404ZM22.6244 16.55C22.6622 16.5026 22.6436 16.4476 22.6436 16.3968C22.6436 14.0023 22.6436 11.6079 22.6436 9.21348C22.6436 9.04853 22.6437 9.04853 22.4794 9.03547C22.4429 9.03204 22.4079 9.0231 22.3701 9.0231C21.7437 9.0231 21.1172 9.0231 20.4901 9.0231C20.4144 9.0231 20.3829 9.04441 20.3829 9.12413C20.3829 11.5662 20.3829 14.0078 20.3829 16.449C20.3829 16.5177 20.4008 16.5535 20.4751 16.5514C20.3944 16.5548 20.3994 16.6098 20.3994 16.6655C20.3994 17.4943 20.3994 18.3236 20.3994 19.1534C20.4039 19.182 20.4061 19.211 20.4058 19.24C20.3858 19.3396 20.4508 19.3341 20.5194 19.3341H22.4908C22.6237 19.3341 22.6337 19.3238 22.6429 19.1967C22.6429 19.1761 22.6429 19.1555 22.6429 19.1348C22.6429 18.6208 22.6429 18.1039 22.6429 17.5912C22.6401 17.2428 22.6629 16.8957 22.6244 16.548V16.55ZM13.1022 16.55C13.1551 16.5308 13.1379 16.4868 13.1379 16.4518V9.1365C13.1379 9.02723 13.1344 9.0231 13.0186 9.0231H10.9829C10.8679 9.0231 10.8636 9.02723 10.8636 9.1365V10.9543C10.8636 12.7838 10.8636 14.6133 10.8636 16.4428C10.8636 16.4799 10.8422 16.528 10.8986 16.55C10.8785 16.5931 10.871 16.6406 10.8772 16.6875V19.0682C10.8772 19.1238 10.8872 19.1795 10.8894 19.2338C10.8929 19.3197 10.9337 19.3335 11.0101 19.3335C11.6701 19.3335 12.3294 19.3335 12.9894 19.3335H13.0444C13.052 19.3341 13.0598 19.3333 13.0671 19.3309C13.0744 19.3286 13.0811 19.3248 13.0868 19.3198C13.0925 19.3148 13.0971 19.3088 13.1002 19.302C13.1034 19.2953 13.105 19.2879 13.1051 19.2805C13.1142 19.2259 13.1202 19.1709 13.1229 19.1156C13.1229 18.3449 13.1229 17.5747 13.1229 16.805C13.1297 16.7188 13.1227 16.6321 13.1022 16.548V16.55ZM14.0558 16.55C14.0558 17.4407 14.0546 18.3312 14.0522 19.2214C14.0522 19.3101 14.0951 19.33 14.1772 19.33C14.8439 19.33 15.5106 19.33 16.1772 19.33C16.2765 19.33 16.2994 19.3087 16.2994 19.2097C16.2994 18.3603 16.2994 17.5108 16.2994 16.6614C16.3021 16.6408 16.3 16.62 16.2932 16.6003C16.2864 16.5807 16.2751 16.5628 16.2601 16.548C16.3365 16.5377 16.3122 16.4792 16.3129 16.438C16.3129 14.0097 16.3129 11.5832 16.3129 9.15849C16.3129 9.02104 16.3129 9.02104 16.1701 9.02104H14.1701C14.0365 9.02104 14.0365 9.02104 14.0365 9.15231C14.0365 11.5907 14.0365 14.0291 14.0365 16.4676C14.0335 16.4823 14.0337 16.4974 14.037 16.5121C14.0403 16.5267 14.0467 16.5406 14.0558 16.5528V16.55ZM6.75508 16.55C6.80936 16.5267 6.78864 16.4813 6.78864 16.4414C6.78864 14.009 6.78864 11.5768 6.78864 9.14475C6.78864 9.0231 6.78866 9.02242 6.66009 9.02242H4.63365C4.51436 9.02242 4.51437 9.02242 4.51437 9.13513V16.4586C4.51437 16.4902 4.50508 16.5274 4.53151 16.5514C4.5308 16.5631 4.5308 16.5748 4.53151 16.5865C4.53151 17.4744 4.53151 18.3624 4.53151 19.2503C4.53151 19.33 4.57008 19.3335 4.63222 19.3328H6.47508C6.5358 19.3328 6.59794 19.3225 6.65723 19.3232C6.76508 19.3232 6.78223 19.2737 6.78151 19.1857C6.78151 18.6977 6.78151 18.2098 6.78151 17.7218C6.7708 17.3315 6.79936 16.9404 6.75508 16.548V16.55ZM9.34722 21.0063V21.0283C9.34222 21.0317 9.33794 21.0372 9.33294 21.0386C9.29651 21.0489 9.23722 21.0502 9.24365 21.0935C9.25008 21.1368 9.3065 21.1114 9.34007 21.1114C10.8401 21.1238 12.3351 21.1011 13.8322 21.1258C14.9694 21.1451 16.1072 21.132 17.2444 21.1258C17.4022 21.1258 17.5608 21.108 17.7194 21.1107C17.7386 21.1107 17.7694 21.1183 17.7694 21.088C17.7694 21.0578 17.7429 21.0578 17.7208 21.0585C17.6512 21.0503 17.5807 21.0535 17.5122 21.0681C17.4708 21.0839 17.4479 21.0681 17.4408 21.0427C17.4337 21.0173 17.4708 21.0056 17.4979 21.0056H18.0386C18.0665 21.0056 18.0929 21.0131 18.0958 21.0393C18.1087 21.1437 18.1887 21.1293 18.2615 21.1293C19.5272 21.1293 20.7929 21.1293 22.0586 21.1293C22.2353 21.1304 22.4118 21.1213 22.5872 21.1018C22.6372 21.0963 22.6408 21.0846 22.6408 21.0482C22.6408 20.8042 22.6408 20.5595 22.6408 20.3156C22.6408 20.2613 22.6208 20.2468 22.5658 20.2468C21.4039 20.2468 20.242 20.2468 19.0801 20.2468C19.0653 20.2448 19.0501 20.2463 19.0361 20.2512C19.022 20.2562 19.0094 20.2643 18.9994 20.275C18.8772 20.4083 18.8422 20.4077 18.7044 20.2826C18.6444 20.2276 18.5851 20.2345 18.5479 20.3004C18.5108 20.3664 18.5479 20.4262 18.6322 20.4688C18.6499 20.4761 18.6655 20.4872 18.6779 20.5013C18.6903 20.5153 18.6991 20.532 18.7037 20.5499C18.7037 20.565 18.6894 20.576 18.6744 20.5788C18.653 20.5816 18.6312 20.5788 18.6114 20.5707C18.5915 20.5626 18.5743 20.5495 18.5615 20.5327C18.5487 20.5201 18.5396 20.5045 18.5351 20.4874C18.5251 20.44 18.4915 20.4187 18.4494 20.4056C18.3686 20.374 18.3644 20.3417 18.4294 20.2888C18.4408 20.2791 18.4694 20.2833 18.4594 20.2544C18.4212 20.2443 18.3814 20.2418 18.3422 20.2468H1.42365C1.38294 20.2468 1.36436 20.2654 1.35936 20.3053C1.33935 20.5483 1.33363 20.7922 1.34222 21.0358C1.34222 21.0654 1.34223 21.1004 1.39294 21.1045C1.49866 21.1114 1.60723 21.1286 1.70937 21.1286C3.98413 21.1286 6.25913 21.1286 8.53437 21.1286C8.62294 21.1286 8.71152 21.1128 8.80223 21.1045C8.78937 21.0674 8.7308 21.0771 8.74365 21.0358C8.75651 20.9946 8.79794 21.0063 8.83008 21.0056C8.88508 21.0056 8.94008 21.0056 8.99508 21.0056L9.34722 21.0063ZM7.69008 12.7831C7.69008 14.0037 7.69008 15.2245 7.69008 16.4456C7.69008 16.5225 7.71008 16.5452 7.7915 16.5452C8.48246 16.5416 9.17293 16.5416 9.86293 16.5452C9.94222 16.5452 9.96579 16.5274 9.96579 16.4476C9.96579 14.0065 9.96579 11.5648 9.96579 9.12276C9.96579 9.04647 9.94365 9.02104 9.86222 9.02104C9.17722 9.02104 8.49293 9.02104 7.80793 9.02104C7.69508 9.02104 7.6908 9.02654 7.6908 9.13719L7.69008 12.7831ZM19.4865 12.7831C19.4865 11.5625 19.4865 10.342 19.4865 9.12138C19.4865 9.0451 19.4679 9.02104 19.3851 9.02173C18.9208 9.02585 18.4565 9.02173 17.9915 9.02173C17.7772 9.02173 17.5572 9.02173 17.3401 9.02173C17.2144 9.02173 17.2094 9.02997 17.2094 9.14406C17.2094 11.5724 17.2094 14.0007 17.2094 16.4291C17.2094 16.5212 17.2365 16.5411 17.3265 16.5404C18.0089 16.5367 18.6908 16.5367 19.3722 16.5404C19.4629 16.5404 19.4894 16.5212 19.4894 16.4298C19.4851 15.2174 19.4865 13.9996 19.4865 12.7818V12.7831ZM19.4737 17.9493C19.4737 17.5205 19.4737 17.0909 19.4737 16.6614C19.4737 16.5926 19.4558 16.5693 19.3808 16.5693C18.6915 16.5693 18.0015 16.5693 17.3094 16.5693C17.301 16.568 17.2924 16.5684 17.2842 16.5705C17.276 16.5725 17.2683 16.5762 17.2616 16.5812C17.2549 16.5862 17.2494 16.5925 17.2453 16.5997C17.2412 16.6069 17.2387 16.6148 17.2379 16.6229C17.2294 16.6598 17.2237 16.6972 17.2208 16.7349C17.2208 17.5473 17.2208 18.3591 17.2208 19.1706C17.2208 19.2922 17.2472 19.317 17.3701 19.317C18.0358 19.317 18.7022 19.317 19.3701 19.317C19.4537 19.317 19.4729 19.2908 19.4722 19.2159C19.4722 18.7953 19.4737 18.372 19.4737 17.9479V17.9493ZM9.10437 21.1149C9.13009 21.1073 9.17579 21.1307 9.18079 21.0956C9.18579 21.0606 9.14151 21.0606 9.11436 21.0626C9.08722 21.0647 9.03721 21.042 9.0365 21.0915C9.0365 21.1245 9.0808 21.108 9.10437 21.1135V21.1149ZM17.8808 21.1004C17.9136 21.1472 17.9587 21.1149 17.9979 21.11C18.001 21.1096 18.0038 21.1084 18.0061 21.1065C18.0085 21.1046 18.0102 21.1022 18.0112 21.0994C18.0121 21.0966 18.0123 21.0936 18.0116 21.0908C18.0109 21.0879 18.0094 21.0853 18.0072 21.0832C17.9772 21.0413 17.9429 21.0784 17.9101 21.0791C17.8987 21.0784 17.8858 21.0791 17.8808 21.099V21.1004ZM8.90437 21.1004C8.8955 21.098 8.8864 21.0964 8.87722 21.0956C8.87186 21.0967 8.86677 21.0988 8.86222 21.1018C8.86793 21.1155 8.8808 21.1114 8.89152 21.1107C8.90223 21.11 8.89865 21.1059 8.90437 21.1011V21.1004ZM13.2001 3.00884H13.1865C13.1865 3.00884 13.1908 3.01366 13.1929 3.01366C13.1958 3.01285 13.1983 3.01116 13.2001 3.00884Z" fill="#E7D5C6"/>
<path d="M0.680647 4.37856V23.9904C0.485647 23.9979 0.289936 23.9801 0.0949359 23.9993C0.0392216 24.0055 -0.00149623 23.9773 0.0020752 23.9086C0.0070752 23.8124 0.0020752 23.7148 0.0020752 23.6179C0.0020752 20.0826 0.0020752 16.5471 0.0020752 13.0113C0.0020752 12.7893 -0.00219727 12.5666 -0.00219727 12.3447C0.000659878 9.8453 0.000659878 7.34617 -0.00219727 4.84727C-0.00219727 4.60604 0.189932 4.34213 0.484218 4.37856C0.552075 4.3868 0.616361 4.33388 0.680647 4.37856Z" fill="#E7D5C6"/>
<path d="M23.9935 23.9189C23.8985 23.9512 23.7985 23.9306 23.7006 23.9402C23.6038 23.9381 23.507 23.9418 23.4106 23.9512C23.3278 23.9698 23.3006 23.9388 23.3149 23.8564C23.3193 23.8245 23.3212 23.7923 23.3206 23.7602C23.3206 17.3457 23.3206 10.9312 23.3206 4.51672C23.3206 4.39301 23.3206 4.39301 23.447 4.39232C23.5056 4.39232 23.5635 4.38888 23.6213 4.38751C23.6547 4.387 23.6878 4.39351 23.7182 4.40656C23.7487 4.41962 23.7758 4.43892 23.7978 4.46311C23.7969 4.47055 23.7978 4.47809 23.8006 4.48509C23.8034 4.49209 23.8079 4.49835 23.8137 4.50334C23.8195 4.50832 23.8265 4.51189 23.834 4.51374C23.8416 4.51559 23.8495 4.51567 23.8571 4.51397C23.866 4.51493 23.8742 4.51892 23.8804 4.52521C23.8865 4.53151 23.8902 4.5397 23.8906 4.54833C23.8856 4.63355 23.9692 4.69747 23.9535 4.78544C23.9535 4.78544 23.9792 4.79506 23.9928 4.79987C23.9928 4.83836 23.997 4.87616 23.997 4.91464C23.997 8.12967 23.997 11.3449 23.997 14.5604C23.997 14.6017 23.997 14.6429 23.9928 14.6841C23.947 14.7075 23.947 14.7315 23.9928 14.7528V14.8216C23.9451 14.8459 23.9451 14.8699 23.9928 14.8937C23.9928 14.9522 23.9928 15.0106 23.9928 15.0683C23.912 15.104 23.9156 15.0429 23.9113 14.9996C23.9129 14.9706 23.9172 14.9419 23.9242 14.9137C23.9306 14.8504 23.9113 14.8298 23.8399 14.8525C23.7961 14.868 23.7561 14.8917 23.722 14.9223C23.6879 14.9529 23.6605 14.9897 23.6414 15.0306C23.6223 15.0715 23.6119 15.1157 23.6108 15.1605C23.6097 15.2053 23.6179 15.2499 23.6349 15.2917C23.6649 15.3851 23.7542 15.4381 23.8235 15.4085C23.8685 15.3899 23.9249 15.3659 23.9163 15.315C23.9078 15.2642 23.8449 15.2848 23.807 15.282C23.7902 15.2821 23.7737 15.278 23.759 15.2701C23.7443 15.2621 23.732 15.2507 23.7233 15.2369C23.7145 15.2231 23.7096 15.2074 23.709 15.1912C23.7084 15.175 23.7122 15.159 23.7199 15.1446C23.7349 15.1116 23.7528 15.0697 23.797 15.0875C23.8413 15.1054 23.9078 15.0738 23.9313 15.1563C23.9506 15.2291 23.9609 15.3038 23.9621 15.3789C23.9621 15.4064 23.9499 15.4408 23.992 15.4532C23.992 15.4937 23.9963 15.535 23.9963 15.5762C23.9963 18.2263 23.9963 20.8766 23.9963 23.5272C23.9963 23.5595 23.9963 23.5918 23.9928 23.6241C23.9213 23.5698 23.8628 23.5918 23.8006 23.6461C23.7556 23.6846 23.7406 23.745 23.682 23.7753C23.652 23.7911 23.6749 23.8282 23.7049 23.8323C23.7563 23.8406 23.8192 23.8598 23.8163 23.7684C23.8163 23.7065 23.8749 23.7065 23.9163 23.6997C23.9699 23.6901 23.9599 23.7347 23.9621 23.7684C23.9615 23.7772 23.9644 23.7859 23.97 23.7929C23.9757 23.7998 23.9837 23.8045 23.9928 23.8062L23.9935 23.9189Z" fill="#E7D5C6"/>
<path d="M16.3699 0.0687218C16.1699 0.0810926 15.9692 0.0886516 15.7699 0.108582C15.6749 0.118204 15.5828 0.156691 15.4842 0.173185C15.3031 0.209615 15.127 0.265879 14.9592 0.340878C14.7245 0.429038 14.5062 0.55321 14.3128 0.708566C14.2005 0.793026 14.093 0.883185 13.9906 0.978661C13.758 1.22182 13.5689 1.50053 13.4313 1.80338C13.3255 2.05166 13.2497 2.31088 13.2056 2.57587C13.1764 2.73394 13.1549 2.8927 13.1342 3.05214C13.1071 3.05214 13.0749 3.06039 13.0528 3.05214C12.8878 2.97448 12.7842 3.07826 12.6785 3.1676C12.4662 3.33916 12.294 3.55208 12.1735 3.79233C12.0996 3.93298 12.0513 4.08477 12.0306 4.24111C12.0324 4.31238 12.007 4.3818 11.9592 4.43629C11.9507 4.44481 11.9442 4.45498 11.9401 4.46613C11.9361 4.47728 11.9345 4.48913 11.9356 4.5009C11.9356 4.84728 11.9375 5.19366 11.9414 5.54004L11.8835 5.54623C11.8835 5.2404 11.8835 4.93456 11.8835 4.62804C11.8835 4.54145 11.8835 4.45348 11.8121 4.38337C11.7785 4.35313 11.7914 4.30434 11.7971 4.26516C11.8634 3.80593 12.0952 3.38368 12.4521 3.07207C12.4835 3.04458 12.5235 3.02671 12.5556 3.00335C12.5749 2.98754 12.6063 2.97104 12.5913 2.93943C12.5763 2.90781 12.5506 2.91538 12.5264 2.91675C12.4599 2.92156 12.3928 2.92775 12.3263 2.93393C11.9631 2.96547 11.603 3.02406 11.2492 3.10918C11.0235 3.15845 10.806 3.23755 10.6028 3.34423C10.3806 3.47137 10.1742 3.61914 10.1564 3.90023C10.158 3.92497 10.1501 3.94944 10.1342 3.96895C10.0485 4.03768 10.0671 4.12702 10.0692 4.21293C10.0735 4.38612 10.0571 4.55656 10.0785 4.7325C10.0776 4.75297 10.0733 4.77317 10.0656 4.7923H10.0192L10.0149 4.12221C10.0149 4.07823 10.0185 4.03562 9.97135 4.00538C9.94206 3.98613 9.94135 3.9504 9.93921 3.91672C9.93488 3.82742 9.94978 3.73823 9.98296 3.65473C10.0162 3.57124 10.0669 3.49524 10.1321 3.43151C10.3849 3.15661 10.7249 3.04458 11.0714 2.93737C11.2979 2.87528 11.5277 2.82503 11.7599 2.78686C11.9241 2.75841 12.0899 2.73868 12.2563 2.72775C12.3899 2.71676 12.5235 2.71194 12.6578 2.70782C12.7071 2.70782 12.7292 2.68445 12.7385 2.63909C12.7456 2.6017 12.7485 2.56368 12.7471 2.5257C12.7608 2.23652 12.8268 1.95186 12.9421 1.68448C13.0808 1.35888 13.2839 1.06224 13.5399 0.810968C13.7171 0.638075 13.9195 0.490842 14.1406 0.373868C14.3286 0.273444 14.5268 0.191916 14.7321 0.130575C14.94 0.0756162 15.1528 0.0399454 15.3678 0.02405C15.5284 0.00516485 15.6904 -0.000355151 15.8521 0.00755419C16.0092 0.0144268 16.1671 0.030234 16.3242 0.0419175C16.3338 0.040854 16.3436 0.0429143 16.3518 0.0477691C16.3601 0.0526239 16.3665 0.0599969 16.3699 0.0687218Z" fill="#E7D5C6"/>
<path d="M16.1828 4.73457C16.1841 4.74814 16.1885 4.76128 16.1957 4.77306C16.205 4.78268 16.2149 4.77306 16.2199 4.76069C16.2465 4.77116 16.2705 4.78674 16.2905 4.80648C16.3105 4.82622 16.3261 4.8497 16.3364 4.87546C16.4257 4.78612 16.5192 4.73251 16.6485 4.76619C16.7199 4.78474 16.7742 4.81773 16.785 4.8892C16.7957 4.96068 16.8435 4.96755 16.8985 4.97992C16.9494 4.98463 16.9965 5.00791 17.0301 5.04497C17.0637 5.08204 17.0813 5.13008 17.0792 5.17923C17.0878 5.29538 17.0435 5.34555 16.9221 5.3428C16.8871 5.33837 16.8515 5.34233 16.8185 5.35432C16.7855 5.36631 16.756 5.38596 16.7328 5.41153C16.6378 5.51599 16.4978 5.505 16.3992 5.39916C16.3649 5.36342 16.3492 5.35723 16.3085 5.39916C16.1857 5.52286 16.0399 5.51599 15.9342 5.3806C15.8899 5.32425 15.8535 5.35723 15.8171 5.37304C15.7828 5.3921 15.7449 5.40424 15.7056 5.40873C15.6663 5.41322 15.6265 5.40996 15.5885 5.39916C15.4957 5.36479 15.4678 5.31462 15.4714 5.19298C15.4684 5.16055 15.4726 5.12789 15.4838 5.09717C15.495 5.06644 15.5128 5.03835 15.5361 5.01476C15.5594 4.99116 15.5877 4.97261 15.619 4.96032C15.6503 4.94804 15.684 4.9423 15.7178 4.9435C15.7442 4.9435 15.7735 4.9435 15.785 4.91189C15.84 4.74832 15.9721 4.71876 16.1278 4.73113C16.1464 4.73526 16.1642 4.73457 16.1828 4.73457Z" fill="#71ACAB"/>
<path d="M10.0251 4.78543H10.0715C10.132 4.91326 10.1925 5.04132 10.2529 5.16961C10.2597 5.18229 10.2699 5.19296 10.2825 5.20047C10.2951 5.20798 10.3096 5.21204 10.3244 5.21222C10.4386 5.22803 10.5529 5.2459 10.6672 5.26514C10.6886 5.26858 10.7201 5.26514 10.7272 5.29538C10.7344 5.32562 10.7072 5.32974 10.6929 5.34349C10.6108 5.42184 10.5294 5.50225 10.4429 5.57647C10.4276 5.5878 10.4159 5.60318 10.4095 5.62075C10.403 5.63832 10.402 5.65732 10.4065 5.67544C10.4272 5.78815 10.4444 5.90086 10.4629 6.01357C10.4629 6.03076 10.4787 6.04931 10.4629 6.06375C10.4472 6.07818 10.4222 6.06374 10.4051 6.0555C10.3029 6.00258 10.1994 5.95172 10.1008 5.89399C10.0827 5.88142 10.0611 5.8742 10.0388 5.87323C10.0165 5.87225 9.99433 5.87755 9.97508 5.88849C9.85335 5.95667 9.72658 6.01617 9.59579 6.06649C9.60697 5.94605 9.62872 5.82672 9.6608 5.7098C9.67054 5.67922 9.67056 5.64653 9.66089 5.61593C9.65122 5.58532 9.6323 5.55818 9.60652 5.53799C9.52723 5.46926 9.45508 5.39366 9.38151 5.31875C9.36794 5.305 9.3408 5.29332 9.3508 5.26927C9.3608 5.24521 9.3858 5.24934 9.40651 5.24727C9.51866 5.23422 9.63008 5.21841 9.74222 5.20947C9.76647 5.21008 9.79032 5.20339 9.81043 5.19033C9.83053 5.17727 9.8459 5.15849 9.85437 5.13662C9.91009 5.01841 9.99079 4.91189 10.0251 4.78543Z" fill="#E7D5C6"/>
<path d="M11.8928 5.54417L11.9506 5.53798C12.0221 5.52699 12.0935 5.49194 12.1785 5.52012C12.1272 5.58578 12.0718 5.64843 12.0128 5.70774C11.9558 5.7887 11.9183 5.88086 11.903 5.97753C11.8877 6.07419 11.895 6.17293 11.9243 6.26654C11.9537 6.36015 12.0043 6.44629 12.0726 6.51868C12.141 6.59108 12.2252 6.6479 12.3192 6.68503C12.3732 6.71318 12.4335 6.72849 12.4949 6.7297C12.504 6.72767 12.5135 6.72893 12.5217 6.73324C12.5299 6.73755 12.5361 6.74461 12.5392 6.75307C12.5449 6.77644 12.5213 6.78056 12.5063 6.78881C12.3907 6.85695 12.2569 6.89093 12.1214 6.88654C11.9859 6.88214 11.8548 6.83955 11.7442 6.76407C11.6284 6.68884 11.5382 6.58239 11.4849 6.45805C11.4317 6.33372 11.4178 6.19703 11.4449 6.06512C11.4928 5.80945 11.6628 5.65413 11.8928 5.54417Z" fill="#E7D5C6"/>
<path d="M13.6522 6.8273C13.5686 6.86097 13.5143 6.84517 13.5093 6.77163C13.4929 6.4383 13.5329 6.11735 13.7907 5.86444C13.8387 5.81466 13.8963 5.77448 13.9604 5.74617C14.0245 5.71787 14.0938 5.70201 14.1643 5.69949H14.4022C14.655 5.70705 14.8207 5.84244 14.9314 6.04313C15.0422 6.26632 15.0867 6.51463 15.06 6.76063C15.0557 6.84173 15.0086 6.86029 14.9172 6.82317C14.9566 6.61472 14.9406 6.40006 14.8707 6.19914C14.8429 6.1063 14.7888 6.02272 14.7145 5.95768C14.6403 5.89265 14.5487 5.84871 14.45 5.83076C14.1279 5.77784 13.8364 5.90705 13.7064 6.23281C13.6322 6.43074 13.6522 6.62868 13.6522 6.8273Z" fill="#E7D5C6"/>
<path d="M13.6522 6.82728C13.6522 6.62866 13.6314 6.43073 13.7093 6.23623C13.8393 5.91047 14.1307 5.78126 14.4529 5.83418C14.5515 5.85213 14.6431 5.89607 14.7174 5.9611C14.7917 6.02614 14.8457 6.10972 14.8736 6.20256C14.9435 6.40348 14.9594 6.61814 14.92 6.82659C14.8779 6.83415 14.8379 6.85958 14.7929 6.83759C14.8346 6.68766 14.8346 6.5298 14.7929 6.37987C14.7436 6.14895 14.5922 6.00187 14.3472 5.98744C14.2386 5.97521 14.129 5.99899 14.0363 6.05485C13.9437 6.11071 13.8737 6.1953 13.8379 6.29465C13.7648 6.46598 13.7432 6.65366 13.7757 6.83622C13.7336 6.86371 13.6943 6.83415 13.6522 6.82728Z" fill="#71ACAB"/>
<path d="M13.7772 6.83622C13.7447 6.65367 13.7662 6.46599 13.8393 6.29466C13.8752 6.19531 13.9452 6.11072 14.0378 6.05486C14.1304 5.999 14.2401 5.97522 14.3486 5.98745C14.5936 6.00188 14.745 6.14896 14.7943 6.37988C14.8361 6.5298 14.8361 6.68767 14.7943 6.8376C14.7718 6.84803 14.7467 6.8519 14.7219 6.84872C14.6972 6.84555 14.6739 6.83547 14.655 6.81973C14.6835 6.68169 14.6787 6.53918 14.6408 6.40325C14.6265 6.33271 14.5896 6.26825 14.5353 6.21894C14.481 6.16962 14.4119 6.13794 14.3379 6.12834C14.2599 6.12448 14.1828 6.1453 14.1183 6.18762C14.0538 6.22995 14.0055 6.29144 13.9808 6.3627C13.9243 6.50809 13.9021 6.66371 13.9158 6.81835C13.8743 6.87059 13.825 6.84722 13.7772 6.83622Z" fill="#E7D5C6"/>
<path d="M13.9136 6.81904C13.8999 6.6644 13.9222 6.50878 13.9786 6.36338C14.0033 6.29213 14.0516 6.23063 14.1161 6.18831C14.1806 6.14598 14.2577 6.12516 14.3357 6.12903C14.4097 6.13863 14.4788 6.17031 14.5331 6.21962C14.5874 6.26894 14.6243 6.33339 14.6386 6.40393C14.6765 6.53987 14.6814 6.68237 14.6529 6.82042C14.5443 6.87059 14.4957 6.8431 14.4979 6.73245C14.5075 6.63579 14.5005 6.53827 14.4771 6.44379C14.4529 6.37094 14.4186 6.30634 14.3264 6.29809C14.285 6.29397 14.2434 6.30367 14.2085 6.32557C14.1737 6.34747 14.1477 6.38023 14.135 6.41836C14.0967 6.51457 14.0782 6.61706 14.0807 6.72008C14.0807 6.84241 14.0328 6.86784 13.9136 6.81904Z" fill="#71ACAB"/>
<path d="M23.9937 15.4648C23.9515 15.4525 23.9644 15.4181 23.9637 15.3906C23.9626 15.3155 23.9522 15.2408 23.9329 15.1679C23.9094 15.0827 23.8437 15.1143 23.7987 15.0992C23.7537 15.0841 23.7365 15.1233 23.7215 15.1563C23.7138 15.1706 23.71 15.1867 23.7106 15.2029C23.7112 15.219 23.7161 15.2348 23.7249 15.2486C23.7336 15.2624 23.7459 15.2738 23.7606 15.2817C23.7753 15.2896 23.7918 15.2938 23.8087 15.2937C23.8487 15.2937 23.9094 15.2731 23.9179 15.3267C23.9265 15.3803 23.8701 15.4016 23.8251 15.4202C23.7537 15.4497 23.6665 15.3968 23.6365 15.3033C23.6195 15.2616 23.6113 15.217 23.6124 15.1722C23.6135 15.1273 23.6239 15.0832 23.643 15.0423C23.6621 15.0014 23.6895 14.9645 23.7236 14.934C23.7577 14.9034 23.7978 14.8797 23.8415 14.8642C23.9129 14.8415 23.9322 14.8642 23.9258 14.9253C23.9188 14.9535 23.9145 14.9823 23.9129 15.0113C23.9172 15.0545 23.913 15.1157 23.9944 15.08C24.0021 15.2082 24.0019 15.3367 23.9937 15.4648Z" fill="#E7D5C6"/>
<path d="M23.9942 23.8144C23.9852 23.8128 23.9771 23.808 23.9715 23.8011C23.9658 23.7941 23.963 23.7854 23.9635 23.7766C23.9635 23.7464 23.9714 23.7017 23.9178 23.7079C23.8764 23.7148 23.8164 23.7148 23.8178 23.7766C23.8178 23.868 23.7578 23.8454 23.7064 23.8405C23.6764 23.8364 23.6535 23.7993 23.6835 23.7835C23.7421 23.7533 23.7549 23.6928 23.8021 23.6543C23.8642 23.6 23.9221 23.578 23.9942 23.6323C24.002 23.6928 24.002 23.754 23.9942 23.8144Z" fill="#E7D5C6"/>
<path d="M16.9764 0.226796C16.8886 0.233668 16.8179 0.180749 16.7386 0.158069C16.6248 0.136931 16.5131 0.107055 16.4043 0.0687254C16.415 0.0646018 16.4264 0.0542926 16.4364 0.0556672C16.6209 0.0814507 16.8003 0.133812 16.9686 0.21099C16.9729 0.213739 16.9743 0.221298 16.9764 0.226796Z" fill="#E7D5C6"/>
<path d="M14.1651 4.20126C14.1993 4.27961 14.1858 4.37445 14.2451 4.44456C14.2635 4.46379 14.275 4.48832 14.2775 4.5144C14.2801 4.54047 14.2737 4.56664 14.2594 4.58888C14.2501 4.4906 14.1565 4.42188 14.1558 4.31947C14.1558 4.27961 14.1365 4.23906 14.1651 4.20126Z" fill="#E7D5C6"/>
<path d="M14.2036 3.68925C14.1247 3.59049 14.0567 3.48408 14.0007 3.37173C14.0548 3.40902 14.1006 3.4563 14.1354 3.51082C14.1703 3.56534 14.1934 3.626 14.2036 3.68925Z" fill="#E7D5C6"/>
<path d="M13.9143 3.59988C14.0122 3.65555 14.0193 3.75933 14.0572 3.84799C13.9885 3.77821 13.9394 3.69286 13.9143 3.59988Z" fill="#E7D5C6"/>
<path d="M23.9935 4.80263C23.9799 4.79782 23.9535 4.79094 23.9542 4.78819C23.9699 4.70022 23.8863 4.63631 23.8913 4.55109C23.9763 4.61638 23.9813 4.71053 23.9935 4.80263Z" fill="#E7D5C6"/>
<path d="M14.3085 4.52082C14.2975 4.50693 14.2925 4.48954 14.2943 4.47218C14.2962 4.45483 14.3048 4.4388 14.3185 4.42735C14.3459 4.39152 14.3681 4.3522 14.3842 4.31052C14.3989 4.32942 14.4057 4.35286 14.4035 4.37633C14.4012 4.3998 14.3901 4.42164 14.3721 4.43766C14.3493 4.46422 14.3281 4.49198 14.3085 4.52082Z" fill="#E7D5C6"/>
<path d="M14.4044 5.70019H14.1665C14.1958 5.67957 14.2179 5.64383 14.2629 5.65071C14.2698 5.65606 14.2784 5.65899 14.2872 5.65899C14.2961 5.65899 14.3046 5.65606 14.3115 5.65071C14.3508 5.65208 14.3958 5.64589 14.4044 5.70019Z" fill="#E7D5C6"/>
<path d="M13.4907 3.14081C13.5346 3.15614 13.5747 3.17989 13.6087 3.2106C13.6427 3.24132 13.6699 3.27837 13.6886 3.3195C13.6102 3.27407 13.5428 3.21317 13.4907 3.14081Z" fill="#E7D5C6"/>
<path d="M13.7622 3.38959C13.799 3.41077 13.8309 3.43884 13.8562 3.47213C13.8815 3.50542 13.8996 3.54326 13.9094 3.58339C13.8357 3.53991 13.7829 3.47029 13.7622 3.38959Z" fill="#E7D5C6"/>
<path d="M14.3457 4.06036C14.3004 3.9838 14.2708 3.89957 14.2585 3.81226C14.3307 3.88098 14.3314 3.97101 14.3457 4.06036Z" fill="#E7D5C6"/>
<path d="M13.3579 3.03841C13.4258 3.01848 13.4572 3.03841 13.4508 3.10713C13.4051 3.10301 13.3836 3.06796 13.3579 3.03841Z" fill="#E7D5C6"/>
<path d="M14.3115 5.10157C14.2988 5.0834 14.292 5.06198 14.292 5.04006C14.292 5.01814 14.2988 4.99672 14.3115 4.97855C14.3248 4.99653 14.3319 5.01802 14.3319 5.04006C14.3319 5.06209 14.3248 5.08358 14.3115 5.10157Z" fill="#E7D5C6"/>
<path d="M14.3786 4.20264C14.361 4.19126 14.3483 4.17409 14.3429 4.15436C14.3376 4.13462 14.3398 4.11367 14.3493 4.09543C14.3965 4.12154 14.3858 4.16278 14.3786 4.20264Z" fill="#E7D5C6"/>
<path d="M14.0987 3.97101C14.1701 3.98063 14.1522 4.0198 14.1308 4.06035C14.1195 4.04828 14.1109 4.03415 14.1053 4.01881C14.0998 4.00346 14.0976 3.98721 14.0987 3.97101Z" fill="#E7D5C6"/>
<path d="M17.1043 0.280415C17.0679 0.273543 17.0257 0.280415 17.0093 0.232994C17.0284 0.22867 17.0485 0.231077 17.0659 0.239777C17.0833 0.248476 17.097 0.262892 17.1043 0.280415Z" fill="#E7D5C6"/>
<path d="M13.9071 3.24869C13.8887 3.24727 13.8713 3.23958 13.8582 3.22699C13.8452 3.21439 13.8372 3.19772 13.8357 3.17996C13.8541 3.18151 13.8713 3.18925 13.8844 3.20182C13.8975 3.21439 13.9055 3.23098 13.9071 3.24869Z" fill="#E7D5C6"/>
<path d="M13.9965 3.35248C13.9771 3.35094 13.959 3.34246 13.9458 3.32872C13.9325 3.31498 13.9252 3.29698 13.925 3.27826C13.9679 3.292 13.9972 3.31125 13.9965 3.35248Z" fill="#E7D5C6"/>
<path d="M14.0594 3.86517C14.1122 3.87892 14.0858 3.92153 14.0936 3.95177C14.0351 3.94077 14.0651 3.8961 14.0594 3.86517Z" fill="#E7D5C6"/>
<path d="M23.9935 14.7611C23.9478 14.737 23.9478 14.713 23.9935 14.6924V14.7611Z" fill="#E7D5C6"/>
<path d="M23.9935 14.8985C23.9459 14.8743 23.9459 14.8502 23.9935 14.8264V14.8985Z" fill="#E7D5C6"/>
<path d="M13.707 3.33667C13.7143 3.33617 13.7217 3.33718 13.7285 3.33961C13.7354 3.34205 13.7416 3.34587 13.7468 3.35081C13.752 3.35576 13.7561 3.36171 13.7587 3.36828C13.7613 3.37485 13.7625 3.38188 13.762 3.38891C13.7476 3.38891 13.7337 3.38343 13.7234 3.37365C13.7131 3.36387 13.7072 3.35059 13.707 3.33667Z" fill="#E7D5C6"/>
<path d="M14.26 4.76688C14.2719 4.78522 14.2782 4.80642 14.2782 4.82804C14.2782 4.84967 14.2719 4.87087 14.26 4.88921V4.76688Z" fill="#E7D5C6"/>
<path d="M23.8579 4.51671C23.8503 4.51841 23.8425 4.51833 23.8349 4.51648C23.8274 4.51463 23.8204 4.51106 23.8146 4.50608C23.8088 4.50109 23.8043 4.49483 23.8015 4.48783C23.7987 4.48083 23.7978 4.47329 23.7987 4.46585C23.8131 4.46659 23.8268 4.47203 23.8376 4.48127C23.8483 4.49052 23.8555 4.50301 23.8579 4.51671Z" fill="#E7D5C6"/>
<path d="M14.1343 4.09543C14.1466 4.10337 14.156 4.11477 14.1612 4.12806C14.1665 4.14136 14.1673 4.15589 14.1636 4.16965C14.1222 4.1566 14.1308 4.12498 14.1343 4.09543Z" fill="#E7D5C6"/>
<path d="M13.4514 3.10645C13.456 3.10617 13.4606 3.10677 13.465 3.10821C13.4693 3.10965 13.4734 3.1119 13.4768 3.11484C13.4803 3.11777 13.4831 3.12134 13.4851 3.12532C13.4871 3.12931 13.4883 3.13364 13.4886 3.13806C13.4636 3.1415 13.4528 3.12844 13.4514 3.10645Z" fill="#E7D5C6"/>
<path d="M9.34725 21.007H8.99511C8.94011 21.007 8.88511 21.007 8.83011 21.007C8.79796 21.007 8.75868 20.9953 8.74368 21.0372C8.72868 21.0791 8.7894 21.0675 8.80226 21.1059C8.71154 21.1142 8.62297 21.13 8.5344 21.13C6.25916 21.13 3.98416 21.13 1.7094 21.13C1.6044 21.13 1.49512 21.1128 1.39297 21.1059C1.3444 21.1025 1.34224 21.0675 1.34224 21.0372C1.33366 20.7936 1.33938 20.5497 1.35939 20.3066C1.36439 20.2668 1.38297 20.2482 1.42368 20.2482H18.3472C18.3864 20.2432 18.4263 20.2457 18.4644 20.2558C18.4744 20.2847 18.4458 20.2805 18.4344 20.2902C18.3694 20.3431 18.3737 20.3754 18.4544 20.407C18.4965 20.4235 18.5301 20.4414 18.5401 20.4888C18.5446 20.5059 18.5537 20.5215 18.5665 20.5341C18.5793 20.5509 18.5965 20.564 18.6164 20.5721C18.6363 20.5802 18.658 20.583 18.6794 20.5802C18.6944 20.5802 18.7115 20.5664 18.7087 20.5513C18.7041 20.5334 18.6953 20.5167 18.6829 20.5027C18.6705 20.4886 18.6549 20.4775 18.6373 20.4702C18.5515 20.4276 18.5208 20.3589 18.553 20.3018C18.5851 20.2448 18.6494 20.229 18.7094 20.284C18.8473 20.4091 18.8822 20.4097 19.0044 20.2764C19.0144 20.2657 19.027 20.2575 19.0411 20.2526C19.0552 20.2477 19.0703 20.2462 19.0851 20.2482C20.2475 20.2482 21.4094 20.2482 22.5708 20.2482C22.6258 20.2482 22.6458 20.2647 22.6458 20.317C22.6458 20.5609 22.6458 20.8056 22.6458 21.0496C22.6458 21.086 22.6458 21.0977 22.5922 21.1032C22.4168 21.1227 22.2403 21.1318 22.0637 21.1307C20.798 21.1307 19.5323 21.1307 18.2665 21.1307C18.1951 21.1307 18.1137 21.1451 18.1008 21.0406C18.1008 21.0145 18.0715 21.007 18.0437 21.007H17.503C17.4758 21.007 17.438 21.007 17.4458 21.0441C17.4537 21.0812 17.4744 21.0853 17.5173 21.0695C17.5857 21.0549 17.6562 21.0517 17.7258 21.0599C17.748 21.0599 17.7744 21.0654 17.7744 21.0894C17.7744 21.1135 17.7437 21.1121 17.7244 21.1121C17.5658 21.1121 17.4073 21.1272 17.2494 21.1272C16.1123 21.1321 14.9744 21.1451 13.8373 21.1272C12.3373 21.1025 10.8422 21.1272 9.3451 21.1128C9.31153 21.1128 9.25368 21.1321 9.24868 21.0949C9.24368 21.0578 9.30154 21.0503 9.33797 21.04C9.34297 21.04 9.34725 21.0331 9.35225 21.0297L9.34725 21.007Z" fill="#E7D5C6"/>
<path d="M14.0558 16.5528H16.2586C16.2736 16.5676 16.285 16.5855 16.2918 16.6052C16.2986 16.6248 16.3007 16.6457 16.2979 16.6662C16.2979 17.5157 16.2979 18.3651 16.2979 19.2146C16.2979 19.3135 16.2751 19.3348 16.1758 19.3348C15.5091 19.3348 14.8424 19.3348 14.1758 19.3348C14.0936 19.3348 14.0508 19.3149 14.0508 19.2263C14.0541 18.3342 14.0558 17.443 14.0558 16.5528Z" fill="#71ACAB"/>
<path d="M1.46143 16.548H3.47714H3.48215H3.57928C3.60857 16.5734 3.60071 16.6078 3.60071 16.6394C3.60071 17.4806 3.60071 18.3218 3.60071 19.163C3.59522 19.1916 3.5921 19.2206 3.59142 19.2496C3.60356 19.3183 3.56071 19.3287 3.50714 19.3293H3.35071C2.73357 19.3293 2.11572 19.3293 1.49857 19.3293C1.40215 19.3293 1.36499 19.2964 1.35927 19.2125C1.35927 19.1864 1.35927 19.1596 1.35927 19.1335V16.7157C1.3572 16.6569 1.36345 16.5982 1.37785 16.5411H1.44357L1.46143 16.548Z" fill="#71ACAB"/>
<path d="M20.4757 16.548C21.0243 16.548 21.5729 16.5514 22.1186 16.5514C22.2864 16.5514 22.4543 16.5514 22.6186 16.548C22.6571 16.8916 22.6343 17.2407 22.6371 17.5871C22.6414 18.1019 22.6371 18.618 22.6371 19.1307C22.6371 19.1513 22.6371 19.172 22.6371 19.1926C22.63 19.3197 22.6178 19.33 22.485 19.33H20.5136C20.4421 19.33 20.38 19.3355 20.4 19.2359C20.4003 19.2069 20.3981 19.1779 20.3936 19.1493C20.3936 18.32 20.3936 17.4907 20.3936 16.6614C20.4 16.6085 20.395 16.5535 20.4757 16.548Z" fill="#71ACAB"/>
<path d="M4.53277 16.5514H6.7549C6.79919 16.9411 6.77062 17.3322 6.7749 17.7198C6.7799 18.2077 6.7749 18.6957 6.7749 19.1836C6.7749 19.2709 6.75847 19.3211 6.65062 19.3211C6.59133 19.3211 6.52919 19.3307 6.46847 19.3307H4.62561C4.56347 19.3307 4.5249 19.3307 4.5249 19.2483C4.5249 18.3603 4.5249 17.4724 4.5249 16.5844C4.52688 16.5733 4.52951 16.5623 4.53277 16.5514Z" fill="#71ACAB"/>
<path d="M10.8992 16.548C11.2678 16.548 11.6364 16.5514 12.0056 16.5514C12.3749 16.5514 12.7364 16.5514 13.1021 16.548C13.1226 16.6307 13.1301 16.716 13.1242 16.8009C13.1242 17.5711 13.1242 18.3413 13.1242 19.1115C13.1215 19.1667 13.1155 19.2218 13.1064 19.2764C13.1063 19.2838 13.1046 19.2911 13.1015 19.2979C13.0983 19.3046 13.0938 19.3107 13.0881 19.3157C13.0824 19.3206 13.0756 19.3244 13.0683 19.3268C13.061 19.3291 13.0533 19.33 13.0456 19.3293H12.9906C12.3306 19.3293 11.6714 19.3293 11.0114 19.3293C10.9349 19.3293 10.8942 19.3156 10.8907 19.2297C10.8907 19.1754 10.8785 19.1197 10.8785 19.0641V16.6854C10.8721 16.6386 10.8793 16.5911 10.8992 16.548Z" fill="#71ACAB"/>
<path d="M19.4736 17.9479C19.4736 18.372 19.4736 18.7953 19.4736 19.2187C19.4736 19.2936 19.455 19.3197 19.3715 19.3197C18.705 19.3163 18.0386 19.3197 17.3715 19.3197C17.2486 19.3197 17.2222 19.295 17.2222 19.1733C17.2222 18.3619 17.2222 17.55 17.2222 16.7377C17.2251 16.7 17.2308 16.6625 17.2393 16.6256C17.2401 16.6175 17.2426 16.6096 17.2467 16.6024C17.2507 16.5953 17.2563 16.589 17.263 16.584C17.2697 16.5789 17.2774 16.5753 17.2856 16.5732C17.2938 16.5712 17.3024 16.5708 17.3107 16.572C18 16.572 18.69 16.572 19.3822 16.572C19.4572 16.572 19.475 16.5961 19.475 16.6641C19.4722 17.0895 19.4736 17.5191 19.4736 17.9479ZM17.3443 19.2585C17.34 19.2585 17.3365 19.251 17.3315 19.2503C17.3265 19.2496 17.3143 19.2503 17.3186 19.264C17.3229 19.2778 17.3293 19.2689 17.3336 19.2682C17.3379 19.2675 17.3407 19.262 17.3443 19.2585Z" fill="#71ACAB"/>
<path d="M3.60997 16.4346C3.5893 16.4119 3.57422 16.3851 3.56581 16.3561C3.5574 16.327 3.55589 16.2966 3.5614 16.2669V12.7378C3.5614 11.5468 3.5614 10.3557 3.5614 9.16401C3.5614 9.07123 3.53284 9.05267 3.44284 9.05336C2.93284 9.05748 2.42211 9.05336 1.91139 9.05336C1.87925 9.05336 1.83569 9.07466 1.81641 9.02587C2.06712 9.02587 2.31641 9.02174 2.56855 9.02106C2.88355 9.02106 3.19783 9.02106 3.51283 9.02106C3.59426 9.02106 3.61497 9.04099 3.61497 9.11934C3.61497 10.5337 3.61497 11.9486 3.61497 13.3639V16.3191C3.61569 16.3583 3.61211 16.3961 3.60997 16.4346Z" fill="#FEFEFD"/>
<path d="M1.7815 9.02725C1.76865 9.06917 1.73221 9.05474 1.70435 9.05542C1.62793 9.05542 1.5515 9.05542 1.47507 9.05542C1.39864 9.05542 1.36935 9.07398 1.37792 9.14545C1.37899 9.16308 1.37899 9.18075 1.37792 9.19837C1.37792 11.3225 1.37792 13.4464 1.37792 15.57C1.37792 15.7274 1.39651 15.8862 1.39294 16.0442C1.38936 16.2023 1.38079 16.3755 1.37436 16.5411C1.31722 16.5281 1.34292 16.4834 1.34292 16.4538C1.34292 16.0181 1.34292 15.5828 1.34292 15.148V9.15508C1.34292 9.0245 1.34293 9.02381 1.47793 9.0245L1.7815 9.02725Z" fill="#FEFEFD"/>
<path d="M9.10425 21.1135C9.07925 21.108 9.03638 21.1245 9.03638 21.0901C9.03638 21.0406 9.08567 21.0633 9.11424 21.0613C9.14281 21.0592 9.18566 21.0544 9.18066 21.0942C9.17566 21.1341 9.12996 21.1059 9.10425 21.1135Z" fill="#E7D5C6"/>
<path d="M17.8806 21.0991C17.8856 21.0791 17.8985 21.0784 17.9099 21.0777C17.9428 21.0777 17.977 21.0399 18.007 21.0819C18.0092 21.0839 18.0107 21.0866 18.0114 21.0894C18.0121 21.0923 18.012 21.0952 18.011 21.098C18.01 21.1008 18.0083 21.1033 18.0059 21.1052C18.0036 21.107 18.0008 21.1083 17.9978 21.1087C17.9585 21.1135 17.9135 21.1458 17.8806 21.0991Z" fill="#E7D5C6"/>
<path d="M8.90421 21.1011C8.8985 21.1059 8.89493 21.1107 8.89136 21.1114C8.88779 21.1121 8.86777 21.1162 8.86206 21.1025C8.86661 21.0995 8.8717 21.0974 8.87706 21.0963C8.88624 21.0971 8.89534 21.0987 8.90421 21.1011Z" fill="#E7D5C6"/>
<path d="M13.1973 3.00862C13.1957 3.01013 13.1937 3.01113 13.1916 3.01148C13.1916 3.01148 13.1882 3.01149 13.1865 3.00748L13.1973 3.00862Z" fill="#E7D5C6"/>
<path d="M17.3443 19.2586C17.3407 19.262 17.3379 19.2675 17.3336 19.2682C17.3293 19.2689 17.32 19.2682 17.3186 19.2641C17.3171 19.2599 17.3229 19.2496 17.3314 19.2503C17.34 19.251 17.34 19.2558 17.3443 19.2586Z" fill="#E7D5C6"/>
</g>
<defs>
<clipPath id="clip0_174_1336">
<rect width="24" height="24" fill="white"/>
</clipPath>
</defs>
</svg>
