<svg width="21" height="21" viewBox="0 0 21 21" fill="none" xmlns="http://www.w3.org/2000/svg">
<path fill-rule="evenodd" clip-rule="evenodd" d="M19.6955 11.4125C22.0223 9.70845 20.8941 6.22525 18.1415 5.89651C17.1469 5.77768 16.1359 5.70458 14.9581 5.6607C14.6378 4.41556 14.3285 3.37112 13.9672 2.35851C13.0367 -0.249283 9.41408 -0.519655 8.28854 2.10064C7.90155 3.00154 7.5681 3.944 7.22958 5.05513C7.22833 5.0592 7.22608 5.06269 7.22162 5.06575C7.21725 5.06878 7.21076 5.06909 7.21076 5.06909C5.72119 4.97432 4.48355 4.9572 3.25948 5.01608C0.485685 5.14946 -0.814394 8.53951 1.36114 10.4155C2.18984 11.1301 3.07162 11.7843 4.14254 12.4895C3.53667 13.6558 3.08284 14.678 2.71943 15.7299C1.78079 18.4466 4.67278 20.643 7.09745 19.4181C8.22158 18.8502 9.30107 18.2229 10.5646 17.4131C10.5646 17.4131 10.5694 17.4107 10.5742 17.4111C10.5793 17.4116 10.5829 17.4134 10.5862 17.4164C11.4133 18.1802 12.1549 18.8094 12.9104 19.3768C15.2435 21.1288 18.2552 19.048 17.7342 16.3216C17.5406 15.3089 17.2986 14.2971 16.9797 13.1285C18.0167 12.5519 18.8817 12.0086 19.6955 11.4125Z" fill="#F1C65E"/>
</svg>
