<svg width="23" height="24" viewBox="0 0 23 24" fill="none" xmlns="http://www.w3.org/2000/svg">
<g clip-path="url(#clip0_174_1324)">
<path d="M0.0627441 6.45932C0.487923 6.21261 0.911196 5.96403 1.33637 5.71171C2.84728 4.83951 4.35884 3.97415 5.87101 3.11565L9.63874 0.968158C10.1645 0.669116 10.6903 0.370069 11.2123 0.0635507C11.267 0.022918 11.3336 0.000946045 11.4021 0.000946045C11.4706 0.000946045 11.5372 0.022918 11.5919 0.0635507C13.2268 0.999303 14.8643 1.93381 16.5043 2.86707L22.0828 6.04439C22.3296 6.18644 22.5839 6.31541 22.8212 6.47428C22.7434 6.60137 22.5953 6.64062 22.4776 6.7079C21.6918 7.16768 20.8965 7.6125 20.1031 8.06107C19.6153 8.33955 19.1256 8.62176 18.6378 8.89651C18.1499 9.17125 17.6147 9.47964 17.106 9.77682C16.4416 10.1637 15.7773 10.5525 15.1053 10.9263C14.5055 11.259 13.919 11.6159 13.3154 11.9411C12.8826 12.1729 12.4651 12.4308 12.0437 12.6887C11.8873 12.7594 11.7406 12.8492 11.6071 12.956C11.5802 12.9772 11.5467 12.9888 11.5122 12.9888C11.4777 12.9888 11.4442 12.9772 11.4173 12.956C11.144 12.7934 10.8706 12.6289 10.5935 12.4738C9.99749 12.1411 9.3977 11.8197 8.80549 11.4832C8.21328 11.1468 7.59637 10.7749 6.98138 10.4384C6.60175 10.2366 6.24684 10.0104 5.8767 9.79924C5.59578 9.63664 5.30728 9.48526 5.03015 9.32452C4.69798 9.13762 4.36771 8.95072 4.03554 8.75073C3.4661 8.42926 2.89667 8.11153 2.32723 7.79193C1.67428 7.41812 1.01942 7.05927 0.368362 6.68733C0.249986 6.63557 0.145369 6.55753 0.0627441 6.45932Z" fill="#A0D1CA"/>
<path d="M11.3887 23.9738L11.2786 23.9234C11.1496 23.8224 10.9844 23.7832 10.8535 23.6935C10.6238 23.5346 10.377 23.4075 10.136 23.2692C9.03316 22.6356 7.92276 22.0114 6.81806 21.3815C6.01895 20.9292 5.22362 20.4713 4.42641 20.019C3.20212 19.3237 1.97787 18.6341 0.757377 17.9369C0.544787 17.8154 0.244881 17.75 0.279047 17.4117C0.307068 17.3603 0.317689 17.3013 0.3094 17.2435L0.3322 9.14508C0.404329 9.14508 0.434667 9.21797 0.489712 9.24974L2.19802 10.2104C2.70672 10.4982 3.21731 10.7823 3.71651 11.072C4.11322 11.2982 4.50423 11.5337 4.90094 11.7598C5.68486 12.2065 6.47261 12.6476 7.25653 13.0943C7.8962 13.4569 8.53394 13.8251 9.1736 14.1877C9.81327 14.5503 10.4112 14.8904 11.0319 15.2362C11.1687 15.331 11.319 15.4053 11.4779 15.4567C11.5178 15.9352 11.4533 16.4155 11.4608 16.8959C11.4608 17.2585 11.4608 17.6285 11.4608 17.9949C11.4419 19.8639 11.4608 21.7329 11.4608 23.6019C11.4813 23.7304 11.4559 23.8618 11.3887 23.9738Z" fill="#71ACAB"/>
<path d="M11.3887 23.9739C11.451 23.8636 11.4737 23.7358 11.4532 23.6113C11.4532 21.7423 11.4437 19.8732 11.4532 18.0042C11.4532 17.6304 11.4627 17.2678 11.4532 16.9052C11.4532 16.4249 11.5101 15.9446 11.4703 15.4661C11.8689 15.2343 12.2656 15.0026 12.6661 14.7746C13.1862 14.4774 13.7063 14.184 14.2263 13.8887C14.7464 13.5933 15.2494 13.2887 15.7733 13.0083C16.058 12.8551 16.3427 12.6925 16.6142 12.528C16.9767 12.3112 17.343 12.1037 17.7056 11.8869C18.22 11.5823 18.7553 11.3113 19.2697 11.0048C19.8201 10.674 20.3838 10.3674 20.9343 10.0385C21.3841 9.76935 21.8511 9.52638 22.3029 9.26098C22.3679 9.20882 22.4447 9.17291 22.5268 9.15631V9.29836C22.4281 9.29836 22.4813 9.36565 22.4813 9.39555C22.4813 11.7231 22.4813 14.05 22.4813 16.3763C22.4813 16.4324 22.4623 16.4941 22.5059 16.5445V17.0136C22.4684 17.0873 22.4488 17.1686 22.4488 17.251C22.4488 17.3334 22.4684 17.4147 22.5059 17.4884C22.5059 17.5127 22.5192 17.5351 22.4908 17.55C22.4898 17.5669 22.4898 17.5837 22.4908 17.6005V17.6491V17.6884C22.4838 17.687 22.4766 17.6871 22.4696 17.6885C22.4626 17.69 22.456 17.6928 22.4502 17.6968C22.4443 17.7008 22.4394 17.7059 22.4356 17.7119C22.4318 17.7178 22.4293 17.7244 22.4281 17.7313C21.8074 18.0902 21.1867 18.4528 20.5641 18.8098L16.1985 21.3068C15.1298 21.9161 14.0612 22.5235 12.9983 23.1421C12.6566 23.3403 12.3016 23.5159 11.9733 23.7421C11.8229 23.8331 11.6676 23.9161 11.5082 23.9907C11.4895 24.0023 11.4672 24.0071 11.4453 24.004C11.4234 24.0009 11.4033 23.9902 11.3887 23.9739ZM15.071 14.2157C15.0588 14.2972 15.071 14.3803 15.1061 14.455C15.1413 14.5297 15.1978 14.5926 15.2687 14.6361C15.3397 14.6796 15.4221 14.7017 15.5056 14.6998C15.5892 14.6978 15.6704 14.6718 15.7391 14.625C16.022 14.4381 16.3237 14.2868 16.618 14.1185C17.2956 13.7335 17.9732 13.3466 18.6528 12.9635C18.7172 12.9324 18.774 12.8878 18.8192 12.833C18.8644 12.7781 18.897 12.7142 18.9147 12.6458C18.9451 12.5499 18.9454 12.4473 18.9156 12.3512C18.8858 12.2552 18.8273 12.1702 18.7477 12.1075C18.6802 12.0621 18.6011 12.0364 18.5195 12.0335C18.4379 12.0305 18.3571 12.0503 18.2864 12.0907L17.3032 12.6514C16.6521 13.0252 16.003 13.399 15.35 13.7728C15.1716 13.8793 15.0425 14.0008 15.071 14.2157Z" fill="#71ACAB"/>
<path d="M22.5401 9.14696C22.458 9.16356 22.3811 9.19947 22.3161 9.25163C21.8643 9.51703 21.3974 9.75999 20.9476 10.0291C20.3971 10.3581 19.8334 10.6646 19.2829 10.9954C18.7685 11.3019 18.2332 11.5729 17.7189 11.8776C17.3563 12.0944 16.99 12.3019 16.6274 12.5187C16.3503 12.6831 16.0713 12.8457 15.7866 12.999C15.2627 13.2793 14.7559 13.5859 14.2396 13.8793C13.7233 14.1727 13.1994 14.468 12.6793 14.7652C12.2788 14.9932 11.8822 15.225 11.4836 15.4568C11.3246 15.4053 11.1743 15.331 11.0375 15.2362C10.4168 14.8904 9.79801 14.5391 9.17922 14.1877C8.56043 13.8363 7.90182 13.4569 7.26215 13.0943C6.47823 12.6476 5.69048 12.2065 4.90655 11.7598C4.50985 11.5337 4.11884 11.2982 3.72213 11.072C3.21533 10.7823 2.70474 10.4983 2.20364 10.2104L0.495329 9.24976C0.440284 9.21798 0.409899 9.15257 0.337771 9.14509C0.248559 9.0965 0.159362 9.04417 0.0682528 8.99744C0.0464654 8.98641 0.0287384 8.96894 0.0175097 8.9475C0.00628093 8.92606 0.00209569 8.9017 0.00560008 8.87782C0.0157234 8.10156 0.0246072 7.32467 0.0321997 6.54716C0.0321997 6.51538 0.0321886 6.47801 0.0682528 6.45932C0.151771 6.55255 0.255602 6.62603 0.37197 6.67426C1.02302 7.04806 1.67784 7.41065 2.3308 7.77884C2.90023 8.09844 3.46967 8.41618 4.0391 8.73765C4.37127 8.92455 4.70159 9.12267 5.03376 9.31144C5.31468 9.47217 5.60319 9.62356 5.88031 9.78616C6.25045 9.99736 6.61106 10.2235 6.98499 10.4254C7.59998 10.7618 8.2017 11.1225 8.8091 11.4701C9.4165 11.8178 10.0011 12.128 10.5971 12.4607C10.8742 12.6158 11.1476 12.7803 11.4209 12.9429C11.4478 12.9642 11.4813 12.9757 11.5158 12.9757C11.5503 12.9757 11.5838 12.9642 11.6107 12.9429C11.7442 12.8361 11.8909 12.7463 12.0473 12.6757C12.4687 12.4215 12.8863 12.1636 13.319 11.9281C13.9226 11.6028 14.5091 11.2459 15.1089 10.9132C15.7828 10.5394 16.4376 10.1506 17.1096 9.76373C17.6183 9.46656 18.1308 9.17499 18.6414 8.88342C19.152 8.59186 19.6189 8.32273 20.1067 8.04798C20.9001 7.59942 21.6954 7.15459 22.4812 6.69482C22.5989 6.62753 22.747 6.58828 22.8248 6.46119C22.8875 6.50231 22.859 6.56772 22.859 6.62192C22.859 7.33402 22.8476 8.04798 22.859 8.76008C22.8686 8.82447 22.8548 8.89013 22.82 8.9455C22.7853 9.00088 22.7319 9.04244 22.6692 9.06285C22.6173 9.07474 22.5715 9.10459 22.5401 9.14696Z" fill="#778A8D"/>
<path d="M22.5155 16.5351C22.4718 16.4847 22.4909 16.423 22.4909 16.3669C22.4909 14.0406 22.4909 11.7137 22.4909 9.38617C22.4909 9.35627 22.4377 9.27965 22.5364 9.28899C22.5364 10.3487 22.5364 11.4085 22.5364 12.4663C22.5364 13.7746 22.5364 15.0997 22.5212 16.4174C22.5212 16.4566 22.5174 16.4959 22.5155 16.5351Z" fill="#71ACAB"/>
<path d="M22.5098 17.479C22.4722 17.4054 22.4526 17.3241 22.4526 17.2416C22.4526 17.1592 22.4722 17.0779 22.5098 17.0043V17.479Z" fill="#71ACAB"/>
<path d="M22.4319 17.722C22.433 17.715 22.4356 17.7084 22.4393 17.7025C22.4431 17.6966 22.4481 17.6914 22.4539 17.6874C22.4598 17.6834 22.4664 17.6806 22.4734 17.6791C22.4803 17.6777 22.4875 17.6776 22.4945 17.679L22.4319 17.722Z" fill="#71ACAB"/>
<path d="M22.4909 17.5911C22.49 17.5743 22.49 17.5575 22.4909 17.5407C22.5289 17.5594 22.5137 17.5762 22.4909 17.5911Z" fill="#71ACAB"/>
<path d="M22.4946 17.679V17.6397C22.5136 17.6528 22.525 17.664 22.4946 17.679Z" fill="#71ACAB"/>
<path d="M15.0712 14.2157C15.0408 14.0008 15.1699 13.8793 15.3502 13.7765C16.0031 13.4027 16.6523 13.0289 17.3034 12.6551L18.2866 12.0944C18.3572 12.054 18.438 12.0342 18.5197 12.0372C18.6013 12.0402 18.6804 12.0658 18.7479 12.1112C18.8275 12.174 18.886 12.2589 18.9158 12.3549C18.9456 12.451 18.9453 12.5536 18.9149 12.6495C18.8972 12.718 18.8646 12.7818 18.8194 12.8367C18.7741 12.8916 18.7174 12.9361 18.6529 12.9672C17.9734 13.3504 17.2957 13.7372 16.6181 14.1223C16.3239 14.2905 16.0221 14.4437 15.7393 14.6288C15.6703 14.6759 15.5887 14.702 15.5047 14.7039C15.4207 14.7058 15.3379 14.6834 15.2668 14.6394C15.1956 14.5954 15.1392 14.5318 15.1044 14.4565C15.0696 14.3811 15.0581 14.2974 15.0712 14.2157Z" fill="#71ACAB"/>
</g>
<defs>
<clipPath id="clip0_174_1324">
<rect width="22.8571" height="24" fill="white"/>
</clipPath>
</defs>
</svg>
