<svg width="24" height="20" viewBox="0 0 24 20" fill="none" xmlns="http://www.w3.org/2000/svg">
<g clip-path="url(#clip0_177_1689)">
<path d="M8.91868 13.8609C8.67558 12.8582 8.70371 11.8137 9.0002 10.8333C9.08037 10.5996 9.18084 10.3734 9.30051 10.1573C10.1108 8.58247 10.902 6.99776 11.7453 5.44073C12.5943 3.87256 13.9826 3.03496 15.7428 2.76529C15.9919 2.72718 16.221 2.70694 16.3832 2.47893C16.506 2.30285 16.7646 2.20451 16.8946 2.36994C17.2443 2.81383 17.7559 2.84566 18.2215 2.99463C18.9562 3.22772 19.6327 3.61638 20.2037 4.13329C20.41 4.31948 20.6122 4.44554 20.8884 4.46975C21.2142 4.49841 21.3733 4.68406 21.2971 5.00292C21.2353 5.26058 21.3122 5.46468 21.4292 5.69554C22.0883 6.99451 22.2889 8.32412 21.8574 9.74111C21.7102 10.2072 21.5233 10.6597 21.2987 11.0935C20.6883 12.3024 20.0298 13.4882 19.4503 14.712C18.4728 16.7754 16.8473 17.8859 14.5547 18.0788C14.44 18.0437 14.3177 18.0451 14.2049 18.0827L14.0217 18.0764C13.9834 18.0557 13.9414 18.0429 13.8982 18.0388C13.8549 18.0347 13.8115 18.0394 13.7704 18.0526L12.4181 17.7193L12.255 17.6653L12.1025 17.6132L11.9657 17.5499L11.6114 17.3675L11.4736 17.2869L11.2222 17.1066L10.8751 16.891C10.7391 16.7146 10.5686 16.567 10.374 16.4572L10.3758 16.4538C10.2478 16.2252 10.0561 16.0491 9.88035 15.8593L9.49643 15.2605L9.06019 14.3384C9.01217 14.1826 8.96597 14.0199 8.91868 13.8609ZM19.1561 12.4721L19.2748 12.4329L19.2663 12.439L19.5888 12.3243C20.2073 12.1851 20.7052 11.9107 20.9045 11.2585C20.9682 11.0493 21.1011 10.8625 21.201 10.665C21.9763 9.12841 22.0054 7.56681 21.2633 5.9867C21.2235 5.90201 21.2162 5.78035 21.1104 5.76113C20.8207 6.09419 20.8254 6.423 20.9618 6.84423C21.4181 8.24998 21.1763 9.56311 20.2633 10.7139C18.9641 12.3469 16.445 13.0531 13.9586 11.2221C12.5357 10.1742 11.9341 8.71121 12.2606 7.00529C12.5806 5.31716 13.6167 4.19542 15.3227 3.74209C15.5296 3.68842 15.6971 3.62944 15.7264 3.39293C15.7819 3.28511 15.8895 3.20146 15.8927 3.0333C14.6008 3.2079 13.5097 3.71891 12.656 4.68291C12.4731 4.87646 12.2377 5.04127 12.1167 5.26761C11.5607 6.30645 11.0383 7.36349 10.4993 8.41108C10.408 8.58846 10.3437 8.76565 10.4694 8.95698L10.4697 8.96507L10.4898 9.07573C10.4726 9.20839 10.4996 9.34364 10.5668 9.46106L10.5647 9.45118L10.6008 9.57093L10.5962 9.55715L10.6334 9.67831L10.6274 9.6638L10.6663 9.785L10.6535 9.77844C10.7339 10.1656 10.8791 10.5376 11.083 10.8792L11.0891 10.8674L11.1366 10.9842L11.1323 10.9749C11.2194 11.2107 11.3448 11.4313 11.5036 11.6279L11.5075 11.6202C11.5585 11.771 11.6469 11.9072 11.7644 12.0163L11.7638 12.0072C11.9851 12.4097 12.328 12.7136 12.6263 13.0536C12.89 13.3547 13.2114 13.4426 13.5884 13.3859L13.5784 13.3913C13.6419 13.4108 13.7053 13.4408 13.768 13.3921L13.7559 13.3964C13.8194 13.4177 13.8836 13.4428 13.9463 13.3958L13.9331 13.3988C13.9962 13.4172 14.0607 13.4468 14.1227 13.3978L14.1103 13.4011C14.1398 13.4165 14.1727 13.4243 14.2058 13.4238C14.239 13.4233 14.2713 13.4146 14.2999 13.3983L14.2917 13.402C14.4491 13.4306 14.6104 13.4234 14.7634 13.3808L14.7595 13.3885L15.2266 13.3517L15.2155 13.3539L15.3294 13.3069C15.7089 13.2383 16.1118 13.3664 16.4737 13.1734C16.4808 13.181 16.4895 13.1869 16.4992 13.1907C16.5089 13.1946 16.5193 13.1962 16.5296 13.1955C16.5399 13.1948 16.55 13.1919 16.5589 13.1868C16.5679 13.1817 16.5755 13.1747 16.5813 13.1663L16.5681 13.1745C16.7427 13.1799 16.9157 13.1462 17.0742 13.0759L17.0678 13.0797C17.2033 13.0831 17.3372 13.0546 17.4584 12.9965L17.6823 12.9358L17.6702 12.9366L17.7918 12.9006L17.7776 12.9056L17.8992 12.8696L17.8846 12.8753L18.0062 12.8376L17.9916 12.8433L18.1129 12.8045L18.0986 12.8113C18.1202 12.8209 18.1444 12.8224 18.1667 12.8156C18.1891 12.8088 18.208 12.7941 18.2199 12.7742L18.2064 12.7796C18.2278 12.7895 18.252 12.7912 18.2744 12.7843C18.2967 12.7773 18.3155 12.7623 18.3269 12.7422L18.3123 12.7461C18.3337 12.7567 18.3583 12.7587 18.3808 12.7518C18.4034 12.7449 18.4223 12.7296 18.4336 12.7091L18.4197 12.7152C18.4413 12.7251 18.4658 12.7267 18.4882 12.7194C18.5106 12.7121 18.5292 12.6966 18.5402 12.676L18.5264 12.6821C18.548 12.6919 18.5724 12.6933 18.5948 12.686C18.6171 12.6787 18.6357 12.6634 18.6469 12.6429L18.633 12.649C18.6546 12.6588 18.6789 12.6603 18.7013 12.6532C18.7237 12.6462 18.7424 12.6311 18.7539 12.6109L18.7393 12.6148C18.7611 12.6241 18.7854 12.6253 18.8077 12.6182C18.83 12.611 18.8488 12.596 18.8606 12.576L18.8456 12.5807L18.9665 12.5408L18.9516 12.5454L19.0718 12.5052L19.0576 12.5102L19.1774 12.4707L19.1561 12.4721ZM14.9585 4.22159L14.9696 4.21759L14.8572 4.26181L14.6928 4.33385L14.7095 4.33101L14.5918 4.38567C12.6309 5.27526 11.7278 8.09304 13.323 10.1701C13.802 10.7949 14.4327 11.2065 15.1359 11.5349C16.4884 12.1657 17.7997 12.1067 19.0534 11.3512C19.9718 10.7997 20.5054 9.95426 20.7446 8.93539C20.8866 8.3284 20.8997 7.71404 20.6551 7.099C20.5324 6.78867 20.4331 6.84929 20.274 7.01907C20.0144 7.29721 19.775 7.23471 19.5331 6.98533C19.1959 6.65051 18.8988 6.27855 18.6477 5.87698C18.5567 5.72634 18.459 5.65319 18.2672 5.66711C18.1316 5.67866 17.9949 5.65204 17.8728 5.59032C17.7508 5.5286 17.6483 5.43429 17.5772 5.31825C17.4559 5.10628 17.3358 5.12016 17.1638 5.15132L16.9713 5.16838L16.9823 5.16612L16.7959 5.16786L16.8008 5.17041L16.6866 5.16087L16.6766 5.15576L16.4355 5.16101L16.4472 5.15913L16.0127 5.12208L16.0202 5.12152C15.945 5.0934 15.8756 5.05415 15.798 5.09518L15.7767 5.08423L15.481 4.97958L15.3479 4.87415L15.2881 4.65773L15.2891 4.66793L15.2966 4.47912L15.2998 4.49218C15.3237 4.35847 15.4332 4.24149 15.3768 4.06552L15.0546 4.18654L15.0645 4.18463L14.9585 4.22159ZM16.3146 4.75484C16.3791 4.78802 16.445 4.82193 16.5191 4.77206C16.7438 4.83461 16.9804 4.83632 17.2041 4.77699C17.4774 4.63784 17.4647 4.33135 17.5882 4.10541C17.6336 4.01706 17.7984 3.92151 17.6576 3.79626C17.3293 3.50239 17.1868 3.07368 16.8635 2.77182C16.7241 2.64204 16.641 2.6503 16.5503 2.77079C16.1526 3.29813 15.7836 3.8411 15.708 4.52452C15.6391 4.62541 15.6618 4.7031 15.7875 4.7097C15.9625 4.71794 16.138 4.80206 16.3186 4.74894L16.3146 4.75484ZM17.7339 4.86923C17.7297 4.87776 17.7291 4.88759 17.7321 4.89668C17.7351 4.90576 17.7415 4.91341 17.75 4.918C17.9546 5.17195 18.2107 5.32396 18.5463 5.31628C18.8858 5.125 19.0671 4.74142 18.8811 4.54192C18.6956 4.33492 18.4377 4.20537 18.161 4.1802C17.8919 4.16315 17.8273 4.42287 17.7441 4.62464C17.7137 4.65746 17.696 4.69993 17.694 4.74472C17.6921 4.78951 17.7061 4.8338 17.7335 4.86993L17.7339 4.86923ZM10.4278 15.9782C10.4218 16.0631 10.4984 16.0849 10.5443 16.1314L10.5391 16.119C10.9759 16.7159 11.6199 17.0165 12.2657 17.3136C14.0565 18.0732 15.7494 17.8823 17.337 16.8437C18.9434 15.7929 19.3727 13.9621 20.2603 12.4235C20.1787 12.4236 20.0986 12.4427 20.0264 12.4791C18.2861 13.1804 16.4814 13.6199 14.5899 13.6971C12.9562 13.7627 11.3621 13.5055 9.79085 13.0578C9.55712 12.9894 9.3479 12.8298 9.05706 12.8342C9.1793 14.0408 9.57373 15.1103 10.4295 15.994L10.4278 15.9782ZM12.1308 13.2588C12.2306 13.2653 12.3392 13.3766 12.4363 13.24L12.2254 13.0682C11.3985 12.1529 10.7622 11.0864 10.3536 9.93114C10.3074 9.67247 10.2726 9.41087 10.1345 9.13747C9.95555 9.48528 9.82007 9.79387 9.64526 10.0796C9.24562 10.7309 9.10247 11.4464 9.06001 12.1978C9.05214 12.3873 9.10037 12.4887 9.27731 12.5507C10.2092 12.8771 11.1479 13.171 12.138 13.2432L12.1308 13.2588ZM20.6591 5.85793C20.7369 5.65255 20.8478 5.37614 20.9444 5.0942C21.0019 4.92671 20.9847 4.79995 20.7511 4.77304C20.3346 4.71453 19.9141 4.69222 19.4947 4.70634C19.418 4.71086 19.3403 4.69815 19.2885 4.77618C18.8437 5.44556 18.8587 5.68642 19.4043 6.33141C19.522 6.47202 19.6693 6.59001 19.7766 6.73674C19.8988 6.90342 19.9821 6.84248 20.0806 6.72951C20.3014 6.45769 20.4953 6.1654 20.6598 5.85653L20.6591 5.85793ZM17.699 3.12695C18.0418 3.87695 19.1828 4.47109 19.974 4.30629C19.3135 3.74874 18.5358 3.345 17.6997 3.12555L17.699 3.12695Z" fill="#E7D5C6"/>
<path d="M17.1712 5.15069C17.3432 5.11953 17.4633 5.10566 17.5846 5.31763C17.6557 5.43367 17.7582 5.52798 17.8803 5.5897C18.0023 5.65142 18.139 5.67803 18.2746 5.66648C18.4664 5.65256 18.5634 5.72711 18.6551 5.87636C18.9062 6.27793 19.2034 6.64988 19.5405 6.98471C19.7824 7.23409 20.0218 7.29659 20.2814 7.01845C20.4405 6.84867 20.5398 6.78804 20.6625 7.09838C20.9071 7.71342 20.894 8.32778 20.752 8.93477C20.5121 9.95503 19.9792 10.799 19.0608 11.3506C17.8046 12.1057 16.4955 12.1658 15.1433 11.5343C14.4401 11.2059 13.8094 10.7943 13.3304 10.1695C11.7352 8.09242 12.6383 5.27464 14.5992 4.38505C14.6224 4.39189 14.6472 4.3901 14.6689 4.38003C14.6906 4.36995 14.7077 4.35229 14.717 4.33039L14.7002 4.33323C14.7867 4.37772 14.8281 4.32512 14.8646 4.2612L14.977 4.21697L14.966 4.22097L15.0826 4.17894L15.6767 3.82654C15.8227 3.87883 15.2476 4.37558 15.3193 4.48371L15.3161 4.47066C15.2793 4.53177 15.2524 4.59448 15.3086 4.65946L15.3076 4.64926C15.2937 4.66602 15.2841 4.68588 15.2795 4.7072C15.275 4.72852 15.2757 4.75068 15.2815 4.77184C15.2874 4.793 15.2982 4.81255 15.3132 4.82887C15.3281 4.84519 15.3467 4.85781 15.3674 4.86568L15.5005 4.97111C15.5165 5.24324 15.6765 5.10123 15.7963 5.07576L15.8175 5.0867C15.8884 5.12317 15.9585 5.17332 16.0397 5.11305L16.0323 5.11361C16.174 5.18654 16.3095 5.30993 16.4667 5.15066L16.455 5.15254C16.5369 5.185 16.622 5.30182 16.6962 5.14729L16.7068 5.15276C16.7421 5.19733 16.7819 5.19141 16.8204 5.16194L16.8154 5.15938C16.8792 5.1922 16.9412 5.21797 17.0019 5.15766L16.9908 5.1599C17.0467 5.20803 17.1134 5.22123 17.1712 5.15069ZM15.6473 7.03933C15.3908 6.91259 15.0128 7.02693 14.9243 7.31043C14.8524 7.54261 14.6729 7.83738 15.0287 8.02746C15.3631 8.2066 15.7091 8.09868 15.8659 7.78171C16.0084 7.48905 15.9174 7.17124 15.6473 7.03933ZM18.2088 9.01537C18.358 8.74988 18.272 8.39775 18.0233 8.25922C17.7746 8.12069 17.429 8.2244 17.2767 8.49089C17.1415 8.72573 17.2342 9.24587 17.4281 9.34122C17.6219 9.43656 18.0843 9.23813 18.2095 9.01398L18.2088 9.01537ZM15.6792 10.0469C15.9363 10.0588 16.1936 10.057 16.4501 10.0416C16.5442 10.0328 16.6261 9.90688 16.7066 9.82869C16.7358 9.80178 16.7527 9.76438 16.7538 9.72471C16.7549 9.68503 16.74 9.6463 16.7125 9.61702C16.6581 9.54855 16.5881 9.54688 16.501 9.57332C15.759 9.79595 15.7023 9.76677 15.4557 9.03545C15.4206 8.92942 15.3558 8.88113 15.2595 8.89405C15.1632 8.90697 15.137 8.96829 15.1228 9.05687C15.0788 9.31487 15.3747 9.90349 15.6792 10.0469ZM14.2695 8.54301C14.4088 8.59974 14.5861 8.74464 14.7234 8.51791C14.8607 8.29118 14.6645 8.16559 14.5174 8.08553C14.353 7.99566 14.1048 7.9172 13.9914 8.12191C13.878 8.32661 14.0771 8.44313 14.2695 8.54301ZM17.6005 10.2569C17.7596 10.3274 17.9452 10.458 18.069 10.2173C18.1857 9.99058 17.9816 9.86448 17.8325 9.79035C17.6833 9.71623 17.4638 9.63585 17.3556 9.87227C17.2574 10.0927 17.4481 10.1645 17.6005 10.2569Z" fill="#E7D5C6"/>
<path d="M9.79333 13.0616C11.3646 13.5093 12.9587 13.7665 14.5924 13.7009C16.4853 13.6245 18.2886 13.1842 20.0289 12.4829C20.1011 12.4465 20.1812 12.4274 20.2628 12.4273C19.3752 13.9659 18.9459 15.7967 17.3394 16.8475C15.7522 17.8854 14.0594 18.0763 12.2682 17.3174C12.2915 17.1745 12.5804 17.1147 12.3838 16.8992C12.0176 16.4978 11.6022 16.2041 11.029 16.2381C10.859 16.2524 10.688 16.212 10.5415 16.1228L10.5468 16.1352C10.56 16.0452 10.4976 16.0114 10.4303 15.982L10.432 15.9978C10.479 15.8628 10.3832 15.7721 10.3172 15.6792C9.84789 15.0234 9.63073 14.2782 9.47088 13.5053C9.40324 13.1961 9.40329 13.0096 9.79333 13.0616Z" fill="#DC968F"/>
<path d="M15.7283 3.38584C15.6968 3.62125 15.53 3.6806 15.3246 3.735C13.6204 4.19011 12.5822 5.31076 12.2625 6.9982C11.9374 8.70836 12.5362 10.1698 13.9605 11.215C16.4469 13.046 18.966 12.3398 20.2652 10.7068C21.1803 9.55712 21.42 8.24289 20.9637 6.83714C20.8277 6.41522 20.8226 6.0871 21.1123 5.75404C21.2195 5.77399 21.2268 5.89564 21.2651 5.97961C22.0073 7.55972 21.9796 9.12029 21.2029 10.6579C21.1016 10.8547 20.9701 11.0422 20.9064 11.2514C20.7071 11.9037 20.2092 12.178 19.5907 12.3172C19.392 12.1112 19.3352 12.2913 19.2682 12.4319L19.2767 12.4258L19.158 12.465L19.1715 12.4614L19.0517 12.5009L19.0659 12.4959L18.9457 12.5361L18.9606 12.5315C18.9389 12.5218 18.9144 12.5205 18.892 12.5279C18.8696 12.5353 18.8509 12.5508 18.8397 12.5713L18.8547 12.5667C18.8331 12.556 18.8083 12.5542 18.7856 12.5614C18.763 12.5687 18.7442 12.5845 18.7334 12.6055L18.748 12.6015C18.7375 12.5958 18.7259 12.5922 18.714 12.5909C18.7021 12.5897 18.6901 12.591 18.6788 12.5945C18.6675 12.5981 18.657 12.604 18.6482 12.6117C18.6393 12.6195 18.6321 12.629 18.6271 12.6396L18.641 12.6336C18.6304 12.628 18.6188 12.6246 18.6069 12.6235C18.5951 12.6225 18.5831 12.6239 18.5719 12.6275C18.5606 12.6312 18.5502 12.6371 18.5414 12.6448C18.5326 12.6526 18.5254 12.6621 18.5204 12.6727L18.5343 12.6667C18.5237 12.6611 18.5122 12.6577 18.5003 12.6566C18.4884 12.6556 18.4765 12.6569 18.4652 12.6606C18.4539 12.6643 18.4436 12.6702 18.4347 12.6779C18.4259 12.6857 18.4188 12.6952 18.4138 12.7058L18.4277 12.6998C18.4064 12.6888 18.3817 12.6865 18.359 12.6935C18.3363 12.7004 18.3174 12.716 18.3064 12.7368L18.321 12.7328C18.3105 12.7271 18.2991 12.7235 18.2872 12.7223C18.2754 12.7211 18.2635 12.7223 18.2522 12.7258C18.2409 12.7293 18.2305 12.735 18.2216 12.7427C18.2127 12.7503 18.2055 12.7597 18.2005 12.7702L18.214 12.7649C18.1927 12.7539 18.168 12.7517 18.1453 12.7586C18.1226 12.7655 18.1037 12.7811 18.0927 12.8019L18.107 12.7952C18.0852 12.7857 18.0609 12.7844 18.0385 12.7916C18.0161 12.7987 17.9974 12.8138 17.9857 12.834L18.0003 12.8283C17.9787 12.8184 17.9543 12.8168 17.9318 12.8238C17.9093 12.8308 17.8904 12.8458 17.8787 12.866L17.8933 12.8603L17.7717 12.8963L17.7859 12.8913L17.6643 12.9272L17.6757 12.926C17.578 12.8599 17.504 12.8835 17.4525 12.9871C17.2955 12.8985 17.1497 12.8578 17.0619 13.0703L17.0647 13.0648C16.8593 12.9239 16.6898 12.9537 16.5594 13.1637L16.5725 13.1555L16.4649 13.1626C16.1044 13.3563 15.7001 13.231 15.3206 13.2961L15.2068 13.3431L15.2171 13.3405C15.0513 13.2464 14.8828 13.1192 14.75 13.3773L14.7539 13.3696C14.5906 13.2724 14.429 13.1963 14.2823 13.3909L14.2905 13.3872C14.2253 13.3536 14.1615 13.3208 14.1008 13.3899L14.1133 13.3866C14.0492 13.3475 13.9843 13.3203 13.9236 13.3876L13.9368 13.3847C13.872 13.3452 13.8082 13.3141 13.7465 13.3853L13.7586 13.3809C13.6952 13.3422 13.6314 13.3093 13.5689 13.3801L13.5789 13.3747C13.0197 13.27 12.6448 12.8941 12.2817 12.5005C12.1177 12.3211 12.0218 12.0703 11.7543 11.996L11.755 12.0052C11.8679 11.7474 11.6828 11.6786 11.4981 11.609L11.4941 11.6167C11.6088 11.2684 11.3452 11.1275 11.1229 10.9638L11.1271 10.973L11.0796 10.8562L11.0736 10.868C11.1362 10.492 10.9228 9.94149 10.6441 9.76727L10.6568 9.77383C10.6674 9.75282 10.6693 9.72843 10.662 9.70582C10.6548 9.68321 10.6389 9.66413 10.6179 9.65263L10.6239 9.66714C10.6337 9.64617 10.6353 9.62226 10.6285 9.59993C10.6216 9.57761 10.6068 9.55841 10.5867 9.54597L10.5913 9.55976C10.5798 9.5195 10.5678 9.47994 10.5552 9.44001L10.5573 9.44989C10.7114 8.92215 10.9829 8.44861 11.232 7.96446C11.5183 7.40797 11.8323 6.8657 12.0853 6.29207C12.5106 5.29691 13.2339 4.45795 14.1593 3.88672C14.643 3.60511 15.12 3.30335 15.7283 3.38584Z" fill="#DC968F"/>
<path d="M10.3508 9.9366C10.7594 11.0919 11.3957 12.1584 12.2226 13.0736C12.1907 13.1355 12.1589 13.1974 12.127 13.2594L12.1331 13.2475C12.0004 13.1598 11.8494 13.1032 11.692 13.0822C11.1448 12.9971 10.6051 12.8666 10.0786 12.6919C9.41614 12.49 9.43602 12.4915 9.49212 11.7919C9.51317 11.5462 9.57597 11.3063 9.67788 11.0825C9.85882 10.6838 9.9548 10.2185 10.3508 9.9366Z" fill="#DC968F"/>
<path d="M20.6599 5.85647C20.4953 6.16584 20.3011 6.45861 20.08 6.73084C19.9805 6.8459 19.9018 6.90306 19.7761 6.73806C19.6701 6.59557 19.5215 6.47334 19.4038 6.33273C18.8588 5.68635 18.8438 5.44549 19.2879 4.77751C19.3405 4.69808 19.4182 4.71079 19.4942 4.70767C19.9136 4.69354 20.334 4.71586 20.7506 4.77437C20.9841 4.80128 21.0014 4.92804 20.9439 5.09552C20.8486 5.37468 20.7378 5.65109 20.6599 5.85647Z" fill="#DC968F"/>
<path d="M15.7283 3.38589C15.1214 3.30061 14.6444 3.60237 14.173 3.89476C13.2477 4.46599 12.5243 5.30494 12.0991 6.30011C11.8461 6.87374 11.5307 7.41528 11.2457 7.9725C10.9952 8.45943 10.7238 8.92945 10.5711 9.45792C10.504 9.34051 10.477 9.20526 10.4942 9.07259L10.474 8.96194L10.4737 8.9521C10.5129 8.74904 10.5833 8.55356 10.6824 8.37236C11.3418 7.14127 11.9176 5.86539 12.6596 4.67766C13.5158 3.71054 14.6044 3.20265 15.8963 3.02804C15.8899 3.1972 15.7859 3.28267 15.7283 3.38589Z" fill="#DC968F"/>
<path d="M17.2034 4.77828C16.98 4.83756 16.7436 4.83597 16.5191 4.77371C16.4532 4.7398 16.3871 4.682 16.314 4.75612L15.7041 4.5303C15.9242 4.1025 16.1444 3.67471 16.3723 3.25092C16.427 3.14449 16.4603 2.99269 16.6566 3.1095C17.4005 3.54859 17.5563 4.01409 17.2034 4.77828Z" fill="#DC968F"/>
<path d="M10.3507 9.9366C9.95466 10.2185 9.85868 10.6838 9.67773 11.086C9.57582 11.3098 9.51303 11.5497 9.49198 11.7954C9.43588 12.495 9.41599 12.4935 10.0785 12.6954C10.6049 12.8701 11.1446 13.0006 11.6919 13.0857C11.8493 13.1067 12.0002 13.1633 12.133 13.251C11.1418 13.1809 10.2041 12.885 9.27227 12.5586C9.09533 12.4966 9.04426 12.3938 9.05496 12.2057C9.09742 11.4542 9.24058 10.7387 9.64022 10.0875C9.81502 9.80175 9.95086 9.49246 10.1295 9.14535C10.2697 9.41634 10.3052 9.67831 10.3507 9.9366Z" fill="#DC968F"/>
<path d="M17.6998 3.12548C18.5361 3.34441 19.314 3.74767 19.9748 4.30482C19.1837 4.46962 18.0437 3.8734 17.6998 3.12548Z" fill="#DC968F"/>
<path d="M17.7437 4.62526C17.8269 4.42349 17.8916 4.16378 18.1606 4.18083C18.4374 4.206 18.6953 4.33554 18.8807 4.54254C19.0667 4.74204 18.8855 5.12563 18.5463 5.31621C18.3054 5.13918 18.0359 5.00464 17.7496 4.91863C17.7454 4.91644 17.7416 4.91345 17.7385 4.90981C17.7354 4.90618 17.7331 4.90199 17.7317 4.89748C17.7302 4.89297 17.7297 4.88823 17.7302 4.88355C17.7306 4.87887 17.732 4.87434 17.7342 4.87022C17.7559 4.83355 17.7681 4.79206 17.7697 4.74937C17.7714 4.70668 17.7625 4.66407 17.7437 4.62526Z" fill="#DC968F"/>
<path d="M10.5381 16.121C10.6846 16.2101 10.8555 16.2506 11.0255 16.2363C11.5988 16.2023 12.0141 16.496 12.3804 16.8974C12.5769 17.1129 12.288 17.1727 12.2647 17.3156C11.6185 17.0192 10.9749 16.7179 10.5381 16.121Z" fill="#DC968F"/>
<path d="M17.2035 4.77827C17.5564 4.01408 17.4006 3.54858 16.6609 3.10642C16.4647 2.98961 16.4328 3.14213 16.3766 3.24783C16.1501 3.67235 15.9307 4.10051 15.7085 4.52722C15.784 3.84381 16.1531 3.30083 16.5508 2.7735C16.6415 2.653 16.7246 2.64475 16.864 2.77453C17.1877 3.07569 17.3301 3.5044 17.6581 3.79897C17.7975 3.92348 17.6341 4.01977 17.5886 4.10811C17.4642 4.33263 17.4775 4.63773 17.2035 4.77827Z" fill="#DC968F"/>
<path d="M9.79334 13.0616C9.40684 13.0114 9.40679 13.1979 9.47443 13.5072C9.63429 14.2801 9.85 15.0245 10.3207 15.681C10.3867 15.774 10.4826 15.8646 10.4355 15.9997C9.57833 15.1187 9.18605 14.045 9.0631 12.8398C9.34685 12.8319 9.55464 12.9907 9.79334 13.0616Z" fill="#DC968F"/>
<path d="M12.6564 4.6786C11.9144 5.86633 11.3386 7.14221 10.6791 8.3733C10.5801 8.5545 10.5097 8.74999 10.4705 8.95304C10.3448 8.7617 10.4098 8.58488 10.5004 8.40713C11.0359 7.35771 11.5597 6.3014 12.1178 5.26366C12.238 5.03696 12.4734 4.87215 12.6564 4.6786Z" fill="#DC968F"/>
<path d="M11.7631 12.0014C12.0306 12.0757 12.1265 12.3265 12.2906 12.506C12.6529 12.9009 13.0285 13.2754 13.5877 13.3801C13.2104 13.4376 12.8873 13.3479 12.6257 13.0479C12.3274 12.7079 11.9845 12.4039 11.7631 12.0014Z" fill="#DC968F"/>
<path d="M10.656 9.77527C10.9323 9.94909 11.1477 10.5007 11.0855 10.876C10.8816 10.5345 10.7364 10.1624 10.656 9.77527Z" fill="#DC968F"/>
<path d="M17.7483 4.91786C18.0345 5.00387 18.3041 5.13842 18.5449 5.31544C18.2104 5.32455 17.9543 5.17253 17.7483 4.91786Z" fill="#DC968F"/>
<path d="M11.1309 10.9706C11.3532 11.1343 11.6168 11.2752 11.5021 11.6236C11.3433 11.427 11.2179 11.2064 11.1309 10.9706Z" fill="#DC968F"/>
<path d="M15.707 4.53L16.3169 4.75582C16.1363 4.80893 15.963 4.72591 15.7858 4.71658C15.6594 4.70786 15.6367 4.63016 15.707 4.53Z" fill="#DC968F"/>
<path d="M16.5656 13.1688C16.6961 12.9587 16.8677 12.9301 17.071 13.0698C16.9129 13.1404 16.74 13.1742 16.5656 13.1688Z" fill="#DC968F"/>
<path d="M15.3091 4.48983C15.2389 4.37892 15.21 4.23649 15.0625 4.18698L15.3847 4.06595C15.444 4.23636 15.3346 4.35334 15.3091 4.48983Z" fill="#E9E9E9"/>
<path d="M11.5063 11.6159C11.6917 11.684 11.8768 11.7529 11.7632 12.012C11.6456 11.9029 11.5573 11.7667 11.5063 11.6159Z" fill="#DC968F"/>
<path d="M14.2911 13.3963C14.4375 13.2024 14.5991 13.2786 14.7628 13.3751C14.6098 13.4176 14.4485 13.4249 14.2911 13.3963Z" fill="#DC968F"/>
<path d="M14.757 13.3827C14.8898 13.1247 15.0569 13.2511 15.2241 13.346L14.757 13.3827Z" fill="#DC968F"/>
<path d="M19.2664 12.4389C19.338 12.2998 19.3902 12.1182 19.5889 12.3242L19.2664 12.4389Z" fill="#DC968F"/>
<path d="M17.0654 13.0739C17.1533 12.8614 17.299 12.9021 17.456 12.9908C17.3348 13.0489 17.2009 13.0774 17.0654 13.0739Z" fill="#DC968F"/>
<path d="M12.1298 13.2608C12.1616 13.1989 12.1935 13.137 12.2253 13.0751L12.4363 13.247C12.336 13.3775 12.2295 13.2673 12.1298 13.2608Z" fill="#FBD1C5"/>
<path d="M16.4607 5.15547C16.3034 5.31474 16.1665 5.19238 16.0262 5.11842L16.4607 5.15547Z" fill="#E9E9E9"/>
<path d="M15.784 5.07727C15.6638 5.10344 15.5038 5.24545 15.4882 4.97262L15.784 5.07727Z" fill="#E9E9E9"/>
<path d="M17.7438 4.62524C17.7626 4.66405 17.7715 4.70666 17.7698 4.74936C17.7682 4.79205 17.756 4.83354 17.7343 4.87021C17.7067 4.83429 17.6925 4.7901 17.6942 4.74535C17.696 4.70059 17.7135 4.6581 17.7438 4.62524Z" fill="#DC968F"/>
<path d="M14.2045 18.0762C14.1413 18.1625 14.0774 18.2484 14.0213 18.0699L14.2045 18.0762Z" fill="#FDFDFD"/>
<path d="M15.3586 4.86723C15.3378 4.85936 15.3192 4.84674 15.3043 4.83042C15.2893 4.8141 15.2785 4.79455 15.2726 4.77339C15.2668 4.75223 15.2661 4.73007 15.2707 4.70875C15.2752 4.68744 15.2848 4.66757 15.2987 4.6508L15.3586 4.86723Z" fill="#E9E9E9"/>
<path d="M16.6866 5.15022C16.6124 5.30475 16.5273 5.18794 16.4454 5.15548L16.6866 5.15022Z" fill="#E9E9E9"/>
<path d="M16.3148 4.75476C16.3893 4.68312 16.4541 4.73843 16.52 4.77235C16.4463 4.81976 16.3818 4.78658 16.3148 4.75476Z" fill="#DC968F"/>
<path d="M17.4489 12.9906C17.5008 12.8897 17.5734 12.8655 17.6722 12.9295L17.4489 12.9906Z" fill="#DC968F"/>
<path d="M13.5777 13.3856C13.6401 13.3148 13.7039 13.3476 13.7673 13.3864C13.7046 13.4351 13.6411 13.4051 13.5777 13.3856Z" fill="#DC968F"/>
<path d="M10.4267 15.9802C10.494 16.0096 10.5549 16.0462 10.5432 16.1334C10.4958 16.0897 10.4214 16.0637 10.4267 15.9802Z" fill="#FBD1C5"/>
<path d="M16.0323 5.11708C15.9511 5.17735 15.8824 5.12794 15.8102 5.09074C15.887 5.05111 15.9579 5.08757 16.0323 5.11708Z" fill="#E9E9E9"/>
<path d="M17.1714 5.15068C17.1136 5.22122 17.0476 5.20663 16.9789 5.16775L17.1714 5.15068Z" fill="#E9E9E9"/>
<path d="M16.9927 5.16692C16.9335 5.22445 16.8689 5.20355 16.8062 5.16864L16.9927 5.16692Z" fill="#E9E9E9"/>
<path d="M14.8604 4.25899C14.8268 4.32438 14.7825 4.37552 14.6961 4.33103C14.7519 4.30786 14.807 4.28432 14.8604 4.25899Z" fill="#E9E9E9"/>
<path d="M15.2998 4.66102C15.2436 4.59603 15.2712 4.53369 15.3073 4.47221L15.2998 4.66102Z" fill="#E9E9E9"/>
<path d="M14.1097 13.3954C14.1707 13.3256 14.2348 13.3577 14.2993 13.3926C14.2707 13.4089 14.2384 13.4176 14.2052 13.4181C14.1721 13.4186 14.1392 13.4108 14.1097 13.3954Z" fill="#DC968F"/>
<path d="M13.9326 13.3931C13.9939 13.3243 14.0581 13.3529 14.1222 13.3921C14.0602 13.4411 13.9957 13.4115 13.9326 13.3931Z" fill="#DC968F"/>
<path d="M13.7552 13.3907C13.817 13.3195 13.8807 13.3506 13.9456 13.3901C13.8843 13.4343 13.8187 13.4119 13.7552 13.3907Z" fill="#DC968F"/>
<path d="M16.812 5.16724C16.7722 5.19983 16.7346 5.20224 16.6997 5.15815L16.812 5.16724Z" fill="#E9E9E9"/>
<path d="M16.4714 13.1671L16.5779 13.1601C16.5722 13.1685 16.5646 13.1754 16.5557 13.1804C16.5469 13.1854 16.537 13.1883 16.5268 13.189C16.5165 13.1897 16.5063 13.1881 16.4967 13.1843C16.4871 13.1805 16.4785 13.1746 16.4714 13.1671Z" fill="#DC968F"/>
<path d="M10.6299 9.66058C10.6507 9.67196 10.6663 9.69082 10.6735 9.71318C10.6807 9.73555 10.6788 9.75967 10.6684 9.78045C10.6552 9.7406 10.642 9.70076 10.6299 9.66058Z" fill="#DC968F"/>
<path d="M10.5986 9.55396C10.6184 9.56626 10.6331 9.58523 10.6399 9.60731C10.6466 9.6294 10.645 9.65304 10.6354 9.67379L10.5986 9.55396Z" fill="#DC968F"/>
<path d="M17.8774 12.8721C17.8889 12.8522 17.9076 12.8373 17.9299 12.8304C17.9521 12.8235 17.9762 12.8251 17.9976 12.8348L17.8774 12.8721Z" fill="#DC968F"/>
<path d="M17.9844 12.8401C17.9959 12.8202 18.0145 12.8052 18.0366 12.7982C18.0588 12.7911 18.0829 12.7924 18.1043 12.8017L17.9844 12.8401Z" fill="#DC968F"/>
<path d="M18.0913 12.8081C18.1022 12.7875 18.1208 12.7721 18.1433 12.7652C18.1658 12.7584 18.1902 12.7606 18.2112 12.7715C18.1995 12.7911 18.1808 12.8056 18.1587 12.8124C18.1366 12.8191 18.1126 12.8176 18.0913 12.8081Z" fill="#DC968F"/>
<path d="M18.199 12.7764C18.204 12.766 18.2112 12.7567 18.2199 12.7491C18.2287 12.7415 18.239 12.7359 18.2502 12.7324C18.2614 12.7289 18.2731 12.7278 18.2848 12.729C18.2965 12.7302 18.3079 12.7337 18.3182 12.7394C18.3069 12.7593 18.2884 12.7742 18.2663 12.781C18.2442 12.7879 18.2202 12.7862 18.199 12.7764Z" fill="#DC968F"/>
<path d="M18.305 12.7429C18.3158 12.7223 18.3345 12.7069 18.3569 12.7001C18.3794 12.6932 18.4038 12.6954 18.4249 12.7063C18.4138 12.7266 18.3951 12.7417 18.3727 12.7485C18.3504 12.7554 18.3261 12.7533 18.305 12.7429Z" fill="#DC968F"/>
<path d="M18.4125 12.712C18.4174 12.7014 18.4244 12.6921 18.4332 12.6844C18.4419 12.6767 18.4522 12.6709 18.4633 12.6673C18.4745 12.6636 18.4863 12.6623 18.498 12.6633C18.5098 12.6644 18.5212 12.6677 18.5317 12.6732C18.5208 12.6936 18.5024 12.7089 18.4802 12.7161C18.458 12.7233 18.4338 12.7218 18.4125 12.712Z" fill="#DC968F"/>
<path d="M18.5192 12.6788C18.5241 12.6683 18.5311 12.6589 18.5399 12.6512C18.5486 12.6436 18.5589 12.6377 18.57 12.6341C18.5812 12.6305 18.593 12.6292 18.6047 12.6302C18.6165 12.6312 18.6279 12.6346 18.6384 12.6401C18.6273 12.6603 18.6089 12.6755 18.5868 12.6827C18.5647 12.6899 18.5405 12.6885 18.5192 12.6788Z" fill="#DC968F"/>
<path d="M18.6257 12.6457C18.6306 12.6352 18.6377 12.6258 18.6465 12.6181C18.6553 12.6105 18.6656 12.6047 18.6768 12.6012C18.688 12.5976 18.6999 12.5964 18.7117 12.5976C18.7234 12.5988 18.7349 12.6024 18.7453 12.6081C18.7339 12.6281 18.7153 12.643 18.6932 12.65C18.6711 12.6569 18.647 12.6554 18.6257 12.6457Z" fill="#DC968F"/>
<path d="M18.732 12.6116C18.7427 12.5908 18.7612 12.5752 18.7837 12.568C18.8061 12.5608 18.8306 12.5627 18.8519 12.5732C18.8403 12.593 18.8217 12.6079 18.7996 12.6149C18.7776 12.622 18.7535 12.6208 18.732 12.6116Z" fill="#DC968F"/>
<path d="M18.8383 12.5774C18.8494 12.5571 18.8678 12.5418 18.89 12.5345C18.9121 12.5272 18.9364 12.5285 18.9579 12.538L18.8383 12.5774Z" fill="#DC968F"/>
<path d="M14.7132 4.32922C14.704 4.35088 14.6871 4.36834 14.6657 4.37831C14.6442 4.38827 14.6196 4.39004 14.5967 4.38328L14.7132 4.32922Z" fill="#E9E9E9"/>
<path d="M15.6473 7.03933C15.9167 7.17263 16.0084 7.48905 15.8659 7.78171C15.7105 8.0994 15.3631 8.2066 15.0287 8.02746C14.6729 7.83738 14.8524 7.54261 14.9243 7.31042C15.0135 7.02554 15.3929 6.90841 15.6473 7.03933Z" fill="#575757"/>
<path d="M18.2096 9.01395C18.0844 9.2381 17.6185 9.4312 17.4289 9.33805C17.2393 9.24489 17.1423 8.72256 17.2775 8.48771C17.4299 8.22299 17.7737 8.11748 18.0242 8.25605C18.2747 8.39461 18.3588 8.74846 18.2096 9.01395Z" fill="#575757"/>
<path d="M15.6793 10.0469C15.3752 9.90277 15.0793 9.31415 15.1194 9.05502C15.1336 8.96643 15.1662 8.90313 15.2561 8.8922C15.346 8.88126 15.4179 8.92617 15.4522 9.03359C15.701 9.76952 15.757 9.79833 16.4976 9.57147C16.5847 9.54503 16.6546 9.54671 16.7091 9.61517C16.7366 9.64446 16.7515 9.68318 16.7504 9.72286C16.7493 9.76254 16.7323 9.79993 16.7032 9.82684C16.6226 9.90503 16.5401 10.0306 16.4467 10.0397C16.1914 10.0556 15.9352 10.0581 15.6793 10.0469Z" fill="#DC968F"/>
<path d="M14.2697 8.54298C14.0748 8.4427 13.8825 8.31823 13.9916 8.12188C14.1007 7.92552 14.3532 7.99563 14.5176 8.0855C14.6646 8.16556 14.8562 8.29844 14.7236 8.51788C14.591 8.73732 14.4104 8.6022 14.2697 8.54298Z" fill="#DC968F"/>
<path d="M17.6001 10.2576C17.4435 10.1664 17.2546 10.0912 17.351 9.87072C17.4564 9.63285 17.6776 9.71502 17.8279 9.78882C17.9781 9.86261 18.1797 9.9883 18.0644 10.2158C17.9448 10.4587 17.7632 10.3274 17.6001 10.2576Z" fill="#DC968F"/>
<path d="M15.6769 3.82655L14.6073 4.16938L14.4154 5.41034L17.2607 5.08804L15.6666 4.71442L15.6769 3.82655Z" fill="#E7D5C6"/>
</g>
<g clip-path="url(#clip1_177_1689)">
<path d="M7.37547 2.1252L8.4413 2.18311C9.42703 2.35033 10.3574 2.78014 11.1399 3.42986C12.0596 4.19936 12.7033 5.17821 13.0091 6.34325C13.5104 8.26275 14.0325 10.1806 14.3792 12.1357C14.8047 14.5401 13.4672 17.1129 11.3317 18.0963C8.50261 19.3989 5.33317 18.2097 3.92439 15.314C3.74591 14.944 3.60844 14.5551 3.51466 14.1545C3.15448 12.6348 2.83055 11.1063 2.41193 9.60484C1.6082 6.7241 2.75235 4.05671 5.10535 2.72586C5.25212 2.65755 5.41159 2.64199 5.52792 2.51506L6.28503 2.27021L6.93063 2.15536L7.37547 2.1252ZM4.55206 13.6435L4.53858 13.6349L4.45202 13.5872L4.34505 13.5191L4.26525 13.4656L4.2481 13.4554L3.53669 12.9105C3.78736 14.0263 4.00317 15.065 4.61625 15.9709C4.83088 16.2896 5.00956 16.3945 5.34092 16.1879C5.5282 16.0709 5.75518 16.0205 5.95749 15.9253C6.69088 15.5941 7.38866 15.1864 8.04011 14.7086L7.50487 14.6684L7.50775 14.6804L7.32518 14.6474C6.39651 14.4372 5.48153 14.1823 4.64072 13.6965L4.55206 13.6435ZM11.6569 10.9327L11.6488 10.9465L11.7165 10.8346L11.7088 10.85L11.7769 10.7364L11.768 10.7537L11.8377 10.6397L11.8348 10.6548C11.8679 10.6315 11.8938 10.5988 11.9095 10.5606C11.9251 10.5224 11.9299 10.4803 11.9232 10.439L11.9883 10.3329L12.0249 10.2547L12.7341 9.03134C13.0587 8.56935 13.223 8.09604 13.0174 7.4962C12.8264 6.95034 12.7546 6.36056 12.5167 5.82343C11.3375 2.72533 7.19272 1.27127 4.61637 3.49801C4.5217 3.49121 4.43435 3.50125 4.39805 3.60807L4.40674 3.59668L4.26206 3.72451L4.26998 3.71331L4.12915 3.8436L4.13456 3.83553L3.92429 4.0468L3.92294 4.04121C3.35116 4.60162 2.97366 5.28436 2.72474 6.05029C2.45998 6.8623 2.35218 7.69572 2.52065 8.55139C2.80386 9.76837 3.08731 10.9853 3.37104 12.2021C3.39028 12.2821 3.40952 12.362 3.50264 12.3894C4.21237 13.1782 5.10987 13.6419 6.07783 13.9677L6.07088 13.9627C6.74288 14.2228 7.44914 14.371 8.16289 14.4017C8.40062 14.413 8.56165 14.3632 8.6784 14.1702L8.67318 14.1791C8.81936 14.1418 8.94676 14.0511 9.03195 13.9236L9.02635 13.9309L9.16853 13.8062L9.16041 13.8166L9.30008 13.6883L9.29506 13.6945L9.37724 13.6088L9.3998 13.6177L9.97275 13.0385L9.96986 13.0501L10.0989 12.9083L10.0951 12.916C10.1318 12.9011 10.1616 12.8724 10.1786 12.8356C10.1956 12.7988 10.1985 12.7566 10.1867 12.7172L10.2704 12.6785C10.3321 12.6839 10.32 12.6302 10.332 12.5952C10.3885 12.5655 10.4668 12.5686 10.4828 12.4827L10.4767 12.491L10.5301 12.3741L10.5238 12.385C10.5762 12.3487 10.657 12.3487 10.6696 12.2653L10.6648 12.2724L10.7419 12.1693L10.7396 12.1833L10.9221 11.9517L10.9161 11.9607L10.9926 11.8578L10.9893 11.8713C11.0267 11.8541 11.0564 11.8232 11.0729 11.7844C11.0893 11.7457 11.0912 11.7019 11.0783 11.6613L11.2795 11.4328C11.4467 11.3511 11.5112 11.1817 11.5967 11.0317L11.5907 11.0408L11.6569 10.9327ZM7.72217 18.1367C7.88393 18.2185 8.06334 18.2542 8.24156 18.24C8.46142 18.283 8.68355 18.3112 8.90653 18.3242C10.9729 18.3179 12.5026 17.3468 13.5225 15.543C14.0552 14.6019 14.2663 13.4995 14.1228 12.4096C13.984 11.25 13.6126 10.1414 13.3652 9.00539C13.3435 8.91508 13.3808 8.78181 13.247 8.73455C12.7071 9.85123 12.1114 10.9222 11.3631 11.8988C10.3774 13.1837 9.25773 14.3157 7.90316 15.1838C7.25587 15.5933 6.58354 15.9631 5.92296 16.3513C5.63934 16.3224 5.43369 16.5257 5.11089 16.5815C5.88541 17.3817 6.72079 17.9196 7.73082 18.149L7.72217 18.1367Z" fill="#71ACAB"/>
<path d="M5.91972 16.3484C6.58031 15.9603 7.25322 15.5928 7.89993 15.1809C9.25546 14.3168 10.3751 13.1848 11.3599 11.8959C12.1081 10.9193 12.7039 9.84835 13.2437 8.73167C13.3775 8.77894 13.3426 8.91164 13.362 9.00251C13.6094 10.1385 13.9839 11.2464 14.1196 12.4067C14.2631 13.4966 14.0519 14.599 13.5193 15.5401C12.4994 17.3439 10.9697 18.3151 8.90329 18.3213C8.68032 18.3083 8.45819 18.2802 8.23833 18.2371C8.10097 18.0055 7.90889 18.0687 7.71893 18.1338L7.72607 18.1397C7.65215 17.9039 7.4254 17.9077 7.25904 17.8201C6.64433 17.487 6.03655 17.1489 5.59262 16.5219C5.71658 16.4995 5.83056 16.4391 5.91972 16.3484Z" fill="#A0D1CA"/>
<path d="M10.2716 12.6805L10.1865 12.717C10.0843 12.7501 10.0378 12.8112 10.0877 12.9234L10.0916 12.9158C10.0075 12.9225 9.94503 12.951 9.96252 13.0576L9.96542 13.0459C9.70102 13.1611 9.42312 13.261 9.39247 13.6252L9.36973 13.6154C9.35858 13.6149 9.34748 13.6167 9.33714 13.6209C9.32681 13.625 9.31747 13.6314 9.30974 13.6396C9.30201 13.6477 9.29606 13.6575 9.29226 13.6682C9.28847 13.679 9.28693 13.6905 9.28774 13.702L9.29274 13.6957C9.21985 13.7082 9.15025 13.7241 9.15309 13.824L9.16118 13.8136C9.08887 13.8251 9.01773 13.838 9.01903 13.9383L9.02442 13.9303C8.86707 13.9546 8.69142 13.9639 8.66566 14.1857L8.67088 14.1769C8.25588 14.314 7.84078 14.2304 7.41874 14.1824C6.96295 14.1298 6.53059 13.883 6.06182 13.9697L6.06876 13.9748C6.06569 13.9124 6.04154 13.8528 6.00052 13.8063C5.9595 13.7597 5.90421 13.7293 5.84426 13.7202C5.46293 13.6243 5.14722 13.3807 4.79946 13.2176C4.2015 12.9303 3.75592 12.5303 3.66124 11.7744C3.58212 11.1407 3.36031 10.5245 3.22739 9.89444C3.06428 9.12541 2.85179 8.37841 2.85471 7.56349C2.85782 6.35959 3.29197 5.35629 3.83813 4.36746C3.89429 4.26178 4.00114 4.18363 3.91618 4.04429L3.91753 4.04988C4.05693 4.05267 4.17783 4.03625 4.1278 3.83861L4.12241 3.84667C4.20147 3.83609 4.26606 3.81631 4.26322 3.71638L4.25531 3.72759C4.33476 3.71861 4.40186 3.70245 4.39998 3.59975L4.39131 3.61114C4.47866 3.6011 4.57178 3.60489 4.60963 3.50108C7.18501 1.27035 11.3307 2.72841 12.51 5.82651C12.4628 6.10505 12.588 6.34716 12.6657 6.60238C12.8715 7.27405 13.2466 7.94046 12.7646 8.64329C12.7279 8.69975 12.7055 8.76505 12.6997 8.83321C12.6939 8.90137 12.7047 8.97023 12.7312 9.03349L12.022 10.2569L11.9854 10.3351L11.923 10.4388C11.821 10.4761 11.7768 10.54 11.8346 10.6512L11.8375 10.6361C11.8256 10.6387 11.8142 10.6437 11.8042 10.6508C11.7942 10.6579 11.7858 10.6671 11.7793 10.6777C11.7728 10.6883 11.7684 10.7002 11.7665 10.7126C11.7645 10.725 11.765 10.7378 11.7678 10.7501L11.7767 10.7328C11.7533 10.7389 11.7331 10.754 11.7204 10.7752C11.7078 10.7963 11.7035 10.8218 11.7086 10.8464L11.7163 10.831C11.6932 10.837 11.6733 10.8519 11.6607 10.8727C11.6481 10.8935 11.6438 10.9186 11.6486 10.9429L11.6567 10.9291C11.6339 10.9349 11.6141 10.9493 11.6012 10.9694C11.5882 10.9895 11.5831 11.014 11.5867 11.0381L11.5926 11.0291C11.4027 11.0909 11.2478 11.1831 11.2754 11.4301L11.0742 11.6587C10.9683 11.6934 10.9296 11.7594 10.9852 11.8686L10.9885 11.8551C10.9656 11.8593 10.945 11.8721 10.9309 11.8912C10.9168 11.9102 10.9101 11.934 10.9121 11.9581L10.9181 11.949C10.787 11.9671 10.6578 11.9864 10.7356 12.1807L10.7379 12.1666C10.726 12.1677 10.7146 12.1713 10.7042 12.1771C10.6938 12.183 10.6847 12.191 10.6775 12.2006C10.6702 12.2103 10.665 12.2214 10.6621 12.2333C10.6593 12.2452 10.6588 12.2576 10.6607 12.2697L10.6655 12.2627C10.5896 12.2691 10.5261 12.2903 10.5197 12.3823L10.5261 12.3715L10.4726 12.4884L10.4788 12.4801C10.4034 12.4822 10.3374 12.4964 10.3279 12.5925L10.2716 12.6805ZM9.50242 11.6245C9.82693 11.6165 10.042 11.3846 10.2897 11.21C11.9703 10.0216 12.6871 7.74542 11.7644 5.73292C11.0485 4.17284 9.84887 3.26781 8.16878 3.08891C7.52289 3.01951 6.90448 3.14896 6.2949 3.32531C4.59249 3.81973 3.49385 4.94412 3.17749 6.75188C2.79442 8.94349 3.79298 10.5048 5.24227 11.4504C5.98205 11.9335 6.88254 12.2265 7.81699 12.0607C8.42085 12.1385 8.96201 11.922 9.50181 11.6999C9.51068 11.696 9.50222 11.6507 9.50242 11.6245Z" fill="#A0D1CA"/>
<path d="M4.63787 13.6953C5.47868 14.1811 6.39363 14.436 7.32231 14.6461C7.37144 14.7281 7.43605 14.7151 7.5049 14.6791L7.50201 14.6671C7.6454 14.8017 7.59927 14.888 7.44786 14.9812C6.81541 15.3549 6.16293 15.6921 5.49338 15.9911C5.2498 16.1047 5.12391 16.0564 5.00524 15.855C4.61898 15.1997 4.2898 14.5206 4.15155 13.7599C4.12867 13.6344 4.09268 13.5154 4.24541 13.4549L4.2616 13.4646L4.34237 13.5187L4.44933 13.5868L4.5359 13.6344L4.54938 13.643L4.63787 13.6953Z" fill="#A0D1CA"/>
<path d="M3.91719 4.04826C4.00215 4.1876 3.89684 4.26538 3.83913 4.37143C3.29316 5.36107 2.85902 6.36436 2.85571 7.56746C2.85318 8.38398 3.06837 9.12864 3.2284 9.89841C3.36132 10.5284 3.58313 11.1447 3.66225 11.7784C3.75693 12.5343 4.2025 12.9343 4.80047 13.2215C5.14976 13.3911 5.46393 13.6283 5.84527 13.7242C5.90522 13.7333 5.96051 13.7637 6.00153 13.8102C6.04255 13.8567 6.0667 13.9164 6.06977 13.9787C5.09796 13.6538 4.2043 13.1892 3.49456 12.4004C3.20979 11.2176 2.92657 10.0345 2.64489 8.85096C2.61988 8.74707 2.6155 8.6306 2.51257 8.56238C2.34314 7.70271 2.45096 6.86929 2.71668 6.06128C2.9685 5.29381 3.34483 4.60628 3.91719 4.04826Z" fill="#E9E9E9"/>
<path d="M4.24801 13.4552C4.09527 13.5156 4.12817 13.6354 4.15414 13.7602C4.29239 14.5208 4.62157 15.2 5.00783 15.8552C5.12631 16.0558 5.2522 16.1042 5.49597 15.9914C6.16552 15.6923 6.818 15.3551 7.45045 14.9814C7.60186 14.8883 7.64855 14.8043 7.50459 14.6673L8.03983 14.7076C7.38838 15.1854 6.6906 15.593 5.95721 15.9243C5.7549 16.0195 5.52792 16.0699 5.34064 16.1869C5.00928 16.3935 4.8306 16.2885 4.61597 15.9699C4.00289 15.064 3.78708 14.0252 3.53641 12.9095L4.24801 13.4552Z" fill="#E9E9E9"/>
<path d="M5.91963 16.3484C5.83123 16.4404 5.71756 16.5022 5.59349 16.5259C6.03819 17.1527 6.64211 17.4918 7.25991 17.8241C7.42395 17.9123 7.65321 17.9087 7.72694 18.1438C6.71748 17.9167 5.8821 17.3789 5.10701 16.5762C5.4327 16.5223 5.63833 16.3189 5.91963 16.3484Z" fill="#E9E9E9"/>
<path d="M12.7341 9.03451C12.7076 8.97125 12.6967 8.90239 12.7025 8.83423C12.7084 8.76607 12.7307 8.70078 12.7674 8.64432C13.251 7.94112 12.8744 7.27507 12.6686 6.6034C12.5908 6.34818 12.4672 6.1057 12.5128 5.82753C12.7501 6.36225 12.8221 6.95283 13.0135 7.5003C13.2224 8.09681 13.0586 8.57252 12.7341 9.03451Z" fill="#E9E9E9"/>
<path d="M6.06616 13.9737C6.53494 13.887 6.96729 14.1338 7.42308 14.1864C7.84281 14.235 8.2602 14.318 8.6752 14.1809C8.55402 14.3792 8.39589 14.424 8.1597 14.4124C7.44544 14.382 6.73867 14.2339 6.06616 13.9737Z" fill="#E9E9E9"/>
<path d="M2.51559 8.56087C2.61852 8.62909 2.6229 8.74556 2.64791 8.84945C2.93268 10.0322 3.2159 11.2154 3.49758 12.3989C3.40929 12.3711 3.38406 12.2901 3.36598 12.2116C3.08251 10.9958 2.79906 9.77891 2.51559 8.56087Z" fill="#FDFDFD"/>
<path d="M9.39609 13.6268C9.42751 13.2658 9.70465 13.1628 9.96906 13.0475L9.39609 13.6268Z" fill="#E9E9E9"/>
<path d="M11.2755 11.4335C11.2479 11.1865 11.4028 11.0942 11.5927 11.0324C11.5072 11.1824 11.4428 11.3518 11.2755 11.4335Z" fill="#E9E9E9"/>
<path d="M7.72219 18.1373C7.91215 18.0722 8.0996 18.0101 8.24158 18.2406C8.06336 18.2548 7.88395 18.2191 7.72219 18.1373Z" fill="#E9E9E9"/>
<path d="M8.67008 14.1898C8.69758 13.965 8.86705 13.9572 9.02884 13.9343C8.94385 14.062 8.81639 14.1527 8.67008 14.1898Z" fill="#E9E9E9"/>
<path d="M4.12818 3.8428C4.17589 4.04099 4.05731 4.05686 3.91791 4.05407L4.12818 3.8428Z" fill="#E9E9E9"/>
<path d="M10.7367 12.1881C10.6589 11.9937 10.7881 11.9745 10.9192 11.9564L10.7367 12.1881Z" fill="#E9E9E9"/>
<path d="M10.0893 12.9256C10.0394 12.8133 10.0859 12.7523 10.1881 12.7192C10.2017 12.7606 10.1989 12.8055 10.1804 12.8442C10.1618 12.8829 10.1291 12.9122 10.0893 12.9256Z" fill="#E9E9E9"/>
<path d="M10.9854 11.872C10.9297 11.7628 10.9685 11.6968 11.0744 11.662C11.0873 11.7026 11.0854 11.7464 11.0689 11.7852C11.0525 11.8239 11.0228 11.8548 10.9854 11.872Z" fill="#E9E9E9"/>
<path d="M11.8347 10.6546C11.7769 10.5434 11.8211 10.4795 11.9231 10.4422C11.9291 10.4829 11.924 10.5244 11.9084 10.5619C11.8927 10.5994 11.8672 10.6315 11.8347 10.6546Z" fill="#E9E9E9"/>
<path d="M4.61285 3.50453C4.57192 3.60908 4.47879 3.60529 4.39452 3.61459C4.43083 3.50777 4.51818 3.49773 4.61285 3.50453Z" fill="#E9E9E9"/>
<path d="M9.96615 13.0592C9.94615 12.9524 10.0088 12.9247 10.0952 12.9174L9.96615 13.0592Z" fill="#E9E9E9"/>
<path d="M4.40192 3.60357C4.40379 3.70627 4.33361 3.72317 4.25725 3.7314L4.40192 3.60357Z" fill="#E9E9E9"/>
<path d="M9.15672 13.8257C9.15388 13.7257 9.22348 13.7098 9.29637 13.6974L9.15672 13.8257Z" fill="#E9E9E9"/>
<path d="M9.02264 13.94C9.02134 13.8397 9.0925 13.8268 9.16481 13.8153L9.02264 13.94Z" fill="#E9E9E9"/>
<path d="M4.26652 3.71979C4.26936 3.81972 4.20167 3.84024 4.12569 3.85008L4.26652 3.71979Z" fill="#E9E9E9"/>
<path d="M7.50485 14.6791C7.436 14.7151 7.37139 14.7281 7.32227 14.6461L7.50485 14.6791Z" fill="#E9E9E9"/>
<path d="M10.5213 12.3921C10.5272 12.2977 10.5906 12.2765 10.6671 12.2724C10.6546 12.3558 10.5738 12.3558 10.5213 12.3921Z" fill="#E9E9E9"/>
<path d="M10.3295 12.6023C10.339 12.5061 10.405 12.4919 10.4804 12.4898C10.4643 12.5757 10.386 12.5726 10.3295 12.6023Z" fill="#E9E9E9"/>
<path d="M11.7677 10.7525C11.7649 10.7403 11.7644 10.7277 11.7664 10.7154C11.7683 10.7031 11.7726 10.6913 11.7791 10.6808C11.7855 10.6703 11.7939 10.6613 11.8037 10.6542C11.8136 10.6472 11.8248 10.6422 11.8367 10.6397L11.7677 10.7525Z" fill="#E9E9E9"/>
<path d="M11.7084 10.8488C11.7034 10.8245 11.7076 10.7992 11.7201 10.7783C11.7327 10.7574 11.7526 10.7424 11.7758 10.7364L11.7084 10.8488Z" fill="#E9E9E9"/>
<path d="M11.6485 10.9453C11.6437 10.9213 11.648 10.8964 11.6605 10.8759C11.6729 10.8553 11.6926 10.8406 11.7155 10.8346L11.6485 10.9453Z" fill="#E9E9E9"/>
<path d="M11.5864 11.0406C11.5829 11.0167 11.588 10.9925 11.6008 10.9726C11.6136 10.9527 11.6331 10.9385 11.6557 10.9327L11.5864 11.0406Z" fill="#E9E9E9"/>
<path d="M10.9129 11.9646C10.9109 11.9407 10.9175 11.9172 10.9315 11.8984C10.9454 11.8796 10.9657 11.8669 10.9884 11.8627L10.9129 11.9646Z" fill="#E9E9E9"/>
<path d="M10.6616 12.2762C10.6597 12.2642 10.6601 12.2519 10.663 12.2402C10.6658 12.2284 10.671 12.2174 10.6781 12.2079C10.6853 12.1983 10.6943 12.1904 10.7045 12.1846C10.7148 12.1789 10.7262 12.1753 10.7379 12.1742L10.6616 12.2762Z" fill="#E9E9E9"/>
<path d="M10.2715 12.6797L10.3324 12.5974C10.3206 12.632 10.3325 12.6851 10.2715 12.6797Z" fill="#E9E9E9"/>
<path d="M9.2914 13.7029C9.29061 13.6915 9.29213 13.6801 9.29588 13.6695C9.29963 13.6589 9.30552 13.6492 9.31317 13.6411C9.32081 13.6331 9.33005 13.6268 9.34026 13.6227C9.35048 13.6186 9.36145 13.6167 9.37247 13.6173L9.2914 13.7029Z" fill="#E9E9E9"/>
<path d="M7.81716 12.0607C6.8827 12.2265 5.98221 11.9335 5.24244 11.4504C3.79084 10.5054 2.79459 8.94351 3.17766 6.75189C3.49401 4.94414 4.59324 3.81877 6.29507 3.32533C6.90541 3.14879 7.52305 3.01953 8.16895 3.08893C9.84903 3.26783 11.0483 4.17126 11.7646 5.73293C12.6873 7.74543 11.9704 10.0216 10.2899 11.21C10.0422 11.3847 9.83095 11.6156 9.50259 11.6245C8.97067 11.8861 8.39237 11.9653 7.81716 12.0607ZM6.72318 11.6181C6.77964 11.6764 6.84655 11.6594 6.9125 11.6486C7.525 11.7996 8.11488 11.6703 8.70535 11.5298C11.186 10.9393 12.4647 8.36974 11.4922 5.92702C10.7599 4.0885 8.64543 3.02071 6.79511 3.55498C6.6061 3.6154 6.43848 3.73027 6.31176 3.88621C6.18504 4.04216 6.10444 4.23276 6.07933 4.43584C6.03786 4.85335 6.28425 5.28696 6.67959 5.51222C7.05817 5.72884 7.41245 5.56322 7.72181 5.3839C7.96946 5.23972 8.07064 4.94142 7.99039 4.63184C7.89648 4.26552 7.64598 4.35373 7.39009 4.40942C7.1126 4.47031 7.14548 4.63741 7.22289 4.83015C7.2695 4.94576 7.34984 5.08283 7.18303 5.13229C7.05518 5.17068 6.97213 5.0461 6.92534 4.92631C6.79555 4.59061 6.85758 4.30596 7.14305 4.09518C7.28011 3.99932 7.44539 3.95482 7.61186 3.96895C7.77832 3.98309 7.93612 4.05503 8.05946 4.17301C8.38631 4.49002 8.40552 5.01383 8.10529 5.43784C7.94437 5.66373 7.71415 5.82653 7.45109 5.90043C7.18802 5.97433 6.90716 5.95512 6.653 5.84583C6.09994 5.60612 5.69844 4.98242 5.7714 4.45164C5.79907 4.25474 5.86163 4.06381 5.90897 3.86725C4.86653 4.04551 3.60299 5.63742 3.43838 7.05522C3.23679 8.78377 4.11769 10.4563 5.67695 11.2688C5.71162 11.345 5.77873 11.3289 5.84062 11.3351L5.83445 11.3298C5.95299 11.4053 6.05801 11.5161 6.21517 11.4842L6.20861 11.4807L6.38617 11.5403L6.37403 11.5339L6.5566 11.5906L6.54522 11.584L6.73261 11.6234L6.72318 11.6181Z" fill="#71ACAB"/>
<path d="M7.81699 12.0607C8.39162 11.9629 8.9705 11.8861 9.50241 11.6245C9.50221 11.6507 9.51086 11.6968 9.5018 11.6999C8.962 11.922 8.42084 12.1385 7.81699 12.0607Z" fill="#E9E9E9"/>
<path d="M5.67558 11.2666C4.12036 10.4573 3.23851 8.7808 3.43701 7.05299C3.60162 5.63519 4.86515 4.04328 5.9076 3.86501C5.86026 4.06158 5.7977 4.25251 5.77002 4.44941C5.69726 4.98099 6.09876 5.60469 6.65163 5.84361C6.90579 5.95289 7.18665 5.9721 7.44972 5.8982C7.71278 5.8243 7.943 5.6615 8.10392 5.43561C8.40415 5.0116 8.38493 4.48778 8.05808 4.17078C7.93475 4.0528 7.77695 3.98086 7.61048 3.96672C7.44402 3.95258 7.27874 3.99709 7.14168 4.09295C6.85929 4.30298 6.79418 4.58838 6.92397 4.92408C6.97076 5.04387 7.0538 5.16845 7.18166 5.13006C7.34847 5.0806 7.26736 4.94033 7.22152 4.82792C7.14353 4.63278 7.11122 4.46808 7.38871 4.40719C7.64461 4.3515 7.89511 4.26329 7.98902 4.62961C8.06927 4.93919 7.96808 5.23749 7.72044 5.38166C7.41107 5.56099 7.06065 5.72568 6.67822 5.50999C6.28133 5.2851 6.03649 4.85112 6.07796 4.4336C6.10307 4.23053 6.18367 4.03993 6.31039 3.88398C6.43711 3.72804 6.60473 3.61317 6.79373 3.55274C8.64405 3.01848 10.7577 4.08646 11.4908 5.92479C12.4633 8.36751 11.1846 10.9371 8.70398 11.5276C8.1139 11.6696 7.52362 11.7974 6.91113 11.6464C6.85641 11.575 6.79007 11.591 6.7218 11.6159L6.73375 11.6215C6.68482 11.5335 6.61714 11.5472 6.54636 11.582L6.55774 11.5886C6.51729 11.4952 6.44845 11.5041 6.37517 11.5319L6.3873 11.5383C6.34685 11.4516 6.27859 11.4596 6.20975 11.4787L6.21631 11.4822C6.15318 11.2573 6.0105 11.2477 5.83558 11.3279L5.84175 11.3331C5.81365 11.2334 5.79848 11.0992 5.67558 11.2666ZM5.89306 8.21778C5.9623 8.54946 6.23059 8.75881 6.5181 8.70565C6.80562 8.65249 6.98664 8.34681 6.93049 8.02889C6.87435 7.71097 6.55674 7.456 6.26999 7.51573C6.00002 7.57397 5.82709 7.89631 5.89422 8.2192L5.89306 8.21778ZM9.47443 7.37921C9.39746 7.05953 9.11125 6.84351 8.83511 6.89984C8.55897 6.95618 8.38565 7.27354 8.45413 7.59526C8.52972 7.95331 8.80555 8.15661 9.11042 8.08067C9.39332 8.01172 9.55177 7.70724 9.47327 7.38117L9.47443 7.37921ZM8.89668 9.05374C8.87573 8.9328 8.81906 8.89064 8.75274 8.88294C8.61507 8.86704 8.60133 8.97604 8.55577 9.0817C8.35307 9.57862 7.90511 9.69408 7.50963 9.35978C7.42058 9.28483 7.34218 9.13545 7.22026 9.26627C7.07981 9.41845 7.21047 9.5375 7.31801 9.64181C7.79325 10.1006 8.61975 9.91011 8.84315 9.28899C8.86731 9.21235 8.88522 9.13366 8.89668 9.05374ZM9.73601 8.25558C9.56591 8.33204 9.3482 8.40052 9.39166 8.63187C9.43512 8.86322 9.64354 8.87477 9.84197 8.83122C10.0404 8.78768 10.2606 8.69914 10.2056 8.4469C10.1512 8.21058 9.91805 8.24896 9.73275 8.25214L9.73601 8.25558ZM6.20775 9.70112C6.40503 9.64264 6.5977 9.54805 6.54402 9.3217C6.49034 9.09535 6.26804 9.077 6.08696 9.14173C5.90587 9.20647 5.6658 9.2499 5.75281 9.53672C5.82826 9.78573 6.03922 9.72648 6.20775 9.70112Z" fill="#E7D5C6"/>
<path d="M5.83429 11.329C6.00921 11.2489 6.15189 11.2585 6.21502 11.4834C6.06114 11.512 5.95361 11.4043 5.83429 11.329Z" fill="#E9E9E9"/>
<path d="M5.67546 11.2666C5.79798 11.0976 5.81277 11.2335 5.83913 11.3329C5.77801 11.3264 5.7109 11.3426 5.67546 11.2666Z" fill="#E9E9E9"/>
<path d="M6.20752 11.4767C6.27925 11.4594 6.34694 11.449 6.38507 11.5362L6.20752 11.4767Z" fill="#E9E9E9"/>
<path d="M6.37595 11.5325C6.45078 11.5044 6.51866 11.4982 6.55852 11.5892L6.37595 11.5325Z" fill="#E9E9E9"/>
<path d="M6.54735 11.5826C6.62082 11.5489 6.68619 11.5357 6.73474 11.6221L6.54735 11.5826Z" fill="#E9E9E9"/>
<path d="M6.72306 11.6181C6.79114 11.5924 6.85766 11.5772 6.91239 11.6486C6.84682 11.661 6.77972 11.6772 6.72306 11.6181Z" fill="#E9E9E9"/>
<path d="M5.89414 8.2192C5.8272 7.89711 5.99994 7.57397 6.27107 7.51715C6.55781 7.45741 6.87408 7.7034 6.93157 8.0303C6.98906 8.3572 6.80014 8.6538 6.51918 8.70707C6.23823 8.76034 5.96338 8.55087 5.89414 8.2192Z" fill="#575757"/>
<path d="M9.47325 7.38116C9.55175 7.70723 9.39098 8.01227 9.10925 8.08264C8.80071 8.15692 8.52857 7.95527 8.45297 7.59722C8.38449 7.2755 8.55857 6.95796 8.83393 6.90181C9.1093 6.84565 9.40111 7.06118 9.47325 7.38116ZM8.7686 7.22699C8.73844 7.24461 8.71551 7.27283 8.70391 7.3066C8.69231 7.34038 8.69278 7.3775 8.70526 7.41134C8.70997 7.43129 8.7186 7.45009 8.73062 7.46655C8.74265 7.48302 8.7578 7.4968 8.77513 7.50702C8.79246 7.51724 8.8116 7.52369 8.83134 7.52597C8.85107 7.52824 8.87099 7.52629 8.88983 7.52024C8.90866 7.51418 8.92602 7.50415 8.94081 7.49078C8.9556 7.47741 8.96752 7.46098 8.97579 7.44253C8.98407 7.42408 8.98852 7.404 8.98889 7.38355C8.98926 7.3631 8.98554 7.34273 8.97795 7.32371C8.95331 7.23156 8.89298 7.19451 8.77034 7.22404L8.7686 7.22699Z" fill="#575757"/>
<path d="M8.89665 9.05375C8.88591 9.13341 8.86877 9.21191 8.84543 9.28845C8.62203 9.90957 7.79553 10.1001 7.32029 9.64127C7.21352 9.53677 7.08209 9.41791 7.22254 9.26572C7.34446 9.13491 7.42285 9.28429 7.51189 9.35924C7.90737 9.69354 8.35554 9.57887 8.55805 9.08116C8.6013 8.97605 8.61504 8.86705 8.75502 8.88239C8.81575 8.88722 8.87242 8.92938 8.89665 9.05375Z" fill="#DC968F"/>
<path d="M9.73263 8.2521C9.91793 8.24892 10.1511 8.21055 10.2022 8.44342C10.2572 8.69566 10.047 8.78179 9.83857 8.82775C9.63012 8.87371 9.43269 8.86036 9.38826 8.6284C9.34384 8.39644 9.56253 8.32857 9.73263 8.2521Z" fill="#DC968F"/>
<path d="M6.20774 9.70113C6.03574 9.72563 5.82787 9.78413 5.75279 9.53672C5.66579 9.2499 5.91705 9.20209 6.08695 9.14174C6.25685 9.08138 6.4909 9.09436 6.544 9.3217C6.59711 9.54904 6.4054 9.64424 6.20774 9.70113Z" fill="#DC968F"/>
<path d="M8.77022 7.22405C8.89133 7.18812 8.9526 7.22918 8.97897 7.31837C8.98657 7.33739 8.99031 7.35776 8.98994 7.37821C8.98957 7.39866 8.98511 7.41874 8.97684 7.43719C8.96857 7.45564 8.95665 7.47207 8.94186 7.48544C8.92706 7.49881 8.90971 7.50884 8.89087 7.5149C8.87203 7.52095 8.85212 7.5229 8.83238 7.52063C8.81265 7.51835 8.79351 7.5119 8.77618 7.50167C8.75885 7.49145 8.7437 7.47768 8.73167 7.46121C8.71964 7.44475 8.71101 7.42595 8.7063 7.406C8.6945 7.3724 8.69442 7.33578 8.7061 7.30253C8.71778 7.26928 8.74048 7.2415 8.77022 7.22405Z" fill="#575757"/>
</g>
<defs>
<clipPath id="clip0_177_1689">
<rect width="11.1186" height="15.8837" fill="white" transform="translate(14.1135 0.789307) rotate(27.2275)"/>
</clipPath>
<clipPath id="clip1_177_1689">
<rect width="11.1186" height="16.6779" fill="white" transform="translate(0.951416 3.55579) rotate(-13.5369)"/>
</clipPath>
</defs>
</svg>
