<svg width="21" height="27" viewBox="0 0 21 27" fill="none" xmlns="http://www.w3.org/2000/svg">
<g clip-path="url(#clip0_187_16)">
<path d="M5.45296 22.1647L3.51091 22.6203C3.77738 21.5419 3.74756 21.6233 2.73923 21.5639C2.27238 21.5353 1.90783 21.729 1.49213 21.784C0.88458 21.8478 0.456081 22.3452 0.0915494 22.8316C-0.226083 23.2542 0.383615 23.2872 0.426251 23.5689C0.43623 23.6543 0.439804 23.7404 0.43692 23.8264C0.43692 24.5372 0.756674 25.1601 1.01249 25.7851C1.43884 26.8349 2.15296 27.1299 3.1762 26.6655C3.69121 26.4444 4.24805 26.3466 4.8049 26.3794C5.77912 26.4036 6.75546 26.4366 7.73181 26.463C9.22404 27.2267 10.7824 27.0308 12.3386 26.8349C12.6519 26.7953 13.0079 26.7733 13.2232 26.452C13.4748 26.452 13.7263 26.43 13.9779 26.452C15.4083 26.5312 16.8557 26.1505 18.2712 26.7887C18.947 27.0946 19.5503 26.7359 19.934 26.0206C20.435 25.1007 20.3923 23.9848 20.9786 23.1001C21.0553 22.9813 20.9104 22.8536 20.8293 22.7326C20.0747 21.6189 18.8895 21.6145 17.7724 21.4957C17.474 21.4627 17.248 21.7378 17.3823 22.1669C17.4356 22.343 17.7255 22.5257 17.4932 22.7502C16.8749 22.4288 16.2141 22.3276 15.5639 22.1955C15.5085 21.7356 15.6428 21.2272 15.2377 20.8596C15.1759 20.0563 14.6984 19.3388 14.7176 18.4651C15.6854 18.7996 16.5765 19.1254 17.474 19.4115C17.9707 19.5743 18.3586 19.7724 18.0985 20.4305C18.0389 20.5801 18.0176 20.7914 18.2201 20.8706C18.3437 20.9213 18.5335 20.9279 18.5718 20.7584C18.7275 20.0849 18.8937 20.4151 19.077 20.7364C19.19 20.9345 19.303 21.1766 19.5823 20.9829C19.8616 20.7892 19.6782 20.5867 19.5482 20.3975L19.5183 20.4085C19.7123 20.1378 20.0768 20.6109 20.2346 20.2478C20.4478 19.7768 19.74 19.9727 19.772 19.5677C20.9594 19.5677 19.8701 18.9889 19.9212 18.6874C19.9873 18.2934 19.578 18.4849 19.384 18.6126C18.8489 18.9691 18.5547 18.7028 18.2073 18.267C17.1073 16.8893 15.7814 15.8153 14.0866 15.3135C13.5792 15.1638 13.2339 14.8931 13.091 14.3341C15.1716 13.3481 16.5722 11.7547 17.1755 9.47905C17.2757 9.0983 17.5358 9.12031 17.7554 8.99266C18.3949 8.61632 18.4865 7.78659 17.8427 7.48508C17.4292 7.2936 17.4356 7.04491 17.3802 6.71919C16.7513 3.1098 14.2486 0.636045 11.0403 0.44017C10.1343 -0.149657 9.68876 -0.134254 9.32209 0.49959C6.12445 1.21266 4.15046 3.36069 3.6431 6.68617C3.62955 6.80738 3.5837 6.92236 3.5107 7.01832C3.43769 7.11428 3.34036 7.18747 3.2295 7.22978C2.51749 7.62813 2.558 8.42264 3.28919 8.82539C3.48532 8.93324 3.69427 8.98166 3.75396 9.25016C4.28903 11.6711 5.76207 13.2997 7.90876 14.3649C7.69558 14.6907 7.65295 15.067 7.22021 15.188C5.31867 15.7207 3.82855 16.8915 2.61344 18.4607C2.37682 18.7666 2.09969 18.9427 1.76074 18.6698C1.15532 18.19 0.974097 18.6566 0.782239 19.11C0.59038 19.5633 0.873938 20.3094 1.29603 20.3666L1.28322 20.3424C1.44524 20.5383 1.12118 20.9103 1.46866 21.0027C1.96749 21.1413 1.84813 20.4173 2.23612 20.3644C2.37042 20.5845 2.35336 21.0093 2.77119 20.8376C3.0803 20.71 2.89058 20.4657 2.83729 20.2522C2.74989 19.9023 2.83728 19.6294 3.20608 19.5039C4.22506 19.1606 5.24192 18.8062 6.3547 18.4255C6.14152 19.2816 5.95392 20.0211 5.76633 20.7628C5.35703 21.1545 5.39541 21.6585 5.45296 22.1647Z" fill="#575757"/>
<path d="M11.0404 0.429165C14.2381 0.62504 16.7514 3.09879 17.3803 6.70818C17.4357 7.03611 17.4293 7.28261 17.8429 7.47408C18.4824 7.7756 18.4014 8.60532 17.7555 8.98166C17.5423 9.10931 17.2758 9.0873 17.1756 9.46805C16.5723 11.7437 15.1717 13.3371 13.0911 14.3231C13.2297 14.8821 13.5794 15.1528 14.0867 15.3025C15.7815 15.8043 17.1074 16.8783 18.2074 18.256C18.5549 18.6962 18.8469 18.9581 19.3841 18.6016C19.5781 18.4739 19.9874 18.2824 19.9213 18.6764C19.8702 18.9713 20.9595 19.5567 19.7721 19.5567C19.7401 19.9617 20.4393 19.7658 20.2347 20.2368C20.0769 20.5999 19.7124 20.1268 19.5227 20.3975C19.6059 20.3777 19.6485 20.3336 19.6037 20.2478C19.5949 20.2387 19.584 20.2322 19.5721 20.2287C19.5602 20.2252 19.5475 20.225 19.5355 20.228C19.4523 20.2852 19.4971 20.338 19.5483 20.3864C19.6783 20.5757 19.851 20.7782 19.5824 20.9719C19.3138 21.1656 19.1901 20.9235 19.0772 20.7254C18.8938 20.4041 18.7276 20.0651 18.572 20.7474C18.5336 20.9169 18.3438 20.9103 18.2202 20.8596C18.0177 20.776 18.039 20.5647 18.0987 20.4195C18.3587 19.7592 17.9708 19.5633 17.4741 19.4005C16.5766 19.1056 15.6855 18.7886 14.7177 18.4541C14.6985 19.3344 15.176 20.0453 15.2378 20.8486C14.1206 21.257 12.962 21.5331 11.7844 21.6718C9.73543 21.8888 7.66629 21.5781 5.76217 20.7672C5.94977 20.0255 6.13523 19.286 6.35054 18.4299C5.23776 18.8106 4.21877 19.165 3.20192 19.5083C2.83099 19.6338 2.74573 19.9067 2.83313 20.2566C2.88642 20.4767 3.07614 20.7144 2.76703 20.842C2.34068 21.0137 2.36626 20.5801 2.23196 20.3688C1.84398 20.4217 1.96339 21.1457 1.46455 21.0071C1.11708 20.9125 1.44108 20.5405 1.27907 20.3468L1.39419 20.3754L1.38779 20.2522L1.30254 20.3622C0.876185 20.305 0.584101 19.5897 0.78875 19.1056C0.993399 18.6214 1.16183 18.1834 1.76725 18.6654C2.11046 18.9383 2.38759 18.7622 2.61995 18.4563C3.83506 16.8871 5.32513 15.7163 7.22666 15.1837C7.65302 15.0626 7.70423 14.6863 7.91527 14.3605C5.76859 13.2953 4.29122 11.6689 3.76042 9.24576C3.70073 8.97726 3.49183 8.92884 3.29571 8.821C2.56451 8.41824 2.524 7.62374 3.23601 7.22538C3.34687 7.18307 3.44421 7.10988 3.51721 7.01392C3.59021 6.91796 3.63606 6.80299 3.64961 6.68177C4.15697 3.34969 6.13096 1.20827 9.32861 0.495194C9.75496 0.812116 9.3691 1.41515 9.84874 1.8157C9.78905 1.36453 9.94469 1.21267 10.3455 1.2853C10.9956 1.40414 11.2067 1.06521 11.0404 0.429165ZM9.34994 11.8604L9.51618 12.0342C10.0321 12.536 10.5821 12.3578 11.1257 12.2103C10.5821 12.3313 10.0598 12.0166 9.52044 12.0298L9.35208 11.8582L9.18579 11.6843C9.16021 11.5523 9.15166 11.4048 8.99817 11.352C8.97899 11.352 8.90652 11.4114 8.90865 11.4422C8.90865 11.6117 9.04936 11.6623 9.18153 11.6887L9.34994 11.8604ZM13.9183 10.8216C14.4107 10.7423 14.9117 10.6455 14.8691 9.97424C14.8307 9.37561 14.4022 9.23696 13.9076 9.26557C13.4131 9.29418 12.8993 9.38441 12.9036 10.0447C12.9078 10.7049 13.4344 10.7621 13.9183 10.8216ZM7.09666 10.8216C7.55925 10.7027 8.13694 10.6015 8.0879 9.98965C8.04314 9.43503 7.5507 9.24136 7.02202 9.26117C6.49335 9.28098 6.067 9.50987 6.06486 10.0205C6.06486 10.6213 6.61915 10.7269 7.10519 10.8216H7.09666ZM7.88113 8.90023C8.24993 8.821 8.36078 8.54369 8.36504 8.20256C8.36931 7.86143 8.29684 7.5313 7.89393 7.5269C7.49103 7.5225 7.38446 7.85923 7.38233 8.18715C7.3697 8.34913 7.414 8.51039 7.50719 8.64135C7.60037 8.77232 7.73617 8.86423 7.88967 8.90023H7.88113ZM13.0869 8.90023C13.2328 8.85886 13.3599 8.76538 13.4454 8.63643C13.5308 8.50748 13.5693 8.3514 13.5538 8.19596C13.5538 7.85483 13.4813 7.5357 13.0763 7.5357C12.6712 7.5357 12.5689 7.85703 12.5689 8.19596C12.5591 8.35953 12.6071 8.52123 12.7039 8.65112C12.8007 8.781 12.9398 8.87028 13.0954 8.90243L13.0869 8.90023ZM10.128 2.12162C10.1024 2.0776 10.0854 2.01378 10.047 1.99177C10.0087 1.96976 9.95747 2.00938 9.91057 2.02038C9.93829 2.0644 9.95537 2.12602 9.99374 2.14803C10.0321 2.17003 10.079 2.13262 10.128 2.12162Z" fill="#E7D5C6"/>
<path d="M5.76206 20.7562C7.66617 21.567 9.73531 21.8778 11.7843 21.6607C12.9619 21.5221 14.1204 21.246 15.2377 20.8376C15.6428 21.2052 15.5085 21.718 15.5639 22.1735C15.1043 22.1899 14.6606 22.3511 14.2924 22.6356C13.9243 22.9201 13.6494 23.3141 13.5046 23.7648C13.1827 24.6451 13.0058 25.5122 13.2232 26.4388C13.01 26.7601 12.6519 26.7821 12.3386 26.8217C10.7824 27.0176 9.21977 27.2135 7.7318 26.4498C8.15815 24.3436 7.2138 22.5675 5.45296 22.1647C5.3954 21.6585 5.35702 21.1545 5.76206 20.7562Z" fill="#A0D1CA"/>
<path d="M13.2232 26.4388C13.0101 25.5122 13.1827 24.6341 13.5046 23.7647C13.6494 23.3141 13.9243 22.9201 14.2924 22.6356C14.6606 22.3511 15.1043 22.1899 15.5639 22.1735C16.2162 22.3056 16.875 22.4068 17.4932 22.7282C17.7255 22.5081 17.4356 22.321 17.3823 22.1449C17.248 21.7048 17.474 21.4407 17.7724 21.4737C18.8895 21.5925 20.0747 21.5969 20.8294 22.7105C20.9104 22.8316 21.0553 22.9592 20.9786 23.0781C20.3923 23.9584 20.435 25.0787 19.934 25.9986C19.5439 26.7139 18.947 27.0726 18.2712 26.7667C16.8557 26.1285 15.4083 26.5092 13.9779 26.43C13.7263 26.4146 13.4748 26.4344 13.2232 26.4388Z" fill="#E7D5C6"/>
<path d="M5.45297 22.1647C7.2138 22.5675 8.15816 24.3436 7.73181 26.4498C6.75546 26.4234 5.77912 26.3904 4.8049 26.3662C4.24805 26.3334 3.69121 26.4312 3.1762 26.6523C2.15296 27.1188 1.44097 26.8239 1.01249 25.7719C0.756674 25.1469 0.441184 24.524 0.43692 23.8132C0.439804 23.7272 0.43623 23.6411 0.426251 23.5557C0.383616 23.274 -0.226083 23.241 0.0915494 22.8184C0.456081 22.332 0.88458 21.8346 1.49213 21.7708C1.91849 21.7268 2.27238 21.5331 2.73923 21.5507C3.74756 21.6101 3.77738 21.5287 3.51091 22.6071L5.45297 22.1647Z" fill="#E7D5C6"/>
<path d="M11.0405 0.42916C11.2068 1.0652 10.9957 1.40414 10.3391 1.28529C9.93835 1.21267 9.78271 1.36452 9.8424 1.8157C9.36276 1.40854 9.74009 0.805509 9.32227 0.49519C9.68893 -0.145257 10.1281 -0.160667 11.0405 0.42916Z" fill="#DC968F"/>
<path d="M13.9183 10.8216C13.4344 10.7621 12.9079 10.7071 12.9036 10.0447C12.8993 9.38221 13.4109 9.29418 13.9076 9.26557C14.4043 9.23696 14.8307 9.37561 14.8691 9.97424C14.9117 10.6455 14.4107 10.7423 13.9183 10.8216Z" fill="#DC968F"/>
<path d="M7.10518 10.8216C6.61913 10.7269 6.06485 10.6213 6.06912 10.0205C6.06912 9.50986 6.52318 9.27877 7.02628 9.26116C7.52937 9.24356 8.05165 9.43503 8.09216 9.98964C8.14545 10.6081 7.5699 10.7027 7.10518 10.8216Z" fill="#DC968F"/>
<path d="M7.88973 8.90023C7.73742 8.86238 7.60331 8.76938 7.51178 8.63813C7.42024 8.50688 7.37734 8.34608 7.39088 8.18495C7.39088 7.85923 7.51029 7.5247 7.90253 7.5247C8.29477 7.5247 8.38004 7.86142 8.37364 8.20036C8.36725 8.53929 8.25852 8.821 7.88973 8.90023Z" fill="#575757"/>
<path d="M13.0954 8.90243C12.9398 8.86825 12.8014 8.77688 12.7062 8.64531C12.6109 8.51375 12.5651 8.35094 12.5774 8.18715C12.5774 7.85042 12.6947 7.5269 13.0848 7.5269C13.4749 7.5269 13.5602 7.85482 13.5623 8.18715C13.5805 8.34436 13.5433 8.50307 13.4576 8.63437C13.3719 8.76566 13.2434 8.8608 13.0954 8.90243Z" fill="#575757"/>
<path d="M9.52038 12.0298C10.0597 12.0166 10.5863 12.3314 11.1256 12.2103C10.5799 12.3578 10.032 12.536 9.51611 12.0342L9.52038 12.0298Z" fill="#DC968F"/>
<path d="M9.18156 11.6887C9.04939 11.6535 8.91935 11.6117 8.90869 11.4422C8.90869 11.4114 8.97902 11.3454 8.99821 11.352C9.1517 11.4048 9.16025 11.5522 9.18583 11.6843L9.18156 11.6887Z" fill="#E7D5C6"/>
<path d="M10.1281 2.12162C10.0833 2.13262 10.0258 2.16563 9.99381 2.14803C9.96184 2.13042 9.93836 2.0644 9.91064 2.02038C9.95754 2.00938 10.0151 1.97416 10.0471 1.99177C10.0791 2.00938 10.0982 2.0776 10.1281 2.12162Z" fill="#DC968F"/>
<path d="M9.18573 11.6843L9.35201 11.8582L9.18359 11.6865L9.18573 11.6843Z" fill="#E7D5C6"/>
<path d="M9.51609 12.0342L9.34985 11.8604L9.51822 12.032L9.51609 12.0342Z" fill="#E7D5C6"/>
<path d="M1.29186 20.3578L1.37711 20.2478L1.39418 20.3622L1.27905 20.3336L1.29186 20.3578Z" fill="#575757"/>
<path d="M19.5482 20.3798C19.497 20.3314 19.4523 20.2786 19.5354 20.2214C19.5475 20.2184 19.5601 20.2186 19.572 20.2221C19.584 20.2256 19.5949 20.2321 19.6036 20.2412C19.6484 20.327 19.6037 20.371 19.5227 20.3909L19.5482 20.3798Z" fill="#575757"/>
</g>
<defs>
<clipPath id="clip0_187_16">
<rect width="21" height="27" fill="white"/>
</clipPath>
</defs>
</svg>
