<svg width="21" height="22" viewBox="0 0 21 22" fill="none" xmlns="http://www.w3.org/2000/svg">
<g clip-path="url(#clip0_187_112)">
<path d="M19.978 9.54518V21.3723C19.978 21.6722 19.8304 21.8876 19.5728 21.9711C19.5108 21.9906 19.4461 22.0003 19.3811 22H13.0803H13.03C13.03 21.9526 13.03 21.9052 13.03 21.8588V9.69669C13.03 9.64928 13.03 9.60186 13.03 9.55445C13.0607 9.54042 13.0949 9.53541 13.1285 9.54002H13.4887C13.5214 9.55481 13.5577 9.56017 13.5934 9.55548L19.978 9.54518Z" fill="#E7D5C6"/>
<path d="M7.95533 21.9969H7.8883H1.64087C1.50908 22.0046 1.37852 21.968 1.27063 21.8931C1.16274 21.8182 1.08395 21.7094 1.04714 21.5846C1.02985 21.5257 1.02139 21.4646 1.022 21.4032C1.022 17.4516 1.022 13.5006 1.022 9.55034H7.39508C7.43098 9.55492 7.46746 9.54883 7.4998 9.53282C7.55739 9.53282 7.61603 9.53282 7.67467 9.53282C7.76848 9.52456 7.86304 9.52977 7.95533 9.54828C7.95533 9.5926 7.95533 9.63692 7.95533 9.68123C7.95603 13.7861 7.95603 17.8913 7.95533 21.9969Z" fill="#E7D5C6"/>
<path d="M7.95859 9.54725C7.8663 9.52874 7.77174 9.52353 7.67793 9.53179C7.61928 9.53179 7.56065 9.53179 7.50201 9.53179C7.50201 9.48747 7.50201 9.44315 7.50201 9.39779V3.99288C7.50201 3.87848 7.502 3.87848 7.38576 3.87848H4.72281C4.63066 3.87848 4.53747 3.87848 4.44427 3.87848C4.26698 3.8479 4.09516 3.792 3.93428 3.71254C3.50808 3.47754 3.21592 3.13123 3.14471 2.65299C3.02429 1.8573 3.2997 1.1822 3.89031 0.639026C4.33138 0.223604 4.92193 -0.00252173 5.53227 0.0103101C6.02513 0.0203536 6.50395 0.173857 6.90827 0.451447C7.40987 0.779205 7.92089 1.09356 8.42667 1.41514C8.7691 1.63364 9.11048 1.85421 9.4529 2.07375C9.46547 2.07938 9.47738 2.08629 9.48849 2.09435C9.59321 2.19742 9.68119 2.17269 9.79219 2.09435C9.94626 1.99096 10.1293 1.93762 10.3158 1.94182C10.5723 1.94182 10.8299 1.94182 11.0865 1.94182C11.2865 1.94269 11.4817 2.00265 11.6467 2.11394C11.6655 2.12937 11.6892 2.13781 11.7137 2.13781C11.7382 2.13781 11.762 2.12937 11.7808 2.11394C12.6771 1.54294 13.5746 0.97331 14.473 0.405058C14.9171 0.108865 15.4521 -0.0259599 15.9862 0.0237095C16.4445 0.0639472 16.8819 0.230803 17.2481 0.505044C17.5939 0.760006 17.8608 1.10477 18.0188 1.50068C18.0936 1.68607 18.1425 1.88057 18.1643 2.07889C18.1939 2.30022 18.1861 2.52486 18.1413 2.74369C18.0904 2.94635 17.9958 3.13584 17.8638 3.29923C17.7237 3.47757 17.5448 3.62268 17.3402 3.72388C17.1916 3.80617 17.0264 3.85541 16.8564 3.86816C16.7654 3.88839 16.6722 3.89739 16.5789 3.89496H13.6123C13.4803 3.89496 13.4803 3.89496 13.4803 4.02689C13.4803 5.86495 13.4803 7.703 13.4803 9.54106H13.1201C13.0865 9.53645 13.0524 9.54146 13.0217 9.55549L7.95859 9.54725ZM6.77423 3.17864H7.09572C7.46013 3.17864 7.82873 3.17864 8.19001 3.17864C8.28803 3.18208 8.38471 3.15534 8.46655 3.10213C8.5484 3.04892 8.61131 2.97189 8.64656 2.8818C8.67664 2.78658 8.67363 2.68422 8.63797 2.59089C8.60232 2.49756 8.53607 2.41858 8.44971 2.36646C7.96382 2.05725 7.47584 1.74805 6.99205 1.43884C6.77647 1.29036 6.52283 1.20449 6.26008 1.19099C5.99732 1.1775 5.73599 1.23694 5.50589 1.36253C5.27578 1.48813 5.08618 1.67483 4.95865 1.90135C4.83112 2.12787 4.77081 2.3851 4.7846 2.64372C4.80086 2.78353 4.86629 2.91333 4.96957 3.01065C5.07284 3.10797 5.20744 3.16666 5.35006 3.17658C5.82443 3.18585 6.29881 3.17864 6.77423 3.17864ZM14.495 3.17864C14.9589 3.17864 15.4228 3.17864 15.8857 3.17864C16.0338 3.1852 16.1792 3.13771 16.294 3.04527C16.4088 2.95284 16.4849 2.82196 16.5077 2.67773C16.528 2.55004 16.522 2.41964 16.4899 2.29431C16.4305 2.00507 16.2782 1.74227 16.0555 1.54464C15.8329 1.34701 15.5516 1.22501 15.2532 1.19663C14.9415 1.16166 14.6272 1.23454 14.3641 1.40277L12.8353 2.37265C12.7543 2.42375 12.6925 2.49937 12.6591 2.58811C12.6257 2.67684 12.6225 2.77386 12.6501 2.86453C12.6776 2.95519 12.7344 3.03456 12.8118 3.09067C12.8893 3.14678 12.9831 3.17657 13.0793 3.17554L14.495 3.17864Z" fill="#DC968F"/>
<path d="M7.95844 9.54725H13.0267C13.0267 9.59466 13.0267 9.64207 13.0267 9.68948V21.8516C13.0267 21.898 13.0267 21.9454 13.0267 21.9928H12.9503H8.02859H7.95215C7.95215 17.8879 7.95215 13.7823 7.95215 9.67608C7.95634 9.63589 7.95739 9.59157 7.95844 9.54725Z" fill="#DC968F"/>
<path d="M13.4844 9.52973C13.4844 7.69235 13.4844 5.8543 13.4844 4.01555C13.4844 3.88362 13.4844 3.88362 13.6163 3.88362H16.5871C16.6804 3.88605 16.7736 3.87705 16.8646 3.85682C16.9035 3.87342 16.9465 3.87843 16.9882 3.87125H20.3947C20.5359 3.8647 20.6748 3.90916 20.7851 3.99628C20.8954 4.0834 20.9696 4.20718 20.9936 4.34435C21.001 4.39105 21.0042 4.4383 21.0031 4.48555V8.92368C21.0031 9.29885 20.7622 9.53488 20.3748 9.54209L19.9779 9.54828H13.5901C13.5538 9.55221 13.5171 9.54576 13.4844 9.52973Z" fill="#E7D5C6"/>
<path d="M4.44002 3.86816C4.53321 3.86816 4.6264 3.86816 4.71855 3.86816H7.38049C7.49672 3.86816 7.49671 3.86817 7.49671 3.98258V9.38749C7.49671 9.43284 7.49671 9.47716 7.49671 9.52148C7.46445 9.53774 7.4279 9.54385 7.39199 9.539H1.01891C0.885919 9.539 0.75397 9.539 0.620979 9.53282C0.237714 9.53282 -0.00732422 9.2937 -0.00732422 8.91441C-0.00732422 7.43778 -0.00732422 5.96046 -0.00732422 4.48246C-0.00732422 4.09904 0.232478 3.86404 0.620979 3.86404H4.3175L4.44002 3.86816Z" fill="#E7D5C6"/>
</g>
<defs>
<clipPath id="clip0_187_112">
<rect width="21" height="22" fill="white"/>
</clipPath>
</defs>
</svg>
