<svg width="18" height="24" viewBox="0 0 18 24" fill="none" xmlns="http://www.w3.org/2000/svg">
<g clip-path="url(#clip0_187_34)">
<path d="M15.5536 12.6988C15.4367 12.9173 15.4366 13.1665 15.3712 13.3975C14.8753 15.0781 13.6813 16.0974 12.0476 16.7022C11.9666 16.7179 11.8898 16.7495 11.8219 16.795L11.8009 16.8075C11.353 16.8301 11.3132 16.8652 11.2524 17.2922C11.2439 17.3407 11.2326 17.3887 11.2185 17.436C10.9121 18.5289 9.97069 19.1642 8.76266 19.0929C7.81424 19.0362 6.86466 18.205 6.77461 17.2911C6.74187 16.9762 6.63079 16.829 6.32439 16.795C6.28152 16.7861 6.23931 16.7744 6.19809 16.7599C4.19016 16.1166 2.8722 14.872 2.51318 12.7961C2.50617 12.7565 2.51319 12.7123 2.45939 12.6988C2.45939 12.5753 2.45939 12.4519 2.45939 12.3284C2.45939 12.0113 2.4594 12.0238 2.14014 12.0691C1.46537 12.1653 0.913383 11.9355 0.458472 11.4541C0.265514 11.2503 0.207052 10.974 0.0292969 10.7644C0.180154 9.92752 0.687703 9.4145 1.53321 9.20725C1.76851 9.1685 2.00918 9.17234 2.24304 9.21857C2.42898 9.26614 2.45705 9.1846 2.45705 9.02944C2.44049 8.56862 2.45846 8.10723 2.51084 7.64892C2.65128 6.65301 3.03055 5.70277 3.6183 4.87429C4.06736 5.81653 4.92106 6.22537 5.84843 6.53114C6.67386 6.7956 7.53659 6.93466 8.40597 6.94338C10.4642 6.98301 12.4756 6.67157 14.4543 6.14496C15.0636 5.98188 15.0542 5.97395 15.2484 6.55153C15.5001 7.35596 15.6034 8.19707 15.5536 9.03624C15.5477 9.19139 15.5828 9.27293 15.7676 9.2231C16.017 9.16817 16.276 9.16817 16.5254 9.2231C17.3569 9.43035 17.834 9.95243 17.9849 10.7644C17.8574 10.863 17.8398 11.0193 17.7673 11.1472C17.4095 11.7758 16.8446 12.0532 16.1301 12.1087C15.9418 12.1212 15.701 11.9354 15.591 12.0963C15.4963 12.2356 15.563 12.4779 15.5571 12.6761C15.5536 12.6829 15.5536 12.6908 15.5536 12.6988ZM3.27449 12.6988C3.27449 13.5527 3.94225 14.1812 4.8357 14.188C5.72915 14.1948 6.35597 13.5323 6.38755 12.6988C6.41912 11.8652 5.67419 11.1495 4.83804 11.171C3.92003 11.1948 3.24408 11.855 3.27449 12.6988ZM14.735 12.6897C14.7368 12.4913 14.6983 12.2944 14.6215 12.1104C14.5447 11.9264 14.4312 11.7589 14.2875 11.6174C14.1438 11.476 13.9727 11.3633 13.784 11.2859C13.5953 11.2085 13.3927 11.168 13.1878 11.1665C12.7735 11.1697 12.3771 11.3307 12.0843 11.6147C11.7915 11.8987 11.6259 12.2828 11.6231 12.684C11.6406 13.5096 12.2722 14.1971 13.1843 14.188C13.3888 14.192 13.592 14.156 13.7818 14.0821C13.9715 14.0083 14.144 13.8981 14.2887 13.7583C14.4335 13.6184 14.5476 13.4516 14.6243 13.268C14.701 13.0844 14.7386 12.8877 14.735 12.6897ZM5.67184 10.0362C5.66963 10.2652 5.76074 10.4857 5.92537 10.65C6.09 10.8144 6.31489 10.9092 6.55126 10.9139C6.79228 10.9142 7.02366 10.8223 7.19496 10.6581C7.36627 10.4939 7.46361 10.2708 7.46577 10.0374C7.46179 9.80815 7.3651 9.58958 7.19651 9.42864C7.02791 9.2677 6.80084 9.17723 6.56411 9.17667C6.44711 9.17592 6.33114 9.19761 6.22284 9.24049C6.11454 9.28337 6.01606 9.34658 5.93311 9.42649C5.85016 9.5064 5.78438 9.60142 5.73953 9.70607C5.69469 9.81072 5.67168 9.92294 5.67184 10.0362ZM10.5344 10.0464C10.535 10.2755 10.6289 10.4952 10.7958 10.6576C10.9626 10.82 11.1889 10.9121 11.4255 10.9139C11.6621 10.9119 11.8886 10.8209 12.0571 10.66C12.2256 10.4992 12.3228 10.2812 12.3283 10.0521C12.3286 9.93657 12.3052 9.82213 12.2596 9.71542C12.2139 9.6087 12.1468 9.51181 12.0622 9.43039C11.9775 9.34896 11.8771 9.28461 11.7666 9.24106C11.6561 9.1975 11.5377 9.17562 11.4184 9.17667C11.3013 9.17726 11.1855 9.20026 11.0776 9.24435C10.9697 9.28843 10.8719 9.35274 10.7897 9.43356C10.7075 9.51439 10.6427 9.61014 10.5989 9.71532C10.5551 9.8205 10.5331 9.93302 10.5344 10.0464ZM8.97199 13.8822C9.43993 13.8816 9.89139 13.7147 10.2408 13.4134C10.3859 13.2763 10.4619 13.1268 10.3168 12.9604C10.1718 12.7939 10.0093 12.8471 9.84907 12.9604C9.23278 13.4009 8.81178 13.3952 8.21186 12.9456C8.05398 12.8324 7.89495 12.8052 7.75579 12.9456C7.61662 13.0861 7.65754 13.2435 7.7967 13.3805C8.11228 13.6808 8.5302 13.8592 8.97199 13.8822ZM7.39208 17.0612C8.10661 17.9762 9.99992 17.9672 10.5998 17.0612C9.53851 17.2395 8.45341 17.2395 7.39208 17.0612Z" fill="#E7D5C6"/>
<path d="M16.5253 9.22194C16.2758 9.16701 16.0169 9.16701 15.7675 9.22194C15.5827 9.27177 15.5476 9.19023 15.5534 9.03508C15.6017 8.19564 15.4968 7.35453 15.2436 6.55037C15.0494 5.97279 15.0588 5.98412 14.4495 6.1438C12.4708 6.67042 10.4594 6.98185 8.40117 6.94221C7.53178 6.9335 6.66902 6.79445 5.84359 6.52999C4.91623 6.22421 4.06253 5.81538 3.61346 4.87313C3.02572 5.70161 2.64644 6.65185 2.50601 7.64776C2.45363 8.10607 2.43566 8.56746 2.45222 9.02828C2.45222 9.18344 2.42414 9.26498 2.2382 9.21742C2.00434 9.17118 1.76368 9.16734 1.52837 9.20609C0.709766 5.6489 2.43586 2.19703 5.79565 0.682873C9.50862 -0.989834 13.9934 0.509599 15.8364 4.05773C16.0083 4.39069 16.1873 4.54018 16.5673 4.48242C16.7428 4.45411 16.9252 4.46883 17.1006 4.44165C17.3053 4.40994 17.3345 4.49601 17.2655 4.64663C17.1349 4.91861 16.9126 5.13947 16.6352 5.27291C16.4516 5.37257 16.4165 5.47789 16.4656 5.66815C16.7417 6.75236 16.7637 7.88268 16.5299 8.97619C16.5059 9.05627 16.5043 9.14107 16.5253 9.22194Z" fill="#575757"/>
<path d="M11.822 16.795C12.2696 17.0493 12.6835 17.3554 13.0545 17.7067C13.0545 19.0487 13.0475 20.3896 13.0627 21.7316C13.0686 22.282 13.1048 22.8313 13.0709 23.3817C12.2663 23.679 11.4213 23.8617 10.5625 23.9241C9.01999 24.0634 7.48334 24.0294 5.96658 23.6852C5.74321 23.6342 5.52337 23.5719 5.30234 23.5074C5.2579 22.8279 5.31636 22.1484 5.31519 21.4621C5.31519 20.1031 5.31519 18.7441 5.31519 17.3851C5.58425 17.1651 5.87577 16.9723 6.18525 16.8097C6.18525 16.8426 6.19344 16.8754 6.19461 16.9083C6.25308 18.6353 7.71489 19.8267 9.47723 19.5776C10.8291 19.3873 11.9061 18.1053 11.8009 16.8041L11.822 16.795Z" fill="#71ACAB"/>
<path d="M5.31498 17.3884C5.31498 18.7475 5.31498 20.1065 5.31498 21.4655C5.31498 22.145 5.2577 22.8245 5.30213 23.5108C4.62152 23.3477 4.00872 23.0578 3.52925 22.5515C3.29339 22.3062 3.16727 21.9805 3.17841 21.6455C3.17822 20.8816 3.34267 20.126 3.66124 19.427C3.9798 18.7281 4.44547 18.1013 5.02847 17.5866C5.11501 17.5096 5.18751 17.4088 5.31498 17.3884Z" fill="#A0D1CA"/>
<path d="M13.0708 23.3817C13.1047 22.8313 13.0708 22.282 13.0626 21.7316C13.0474 20.3896 13.0556 19.0487 13.0544 17.7067C13.2883 17.7984 13.4052 18.0079 13.5526 18.1823C14.3532 19.1335 14.8023 20.3167 14.8284 21.5436C14.8426 21.7583 14.8061 21.9733 14.7216 22.1723C14.6371 22.3713 14.5068 22.549 14.3408 22.692C13.9856 23.0236 13.5482 23.2611 13.0708 23.3817Z" fill="#A0D1CA"/>
<path d="M11.8009 16.8075C11.9061 18.1031 10.8291 19.3907 9.47722 19.581C7.72306 19.8301 6.25307 18.6387 6.1946 16.9117C6.1946 16.8788 6.19459 16.846 6.18523 16.8131C6.17588 16.7803 6.19226 16.7803 6.1946 16.7644C6.23517 16.7773 6.27659 16.7875 6.31857 16.795C6.62496 16.829 6.73604 16.9762 6.76878 17.2911C6.86351 18.205 7.81309 19.0362 8.75683 19.0929C9.96603 19.1642 10.9074 18.5266 11.2126 17.436C11.2267 17.3887 11.2381 17.3407 11.2466 17.2922C11.3132 16.8652 11.353 16.8301 11.8009 16.8075Z" fill="#A0D1CA"/>
<path d="M0.024645 10.7644C0.2024 10.974 0.258524 11.2503 0.45382 11.4541C0.908731 11.9354 1.46072 12.1653 2.13549 12.0691C2.45591 12.0238 2.45357 12.0113 2.45474 12.3284C2.45474 12.4519 2.45474 12.5753 2.45474 12.6988C1.47826 13.0668 0.291279 12.4349 0.0562221 11.4202C-0.00387844 11.2065 -0.0146609 10.9826 0.024645 10.7644Z" fill="#DC968F"/>
<path d="M15.5535 12.6988C15.5535 12.6908 15.5535 12.6829 15.5535 12.675C15.5593 12.4768 15.4927 12.2344 15.5874 12.0951C15.6973 11.9343 15.9382 12.12 16.1265 12.1076C16.8457 12.0566 17.4129 11.7746 17.7637 11.1461C17.8362 11.0181 17.8538 10.8618 17.9813 10.7633C18.1602 12.0883 16.8013 13.171 15.5535 12.6988Z" fill="#DC968F"/>
<path d="M3.27435 12.6988C3.24511 11.855 3.92106 11.1948 4.8379 11.171C5.67405 11.1495 6.41782 11.8811 6.38741 12.6988C6.357 13.5164 5.72551 14.1937 4.83556 14.188C3.94562 14.1823 3.27435 13.5527 3.27435 12.6988Z" fill="#DC968F"/>
<path d="M14.7349 12.6897C14.7386 12.8877 14.701 13.0844 14.6243 13.268C14.5476 13.4516 14.4335 13.6184 14.2887 13.7583C14.1439 13.8981 13.9715 14.0083 13.7817 14.0821C13.5919 14.156 13.3887 14.192 13.1843 14.188C12.2721 14.1971 11.6406 13.5085 11.623 12.684C11.6258 12.2828 11.7915 11.8987 12.0843 11.6147C12.377 11.3307 12.7734 11.1697 13.1878 11.1665C13.3927 11.168 13.5953 11.2085 13.784 11.2859C13.9727 11.3633 14.1438 11.476 14.2875 11.6174C14.4312 11.7589 14.5447 11.9264 14.6214 12.1104C14.6982 12.2944 14.7368 12.4913 14.7349 12.6897Z" fill="#DC968F"/>
<path d="M5.67167 10.0362C5.67151 9.92293 5.69452 9.81072 5.73936 9.70607C5.78421 9.60142 5.84999 9.5064 5.93294 9.42649C6.01589 9.34658 6.11437 9.28336 6.22267 9.24049C6.33097 9.19761 6.44694 9.17592 6.56394 9.17667C6.80067 9.17723 7.02774 9.2677 7.19634 9.42864C7.36493 9.58958 7.46162 9.80815 7.4656 10.0374C7.46344 10.2708 7.3661 10.4939 7.1948 10.6581C7.02349 10.8223 6.79211 10.9142 6.55109 10.9139C6.31473 10.9092 6.08984 10.8144 5.9252 10.65C5.76057 10.4857 5.66946 10.2652 5.67167 10.0362Z" fill="#575757"/>
<path d="M10.5342 10.0464C10.533 9.93302 10.5549 9.8205 10.5987 9.71532C10.6425 9.61015 10.7074 9.51439 10.7896 9.43357C10.8717 9.35274 10.9696 9.28844 11.0775 9.24435C11.1854 9.20026 11.3012 9.17726 11.4183 9.17667C11.5376 9.17562 11.6559 9.19751 11.7664 9.24106C11.8769 9.28461 11.9774 9.34897 12.062 9.43039C12.1466 9.51182 12.2137 9.6087 12.2594 9.71542C12.3051 9.82214 12.3284 9.93658 12.3281 10.0521C12.3227 10.2812 12.2254 10.4992 12.0569 10.66C11.8884 10.8209 11.6619 10.9119 11.4253 10.9139C11.1888 10.9121 10.9625 10.82 10.7956 10.6576C10.6288 10.4952 10.5348 10.2755 10.5342 10.0464Z" fill="#575757"/>
<path d="M8.97193 13.8822C8.53026 13.8616 8.11154 13.6856 7.7943 13.3873C7.65513 13.2503 7.61188 13.0997 7.75338 12.9524C7.89488 12.8052 8.05158 12.8301 8.20945 12.9524C8.80704 13.4054 9.22803 13.4054 9.84667 12.9672C10.0116 12.8539 10.1729 12.7995 10.3144 12.9672C10.4559 13.1348 10.3835 13.2831 10.2384 13.4202C9.88856 13.7186 9.43815 13.8829 8.97193 13.8822Z" fill="#DC968F"/>
<path d="M7.39209 17.0612C8.45342 17.2395 9.53853 17.2395 10.5999 17.0612C9.99993 17.9683 8.10662 17.9762 7.39209 17.0612Z" fill="#DC968F"/>
</g>
<defs>
<clipPath id="clip0_187_34">
<rect width="18" height="24" fill="white"/>
</clipPath>
</defs>
</svg>
