<svg width="28" height="27" viewBox="0 0 28 27" fill="none" xmlns="http://www.w3.org/2000/svg">
<g clip-path="url(#clip0_187_67)">
<path d="M0.0120899 24.4557C0.0120899 24.4557 0.0120899 24.4488 0.0120899 24.4474H0.00268555V24.4598L0.0120899 24.4557Z" fill="#A0D1CA"/>
<path d="M22.7082 18.4183C22.7082 18.7784 22.6961 19.1385 22.7203 19.4972C22.7351 19.723 22.7203 19.9501 22.7284 20.1759C22.7365 20.4017 22.7284 20.6621 22.7284 20.9044C22.7209 20.9849 22.7278 21.0661 22.7486 21.144C22.7109 21.1981 22.7392 21.2604 22.7284 21.3172H19.5013C19.4596 21.3172 19.4111 21.3352 19.3747 21.2964L19.4124 21.2465C19.4326 21.2216 19.4609 21.1925 19.4461 21.1634C19.4313 21.1343 19.3882 21.1316 19.3532 21.1274C19.3181 21.1233 19.2696 21.1662 19.2185 21.1607L19.4259 20.6759C19.4376 20.6923 19.4438 20.7123 19.4434 20.7327C19.4434 20.8089 19.4852 20.856 19.5619 20.8449C19.6387 20.8338 19.6521 20.7687 19.6481 20.6981C19.6441 20.6274 19.5781 20.5928 19.6185 20.5596C19.6589 20.5263 19.7141 20.5596 19.764 20.5596C19.8138 20.5596 19.8582 20.5139 19.8555 20.446C19.8528 20.3781 19.8205 20.3532 19.7586 20.349C19.6933 20.3481 19.6289 20.3643 19.5714 20.3961C19.5956 20.3186 19.6118 20.2576 19.632 20.1981C19.6522 20.1385 19.64 20.0956 19.5848 20.0776C19.5296 20.0596 19.5027 20.1191 19.4946 20.1662C19.4852 20.2392 19.4798 20.3128 19.4784 20.3864C19.4366 20.3172 19.4043 20.2604 19.3693 20.2064C19.364 20.195 19.3564 20.1848 19.347 20.1767C19.3376 20.1685 19.3266 20.1624 19.3148 20.1589C19.303 20.1554 19.2906 20.1544 19.2784 20.1562C19.2662 20.1579 19.2545 20.1623 19.244 20.169C19.1888 20.2064 19.2212 20.259 19.244 20.2992C19.2918 20.3613 19.3502 20.4139 19.4165 20.4543C19.3424 20.4931 19.2696 20.4654 19.205 20.4972C19.1917 20.5018 19.1794 20.509 19.1689 20.5184C19.1583 20.5278 19.1497 20.5393 19.1434 20.5521C19.1371 20.565 19.1334 20.579 19.1324 20.5933C19.1315 20.6077 19.1332 20.6221 19.1376 20.6357C19.1399 20.6499 19.1452 20.6634 19.1532 20.6752C19.1612 20.687 19.1716 20.6968 19.1837 20.704C19.1958 20.7112 19.2093 20.7155 19.2233 20.7166C19.2372 20.7177 19.2512 20.7156 19.2643 20.7105C19.2992 20.7006 19.3334 20.6881 19.3666 20.6731L19.0501 21.3324H18.6541C18.6513 21.2244 18.6617 21.1164 18.6851 21.0111C18.6949 21.0389 18.7061 21.0662 18.7188 21.0928C18.7417 21.1454 18.7578 21.223 18.8359 21.1911C18.9141 21.1593 18.8845 21.0845 18.8643 21.0263C18.8441 20.9681 18.8131 20.9127 18.7794 20.8407C18.8425 20.8608 18.9087 20.8688 18.9747 20.8643C19.0514 20.8643 19.0905 20.8283 19.0878 20.7493C19.0851 20.6704 19.0488 20.626 18.9639 20.6302C18.8791 20.6344 18.8387 20.6773 18.7605 20.6898C18.7807 20.6219 18.8009 20.5637 18.8131 20.5042C18.8213 20.4794 18.8215 20.4525 18.8138 20.4276C18.806 20.4026 18.7907 20.3809 18.7699 20.3657C18.7498 20.3525 18.7265 20.3455 18.7026 20.3455C18.6787 20.3455 18.6554 20.3525 18.6353 20.3657C18.6127 20.3795 18.5951 20.4005 18.5852 20.4254C18.5752 20.4504 18.5734 20.478 18.5801 20.5042C18.5875 20.5561 18.6002 20.6072 18.6178 20.6565H18.611C18.5551 20.6169 18.4956 20.5831 18.4332 20.5554C18.3672 20.5319 18.2986 20.5319 18.2703 20.6274C18.242 20.723 18.2918 20.7659 18.3699 20.7812C18.4184 20.7922 18.4682 20.8006 18.5289 20.8116C18.4292 20.9017 18.2501 20.9501 18.3592 21.1288C18.4252 21.2355 18.5168 21.1482 18.5935 21.0928L18.572 21.3338H17.5807C17.613 21.2729 17.6803 21.2396 17.6965 21.1634C17.7057 21.1369 17.7061 21.1079 17.6976 21.0811C17.689 21.0542 17.6721 21.0311 17.6494 21.0152C17.5995 20.9778 17.5551 21.0028 17.5147 21.0332C17.486 21.0528 17.4617 21.0785 17.4435 21.1086C17.4254 21.1388 17.4138 21.1726 17.4096 21.2078C17.4096 21.2285 17.4096 21.2618 17.3719 21.2618C17.3342 21.2618 17.3436 21.2341 17.3356 21.2161C17.3164 21.1576 17.2771 21.1084 17.2251 21.0776C17.1941 21.0609 17.1591 21.0208 17.1227 21.0526C17.0864 21.0845 17.1012 21.133 17.1133 21.1731C17.1396 21.2228 17.159 21.2759 17.1712 21.331C17.1335 21.3407 17.0783 21.3033 17.0621 21.3712H17.0217C17.0029 21.3047 16.9477 21.3324 16.9086 21.3324C15.9945 21.3324 15.0795 21.3324 14.1637 21.3324C14.1704 20.6884 14.1758 20.0443 14.1866 19.4003C14.1946 18.8878 14.1866 18.3753 14.2014 17.8615C14.2176 17.1427 14.2014 16.4238 14.2095 15.705C14.2106 15.6859 14.207 15.6669 14.199 15.6497C14.1909 15.6325 14.1788 15.6177 14.1637 15.6066C13.8943 15.3892 13.6438 15.1551 13.3919 14.9141L11.3986 13.0526C10.9729 12.6551 10.5487 12.2562 10.1136 11.8712C10.1003 11.8554 10.084 11.8426 10.0658 11.8333C10.0475 11.8241 10.0277 11.8186 10.0074 11.8174C9.98706 11.8161 9.96673 11.8189 9.94752 11.8258C9.9283 11.8327 9.91061 11.8434 9.89546 11.8573C9.68266 12.0069 9.47927 12.1704 9.27994 12.338C8.72862 12.7996 8.18672 13.2692 7.65426 13.7465C7.00776 14.3296 6.36802 14.9197 5.74846 15.5332C5.69 15.5887 5.64394 15.6566 5.61348 15.7321C5.58301 15.8077 5.56886 15.8892 5.57201 15.9709C5.57201 16.7839 5.55854 17.597 5.57201 18.41C5.58009 19.3795 5.57203 20.3573 5.59358 21.3296H4.62651C4.62651 20.3352 4.62651 19.3407 4.62651 18.3463C4.59957 15.3089 4.61171 12.2715 4.60767 9.23546H22.1439C22.3163 9.23546 22.3163 9.23546 22.2785 9.06925H22.3217C22.4563 9.19668 22.4065 9.36981 22.4173 9.52078C22.4469 9.89474 22.4469 10.2701 22.4671 10.644C22.486 10.9792 22.4954 11.3144 22.5102 11.6496C22.5331 12.1648 22.556 12.6801 22.5721 13.1967C22.5843 13.5803 22.5991 13.9654 22.6126 14.3504C22.6328 14.8698 22.6409 15.3906 22.6584 15.91C22.6664 16.1787 22.6583 16.4474 22.6745 16.7161C22.692 17.2729 22.6988 17.8463 22.7082 18.4183ZM20.1357 15.8158C20.1357 15.2715 20.1505 14.7258 20.1236 14.1801C20.106 13.8241 20.1101 13.4654 20.0939 13.108C20.0832 12.8754 20.0549 12.644 20.036 12.4155C20.036 12.3629 20.0172 12.3296 19.9538 12.3366C19.5565 12.3767 19.1565 12.3781 18.7592 12.3864C18.1046 12.4017 17.45 12.3864 16.7955 12.3934C16.4614 12.3934 16.122 12.3712 15.7961 12.3504C15.7274 12.3504 15.6978 12.3601 15.6964 12.4391C15.6964 12.6205 15.6843 12.8006 15.6789 12.9806C15.6654 13.5138 15.6506 14.0485 15.6385 14.5831C15.6237 15.2548 15.6116 15.9266 15.5968 16.5983C15.5887 16.9349 15.5967 17.2715 15.5806 17.6066C15.559 18.2161 15.5617 18.8255 15.551 19.4335C15.551 19.5166 15.5779 19.5319 15.652 19.5332C16.1099 19.5332 16.5678 19.5332 17.0258 19.5485C17.7585 19.5637 18.4925 19.5637 19.2252 19.536C19.4761 19.5349 19.7265 19.5136 19.9741 19.4723C20.0293 19.4612 20.0562 19.4391 20.0589 19.3753C20.067 19.2064 20.0872 19.0374 20.0926 18.867C20.1101 18.3338 20.1276 17.7992 20.1343 17.2659C20.1411 16.7798 20.1357 16.2978 20.1357 15.8158Z" fill="#A0D1CA"/>
<path d="M22.269 9.0554C22.3027 9.22161 22.3027 9.22161 22.1343 9.22161H4.59814C4.56716 9.22161 4.52542 9.23407 4.51465 9.18144C4.57419 9.18778 4.63435 9.17939 4.69011 9.15699C4.74587 9.13458 4.7956 9.0988 4.83519 9.05263C5.37393 8.57202 5.9127 8.09695 6.43933 7.61911C7.18369 6.95152 7.92804 6.28393 8.67241 5.61634C9.21115 5.12881 9.7499 4.63988 10.2886 4.14958L12.2349 2.39197C12.6389 2.0277 13.043 1.66205 13.447 1.29639C13.4901 1.25623 13.5144 1.25623 13.5561 1.29639C13.8255 1.53739 14.0828 1.77423 14.3468 2.01246C14.8855 2.50092 15.4243 2.98984 15.963 3.47922L18.2284 5.52216C18.8157 6.05263 19.4002 6.58448 19.9888 7.11218C20.6878 7.73684 21.3895 8.35873 22.0886 8.97923C22.1119 9.00409 22.1399 9.02369 22.171 9.0368C22.2021 9.04992 22.2354 9.05625 22.269 9.0554ZM13.6491 8.08587C13.7003 8.08587 13.7528 8.08587 13.804 8.08587C13.8554 8.08262 13.9067 8.07661 13.9575 8.06787C14.1891 8.04243 14.4132 7.96862 14.6161 7.85097C14.819 7.73332 14.9964 7.5743 15.1374 7.38366C15.294 7.17183 15.4074 6.92966 15.4708 6.67167C15.5342 6.41368 15.5463 6.14518 15.5064 5.88227C15.4762 5.58506 15.3799 5.29898 15.2251 5.0461C15.0703 4.79322 14.861 4.58032 14.6135 4.42382C14.2131 4.1845 13.7549 4.06684 13.2922 4.08448C13.0317 4.08255 12.7789 4.17526 12.5783 4.34626C12.1891 4.65047 11.8954 5.06565 11.7338 5.54016C11.6053 5.87583 11.5779 6.24344 11.6549 6.59535C11.732 6.94727 11.9101 7.26726 12.1662 7.51385C12.5702 7.92798 13.0861 8.08725 13.6504 8.09141L13.6491 8.08587Z" fill="#E7D5C6"/>
<path d="M22.269 9.0554C22.2346 9.05666 22.2004 9.05039 22.1686 9.03702C22.1368 9.02365 22.1081 9.00348 22.0845 8.97784C21.3854 8.35457 20.6837 7.73129 19.9847 7.1108C19.3961 6.58309 18.8116 6.05124 18.2244 5.52077L15.9589 3.47783C15.4202 2.9903 14.8814 2.50139 14.3427 2.01108C14.0733 1.77285 13.8147 1.53601 13.552 1.29501C13.5103 1.25623 13.4861 1.25623 13.443 1.29501C13.0389 1.66066 12.6349 2.02632 12.2308 2.39058L10.2845 4.1482C9.7458 4.63666 9.20705 5.12557 8.66831 5.61495C7.92484 6.28439 7.18049 6.95198 6.43523 7.61772C5.89648 8.09556 5.35771 8.57063 4.83109 9.05124C4.7915 9.09741 4.74177 9.13319 4.68601 9.1556C4.63025 9.17801 4.57009 9.18639 4.51055 9.18005C4.09302 9.16897 3.67953 9.22299 3.26335 9.22853H3.12866C3.3051 9.08171 3.46807 8.95152 3.627 8.81302C4.0966 8.40581 4.56129 7.9903 5.02102 7.56648C5.54495 7.08171 6.07696 6.60387 6.60493 6.12326C6.64399 6.08863 6.67899 6.04847 6.71535 6.01107C6.73421 5.99722 6.75443 5.98476 6.77329 5.96814L7.51002 5.28808L8.95386 3.95706C9.65154 3.32133 10.3479 2.68144 11.0496 2.04986C11.7513 1.41828 12.4544 0.775618 13.2046 0.195286C13.276 0.139884 13.3527 0.092792 13.4254 0.0387754C13.4574 0.0118328 13.498 -0.00194676 13.5393 0.000100083C13.5806 0.00214692 13.6197 0.019877 13.649 0.0498581C13.8807 0.228528 14.1043 0.416894 14.3224 0.603875C15.5966 1.72437 16.8451 2.87258 18.0937 4.018C19.4468 5.25346 20.8013 6.48846 22.1572 7.72299C22.6663 8.18421 23.1768 8.64266 23.7101 9.08033C23.5539 9.08033 23.4017 9.08033 23.2508 9.08033C22.9384 9.0734 22.6259 9.0277 22.308 9.04848L22.269 9.0554Z" fill="#756762"/>
<path d="M8.94988 3.95707L7.50065 5.28809L6.76392 5.96814C6.74506 5.98476 6.72487 5.99723 6.70601 6.01108C6.6683 5.98337 6.68175 5.94044 6.68175 5.90305C6.67232 5.38366 6.67098 4.86288 6.65482 4.34349C6.6427 3.92798 6.61979 3.51246 6.61575 3.09695C6.61575 3.03047 6.60365 2.95845 6.60096 2.89612C6.59826 2.83379 6.57671 2.83241 6.53496 2.83518C6.47166 2.83518 6.45682 2.80333 6.44874 2.74515C6.41757 2.58561 6.41122 2.42199 6.4299 2.26039C6.44068 2.19529 6.4501 2.16205 6.52417 2.15513C7.03598 2.10942 7.54778 2.11496 8.06094 2.11496C8.35965 2.10846 8.65846 2.12281 8.95528 2.1579C9.1169 2.18144 9.11689 2.18006 9.1142 2.34765C9.1142 2.44322 9.10746 2.53878 9.1142 2.63435C9.12093 2.72992 9.10073 2.759 9.01453 2.75069C8.95257 2.75069 8.92969 2.77701 8.92969 2.83934C8.92969 3.18698 8.92969 3.53186 8.92969 3.88089C8.92711 3.89433 8.92757 3.9082 8.93107 3.92142C8.93458 3.93463 8.94102 3.94684 8.94988 3.95707Z" fill="#A0D1CA"/>
<path d="M4.61704 21.3158H5.58408C5.59082 21.7465 5.59754 22.1773 5.60697 22.608C5.61954 23.2119 5.63211 23.8158 5.64468 24.4197C5.33385 24.4023 5.02464 24.362 4.7194 24.2992C4.70266 24.297 4.6865 24.2913 4.67195 24.2825C4.65741 24.2737 4.64479 24.262 4.63483 24.248C4.62487 24.234 4.6178 24.218 4.61405 24.2011C4.61029 24.1842 4.60993 24.1666 4.613 24.1496C4.613 23.4349 4.613 22.7202 4.613 22.0055C4.62172 21.9583 4.61458 21.9095 4.59277 21.867C4.6176 21.7718 4.62448 21.6726 4.613 21.5748C4.61973 21.4931 4.61704 21.4044 4.61704 21.3158Z" fill="#E7D5C6"/>
<path d="M4.57096 21.8767C4.56991 21.8798 4.56793 21.8824 4.5653 21.8842C4.56268 21.886 4.55954 21.8869 4.5564 21.8867L4.57096 21.8767Z" fill="#E7D5C6"/>
<path d="M5.6447 23.1302C5.63303 22.5882 5.62046 22.0466 5.60699 21.5055C5.59756 21.1191 5.59084 20.7313 5.5841 20.3449C5.56525 19.4709 5.57064 18.5969 5.56256 17.723C5.55583 16.9931 5.56256 16.2632 5.56256 15.5332C5.56019 15.4583 5.5749 15.3838 5.60554 15.3157C5.63618 15.2477 5.68187 15.1879 5.73898 15.1413C6.35854 14.5873 6.99832 14.0596 7.64481 13.5374C8.17817 13.1053 8.72004 12.6833 9.27046 12.2715C9.46979 12.1219 9.67453 11.9751 9.88598 11.8407C9.91763 11.8152 9.95721 11.8024 9.99736 11.8047C10.0375 11.807 10.0755 11.8242 10.1042 11.8532C10.5392 12.1994 10.9635 12.5568 11.3891 12.9127L13.3824 14.5845C13.6343 14.7964 13.8875 15.0069 14.1542 15.2022C14.1688 15.2112 14.1807 15.224 14.1888 15.2394C14.1968 15.2547 14.2007 15.272 14.2 15.2895C14.2 15.9349 14.2081 16.5817 14.1919 17.2285C14.1811 17.6898 14.1852 18.1496 14.1771 18.6136C14.1663 19.1911 14.1609 19.7701 14.1542 20.3476C14.1353 20.3698 14.1421 20.3961 14.1407 20.4211C14.1407 20.8019 14.1407 21.1828 14.1232 21.5637C14.103 22.1247 14.1003 22.687 14.0909 23.2493C14.0744 23.3233 14.0699 23.3996 14.0774 23.4751C14.0774 23.7299 14.0559 23.9834 14.0411 24.2368C14.0343 24.3338 13.9832 24.3684 13.8943 24.3753C13.7811 24.3753 13.668 24.3753 13.5548 24.3753C13.5064 24.3753 13.4983 24.3504 13.4942 24.3158C13.4835 24.205 13.4673 24.0956 13.4592 23.9848C13.4431 23.741 13.4309 23.4972 13.4161 23.2521C13.4161 23.2271 13.4161 23.2022 13.4161 23.1759C13.4026 22.705 13.3879 22.2327 13.3757 21.7604C13.3636 21.2881 13.3569 20.8213 13.3474 20.3518C13.3474 20.1108 13.3474 19.8698 13.3367 19.6288C13.3165 18.8421 13.3367 18.0554 13.3164 17.2742C13.3057 16.8269 13.3165 16.3795 13.3286 15.9321C13.323 15.745 13.3288 15.5576 13.3461 15.3712C13.3461 15.3421 13.3703 15.2992 13.3191 15.2798C13.2949 15.2576 13.272 15.2341 13.2464 15.2133L11.8686 14.0928C11.2477 13.59 10.6268 13.09 10.0072 12.5859C9.99727 12.575 9.98526 12.5664 9.97194 12.5605C9.95862 12.5545 9.94426 12.5515 9.92975 12.5515C9.91524 12.5515 9.90091 12.5545 9.8876 12.5605C9.87428 12.5664 9.86226 12.575 9.85231 12.5859C9.5129 12.8629 9.16947 13.1274 8.82737 13.3989L7.25555 14.6454C6.98618 14.856 6.72625 15.0693 6.46091 15.2812C6.38549 15.3061 6.4057 15.367 6.4057 15.4197C6.4057 16.765 6.4057 18.1103 6.4057 19.4557C6.4057 19.7576 6.39896 20.0596 6.39627 20.3615C6.39627 20.3795 6.39627 20.3989 6.39627 20.4183C6.38818 21.0203 6.38053 21.6205 6.37335 22.2188L6.36125 23.1787C6.35047 23.4861 6.34105 23.7936 6.33027 24.1011C6.33027 24.1828 6.31544 24.2645 6.31274 24.3476C6.31274 24.3975 6.28179 24.4224 6.23465 24.4335C6.07829 24.4536 5.9204 24.4578 5.76325 24.446C5.71745 24.446 5.71878 24.3961 5.71474 24.3629C5.69993 24.1828 5.68376 24.0028 5.67433 23.8227C5.66086 23.5873 5.65413 23.3587 5.6447 23.1302Z" fill="#756762"/>
<path d="M14.1003 24.5457C14.1098 23.921 14.1125 23.2992 14.1327 22.669C14.1461 22.2451 14.1435 21.8213 14.1502 21.3961C14.1502 21.3684 14.1502 21.3393 14.1636 21.3158C15.0777 21.3158 15.9927 21.3158 16.9086 21.3158C16.9476 21.3158 17.0028 21.2881 17.0217 21.3546H16.9813C16.9287 21.3546 16.8708 21.3643 16.8601 21.4294C16.8493 21.4945 16.9099 21.5249 16.9611 21.5415C17.0228 21.5583 17.0852 21.5717 17.1483 21.5817C17.0962 21.6203 17.0463 21.6619 16.9988 21.7064C16.9851 21.7188 16.974 21.734 16.9662 21.751C16.9585 21.768 16.9541 21.7865 16.9535 21.8053C16.9529 21.8241 16.9559 21.8428 16.9626 21.8603C16.9692 21.8778 16.9792 21.8938 16.9921 21.9072C17.0473 21.982 17.1025 21.9266 17.155 21.9003C17.2076 21.874 17.2318 21.7978 17.2803 21.7382C17.3032 21.8352 17.2803 21.921 17.3099 22.0014C17.3274 22.0415 17.3382 22.0817 17.3934 22.0762C17.4486 22.0706 17.4581 22.0388 17.4769 21.9958C17.5066 21.9294 17.4769 21.8573 17.4769 21.7839C17.617 22.016 17.7425 22.257 17.8527 22.5055C17.9088 22.6026 17.948 22.709 17.9685 22.8199C17.7584 22.6288 17.512 22.626 17.2453 22.6745C17.4029 22.8379 17.5389 23.0222 17.7975 23.0111C17.881 23.0111 17.9914 22.9668 18.0467 23.0291C18.1019 23.0914 18.1005 23.1994 18.1261 23.2867C18.1517 23.374 18.1261 23.4252 18.0372 23.4113C17.9712 23.4113 17.9483 23.4307 17.947 23.5014C17.947 23.6316 17.982 23.7604 17.9699 23.8906C17.9699 23.9335 17.9914 23.946 18.0278 23.946C18.0345 24.1233 18.0426 24.3019 18.0494 24.4792C17.5712 24.5138 17.0931 24.4792 16.6149 24.5014C16.161 24.518 15.7072 24.5014 15.2533 24.5249C14.8681 24.5485 14.4829 24.5402 14.1003 24.5457Z" fill="#E7D5C6"/>
<path d="M19.3747 21.295C19.4111 21.3338 19.4596 21.3158 19.5013 21.3158H22.7203C22.7203 21.9072 22.7325 22.4986 22.7136 23.0886C22.7042 23.4321 22.7136 23.7742 22.6988 24.1163C22.6988 24.2438 22.6705 24.2784 22.5493 24.2895C22.1008 24.3283 21.6536 24.3629 21.2024 24.3823C20.8213 24.3989 20.4401 24.41 20.0603 24.4266C19.8246 24.4363 19.5862 24.4266 19.3518 24.4626V23.9307C19.3963 23.9307 19.4555 23.9501 19.4542 23.867C19.4495 23.754 19.4562 23.6407 19.4744 23.5291C19.4905 23.4307 19.4582 23.3906 19.3545 23.3975C19.2198 23.4072 19.0932 23.3975 18.9612 23.3975C18.9303 23.3975 18.8885 23.4141 18.8764 23.3629C18.8643 23.3116 18.8885 23.2992 18.9168 23.2742C19.0596 23.1705 19.1883 23.0475 19.2993 22.9086C19.3038 22.899 19.3104 22.8905 19.3186 22.884C19.3268 22.8774 19.3363 22.8729 19.3465 22.8707C19.3566 22.8686 19.3672 22.8689 19.3772 22.8716C19.3872 22.8743 19.3965 22.8794 19.4043 22.8864C19.4491 22.9171 19.5032 22.93 19.5565 22.9226C19.6098 22.9152 19.6587 22.8881 19.6939 22.8463C19.7559 22.7936 19.733 22.7701 19.6805 22.741C19.6019 22.7163 19.5179 22.7163 19.4394 22.741C19.5177 22.6306 19.5841 22.5117 19.6374 22.3864C19.6482 22.367 19.6589 22.3463 19.6805 22.3435C19.7828 22.3352 19.7936 22.2548 19.803 22.1773C19.8059 22.1312 19.8059 22.0849 19.803 22.0388C19.8393 22.0974 19.8789 22.1539 19.9215 22.2078C19.9375 22.2284 19.9581 22.2448 19.9816 22.2554C20.005 22.266 20.0307 22.2706 20.0562 22.2687C20.0786 22.2647 20.0992 22.2536 20.1151 22.2369C20.1311 22.2203 20.1415 22.199 20.1451 22.1759C20.1529 22.1407 20.1469 22.1037 20.1286 22.0729C20.1102 22.0421 20.0808 22.0199 20.0468 22.0111C19.9916 21.9861 19.9337 21.9654 19.8582 21.9349C19.9513 21.9099 20.0372 21.8624 20.1088 21.7964C20.1398 21.7659 20.1707 21.7244 20.133 21.6745C20.1271 21.6656 20.1195 21.658 20.1107 21.6523C20.1018 21.6465 20.0919 21.6427 20.0816 21.641C20.0712 21.6393 20.0607 21.6398 20.0505 21.6425C20.0404 21.6451 20.0308 21.6499 20.0226 21.6565C19.9916 21.6773 19.9647 21.7064 19.9337 21.7285C19.9027 21.7507 19.8852 21.8213 19.8246 21.8435C19.8236 21.8273 19.8236 21.8112 19.8246 21.795C19.8535 21.7232 19.8628 21.6447 19.8515 21.5679C19.8504 21.5563 19.847 21.5452 19.8414 21.5351C19.8359 21.525 19.8285 21.5161 19.8195 21.5091C19.8105 21.5021 19.8003 21.497 19.7893 21.4943C19.7784 21.4915 19.767 21.4911 19.7559 21.4931C19.6993 21.4931 19.6939 21.5388 19.6939 21.5845C19.696 21.6163 19.696 21.6482 19.6939 21.6801C19.6939 21.7258 19.7397 21.7825 19.7047 21.8102C19.6697 21.8379 19.6333 21.7618 19.5875 21.7576C19.5774 21.7552 19.5675 21.752 19.5579 21.7479C19.5329 21.7364 19.505 21.733 19.4781 21.7382C19.4511 21.7434 19.4263 21.7569 19.407 21.777C19.3927 21.795 19.3837 21.8169 19.3814 21.84C19.379 21.8632 19.3832 21.8865 19.3936 21.9072C19.406 21.9323 19.4255 21.9528 19.4496 21.9662C19.4736 21.9795 19.5011 21.9851 19.5283 21.982C19.5714 21.982 19.6212 21.9626 19.663 22C19.5795 22.0914 19.5094 22.1828 19.5592 22.3144C19.5625 22.3315 19.5596 22.3492 19.5512 22.3643C19.4097 22.6798 19.1929 22.9533 18.9208 23.1593C18.9033 23.1745 18.8818 23.1939 18.8562 23.1801C18.8306 23.1662 18.8414 23.1371 18.8414 23.1136C18.8414 23 18.8414 22.8864 18.8414 22.7729C18.8414 22.7161 18.8508 22.6884 18.9168 22.6759C18.9687 22.6715 19.0177 22.6496 19.0562 22.6135C19.0947 22.5774 19.1206 22.5292 19.1296 22.4764C19.1296 22.4432 19.1471 22.4003 19.1175 22.3767C19.101 22.3671 19.0825 22.3621 19.0636 22.3621C19.0447 22.3621 19.0261 22.3671 19.0097 22.3767C18.9585 22.3947 18.9262 22.4474 18.8643 22.4543C18.8666 22.3135 18.8875 22.1738 18.9262 22.0388C18.9704 21.8144 19.0358 21.595 19.1215 21.3837C19.1363 21.3504 19.1458 21.3144 19.1943 21.3366C19.2252 21.3472 19.2583 21.3489 19.2901 21.3416C19.3219 21.3343 19.3511 21.3182 19.3747 21.295Z" fill="#E7D5C6"/>
<path d="M13.357 21.3172C13.3664 21.8407 13.3745 22.3629 13.3852 22.8864C13.396 23.41 13.4122 23.9377 13.4257 24.464C13.4257 24.4917 13.4257 24.5208 13.4257 24.5485H12.367C12.3347 24.4169 12.2323 24.4446 12.1407 24.4349C12.1407 24.0817 12.1408 23.7285 12.1273 23.3753C12.1071 22.9377 12.1273 22.5 12.0855 22.0623C12.0613 21.8061 12.0855 21.5471 12.0667 21.2909C12.1025 21.3122 12.1445 21.3196 12.1852 21.3116L13.357 21.3172Z" fill="#E7D5C6"/>
<path d="M6.35986 24.464L6.372 23.3947C6.38008 22.7244 6.3877 22.0536 6.39488 21.3823C6.39488 21.3601 6.39488 21.3393 6.39488 21.3186H7.54511C7.58636 21.3259 7.6288 21.3181 7.66497 21.2964C7.6684 21.3702 7.66299 21.4442 7.64882 21.5166C7.65825 22.5028 7.61513 23.4889 7.69055 24.4723C7.60166 24.4986 7.50603 24.4723 7.42118 24.5083C7.0683 24.5014 6.71544 24.4571 6.35986 24.464Z" fill="#E7D5C6"/>
<path d="M7.42388 24.5069C7.51142 24.4695 7.60705 24.4972 7.69325 24.4709C8.09731 24.4584 8.49196 24.4709 8.89063 24.4515C9.28931 24.4321 9.66237 24.4432 10.0476 24.4432H12.1352C12.2228 24.4529 12.3292 24.4252 12.3615 24.5568C12.3736 24.6514 12.379 24.7467 12.3777 24.8421C12.3777 24.8989 12.3561 24.9321 12.2861 24.9404C12.1043 24.9573 11.9216 24.9624 11.7392 24.9557C10.3304 24.9557 8.92296 24.9557 7.51414 24.9557C7.41043 24.9557 7.39023 24.9017 7.37945 24.8241C7.37049 24.7163 7.38568 24.6078 7.42388 24.5069Z" fill="#756762"/>
<path d="M19.3532 23.9321V24.464C19.3532 24.7161 19.3532 24.9668 19.3532 25.2188C19.3532 25.2576 19.3532 25.2964 19.3532 25.3352C19.3451 25.4848 19.3438 25.4848 19.1969 25.4862C18.8845 25.4862 18.5707 25.4862 18.2541 25.4862C18.1801 25.4862 18.1545 25.464 18.1437 25.3878C18.1127 25.1787 18.0885 24.9723 18.071 24.7576C18.0642 24.6676 18.0548 24.5762 18.0467 24.4806C18.04 24.3033 18.0319 24.1247 18.0251 23.9474C18.4674 23.9825 18.9118 23.9774 19.3532 23.9321Z" fill="#FEFEFE"/>
<path d="M22.7458 21.144C22.7249 21.0661 22.7181 20.9849 22.7256 20.9044C22.7256 20.662 22.7256 20.4183 22.7256 20.1759C22.8347 20.3283 22.9424 20.482 23.0529 20.633C23.0649 20.6505 23.0726 20.6707 23.0751 20.692C23.0777 20.7133 23.0752 20.7348 23.0677 20.7548C22.9811 21.0151 22.9082 21.2801 22.8495 21.5485C22.8183 21.4461 22.7971 21.3408 22.7862 21.2341C22.7808 21.1994 22.7795 21.1648 22.7458 21.144Z" fill="#FEFEFE"/>
<path d="M23.861 19.0429C23.8622 19.0567 23.8587 19.0704 23.851 19.0818C23.8434 19.0932 23.8322 19.1015 23.8193 19.1053C23.8193 19.0762 23.8139 19.0429 23.861 19.0429Z" fill="#FEFEFE"/>
<path d="M0.171026 24.7216C0.181231 24.7206 0.191476 24.723 0.200226 24.7285C0.208976 24.734 0.215735 24.7423 0.219495 24.7521C0.219495 24.7521 0.219488 24.7521 0.212754 24.7521C0.18851 24.7521 0.176412 24.7382 0.169678 24.7161L0.171026 24.7216Z" fill="#FEFEFE"/>
<path d="M23.7399 19.5554L23.7305 19.5817L23.7197 19.5734L23.7359 19.5513L23.7399 19.5554Z" fill="#FEFEFE"/>
<path d="M23.8194 19.1053L23.8113 19.1343H23.8032L23.8207 19.1136L23.8194 19.1053Z" fill="#FEFEFE"/>
<path d="M0.0108639 24.4536H0.00415039V24.4432H0.0119874C0.0119874 24.4432 0.00974151 24.4513 0.0108639 24.4536Z" fill="#FEFEFE"/>
<path d="M25.5025 22.4361L25.5002 22.4294L25.5059 22.4305L25.5025 22.4361Z" fill="#FEFEFE"/>
<path d="M0.541504 24.8892L0.551991 24.8964H0.546178C0.546178 24.8964 0.546178 24.8964 0.546178 24.8892H0.541504Z" fill="#FEFEFE"/>
<path d="M0.638428 25.7085C0.645431 25.7085 0.652426 25.6989 0.658262 25.7085C0.664099 25.7181 0.658256 25.7169 0.651252 25.7217L0.638428 25.7085Z" fill="#FEFEFE"/>
<path d="M27.9881 26.9978C27.9881 26.9978 27.9799 26.987 27.9811 26.9846C27.9822 26.9822 27.9927 26.9846 27.9986 26.9846L27.9881 26.9978Z" fill="#FEFEFE"/>
<path d="M20.1357 15.8158C20.1357 16.2978 20.1357 16.7853 20.1357 17.2618C20.1289 17.795 20.1114 18.3296 20.0939 18.8629C20.0939 19.0332 20.0683 19.2022 20.0602 19.3712C20.0602 19.4349 20.0306 19.4571 19.9754 19.4681C19.7278 19.5095 19.4774 19.5308 19.2265 19.5319C18.4939 19.5596 17.7598 19.5596 17.0271 19.5443C16.5692 19.536 16.1112 19.536 15.6533 19.5291C15.5792 19.5291 15.5509 19.5125 15.5523 19.4294C15.5631 18.8213 15.5604 18.2119 15.5819 17.6025C15.5927 17.2673 15.59 16.9308 15.5981 16.5942C15.6129 15.9224 15.625 15.2507 15.6398 14.579C15.6519 14.0443 15.6668 13.5097 15.6802 12.9765C15.6802 12.7964 15.6978 12.6163 15.6978 12.4349C15.6978 12.356 15.7287 12.3407 15.7974 12.3463C16.1301 12.367 16.4628 12.3892 16.7968 12.3892C17.4514 12.3892 18.106 12.3975 18.7605 12.3823C19.1579 12.374 19.5579 12.3726 19.9552 12.3324C20.0185 12.3324 20.0333 12.3587 20.0374 12.4114C20.0562 12.644 20.0845 12.8753 20.0953 13.1039C20.1114 13.4612 20.1074 13.8199 20.1249 14.1759C20.1505 14.7258 20.1316 15.2715 20.1357 15.8158ZM17.8716 14.9737H17.5605C17.0864 14.9737 16.6109 14.9737 16.1355 14.9737C16.0587 14.9737 16.0345 14.9945 16.0358 15.0748C16.0358 15.2133 16.0264 15.3518 16.0237 15.4986C16.0156 15.9354 16.008 16.3707 16.0008 16.8047C15.99 17.5582 15.9819 18.313 15.9711 19.0665C15.9711 19.1427 15.9846 19.169 16.0655 19.169C16.3752 19.169 16.685 19.1828 16.9948 19.1842C17.4635 19.1842 17.9308 19.1911 18.3996 19.1842C18.7679 19.187 19.1362 19.1689 19.5027 19.1302C19.6185 19.115 19.6562 19.0651 19.6589 18.9488C19.667 18.5734 19.6939 18.1995 19.6953 17.8241C19.6953 16.9114 19.7356 15.9986 19.7114 15.0859C19.7114 14.9806 19.6737 14.9668 19.5861 14.9668C19.0191 14.9751 18.448 14.9737 17.8716 14.9737ZM18.013 13.6316C18.013 13.8975 18.013 14.1634 18.013 14.4294C18.013 14.5152 18.0373 14.5346 18.1167 14.5346C18.6124 14.5346 19.1094 14.5277 19.605 14.5346C19.6804 14.5346 19.7074 14.5166 19.7033 14.4349C19.6926 14.1413 19.6858 13.8476 19.6804 13.554C19.6804 13.3089 19.6522 13.0665 19.636 12.8227C19.6293 12.7244 19.5996 12.6842 19.4905 12.6981C19.2993 12.7216 19.1067 12.7244 18.9141 12.7313C18.6447 12.7396 18.3753 12.7465 18.0979 12.7493C18.0211 12.7493 18.009 12.7825 18.0103 12.8518C18.0211 13.108 18.0184 13.3643 18.0184 13.6316H18.013ZM17.5793 13.6385C17.5793 13.3726 17.5793 13.108 17.5793 12.8421C17.5793 12.7798 17.5712 12.7452 17.4972 12.7452C17.0527 12.7452 16.6082 12.7368 16.1665 12.7022C16.0991 12.7022 16.0816 12.7216 16.0803 12.7839C16.0668 13.338 16.0547 13.8809 16.0385 14.4294C16.0385 14.5055 16.0628 14.5235 16.1328 14.5235C16.5867 14.5235 17.0406 14.5235 17.4945 14.5346C17.5632 14.5346 17.5753 14.5055 17.5753 14.446C17.5847 14.1773 17.5847 13.9086 17.5847 13.6413L17.5793 13.6385Z" fill="#756762"/>
<path d="M19.3532 23.9321C18.912 23.9797 18.4676 23.9871 18.0252 23.9543C17.9888 23.9543 17.9632 23.9418 17.9673 23.8989C17.9794 23.7687 17.9444 23.6399 17.9444 23.5097C17.9444 23.4391 17.9686 23.4141 18.0346 23.4197C18.1289 23.4294 18.1478 23.3781 18.1235 23.295C18.0993 23.2119 18.0979 23.097 18.044 23.0374C17.9902 22.9779 17.8784 23.0166 17.7949 23.0194C17.5363 23.0305 17.4002 22.8463 17.2427 22.6828C17.512 22.6344 17.7558 22.6371 17.9659 22.8283L17.9767 22.8366L17.9686 22.8255C17.9481 22.7146 17.9089 22.6082 17.8528 22.5111C17.7426 22.2626 17.6171 22.0215 17.477 21.7895C17.4689 21.8698 17.5013 21.928 17.477 22.0014C17.4582 22.0443 17.4406 22.0762 17.3935 22.0817C17.3464 22.0873 17.3275 22.0471 17.31 22.0069C17.275 21.9266 17.31 21.8407 17.2804 21.7438C17.2319 21.8033 17.2144 21.8823 17.1551 21.9058C17.0958 21.9294 17.0474 21.9875 16.9921 21.9127C16.9793 21.8993 16.9693 21.8834 16.9626 21.8659C16.956 21.8484 16.9529 21.8296 16.9536 21.8108C16.9542 21.7921 16.9585 21.7736 16.9663 21.7566C16.9741 21.7396 16.9852 21.7244 16.9989 21.7119C17.0464 21.6675 17.0963 21.6259 17.1484 21.5873C17.0853 21.5773 17.0228 21.5639 16.9612 21.5471C16.91 21.5305 16.8494 21.5069 16.8601 21.4349C16.8709 21.3629 16.9288 21.3643 16.9813 21.3601H17.0218H17.0622L17.1363 21.3906C17.1605 21.4031 17.1834 21.4044 17.1969 21.3767C17.2103 21.349 17.1969 21.3338 17.1713 21.32C17.1591 21.2648 17.1396 21.2117 17.1134 21.1621C17.1012 21.1219 17.0891 21.0734 17.1228 21.0416C17.1564 21.0097 17.1942 21.0499 17.2251 21.0665C17.2771 21.0973 17.3164 21.1465 17.3356 21.205C17.3437 21.223 17.3491 21.2507 17.372 21.2507C17.3949 21.2507 17.4083 21.2175 17.4097 21.1967C17.4139 21.1615 17.4254 21.1277 17.4436 21.0976C17.4617 21.0674 17.486 21.0417 17.5147 21.0222C17.5538 20.9917 17.5982 20.9668 17.6494 21.0042C17.6721 21.02 17.6891 21.0432 17.6976 21.07C17.7061 21.0968 17.7058 21.1258 17.6965 21.1524C17.6804 21.2285 17.6131 21.2618 17.5807 21.3227C17.5807 21.3864 17.6144 21.3934 17.6561 21.3795C17.6997 21.3656 17.7458 21.3622 17.7908 21.3698C17.838 21.3698 17.8932 21.3878 17.8905 21.4529C17.8892 21.4797 17.8783 21.505 17.8599 21.5239C17.8415 21.5428 17.8168 21.5541 17.7908 21.5554C17.7599 21.5575 17.7288 21.5575 17.6979 21.5554C17.6763 21.5554 17.6535 21.5554 17.6494 21.5831C17.6454 21.6108 17.6615 21.6136 17.679 21.6205C17.7208 21.633 17.7437 21.6718 17.7747 21.6995C17.793 21.7131 17.8057 21.7334 17.8102 21.7562C17.8147 21.7791 17.8107 21.8028 17.7989 21.8227C17.7733 21.8684 17.7262 21.8518 17.6871 21.8477C17.648 21.8435 17.6306 21.8061 17.5821 21.8269L17.8178 22.2424C17.8137 22.1658 17.8137 22.0891 17.8178 22.0125C17.8461 21.8338 17.9969 21.7424 18.0872 21.6039C18.1141 21.5609 18.1289 21.6039 18.1397 21.6302C18.1605 21.7007 18.1713 21.774 18.172 21.8477C18.1867 21.9185 18.1831 21.9921 18.1616 22.0611C18.1401 22.1301 18.1014 22.1921 18.0494 22.241C18.0094 22.2792 17.9737 22.3219 17.943 22.3684C17.931 22.3834 17.9238 22.4018 17.9224 22.4211C17.9209 22.4405 17.9253 22.4598 17.9349 22.4765C18.0632 22.7496 18.1612 23.0367 18.2272 23.3324C18.2366 23.3684 18.2272 23.4169 18.277 23.4224C18.299 23.427 18.3217 23.4251 18.3426 23.417C18.3636 23.4089 18.3819 23.395 18.3956 23.3767C18.4124 23.3552 18.4351 23.3393 18.4608 23.3312C18.4865 23.3231 18.514 23.323 18.5397 23.331C18.5985 23.3495 18.6554 23.3741 18.7094 23.4044C18.7606 23.4238 18.7943 23.4266 18.7902 23.3518C18.7862 23.277 18.7902 23.1953 18.7902 23.1177C18.7902 23.0402 18.7754 23.0235 18.7107 23.0208C18.6523 23.0119 18.597 22.9876 18.5505 22.9501C18.4993 22.9183 18.4494 22.7576 18.475 22.7244C18.5006 22.6911 18.6097 22.7105 18.6784 22.7729L18.7902 22.8837C18.7943 22.8011 18.7943 22.7183 18.7902 22.6357C18.7902 22.5651 18.8346 22.4972 18.801 22.428C18.7024 22.2143 18.6344 21.9871 18.5989 21.7535C18.5882 21.6995 18.5734 21.6634 18.5047 21.6551C18.4643 21.6556 18.4249 21.6423 18.3927 21.6172C18.3605 21.5921 18.3373 21.5567 18.3269 21.5166C18.3053 21.4335 18.3376 21.4224 18.4023 21.428C18.4669 21.4335 18.5208 21.4862 18.5841 21.5208V21.32L18.6057 21.079C18.5289 21.1344 18.4373 21.2175 18.3713 21.115C18.2622 20.9418 18.4414 20.8878 18.541 20.7978C18.4804 20.7867 18.4306 20.7784 18.3821 20.7673C18.304 20.7479 18.2609 20.6995 18.2824 20.6136C18.304 20.5277 18.3794 20.518 18.4454 20.5416C18.508 20.5695 18.568 20.6034 18.6246 20.6427L18.6367 20.651V20.6371C18.6191 20.5878 18.6064 20.5367 18.5989 20.4848C18.5923 20.4586 18.5941 20.431 18.6041 20.406C18.6141 20.3811 18.6316 20.3601 18.6542 20.3463C18.6743 20.3331 18.6977 20.3261 18.7215 20.3261C18.7454 20.3261 18.7687 20.3331 18.7889 20.3463C18.8096 20.3615 18.8249 20.3832 18.8327 20.4082C18.8405 20.4331 18.8402 20.46 18.8319 20.4848C18.8198 20.5443 18.7996 20.6025 18.7794 20.6704C18.8575 20.6579 18.9141 20.6136 18.9828 20.6108C19.0515 20.608 19.1027 20.6496 19.1067 20.7299C19.1107 20.8103 19.0704 20.8463 18.9936 20.8449C18.9276 20.8494 18.8614 20.8414 18.7983 20.8213C18.8319 20.8934 18.8629 20.9488 18.8831 21.0069C18.9033 21.0651 18.9343 21.1454 18.8549 21.1718C18.7754 21.1981 18.7606 21.126 18.7377 21.0734C18.725 21.0468 18.7137 21.0196 18.704 20.9917C18.6806 21.097 18.6702 21.205 18.673 21.313C18.6438 21.4499 18.6438 21.5917 18.673 21.7285C18.6952 21.9159 18.748 22.0981 18.8293 22.2673C18.8468 22.1787 18.8643 22.1011 18.8777 22.0236C18.9208 21.7839 19.0124 21.5568 19.0703 21.3227L19.3869 20.6634C19.3537 20.6784 19.3195 20.6909 19.2845 20.7008C19.2714 20.706 19.2575 20.708 19.2435 20.7069C19.2296 20.7058 19.2161 20.7015 19.2039 20.6943C19.1918 20.6872 19.1814 20.6773 19.1735 20.6655C19.1655 20.6537 19.1602 20.6402 19.1579 20.626C19.1535 20.6124 19.1517 20.598 19.1527 20.5837C19.1537 20.5693 19.1574 20.5553 19.1637 20.5424C19.1699 20.5296 19.1786 20.5181 19.1891 20.5087C19.1997 20.4993 19.212 20.4921 19.2252 20.4875C19.2899 20.4557 19.3599 20.4875 19.4367 20.4446C19.3705 20.4042 19.3121 20.3516 19.2643 20.2895C19.2387 20.2493 19.2064 20.1967 19.2643 20.1593C19.2748 20.1526 19.2865 20.1482 19.2986 20.1465C19.3108 20.1448 19.3232 20.1457 19.335 20.1492C19.3469 20.1527 19.3578 20.1588 19.3672 20.167C19.3766 20.1752 19.3842 20.1853 19.3896 20.1967C19.4246 20.2507 19.4569 20.3075 19.4987 20.3767C19.4909 20.3018 19.4873 20.2264 19.4879 20.151C19.496 20.1039 19.5094 20.0416 19.5781 20.0623C19.6468 20.0831 19.6428 20.1274 19.6253 20.1828C19.6078 20.2382 19.5889 20.3033 19.5647 20.3809C19.6222 20.3491 19.6866 20.3329 19.7519 20.3338C19.8138 20.3338 19.8475 20.367 19.8488 20.4308C19.8502 20.4945 19.8259 20.5416 19.7573 20.5443C19.6886 20.5471 19.636 20.5208 19.6118 20.5443C19.5875 20.5679 19.6374 20.6371 19.6414 20.6828C19.6454 20.7285 19.6333 20.8213 19.5552 20.8297C19.4771 20.838 19.4421 20.7936 19.4367 20.7175C19.4371 20.6971 19.4309 20.6771 19.4192 20.6607L19.2118 21.1454C19.2683 21.1454 19.3047 21.1067 19.3465 21.1122C19.3882 21.1177 19.4232 21.1122 19.4394 21.1482C19.4555 21.1842 19.4259 21.2064 19.4057 21.2313L19.368 21.2812C19.3451 21.3 19.3179 21.3128 19.289 21.3184C19.2601 21.3239 19.2304 21.3221 19.2023 21.313C19.1538 21.2909 19.1444 21.3269 19.1296 21.3601C19.0439 21.5714 18.9785 21.7908 18.9343 22.0152C18.8955 22.1502 18.8747 22.29 18.8724 22.4308C18.9343 22.4238 18.9666 22.3712 19.0178 22.3532C19.0342 22.3436 19.0528 22.3386 19.0717 22.3386C19.0906 22.3386 19.1092 22.3436 19.1256 22.3532C19.1552 22.3767 19.1431 22.4197 19.1377 22.4529C19.1286 22.5057 19.1029 22.5539 19.0644 22.5899C19.0259 22.626 18.9768 22.648 18.9249 22.6524C18.8589 22.6648 18.8481 22.6925 18.8495 22.7493C18.8495 22.8629 18.8495 22.9765 18.8495 23.09C18.8495 23.1136 18.8387 23.1427 18.8643 23.1565C18.8899 23.1704 18.9114 23.1565 18.9289 23.1357C19.201 22.9297 19.4178 22.6562 19.5593 22.3407C19.5677 22.3257 19.5706 22.3079 19.5674 22.2909C19.5175 22.1524 19.5876 22.0679 19.6711 21.9765C19.6266 21.9391 19.5768 21.9571 19.5364 21.9585C19.5092 21.9615 19.4818 21.956 19.4577 21.9426C19.4336 21.9293 19.4141 21.9087 19.4017 21.8837C19.3913 21.863 19.3871 21.8396 19.3895 21.8165C19.3919 21.7934 19.4008 21.7714 19.4151 21.7535C19.4344 21.7334 19.4592 21.7199 19.4861 21.7147C19.5131 21.7095 19.541 21.7129 19.566 21.7244C19.5756 21.7284 19.5855 21.7317 19.5956 21.7341C19.6414 21.7341 19.667 21.8227 19.7128 21.7867C19.7586 21.7507 19.6967 21.7022 19.702 21.6565C19.7041 21.6247 19.7041 21.5928 19.702 21.5609C19.702 21.5152 19.702 21.4751 19.764 21.4695C19.7751 21.4676 19.7865 21.468 19.7974 21.4707C19.8083 21.4735 19.8187 21.4785 19.8276 21.4856C19.8366 21.4926 19.844 21.5014 19.8496 21.5115C19.8551 21.5216 19.8585 21.5328 19.8596 21.5443C19.8709 21.6212 19.8616 21.6997 19.8327 21.7715C19.8317 21.7876 19.8317 21.8038 19.8327 21.82C19.8933 21.7978 19.9 21.7341 19.9418 21.705C19.9835 21.6759 19.9997 21.6537 20.0307 21.633C20.039 21.6264 20.0485 21.6216 20.0586 21.6189C20.0688 21.6163 20.0793 21.6157 20.0897 21.6174C20.1 21.6191 20.1099 21.623 20.1188 21.6287C20.1276 21.6345 20.1352 21.6421 20.1411 21.651C20.1788 21.7008 20.1478 21.7424 20.1169 21.7729C20.0453 21.8389 19.9594 21.8864 19.8664 21.9114C19.9418 21.9418 20.001 21.9626 20.0549 21.9875C20.089 21.9964 20.1183 22.0186 20.1367 22.0494C20.1551 22.0802 20.161 22.1171 20.1532 22.1524C20.1496 22.1754 20.1392 22.1968 20.1232 22.2134C20.1073 22.23 20.0867 22.2411 20.0643 22.2452C20.0388 22.247 20.0131 22.2425 19.9897 22.2318C19.9662 22.2212 19.9456 22.2049 19.9297 22.1842C19.887 22.1303 19.8474 22.0739 19.8111 22.0152C19.814 22.0614 19.814 22.1076 19.8111 22.1538C19.8017 22.2313 19.7909 22.3116 19.6886 22.3199C19.667 22.3199 19.6562 22.3435 19.6455 22.3629C19.5922 22.4881 19.5258 22.607 19.4475 22.7175C19.526 22.6928 19.61 22.6928 19.6886 22.7175C19.7411 22.7465 19.764 22.7701 19.702 22.8227C19.6668 22.8645 19.6179 22.8917 19.5646 22.8991C19.5113 22.9065 19.4572 22.8936 19.4124 22.8629C19.4046 22.8559 19.3954 22.8508 19.3853 22.8481C19.3753 22.8453 19.3647 22.845 19.3546 22.8472C19.3444 22.8493 19.3349 22.8539 19.3267 22.8604C19.3185 22.867 19.3119 22.8754 19.3074 22.885C19.1964 23.024 19.0677 23.147 18.9249 23.2507C18.8966 23.2756 18.8737 23.2992 18.8845 23.3393C18.8953 23.3795 18.9383 23.374 18.9693 23.374C19.104 23.374 19.2387 23.3823 19.3626 23.374C19.4663 23.3657 19.4973 23.4072 19.4825 23.5055C19.4643 23.6172 19.4576 23.7304 19.4623 23.8435C19.4596 23.9515 19.4003 23.928 19.3532 23.9321Z" fill="#E7D5C6"/>
<path d="M18.5679 21.3172V21.518C18.5046 21.4834 18.4561 21.4294 18.3861 21.4252C18.316 21.4211 18.2891 21.4252 18.3106 21.5139C18.3211 21.554 18.3443 21.5893 18.3765 21.6144C18.4087 21.6395 18.448 21.6529 18.4884 21.6524C18.5571 21.6607 18.5719 21.6967 18.5827 21.7507C18.6181 21.9844 18.6862 22.2115 18.7847 22.4252C18.8184 22.4931 18.7672 22.5637 18.7739 22.633C18.7781 22.7155 18.7781 22.7983 18.7739 22.8809L18.6622 22.7701C18.5975 22.7077 18.4898 22.6814 18.4588 22.7216C18.4278 22.7618 18.483 22.9155 18.5342 22.9474C18.5808 22.9848 18.636 23.0092 18.6945 23.018C18.7591 23.018 18.7753 23.0568 18.7739 23.115C18.7726 23.1731 18.7739 23.2715 18.7739 23.349C18.7739 23.4266 18.7443 23.421 18.6932 23.4017C18.6392 23.3713 18.5823 23.3467 18.5234 23.3283C18.4977 23.3202 18.4702 23.3203 18.4446 23.3284C18.4189 23.3366 18.3962 23.3524 18.3793 23.374C18.3657 23.3922 18.3474 23.4061 18.3264 23.4142C18.3055 23.4223 18.2827 23.4242 18.2608 23.4197C18.2096 23.4197 18.2204 23.3656 18.211 23.3296C18.145 23.034 18.047 22.7469 17.9187 22.4737C17.9091 22.457 17.9047 22.4377 17.9061 22.4183C17.9076 22.399 17.9148 22.3806 17.9268 22.3656C17.9574 22.3191 17.9931 22.2764 18.0332 22.2382C18.0852 22.1893 18.1239 22.1273 18.1454 22.0583C18.1669 21.9893 18.1704 21.9157 18.1558 21.8449C18.1551 21.7712 18.1442 21.6979 18.1234 21.6274C18.1127 21.6066 18.0978 21.5582 18.0709 21.6011C17.9847 21.7396 17.8338 21.831 17.8015 22.0097C17.7975 22.0863 17.7975 22.163 17.8015 22.2396L17.5658 21.8241C17.6143 21.8033 17.6385 21.8421 17.6709 21.8449C17.7032 21.8476 17.7571 21.8656 17.7827 21.8199C17.7944 21.8 17.7984 21.7763 17.7939 21.7534C17.7895 21.7306 17.7768 21.7103 17.7584 21.6967C17.7274 21.669 17.7045 21.6302 17.6628 21.6177C17.6453 21.6108 17.6305 21.6025 17.6332 21.5803C17.6358 21.5582 17.6601 21.5526 17.6817 21.5526C17.7126 21.5547 17.7436 21.5547 17.7746 21.5526C17.8006 21.5513 17.8252 21.5401 17.8436 21.5211C17.862 21.5022 17.8729 21.4769 17.8742 21.4501C17.8742 21.385 17.8217 21.3726 17.7746 21.367C17.7296 21.3595 17.6834 21.3628 17.6399 21.3767C17.5981 21.3906 17.5577 21.3767 17.5645 21.3199L18.5679 21.3172Z" fill="#E7D5C6"/>
<path d="M19.0474 21.3199C18.9854 21.554 18.8979 21.7812 18.8548 22.0208C18.8413 22.0983 18.8238 22.1759 18.8063 22.2645C18.725 22.0953 18.6722 21.9131 18.6501 21.7258C18.6209 21.5889 18.6209 21.4471 18.6501 21.3102L19.0474 21.3199Z" fill="#E7D5C6"/>
<path d="M17.1684 21.3172C17.1873 21.331 17.2102 21.3449 17.194 21.374C17.1779 21.4031 17.1577 21.4003 17.1334 21.3878L17.0593 21.3574C17.0755 21.2895 17.1307 21.3269 17.1684 21.3172Z" fill="#E7D5C6"/>
<path d="M13.6506 8.09141C13.0862 8.09141 12.5731 7.92798 12.169 7.50693C11.913 7.26034 11.7349 6.94035 11.6578 6.58843C11.5807 6.23652 11.6082 5.86891 11.7367 5.53324C11.8982 5.05873 12.1919 4.64355 12.5812 4.33934C12.7819 4.17144 13.0336 4.08126 13.2923 4.08449C13.7557 4.07045 14.2134 4.19197 14.6122 4.43491C14.8598 4.5914 15.0691 4.8043 15.2239 5.05718C15.3787 5.31006 15.475 5.59615 15.5052 5.89335C15.5451 6.15627 15.533 6.42477 15.4696 6.68276C15.4062 6.94075 15.2928 7.18292 15.1362 7.39474C14.9952 7.58538 14.8178 7.7444 14.6149 7.86206C14.412 7.97971 14.1879 8.05352 13.9563 8.07895C13.9055 8.0877 13.8542 8.0937 13.8028 8.09695C13.7543 8.1011 13.6964 8.09141 13.6506 8.09141ZM14.1516 6.26732C14.0546 6.26732 13.928 6.26732 13.8001 6.26732C13.7327 6.26732 13.7125 6.28671 13.7139 6.35596C13.7219 6.77978 13.726 7.20361 13.7287 7.62881C13.7287 7.70361 13.7529 7.7216 13.8257 7.71606C14.1739 7.6884 14.5007 7.53234 14.746 7.27658C14.9912 7.02082 15.1384 6.68257 15.1604 6.3241C15.1685 6.2313 15.1348 6.21883 15.0567 6.22714C14.7739 6.25761 14.4748 6.259 14.1516 6.26732ZM14.421 5.8615C14.6311 5.8615 14.8412 5.8615 15.0513 5.8615C15.1187 5.8615 15.1442 5.84903 15.1281 5.77285C15.0573 5.43987 14.8888 5.1373 14.6452 4.90615C14.4016 4.67499 14.0948 4.52644 13.7664 4.48061C13.7058 4.46953 13.6789 4.48061 13.6856 4.55541C13.7166 4.96261 13.7139 5.3698 13.7112 5.77701C13.7112 5.85041 13.7368 5.86288 13.8014 5.8615C14.0115 5.85873 14.2176 5.8615 14.4237 5.8615H14.421ZM12.67 6.26732H12.1125C11.9885 6.26732 11.9778 6.2784 11.9993 6.40582C12.0545 6.72664 12.2045 7.02217 12.4289 7.25217C12.6532 7.48217 12.9411 7.63545 13.2532 7.69113C13.3394 7.70637 13.357 7.67729 13.3556 7.59419C13.3462 7.17867 13.3408 6.76316 13.3381 6.34765C13.3381 6.27147 13.3098 6.26177 13.2479 6.26316C13.0566 6.2687 12.864 6.26732 12.6714 6.26732H12.67ZM13.3233 5.15928V4.62742C13.3233 4.43352 13.3044 4.41967 13.1172 4.4723C13.051 4.49099 12.9872 4.51797 12.9273 4.55263C12.7717 4.64353 12.6315 4.76003 12.5125 4.89751C12.2813 5.15177 12.1151 5.46113 12.029 5.79778C12.0182 5.83795 11.9966 5.88366 12.0707 5.88366L13.2479 5.87396C13.3058 5.87396 13.33 5.85042 13.3287 5.78394C13.3219 5.57895 13.3246 5.36981 13.3246 5.16205L13.3233 5.15928Z" fill="#756762"/>
<path d="M7.67048 21.295C7.6343 21.3167 7.59187 21.3245 7.55062 21.3172H6.40039C6.40039 20.9806 6.40845 20.6454 6.4098 20.3089C6.4098 18.8103 6.4098 17.3116 6.4098 15.813C6.4098 15.7548 6.38961 15.6884 6.46504 15.6593H13.3233C13.3745 15.6801 13.3542 15.7271 13.3502 15.7604C13.3329 15.9681 13.3271 16.1766 13.3327 16.385C13.326 16.8837 13.3098 17.3823 13.3206 17.8809C13.3394 18.7576 13.3206 19.6343 13.3408 20.5125C13.3408 20.7812 13.3529 21.0499 13.3515 21.3172H12.1771C12.1364 21.3251 12.0944 21.3177 12.0586 21.2964C12.0438 21.1842 12.0397 21.0693 12.0357 20.9584C12.0195 20.4044 11.9845 19.8435 11.9549 19.2867C11.9347 18.9169 11.9091 18.5485 11.8848 18.1787C11.8718 17.8579 11.809 17.5414 11.6989 17.241C11.5742 16.8832 11.3504 16.5708 11.0551 16.3421C10.8451 16.1877 10.6032 16.0852 10.3483 16.0427C10.0934 16.0001 9.83247 16.0187 9.58572 16.0969C9.11467 16.2345 8.70502 16.5367 8.4274 16.9515C8.13243 17.367 8.03279 17.8615 7.94255 18.3504C7.86082 18.8152 7.80193 19.284 7.7661 19.7548C7.73781 20.0886 7.70818 20.4224 7.69336 20.7562C7.69067 20.9363 7.67586 21.1205 7.67048 21.295Z" fill="#A0D1CA"/>
<path d="M13.3287 15.6607H6.47046L7.2651 14.9529L8.83688 13.5679C9.17898 13.2673 9.52245 12.9668 9.86186 12.6634C9.87106 12.6513 9.8828 12.6416 9.89622 12.6348C9.90964 12.6281 9.92437 12.6246 9.9393 12.6246C9.95422 12.6246 9.96895 12.6281 9.98237 12.6348C9.99579 12.6416 10.0075 12.6513 10.0167 12.6634L11.8781 14.3338L13.256 15.5803C13.2815 15.6094 13.3044 15.6357 13.3287 15.6607ZM10.3656 14.1579C10.3752 14.121 10.3713 14.0817 10.3547 14.0475C10.338 14.0133 10.3098 13.9866 10.2754 13.9723C10.1999 13.9307 10.1555 13.9958 10.1097 14.0429C10.0705 14.0773 10.0364 14.1174 10.0087 14.162C9.98174 14.2147 9.95343 14.2091 9.91572 14.162C9.86533 14.0989 9.80531 14.0447 9.73796 14.0014C9.71626 13.9871 9.69101 13.9795 9.66522 13.9795C9.63944 13.9795 9.61419 13.9871 9.59249 14.0014C9.57107 14.0161 9.55471 14.0375 9.54576 14.0623C9.53681 14.0872 9.53572 14.1143 9.54264 14.1399C9.59961 14.4033 9.73695 14.6411 9.93459 14.8186C9.97769 14.8601 10.0194 14.8504 10.0531 14.7964C10.0868 14.7424 10.146 14.6579 10.1878 14.597C10.2772 14.466 10.3367 14.3159 10.3615 14.1579H10.3656Z" fill="#E7D5C6"/>
<path d="M7.67044 21.295C7.67044 21.1163 7.69064 20.9363 7.69872 20.7562C7.71353 20.4224 7.74317 20.0886 7.77145 19.7548C7.80728 19.284 7.86618 18.8152 7.9479 18.3504C8.03814 17.8615 8.13779 17.3698 8.43275 16.9515C8.71038 16.5367 9.12002 16.2345 9.59107 16.0969C9.83782 16.0187 10.0988 16.0001 10.3537 16.0426C10.6086 16.0852 10.8505 16.1877 11.0605 16.3421C11.3557 16.5708 11.5795 16.8832 11.7043 17.241C11.8144 17.5414 11.8772 17.8579 11.8902 18.1787C11.9144 18.5485 11.94 18.9169 11.9602 19.2867C11.9899 19.8407 12.0249 20.3947 12.041 20.9584C12.041 21.0693 12.0491 21.1842 12.0639 21.2964C12.0868 21.5526 12.0639 21.8116 12.0828 22.0679C12.1232 22.5055 12.1043 22.9432 12.1245 23.3809C12.142 23.7341 12.1339 24.0873 12.138 24.4404H10.0503C9.66514 24.4404 9.27861 24.4404 8.8934 24.4488C8.5082 24.4571 8.09469 24.4557 7.69602 24.4681C7.6206 23.4848 7.66369 22.4986 7.65426 21.5125C7.66821 21.4409 7.67365 21.3679 7.67044 21.295ZM11.307 20.964C11.3061 20.9968 11.312 21.0294 11.3242 21.0597C11.3364 21.09 11.3546 21.1173 11.3777 21.1399C11.4008 21.1625 11.4283 21.1798 11.4583 21.1908C11.4883 21.2018 11.5203 21.2061 11.5521 21.2036C11.5846 21.2006 11.6162 21.1911 11.645 21.1756C11.6739 21.1601 11.6996 21.1388 11.7205 21.1131C11.7414 21.0874 11.7571 21.0576 11.7668 21.0256C11.7765 20.9936 11.78 20.96 11.777 20.9266C11.777 20.7784 11.6989 20.6801 11.579 20.6801C11.5433 20.6804 11.508 20.6881 11.4752 20.7026C11.4424 20.7171 11.4127 20.7382 11.3879 20.7646C11.3631 20.791 11.3436 20.8223 11.3307 20.8565C11.3177 20.8907 11.3115 20.9273 11.3124 20.964H11.307Z" fill="#A0D1CA"/>
<path d="M17.8715 14.9737C18.4425 14.9737 19.0136 14.9737 19.586 14.9737C19.6736 14.9737 19.7086 14.9875 19.7113 15.0928C19.7355 16.0055 19.7005 16.9183 19.6951 17.831C19.6951 18.2064 19.6668 18.5803 19.6588 18.9557C19.6588 19.072 19.6184 19.1219 19.5025 19.1371C19.1361 19.1758 18.7678 19.1939 18.3994 19.1911C17.9307 19.1911 17.4634 19.1911 16.9947 19.1911C16.6849 19.1911 16.3751 19.1773 16.0653 19.1759C15.9845 19.1759 15.9697 19.1496 15.971 19.0734C15.9818 18.3199 15.9899 17.5651 16.0007 16.8116C16.007 16.3767 16.0146 15.9414 16.0236 15.5055C16.0236 15.367 16.0384 15.2285 16.0357 15.0817C16.0357 15.0014 16.0586 14.9806 16.1354 14.9806C16.6108 14.9806 17.0862 14.9806 17.5603 14.9806H17.8715V14.9737Z" fill="#E7D5C6"/>
<path d="M18.0183 13.6316C18.0183 13.3698 18.0183 13.108 18.0183 12.8463C18.0183 12.777 18.0291 12.7438 18.1058 12.7438C18.3752 12.7438 18.6446 12.7341 18.9221 12.7258C19.1147 12.7258 19.3073 12.7161 19.4985 12.6925C19.6076 12.6801 19.6332 12.7188 19.644 12.8172C19.6601 13.0609 19.683 13.3033 19.6884 13.5485C19.6884 13.8421 19.7005 14.1357 19.7113 14.4294C19.7113 14.5111 19.6884 14.5305 19.613 14.5291C19.1173 14.5291 18.6203 14.5291 18.1247 14.5291C18.0452 14.5291 18.0183 14.5097 18.021 14.4238C18.021 14.1579 18.021 13.892 18.021 13.626L18.0183 13.6316Z" fill="#E7D5C6"/>
<path d="M17.5846 13.6413C17.5846 13.9114 17.5846 14.1801 17.5846 14.4488C17.5846 14.5083 17.5725 14.5374 17.5038 14.5374C17.0499 14.5305 16.596 14.5277 16.1421 14.5263C16.072 14.5263 16.0451 14.5083 16.0478 14.4321C16.064 13.8781 16.0761 13.3352 16.0896 12.7867C16.0896 12.7244 16.1084 12.6994 16.1757 12.705C16.6175 12.7396 17.062 12.7479 17.5065 12.7479C17.5805 12.7479 17.5899 12.7825 17.5886 12.8449C17.5886 13.1108 17.5886 13.3753 17.5886 13.6413H17.5846Z" fill="#E7D5C6"/>
<path d="M18.6121 20.6343V20.6464L18.6016 20.6392L18.6121 20.6343Z" fill="#A0D1CA"/>
<path d="M17.9708 22.8255L17.9775 22.8347L17.9685 22.8278L17.9708 22.8255Z" fill="#E7D5C6"/>
<path d="M14.1516 6.26731C14.4748 6.259 14.7671 6.25762 15.0567 6.22576C15.1348 6.21745 15.1685 6.22576 15.1604 6.32271C15.1384 6.68119 14.9912 7.01943 14.746 7.27519C14.5007 7.53095 14.1739 7.68702 13.8257 7.71468C13.7529 7.71468 13.73 7.70222 13.7287 7.62743C13.7287 7.20222 13.7287 6.7784 13.7139 6.35457C13.7139 6.28532 13.7327 6.26316 13.8001 6.26593C13.928 6.27008 14.0546 6.26731 14.1516 6.26731Z" fill="#E7D5C6"/>
<path d="M14.4236 5.8615C14.2176 5.8615 14.0115 5.8615 13.8041 5.8615C13.7395 5.8615 13.7125 5.85041 13.7138 5.77701C13.7138 5.3698 13.7139 4.96261 13.6883 4.55541C13.6815 4.48477 13.7085 4.46953 13.7691 4.48061C14.0975 4.52644 14.4043 4.675 14.6479 4.90615C14.8914 5.1373 15.06 5.43987 15.1308 5.77286C15.1469 5.84903 15.1213 5.8615 15.054 5.8615C14.8439 5.8615 14.6338 5.8615 14.4236 5.8615Z" fill="#E7D5C6"/>
<path d="M12.6714 6.26731C12.864 6.26731 13.0566 6.26731 13.2492 6.26731C13.3111 6.26731 13.3394 6.27562 13.3394 6.3518C13.3394 6.76731 13.3475 7.18283 13.3569 7.59834C13.3569 7.68144 13.3408 7.71053 13.2546 7.69529C12.9424 7.63961 12.6545 7.48633 12.4302 7.25633C12.2058 7.02633 12.0558 6.73079 12.0006 6.40997C11.9818 6.28947 11.9899 6.27147 12.1138 6.27147H12.6714V6.26731Z" fill="#E7D5C6"/>
<path d="M13.3246 5.16205C13.3246 5.36981 13.3246 5.57756 13.3246 5.7867C13.3246 5.85318 13.3017 5.87673 13.2437 5.87673L12.0666 5.88643C11.9925 5.88643 12.0141 5.84072 12.0249 5.80055C12.111 5.4639 12.2772 5.15454 12.5084 4.90028C12.6274 4.7628 12.7675 4.6463 12.9232 4.5554C12.9831 4.52074 13.0468 4.49376 13.1131 4.47507C13.3003 4.42244 13.3192 4.43629 13.3192 4.63019V5.16205H13.3246Z" fill="#E7D5C6"/>
<path d="M10.3615 14.1579C10.3356 14.3178 10.2743 14.4694 10.1823 14.6011C10.1419 14.669 10.0921 14.7396 10.0476 14.8006C10.0032 14.8615 9.97223 14.8643 9.92913 14.8227C9.73149 14.6452 9.59418 14.4074 9.53721 14.144C9.53029 14.1185 9.53138 14.0914 9.54033 14.0665C9.54928 14.0416 9.56561 14.0203 9.58702 14.0055C9.60873 13.9912 9.63397 13.9836 9.65976 13.9836C9.68554 13.9836 9.71079 13.9912 9.7325 14.0055C9.79985 14.0488 9.85987 14.1031 9.91026 14.1662C9.94797 14.2064 9.97628 14.2119 10.0032 14.1662C10.031 14.1216 10.065 14.0814 10.1042 14.0471C10.15 14 10.1945 13.9349 10.2699 13.9765C10.3038 13.9904 10.3316 14.0164 10.3484 14.0497C10.3653 14.083 10.3699 14.1214 10.3615 14.1579Z" fill="#E7D5C6"/>
<path d="M11.3124 20.964C11.3113 20.9269 11.3174 20.89 11.3305 20.8554C11.3435 20.8209 11.3632 20.7893 11.3884 20.7627C11.4135 20.7361 11.4435 20.715 11.4768 20.7005C11.51 20.6861 11.5457 20.6787 11.5818 20.6787C11.7016 20.6787 11.7797 20.777 11.7797 20.9252C11.7827 20.9586 11.7792 20.9923 11.7695 21.0243C11.7598 21.0563 11.7441 21.086 11.7232 21.1117C11.7023 21.1374 11.6766 21.1587 11.6477 21.1742C11.6189 21.1897 11.5873 21.1993 11.5548 21.2022C11.5234 21.2043 11.4918 21.1997 11.4622 21.1886C11.4326 21.1776 11.4055 21.1603 11.3827 21.1379C11.3599 21.1155 11.3419 21.0885 11.3298 21.0585C11.3177 21.0286 11.3118 20.9964 11.3124 20.964Z" fill="#756762"/>
</g>
<defs>
<clipPath id="clip0_187_67">
<rect width="28" height="27" fill="white"/>
</clipPath>
</defs>
</svg>
