<svg width="65" height="65" viewBox="0 0 65 65" fill="none" xmlns="http://www.w3.org/2000/svg">
<g filter="url(#filter0_d_225_153)">
<circle cx="32.5" cy="29.5" r="20.5" fill="#71ACAB"/>
</g>
<path d="M28.1356 40.8167C28.1783 40.8594 28.1996 40.9127 28.1996 40.9766C28.1996 41.0264 28.1818 41.069 28.1463 41.1046C28.1818 41.1685 28.1996 41.2325 28.1996 41.2964C28.1996 41.3533 28.1854 41.4101 28.157 41.467C28.1712 41.5523 28.1783 41.6056 28.1783 41.6269C28.1783 41.7264 28.1214 41.8188 28.0077 41.9041C27.9224 41.968 27.8265 42 27.7199 42C27.5849 42 27.4641 41.9538 27.3575 41.8614C27.258 41.8472 27.1727 41.7939 27.1016 41.7015C27.0377 41.602 27.0163 41.4919 27.0377 41.3711C27.0021 41.3426 26.9595 41.3142 26.9097 41.2858C26.86 41.2502 26.8174 41.2147 26.7818 41.1792C26.7534 41.1365 26.7321 41.0868 26.7179 41.0299C26.6326 41.0015 26.5651 40.9518 26.5153 40.8807C26.4656 40.8025 26.4407 40.7172 26.4407 40.6249C26.4407 40.5893 26.4443 40.5609 26.4514 40.5396C26.359 40.5254 26.2808 40.4827 26.2168 40.4117C26.16 40.3335 26.128 40.2482 26.1209 40.1558C25.9788 40.0848 25.8757 40.0243 25.8118 39.9746C25.7478 39.9249 25.7087 39.8467 25.6945 39.7401C25.6234 39.7045 25.5524 39.6335 25.4813 39.5269C25.4102 39.4203 25.3676 39.3243 25.3534 39.2391C25.2255 39.1751 25.1508 39.0685 25.1295 38.9193C25.0656 38.8908 24.9945 38.8233 24.9163 38.7167C24.8382 38.603 24.7955 38.5035 24.7884 38.4182C24.6889 38.3827 24.593 38.301 24.5006 38.1731C24.4082 38.038 24.3549 37.903 24.3407 37.768C24.2838 37.7396 24.2163 37.6685 24.1381 37.5548C24.06 37.434 24.0102 37.3345 23.9889 37.2563C23.9321 37.1994 23.8681 37.1071 23.797 36.9791C23.726 36.8441 23.6798 36.7269 23.6584 36.6274C23.6016 36.5847 23.5412 36.5065 23.4772 36.3928C23.4133 36.2791 23.3706 36.1796 23.3493 36.0944C23.3635 36.137 23.3706 36.1974 23.3706 36.2756C23.3706 36.368 23.36 36.4248 23.3386 36.4461C23.3813 36.6167 23.4026 36.7588 23.4026 36.8725C23.4026 36.9152 23.3955 36.9649 23.3813 37.0218C23.4097 37.0857 23.4239 37.1817 23.4239 37.3096C23.4239 37.4233 23.4133 37.5121 23.3919 37.5761C23.4346 37.6258 23.4559 37.7111 23.4559 37.8319C23.4559 37.9385 23.4381 38.0274 23.4026 38.0984C23.4452 38.1695 23.4666 38.2406 23.4666 38.3116C23.4666 38.3898 23.4452 38.4715 23.4026 38.5568C23.3671 38.6421 23.3458 38.6954 23.3386 38.7167C23.4026 38.8091 23.4346 38.9655 23.4346 39.1858C23.4346 39.3137 23.4168 39.4238 23.3813 39.5162C23.4381 39.6086 23.4666 39.701 23.4666 39.7934C23.4666 39.8929 23.4275 40.035 23.3493 40.2198C23.4204 40.2908 23.4559 40.3903 23.4559 40.5183C23.4559 40.6604 23.4168 40.8025 23.3386 40.9447C23.3458 41.0086 23.3564 41.0975 23.3706 41.2112C23.3919 41.3249 23.4026 41.4173 23.4026 41.4883C23.4026 41.7939 23.2605 41.9467 22.9762 41.9467C22.8625 41.9467 22.7666 41.9076 22.6884 41.8294C22.6173 41.7513 22.5747 41.6553 22.5605 41.5416C22.5178 41.4421 22.4965 41.3355 22.4965 41.2218C22.4965 41.1081 22.5143 41.0051 22.5498 40.9127C22.5143 40.7848 22.4965 40.6639 22.4965 40.5502C22.4965 40.4579 22.5072 40.3797 22.5285 40.3157C22.5072 40.2375 22.4965 40.17 22.4965 40.1132C22.4965 40.0066 22.5178 39.9 22.5605 39.7934C22.5036 39.701 22.4752 39.5837 22.4752 39.4416C22.4752 39.2853 22.5107 39.1644 22.5818 39.0792C22.5249 38.9441 22.4965 38.8162 22.4965 38.6954C22.4965 38.5533 22.5285 38.4253 22.5924 38.3116C22.564 38.2406 22.5498 38.1837 22.5498 38.1411C22.5498 38.1198 22.5569 38.0807 22.5711 38.0238C22.4787 37.9314 22.4325 37.7822 22.4325 37.5761C22.4325 37.4695 22.4432 37.3665 22.4645 37.267C22.493 37.1675 22.5249 37.0964 22.5605 37.0538C22.4823 36.9116 22.4432 36.7304 22.4432 36.5101C22.4432 36.368 22.4645 36.2543 22.5072 36.169C22.4645 36.0908 22.4432 35.9913 22.4432 35.8705C22.4432 35.7213 22.4716 35.6004 22.5285 35.5081C22.5072 35.4512 22.4965 35.3695 22.4965 35.2629C22.4965 35.1634 22.5072 35.0959 22.5285 35.0603C22.5285 34.8827 22.5853 34.7441 22.699 34.6446C22.8128 34.5451 22.9478 34.4954 23.1041 34.4954C23.2605 34.4954 23.3919 34.5487 23.4985 34.6553C23.6123 34.7619 23.662 34.904 23.6478 35.0817C23.8112 35.103 23.964 35.2025 24.1062 35.3801C24.2483 35.5578 24.3158 35.7497 24.3087 35.9558C24.4011 36.0197 24.4899 36.1157 24.5752 36.2436C24.6676 36.3715 24.7173 36.4888 24.7244 36.5954C24.8168 36.6664 24.9163 36.7944 25.0229 36.9791C25.1295 37.1639 25.1864 37.3274 25.1935 37.4695C25.2788 37.4766 25.3676 37.5583 25.46 37.7147C25.5595 37.871 25.6163 38.0025 25.6305 38.1091C25.7016 38.1375 25.7727 38.2086 25.8437 38.3223C25.9148 38.436 25.9503 38.5355 25.9503 38.6208C26.0072 38.635 26.0569 38.6918 26.0996 38.7913C26.1493 38.8908 26.1671 38.969 26.1529 39.0259C26.3306 39.0969 26.4372 39.2213 26.4727 39.399C26.5509 39.3919 26.6361 39.438 26.7285 39.5375C26.8209 39.637 26.8778 39.7365 26.8991 39.836C26.9702 39.8644 27.0448 39.9284 27.1229 40.0279C27.2082 40.1203 27.2615 40.2091 27.2828 40.2944C27.2615 40.1878 27.2509 40.1096 27.2509 40.0599C27.2509 40.0101 27.2686 39.9675 27.3042 39.932C27.2331 39.8538 27.1976 39.7401 27.1976 39.5908C27.1976 39.5127 27.2082 39.4487 27.2295 39.399C27.1798 39.3137 27.1549 39.2355 27.1549 39.1644C27.1549 39.1005 27.1727 39.033 27.2082 38.9619C27.1372 38.8979 27.1016 38.7878 27.1016 38.6314C27.1016 38.5604 27.1123 38.5035 27.1336 38.4609C27.0768 38.3472 27.0483 38.2193 27.0483 38.0771C27.0483 38.0345 27.0554 37.9705 27.0696 37.8852C26.9915 37.7929 26.9524 37.6436 26.9524 37.4375C26.9524 37.267 26.9808 37.1426 27.0377 37.0644C27.0021 37.0147 26.9702 36.9472 26.9417 36.8619C26.9204 36.7695 26.9097 36.6842 26.9097 36.606C26.9097 36.471 26.9382 36.368 26.995 36.2969C26.9311 36.2329 26.8991 36.1441 26.8991 36.0304C26.8991 35.9522 26.9169 35.8527 26.9524 35.7319C26.8813 35.6253 26.8458 35.4974 26.8458 35.3482C26.8458 35.2345 26.8671 35.1456 26.9097 35.0817C26.8742 34.9893 26.8564 34.9075 26.8564 34.8365C26.8564 34.6943 26.9275 34.5949 27.0696 34.538C27.1478 34.5096 27.2189 34.4954 27.2828 34.4954C27.4037 34.4954 27.4889 34.5416 27.5387 34.6339C27.5955 34.7263 27.624 34.8365 27.624 34.9644C27.624 35.0355 27.6204 35.0852 27.6133 35.1136C27.6702 35.1563 27.7164 35.2345 27.7519 35.3482C27.7874 35.4619 27.8052 35.5791 27.8052 35.6999C27.8052 35.8065 27.791 35.8847 27.7625 35.9345C27.8123 36.0482 27.8372 36.1974 27.8372 36.3822C27.8372 36.5385 27.8194 36.6487 27.7839 36.7126C27.8265 36.7979 27.8478 36.9223 27.8478 37.0857C27.8478 37.2137 27.8336 37.306 27.8052 37.3629C27.8407 37.4198 27.8691 37.4979 27.8905 37.5974C27.9189 37.6898 27.9331 37.7786 27.9331 37.8639C27.9331 37.9847 27.9082 38.07 27.8585 38.1198C27.9082 38.1624 27.9473 38.2335 27.9757 38.333C28.0042 38.4325 28.0184 38.5355 28.0184 38.6421C28.0184 38.7345 28.0077 38.8127 27.9864 38.8766C28.0433 38.969 28.0717 39.0792 28.0717 39.2071C28.0717 39.3137 28.0539 39.3883 28.0184 39.4309C28.0397 39.4736 28.0575 39.5446 28.0717 39.6441C28.0859 39.7436 28.0859 39.8147 28.0717 39.8573C28.1428 39.9071 28.1783 40.0101 28.1783 40.1665C28.1783 40.2873 28.1534 40.3832 28.1037 40.4543C28.1392 40.5467 28.157 40.6213 28.157 40.6782C28.157 40.6995 28.1499 40.7457 28.1356 40.8167ZM33.0263 34.5167C33.0973 34.4669 33.1897 34.4421 33.3034 34.4421C33.4669 34.4421 33.6303 34.4954 33.7938 34.602C33.8719 34.602 33.9359 34.6339 33.9857 34.6979C34.0354 34.7619 34.0603 34.84 34.0603 34.9324C34.0603 35.0532 34.0247 35.1598 33.9537 35.2522C33.8826 35.3446 33.7831 35.3908 33.6552 35.3908C33.5628 35.3908 33.4633 35.3624 33.3567 35.3055C33.2999 35.3624 33.2252 35.3908 33.1329 35.3908C33.0334 35.3908 32.9303 35.3553 32.8237 35.2842C32.7526 35.3197 32.646 35.3375 32.5039 35.3375C32.2978 35.3375 32.1379 35.3055 32.0242 35.2416C31.9176 35.2913 31.8075 35.3162 31.6938 35.3162C31.6014 35.3162 31.5125 35.302 31.4273 35.2735C31.3349 35.3091 31.246 35.3268 31.1608 35.3268C31.047 35.3268 30.9333 35.2949 30.8196 35.2309C30.6917 35.302 30.578 35.3446 30.4785 35.3588C30.5283 35.4796 30.5531 35.6111 30.5531 35.7532C30.5531 35.9309 30.514 36.073 30.4359 36.1796C30.5212 36.3147 30.5638 36.4639 30.5638 36.6274C30.5638 36.7553 30.5318 36.8832 30.4679 37.0111C30.5318 37.0822 30.5638 37.171 30.5638 37.2776C30.5638 37.3487 30.5389 37.434 30.4892 37.5335C30.5531 37.4979 30.6313 37.4802 30.7237 37.4802C30.7948 37.4802 30.8445 37.4873 30.8729 37.5015C30.9511 37.4446 31.0364 37.4162 31.1288 37.4162C31.2212 37.4162 31.3135 37.4553 31.4059 37.5335C31.4912 37.5121 31.5623 37.5015 31.6191 37.5015C31.6547 37.5015 31.7151 37.5086 31.8004 37.5228C31.8856 37.5086 31.946 37.5015 31.9816 37.5015C32.1024 37.5015 32.1912 37.5299 32.2481 37.5868C32.3049 37.5512 32.3689 37.5335 32.44 37.5335C32.5252 37.5335 32.5785 37.5512 32.5999 37.5868C32.6638 37.5654 32.7136 37.5548 32.7491 37.5548C32.7988 37.5548 32.8664 37.569 32.9516 37.5974C33.044 37.5477 33.1329 37.5228 33.2181 37.5228C33.3389 37.5228 33.442 37.569 33.5273 37.6614C33.6126 37.7467 33.6552 37.8426 33.6552 37.9492C33.6552 38.0416 33.6232 38.1198 33.5593 38.1837C33.4953 38.2477 33.3958 38.2832 33.2608 38.2903C33.1968 38.3756 33.0902 38.4182 32.941 38.4182C32.8059 38.4182 32.6851 38.3827 32.5785 38.3116C32.5075 38.3827 32.4044 38.4182 32.2694 38.4182C32.1486 38.4182 32.0491 38.3898 31.9709 38.333C31.9141 38.3756 31.8537 38.3969 31.7897 38.3969C31.7471 38.3969 31.7115 38.3827 31.6831 38.3543C31.6049 38.4253 31.4983 38.4609 31.3633 38.4609C31.2638 38.4609 31.1714 38.4396 31.0861 38.3969C31.0151 38.4325 30.9547 38.4502 30.9049 38.4502C30.8338 38.4502 30.7628 38.4253 30.6917 38.3756C30.642 38.404 30.6029 38.4218 30.5745 38.4289C30.546 38.436 30.5069 38.436 30.4572 38.4289C30.5212 38.5568 30.5531 38.6563 30.5531 38.7274C30.5531 38.7913 30.5318 38.866 30.4892 38.9512C30.5389 39.0081 30.5638 39.0792 30.5638 39.1644C30.5638 39.2284 30.546 39.2959 30.5105 39.367C30.5602 39.4238 30.5851 39.4985 30.5851 39.5908C30.5851 39.6761 30.5602 39.7472 30.5105 39.804C30.5531 39.8893 30.5745 39.9568 30.5745 40.0066C30.5745 40.0492 30.546 40.1203 30.4892 40.2198C30.5176 40.2482 30.5318 40.2873 30.5318 40.337C30.5318 40.401 30.5105 40.4436 30.4679 40.465C30.5389 40.5289 30.5745 40.6106 30.5745 40.7101C30.5745 40.7457 30.5673 40.8061 30.5531 40.8914L30.6171 40.8807C30.6953 40.8807 30.777 40.9162 30.8623 40.9873C30.9689 40.9091 31.1075 40.87 31.278 40.87C31.342 40.87 31.4095 40.8771 31.4806 40.8914C31.5232 40.8416 31.5836 40.8025 31.6618 40.7741C31.7399 40.7457 31.8252 40.7315 31.9176 40.7315C32.0669 40.7315 32.1806 40.7634 32.2587 40.8274C32.3014 40.7563 32.376 40.6995 32.4826 40.6568C32.5892 40.6142 32.6958 40.5929 32.8024 40.5929C32.8806 40.5929 32.9445 40.6035 32.9943 40.6249C33.0724 40.5822 33.1435 40.5609 33.2075 40.5609C33.3212 40.5609 33.4207 40.6071 33.506 40.6995C33.5912 40.7919 33.6339 40.8985 33.6339 41.0193C33.6339 41.1685 33.5664 41.2858 33.4313 41.3711C33.4029 41.4279 33.3461 41.4777 33.2608 41.5203C33.1755 41.5558 33.0831 41.5736 32.9836 41.5736C32.8841 41.5736 32.8059 41.5558 32.7491 41.5203C32.6922 41.5772 32.6176 41.6269 32.5252 41.6695C32.4328 41.7051 32.3405 41.7228 32.2481 41.7228C32.1059 41.7228 31.9958 41.6838 31.9176 41.6056C31.7968 41.7335 31.6405 41.7975 31.4486 41.7975C31.413 41.7975 31.3526 41.7904 31.2674 41.7761C31.1252 41.8614 30.9866 41.9041 30.8516 41.9041C30.745 41.9041 30.6526 41.8756 30.5745 41.8188C30.4963 41.9396 30.3826 42 30.2333 42C30.1054 42 29.9917 41.9503 29.8922 41.8508C29.7998 41.7513 29.7678 41.634 29.7963 41.499C29.7536 41.4563 29.7217 41.3924 29.7003 41.3071C29.679 41.2218 29.6684 41.1365 29.6684 41.0513C29.6684 40.9873 29.6719 40.9411 29.679 40.9127C29.5866 40.8203 29.5404 40.6639 29.5404 40.4436C29.5404 40.3513 29.5511 40.266 29.5724 40.1878C29.5937 40.1025 29.6186 40.0421 29.647 40.0066C29.6115 39.9355 29.5937 39.8609 29.5937 39.7827C29.5937 39.7472 29.6008 39.701 29.6151 39.6441C29.5511 39.5802 29.5191 39.4949 29.5191 39.3883C29.5191 39.2888 29.544 39.2106 29.5937 39.1538C29.5582 39.0827 29.5404 39.0188 29.5404 38.9619C29.5404 38.8837 29.5653 38.8091 29.6151 38.738C29.5582 38.6101 29.5298 38.4858 29.5298 38.3649C29.5298 38.2157 29.576 38.0736 29.6684 37.9385C29.6257 37.8462 29.5866 37.7324 29.5511 37.5974C29.5227 37.4624 29.5085 37.3345 29.5085 37.2137C29.5085 36.9862 29.5618 36.8299 29.6684 36.7446C29.6328 36.5883 29.6151 36.5065 29.6151 36.4994C29.5724 36.3289 29.5511 36.2081 29.5511 36.137C29.5511 36.0304 29.576 35.9025 29.6257 35.7532C29.5902 35.7035 29.5618 35.6218 29.5404 35.5081C29.5191 35.3944 29.512 35.3126 29.5191 35.2629C29.4338 35.1776 29.3912 35.0746 29.3912 34.9537C29.3912 34.8614 29.4196 34.7761 29.4765 34.6979C29.5404 34.6126 29.6222 34.5558 29.7217 34.5273C29.7714 34.4776 29.8389 34.4385 29.9242 34.4101C30.0095 34.3745 30.0983 34.3568 30.1907 34.3568C30.3115 34.3568 30.4146 34.3888 30.4998 34.4527C30.6206 34.4172 30.7415 34.3994 30.8623 34.3994C31.0328 34.3994 31.1714 34.4385 31.278 34.5167C31.342 34.4883 31.4166 34.474 31.5019 34.474C31.58 34.474 31.6405 34.4918 31.6831 34.5273C31.7257 34.4918 31.8288 34.474 31.9922 34.474C32.2054 34.474 32.3724 34.5096 32.4933 34.5806C32.5714 34.5025 32.6674 34.4634 32.7811 34.4634C32.8521 34.4634 32.9339 34.4811 33.0263 34.5167ZM42.8071 35.1669C42.8427 35.2167 42.8604 35.2949 42.8604 35.4015C42.8604 35.4796 42.8462 35.5578 42.8178 35.636C42.7965 35.7142 42.7645 35.7746 42.7219 35.8172C42.7219 35.938 42.7112 36.0375 42.6899 36.1157C42.6686 36.1939 42.633 36.2649 42.5833 36.3289C42.5975 36.3857 42.6046 36.4319 42.6046 36.4675C42.6046 36.5598 42.5868 36.6522 42.5513 36.7446C42.5229 36.8299 42.4838 36.8939 42.434 36.9365C42.4696 37.0076 42.4873 37.0822 42.4873 37.1604C42.4873 37.2314 42.4731 37.306 42.4447 37.3842C42.4163 37.4553 42.3807 37.5157 42.3381 37.5654C42.3665 37.6223 42.3807 37.6934 42.3807 37.7786C42.3807 37.8568 42.3665 37.9385 42.3381 38.0238C42.3097 38.102 42.2706 38.166 42.2208 38.2157C42.2279 38.2512 42.2315 38.3081 42.2315 38.3863C42.2315 38.5426 42.1889 38.6776 42.1036 38.7913C42.1391 38.8766 42.1569 38.9512 42.1569 39.0152C42.1569 39.1431 42.1036 39.2675 41.997 39.3883C42.0325 39.4949 42.0503 39.5802 42.0503 39.6441C42.0503 39.7792 41.9899 39.8858 41.8691 39.9639C41.8833 39.9853 41.8904 40.0208 41.8904 40.0705C41.8904 40.1487 41.8691 40.2304 41.8264 40.3157C41.7838 40.401 41.7376 40.4579 41.6878 40.4863C41.7163 40.5431 41.7305 40.5893 41.7305 40.6249C41.7305 40.6959 41.7092 40.767 41.6665 40.8381C41.631 40.9091 41.5812 40.9482 41.5173 40.9553C41.5457 41.0051 41.5599 41.0655 41.5599 41.1365C41.5599 41.236 41.5315 41.3284 41.4746 41.4137C41.4249 41.499 41.3609 41.5523 41.2828 41.5736C41.2828 41.7086 41.2472 41.8152 41.1762 41.8934C41.1051 41.9645 41.0198 42 40.9203 42C40.8279 42 40.7427 41.968 40.6645 41.9041C40.5863 41.833 40.5437 41.7406 40.5366 41.6269C40.4797 41.5914 40.4229 41.5167 40.366 41.403C40.3091 41.2893 40.2807 41.1792 40.2807 41.0726C40.2807 41.0086 40.2914 40.9553 40.3127 40.9127C40.2203 40.8771 40.1421 40.8167 40.0782 40.7315C40.0213 40.6391 39.9929 40.5396 39.9929 40.433C39.9929 40.4046 40 40.3619 40.0142 40.3051C39.9076 40.2482 39.8223 40.17 39.7584 40.0705C39.6944 39.971 39.6624 39.8644 39.6624 39.7507C39.6624 39.6939 39.6731 39.6335 39.6944 39.5695C39.4741 39.4487 39.364 39.2497 39.364 38.9726C39.364 38.7949 39.3924 38.6492 39.4492 38.5355C39.2787 38.4786 39.1934 38.3507 39.1934 38.1517C39.1934 38.102 39.197 38.0665 39.2041 38.0451C39.1401 38.0167 39.0797 37.9421 39.0228 37.8213C38.9731 37.6934 38.9482 37.5797 38.9482 37.4802C38.9482 37.402 38.966 37.3451 39.0015 37.3096C38.9447 37.2954 38.8949 37.2492 38.8523 37.171C38.8167 37.0928 38.799 37.0076 38.799 36.9152C38.799 36.8583 38.8096 36.805 38.831 36.7553C38.8025 36.7269 38.7812 36.6878 38.767 36.638C38.7741 36.773 38.7492 36.9045 38.6924 37.0324C38.6426 37.1533 38.5716 37.2421 38.4792 37.2989C38.5147 37.3416 38.5325 37.402 38.5325 37.4802C38.5325 37.5654 38.5112 37.6578 38.4685 37.7573C38.4259 37.8497 38.3832 37.9243 38.3406 37.9812C38.3619 38.0309 38.3726 38.0913 38.3726 38.1624C38.3726 38.2548 38.3548 38.3436 38.3193 38.4289C38.2909 38.5071 38.2482 38.571 38.1914 38.6208C38.2056 38.6563 38.2127 38.7167 38.2127 38.802C38.2127 38.9086 38.1914 39.0188 38.1487 39.1325C38.1132 39.2391 38.0599 39.3243 37.9888 39.3883C38.0101 39.4594 38.0208 39.5304 38.0208 39.6015C38.0208 39.6939 38.003 39.7792 37.9675 39.8573C37.932 39.9355 37.8822 39.9959 37.8183 40.0386C37.8325 40.1736 37.8112 40.3157 37.7543 40.465C37.7046 40.6142 37.6264 40.7137 37.5198 40.7634C37.5624 40.8345 37.5837 40.9162 37.5837 41.0086C37.5837 41.1152 37.5553 41.2218 37.4985 41.3284C37.4416 41.4279 37.3705 41.499 37.2853 41.5416C37.2782 41.6553 37.232 41.7584 37.1467 41.8508C37.0685 41.9431 36.969 41.9893 36.8482 41.9893C36.6847 41.9893 36.5462 41.9218 36.4325 41.7868C36.3259 41.6518 36.2726 41.4954 36.2726 41.3178C36.2726 41.2183 36.2939 41.1259 36.3365 41.0406C36.2583 41.0051 36.1944 40.9411 36.1446 40.8487C36.102 40.7563 36.0807 40.6604 36.0807 40.5609C36.0807 40.4898 36.0913 40.4294 36.1127 40.3797C36.0629 40.3299 36.0238 40.2624 35.9954 40.1771C35.967 40.0919 35.9528 40.003 35.9528 39.9106C35.9528 39.8254 35.9634 39.7578 35.9847 39.7081C35.9066 39.6655 35.8462 39.6015 35.8035 39.5162C35.768 39.4238 35.7502 39.3279 35.7502 39.2284C35.7502 39.1218 35.768 39.0472 35.8035 39.0045C35.6756 38.9548 35.6116 38.8695 35.6116 38.7487C35.6116 38.7203 35.6259 38.6634 35.6543 38.5781C35.5761 38.5213 35.537 38.436 35.537 38.3223C35.537 38.2583 35.5512 38.2015 35.5797 38.1517C35.4375 38.0736 35.3736 37.9314 35.3878 37.7253C35.3167 37.6756 35.267 37.6116 35.2385 37.5335C35.2101 37.4553 35.203 37.3771 35.2172 37.2989C35.1177 37.1994 35.068 37.0857 35.068 36.9578C35.068 36.8939 35.0786 36.837 35.1 36.7873C35.0644 36.7517 35.036 36.7055 35.0147 36.6487C34.9934 36.5918 34.9827 36.5385 34.9827 36.4888C34.9827 36.4319 34.9898 36.3928 35.004 36.3715C34.9045 36.3005 34.8548 36.1974 34.8548 36.0624C34.8548 35.9629 34.8761 35.8776 34.9187 35.8065C34.8619 35.7852 34.8086 35.7213 34.7588 35.6147C34.7162 35.5081 34.6949 35.4015 34.6949 35.2949C34.6949 35.238 34.7091 35.174 34.7375 35.103C34.6878 35.0035 34.6629 34.904 34.6629 34.8045C34.6629 34.6766 34.6984 34.5735 34.7695 34.4954C34.8477 34.4172 34.9543 34.3781 35.0893 34.3781C35.2314 34.3781 35.3416 34.4527 35.4198 34.602C35.505 34.7441 35.5477 34.9004 35.5477 35.071L35.537 35.1776C35.6152 35.2487 35.6792 35.3482 35.7289 35.4761C35.7786 35.604 35.8035 35.7319 35.8035 35.8598C35.8035 35.9309 35.8 35.9807 35.7929 36.0091C35.8781 36.0944 35.9208 36.1867 35.9208 36.2862C35.9208 36.336 35.9172 36.3786 35.9101 36.4142C35.9457 36.4355 35.9741 36.4746 35.9954 36.5314C36.0238 36.5812 36.038 36.638 36.038 36.702C36.038 36.773 36.0238 36.837 35.9954 36.8939C36.0594 36.9862 36.0913 37.0644 36.0913 37.1284C36.1553 37.1639 36.205 37.2243 36.2406 37.3096C36.2761 37.3949 36.2939 37.4837 36.2939 37.5761C36.2939 37.633 36.2903 37.672 36.2832 37.6934C36.4182 37.8426 36.4858 37.9989 36.4858 38.1624C36.4858 38.205 36.4822 38.237 36.4751 38.2583C36.5106 38.2868 36.5426 38.3365 36.571 38.4076C36.5995 38.4786 36.6137 38.5497 36.6137 38.6208C36.6137 38.6634 36.6101 38.6918 36.603 38.7061C36.6812 38.7913 36.7132 38.9335 36.699 39.1325C36.7771 39.2106 36.8162 39.303 36.8162 39.4096C36.8162 39.4807 36.7949 39.5482 36.7523 39.6122C36.7878 39.6264 36.8198 39.6974 36.8482 39.8254C36.8837 39.9462 36.9015 40.0599 36.9015 40.1665C36.9015 40.0528 36.9086 39.9533 36.9228 39.868C36.9441 39.7756 36.9726 39.7259 37.0081 39.7188C37.001 39.5908 37.0152 39.4842 37.0507 39.399C37.0934 39.3066 37.1431 39.2533 37.2 39.2391C37.1858 39.168 37.1964 39.0685 37.232 38.9406C37.2746 38.8056 37.3243 38.7096 37.3812 38.6528C37.3812 38.5106 37.3954 38.3898 37.4238 38.2903C37.4594 38.1837 37.502 38.102 37.5518 38.0451C37.5375 38.0025 37.5304 37.9599 37.5304 37.9172C37.5304 37.8248 37.5482 37.7289 37.5837 37.6294C37.6264 37.5299 37.669 37.4731 37.7117 37.4588C37.7046 37.4304 37.701 37.3736 37.701 37.2883C37.701 37.0893 37.7472 36.9685 37.8396 36.9258C37.8254 36.869 37.8183 36.8157 37.8183 36.7659C37.8183 36.6522 37.836 36.5385 37.8716 36.4248C37.9142 36.3111 37.9604 36.24 38.0101 36.2116C37.9959 36.1406 37.9888 36.0873 37.9888 36.0517C37.9888 35.9664 38.003 35.8847 38.0315 35.8065C38.067 35.7213 38.1096 35.6609 38.1594 35.6253C38.1523 35.5827 38.1487 35.5223 38.1487 35.4441C38.1487 35.2735 38.202 35.1243 38.3086 34.9964C38.337 34.8969 38.3868 34.8223 38.4579 34.7725C38.536 34.7228 38.6178 34.6979 38.703 34.6979C38.8239 34.6979 38.934 34.7405 39.0335 34.8258C39.133 34.904 39.1827 35.007 39.1827 35.135C39.1827 35.1989 39.1756 35.2487 39.1614 35.2842C39.2041 35.3055 39.2431 35.3517 39.2787 35.4228C39.3142 35.4938 39.332 35.5614 39.332 35.6253C39.332 35.6466 39.3249 35.6786 39.3107 35.7213C39.3959 35.7284 39.4635 35.7923 39.5132 35.9131C39.5701 36.034 39.5878 36.1334 39.5665 36.2116C39.6873 36.3182 39.7477 36.4568 39.7477 36.6274C39.7477 36.67 39.7406 36.7269 39.7264 36.7979C39.7761 36.8548 39.8152 36.9329 39.8437 37.0324C39.8792 37.1248 39.897 37.2172 39.897 37.3096C39.897 37.3593 39.8899 37.4126 39.8756 37.4695C39.9396 37.4979 39.9929 37.569 40.0355 37.6827C40.0853 37.7964 40.1102 37.9243 40.1102 38.0665C40.1102 38.1304 40.1066 38.1802 40.0995 38.2157C40.1777 38.2583 40.2381 38.333 40.2807 38.4396C40.3305 38.5462 40.3553 38.6528 40.3553 38.7594C40.3553 38.802 40.3482 38.8446 40.334 38.8873C40.4051 38.9441 40.4655 39.0792 40.5152 39.2924C40.565 39.4985 40.5792 39.6335 40.5579 39.6974C40.6218 39.733 40.6787 39.8111 40.7284 39.932C40.7853 40.0457 40.8208 40.1807 40.835 40.337C40.835 40.1807 40.8457 40.0634 40.867 39.9853C40.8883 39.9 40.9345 39.8005 41.0056 39.6868C40.9772 39.6299 40.963 39.5589 40.963 39.4736C40.963 39.3812 40.9807 39.2924 41.0163 39.2071C41.0589 39.1218 41.1122 39.0578 41.1762 39.0152C41.1477 38.9655 41.1335 38.905 41.1335 38.834C41.1335 38.7416 41.1513 38.6457 41.1868 38.5462C41.2224 38.4396 41.265 38.3578 41.3147 38.301C41.2934 38.2441 41.2828 38.1908 41.2828 38.1411C41.2828 38.0629 41.3112 37.9847 41.368 37.9066C41.3467 37.8497 41.3361 37.7964 41.3361 37.7467C41.3361 37.6756 41.3574 37.6045 41.4 37.5335C41.4498 37.4553 41.4853 37.3949 41.5066 37.3522C41.464 37.2741 41.4427 37.1817 41.4427 37.0751C41.4427 36.9685 41.4604 36.869 41.496 36.7766C41.5386 36.6771 41.5919 36.6025 41.6559 36.5527C41.6416 36.439 41.6523 36.3147 41.6878 36.1796C41.7305 36.0446 41.7802 35.938 41.8371 35.8598C41.8087 35.7035 41.7944 35.6004 41.7944 35.5507C41.7944 35.4299 41.83 35.3126 41.901 35.1989C41.8939 35.1776 41.8904 35.1456 41.8904 35.103C41.8904 34.9395 41.9401 34.7796 42.0396 34.6233C42.1462 34.4598 42.2777 34.3781 42.434 34.3781C42.7183 34.3781 42.8604 34.5167 42.8604 34.7938C42.8604 34.8436 42.8427 34.968 42.8071 35.1669Z" fill="white"/>
<path d="M28.6356 40.8167C28.6783 40.8594 28.6996 40.9127 28.6996 40.9766C28.6996 41.0264 28.6818 41.069 28.6463 41.1046C28.6818 41.1685 28.6996 41.2325 28.6996 41.2964C28.6996 41.3533 28.6854 41.4101 28.657 41.467C28.6712 41.5523 28.6783 41.6056 28.6783 41.6269C28.6783 41.7264 28.6214 41.8188 28.5077 41.9041C28.4224 41.968 28.3265 42 28.2199 42C28.0849 42 27.9641 41.9538 27.8575 41.8614C27.758 41.8472 27.6727 41.7939 27.6016 41.7015C27.5377 41.602 27.5163 41.4919 27.5377 41.3711C27.5021 41.3426 27.4595 41.3142 27.4097 41.2858C27.36 41.2502 27.3174 41.2147 27.2818 41.1792C27.2534 41.1365 27.2321 41.0868 27.2179 41.0299C27.1326 41.0015 27.0651 40.9518 27.0153 40.8807C26.9656 40.8025 26.9407 40.7172 26.9407 40.6249C26.9407 40.5893 26.9443 40.5609 26.9514 40.5396C26.859 40.5254 26.7808 40.4827 26.7168 40.4117C26.66 40.3335 26.628 40.2482 26.6209 40.1558C26.4788 40.0848 26.3757 40.0243 26.3118 39.9746C26.2478 39.9249 26.2087 39.8467 26.1945 39.7401C26.1234 39.7045 26.0524 39.6335 25.9813 39.5269C25.9102 39.4203 25.8676 39.3243 25.8534 39.2391C25.7255 39.1751 25.6508 39.0685 25.6295 38.9193C25.5656 38.8908 25.4945 38.8233 25.4163 38.7167C25.3382 38.603 25.2955 38.5035 25.2884 38.4182C25.1889 38.3827 25.093 38.301 25.0006 38.1731C24.9082 38.038 24.8549 37.903 24.8407 37.768C24.7838 37.7396 24.7163 37.6685 24.6381 37.5548C24.56 37.434 24.5102 37.3345 24.4889 37.2563C24.4321 37.1994 24.3681 37.1071 24.297 36.9791C24.226 36.8441 24.1798 36.7269 24.1584 36.6274C24.1016 36.5847 24.0412 36.5065 23.9772 36.3928C23.9133 36.2791 23.8706 36.1796 23.8493 36.0944C23.8635 36.137 23.8706 36.1974 23.8706 36.2756C23.8706 36.368 23.86 36.4248 23.8386 36.4461C23.8813 36.6167 23.9026 36.7588 23.9026 36.8725C23.9026 36.9152 23.8955 36.9649 23.8813 37.0218C23.9097 37.0857 23.9239 37.1817 23.9239 37.3096C23.9239 37.4233 23.9133 37.5121 23.8919 37.5761C23.9346 37.6258 23.9559 37.7111 23.9559 37.8319C23.9559 37.9385 23.9381 38.0274 23.9026 38.0984C23.9452 38.1695 23.9666 38.2406 23.9666 38.3116C23.9666 38.3898 23.9452 38.4715 23.9026 38.5568C23.8671 38.6421 23.8458 38.6954 23.8386 38.7167C23.9026 38.8091 23.9346 38.9655 23.9346 39.1858C23.9346 39.3137 23.9168 39.4238 23.8813 39.5162C23.9381 39.6086 23.9666 39.701 23.9666 39.7934C23.9666 39.8929 23.9275 40.035 23.8493 40.2198C23.9204 40.2908 23.9559 40.3903 23.9559 40.5183C23.9559 40.6604 23.9168 40.8025 23.8386 40.9447C23.8458 41.0086 23.8564 41.0975 23.8706 41.2112C23.8919 41.3249 23.9026 41.4173 23.9026 41.4883C23.9026 41.7939 23.7605 41.9467 23.4762 41.9467C23.3625 41.9467 23.2666 41.9076 23.1884 41.8294C23.1173 41.7513 23.0747 41.6553 23.0605 41.5416C23.0178 41.4421 22.9965 41.3355 22.9965 41.2218C22.9965 41.1081 23.0143 41.0051 23.0498 40.9127C23.0143 40.7848 22.9965 40.6639 22.9965 40.5502C22.9965 40.4579 23.0072 40.3797 23.0285 40.3157C23.0072 40.2375 22.9965 40.17 22.9965 40.1132C22.9965 40.0066 23.0178 39.9 23.0605 39.7934C23.0036 39.701 22.9752 39.5837 22.9752 39.4416C22.9752 39.2853 23.0107 39.1644 23.0818 39.0792C23.0249 38.9441 22.9965 38.8162 22.9965 38.6954C22.9965 38.5533 23.0285 38.4253 23.0924 38.3116C23.064 38.2406 23.0498 38.1837 23.0498 38.1411C23.0498 38.1198 23.0569 38.0807 23.0711 38.0238C22.9787 37.9314 22.9325 37.7822 22.9325 37.5761C22.9325 37.4695 22.9432 37.3665 22.9645 37.267C22.993 37.1675 23.0249 37.0964 23.0605 37.0538C22.9823 36.9116 22.9432 36.7304 22.9432 36.5101C22.9432 36.368 22.9645 36.2543 23.0072 36.169C22.9645 36.0908 22.9432 35.9913 22.9432 35.8705C22.9432 35.7213 22.9716 35.6004 23.0285 35.5081C23.0072 35.4512 22.9965 35.3695 22.9965 35.2629C22.9965 35.1634 23.0072 35.0959 23.0285 35.0603C23.0285 34.8827 23.0853 34.7441 23.199 34.6446C23.3128 34.5451 23.4478 34.4954 23.6041 34.4954C23.7605 34.4954 23.8919 34.5487 23.9985 34.6553C24.1123 34.7619 24.162 34.904 24.1478 35.0817C24.3112 35.103 24.464 35.2025 24.6062 35.3801C24.7483 35.5578 24.8158 35.7497 24.8087 35.9558C24.9011 36.0197 24.9899 36.1157 25.0752 36.2436C25.1676 36.3715 25.2173 36.4888 25.2244 36.5954C25.3168 36.6664 25.4163 36.7944 25.5229 36.9791C25.6295 37.1639 25.6864 37.3274 25.6935 37.4695C25.7788 37.4766 25.8676 37.5583 25.96 37.7147C26.0595 37.871 26.1163 38.0025 26.1305 38.1091C26.2016 38.1375 26.2727 38.2086 26.3437 38.3223C26.4148 38.436 26.4503 38.5355 26.4503 38.6208C26.5072 38.635 26.5569 38.6918 26.5996 38.7913C26.6493 38.8908 26.6671 38.969 26.6529 39.0259C26.8306 39.0969 26.9372 39.2213 26.9727 39.399C27.0509 39.3919 27.1361 39.438 27.2285 39.5375C27.3209 39.637 27.3778 39.7365 27.3991 39.836C27.4702 39.8644 27.5448 39.9284 27.6229 40.0279C27.7082 40.1203 27.7615 40.2091 27.7828 40.2944C27.7615 40.1878 27.7509 40.1096 27.7509 40.0599C27.7509 40.0101 27.7686 39.9675 27.8042 39.932C27.7331 39.8538 27.6976 39.7401 27.6976 39.5908C27.6976 39.5127 27.7082 39.4487 27.7295 39.399C27.6798 39.3137 27.6549 39.2355 27.6549 39.1644C27.6549 39.1005 27.6727 39.033 27.7082 38.9619C27.6372 38.8979 27.6016 38.7878 27.6016 38.6314C27.6016 38.5604 27.6123 38.5035 27.6336 38.4609C27.5768 38.3472 27.5483 38.2193 27.5483 38.0771C27.5483 38.0345 27.5554 37.9705 27.5696 37.8852C27.4915 37.7929 27.4524 37.6436 27.4524 37.4375C27.4524 37.267 27.4808 37.1426 27.5377 37.0644C27.5021 37.0147 27.4702 36.9472 27.4417 36.8619C27.4204 36.7695 27.4097 36.6842 27.4097 36.606C27.4097 36.471 27.4382 36.368 27.495 36.2969C27.4311 36.2329 27.3991 36.1441 27.3991 36.0304C27.3991 35.9522 27.4169 35.8527 27.4524 35.7319C27.3813 35.6253 27.3458 35.4974 27.3458 35.3482C27.3458 35.2345 27.3671 35.1456 27.4097 35.0817C27.3742 34.9893 27.3564 34.9075 27.3564 34.8365C27.3564 34.6943 27.4275 34.5949 27.5696 34.538C27.6478 34.5096 27.7189 34.4954 27.7828 34.4954C27.9037 34.4954 27.9889 34.5416 28.0387 34.6339C28.0955 34.7263 28.124 34.8365 28.124 34.9644C28.124 35.0355 28.1204 35.0852 28.1133 35.1136C28.1702 35.1563 28.2164 35.2345 28.2519 35.3482C28.2874 35.4619 28.3052 35.5791 28.3052 35.6999C28.3052 35.8065 28.291 35.8847 28.2625 35.9345C28.3123 36.0482 28.3372 36.1974 28.3372 36.3822C28.3372 36.5385 28.3194 36.6487 28.2839 36.7126C28.3265 36.7979 28.3478 36.9223 28.3478 37.0857C28.3478 37.2137 28.3336 37.306 28.3052 37.3629C28.3407 37.4198 28.3691 37.4979 28.3905 37.5974C28.4189 37.6898 28.4331 37.7786 28.4331 37.8639C28.4331 37.9847 28.4082 38.07 28.3585 38.1198C28.4082 38.1624 28.4473 38.2335 28.4757 38.333C28.5042 38.4325 28.5184 38.5355 28.5184 38.6421C28.5184 38.7345 28.5077 38.8127 28.4864 38.8766C28.5433 38.969 28.5717 39.0792 28.5717 39.2071C28.5717 39.3137 28.5539 39.3883 28.5184 39.4309C28.5397 39.4736 28.5575 39.5446 28.5717 39.6441C28.5859 39.7436 28.5859 39.8147 28.5717 39.8573C28.6428 39.9071 28.6783 40.0101 28.6783 40.1665C28.6783 40.2873 28.6534 40.3832 28.6037 40.4543C28.6392 40.5467 28.657 40.6213 28.657 40.6782C28.657 40.6995 28.6499 40.7457 28.6356 40.8167ZM33.5263 34.5167C33.5973 34.4669 33.6897 34.4421 33.8034 34.4421C33.9669 34.4421 34.1303 34.4954 34.2938 34.602C34.3719 34.602 34.4359 34.6339 34.4857 34.6979C34.5354 34.7619 34.5603 34.84 34.5603 34.9324C34.5603 35.0532 34.5247 35.1598 34.4537 35.2522C34.3826 35.3446 34.2831 35.3908 34.1552 35.3908C34.0628 35.3908 33.9633 35.3624 33.8567 35.3055C33.7999 35.3624 33.7252 35.3908 33.6329 35.3908C33.5334 35.3908 33.4303 35.3553 33.3237 35.2842C33.2526 35.3197 33.146 35.3375 33.0039 35.3375C32.7978 35.3375 32.6379 35.3055 32.5242 35.2416C32.4176 35.2913 32.3075 35.3162 32.1938 35.3162C32.1014 35.3162 32.0125 35.302 31.9273 35.2735C31.8349 35.3091 31.746 35.3268 31.6608 35.3268C31.547 35.3268 31.4333 35.2949 31.3196 35.2309C31.1917 35.302 31.078 35.3446 30.9785 35.3588C31.0283 35.4796 31.0531 35.6111 31.0531 35.7532C31.0531 35.9309 31.014 36.073 30.9359 36.1796C31.0212 36.3147 31.0638 36.4639 31.0638 36.6274C31.0638 36.7553 31.0318 36.8832 30.9679 37.0111C31.0318 37.0822 31.0638 37.171 31.0638 37.2776C31.0638 37.3487 31.0389 37.434 30.9892 37.5335C31.0531 37.4979 31.1313 37.4802 31.2237 37.4802C31.2948 37.4802 31.3445 37.4873 31.3729 37.5015C31.4511 37.4446 31.5364 37.4162 31.6288 37.4162C31.7212 37.4162 31.8135 37.4553 31.9059 37.5335C31.9912 37.5121 32.0623 37.5015 32.1191 37.5015C32.1547 37.5015 32.2151 37.5086 32.3004 37.5228C32.3856 37.5086 32.446 37.5015 32.4816 37.5015C32.6024 37.5015 32.6912 37.5299 32.7481 37.5868C32.8049 37.5512 32.8689 37.5335 32.94 37.5335C33.0252 37.5335 33.0785 37.5512 33.0999 37.5868C33.1638 37.5654 33.2136 37.5548 33.2491 37.5548C33.2988 37.5548 33.3664 37.569 33.4516 37.5974C33.544 37.5477 33.6329 37.5228 33.7181 37.5228C33.8389 37.5228 33.942 37.569 34.0273 37.6614C34.1126 37.7467 34.1552 37.8426 34.1552 37.9492C34.1552 38.0416 34.1232 38.1198 34.0593 38.1837C33.9953 38.2477 33.8958 38.2832 33.7608 38.2903C33.6968 38.3756 33.5902 38.4182 33.441 38.4182C33.3059 38.4182 33.1851 38.3827 33.0785 38.3116C33.0075 38.3827 32.9044 38.4182 32.7694 38.4182C32.6486 38.4182 32.5491 38.3898 32.4709 38.333C32.4141 38.3756 32.3537 38.3969 32.2897 38.3969C32.2471 38.3969 32.2115 38.3827 32.1831 38.3543C32.1049 38.4253 31.9983 38.4609 31.8633 38.4609C31.7638 38.4609 31.6714 38.4396 31.5861 38.3969C31.5151 38.4325 31.4547 38.4502 31.4049 38.4502C31.3338 38.4502 31.2628 38.4253 31.1917 38.3756C31.142 38.404 31.1029 38.4218 31.0745 38.4289C31.046 38.436 31.0069 38.436 30.9572 38.4289C31.0212 38.5568 31.0531 38.6563 31.0531 38.7274C31.0531 38.7913 31.0318 38.866 30.9892 38.9512C31.0389 39.0081 31.0638 39.0792 31.0638 39.1644C31.0638 39.2284 31.046 39.2959 31.0105 39.367C31.0602 39.4238 31.0851 39.4985 31.0851 39.5908C31.0851 39.6761 31.0602 39.7472 31.0105 39.804C31.0531 39.8893 31.0745 39.9568 31.0745 40.0066C31.0745 40.0492 31.046 40.1203 30.9892 40.2198C31.0176 40.2482 31.0318 40.2873 31.0318 40.337C31.0318 40.401 31.0105 40.4436 30.9679 40.465C31.0389 40.5289 31.0745 40.6106 31.0745 40.7101C31.0745 40.7457 31.0673 40.8061 31.0531 40.8914L31.1171 40.8807C31.1953 40.8807 31.277 40.9162 31.3623 40.9873C31.4689 40.9091 31.6075 40.87 31.778 40.87C31.842 40.87 31.9095 40.8771 31.9806 40.8914C32.0232 40.8416 32.0836 40.8025 32.1618 40.7741C32.2399 40.7457 32.3252 40.7315 32.4176 40.7315C32.5669 40.7315 32.6806 40.7634 32.7587 40.8274C32.8014 40.7563 32.876 40.6995 32.9826 40.6568C33.0892 40.6142 33.1958 40.5929 33.3024 40.5929C33.3806 40.5929 33.4445 40.6035 33.4943 40.6249C33.5724 40.5822 33.6435 40.5609 33.7075 40.5609C33.8212 40.5609 33.9207 40.6071 34.006 40.6995C34.0912 40.7919 34.1339 40.8985 34.1339 41.0193C34.1339 41.1685 34.0664 41.2858 33.9313 41.3711C33.9029 41.4279 33.8461 41.4777 33.7608 41.5203C33.6755 41.5558 33.5831 41.5736 33.4836 41.5736C33.3841 41.5736 33.3059 41.5558 33.2491 41.5203C33.1922 41.5772 33.1176 41.6269 33.0252 41.6695C32.9328 41.7051 32.8405 41.7228 32.7481 41.7228C32.6059 41.7228 32.4958 41.6838 32.4176 41.6056C32.2968 41.7335 32.1405 41.7975 31.9486 41.7975C31.913 41.7975 31.8526 41.7904 31.7674 41.7761C31.6252 41.8614 31.4866 41.9041 31.3516 41.9041C31.245 41.9041 31.1526 41.8756 31.0745 41.8188C30.9963 41.9396 30.8826 42 30.7333 42C30.6054 42 30.4917 41.9503 30.3922 41.8508C30.2998 41.7513 30.2678 41.634 30.2963 41.499C30.2536 41.4563 30.2217 41.3924 30.2003 41.3071C30.179 41.2218 30.1684 41.1365 30.1684 41.0513C30.1684 40.9873 30.1719 40.9411 30.179 40.9127C30.0866 40.8203 30.0404 40.6639 30.0404 40.4436C30.0404 40.3513 30.0511 40.266 30.0724 40.1878C30.0937 40.1025 30.1186 40.0421 30.147 40.0066C30.1115 39.9355 30.0937 39.8609 30.0937 39.7827C30.0937 39.7472 30.1008 39.701 30.1151 39.6441C30.0511 39.5802 30.0191 39.4949 30.0191 39.3883C30.0191 39.2888 30.044 39.2106 30.0937 39.1538C30.0582 39.0827 30.0404 39.0188 30.0404 38.9619C30.0404 38.8837 30.0653 38.8091 30.1151 38.738C30.0582 38.6101 30.0298 38.4858 30.0298 38.3649C30.0298 38.2157 30.076 38.0736 30.1684 37.9385C30.1257 37.8462 30.0866 37.7324 30.0511 37.5974C30.0227 37.4624 30.0085 37.3345 30.0085 37.2137C30.0085 36.9862 30.0618 36.8299 30.1684 36.7446C30.1328 36.5883 30.1151 36.5065 30.1151 36.4994C30.0724 36.3289 30.0511 36.2081 30.0511 36.137C30.0511 36.0304 30.076 35.9025 30.1257 35.7532C30.0902 35.7035 30.0618 35.6218 30.0404 35.5081C30.0191 35.3944 30.012 35.3126 30.0191 35.2629C29.9338 35.1776 29.8912 35.0746 29.8912 34.9537C29.8912 34.8614 29.9196 34.7761 29.9765 34.6979C30.0404 34.6126 30.1222 34.5558 30.2217 34.5273C30.2714 34.4776 30.3389 34.4385 30.4242 34.4101C30.5095 34.3745 30.5983 34.3568 30.6907 34.3568C30.8115 34.3568 30.9146 34.3888 30.9998 34.4527C31.1206 34.4172 31.2415 34.3994 31.3623 34.3994C31.5328 34.3994 31.6714 34.4385 31.778 34.5167C31.842 34.4883 31.9166 34.474 32.0019 34.474C32.08 34.474 32.1405 34.4918 32.1831 34.5273C32.2257 34.4918 32.3288 34.474 32.4922 34.474C32.7054 34.474 32.8724 34.5096 32.9933 34.5806C33.0714 34.5025 33.1674 34.4634 33.2811 34.4634C33.3521 34.4634 33.4339 34.4811 33.5263 34.5167ZM43.3071 35.1669C43.3427 35.2167 43.3604 35.2949 43.3604 35.4015C43.3604 35.4796 43.3462 35.5578 43.3178 35.636C43.2965 35.7142 43.2645 35.7746 43.2219 35.8172C43.2219 35.938 43.2112 36.0375 43.1899 36.1157C43.1686 36.1939 43.133 36.2649 43.0833 36.3289C43.0975 36.3857 43.1046 36.4319 43.1046 36.4675C43.1046 36.5598 43.0868 36.6522 43.0513 36.7446C43.0229 36.8299 42.9838 36.8939 42.934 36.9365C42.9696 37.0076 42.9873 37.0822 42.9873 37.1604C42.9873 37.2314 42.9731 37.306 42.9447 37.3842C42.9163 37.4553 42.8807 37.5157 42.8381 37.5654C42.8665 37.6223 42.8807 37.6934 42.8807 37.7786C42.8807 37.8568 42.8665 37.9385 42.8381 38.0238C42.8097 38.102 42.7706 38.166 42.7208 38.2157C42.7279 38.2512 42.7315 38.3081 42.7315 38.3863C42.7315 38.5426 42.6889 38.6776 42.6036 38.7913C42.6391 38.8766 42.6569 38.9512 42.6569 39.0152C42.6569 39.1431 42.6036 39.2675 42.497 39.3883C42.5325 39.4949 42.5503 39.5802 42.5503 39.6441C42.5503 39.7792 42.4899 39.8858 42.3691 39.9639C42.3833 39.9853 42.3904 40.0208 42.3904 40.0705C42.3904 40.1487 42.3691 40.2304 42.3264 40.3157C42.2838 40.401 42.2376 40.4579 42.1878 40.4863C42.2163 40.5431 42.2305 40.5893 42.2305 40.6249C42.2305 40.6959 42.2092 40.767 42.1665 40.8381C42.131 40.9091 42.0812 40.9482 42.0173 40.9553C42.0457 41.0051 42.0599 41.0655 42.0599 41.1365C42.0599 41.236 42.0315 41.3284 41.9746 41.4137C41.9249 41.499 41.8609 41.5523 41.7828 41.5736C41.7828 41.7086 41.7472 41.8152 41.6762 41.8934C41.6051 41.9645 41.5198 42 41.4203 42C41.3279 42 41.2427 41.968 41.1645 41.9041C41.0863 41.833 41.0437 41.7406 41.0366 41.6269C40.9797 41.5914 40.9229 41.5167 40.866 41.403C40.8091 41.2893 40.7807 41.1792 40.7807 41.0726C40.7807 41.0086 40.7914 40.9553 40.8127 40.9127C40.7203 40.8771 40.6421 40.8167 40.5782 40.7315C40.5213 40.6391 40.4929 40.5396 40.4929 40.433C40.4929 40.4046 40.5 40.3619 40.5142 40.3051C40.4076 40.2482 40.3223 40.17 40.2584 40.0705C40.1944 39.971 40.1624 39.8644 40.1624 39.7507C40.1624 39.6939 40.1731 39.6335 40.1944 39.5695C39.9741 39.4487 39.864 39.2497 39.864 38.9726C39.864 38.7949 39.8924 38.6492 39.9492 38.5355C39.7787 38.4786 39.6934 38.3507 39.6934 38.1517C39.6934 38.102 39.697 38.0665 39.7041 38.0451C39.6401 38.0167 39.5797 37.9421 39.5228 37.8213C39.4731 37.6934 39.4482 37.5797 39.4482 37.4802C39.4482 37.402 39.466 37.3451 39.5015 37.3096C39.4447 37.2954 39.3949 37.2492 39.3523 37.171C39.3167 37.0928 39.299 37.0076 39.299 36.9152C39.299 36.8583 39.3096 36.805 39.331 36.7553C39.3025 36.7269 39.2812 36.6878 39.267 36.638C39.2741 36.773 39.2492 36.9045 39.1924 37.0324C39.1426 37.1533 39.0716 37.2421 38.9792 37.2989C39.0147 37.3416 39.0325 37.402 39.0325 37.4802C39.0325 37.5654 39.0112 37.6578 38.9685 37.7573C38.9259 37.8497 38.8832 37.9243 38.8406 37.9812C38.8619 38.0309 38.8726 38.0913 38.8726 38.1624C38.8726 38.2548 38.8548 38.3436 38.8193 38.4289C38.7909 38.5071 38.7482 38.571 38.6914 38.6208C38.7056 38.6563 38.7127 38.7167 38.7127 38.802C38.7127 38.9086 38.6914 39.0188 38.6487 39.1325C38.6132 39.2391 38.5599 39.3243 38.4888 39.3883C38.5101 39.4594 38.5208 39.5304 38.5208 39.6015C38.5208 39.6939 38.503 39.7792 38.4675 39.8573C38.432 39.9355 38.3822 39.9959 38.3183 40.0386C38.3325 40.1736 38.3112 40.3157 38.2543 40.465C38.2046 40.6142 38.1264 40.7137 38.0198 40.7634C38.0624 40.8345 38.0837 40.9162 38.0837 41.0086C38.0837 41.1152 38.0553 41.2218 37.9985 41.3284C37.9416 41.4279 37.8705 41.499 37.7853 41.5416C37.7782 41.6553 37.732 41.7584 37.6467 41.8508C37.5685 41.9431 37.469 41.9893 37.3482 41.9893C37.1847 41.9893 37.0462 41.9218 36.9325 41.7868C36.8259 41.6518 36.7726 41.4954 36.7726 41.3178C36.7726 41.2183 36.7939 41.1259 36.8365 41.0406C36.7583 41.0051 36.6944 40.9411 36.6446 40.8487C36.602 40.7563 36.5807 40.6604 36.5807 40.5609C36.5807 40.4898 36.5913 40.4294 36.6127 40.3797C36.5629 40.3299 36.5238 40.2624 36.4954 40.1771C36.467 40.0919 36.4528 40.003 36.4528 39.9106C36.4528 39.8254 36.4634 39.7578 36.4847 39.7081C36.4066 39.6655 36.3462 39.6015 36.3035 39.5162C36.268 39.4238 36.2502 39.3279 36.2502 39.2284C36.2502 39.1218 36.268 39.0472 36.3035 39.0045C36.1756 38.9548 36.1116 38.8695 36.1116 38.7487C36.1116 38.7203 36.1259 38.6634 36.1543 38.5781C36.0761 38.5213 36.037 38.436 36.037 38.3223C36.037 38.2583 36.0512 38.2015 36.0797 38.1517C35.9375 38.0736 35.8736 37.9314 35.8878 37.7253C35.8167 37.6756 35.767 37.6116 35.7385 37.5335C35.7101 37.4553 35.703 37.3771 35.7172 37.2989C35.6177 37.1994 35.568 37.0857 35.568 36.9578C35.568 36.8939 35.5786 36.837 35.6 36.7873C35.5644 36.7517 35.536 36.7055 35.5147 36.6487C35.4934 36.5918 35.4827 36.5385 35.4827 36.4888C35.4827 36.4319 35.4898 36.3928 35.504 36.3715C35.4045 36.3005 35.3548 36.1974 35.3548 36.0624C35.3548 35.9629 35.3761 35.8776 35.4187 35.8065C35.3619 35.7852 35.3086 35.7213 35.2588 35.6147C35.2162 35.5081 35.1949 35.4015 35.1949 35.2949C35.1949 35.238 35.2091 35.174 35.2375 35.103C35.1878 35.0035 35.1629 34.904 35.1629 34.8045C35.1629 34.6766 35.1984 34.5735 35.2695 34.4954C35.3477 34.4172 35.4543 34.3781 35.5893 34.3781C35.7314 34.3781 35.8416 34.4527 35.9198 34.602C36.005 34.7441 36.0477 34.9004 36.0477 35.071L36.037 35.1776C36.1152 35.2487 36.1792 35.3482 36.2289 35.4761C36.2786 35.604 36.3035 35.7319 36.3035 35.8598C36.3035 35.9309 36.3 35.9807 36.2929 36.0091C36.3781 36.0944 36.4208 36.1867 36.4208 36.2862C36.4208 36.336 36.4172 36.3786 36.4101 36.4142C36.4457 36.4355 36.4741 36.4746 36.4954 36.5314C36.5238 36.5812 36.538 36.638 36.538 36.702C36.538 36.773 36.5238 36.837 36.4954 36.8939C36.5594 36.9862 36.5913 37.0644 36.5913 37.1284C36.6553 37.1639 36.705 37.2243 36.7406 37.3096C36.7761 37.3949 36.7939 37.4837 36.7939 37.5761C36.7939 37.633 36.7903 37.672 36.7832 37.6934C36.9182 37.8426 36.9858 37.9989 36.9858 38.1624C36.9858 38.205 36.9822 38.237 36.9751 38.2583C37.0106 38.2868 37.0426 38.3365 37.071 38.4076C37.0995 38.4786 37.1137 38.5497 37.1137 38.6208C37.1137 38.6634 37.1101 38.6918 37.103 38.7061C37.1812 38.7913 37.2132 38.9335 37.199 39.1325C37.2771 39.2106 37.3162 39.303 37.3162 39.4096C37.3162 39.4807 37.2949 39.5482 37.2523 39.6122C37.2878 39.6264 37.3198 39.6974 37.3482 39.8254C37.3837 39.9462 37.4015 40.0599 37.4015 40.1665C37.4015 40.0528 37.4086 39.9533 37.4228 39.868C37.4441 39.7756 37.4726 39.7259 37.5081 39.7188C37.501 39.5908 37.5152 39.4842 37.5507 39.399C37.5934 39.3066 37.6431 39.2533 37.7 39.2391C37.6858 39.168 37.6964 39.0685 37.732 38.9406C37.7746 38.8056 37.8243 38.7096 37.8812 38.6528C37.8812 38.5106 37.8954 38.3898 37.9238 38.2903C37.9594 38.1837 38.002 38.102 38.0518 38.0451C38.0375 38.0025 38.0304 37.9599 38.0304 37.9172C38.0304 37.8248 38.0482 37.7289 38.0837 37.6294C38.1264 37.5299 38.169 37.4731 38.2117 37.4588C38.2046 37.4304 38.201 37.3736 38.201 37.2883C38.201 37.0893 38.2472 36.9685 38.3396 36.9258C38.3254 36.869 38.3183 36.8157 38.3183 36.7659C38.3183 36.6522 38.336 36.5385 38.3716 36.4248C38.4142 36.3111 38.4604 36.24 38.5101 36.2116C38.4959 36.1406 38.4888 36.0873 38.4888 36.0517C38.4888 35.9664 38.503 35.8847 38.5315 35.8065C38.567 35.7213 38.6096 35.6609 38.6594 35.6253C38.6523 35.5827 38.6487 35.5223 38.6487 35.4441C38.6487 35.2735 38.702 35.1243 38.8086 34.9964C38.837 34.8969 38.8868 34.8223 38.9579 34.7725C39.036 34.7228 39.1178 34.6979 39.203 34.6979C39.3239 34.6979 39.434 34.7405 39.5335 34.8258C39.633 34.904 39.6827 35.007 39.6827 35.135C39.6827 35.1989 39.6756 35.2487 39.6614 35.2842C39.7041 35.3055 39.7431 35.3517 39.7787 35.4228C39.8142 35.4938 39.832 35.5614 39.832 35.6253C39.832 35.6466 39.8249 35.6786 39.8107 35.7213C39.8959 35.7284 39.9635 35.7923 40.0132 35.9131C40.0701 36.034 40.0878 36.1334 40.0665 36.2116C40.1873 36.3182 40.2477 36.4568 40.2477 36.6274C40.2477 36.67 40.2406 36.7269 40.2264 36.7979C40.2761 36.8548 40.3152 36.9329 40.3437 37.0324C40.3792 37.1248 40.397 37.2172 40.397 37.3096C40.397 37.3593 40.3899 37.4126 40.3756 37.4695C40.4396 37.4979 40.4929 37.569 40.5355 37.6827C40.5853 37.7964 40.6102 37.9243 40.6102 38.0665C40.6102 38.1304 40.6066 38.1802 40.5995 38.2157C40.6777 38.2583 40.7381 38.333 40.7807 38.4396C40.8305 38.5462 40.8553 38.6528 40.8553 38.7594C40.8553 38.802 40.8482 38.8446 40.834 38.8873C40.9051 38.9441 40.9655 39.0792 41.0152 39.2924C41.065 39.4985 41.0792 39.6335 41.0579 39.6974C41.1218 39.733 41.1787 39.8111 41.2284 39.932C41.2853 40.0457 41.3208 40.1807 41.335 40.337C41.335 40.1807 41.3457 40.0634 41.367 39.9853C41.3883 39.9 41.4345 39.8005 41.5056 39.6868C41.4772 39.6299 41.463 39.5589 41.463 39.4736C41.463 39.3812 41.4807 39.2924 41.5163 39.2071C41.5589 39.1218 41.6122 39.0578 41.6762 39.0152C41.6477 38.9655 41.6335 38.905 41.6335 38.834C41.6335 38.7416 41.6513 38.6457 41.6868 38.5462C41.7224 38.4396 41.765 38.3578 41.8147 38.301C41.7934 38.2441 41.7828 38.1908 41.7828 38.1411C41.7828 38.0629 41.8112 37.9847 41.868 37.9066C41.8467 37.8497 41.8361 37.7964 41.8361 37.7467C41.8361 37.6756 41.8574 37.6045 41.9 37.5335C41.9498 37.4553 41.9853 37.3949 42.0066 37.3522C41.964 37.2741 41.9427 37.1817 41.9427 37.0751C41.9427 36.9685 41.9604 36.869 41.996 36.7766C42.0386 36.6771 42.0919 36.6025 42.1559 36.5527C42.1416 36.439 42.1523 36.3147 42.1878 36.1796C42.2305 36.0446 42.2802 35.938 42.3371 35.8598C42.3087 35.7035 42.2944 35.6004 42.2944 35.5507C42.2944 35.4299 42.33 35.3126 42.401 35.1989C42.3939 35.1776 42.3904 35.1456 42.3904 35.103C42.3904 34.9395 42.4401 34.7796 42.5396 34.6233C42.6462 34.4598 42.7777 34.3781 42.934 34.3781C43.2183 34.3781 43.3604 34.5167 43.3604 34.7938C43.3604 34.8436 43.3427 34.968 43.3071 35.1669Z" fill="white"/>
<path fill-rule="evenodd" clip-rule="evenodd" d="M36.2497 20.4759C36.7752 19.2835 35.5469 18.1754 34.3956 18.6686C33.9795 18.8469 33.5675 19.0466 33.0967 19.2955C32.6901 18.8807 32.3331 18.5419 31.963 18.2273C31.0097 17.4171 29.5312 18.1297 29.6827 19.4093C29.7348 19.8492 29.8173 20.2933 29.9358 20.8045C29.9363 20.8064 29.9362 20.8083 29.9351 20.8105C29.9341 20.8127 29.9316 20.8142 29.9316 20.8142C29.3274 21.1137 28.8392 21.3866 28.3736 21.6861C27.3184 22.3649 27.5755 23.9851 28.8506 24.2277C29.3363 24.3201 29.8291 24.3769 30.4074 24.4109C30.4338 25.0041 30.4872 25.5066 30.5826 26.0003C30.829 27.2753 32.4568 27.4814 33.1288 26.4544C33.4404 25.9782 33.7211 25.4889 34.0325 24.8866C34.0325 24.8866 34.0339 24.8846 34.0358 24.8837C34.038 24.8827 34.0398 24.8826 34.0417 24.883C34.5379 24.995 34.9702 25.0737 35.394 25.125C36.7027 25.2835 37.4111 23.789 36.5913 22.8398C36.2868 22.4873 35.9635 22.1461 35.5747 21.7609C35.8502 21.301 36.066 20.893 36.2497 20.4759Z" fill="white"/>
<defs>
<filter id="filter0_d_225_153" x="0.656884" y="0.681715" width="63.6862" height="63.6862" filterUnits="userSpaceOnUse" color-interpolation-filters="sRGB">
<feFlood flood-opacity="0" result="BackgroundImageFix"/>
<feColorMatrix in="SourceAlpha" type="matrix" values="0 0 0 0 0 0 0 0 0 0 0 0 0 0 0 0 0 0 127 0" result="hardAlpha"/>
<feOffset dy="3.02483"/>
<feGaussianBlur stdDeviation="5.67156"/>
<feComposite in2="hardAlpha" operator="out"/>
<feColorMatrix type="matrix" values="0 0 0 0 0 0 0 0 0 0 0 0 0 0 0 0 0 0 0.25 0"/>
<feBlend mode="normal" in2="BackgroundImageFix" result="effect1_dropShadow_225_153"/>
<feBlend mode="normal" in="SourceGraphic" in2="effect1_dropShadow_225_153" result="shape"/>
</filter>
</defs>
</svg>
