<svg width="27" height="25" viewBox="0 0 27 25" fill="none" xmlns="http://www.w3.org/2000/svg">
<g clip-path="url(#clip0_187_49)">
<path d="M2.15644 21.9835C2.03484 22.1123 1.86483 22.181 1.75723 22.325L1.20737 23.716L1.13097 23.7269C0.797395 23.7596 0.46383 23.7956 0.130258 23.8251C-0.0160839 23.8381 -0.0214699 23.9145 0.03018 24.0236C0.0619774 24.0944 0.114675 24.1534 0.180986 24.1925C0.247297 24.2316 0.323952 24.2488 0.400345 24.2418C1.73356 24.2276 3.06569 24.2167 4.39782 24.2014L11.3092 24.124C11.4589 24.1192 11.6045 24.174 11.7149 24.2767C12.6381 25.1495 14.1747 25.3055 15.2422 24.3356C15.4035 24.19 15.615 24.1147 15.8308 24.1262L24.5886 24.2167C25.2551 24.2233 25.9212 24.2316 26.5869 24.2418C26.6631 24.2511 26.7404 24.2364 26.8081 24.1998C26.8759 24.1631 26.9309 24.1061 26.9656 24.0367C27.0302 23.9047 27.0076 23.8621 26.8656 23.8403C26.5277 23.7912 26.1877 23.7661 25.8487 23.7432C25.8293 23.7181 25.8078 23.7138 25.7852 23.7432L25.7282 23.7367C25.7142 23.548 25.6206 23.3865 25.5496 23.2163C25.4494 22.9097 25.326 22.6113 25.1805 22.3239C25.174 22.2748 25.1277 22.2683 25.0998 22.241C25.0018 22.1439 24.8458 22.1243 24.777 21.9868C24.8996 21.9868 24.9255 21.9345 24.8523 21.8374C24.565 21.4544 24.2734 21.0737 23.9915 20.6886C23.975 20.6662 23.953 20.6485 23.9277 20.6374C23.9024 20.6263 23.8746 20.6221 23.8473 20.6253C23.5739 20.6253 23.3028 20.5871 23.0305 20.5686C22.2041 20.5097 21.4283 20.249 20.6546 19.974C20.1932 19.8053 19.714 19.6911 19.2267 19.6337C19.2267 19.5878 19.259 19.5769 19.2999 19.5737C19.7379 19.5344 20.1715 19.4646 20.6073 19.41C21.1905 19.338 21.7759 19.3009 22.3602 19.2693C22.7803 19.2333 23.202 19.2213 23.6234 19.2333C23.7461 19.2409 23.7536 19.1962 23.6912 19.1035C23.5212 18.8493 23.3534 18.5929 23.1844 18.3398C22.9176 17.9372 22.6787 17.5161 22.3903 17.1278C22.2945 16.999 22.216 16.8561 22.1288 16.7208C21.9244 16.403 21.7203 16.0859 21.5166 15.7695C21.48 15.7128 21.4531 15.6986 21.3842 15.7423C21.2174 15.8514 21.042 15.9441 20.8655 16.0336C20.3146 16.3139 19.7239 16.4928 19.1439 16.6881C18.6371 16.8605 18.1303 17.0318 17.6374 17.2336C17.2248 17.4008 16.8208 17.5891 16.4269 17.7976C15.8722 18.0818 15.3494 18.426 14.8677 18.8242C14.4167 19.2087 14.0404 19.6753 13.7583 20.1999C13.6831 20.3597 13.6167 20.5236 13.5592 20.6908C13.5442 20.7279 13.5463 20.7868 13.499 20.789C13.4516 20.7911 13.4688 20.7268 13.4538 20.693C13.3612 20.4846 13.2805 20.2686 13.1708 20.07C12.9636 19.7055 12.7068 19.3724 12.4079 19.0806C12.0865 18.7596 11.7294 18.4777 11.3437 18.2405C10.825 17.9176 10.2833 17.6343 9.72315 17.3929C9.31963 17.2194 8.91074 17.0656 8.49969 16.9085C8.0456 16.7394 7.58507 16.591 7.12667 16.4339C6.61088 16.2538 6.1118 16.0279 5.63527 15.7586C5.52767 15.6997 5.50077 15.7183 5.45019 15.8023C5.30493 16.0423 5.15536 16.2823 4.99503 16.5103C4.7088 16.915 4.45701 17.3449 4.18585 17.7551C4.01583 18.0071 3.8512 18.2645 3.68549 18.5187C3.55744 18.7151 3.43693 18.9169 3.30135 19.1078C3.24862 19.182 3.25938 19.2267 3.36591 19.2257C3.56282 19.2257 3.76081 19.2398 3.95773 19.2486C4.54955 19.2737 5.14138 19.314 5.72782 19.3795C6.19482 19.4307 6.66182 19.4787 7.12667 19.5442C7.19662 19.554 7.30744 19.5126 7.34941 19.6249C7.23212 19.6544 7.1116 19.6751 6.99754 19.7155C6.49503 19.8933 5.99898 20.0864 5.49108 20.2555C4.74539 20.5053 3.97064 20.5828 3.18943 20.6144C3.14476 20.6113 3.10004 20.6196 3.05941 20.6387C3.01877 20.6578 2.98356 20.687 2.95702 20.7235C2.6837 21.0999 2.40823 21.4741 2.12523 21.8417C2.06066 21.929 2.08865 21.9574 2.15644 21.9835Z" fill="white"/>
<path d="M7.34407 19.6304C7.30211 19.5213 7.19128 19.5595 7.12134 19.5497C6.65649 19.4842 6.18949 19.4406 5.72249 19.3849C5.13389 19.3195 4.53885 19.2758 3.95241 19.254C3.75549 19.2453 3.5575 19.2311 3.36059 19.2311C3.25298 19.2311 3.24329 19.1875 3.29601 19.1133C3.43159 18.9224 3.55212 18.7205 3.68017 18.5242C3.84588 18.2678 4.01051 18.0103 4.18053 17.7605C4.45707 17.3503 4.70347 16.9205 4.9897 16.5158C5.15003 16.2877 5.29961 16.0477 5.44487 15.8077C5.49545 15.7237 5.5245 15.7052 5.62995 15.7641C6.10648 16.0333 6.60555 16.2593 7.12134 16.4394C7.57973 16.5965 8.04028 16.7449 8.49437 16.9139C8.90542 17.0678 9.31431 17.2249 9.71783 17.3983C10.278 17.6397 10.8197 17.9231 11.3383 18.246C11.724 18.4832 12.0812 18.7651 12.4025 19.086C12.7015 19.3778 12.9583 19.7109 13.1655 20.0755C13.2731 20.274 13.3559 20.4901 13.4485 20.6984C13.4635 20.7322 13.4302 20.7966 13.4936 20.7944C13.5571 20.7922 13.5388 20.7333 13.5539 20.6962C13.6113 20.529 13.6778 20.3651 13.753 20.2053C14.0351 19.6808 14.4113 19.2142 14.8624 18.8296C15.3441 18.4315 15.8668 18.0873 16.4215 17.8031C16.8155 17.5945 17.2195 17.4063 17.6321 17.239C18.126 17.0329 18.6328 16.8616 19.1385 16.6936C19.7196 16.4939 20.3104 16.315 20.8602 16.039C21.0367 15.9496 21.2121 15.8546 21.3789 15.7477C21.4477 15.7041 21.4746 15.7183 21.5112 15.775C21.715 16.0921 21.919 16.4092 22.1235 16.7263C22.2107 16.8616 22.2892 17.0045 22.385 17.1332C22.6733 17.5216 22.9122 17.9427 23.1791 18.3453C23.348 18.6005 23.5159 18.8569 23.6859 19.1089C23.7483 19.2016 23.7408 19.2464 23.6181 19.2387C23.1967 19.2267 22.7749 19.2387 22.3548 19.2747C21.7705 19.3097 21.1852 19.3435 20.602 19.4155C20.1716 19.47 19.7325 19.5398 19.2946 19.5791C19.2537 19.5791 19.2257 19.5933 19.2214 19.6391C18.8362 19.6271 18.4682 19.7329 18.0991 19.8158C17.4516 19.9565 16.8159 20.148 16.1977 20.3886C15.6155 20.598 15.0664 20.892 14.5675 21.2613C14.3911 21.3988 14.1866 21.5188 14.0876 21.7414C14.0653 21.7451 14.0441 21.7537 14.0255 21.7667C14.0069 21.7798 13.9913 21.7968 13.98 21.8166C13.8435 21.9752 13.7191 22.1441 13.6077 22.3217C13.5335 22.4614 13.4528 22.4679 13.3678 22.3447C13.0268 21.8369 12.5634 21.4261 12.0216 21.1512C12.0141 21.0912 11.9678 21.0704 11.9226 21.0421C11.3721 20.7366 10.7959 20.481 10.201 20.2784C9.64014 20.0908 9.06883 19.9371 8.49006 19.818C8.11237 19.7362 7.73898 19.6249 7.34407 19.6304Z" fill="#F5F5F5"/>
<path d="M12.0204 21.1446C12.5622 21.4195 13.0256 21.8304 13.3665 22.3381C13.4516 22.4614 13.5323 22.4548 13.6065 22.3152C13.7178 22.1375 13.8423 21.9687 13.9788 21.8101C13.9901 21.7903 14.0057 21.7732 14.0243 21.7602C14.0429 21.7472 14.0641 21.7385 14.0864 21.7348C14.1957 21.717 14.2957 21.6615 14.3694 21.5777C14.7225 21.2896 15.1268 21.0729 15.5606 20.9395C16.2766 20.7085 17.0308 20.624 17.7794 20.6908C18.4005 20.7498 19.0137 20.8756 19.6087 21.0661C19.9993 21.1828 20.3823 21.3246 20.774 21.4424C21.1399 21.5515 21.5068 21.6606 21.8737 21.7697C21.9135 21.7752 21.9544 21.7774 21.9931 21.7861C22.5129 21.9148 23.0272 22.0599 23.5523 22.1614C24.0774 22.2628 24.6284 22.3621 25.175 22.3239C25.3205 22.6113 25.4439 22.9097 25.5441 23.2163C25.6097 23.3865 25.7087 23.5436 25.7227 23.7367L23.0939 23.5741C22.4246 23.5327 21.7554 23.4847 21.0861 23.452C20.0961 23.404 19.1115 23.297 18.1269 23.1923C17.1423 23.0733 16.1463 23.0887 15.1657 23.2381C15.0988 23.2423 15.0357 23.271 14.9881 23.3189C14.9042 23.4214 14.8407 23.38 14.7622 23.308C14.5357 23.1008 14.2887 22.918 14.0251 22.7625C13.8755 22.6631 13.703 22.6048 13.5245 22.5936C13.346 22.5823 13.1677 22.6183 13.0071 22.6981C12.6746 22.866 12.3746 23.0933 12.1216 23.369C12.0452 23.4498 11.9838 23.465 11.9203 23.3603C11.8923 23.3173 11.853 23.2831 11.8068 23.2615C11.7606 23.2399 11.7093 23.2318 11.6589 23.2381C11.5827 23.2418 11.5064 23.2389 11.4307 23.2294C10.9633 23.1569 10.4907 23.1252 10.0179 23.1345C8.89129 23.1269 7.78296 23.3385 6.66173 23.3996C5.75893 23.4498 4.85721 23.5087 3.95441 23.5676C3.43791 23.5992 2.92034 23.6265 2.40277 23.6549L1.2019 23.7192L1.75176 22.3283C2.12035 22.3401 2.48928 22.3208 2.8547 22.2705C3.13339 22.2246 3.40886 22.1614 3.68432 22.1079C4.0935 22.0275 4.49829 21.9255 4.89702 21.8025C4.93716 21.7998 4.97707 21.7944 5.01646 21.7861C5.38985 21.677 5.7697 21.5864 6.13017 21.4479C6.46697 21.3214 6.82314 21.2504 7.1664 21.1413C7.54229 21.0116 7.92572 20.9056 8.31453 20.8239C8.66502 20.7485 9.01968 20.6945 9.37658 20.6624C9.92827 20.6266 10.4822 20.6725 11.0208 20.7988C11.3603 20.8942 11.6941 21.0097 12.0204 21.1446Z" fill="#E7D5C6"/>
<path d="M1.20737 23.716L2.40823 23.6516C2.9258 23.6232 3.44338 23.596 3.95988 23.5643C4.86268 23.5098 5.7644 23.4465 6.6672 23.3963C7.78844 23.3352 8.89675 23.1236 10.0234 23.1312C10.4961 23.1219 10.9688 23.1536 11.4362 23.2261C11.5119 23.2356 11.5882 23.2385 11.6643 23.2349C11.7148 23.2285 11.766 23.2366 11.8122 23.2582C11.8584 23.2798 11.8978 23.314 11.9258 23.357C11.9893 23.4661 12.0506 23.4465 12.127 23.3658C12.3801 23.09 12.6801 22.8627 13.0126 22.6948C13.1732 22.615 13.3515 22.579 13.53 22.5903C13.7085 22.6016 13.881 22.6598 14.0305 22.7592C14.2942 22.9147 14.5412 23.0975 14.7676 23.3047C14.8462 23.3767 14.9097 23.4138 14.9936 23.3156C15.0412 23.2678 15.1043 23.2391 15.1711 23.2349C16.1518 23.0855 17.1477 23.07 18.1324 23.189C19.117 23.2981 20.1016 23.4007 21.0915 23.4487C21.7608 23.4814 22.4301 23.5294 23.0994 23.5709L25.7282 23.7334L25.7852 23.74H25.8487C26.1877 23.7629 26.5277 23.788 26.8656 23.8371C27.0076 23.8589 27.0302 23.9014 26.9656 24.0334C26.9309 24.1029 26.8759 24.1598 26.8081 24.1965C26.7404 24.2332 26.6631 24.2478 26.5869 24.2385C25.9204 24.2291 25.2544 24.2207 24.5886 24.2134L15.8308 24.1229C15.615 24.1115 15.4035 24.1867 15.2422 24.3323C14.1747 25.3022 12.6381 25.1462 11.7149 24.2734C11.6045 24.1708 11.4589 24.116 11.3092 24.1207L4.39782 24.1982C3.06569 24.2134 1.73356 24.2243 0.400345 24.2385C0.323952 24.2455 0.247297 24.2283 0.180986 24.1892C0.114675 24.1501 0.0619774 24.0911 0.03018 24.0203C-0.0214699 23.9112 -0.0160839 23.8349 0.130258 23.8218C0.46383 23.7923 0.797395 23.7563 1.13097 23.7236L1.20737 23.716Z" fill="#71ACAB"/>
<path d="M21.879 21.7665C21.5121 21.6574 21.1451 21.5483 20.7793 21.4392C20.3876 21.3214 20.0045 21.1795 19.6139 21.0628C19.019 20.8724 18.4058 20.7466 17.7847 20.6875C17.0361 20.6207 16.2819 20.7053 15.5659 20.9362C15.1321 21.0696 14.7278 21.2863 14.3747 21.5744C14.301 21.6619 14.1993 21.7203 14.0874 21.7392C14.1864 21.521 14.3908 21.3966 14.5673 21.2592C15.0662 20.8898 15.6153 20.5958 16.1975 20.3864C16.8157 20.1458 17.4514 19.9543 18.0989 19.8137C18.468 19.7308 18.836 19.6249 19.2212 19.6369C19.7085 19.6944 20.1876 19.8086 20.6491 19.9773C21.4228 20.2522 22.1986 20.513 23.025 20.5719C23.2972 20.5904 23.5684 20.6297 23.8417 20.6286C23.8691 20.6254 23.8969 20.6295 23.9222 20.6407C23.9475 20.6518 23.9695 20.6694 23.9859 20.6919C24.2721 21.0759 24.5637 21.4555 24.8467 21.8406C24.9199 21.9377 24.8941 21.9912 24.7714 21.9901C24.3021 22.0739 23.8228 22.082 23.351 22.0141C22.8903 21.9535 22.4349 21.8572 21.9888 21.7261C21.9425 21.7054 21.893 21.6868 21.879 21.7665Z" fill="#F5F5F5"/>
<path d="M12.0203 21.1446C11.6959 21.0088 11.3639 20.8922 11.0261 20.7955C10.4875 20.6692 9.93357 20.6233 9.38188 20.6591C9.02498 20.6913 8.67032 20.7452 8.31983 20.8206C7.93102 20.9023 7.54758 21.0083 7.17169 21.1381C6.82843 21.2472 6.47226 21.3181 6.13546 21.4446C5.77068 21.5832 5.39515 21.6781 5.02176 21.7828C4.98237 21.7911 4.94246 21.7966 4.90232 21.7992C4.85498 21.7479 4.80224 21.7752 4.74737 21.7828C4.56121 21.809 4.39013 21.8854 4.20182 21.9105C3.78439 21.9814 3.36335 22.0284 2.9407 22.0512C2.67384 22.0512 2.41882 21.9846 2.15627 21.9835C2.08847 21.953 2.0605 21.929 2.12292 21.8483C2.40591 21.4806 2.68138 21.1064 2.95469 20.7301C2.98123 20.6935 3.01645 20.6643 3.05708 20.6453C3.09771 20.6262 3.14244 20.6178 3.18711 20.621C3.96831 20.5926 4.74306 20.5119 5.48876 20.262C5.99342 20.0929 6.48948 19.8998 6.99521 19.722C7.10927 19.6817 7.22979 19.6609 7.34708 19.6315C7.73984 19.6315 8.11538 19.7406 8.49522 19.8158C9.07399 19.9349 9.6453 20.0886 10.2061 20.2762C10.8011 20.4789 11.3772 20.7344 11.9278 21.0399C11.9665 21.0639 12.0128 21.0846 12.0203 21.1446Z" fill="#F5F5F5"/>
<path d="M2.15629 21.9836C2.41884 21.9836 2.67387 22.0566 2.94072 22.0512C3.36338 22.0284 3.78442 21.9814 4.20184 21.9105C4.39015 21.8854 4.56123 21.809 4.74739 21.7828C4.80226 21.7752 4.855 21.7479 4.90234 21.7992C4.50361 21.9222 4.09883 22.0242 3.68964 22.1046C3.41418 22.1636 3.13872 22.2214 2.86002 22.2672C2.4946 22.3175 2.12567 22.3368 1.75708 22.325C1.86468 22.181 2.03577 22.1123 2.15629 21.9836Z" fill="#F5F5F5"/>
<path d="M21.8792 21.7665C21.8931 21.6868 21.9448 21.7054 21.9954 21.7195C22.4415 21.8507 22.8969 21.947 23.3576 22.0075C23.8294 22.0754 24.3087 22.0673 24.778 21.9835C24.8458 22.121 25.0018 22.1406 25.1008 22.2377C25.1288 22.265 25.1751 22.2716 25.1815 22.3206C24.6317 22.3588 24.0958 22.2617 23.5588 22.1581C23.0219 22.0545 22.5194 21.9115 21.9997 21.7828C21.9599 21.7741 21.919 21.7719 21.8792 21.7665Z" fill="#F5F5F5"/>
<path d="M25.8487 23.7443H25.7852C25.8078 23.7149 25.8293 23.7192 25.8487 23.7443Z" fill="#71ACAB"/>
<path d="M13.5118 4.82305C13.4903 4.66377 13.5904 4.54813 13.6614 4.42486C14.0918 3.6732 14.5007 2.90518 14.7643 2.07497C15.0667 1.12258 14.5889 0.229098 13.7077 0.038183C12.8027 -0.157095 12.0366 0.418921 11.8902 1.41059C11.845 1.71387 11.8429 2.02697 11.774 2.3237C11.6062 3.04918 11.8181 3.80193 11.6008 4.51977C11.1631 3.49656 10.5634 2.55281 9.82531 1.72587C9.06133 0.896753 7.78083 1.22294 7.38808 2.28443C7.17287 2.88336 7.31491 3.44737 7.85615 3.9383C8.65996 4.66595 9.60365 5.18633 10.5226 5.74271C9.49066 5.65544 8.47057 5.77326 7.45156 5.91508C6.79518 6.00563 6.29483 6.33509 6.12912 7.00602C5.96341 7.67695 6.14095 8.25842 6.7317 8.66643C7.28048 9.06026 7.83894 8.93153 8.40493 8.70789C9.31957 8.34679 10.16 7.83514 11.0111 7.35294C10.4432 8.23571 9.96374 9.17387 9.57997 10.1534C9.33141 10.7829 9.38091 11.3851 9.84791 11.8782C10.2267 12.2764 10.726 12.4542 11.2769 12.2927C11.9688 12.0887 12.3443 11.5923 12.4229 10.8745C12.4853 10.2974 12.5197 9.71701 12.5671 9.13772C12.7123 9.31227 12.7371 9.53264 12.792 9.74101C13.3343 11.7723 13.8784 13.8029 14.4243 15.8328C14.4674 15.9932 14.4383 16.2692 14.7719 16.1776C14.9871 16.1197 15.0086 16.0346 14.9505 15.8296C14.5201 14.3153 14.1553 12.7836 13.7077 11.2727C13.5011 10.5745 13.2428 9.8752 13.2009 9.01881C13.6775 9.59919 13.981 10.1818 14.4372 10.6399C14.5804 10.7913 14.7533 10.9106 14.9447 10.9901C15.1361 11.0696 15.3418 11.1076 15.5486 11.1016C15.7554 11.0957 15.9587 11.0459 16.1453 10.9555C16.332 10.8651 16.4979 10.736 16.6323 10.5767C17.2199 9.91556 17.1047 8.9479 16.3493 8.32061C15.5445 7.65186 14.647 7.12057 13.7453 6.5991C14.7439 6.58601 15.7435 6.62965 16.7367 6.47473C17.3823 6.37328 17.8892 6.11581 18.1356 5.45907C18.2447 5.19846 18.273 4.91033 18.2167 4.63302C18.1604 4.35571 18.0221 4.10236 17.8203 3.90666C17.3382 3.39501 16.7647 3.31755 16.1051 3.55865C15.1926 3.88811 14.377 4.40522 13.5118 4.82305Z" fill="white"/>
<path d="M13.7454 6.59583C14.6471 7.12057 15.5445 7.64858 16.3473 8.3206C17.1005 8.94789 17.2178 9.91556 16.6303 10.5767C16.4958 10.736 16.3299 10.8651 16.1432 10.9555C15.9566 11.0459 15.7533 11.0957 15.5465 11.1016C15.3398 11.1076 15.1341 11.0696 14.9426 10.9901C14.7512 10.9106 14.5783 10.7913 14.4351 10.6399C13.9789 10.1817 13.6755 9.59919 13.1988 9.01881C13.2407 9.87519 13.499 10.5745 13.7056 11.2727C14.1532 12.7836 14.5202 14.3153 14.9484 15.8295C15.0065 16.0346 14.9828 16.1197 14.7698 16.1776C14.4362 16.2681 14.4653 15.9932 14.4222 15.8328C13.8742 13.8015 13.3322 11.7702 12.7963 9.73883C12.7415 9.53046 12.7167 9.31009 12.5714 9.13554C12.5714 8.79625 12.5596 8.45697 12.5618 8.1166C12.5618 7.91259 12.5187 7.73913 12.2745 7.77841C11.7763 7.85695 11.3921 7.62022 11.0155 7.34967C10.1643 7.83513 9.32395 8.34351 8.40932 8.70461C7.84332 8.9228 7.28486 9.05699 6.73608 8.66316C6.78058 8.58706 6.8302 8.51416 6.88458 8.44497C7.61521 7.60931 8.62453 7.36385 9.63278 7.1173C10.5399 6.89911 10.669 6.69947 10.527 5.74707C9.60803 5.19069 8.66434 4.67032 7.86054 3.94266C7.32252 3.45173 7.17188 2.88772 7.39247 2.28879C7.78307 1.22731 9.06571 0.901115 9.8297 1.73023C10.5678 2.55717 11.1675 3.50093 11.6052 4.52413C12.1776 4.64413 12.8049 4.57322 13.2892 5.01178C13.6647 5.46888 13.7895 6.00781 13.7454 6.59583ZM12.1507 5.58343C11.7902 5.60525 11.5793 5.77871 11.5761 6.15727C11.5729 6.53582 11.7612 6.74856 12.1141 6.76819C12.509 6.78892 12.7167 6.52928 12.7253 6.1649C12.7339 5.80053 12.4983 5.61943 12.1507 5.58343Z" fill="#DC968F"/>
<path d="M13.2848 5.00742C12.8006 4.57104 12.1733 4.63977 11.6008 4.51977C11.816 3.80193 11.6008 3.04918 11.7741 2.3237C11.8429 2.02697 11.8451 1.71387 11.8903 1.41059C12.0366 0.418921 12.8028 -0.157095 13.7077 0.038183C14.589 0.229098 15.0668 1.12258 14.7644 2.07497C14.5008 2.90518 14.094 3.6732 13.6614 4.42486C13.5904 4.54813 13.4904 4.66377 13.5119 4.82305L13.3785 4.93214L13.2848 5.00742Z" fill="#A0D1CA"/>
<path d="M11.011 7.34858C11.3876 7.61913 11.7718 7.85586 12.27 7.77732C12.5142 7.73804 12.5573 7.9115 12.5573 8.11551C12.5573 8.45588 12.5573 8.79516 12.567 9.13445C12.5196 9.71374 12.4852 10.2941 12.4228 10.8712C12.3442 11.588 11.9687 12.0843 11.2768 12.2894C10.7259 12.4509 10.2266 12.2731 9.8478 11.8749C9.3808 11.3818 9.3313 10.7839 9.57987 10.1501C9.96357 9.17021 10.443 8.2317 11.011 7.34858Z" fill="#A0D1CA"/>
<path d="M13.2849 5.00742L13.3839 4.92669L13.5163 4.81759C14.3771 4.39976 15.197 3.88266 16.1063 3.54992C16.7659 3.30882 17.3394 3.38628 17.8215 3.89793C18.0233 4.09363 18.1616 4.34699 18.2179 4.6243C18.2742 4.90161 18.2459 5.18973 18.1368 5.45034C17.8936 6.1049 17.3835 6.36455 16.7379 6.46601C15.7447 6.62092 14.7451 6.5751 13.7465 6.59037C13.7896 6.00781 13.6648 5.46889 13.2849 5.00742Z" fill="#F1C65E"/>
<path d="M10.5226 5.74271C10.6647 6.69511 10.5355 6.89148 9.62845 7.11294C8.6202 7.35949 7.61087 7.60495 6.88024 8.44061C6.82586 8.5098 6.77624 8.5827 6.73174 8.6588C6.141 8.25079 5.96453 7.66277 6.12916 6.99839C6.2938 6.334 6.79522 6.00236 7.45161 5.90745C8.47062 5.77326 9.49071 5.65544 10.5226 5.74271Z" fill="#A0D1CA"/>
<path d="M12.1505 5.58344C12.497 5.61944 12.7381 5.80162 12.7295 6.16491C12.7208 6.52819 12.5142 6.78892 12.1183 6.7682C11.761 6.74856 11.5738 6.52383 11.5802 6.15727C11.5867 5.79071 11.7911 5.60525 12.1505 5.58344Z" fill="white"/>
</g>
<defs>
<clipPath id="clip0_187_49">
<rect width="27" height="25" fill="white"/>
</clipPath>
</defs>
</svg>
